<svg width="707" height="185" viewBox="0 0 707 185" fill="none" xmlns="http://www.w3.org/2000/svg">
<path d="M1.36771 23.9243L5.52571 11.5383H8.53971L12.7857 23.9243H10.8277L9.63971 20.2283H4.49171L3.30371 23.9243H1.36771ZM7.06571 12.3083L4.97571 18.7763H9.15571L7.06571 12.3083ZM18.8073 23.9243V11.5383H23.4933C23.9773 11.5383 24.498 11.575 25.0553 11.6483C25.6127 11.707 26.1333 11.8463 26.6173 12.0663C27.1013 12.2716 27.4973 12.5943 27.8053 13.0343C28.1133 13.4743 28.2673 14.0683 28.2673 14.8163C28.2673 15.2856 28.172 15.7256 27.9813 16.1363C27.8053 16.5323 27.4753 16.855 26.9913 17.1043C26.5073 17.3536 25.818 17.493 24.9233 17.5223V17.6103C25.9647 17.625 26.764 17.7716 27.3213 18.0503C27.8933 18.329 28.2893 18.6956 28.5093 19.1503C28.7293 19.5903 28.8393 20.0816 28.8393 20.6243C28.8393 21.4016 28.6707 22.0103 28.3333 22.4503C27.996 22.8903 27.5633 23.2203 27.0353 23.4403C26.5073 23.6456 25.9427 23.7776 25.3413 23.8363C24.7547 23.895 24.1973 23.9243 23.6693 23.9243H18.8073ZM20.6113 16.8183H23.2733C23.8747 16.8183 24.41 16.789 24.8793 16.7303C25.3633 16.657 25.7447 16.4883 26.0233 16.2243C26.302 15.9603 26.4413 15.5496 26.4413 14.9923C26.4413 14.391 26.2947 13.9583 26.0013 13.6943C25.708 13.4156 25.3193 13.2396 24.8353 13.1663C24.3513 13.093 23.838 13.0563 23.2953 13.0563H20.6113V16.8183ZM20.6113 22.4283H23.5153C24.146 22.4283 24.718 22.3916 25.2313 22.3183C25.7447 22.2303 26.1553 22.047 26.4633 21.7683C26.786 21.475 26.9473 21.0203 26.9473 20.4043C26.9473 19.7736 26.7787 19.3043 26.4413 18.9963C26.1187 18.6883 25.6787 18.4903 25.1213 18.4023C24.5787 18.2996 23.9847 18.2483 23.3393 18.2483H20.6113V22.4283ZM40.5396 24.2323C38.5596 24.2323 37.0489 23.653 36.0076 22.4943C34.9662 21.321 34.4456 19.7443 34.4456 17.7643C34.4456 16.459 34.6656 15.3296 35.1056 14.3763C35.5602 13.4083 36.2349 12.6603 37.1296 12.1323C38.0389 11.5896 39.1756 11.3183 40.5396 11.3183C42.5196 11.3183 44.0229 11.905 45.0496 13.0783C46.0909 14.237 46.6116 15.799 46.6116 17.7643C46.6116 19.0403 46.3769 20.1696 45.9076 21.1523C45.4529 22.1203 44.7709 22.8756 43.8616 23.4183C42.9669 23.961 41.8596 24.2323 40.5396 24.2323ZM40.5176 22.4723C41.9402 22.4723 43.0109 22.0323 43.7296 21.1523C44.4482 20.2723 44.8076 19.143 44.8076 17.7643C44.8076 16.3856 44.4482 15.2563 43.7296 14.3763C43.0256 13.4816 41.9549 13.0343 40.5176 13.0343C39.1096 13.0343 38.0389 13.4596 37.3056 14.3103C36.5869 15.161 36.2276 16.3123 36.2276 17.7643C36.2276 18.6736 36.3816 19.4876 36.6896 20.2063C36.9976 20.9103 37.4669 21.4676 38.0976 21.8783C38.7429 22.2743 39.5496 22.4723 40.5176 22.4723ZM58.3218 24.2323C56.6204 24.2323 55.3151 23.7483 54.4058 22.7803C53.5111 21.7976 53.0638 20.419 53.0638 18.6443V11.5383H54.9778V18.6223C54.9778 19.5756 55.1318 20.3383 55.4398 20.9103C55.7478 21.4676 56.1511 21.871 56.6498 22.1203C57.1631 22.3696 57.7204 22.4943 58.3218 22.4943C58.9818 22.4943 59.5611 22.377 60.0598 22.1423C60.5731 21.893 60.9691 21.4896 61.2478 20.9323C61.5411 20.3603 61.6878 19.5903 61.6878 18.6223V11.5383H63.6018V18.6443C63.6018 20.4483 63.1544 21.8343 62.2598 22.8023C61.3798 23.7556 60.0671 24.2323 58.3218 24.2323ZM69.4084 13.1223V11.5383H78.8684V13.1223H75.0624V23.9243H73.2364V13.1223H69.4084ZM99.4729 24.2323C97.7716 24.2323 96.4663 23.7483 95.5569 22.7803C94.6623 21.7976 94.2149 20.419 94.2149 18.6443V11.5383H96.1289V18.6223C96.1289 19.5756 96.2829 20.3383 96.5909 20.9103C96.8989 21.4676 97.3023 21.871 97.8009 22.1203C98.3143 22.3696 98.8716 22.4943 99.4729 22.4943C100.133 22.4943 100.712 22.377 101.211 22.1423C101.724 21.893 102.12 21.4896 102.399 20.9323C102.692 20.3603 102.839 19.5903 102.839 18.6223V11.5383H104.753V18.6443C104.753 20.4483 104.306 21.8343 103.411 22.8023C102.531 23.7556 101.218 24.2323 99.4729 24.2323ZM116.346 24.1883C115.451 24.1883 114.593 24.049 113.772 23.7703C112.95 23.477 112.276 23.0223 111.748 22.4063C111.234 21.7756 110.97 20.9616 110.956 19.9643H112.804C112.804 20.023 112.826 20.1916 112.87 20.4703C112.928 20.7343 113.068 21.0276 113.288 21.3503C113.522 21.6583 113.889 21.9296 114.388 22.1643C114.886 22.399 115.583 22.5163 116.478 22.5163C117.196 22.5163 117.761 22.4136 118.172 22.2083C118.597 22.003 118.89 21.761 119.052 21.4823C119.228 21.2036 119.323 20.9543 119.338 20.7343C119.338 20.2796 119.191 19.913 118.898 19.6343C118.619 19.3556 118.238 19.1356 117.754 18.9743C117.27 18.7983 116.734 18.6443 116.148 18.5123C115.576 18.3656 115.004 18.2116 114.432 18.0503C113.86 17.8743 113.332 17.647 112.848 17.3683C112.378 17.0896 112.004 16.7303 111.726 16.2903C111.462 15.8356 111.352 15.2563 111.396 14.5523C111.44 13.5403 111.916 12.7483 112.826 12.1763C113.75 11.6043 114.938 11.3183 116.39 11.3183C117.24 11.3183 118.032 11.4723 118.766 11.7803C119.499 12.0883 120.086 12.5503 120.526 13.1663C120.966 13.7823 121.186 14.5523 121.186 15.4763H119.404C119.404 14.963 119.294 14.5523 119.074 14.2443C118.854 13.9216 118.575 13.6723 118.238 13.4963C117.9 13.3203 117.548 13.203 117.182 13.1443C116.815 13.071 116.485 13.0343 116.192 13.0343C115.356 13.0343 114.666 13.1883 114.124 13.4963C113.596 13.8043 113.332 14.2223 113.332 14.7503C113.317 15.2196 113.456 15.5936 113.75 15.8723C114.043 16.151 114.432 16.371 114.916 16.5323C115.4 16.6936 115.928 16.8403 116.5 16.9723C117.086 17.1043 117.666 17.251 118.238 17.4123C118.824 17.5736 119.352 17.7936 119.822 18.0723C120.306 18.3363 120.68 18.703 120.944 19.1723C121.222 19.627 121.347 20.2063 121.318 20.9103C121.274 21.5996 121.032 22.1936 120.592 22.6923C120.166 23.1763 119.587 23.5503 118.854 23.8143C118.12 24.0636 117.284 24.1883 116.346 24.1883Z" fill="url(#paint0_linear_135_35)"/>
<path d="M40.7297 66.1443H48.4097L41.2697 99.9243H29.6297L25.2497 75.3243L20.9897 99.9243H9.34971L1.96971 66.1443H9.64971L15.1697 96.9243L21.3497 66.2643L21.2897 66.1443H29.0897L35.4497 96.9243L40.7297 66.1443ZM60.7786 94.1043H79.1386V99.9243H53.6986V66.1443H78.5386V72.3243H60.7786V79.8843H74.2186V85.7643H60.7786V94.1043ZM94.9008 99.9243L105.161 66.1443H117.101L127.661 99.9243H119.921L117.401 90.9243H105.161L102.701 99.9243H94.9008ZM111.281 69.1443L106.721 85.3443H115.841L111.281 69.1443ZM131.747 99.9243V66.1443H144.827C149.227 66.1443 152.667 66.9043 155.147 68.4243C157.667 69.9043 158.927 72.5043 158.927 76.2243C158.927 79.1043 158.247 81.3843 156.887 83.0643C155.567 84.7443 153.727 85.5843 151.367 85.5843C152.607 85.5843 153.547 85.8843 154.187 86.4843C154.827 87.0443 155.267 87.7443 155.507 88.5843C155.787 89.4243 155.987 90.3043 156.107 91.2243C156.267 92.1043 156.467 92.9043 156.707 93.6243C156.947 94.3043 157.347 94.7843 157.907 95.0643C158.507 95.3043 159.387 95.1843 160.547 94.7043V98.7243C159.627 99.5243 158.567 100.044 157.367 100.284C156.167 100.564 155.007 100.504 153.887 100.104C152.767 99.7043 151.827 98.9243 151.067 97.7643C150.347 96.5643 149.987 94.9243 149.987 92.8443C149.987 91.4843 149.887 90.3443 149.687 89.4243C149.527 88.5043 149.107 87.7843 148.427 87.2643C147.747 86.7443 146.667 86.4043 145.187 86.2443C143.707 86.0843 141.647 86.0843 139.007 86.2443V99.9243H131.747ZM139.007 81.0843H144.167C146.047 81.0843 147.587 81.0243 148.787 80.9043C150.027 80.7843 150.947 80.4443 151.547 79.8843C152.147 79.2843 152.447 78.2643 152.447 76.8243C152.447 75.1843 152.087 74.0443 151.367 73.4043C150.647 72.7243 149.567 72.3243 148.127 72.2043C146.727 72.0843 145.007 72.0243 142.967 72.0243H139.007V81.0843ZM172.751 94.1043H191.111V99.9243H165.671V66.1443H190.511V72.3243H172.751V79.8843H186.191V85.7643H172.751V94.1043ZM215.993 94.1043H234.353V99.9243H208.913V66.1443H233.753V72.3243H215.993V79.8843H229.433V85.7643H215.993V94.1043ZM237.577 99.9243L249.397 82.1643L238.477 66.1443H247.057L254.257 77.9043L261.457 66.1443H269.917L259.117 82.1643L270.937 99.9243H262.537L254.257 86.6643L246.037 99.9243H237.577ZM281.8 99.9243H274.54V66.1443H288.46C292.26 66.1443 295.24 67.1243 297.4 69.0843C299.56 71.0043 300.64 73.8843 300.64 77.7243C300.64 81.0843 299.52 83.7243 297.28 85.6443C295.08 87.5243 292.14 88.4643 288.46 88.4643H281.8V99.9243ZM287.44 72.0243H281.8V83.3043H287.44C289.36 83.3043 290.94 82.8443 292.18 81.9243C293.46 80.9643 294.1 79.5443 294.1 77.6643C294.1 75.7443 293.48 74.3243 292.24 73.4043C291 72.4843 289.4 72.0243 287.44 72.0243ZM311.736 94.1043H330.096V99.9243H304.656V66.1443H329.496V72.3243H311.736V79.8843H325.176V85.7643H311.736V94.1043ZM335.419 99.9243V66.1443H348.499C352.899 66.1443 356.339 66.9043 358.819 68.4243C361.339 69.9043 362.599 72.5043 362.599 76.2243C362.599 79.1043 361.919 81.3843 360.559 83.0643C359.239 84.7443 357.399 85.5843 355.039 85.5843C356.279 85.5843 357.219 85.8843 357.859 86.4843C358.499 87.0443 358.939 87.7443 359.179 88.5843C359.459 89.4243 359.659 90.3043 359.779 91.2243C359.939 92.1043 360.139 92.9043 360.379 93.6243C360.619 94.3043 361.019 94.7843 361.579 95.0643C362.179 95.3043 363.059 95.1843 364.219 94.7043V98.7243C363.299 99.5243 362.239 100.044 361.039 100.284C359.839 100.564 358.679 100.504 357.559 100.104C356.439 99.7043 355.499 98.9243 354.739 97.7643C354.019 96.5643 353.659 94.9243 353.659 92.8443C353.659 91.4843 353.559 90.3443 353.359 89.4243C353.199 88.5043 352.779 87.7843 352.099 87.2643C351.419 86.7443 350.339 86.4043 348.859 86.2443C347.379 86.0843 345.319 86.0843 342.679 86.2443V99.9243H335.419ZM342.679 81.0843H347.839C349.719 81.0843 351.259 81.0243 352.459 80.9043C353.699 80.7843 354.619 80.4443 355.219 79.8843C355.819 79.2843 356.119 78.2643 356.119 76.8243C356.119 75.1843 355.759 74.0443 355.039 73.4043C354.319 72.7243 353.239 72.3243 351.799 72.2043C350.399 72.0843 348.679 72.0243 346.639 72.0243H342.679V81.0843ZM385.963 93.7443V99.9243H369.943V93.7443H374.383V72.3243H369.943V66.1443H385.963V72.3243H381.583V93.7443H385.963ZM400.271 94.1043H418.631V99.9243H393.191V66.1443H418.031V72.3243H400.271V79.8843H413.711V85.7643H400.271V94.1043ZM446.934 66.1443H454.494V99.9243H440.634L431.694 69.3243H431.574V99.9243H424.074V66.1443H436.914L446.814 96.7443H446.934V66.1443ZM475.984 100.524C472.784 100.524 469.884 99.8843 467.284 98.6043C464.684 97.2843 462.624 95.3443 461.104 92.7843C459.584 90.2243 458.844 87.0443 458.884 83.2443C458.884 79.4843 459.644 76.2843 461.164 73.6443C462.684 71.0043 464.744 69.0043 467.344 67.6443C469.944 66.2443 472.884 65.5443 476.164 65.5443C479.404 65.5443 482.164 66.1243 484.444 67.2843C486.724 68.4443 488.504 70.0043 489.784 71.9643C491.104 73.9243 491.964 76.0843 492.364 78.4443H484.864C484.624 76.7643 484.024 75.5043 483.064 74.6643C482.104 73.7843 480.984 73.1843 479.704 72.8643C478.464 72.5443 477.284 72.3843 476.164 72.3843C472.844 72.3843 470.324 73.2843 468.604 75.0843C466.884 76.8843 466.024 79.4243 466.024 82.7043C466.024 86.2243 466.844 88.9443 468.484 90.8643C470.164 92.7843 472.704 93.7443 476.104 93.7443C477.264 93.7443 478.484 93.5643 479.764 93.2043C481.044 92.8443 482.164 92.2043 483.124 91.2843C484.124 90.3243 484.744 89.0043 484.984 87.3243H492.544C492.104 89.7643 491.224 91.9843 489.904 93.9843C488.584 95.9443 486.764 97.5243 484.444 98.7243C482.124 99.9243 479.304 100.524 475.984 100.524ZM504.392 94.1043H522.752V99.9243H497.312V66.1443H522.152V72.3243H504.392V79.8843H517.832V85.7643H504.392V94.1043ZM559.515 83.0043C559.515 87.4443 558.635 90.9043 556.875 93.3843C555.115 95.8243 552.615 97.5243 549.375 98.4843C546.175 99.4443 542.415 99.9243 538.095 99.9243H528.615V66.1443H538.095C542.415 66.1443 546.175 66.7843 549.375 68.0643C552.615 69.3043 555.115 71.1643 556.875 73.6443C558.635 76.1243 559.515 79.2443 559.515 83.0043ZM535.755 93.9843H540.255C542.615 93.9843 544.655 93.7043 546.375 93.1443C548.135 92.5443 549.475 91.4643 550.395 89.9043C551.355 88.3043 551.835 85.9843 551.835 82.9443C551.835 79.4243 550.795 76.7843 548.715 75.0243C546.635 73.2643 543.815 72.3843 540.255 72.3843H535.755V93.9843ZM594.147 93.7443V99.9243H578.127V93.7443H582.567V72.3243H578.127V66.1443H594.147V72.3243H589.767V93.7443H594.147ZM624.414 66.1443H631.974V99.9243H618.114L609.174 69.3243H609.054V99.9243H601.554V66.1443H614.394L624.294 96.7443H624.414V66.1443ZM19.0697 172.524C15.8697 172.524 12.9697 171.884 10.3697 170.604C7.76971 169.284 5.70971 167.344 4.18971 164.784C2.66971 162.224 1.92971 159.044 1.96971 155.244C1.96971 151.484 2.72971 148.284 4.24971 145.644C5.76971 143.004 7.82971 141.004 10.4297 139.644C13.0297 138.244 15.9697 137.544 19.2497 137.544C22.4897 137.544 25.2497 138.124 27.5297 139.284C29.8097 140.444 31.5897 142.004 32.8697 143.964C34.1897 145.924 35.0497 148.084 35.4497 150.444H27.9497C27.7097 148.764 27.1097 147.504 26.1497 146.664C25.1897 145.784 24.0697 145.184 22.7897 144.864C21.5497 144.544 20.3697 144.384 19.2497 144.384C15.9297 144.384 13.4097 145.284 11.6897 147.084C9.96971 148.884 9.10971 151.424 9.10971 154.704C9.10971 158.224 9.92971 160.944 11.5697 162.864C13.2497 164.784 15.7897 165.744 19.1897 165.744C20.3497 165.744 21.5697 165.564 22.8497 165.204C24.1297 164.844 25.2497 164.204 26.2097 163.284C27.2097 162.324 27.8297 161.004 28.0697 159.324H35.6297C35.1897 161.764 34.3097 163.984 32.9897 165.984C31.6697 167.944 29.8497 169.524 27.5297 170.724C25.2097 171.924 22.3897 172.524 19.0697 172.524ZM40.9978 171.924V138.144H48.2578V165.744H63.8578V171.924H40.9978ZM75.7786 166.104H94.1386V171.924H68.6986V138.144H93.5386V144.324H75.7786V151.884H89.2186V157.764H75.7786V166.104ZM97.3617 171.924L107.622 138.144H119.562L130.122 171.924H122.382L119.862 162.924H107.622L105.162 171.924H97.3617ZM113.742 141.144L109.182 157.344H118.302L113.742 141.144ZM157.188 138.144H164.748V171.924H150.888L141.948 141.324H141.828V171.924H134.328V138.144H147.168L157.068 168.744H157.188V138.144ZM187.858 165.744V171.924H171.838V165.744H176.278V144.324H171.838V138.144H187.858V144.324H183.478V165.744H187.858ZM218.125 138.144H225.685V171.924H211.825L202.885 141.324H202.765V171.924H195.265V138.144H208.105L218.005 168.744H218.125V138.144ZM246.455 172.584C243.135 172.584 240.235 171.924 237.755 170.604C235.275 169.284 233.355 167.344 231.995 164.784C230.675 162.184 230.055 159.004 230.135 155.244C230.215 151.404 231.015 148.184 232.535 145.584C234.055 142.944 236.095 140.944 238.655 139.584C241.255 138.224 244.235 137.544 247.595 137.544C252.355 137.544 255.995 138.544 258.515 140.544C261.035 142.544 262.735 145.444 263.615 149.244L256.595 150.324C256.235 148.804 255.575 147.604 254.615 146.724C253.695 145.844 252.615 145.224 251.375 144.864C250.135 144.504 248.875 144.324 247.595 144.324C243.995 144.324 241.375 145.284 239.735 147.204C238.135 149.124 237.315 151.624 237.275 154.704C237.275 158.224 238.235 160.904 240.155 162.744C242.115 164.584 244.895 165.504 248.495 165.504C250.415 165.504 252.235 165.104 253.955 164.304C255.715 163.504 256.915 162.084 257.555 160.044H251.135V154.824H264.275V171.924H259.415L257.795 166.824H257.675C256.995 168.264 255.715 169.584 253.835 170.784C251.955 171.984 249.495 172.584 246.455 172.584ZM296.069 172.584C294.189 172.584 292.349 172.364 290.549 171.924C288.749 171.484 287.109 170.784 285.629 169.824C284.149 168.864 282.969 167.624 282.089 166.104C281.249 164.584 280.829 162.744 280.829 160.584H288.089C288.089 160.784 288.169 161.184 288.329 161.784C288.489 162.344 288.849 162.964 289.409 163.644C289.969 164.284 290.829 164.844 291.989 165.324C293.149 165.764 294.689 165.984 296.609 165.984C298.369 165.984 299.809 165.704 300.929 165.144C302.089 164.544 302.689 163.684 302.729 162.564C302.729 161.604 302.329 160.844 301.529 160.284C300.769 159.724 299.749 159.264 298.469 158.904C297.189 158.504 295.769 158.144 294.209 157.824C292.689 157.504 291.169 157.104 289.649 156.624C288.169 156.144 286.809 155.504 285.569 154.704C284.329 153.904 283.349 152.884 282.629 151.644C281.949 150.364 281.669 148.744 281.789 146.784C281.989 143.904 283.369 141.644 285.929 140.004C288.489 138.364 291.969 137.544 296.369 137.544C298.809 137.544 301.089 137.984 303.209 138.864C305.329 139.704 307.049 141.004 308.369 142.764C309.689 144.524 310.349 146.744 310.349 149.424H303.329C303.329 147.984 302.889 146.904 302.009 146.184C301.129 145.464 300.069 144.984 298.829 144.744C297.629 144.464 296.549 144.324 295.589 144.324C293.829 144.324 292.369 144.604 291.209 145.164C290.089 145.684 289.529 146.524 289.529 147.684C289.529 148.684 289.909 149.484 290.669 150.084C291.469 150.684 292.529 151.164 293.849 151.524C295.169 151.884 296.589 152.224 298.109 152.544C299.669 152.824 301.209 153.184 302.729 153.624C304.289 154.064 305.689 154.684 306.929 155.484C308.169 156.244 309.149 157.264 309.869 158.544C310.589 159.784 310.889 161.404 310.769 163.404C310.569 166.284 309.129 168.544 306.449 170.184C303.769 171.784 300.309 172.584 296.069 172.584ZM323.689 166.104H342.049V171.924H316.609V138.144H341.449V144.324H323.689V151.884H337.129V157.764H323.689V166.104ZM347.372 171.924V138.144H360.452C364.852 138.144 368.292 138.904 370.772 140.424C373.292 141.904 374.552 144.504 374.552 148.224C374.552 151.104 373.872 153.384 372.512 155.064C371.192 156.744 369.352 157.584 366.992 157.584C368.232 157.584 369.172 157.884 369.812 158.484C370.452 159.044 370.892 159.744 371.132 160.584C371.412 161.424 371.612 162.304 371.732 163.224C371.892 164.104 372.092 164.904 372.332 165.624C372.572 166.304 372.972 166.784 373.532 167.064C374.132 167.304 375.012 167.184 376.172 166.704V170.724C375.252 171.524 374.192 172.044 372.992 172.284C371.792 172.564 370.632 172.504 369.512 172.104C368.392 171.704 367.452 170.924 366.692 169.764C365.972 168.564 365.612 166.924 365.612 164.844C365.612 163.484 365.512 162.344 365.312 161.424C365.152 160.504 364.732 159.784 364.052 159.264C363.372 158.744 362.292 158.404 360.812 158.244C359.332 158.084 357.272 158.084 354.632 158.244V171.924H347.372ZM354.632 153.084H359.792C361.672 153.084 363.212 153.024 364.412 152.904C365.652 152.784 366.572 152.444 367.172 151.884C367.772 151.284 368.072 150.264 368.072 148.824C368.072 147.184 367.712 146.044 366.992 145.404C366.272 144.724 365.192 144.324 363.752 144.204C362.352 144.084 360.632 144.024 358.592 144.024H354.632V153.084ZM403.815 138.144H411.735L400.935 171.924H388.875L378.075 138.144H385.995L394.875 168.924L403.815 138.144ZM432.662 165.744V171.924H416.642V165.744H421.082V144.324H416.642V138.144H432.662V144.324H428.282V165.744H432.662ZM454.89 172.524C451.69 172.524 448.79 171.884 446.19 170.604C443.59 169.284 441.53 167.344 440.01 164.784C438.49 162.224 437.75 159.044 437.79 155.244C437.79 151.484 438.55 148.284 440.07 145.644C441.59 143.004 443.65 141.004 446.25 139.644C448.85 138.244 451.79 137.544 455.07 137.544C458.31 137.544 461.07 138.124 463.35 139.284C465.63 140.444 467.41 142.004 468.69 143.964C470.01 145.924 470.87 148.084 471.27 150.444H463.77C463.53 148.764 462.93 147.504 461.97 146.664C461.01 145.784 459.89 145.184 458.61 144.864C457.37 144.544 456.19 144.384 455.07 144.384C451.75 144.384 449.23 145.284 447.51 147.084C445.79 148.884 444.93 151.424 444.93 154.704C444.93 158.224 445.75 160.944 447.39 162.864C449.07 164.784 451.61 165.744 455.01 165.744C456.17 165.744 457.39 165.564 458.67 165.204C459.95 164.844 461.07 164.204 462.03 163.284C463.03 162.324 463.65 161.004 463.89 159.324H471.45C471.01 161.764 470.13 163.984 468.81 165.984C467.49 167.944 465.67 169.524 463.35 170.724C461.03 171.924 458.21 172.524 454.89 172.524ZM483.298 166.104H501.658V171.924H476.218V138.144H501.058V144.324H483.298V151.884H496.738V157.764H483.298V166.104ZM520.541 172.584C518.661 172.584 516.821 172.364 515.021 171.924C513.221 171.484 511.581 170.784 510.101 169.824C508.621 168.864 507.441 167.624 506.561 166.104C505.721 164.584 505.301 162.744 505.301 160.584H512.561C512.561 160.784 512.641 161.184 512.801 161.784C512.961 162.344 513.321 162.964 513.881 163.644C514.441 164.284 515.301 164.844 516.461 165.324C517.621 165.764 519.161 165.984 521.081 165.984C522.841 165.984 524.281 165.704 525.401 165.144C526.561 164.544 527.161 163.684 527.201 162.564C527.201 161.604 526.801 160.844 526.001 160.284C525.241 159.724 524.221 159.264 522.941 158.904C521.661 158.504 520.241 158.144 518.681 157.824C517.161 157.504 515.641 157.104 514.121 156.624C512.641 156.144 511.281 155.504 510.041 154.704C508.801 153.904 507.821 152.884 507.101 151.644C506.421 150.364 506.141 148.744 506.261 146.784C506.461 143.904 507.841 141.644 510.401 140.004C512.961 138.364 516.441 137.544 520.841 137.544C523.281 137.544 525.561 137.984 527.681 138.864C529.801 139.704 531.521 141.004 532.841 142.764C534.161 144.524 534.821 146.744 534.821 149.424H527.801C527.801 147.984 527.361 146.904 526.481 146.184C525.601 145.464 524.541 144.984 523.301 144.744C522.101 144.464 521.021 144.324 520.061 144.324C518.301 144.324 516.841 144.604 515.681 145.164C514.561 145.684 514.001 146.524 514.001 147.684C514.001 148.684 514.381 149.484 515.141 150.084C515.941 150.684 517.001 151.164 518.321 151.524C519.641 151.884 521.061 152.224 522.581 152.544C524.141 152.824 525.681 153.184 527.201 153.624C528.761 154.064 530.161 154.684 531.401 155.484C532.641 156.244 533.621 157.264 534.341 158.544C535.061 159.784 535.361 161.404 535.241 163.404C535.041 166.284 533.601 168.544 530.921 170.184C528.241 171.784 524.781 172.584 520.541 172.584Z" fill="#133063"/>
<defs>
<linearGradient id="paint0_linear_135_35" x1="28.6971" y1="15.9243" x2="112.954" y2="15.9243" gradientUnits="userSpaceOnUse">
<stop stop-color="#133063"/>
<stop offset="1" stop-color="#4FA0CA"/>
</linearGradient>
</defs>
</svg>
