<svg width="621" height="233" viewBox="0 0 621 233" fill="none" xmlns="http://www.w3.org/2000/svg">
<path d="M18.9257 14.4123H20.6057L16.6217 27.9243H14.1017L10.8377 16.4523L7.47771 27.9243H4.95771L1.11771 14.4123H2.74971L6.22971 27.2043L10.0217 14.4123H11.6777L15.3497 27.2043L18.9257 14.4123ZM23.2185 17.1003C22.8665 17.1003 22.6265 17.0123 22.4985 16.8363C22.3865 16.6443 22.3305 16.4043 22.3305 16.1163C22.3305 15.8763 22.3865 15.6683 22.4985 15.4923C22.6265 15.3003 22.8665 15.2043 23.2185 15.2043C23.5705 15.2043 23.8025 15.3003 23.9145 15.4923C24.0425 15.6683 24.1065 15.8763 24.1065 16.1163C24.1065 16.4043 24.0425 16.6443 23.9145 16.8363C23.8025 17.0123 23.5705 17.1003 23.2185 17.1003ZM22.4505 27.9243V18.1563H23.9865V27.9243H22.4505ZM28.9191 27.9243C28.3271 27.9243 27.9111 27.7643 27.6711 27.4443C27.4471 27.1243 27.3351 26.6843 27.3351 26.1243V19.3083H25.7991V18.1563C26.3111 18.1563 26.6871 18.1163 26.9271 18.0363C27.1831 17.9403 27.3431 17.7163 27.4071 17.3643C27.4711 17.0123 27.5031 16.4363 27.5031 15.6363H28.8231V18.1563H31.0791V19.3083H28.8231V26.6763H31.1031V27.9243H28.9191ZM33.1999 27.9243V14.4123H34.7599V20.5803H34.8079C34.8399 20.5003 34.9119 20.3323 35.0239 20.0763C35.1519 19.8203 35.3439 19.5483 35.5999 19.2603C35.8559 18.9563 36.1999 18.7003 36.6319 18.4923C37.0639 18.2683 37.6079 18.1563 38.2639 18.1563C39.0959 18.1563 39.7599 18.3163 40.2559 18.6363C40.7519 18.9403 41.1199 19.3483 41.3599 19.8603C41.6159 20.3563 41.7839 20.8923 41.8639 21.4683C41.9439 22.0443 41.9839 22.5883 41.9839 23.1003V27.9243H40.4719V23.1003C40.4719 22.0443 40.2879 21.1883 39.9199 20.5323C39.5679 19.8763 38.8719 19.5483 37.8319 19.5483C37.0959 19.5483 36.5039 19.7243 36.0559 20.0763C35.6079 20.4123 35.2799 20.8683 35.0719 21.4443C34.8639 22.0043 34.7599 22.6203 34.7599 23.2923V27.9243H33.1999ZM56.2262 25.8363V27.9243H50.2022V25.8363H52.0262V16.5243H50.2022V14.4123H56.2262V16.5243H54.4502V25.8363H56.2262ZM59.4812 27.9243V14.4123H64.4492C66.1932 14.4123 67.5532 14.7083 68.5292 15.3003C69.5052 15.8763 69.9932 16.9003 69.9932 18.3723C69.9932 19.4763 69.7292 20.3723 69.2012 21.0603C68.6732 21.7323 67.9132 22.0683 66.9212 22.0683C67.4812 22.0683 67.8972 22.1963 68.1692 22.4523C68.4572 22.6923 68.6572 22.9963 68.7692 23.3643C68.8812 23.7323 68.9612 24.1163 69.0092 24.5163C69.0572 24.9163 69.1132 25.2763 69.1772 25.5963C69.2572 25.9003 69.4012 26.1163 69.6092 26.2443C69.8332 26.3723 70.1772 26.3483 70.6412 26.1723V27.5883C70.3372 27.8443 69.9772 28.0123 69.5612 28.0923C69.1452 28.1883 68.7372 28.1643 68.3372 28.0203C67.9372 27.8763 67.6012 27.5963 67.3292 27.1803C67.0572 26.7483 66.9212 26.1483 66.9212 25.3803C66.9212 24.6763 66.8812 24.1163 66.8012 23.7003C66.7212 23.2683 66.5212 22.9483 66.2012 22.7403C65.8812 22.5163 65.3852 22.3803 64.7132 22.3323C64.0412 22.2683 63.1132 22.2683 61.9292 22.3323V27.9243H59.4812ZM61.9292 20.5563H64.3532C65.1372 20.5563 65.7852 20.5243 66.2972 20.4603C66.8092 20.3803 67.1852 20.2043 67.4252 19.9323C67.6812 19.6443 67.8092 19.1883 67.8092 18.5643C67.8092 17.8763 67.6572 17.3803 67.3532 17.0763C67.0492 16.7723 66.6012 16.5883 66.0092 16.5243C65.4332 16.4443 64.7212 16.4043 63.8732 16.4043H61.9292V20.5563ZM75.1457 25.9563H82.6097V27.9243H72.7217V14.4123H82.3697V16.5243H75.1457V20.0763H80.6897V22.0923H75.1457V25.9563ZM87.3371 27.9243H84.8651V14.4123H87.3371V20.1003H93.7451V14.4123H96.1931V27.9243H93.7451V21.9963H87.3371V27.9243ZM108.797 14.4123H111.485L107.021 27.9243H102.941L98.4771 14.4123H101.141L104.957 26.8923L108.797 14.4123ZM112.965 30.3723V28.7643H113.541C113.957 28.7643 114.245 28.7003 114.405 28.5723C114.565 28.4443 114.645 28.2283 114.645 27.9243C114.037 27.9563 113.613 27.8443 113.373 27.5883C113.133 27.3163 113.013 26.9723 113.013 26.5563C113.013 26.1723 113.117 25.8523 113.325 25.5963C113.533 25.3243 113.893 25.1883 114.405 25.1883C114.821 25.1883 115.141 25.3163 115.365 25.5723C115.605 25.8123 115.725 26.3083 115.725 27.0603C115.725 27.9723 115.565 28.7483 115.245 29.3883C114.925 30.0443 114.365 30.3723 113.565 30.3723H112.965ZM122.19 32.2923V31.0443H123.534C123.854 31.0443 124.118 30.9563 124.326 30.7803C124.534 30.6203 124.79 30.2203 125.094 29.5803L126.126 27.3483L122.286 18.1563H123.894L126.894 25.7163L130.086 18.1563H131.718L126.486 29.7963C126.166 30.5163 125.878 31.0523 125.622 31.4043C125.382 31.7723 125.11 32.0123 124.806 32.1243C124.502 32.2363 124.118 32.2923 123.654 32.2923H122.19ZM136.965 28.1643C135.397 28.1643 134.221 27.7003 133.437 26.7723C132.669 25.8283 132.285 24.6283 132.285 23.1723C132.269 21.7003 132.653 20.5003 133.437 19.5723C134.237 18.6283 135.413 18.1483 136.965 18.1323C138.501 18.1323 139.661 18.5963 140.445 19.5243C141.245 20.4363 141.645 21.6523 141.645 23.1723C141.645 24.1163 141.477 24.9643 141.141 25.7163C140.805 26.4683 140.293 27.0683 139.605 27.5163C138.917 27.9483 138.037 28.1643 136.965 28.1643ZM136.965 26.8203C137.797 26.8203 138.437 26.6363 138.885 26.2683C139.349 25.9003 139.669 25.4363 139.845 24.8763C140.037 24.3003 140.133 23.7163 140.133 23.1243C140.133 22.5323 140.037 21.9483 139.845 21.3723C139.669 20.7963 139.349 20.3243 138.885 19.9563C138.437 19.5883 137.797 19.4043 136.965 19.4043C136.133 19.4043 135.485 19.5883 135.021 19.9563C134.573 20.3243 134.253 20.7963 134.061 21.3723C133.885 21.9483 133.797 22.5323 133.797 23.1243C133.797 23.7163 133.885 24.3003 134.061 24.8763C134.253 25.4363 134.573 25.9003 135.021 26.2683C135.485 26.6363 136.133 26.8203 136.965 26.8203ZM147.142 28.1643C146.342 28.1643 145.694 28.0203 145.198 27.7323C144.718 27.4443 144.35 27.0603 144.094 26.5803C143.838 26.0843 143.662 25.5483 143.566 24.9723C143.486 24.3803 143.446 23.7883 143.446 23.1963V18.1563H144.982V23.2203C144.982 23.8603 145.046 24.4523 145.174 24.9963C145.302 25.5403 145.558 25.9723 145.942 26.2923C146.342 26.6123 146.918 26.7723 147.67 26.7723C148.39 26.7723 148.95 26.6123 149.35 26.2923C149.766 25.9563 150.07 25.5243 150.262 24.9963C150.454 24.4683 150.566 23.9163 150.598 23.3403V18.1563H152.182V27.9243H150.862L150.598 25.7403H150.55C150.47 26.0123 150.302 26.3403 150.046 26.7243C149.79 27.1083 149.422 27.4443 148.942 27.7323C148.478 28.0203 147.878 28.1643 147.142 28.1643ZM162.301 31.9563V30.4923H167.173V25.7643H167.125C167.093 25.8443 167.005 26.0123 166.861 26.2683C166.733 26.5243 166.525 26.7963 166.237 27.0843C165.965 27.3723 165.605 27.6283 165.157 27.8523C164.725 28.0603 164.197 28.1643 163.573 28.1643C162.629 28.1643 161.837 27.9483 161.197 27.5163C160.573 27.0683 160.101 26.4683 159.781 25.7163C159.461 24.9643 159.301 24.1163 159.301 23.1723C159.301 21.7003 159.661 20.5003 160.381 19.5723C161.117 18.6283 162.189 18.1563 163.597 18.1563C164.253 18.1563 164.797 18.2683 165.229 18.4923C165.677 18.7003 166.029 18.9563 166.285 19.2603C166.557 19.5643 166.757 19.8443 166.885 20.1003C167.013 20.3563 167.093 20.5243 167.125 20.6043H167.173V18.1563H168.757V29.6043C168.757 30.3723 168.613 30.9563 168.325 31.3563C168.037 31.7563 167.517 31.9563 166.765 31.9563H162.301ZM163.909 26.7963C164.869 26.7963 165.645 26.4763 166.237 25.8363C166.829 25.1803 167.125 24.2923 167.125 23.1723C167.125 22.0683 166.845 21.1963 166.285 20.5563C165.725 19.9003 164.981 19.5723 164.053 19.5723C163.285 19.5723 162.661 19.7483 162.181 20.1003C161.717 20.4363 161.373 20.8763 161.149 21.4203C160.925 21.9643 160.813 22.5483 160.813 23.1723C160.813 23.7803 160.909 24.3643 161.101 24.9243C161.309 25.4683 161.637 25.9163 162.085 26.2683C162.549 26.6203 163.157 26.7963 163.909 26.7963ZM175.239 28.1643C174.167 28.1643 173.279 27.9243 172.575 27.4443C171.887 26.9483 171.375 26.3163 171.039 25.5483C170.719 24.7643 170.559 23.9563 170.559 23.1243C170.559 22.2123 170.735 21.3803 171.087 20.6283C171.455 19.8603 171.983 19.2523 172.671 18.8043C173.375 18.3563 174.215 18.1323 175.191 18.1323C176.439 18.1323 177.479 18.5403 178.311 19.3563C179.143 20.1563 179.591 21.2363 179.655 22.5963C179.671 22.6603 179.679 22.7563 179.679 22.8843C179.679 22.9963 179.679 23.1003 179.679 23.1963H172.047C172.047 24.3323 172.319 25.2283 172.863 25.8843C173.423 26.5243 174.207 26.8443 175.215 26.8443C175.967 26.8443 176.607 26.6523 177.135 26.2683C177.679 25.8843 178.015 25.3643 178.143 24.7083H179.655C179.495 25.7003 179.023 26.5243 178.239 27.1803C177.455 27.8363 176.455 28.1643 175.239 28.1643ZM172.095 22.3563H178.095C178.095 22.0203 177.999 21.6203 177.807 21.1563C177.631 20.6923 177.327 20.2923 176.895 19.9563C176.479 19.6043 175.903 19.4283 175.167 19.4283C174.495 19.4283 173.943 19.5723 173.511 19.8603C173.079 20.1483 172.751 20.5163 172.527 20.9643C172.303 21.4123 172.159 21.8763 172.095 22.3563ZM184.075 27.9243C183.483 27.9243 183.067 27.7643 182.827 27.4443C182.603 27.1243 182.491 26.6843 182.491 26.1243V19.3083H180.955V18.1563C181.467 18.1563 181.843 18.1163 182.083 18.0363C182.339 17.9403 182.499 17.7163 182.563 17.3643C182.627 17.0123 182.659 16.4363 182.659 15.6363H183.979V18.1563H186.235V19.3083H183.979V26.6763H186.259V27.9243H184.075ZM189.676 20.2923C189.276 20.2923 189.004 20.1883 188.86 19.9803C188.732 19.7723 188.668 19.5163 188.668 19.2123C188.668 18.9403 188.732 18.7003 188.86 18.4923C189.004 18.2683 189.276 18.1563 189.676 18.1563C190.06 18.1563 190.316 18.2683 190.444 18.4923C190.588 18.7003 190.66 18.9403 190.66 19.2123C190.66 19.5163 190.588 19.7723 190.444 19.9803C190.316 20.1883 190.06 20.2923 189.676 20.2923ZM188.596 30.0363V28.8843H189.028C189.412 28.8843 189.652 28.7963 189.748 28.6203C189.86 28.4443 189.916 28.2203 189.916 27.9483C189.484 27.9803 189.172 27.9003 188.98 27.7083C188.788 27.5163 188.692 27.2443 188.692 26.8923C188.692 26.6043 188.764 26.3643 188.908 26.1723C189.052 25.9803 189.316 25.8843 189.7 25.8843C190.036 25.8843 190.284 25.9883 190.444 26.1963C190.604 26.3883 190.684 26.7483 190.684 27.2763C190.684 28.0923 190.564 28.7563 190.324 29.2683C190.084 29.7803 189.668 30.0363 189.076 30.0363H188.596Z" fill="#00668B"/>
<path fill-rule="evenodd" clip-rule="evenodd" d="M10.1283 53.5215C8.02623 53.7372 6.11334 54.6427 4.62635 56.1261C3.20394 57.5451 2.32871 59.323 2.04551 61.3688C1.98483 61.8072 1.98483 63.1831 2.04551 63.6215C2.32871 65.6673 3.20394 67.4452 4.62635 68.8642C6.05741 70.2918 7.7972 71.1451 9.88196 71.4419C10.3001 71.5014 11.6828 71.5004 12.117 71.4403C14.1537 71.1584 15.9469 70.2773 17.3541 68.8672C20.6172 65.5973 20.8956 60.4355 18.0029 56.842C16.5692 55.0611 14.5423 53.9099 12.2402 53.5691C11.8098 53.5053 10.5604 53.4772 10.1283 53.5215ZM16.1013 58.4203C16.3565 58.5373 16.6026 58.783 16.7189 59.0369C16.895 59.4217 16.859 59.9332 16.6321 60.2674C16.5531 60.3838 12.4624 64.58 10.9576 66.0883C10.4612 66.5858 10.3017 66.6661 9.81157 66.6658C9.21236 66.6654 9.34717 66.7703 7.21922 64.6496C5.07994 62.5177 5.16547 62.6258 5.16547 62.0552C5.16547 61.7351 5.1749 61.6846 5.26948 61.4978C5.40246 61.2351 5.6846 60.9755 5.94872 60.8728C6.22812 60.7642 6.60294 60.765 6.89016 60.875C7.08554 60.9498 7.18828 61.0423 8.26287 62.1103C8.9017 62.7453 9.46899 63.2817 9.52347 63.3023C9.65068 63.3506 9.89393 63.3505 10.0326 63.3021C10.1037 63.2773 10.9221 62.4717 12.4193 60.9527C13.6725 59.6813 14.7613 58.5941 14.8389 58.5368C15.1799 58.2848 15.7008 58.2368 16.1013 58.4203Z" fill="#133063"/>
<path d="M37.0597 69.3843H46.5997V71.4243H34.5997V54.5343H46.2997V56.6943H37.0597V61.8243H44.2597V63.8943H37.0597V69.3843ZM48.1067 71.4243L52.6067 65.0943L48.3467 59.1543H51.1067L54.1667 63.5943L57.2267 59.1543H60.0167L55.7567 65.0943L60.2867 71.4243H57.4967L54.1667 66.6243L50.8667 71.4243H48.1067ZM69.576 71.7243C68.796 71.7243 68.136 71.6043 67.596 71.3643C67.076 71.1043 66.646 70.8043 66.306 70.4643C65.986 70.1243 65.746 69.8143 65.586 69.5343C65.446 69.2343 65.356 69.0443 65.316 68.9643H65.256V76.6743H62.706V59.1543H64.866L65.286 62.0343H65.346C65.366 61.9543 65.446 61.7643 65.586 61.4643C65.726 61.1643 65.956 60.8343 66.276 60.4743C66.596 60.1143 67.016 59.8043 67.536 59.5443C68.076 59.2843 68.746 59.1543 69.546 59.1543C71.346 59.1543 72.676 59.7443 73.536 60.9243C74.396 62.1043 74.826 63.6243 74.826 65.4843C74.826 67.3443 74.386 68.8543 73.506 70.0143C72.646 71.1543 71.336 71.7243 69.576 71.7243ZM68.916 69.5643C69.796 69.5643 70.486 69.3743 70.986 68.9943C71.506 68.5943 71.866 68.0843 72.066 67.4643C72.286 66.8243 72.396 66.1543 72.396 65.4543C72.396 64.7743 72.276 64.1243 72.036 63.5043C71.816 62.8843 71.436 62.3843 70.896 62.0043C70.376 61.6043 69.676 61.4043 68.796 61.4043C67.636 61.4043 66.766 61.7843 66.186 62.5443C65.606 63.2843 65.316 64.2543 65.316 65.4543C65.316 66.6943 65.616 67.6943 66.216 68.4543C66.836 69.1943 67.736 69.5643 68.916 69.5643ZM82.8172 71.7243C81.4372 71.7243 80.3072 71.4243 79.4272 70.8243C78.5472 70.2043 77.8972 69.4143 77.4772 68.4543C77.0572 67.4943 76.8472 66.4843 76.8472 65.4243C76.8272 64.2443 77.0472 63.1743 77.5072 62.2143C77.9872 61.2543 78.6672 60.4943 79.5472 59.9343C80.4472 59.3743 81.5172 59.0943 82.7572 59.0943C83.8172 59.0943 84.7672 59.3343 85.6072 59.8143C86.4672 60.2743 87.1472 60.9343 87.6472 61.7943C88.1472 62.6343 88.4172 63.6343 88.4572 64.7943C88.4572 64.8543 88.4572 64.9743 88.4572 65.1543C88.4772 65.3143 88.4872 65.4543 88.4872 65.5743H79.2172C79.2172 66.8543 79.5272 67.8543 80.1472 68.5743C80.7872 69.2743 81.6672 69.6243 82.7872 69.6243C83.6272 69.6243 84.3372 69.4143 84.9172 68.9943C85.5172 68.5543 85.8872 67.9743 86.0272 67.2543H88.4572C88.2772 68.5343 87.6972 69.6043 86.7172 70.4643C85.7372 71.3043 84.4372 71.7243 82.8172 71.7243ZM79.3072 64.3443H85.9672C85.9472 64.1243 85.8872 63.8343 85.7872 63.4743C85.6872 63.1143 85.5172 62.7643 85.2772 62.4243C85.0572 62.0643 84.7372 61.7643 84.3172 61.5243C83.8972 61.2843 83.3572 61.1643 82.6972 61.1643C81.8772 61.1643 81.2272 61.3443 80.7472 61.7043C80.2872 62.0443 79.9372 62.4643 79.6972 62.9643C79.4772 63.4443 79.3472 63.9043 79.3072 64.3443ZM91.3981 71.4243V59.1543H93.7081L93.9181 62.4843C94.0381 61.9443 94.2681 61.4243 94.6081 60.9243C94.9681 60.4043 95.4581 59.9843 96.0781 59.6643C96.7181 59.3243 97.5281 59.1543 98.5081 59.1543H99.0181V61.9143H98.4781C97.2581 61.9143 96.3181 62.0743 95.6581 62.3943C94.9981 62.6943 94.5381 63.1443 94.2781 63.7443C94.0181 64.3243 93.8881 65.0443 93.8881 65.9043V71.4243H91.3981ZM102.868 57.8043C102.328 57.8243 101.968 57.6943 101.788 57.4143C101.608 57.1343 101.518 56.7843 101.518 56.3643C101.518 56.0043 101.608 55.6843 101.788 55.4043C101.968 55.1243 102.328 54.9843 102.868 54.9843C103.388 54.9843 103.738 55.1243 103.918 55.4043C104.118 55.6843 104.218 56.0043 104.218 56.3643C104.218 56.7843 104.118 57.1343 103.918 57.4143C103.738 57.6743 103.388 57.8043 102.868 57.8043ZM101.608 71.4243V59.1543H104.098V71.4243H101.608ZM112.809 71.7243C111.429 71.7243 110.299 71.4243 109.419 70.8243C108.539 70.2043 107.889 69.4143 107.469 68.4543C107.049 67.4943 106.839 66.4843 106.839 65.4243C106.819 64.2443 107.039 63.1743 107.499 62.2143C107.979 61.2543 108.659 60.4943 109.539 59.9343C110.439 59.3743 111.509 59.0943 112.749 59.0943C113.809 59.0943 114.759 59.3343 115.599 59.8143C116.459 60.2743 117.139 60.9343 117.639 61.7943C118.139 62.6343 118.409 63.6343 118.449 64.7943C118.449 64.8543 118.449 64.9743 118.449 65.1543C118.469 65.3143 118.479 65.4543 118.479 65.5743H109.209C109.209 66.8543 109.519 67.8543 110.139 68.5743C110.779 69.2743 111.659 69.6243 112.779 69.6243C113.619 69.6243 114.329 69.4143 114.909 68.9943C115.509 68.5543 115.879 67.9743 116.019 67.2543H118.449C118.269 68.5343 117.689 69.6043 116.709 70.4643C115.729 71.3043 114.429 71.7243 112.809 71.7243ZM109.299 64.3443H115.959C115.939 64.1243 115.879 63.8343 115.779 63.4743C115.679 63.1143 115.509 62.7643 115.269 62.4243C115.049 62.0643 114.729 61.7643 114.309 61.5243C113.889 61.2843 113.349 61.1643 112.689 61.1643C111.869 61.1643 111.219 61.3443 110.739 61.7043C110.279 62.0443 109.929 62.4643 109.689 62.9643C109.469 63.4443 109.339 63.9043 109.299 64.3443ZM121.18 71.4243V59.1843H123.31L123.73 62.0043H123.79C123.81 61.9243 123.89 61.7343 124.03 61.4343C124.17 61.1343 124.4 60.8143 124.72 60.4743C125.04 60.1143 125.47 59.8043 126.01 59.5443C126.55 59.2843 127.23 59.1543 128.05 59.1543C129.13 59.1543 129.97 59.3643 130.57 59.7843C131.17 60.1843 131.61 60.7143 131.89 61.3743C132.17 62.0143 132.34 62.6943 132.4 63.4143C132.48 64.1343 132.52 64.8043 132.52 65.4243V71.4243H130.09V65.3943C130.09 64.6343 130.01 63.9543 129.85 63.3543C129.69 62.7343 129.39 62.2543 128.95 61.9143C128.53 61.5543 127.91 61.3743 127.09 61.3743C126.25 61.3743 125.58 61.5743 125.08 61.9743C124.58 62.3743 124.23 62.8943 124.03 63.5343C123.83 64.1743 123.73 64.8543 123.73 65.5743V71.4243H121.18ZM140.922 71.7243C139.762 71.7243 138.722 71.4843 137.802 71.0043C136.882 70.5243 136.152 69.8243 135.612 68.9043C135.092 67.9843 134.832 66.8643 134.832 65.5443C134.852 64.2443 135.132 63.1143 135.672 62.1543C136.212 61.1943 136.932 60.4543 137.832 59.9343C138.752 59.3943 139.802 59.1243 140.982 59.1243C142.142 59.1243 143.132 59.3443 143.952 59.7843C144.792 60.2243 145.452 60.8043 145.932 61.5243C146.412 62.2243 146.702 62.9743 146.802 63.7743H144.492C144.332 62.9943 143.952 62.3843 143.352 61.9443C142.752 61.5043 141.992 61.2843 141.072 61.2843C139.872 61.2843 138.932 61.6643 138.252 62.4243C137.592 63.1843 137.262 64.1643 137.262 65.3643C137.262 66.6443 137.582 67.6643 138.222 68.4243C138.882 69.1643 139.822 69.5343 141.042 69.5343C141.902 69.5343 142.652 69.3143 143.292 68.8743C143.932 68.4343 144.332 67.7943 144.492 66.9543H146.802C146.702 67.7943 146.402 68.5843 145.902 69.3243C145.422 70.0443 144.762 70.6243 143.922 71.0643C143.082 71.5043 142.082 71.7243 140.922 71.7243ZM154.93 71.7243C153.55 71.7243 152.42 71.4243 151.54 70.8243C150.66 70.2043 150.01 69.4143 149.59 68.4543C149.17 67.4943 148.96 66.4843 148.96 65.4243C148.94 64.2443 149.16 63.1743 149.62 62.2143C150.1 61.2543 150.78 60.4943 151.66 59.9343C152.56 59.3743 153.63 59.0943 154.87 59.0943C155.93 59.0943 156.88 59.3343 157.72 59.8143C158.58 60.2743 159.26 60.9343 159.76 61.7943C160.26 62.6343 160.53 63.6343 160.57 64.7943C160.57 64.8543 160.57 64.9743 160.57 65.1543C160.59 65.3143 160.6 65.4543 160.6 65.5743H151.33C151.33 66.8543 151.64 67.8543 152.26 68.5743C152.9 69.2743 153.78 69.6243 154.9 69.6243C155.74 69.6243 156.45 69.4143 157.03 68.9943C157.63 68.5543 158 67.9743 158.14 67.2543H160.57C160.39 68.5343 159.81 69.6043 158.83 70.4643C157.85 71.3043 156.55 71.7243 154.93 71.7243ZM151.42 64.3443H158.08C158.06 64.1243 158 63.8343 157.9 63.4743C157.8 63.1143 157.63 62.7643 157.39 62.4243C157.17 62.0643 156.85 61.7643 156.43 61.5243C156.01 61.2843 155.47 61.1643 154.81 61.1643C153.99 61.1643 153.34 61.3443 152.86 61.7043C152.4 62.0443 152.05 62.4643 151.81 62.9643C151.59 63.4443 151.46 63.9043 151.42 64.3443ZM187.077 71.4843C186.337 71.1843 185.637 70.8643 184.977 70.5243C184.337 70.1643 183.657 69.7443 182.937 69.2643C182.117 70.0643 181.177 70.6643 180.117 71.0643C179.057 71.4643 177.977 71.6743 176.877 71.6943C175.797 71.7143 174.797 71.5443 173.877 71.1843C172.957 70.8043 172.207 70.2443 171.627 69.5043C171.067 68.7443 170.787 67.8043 170.787 66.6843C170.787 65.9043 170.937 65.2443 171.237 64.7043C171.537 64.1643 171.907 63.7243 172.347 63.3843C172.787 63.0243 173.227 62.7343 173.667 62.5143C174.107 62.2743 174.457 62.0843 174.717 61.9443C174.557 61.7243 174.327 61.4243 174.027 61.0443C173.747 60.6643 173.487 60.2243 173.247 59.7243C173.027 59.2043 172.917 58.6243 172.917 57.9843C172.917 57.1843 173.127 56.5143 173.547 55.9743C173.967 55.4143 174.517 54.9943 175.197 54.7143C175.877 54.4343 176.597 54.2943 177.357 54.2943C178.117 54.2743 178.837 54.3943 179.517 54.6543C180.197 54.9143 180.747 55.3143 181.167 55.8543C181.607 56.3743 181.827 57.0343 181.827 57.8343C181.827 58.5143 181.647 59.1243 181.287 59.6643C180.947 60.1843 180.527 60.6343 180.027 61.0143C179.547 61.3943 179.097 61.6943 178.677 61.9143C178.277 62.1343 178.017 62.2743 177.897 62.3343C178.117 62.6143 178.437 62.9843 178.857 63.4443C179.297 63.8843 179.797 64.3543 180.357 64.8543C180.937 65.3343 181.527 65.7943 182.127 66.2343C182.347 65.8943 182.557 65.4443 182.757 64.8843C182.957 64.3243 183.047 63.7543 183.027 63.1743C183.027 62.5943 182.827 62.0943 182.427 61.6743L184.527 60.2643C184.687 60.5043 184.857 60.8843 185.037 61.4043C185.237 61.9243 185.367 62.5343 185.427 63.2343C185.507 63.9343 185.467 64.6643 185.307 65.4243C185.147 66.1843 184.817 66.9143 184.317 67.6143C184.897 68.0143 185.457 68.3743 185.997 68.6943C186.557 68.9943 187.227 69.2943 188.007 69.5943L187.077 71.4843ZM176.517 61.1643C176.657 61.1043 176.897 60.9843 177.237 60.8043C177.577 60.6243 177.927 60.4043 178.287 60.1443C178.647 59.8843 178.957 59.5943 179.217 59.2743C179.497 58.9343 179.647 58.5743 179.667 58.1943C179.707 57.6743 179.577 57.2643 179.277 56.9643C178.977 56.6443 178.597 56.4343 178.137 56.3343C177.697 56.2143 177.247 56.2143 176.787 56.3343C176.327 56.4343 175.937 56.6443 175.617 56.9643C175.317 57.2643 175.167 57.6843 175.167 58.2243C175.187 59.0843 175.637 60.0643 176.517 61.1643ZM180.987 67.8543C180.087 67.1743 179.197 66.4143 178.317 65.5743C177.437 64.7343 176.687 63.9243 176.067 63.1443C175.327 63.5043 174.677 63.9243 174.117 64.4043C173.557 64.8843 173.277 65.5443 173.277 66.3843C173.277 67.2643 173.547 67.9643 174.087 68.4843C174.647 68.9843 175.347 69.3043 176.187 69.4443C177.027 69.5843 177.877 69.5243 178.737 69.2643C179.617 69.0043 180.367 68.5343 180.987 67.8543ZM200.042 69.3843H209.582V71.4243H197.582V54.5343H209.282V56.6943H200.042V61.8243H207.242V63.8943H200.042V69.3843ZM211.089 71.4243L215.589 65.0943L211.329 59.1543H214.089L217.149 63.5943L220.209 59.1543H222.999L218.739 65.0943L223.269 71.4243H220.479L217.149 66.6243L213.849 71.4243H211.089ZM232.558 71.7243C231.778 71.7243 231.118 71.6043 230.578 71.3643C230.058 71.1043 229.628 70.8043 229.288 70.4643C228.968 70.1243 228.728 69.8143 228.568 69.5343C228.428 69.2343 228.338 69.0443 228.298 68.9643H228.238V76.6743H225.688V59.1543H227.848L228.268 62.0343H228.328C228.348 61.9543 228.428 61.7643 228.568 61.4643C228.708 61.1643 228.938 60.8343 229.258 60.4743C229.578 60.1143 229.998 59.8043 230.518 59.5443C231.058 59.2843 231.728 59.1543 232.528 59.1543C234.328 59.1543 235.658 59.7443 236.518 60.9243C237.378 62.1043 237.808 63.6243 237.808 65.4843C237.808 67.3443 237.368 68.8543 236.488 70.0143C235.628 71.1543 234.318 71.7243 232.558 71.7243ZM231.898 69.5643C232.778 69.5643 233.468 69.3743 233.968 68.9943C234.488 68.5943 234.848 68.0843 235.048 67.4643C235.268 66.8243 235.378 66.1543 235.378 65.4543C235.378 64.7743 235.258 64.1243 235.018 63.5043C234.798 62.8843 234.418 62.3843 233.878 62.0043C233.358 61.6043 232.658 61.4043 231.778 61.4043C230.618 61.4043 229.748 61.7843 229.168 62.5443C228.588 63.2843 228.298 64.2543 228.298 65.4543C228.298 66.6943 228.598 67.6943 229.198 68.4543C229.818 69.1943 230.718 69.5643 231.898 69.5643ZM245.799 71.7243C244.419 71.7243 243.289 71.4243 242.409 70.8243C241.529 70.2043 240.879 69.4143 240.459 68.4543C240.039 67.4943 239.829 66.4843 239.829 65.4243C239.809 64.2443 240.029 63.1743 240.489 62.2143C240.969 61.2543 241.649 60.4943 242.529 59.9343C243.429 59.3743 244.499 59.0943 245.739 59.0943C246.799 59.0943 247.749 59.3343 248.589 59.8143C249.449 60.2743 250.129 60.9343 250.629 61.7943C251.129 62.6343 251.399 63.6343 251.439 64.7943C251.439 64.8543 251.439 64.9743 251.439 65.1543C251.459 65.3143 251.469 65.4543 251.469 65.5743H242.199C242.199 66.8543 242.509 67.8543 243.129 68.5743C243.769 69.2743 244.649 69.6243 245.769 69.6243C246.609 69.6243 247.319 69.4143 247.899 68.9943C248.499 68.5543 248.869 67.9743 249.009 67.2543H251.439C251.259 68.5343 250.679 69.6043 249.699 70.4643C248.719 71.3043 247.419 71.7243 245.799 71.7243ZM242.289 64.3443H248.949C248.929 64.1243 248.869 63.8343 248.769 63.4743C248.669 63.1143 248.499 62.7643 248.259 62.4243C248.039 62.0643 247.719 61.7643 247.299 61.5243C246.879 61.2843 246.339 61.1643 245.679 61.1643C244.859 61.1643 244.209 61.3443 243.729 61.7043C243.269 62.0443 242.919 62.4643 242.679 62.9643C242.459 63.4443 242.329 63.9043 242.289 64.3443ZM254.38 71.4243V59.1543H256.69L256.9 62.4843C257.02 61.9443 257.25 61.4243 257.59 60.9243C257.95 60.4043 258.44 59.9843 259.06 59.6643C259.7 59.3243 260.51 59.1543 261.49 59.1543H262V61.9143H261.46C260.24 61.9143 259.3 62.0743 258.64 62.3943C257.98 62.6943 257.52 63.1443 257.26 63.7443C257 64.3243 256.87 65.0443 256.87 65.9043V71.4243H254.38ZM268.205 71.4243C267.345 71.4243 266.715 71.2043 266.315 70.7643C265.935 70.3243 265.745 69.6543 265.745 68.7543V60.9543H263.855V59.1543C264.475 59.1543 264.935 59.1043 265.235 59.0043C265.555 58.8843 265.765 58.6043 265.865 58.1643C265.985 57.7043 266.045 56.9843 266.045 56.0043H268.115V59.1543H270.935V60.9543H268.115V69.4443H270.965V71.4243H268.205ZM275.466 57.8043C274.926 57.8243 274.566 57.6943 274.386 57.4143C274.206 57.1343 274.116 56.7843 274.116 56.3643C274.116 56.0043 274.206 55.6843 274.386 55.4043C274.566 55.1243 274.926 54.9843 275.466 54.9843C275.986 54.9843 276.336 55.1243 276.516 55.4043C276.716 55.6843 276.816 56.0043 276.816 56.3643C276.816 56.7843 276.716 57.1343 276.516 57.4143C276.336 57.6743 275.986 57.8043 275.466 57.8043ZM274.206 71.4243V59.1543H276.696V71.4243H274.206ZM284.777 71.7243C283.857 71.7243 282.987 71.5243 282.167 71.1243C281.367 70.7243 280.717 70.1943 280.217 69.5343C279.737 68.8543 279.497 68.1243 279.497 67.3443H281.837C281.837 67.3843 281.847 67.5343 281.867 67.7943C281.887 68.0543 281.977 68.3443 282.137 68.6643C282.297 68.9843 282.577 69.2643 282.977 69.5043C283.397 69.7443 283.987 69.8643 284.747 69.8643C285.587 69.8643 286.267 69.7143 286.787 69.4143C287.307 69.1143 287.567 68.6943 287.567 68.1543C287.567 67.6543 287.377 67.2643 286.997 66.9843C286.617 66.7043 286.127 66.4843 285.527 66.3243C284.927 66.1443 284.287 65.9743 283.607 65.8143C282.947 65.6543 282.317 65.4443 281.717 65.1843C281.137 64.9043 280.657 64.5343 280.277 64.0743C279.917 63.5943 279.747 62.9543 279.767 62.1543C279.767 61.0743 280.217 60.2443 281.117 59.6643C282.037 59.0643 283.197 58.7643 284.597 58.7643C285.497 58.7643 286.357 58.9143 287.177 59.2143C287.997 59.4943 288.667 59.9543 289.187 60.5943C289.727 61.2343 289.987 62.0943 289.967 63.1743H287.657C287.677 62.4943 287.517 61.9843 287.177 61.6443C286.857 61.2843 286.457 61.0443 285.977 60.9243C285.497 60.7843 285.047 60.7143 284.627 60.7143C283.827 60.7143 283.197 60.8643 282.737 61.1643C282.277 61.4443 282.047 61.8243 282.047 62.3043C282.047 62.8243 282.237 63.2243 282.617 63.5043C282.997 63.7643 283.487 63.9843 284.087 64.1643C284.687 64.3243 285.317 64.4843 285.977 64.6443C286.657 64.8043 287.297 65.0143 287.897 65.2743C288.497 65.5343 288.987 65.9043 289.367 66.3843C289.767 66.8643 289.967 67.5043 289.967 68.3043C289.967 69.4843 289.477 70.3543 288.497 70.9143C287.517 71.4543 286.277 71.7243 284.777 71.7243ZM297.983 71.7243C296.603 71.7243 295.473 71.4243 294.593 70.8243C293.713 70.2043 293.063 69.4143 292.643 68.4543C292.223 67.4943 292.013 66.4843 292.013 65.4243C291.993 64.2443 292.213 63.1743 292.673 62.2143C293.153 61.2543 293.833 60.4943 294.713 59.9343C295.613 59.3743 296.683 59.0943 297.923 59.0943C298.983 59.0943 299.933 59.3343 300.773 59.8143C301.633 60.2743 302.313 60.9343 302.813 61.7943C303.313 62.6343 303.583 63.6343 303.623 64.7943C303.623 64.8543 303.623 64.9743 303.623 65.1543C303.643 65.3143 303.653 65.4543 303.653 65.5743H294.383C294.383 66.8543 294.693 67.8543 295.313 68.5743C295.953 69.2743 296.833 69.6243 297.953 69.6243C298.793 69.6243 299.503 69.4143 300.083 68.9943C300.683 68.5543 301.053 67.9743 301.193 67.2543H303.623C303.443 68.5343 302.863 69.6043 301.883 70.4643C300.903 71.3043 299.603 71.7243 297.983 71.7243ZM294.473 64.3443H301.133C301.113 64.1243 301.053 63.8343 300.953 63.4743C300.853 63.1143 300.683 62.7643 300.443 62.4243C300.223 62.0643 299.903 61.7643 299.483 61.5243C299.063 61.2843 298.523 61.1643 297.863 61.1643C297.043 61.1643 296.393 61.3443 295.913 61.7043C295.453 62.0443 295.103 62.4643 294.863 62.9643C294.643 63.4443 294.513 63.9043 294.473 64.3443Z" fill="#00668B"/>
<path fill-rule="evenodd" clip-rule="evenodd" d="M10.1283 105.522C8.02623 105.737 6.11334 106.643 4.62635 108.126C3.20394 109.545 2.32871 111.323 2.04551 113.369C1.98483 113.807 1.98483 115.183 2.04551 115.621C2.32871 117.667 3.20394 119.445 4.62635 120.864C6.05741 122.292 7.7972 123.145 9.88196 123.442C10.3001 123.501 11.6828 123.5 12.117 123.44C14.1537 123.158 15.9469 122.277 17.3541 120.867C20.6172 117.597 20.8956 112.435 18.0029 108.842C16.5692 107.061 14.5423 105.91 12.2402 105.569C11.8098 105.505 10.5604 105.477 10.1283 105.522ZM16.1013 110.42C16.3565 110.537 16.6026 110.783 16.7189 111.037C16.895 111.422 16.859 111.933 16.6321 112.267C16.5531 112.384 12.4624 116.58 10.9576 118.088C10.4612 118.586 10.3017 118.666 9.81157 118.666C9.21236 118.665 9.34717 118.77 7.21922 116.65C5.07994 114.518 5.16547 114.626 5.16547 114.055C5.16547 113.735 5.1749 113.685 5.26948 113.498C5.40246 113.235 5.6846 112.975 5.94872 112.873C6.22812 112.764 6.60294 112.765 6.89016 112.875C7.08554 112.95 7.18828 113.042 8.26287 114.11C8.9017 114.745 9.46899 115.282 9.52347 115.302C9.65068 115.351 9.89393 115.35 10.0326 115.302C10.1037 115.277 10.9221 114.472 12.4193 112.953C13.6725 111.681 14.7613 110.594 14.8389 110.537C15.1799 110.285 15.7008 110.237 16.1013 110.42Z" fill="#133063"/>
<path d="M42.3697 121.264V123.424H34.8397V121.264H37.5697V109.804C37.3897 110.484 37.1197 111.014 36.7597 111.394C36.3997 111.754 36.0197 112.024 35.6197 112.204C35.2197 112.364 34.8597 112.464 34.5397 112.504C34.2397 112.524 34.0397 112.534 33.9397 112.534V109.864C34.0597 109.884 34.3097 109.874 34.6897 109.834C35.0897 109.774 35.5197 109.634 35.9797 109.414C36.4397 109.194 36.8497 108.854 37.2097 108.394C37.5697 107.934 37.7597 107.314 37.7797 106.534H39.9997V121.264H42.3697ZM51.8052 123.844C49.3652 123.844 47.5652 123.054 46.4052 121.474C45.2652 119.874 44.6952 117.724 44.6952 115.024C44.6952 113.244 44.9352 111.704 45.4152 110.404C45.9152 109.084 46.6852 108.064 47.7252 107.344C48.7852 106.604 50.1452 106.234 51.8052 106.234C53.4252 106.234 54.7552 106.594 55.7952 107.314C56.8552 108.034 57.6352 109.054 58.1352 110.374C58.6552 111.694 58.9152 113.244 58.9152 115.024C58.9152 116.764 58.6552 118.304 58.1352 119.644C57.6352 120.964 56.8552 121.994 55.7952 122.734C54.7552 123.474 53.4252 123.844 51.8052 123.844ZM51.7752 121.744C53.4352 121.744 54.6452 121.164 55.4052 120.004C56.1852 118.844 56.5752 117.184 56.5752 115.024C56.5752 112.884 56.1952 111.234 55.4352 110.074C54.6752 108.894 53.4552 108.304 51.7752 108.304C50.1552 108.304 48.9552 108.874 48.1752 110.014C47.4152 111.134 47.0352 112.804 47.0352 115.024C47.0352 117.164 47.4052 118.824 48.1452 120.004C48.8852 121.164 50.0952 121.744 51.7752 121.744ZM67.9841 123.844C65.5441 123.844 63.7441 123.054 62.5841 121.474C61.4441 119.874 60.8741 117.724 60.8741 115.024C60.8741 113.244 61.1141 111.704 61.5941 110.404C62.0941 109.084 62.8641 108.064 63.9041 107.344C64.9641 106.604 66.3241 106.234 67.9841 106.234C69.6041 106.234 70.9341 106.594 71.9741 107.314C73.0341 108.034 73.8141 109.054 74.3141 110.374C74.8341 111.694 75.0941 113.244 75.0941 115.024C75.0941 116.764 74.8341 118.304 74.3141 119.644C73.8141 120.964 73.0341 121.994 71.9741 122.734C70.9341 123.474 69.6041 123.844 67.9841 123.844ZM67.9541 121.744C69.6141 121.744 70.8241 121.164 71.5841 120.004C72.3641 118.844 72.7541 117.184 72.7541 115.024C72.7541 112.884 72.3741 111.234 71.6141 110.074C70.8541 108.894 69.6341 108.304 67.9541 108.304C66.3341 108.304 65.1341 108.874 64.3541 110.014C63.5941 111.134 63.2141 112.804 63.2141 115.024C63.2141 117.164 63.5841 118.824 64.3241 120.004C65.0641 121.164 66.2741 121.744 67.9541 121.744ZM80.173 113.464C79.093 113.464 78.303 113.144 77.803 112.504C77.303 111.844 77.053 110.964 77.053 109.864C77.053 108.764 77.293 107.884 77.773 107.224C78.273 106.564 79.073 106.234 80.173 106.234C81.253 106.234 82.043 106.564 82.543 107.224C83.063 107.884 83.323 108.764 83.323 109.864C83.323 110.924 83.063 111.794 82.543 112.474C82.043 113.134 81.253 113.464 80.173 113.464ZM79.693 123.424L77.953 122.194L84.793 114.454L90.523 106.534L92.233 107.734L85.663 115.144L79.693 123.424ZM80.143 111.874C80.703 111.874 81.093 111.684 81.313 111.304C81.553 110.924 81.673 110.434 81.673 109.834C81.673 109.234 81.553 108.744 81.313 108.364C81.093 107.964 80.703 107.764 80.143 107.764C79.583 107.764 79.183 107.954 78.943 108.334C78.723 108.714 78.613 109.214 78.613 109.834C78.613 110.434 78.723 110.924 78.943 111.304C79.183 111.684 79.583 111.874 80.143 111.874ZM90.013 123.724C88.933 123.724 88.143 123.394 87.643 122.734C87.163 122.074 86.923 121.184 86.923 120.064C86.923 118.984 87.163 118.114 87.643 117.454C88.123 116.794 88.913 116.464 90.013 116.464C91.093 116.464 91.883 116.794 92.383 117.454C92.883 118.114 93.133 118.984 93.133 120.064C93.133 121.144 92.883 122.024 92.383 122.704C91.883 123.384 91.093 123.724 90.013 123.724ZM89.983 122.134C90.543 122.134 90.943 121.944 91.183 121.564C91.423 121.164 91.543 120.674 91.543 120.094C91.543 119.494 91.423 118.994 91.183 118.594C90.943 118.194 90.543 117.994 89.983 117.994C89.423 117.994 89.023 118.194 88.783 118.594C88.563 118.974 88.453 119.474 88.453 120.094C88.453 120.674 88.563 121.164 88.783 121.564C89.023 121.944 89.423 122.134 89.983 122.134ZM109.583 123.784C108.363 123.784 107.193 123.594 106.073 123.214C104.953 122.814 104.033 122.194 103.313 121.354C102.613 120.494 102.253 119.384 102.233 118.024H104.753C104.753 118.104 104.783 118.334 104.843 118.714C104.923 119.074 105.113 119.474 105.413 119.914C105.733 120.334 106.233 120.704 106.913 121.024C107.593 121.344 108.543 121.504 109.763 121.504C110.743 121.504 111.513 121.364 112.073 121.084C112.653 120.804 113.053 120.474 113.273 120.094C113.513 119.714 113.643 119.374 113.663 119.074C113.663 118.454 113.463 117.954 113.063 117.574C112.683 117.194 112.163 116.894 111.503 116.674C110.843 116.434 110.113 116.224 109.313 116.044C108.533 115.844 107.753 115.634 106.973 115.414C106.193 115.174 105.473 114.864 104.813 114.484C104.173 114.104 103.663 113.614 103.283 113.014C102.923 112.394 102.773 111.604 102.833 110.644C102.893 109.264 103.543 108.184 104.783 107.404C106.043 106.624 107.663 106.234 109.643 106.234C110.803 106.234 111.883 106.444 112.883 106.864C113.883 107.284 114.683 107.914 115.283 108.754C115.883 109.594 116.183 110.644 116.183 111.904H113.753C113.753 111.204 113.603 110.644 113.303 110.224C113.003 109.784 112.623 109.444 112.163 109.204C111.703 108.964 111.223 108.804 110.723 108.724C110.223 108.624 109.773 108.574 109.373 108.574C108.233 108.574 107.293 108.784 106.553 109.204C105.833 109.624 105.473 110.194 105.473 110.914C105.453 111.554 105.643 112.064 106.043 112.444C106.443 112.824 106.973 113.124 107.633 113.344C108.293 113.564 109.013 113.764 109.793 113.944C110.593 114.124 111.383 114.324 112.163 114.544C112.963 114.764 113.683 115.064 114.323 115.444C114.983 115.804 115.493 116.304 115.853 116.944C116.233 117.564 116.403 118.354 116.363 119.314C116.303 120.254 115.973 121.064 115.373 121.744C114.793 122.404 114.003 122.914 113.003 123.274C112.003 123.614 110.863 123.784 109.583 123.784ZM123.294 123.694C122.154 123.694 121.234 123.434 120.534 122.914C119.834 122.374 119.314 121.634 118.974 120.694C118.654 119.734 118.494 118.644 118.494 117.424C118.494 115.564 118.874 114.044 119.634 112.864C120.394 111.664 121.614 111.064 123.294 111.064C124.194 111.064 124.924 111.224 125.484 111.544C126.044 111.864 126.474 112.224 126.774 112.624C127.094 113.024 127.314 113.374 127.434 113.674H127.494V111.154H130.044V123.424H127.914L127.494 121.234H127.434C127.314 121.534 127.094 121.884 126.774 122.284C126.454 122.664 126.014 122.994 125.454 123.274C124.894 123.554 124.174 123.694 123.294 123.694ZM124.284 121.564C125.464 121.564 126.284 121.184 126.744 120.424C127.224 119.664 127.464 118.674 127.464 117.454C127.464 116.174 127.214 115.164 126.714 114.424C126.234 113.684 125.424 113.314 124.284 113.314C123.444 113.314 122.784 113.504 122.304 113.884C121.824 114.244 121.474 114.734 121.254 115.354C121.054 115.974 120.954 116.664 120.954 117.424C120.954 118.604 121.204 119.594 121.704 120.394C122.204 121.174 123.064 121.564 124.284 121.564ZM136.087 123.424C135.227 123.424 134.597 123.204 134.197 122.764C133.817 122.324 133.627 121.654 133.627 120.754V112.954H131.737V111.154C132.357 111.154 132.817 111.104 133.117 111.004C133.437 110.884 133.647 110.604 133.747 110.164C133.867 109.704 133.927 108.984 133.927 108.004H135.997V111.154H138.817V112.954H135.997V121.444H138.847V123.424H136.087ZM143.348 109.804C142.808 109.824 142.448 109.694 142.268 109.414C142.088 109.134 141.998 108.784 141.998 108.364C141.998 108.004 142.088 107.684 142.268 107.404C142.448 107.124 142.808 106.984 143.348 106.984C143.868 106.984 144.218 107.124 144.398 107.404C144.598 107.684 144.698 108.004 144.698 108.364C144.698 108.784 144.598 109.134 144.398 109.414C144.218 109.674 143.868 109.804 143.348 109.804ZM142.088 123.424V111.154H144.578V123.424H142.088ZM152.659 123.724C151.739 123.724 150.869 123.524 150.049 123.124C149.249 122.724 148.599 122.194 148.099 121.534C147.619 120.854 147.379 120.124 147.379 119.344H149.719C149.719 119.384 149.729 119.534 149.749 119.794C149.769 120.054 149.859 120.344 150.019 120.664C150.179 120.984 150.459 121.264 150.859 121.504C151.279 121.744 151.869 121.864 152.629 121.864C153.469 121.864 154.149 121.714 154.669 121.414C155.189 121.114 155.449 120.694 155.449 120.154C155.449 119.654 155.259 119.264 154.879 118.984C154.499 118.704 154.009 118.484 153.409 118.324C152.809 118.144 152.169 117.974 151.489 117.814C150.829 117.654 150.199 117.444 149.599 117.184C149.019 116.904 148.539 116.534 148.159 116.074C147.799 115.594 147.629 114.954 147.649 114.154C147.649 113.074 148.099 112.244 148.999 111.664C149.919 111.064 151.079 110.764 152.479 110.764C153.379 110.764 154.239 110.914 155.059 111.214C155.879 111.494 156.549 111.954 157.069 112.594C157.609 113.234 157.869 114.094 157.849 115.174H155.539C155.559 114.494 155.399 113.984 155.059 113.644C154.739 113.284 154.339 113.044 153.859 112.924C153.379 112.784 152.929 112.714 152.509 112.714C151.709 112.714 151.079 112.864 150.619 113.164C150.159 113.444 149.929 113.824 149.929 114.304C149.929 114.824 150.119 115.224 150.499 115.504C150.879 115.764 151.369 115.984 151.969 116.164C152.569 116.324 153.199 116.484 153.859 116.644C154.539 116.804 155.179 117.014 155.779 117.274C156.379 117.534 156.869 117.904 157.249 118.384C157.649 118.864 157.849 119.504 157.849 120.304C157.849 121.484 157.359 122.354 156.379 122.914C155.399 123.454 154.159 123.724 152.659 123.724ZM161.334 123.484V112.954H159.534V111.154H161.334V108.784C161.334 107.904 161.524 107.244 161.904 106.804C162.304 106.364 162.934 106.144 163.794 106.144H167.214V108.124H163.824V111.154H167.064V112.954H163.824V123.484H161.334ZM173.134 123.694C171.994 123.694 171.074 123.434 170.374 122.914C169.674 122.374 169.154 121.634 168.814 120.694C168.494 119.734 168.334 118.644 168.334 117.424C168.334 115.564 168.714 114.044 169.474 112.864C170.234 111.664 171.454 111.064 173.134 111.064C174.034 111.064 174.764 111.224 175.324 111.544C175.884 111.864 176.314 112.224 176.614 112.624C176.934 113.024 177.154 113.374 177.274 113.674H177.334V111.154H179.884V123.424H177.754L177.334 121.234H177.274C177.154 121.534 176.934 121.884 176.614 122.284C176.294 122.664 175.854 122.994 175.294 123.274C174.734 123.554 174.014 123.694 173.134 123.694ZM174.124 121.564C175.304 121.564 176.124 121.184 176.584 120.424C177.064 119.664 177.304 118.674 177.304 117.454C177.304 116.174 177.054 115.164 176.554 114.424C176.074 113.684 175.264 113.314 174.124 113.314C173.284 113.314 172.624 113.504 172.144 113.884C171.664 114.244 171.314 114.734 171.094 115.354C170.894 115.974 170.794 116.664 170.794 117.424C170.794 118.604 171.044 119.594 171.544 120.394C172.044 121.174 172.904 121.564 174.124 121.564ZM188.147 123.724C186.987 123.724 185.947 123.484 185.027 123.004C184.107 122.524 183.377 121.824 182.837 120.904C182.317 119.984 182.057 118.864 182.057 117.544C182.077 116.244 182.357 115.114 182.897 114.154C183.437 113.194 184.157 112.454 185.057 111.934C185.977 111.394 187.027 111.124 188.207 111.124C189.367 111.124 190.357 111.344 191.177 111.784C192.017 112.224 192.677 112.804 193.157 113.524C193.637 114.224 193.927 114.974 194.027 115.774H191.717C191.557 114.994 191.177 114.384 190.577 113.944C189.977 113.504 189.217 113.284 188.297 113.284C187.097 113.284 186.157 113.664 185.477 114.424C184.817 115.184 184.487 116.164 184.487 117.364C184.487 118.644 184.807 119.664 185.447 120.424C186.107 121.164 187.047 121.534 188.267 121.534C189.127 121.534 189.877 121.314 190.517 120.874C191.157 120.434 191.557 119.794 191.717 118.954H194.027C193.927 119.794 193.627 120.584 193.127 121.324C192.647 122.044 191.987 122.624 191.147 123.064C190.307 123.504 189.307 123.724 188.147 123.724ZM200.055 123.424C199.195 123.424 198.565 123.204 198.165 122.764C197.785 122.324 197.595 121.654 197.595 120.754V112.954H195.705V111.154C196.325 111.154 196.785 111.104 197.085 111.004C197.405 110.884 197.615 110.604 197.715 110.164C197.835 109.704 197.895 108.984 197.895 108.004H199.965V111.154H202.785V112.954H199.965V121.444H202.815V123.424H200.055ZM207.316 109.804C206.776 109.824 206.416 109.694 206.236 109.414C206.056 109.134 205.966 108.784 205.966 108.364C205.966 108.004 206.056 107.684 206.236 107.404C206.416 107.124 206.776 106.984 207.316 106.984C207.836 106.984 208.186 107.124 208.366 107.404C208.566 107.684 208.666 108.004 208.666 108.364C208.666 108.784 208.566 109.134 208.366 109.414C208.186 109.674 207.836 109.804 207.316 109.804ZM206.056 123.424V111.154H208.546V123.424H206.056ZM217.287 123.724C215.247 123.724 213.727 123.134 212.727 121.954C211.727 120.774 211.227 119.274 211.227 117.454C211.207 115.614 211.707 114.104 212.727 112.924C213.747 111.744 215.267 111.144 217.287 111.124C219.247 111.124 220.737 111.704 221.757 112.864C222.777 114.024 223.287 115.554 223.287 117.454C223.287 118.634 223.067 119.704 222.627 120.664C222.207 121.604 221.547 122.354 220.647 122.914C219.767 123.454 218.647 123.724 217.287 123.724ZM217.287 121.594C218.247 121.594 218.977 121.384 219.477 120.964C219.997 120.544 220.357 120.014 220.557 119.374C220.757 118.714 220.857 118.044 220.857 117.364C220.857 116.684 220.757 116.024 220.557 115.384C220.357 114.724 219.997 114.184 219.477 113.764C218.977 113.324 218.247 113.104 217.287 113.104C216.307 113.104 215.557 113.324 215.037 113.764C214.517 114.184 214.157 114.724 213.957 115.384C213.757 116.024 213.657 116.684 213.657 117.364C213.657 118.044 213.757 118.714 213.957 119.374C214.157 120.014 214.517 120.544 215.037 120.964C215.557 121.384 216.307 121.594 217.287 121.594ZM225.862 123.424V111.184H227.992L228.412 114.004H228.472C228.492 113.924 228.572 113.734 228.712 113.434C228.852 113.134 229.082 112.814 229.402 112.474C229.722 112.114 230.152 111.804 230.692 111.544C231.232 111.284 231.912 111.154 232.732 111.154C233.812 111.154 234.652 111.364 235.252 111.784C235.852 112.184 236.292 112.714 236.572 113.374C236.852 114.014 237.022 114.694 237.082 115.414C237.162 116.134 237.202 116.804 237.202 117.424V123.424H234.772V117.394C234.772 116.634 234.692 115.954 234.532 115.354C234.372 114.734 234.072 114.254 233.632 113.914C233.212 113.554 232.592 113.374 231.772 113.374C230.932 113.374 230.262 113.574 229.762 113.974C229.262 114.374 228.912 114.894 228.712 115.534C228.512 116.174 228.412 116.854 228.412 117.574V123.424H225.862ZM254.56 123.784C252.92 123.784 251.49 123.444 250.27 122.764C249.07 122.084 248.14 121.104 247.48 119.824C246.82 118.524 246.5 116.934 246.52 115.054C246.54 113.174 246.9 111.584 247.6 110.284C248.32 108.964 249.31 107.964 250.57 107.284C251.83 106.584 253.3 106.234 254.98 106.234C257.18 106.234 258.92 106.734 260.2 107.734C261.48 108.714 262.32 110.154 262.72 112.054L260.32 112.384C260 111.024 259.35 110.054 258.37 109.474C257.39 108.874 256.26 108.574 254.98 108.574C252.94 108.574 251.43 109.144 250.45 110.284C249.49 111.404 248.99 112.944 248.95 114.904C248.95 116.964 249.49 118.564 250.57 119.704C251.67 120.824 253.21 121.384 255.19 121.384C256.55 121.384 257.73 121.044 258.73 120.364C259.73 119.664 260.35 118.594 260.59 117.154H256.42V115.264H263.05V123.424H261.34L260.77 120.094H260.71C260.51 120.614 260.16 121.164 259.66 121.744C259.18 122.304 258.51 122.784 257.65 123.184C256.81 123.584 255.78 123.784 254.56 123.784ZM270.167 123.724C269.127 123.724 268.297 123.534 267.677 123.154C267.077 122.754 266.627 122.234 266.327 121.594C266.047 120.954 265.857 120.274 265.757 119.554C265.677 118.834 265.637 118.134 265.637 117.454V111.154H268.097V117.454C268.097 118.174 268.167 118.844 268.307 119.464C268.447 120.084 268.727 120.584 269.147 120.964C269.587 121.324 270.247 121.504 271.127 121.504C271.967 121.504 272.617 121.314 273.077 120.934C273.537 120.554 273.857 120.064 274.037 119.464C274.237 118.864 274.347 118.234 274.367 117.574L274.397 111.154H276.947V123.424H274.817L274.397 120.874H274.337C274.257 121.134 274.067 121.494 273.767 121.954C273.467 122.394 273.027 122.804 272.447 123.184C271.867 123.544 271.107 123.724 270.167 123.724ZM283.91 123.694C282.77 123.694 281.85 123.434 281.15 122.914C280.45 122.374 279.93 121.634 279.59 120.694C279.27 119.734 279.11 118.644 279.11 117.424C279.11 115.564 279.49 114.044 280.25 112.864C281.01 111.664 282.23 111.064 283.91 111.064C284.81 111.064 285.54 111.224 286.1 111.544C286.66 111.864 287.09 112.224 287.39 112.624C287.71 113.024 287.93 113.374 288.05 113.674H288.11V111.154H290.66V123.424H288.53L288.11 121.234H288.05C287.93 121.534 287.71 121.884 287.39 122.284C287.07 122.664 286.63 122.994 286.07 123.274C285.51 123.554 284.79 123.694 283.91 123.694ZM284.9 121.564C286.08 121.564 286.9 121.184 287.36 120.424C287.84 119.664 288.08 118.674 288.08 117.454C288.08 116.174 287.83 115.164 287.33 114.424C286.85 113.684 286.04 113.314 284.9 113.314C284.06 113.314 283.4 113.504 282.92 113.884C282.44 114.244 282.09 114.734 281.87 115.354C281.67 115.974 281.57 116.664 281.57 117.424C281.57 118.604 281.82 119.594 282.32 120.394C282.82 121.174 283.68 121.564 284.9 121.564ZM293.373 123.424V111.154H295.683L295.893 114.484C296.013 113.944 296.243 113.424 296.583 112.924C296.943 112.404 297.433 111.984 298.053 111.664C298.693 111.324 299.503 111.154 300.483 111.154H300.993V113.914H300.453C299.233 113.914 298.293 114.074 297.633 114.394C296.973 114.694 296.513 115.144 296.253 115.744C295.993 116.324 295.863 117.044 295.863 117.904V123.424H293.373ZM307.333 123.694C306.193 123.694 305.273 123.434 304.573 122.914C303.873 122.374 303.353 121.634 303.013 120.694C302.693 119.734 302.533 118.644 302.533 117.424C302.533 115.564 302.913 114.044 303.673 112.864C304.433 111.664 305.653 111.064 307.333 111.064C308.233 111.064 308.963 111.224 309.523 111.544C310.083 111.864 310.513 112.224 310.813 112.624C311.133 113.024 311.353 113.374 311.473 113.674H311.533V111.154H314.083V123.424H311.953L311.533 121.234H311.473C311.353 121.534 311.133 121.884 310.813 122.284C310.493 122.664 310.053 122.994 309.493 123.274C308.933 123.554 308.213 123.694 307.333 123.694ZM308.323 121.564C309.503 121.564 310.323 121.184 310.783 120.424C311.263 119.664 311.503 118.674 311.503 117.454C311.503 116.174 311.253 115.164 310.753 114.424C310.273 113.684 309.463 113.314 308.323 113.314C307.483 113.314 306.823 113.504 306.343 113.884C305.863 114.244 305.513 114.734 305.293 115.354C305.093 115.974 304.993 116.664 304.993 117.424C304.993 118.604 305.243 119.594 305.743 120.394C306.243 121.174 307.103 121.564 308.323 121.564ZM316.585 123.424V111.184H318.715L319.135 114.004H319.195C319.215 113.924 319.295 113.734 319.435 113.434C319.575 113.134 319.805 112.814 320.125 112.474C320.445 112.114 320.875 111.804 321.415 111.544C321.955 111.284 322.635 111.154 323.455 111.154C324.535 111.154 325.375 111.364 325.975 111.784C326.575 112.184 327.015 112.714 327.295 113.374C327.575 114.014 327.745 114.694 327.805 115.414C327.885 116.134 327.925 116.804 327.925 117.424V123.424H325.495V117.394C325.495 116.634 325.415 115.954 325.255 115.354C325.095 114.734 324.795 114.254 324.355 113.914C323.935 113.554 323.315 113.374 322.495 113.374C321.655 113.374 320.985 113.574 320.485 113.974C319.985 114.374 319.635 114.894 319.435 115.534C319.235 116.174 319.135 116.854 319.135 117.574V123.424H316.585ZM334.107 123.424C333.247 123.424 332.617 123.204 332.217 122.764C331.837 122.324 331.647 121.654 331.647 120.754V112.954H329.757V111.154C330.377 111.154 330.837 111.104 331.137 111.004C331.457 110.884 331.667 110.604 331.767 110.164C331.887 109.704 331.947 108.984 331.947 108.004H334.017V111.154H336.837V112.954H334.017V121.444H336.867V123.424H334.107ZM344.945 123.724C343.565 123.724 342.435 123.424 341.555 122.824C340.675 122.204 340.025 121.414 339.605 120.454C339.185 119.494 338.975 118.484 338.975 117.424C338.955 116.244 339.175 115.174 339.635 114.214C340.115 113.254 340.795 112.494 341.675 111.934C342.575 111.374 343.645 111.094 344.885 111.094C345.945 111.094 346.895 111.334 347.735 111.814C348.595 112.274 349.275 112.934 349.775 113.794C350.275 114.634 350.545 115.634 350.585 116.794C350.585 116.854 350.585 116.974 350.585 117.154C350.605 117.314 350.615 117.454 350.615 117.574H341.345C341.345 118.854 341.655 119.854 342.275 120.574C342.915 121.274 343.795 121.624 344.915 121.624C345.755 121.624 346.465 121.414 347.045 120.994C347.645 120.554 348.015 119.974 348.155 119.254H350.585C350.405 120.534 349.825 121.604 348.845 122.464C347.865 123.304 346.565 123.724 344.945 123.724ZM341.435 116.344H348.095C348.075 116.124 348.015 115.834 347.915 115.474C347.815 115.114 347.645 114.764 347.405 114.424C347.185 114.064 346.865 113.764 346.445 113.524C346.025 113.284 345.485 113.164 344.825 113.164C344.005 113.164 343.355 113.344 342.875 113.704C342.415 114.044 342.065 114.464 341.825 114.964C341.605 115.444 341.475 115.904 341.435 116.344ZM358.955 123.724C357.575 123.724 356.445 123.424 355.565 122.824C354.685 122.204 354.035 121.414 353.615 120.454C353.195 119.494 352.985 118.484 352.985 117.424C352.965 116.244 353.185 115.174 353.645 114.214C354.125 113.254 354.805 112.494 355.685 111.934C356.585 111.374 357.655 111.094 358.895 111.094C359.955 111.094 360.905 111.334 361.745 111.814C362.605 112.274 363.285 112.934 363.785 113.794C364.285 114.634 364.555 115.634 364.595 116.794C364.595 116.854 364.595 116.974 364.595 117.154C364.615 117.314 364.625 117.454 364.625 117.574H355.355C355.355 118.854 355.665 119.854 356.285 120.574C356.925 121.274 357.805 121.624 358.925 121.624C359.765 121.624 360.475 121.414 361.055 120.994C361.655 120.554 362.025 119.974 362.165 119.254H364.595C364.415 120.534 363.835 121.604 362.855 122.464C361.875 123.304 360.575 123.724 358.955 123.724ZM355.445 116.344H362.105C362.085 116.124 362.025 115.834 361.925 115.474C361.825 115.114 361.655 114.764 361.415 114.424C361.195 114.064 360.875 113.764 360.455 113.524C360.035 113.284 359.495 113.164 358.835 113.164C358.015 113.164 357.365 113.344 356.885 113.704C356.425 114.044 356.075 114.464 355.835 114.964C355.615 115.444 355.485 115.904 355.445 116.344ZM372.726 123.724C370.926 123.724 369.606 123.144 368.766 121.984C367.926 120.804 367.506 119.304 367.506 117.484C367.506 115.604 367.926 114.084 368.766 112.924C369.626 111.744 370.946 111.154 372.726 111.154C373.526 111.154 374.196 111.284 374.736 111.544C375.276 111.804 375.706 112.114 376.026 112.474C376.366 112.834 376.606 113.164 376.746 113.464C376.906 113.764 376.996 113.954 377.016 114.034H377.076L377.106 106.534H379.656V123.424H377.496L377.106 120.964H377.046C377.006 121.044 376.896 121.234 376.716 121.534C376.556 121.814 376.306 122.124 375.966 122.464C375.646 122.804 375.216 123.104 374.676 123.364C374.136 123.604 373.486 123.724 372.726 123.724ZM373.446 121.564C374.606 121.564 375.496 121.194 376.116 120.454C376.736 119.694 377.046 118.694 377.046 117.454C377.046 116.254 376.746 115.284 376.146 114.544C375.566 113.784 374.706 113.404 373.566 113.404C372.686 113.404 371.976 113.604 371.436 114.004C370.916 114.384 370.536 114.884 370.296 115.504C370.076 116.124 369.966 116.774 369.966 117.454C369.966 118.154 370.066 118.824 370.266 119.464C370.486 120.084 370.846 120.594 371.346 120.994C371.866 121.374 372.566 121.564 373.446 121.564Z" fill="#00668B"/>
<path fill-rule="evenodd" clip-rule="evenodd" d="M10.1283 157.522C8.02623 157.737 6.11334 158.643 4.62635 160.126C3.20394 161.545 2.32871 163.323 2.04551 165.369C1.98483 165.807 1.98483 167.183 2.04551 167.621C2.32871 169.667 3.20394 171.445 4.62635 172.864C6.05741 174.292 7.7972 175.145 9.88196 175.442C10.3001 175.501 11.6828 175.5 12.117 175.44C14.1537 175.158 15.9469 174.277 17.3541 172.867C20.6172 169.597 20.8956 164.435 18.0029 160.842C16.5692 159.061 14.5423 157.91 12.2402 157.569C11.8098 157.505 10.5604 157.477 10.1283 157.522ZM16.1013 162.42C16.3565 162.537 16.6026 162.783 16.7189 163.037C16.895 163.422 16.859 163.933 16.6321 164.267C16.5531 164.384 12.4624 168.58 10.9576 170.088C10.4612 170.586 10.3017 170.666 9.81157 170.666C9.21236 170.665 9.34717 170.77 7.21922 168.65C5.07994 166.518 5.16547 166.626 5.16547 166.055C5.16547 165.735 5.1749 165.685 5.26948 165.498C5.40246 165.235 5.6846 164.975 5.94872 164.873C6.22812 164.764 6.60294 164.765 6.89016 164.875C7.08554 164.95 7.18828 165.042 8.26287 166.11C8.9017 166.745 9.46899 167.282 9.52347 167.302C9.65068 167.351 9.89393 167.35 10.0326 167.302C10.1037 167.277 10.9221 166.472 12.4193 164.953C13.6725 163.681 14.7613 162.594 14.8389 162.537C15.1799 162.285 15.7008 162.237 16.1013 162.42Z" fill="#133063"/>
<path d="M45.9997 158.534H48.7297L42.9697 175.424H38.7997L33.0397 158.534H35.7397L40.8697 174.314L45.9997 158.534ZM54.7337 175.694C53.5937 175.694 52.6737 175.434 51.9737 174.914C51.2737 174.374 50.7537 173.634 50.4137 172.694C50.0937 171.734 49.9337 170.644 49.9337 169.424C49.9337 167.564 50.3137 166.044 51.0737 164.864C51.8337 163.664 53.0537 163.064 54.7337 163.064C55.6337 163.064 56.3637 163.224 56.9237 163.544C57.4837 163.864 57.9137 164.224 58.2137 164.624C58.5337 165.024 58.7537 165.374 58.8737 165.674H58.9337V163.154H61.4837V175.424H59.3537L58.9337 173.234H58.8737C58.7537 173.534 58.5337 173.884 58.2137 174.284C57.8937 174.664 57.4537 174.994 56.8937 175.274C56.3337 175.554 55.6137 175.694 54.7337 175.694ZM55.7237 173.564C56.9037 173.564 57.7237 173.184 58.1837 172.424C58.6637 171.664 58.9037 170.674 58.9037 169.454C58.9037 168.174 58.6537 167.164 58.1537 166.424C57.6737 165.684 56.8637 165.314 55.7237 165.314C54.8837 165.314 54.2237 165.504 53.7437 165.884C53.2637 166.244 52.9137 166.734 52.6937 167.354C52.4937 167.974 52.3937 168.664 52.3937 169.424C52.3937 170.604 52.6437 171.594 53.1437 172.394C53.6437 173.174 54.5037 173.564 55.7237 173.564ZM64.1966 175.424V163.154H66.5066L66.7166 166.484C66.8366 165.944 67.0666 165.424 67.4066 164.924C67.7666 164.404 68.2566 163.984 68.8766 163.664C69.5166 163.324 70.3266 163.154 71.3066 163.154H71.8166V165.914H71.2766C70.0566 165.914 69.1166 166.074 68.4566 166.394C67.7966 166.694 67.3366 167.144 67.0766 167.744C66.8166 168.324 66.6866 169.044 66.6866 169.904V175.424H64.1966ZM75.666 161.804C75.126 161.824 74.766 161.694 74.586 161.414C74.406 161.134 74.316 160.784 74.316 160.364C74.316 160.004 74.406 159.684 74.586 159.404C74.766 159.124 75.126 158.984 75.666 158.984C76.186 158.984 76.536 159.124 76.716 159.404C76.916 159.684 77.016 160.004 77.016 160.364C77.016 160.784 76.916 161.134 76.716 161.414C76.536 161.674 76.186 161.804 75.666 161.804ZM74.406 175.424V163.154H76.896V175.424H74.406ZM85.6074 175.724C84.2274 175.724 83.0974 175.424 82.2174 174.824C81.3374 174.204 80.6874 173.414 80.2674 172.454C79.8474 171.494 79.6374 170.484 79.6374 169.424C79.6174 168.244 79.8374 167.174 80.2974 166.214C80.7774 165.254 81.4574 164.494 82.3374 163.934C83.2374 163.374 84.3074 163.094 85.5474 163.094C86.6074 163.094 87.5574 163.334 88.3974 163.814C89.2574 164.274 89.9374 164.934 90.4374 165.794C90.9374 166.634 91.2074 167.634 91.2474 168.794C91.2474 168.854 91.2474 168.974 91.2474 169.154C91.2674 169.314 91.2774 169.454 91.2774 169.574H82.0074C82.0074 170.854 82.3174 171.854 82.9374 172.574C83.5774 173.274 84.4574 173.624 85.5774 173.624C86.4174 173.624 87.1274 173.414 87.7074 172.994C88.3074 172.554 88.6774 171.974 88.8174 171.254H91.2474C91.0674 172.534 90.4874 173.604 89.5074 174.464C88.5274 175.304 87.2274 175.724 85.6074 175.724ZM82.0974 168.344H88.7574C88.7374 168.124 88.6774 167.834 88.5774 167.474C88.4774 167.114 88.3074 166.764 88.0674 166.424C87.8474 166.064 87.5274 165.764 87.1074 165.524C86.6874 165.284 86.1474 165.164 85.4874 165.164C84.6674 165.164 84.0174 165.344 83.5374 165.704C83.0774 166.044 82.7274 166.464 82.4874 166.964C82.2674 167.444 82.1374 167.904 82.0974 168.344ZM97.5184 175.424C96.6584 175.424 96.0284 175.204 95.6284 174.764C95.2484 174.324 95.0584 173.654 95.0584 172.754V164.954H93.1684V163.154C93.7884 163.154 94.2484 163.104 94.5484 163.004C94.8684 162.884 95.0784 162.604 95.1784 162.164C95.2984 161.704 95.3584 160.984 95.3584 160.004H97.4284V163.154H100.248V164.954H97.4284V173.444H100.278V175.424H97.5184ZM101.809 181.004V179.054H103.579C103.999 179.054 104.349 178.954 104.629 178.754C104.909 178.574 105.249 178.074 105.649 177.254L106.699 174.944L101.899 163.154H104.479L107.929 172.364L111.619 163.154H114.229L107.929 177.524C107.489 178.544 107.089 179.304 106.729 179.804C106.369 180.304 105.969 180.624 105.529 180.764C105.089 180.924 104.539 181.004 103.879 181.004H101.809ZM130.2 175.784C128.98 175.784 127.81 175.594 126.69 175.214C125.57 174.814 124.65 174.194 123.93 173.354C123.23 172.494 122.87 171.384 122.85 170.024H125.37C125.37 170.104 125.4 170.334 125.46 170.714C125.54 171.074 125.73 171.474 126.03 171.914C126.35 172.334 126.85 172.704 127.53 173.024C128.21 173.344 129.16 173.504 130.38 173.504C131.36 173.504 132.13 173.364 132.69 173.084C133.27 172.804 133.67 172.474 133.89 172.094C134.13 171.714 134.26 171.374 134.28 171.074C134.28 170.454 134.08 169.954 133.68 169.574C133.3 169.194 132.78 168.894 132.12 168.674C131.46 168.434 130.73 168.224 129.93 168.044C129.15 167.844 128.37 167.634 127.59 167.414C126.81 167.174 126.09 166.864 125.43 166.484C124.79 166.104 124.28 165.614 123.9 165.014C123.54 164.394 123.39 163.604 123.45 162.644C123.51 161.264 124.16 160.184 125.4 159.404C126.66 158.624 128.28 158.234 130.26 158.234C131.42 158.234 132.5 158.444 133.5 158.864C134.5 159.284 135.3 159.914 135.9 160.754C136.5 161.594 136.8 162.644 136.8 163.904H134.37C134.37 163.204 134.22 162.644 133.92 162.224C133.62 161.784 133.24 161.444 132.78 161.204C132.32 160.964 131.84 160.804 131.34 160.724C130.84 160.624 130.39 160.574 129.99 160.574C128.85 160.574 127.91 160.784 127.17 161.204C126.45 161.624 126.09 162.194 126.09 162.914C126.07 163.554 126.26 164.064 126.66 164.444C127.06 164.824 127.59 165.124 128.25 165.344C128.91 165.564 129.63 165.764 130.41 165.944C131.21 166.124 132 166.324 132.78 166.544C133.58 166.764 134.3 167.064 134.94 167.444C135.6 167.804 136.11 168.304 136.47 168.944C136.85 169.564 137.02 170.354 136.98 171.314C136.92 172.254 136.59 173.064 135.99 173.744C135.41 174.404 134.62 174.914 133.62 175.274C132.62 175.614 131.48 175.784 130.2 175.784ZM145.291 175.724C143.911 175.724 142.781 175.424 141.901 174.824C141.021 174.204 140.371 173.414 139.951 172.454C139.531 171.494 139.321 170.484 139.321 169.424C139.301 168.244 139.521 167.174 139.981 166.214C140.461 165.254 141.141 164.494 142.021 163.934C142.921 163.374 143.991 163.094 145.231 163.094C146.291 163.094 147.241 163.334 148.081 163.814C148.941 164.274 149.621 164.934 150.121 165.794C150.621 166.634 150.891 167.634 150.931 168.794C150.931 168.854 150.931 168.974 150.931 169.154C150.951 169.314 150.961 169.454 150.961 169.574H141.691C141.691 170.854 142.001 171.854 142.621 172.574C143.261 173.274 144.141 173.624 145.261 173.624C146.101 173.624 146.811 173.414 147.391 172.994C147.991 172.554 148.361 171.974 148.501 171.254H150.931C150.751 172.534 150.171 173.604 149.191 174.464C148.211 175.304 146.911 175.724 145.291 175.724ZM141.781 168.344H148.441C148.421 168.124 148.361 167.834 148.261 167.474C148.161 167.114 147.991 166.764 147.751 166.424C147.531 166.064 147.211 165.764 146.791 165.524C146.371 165.284 145.831 165.164 145.171 165.164C144.351 165.164 143.701 165.344 143.221 165.704C142.761 166.044 142.411 166.464 142.171 166.964C141.951 167.444 141.821 167.904 141.781 168.344ZM153.872 175.424V163.154H156.182L156.392 166.484C156.512 165.944 156.742 165.424 157.082 164.924C157.442 164.404 157.932 163.984 158.552 163.664C159.192 163.324 160.002 163.154 160.982 163.154H161.492V165.914H160.952C159.732 165.914 158.792 166.074 158.132 166.394C157.472 166.694 157.012 167.144 156.752 167.744C156.492 168.324 156.362 169.044 156.362 169.904V175.424H153.872ZM172.943 163.154H175.403V163.604L170.993 175.424H167.483L163.043 163.634V163.154H165.473L169.253 173.354H169.313L172.943 163.154ZM179.294 161.804C178.754 161.824 178.394 161.694 178.214 161.414C178.034 161.134 177.944 160.784 177.944 160.364C177.944 160.004 178.034 159.684 178.214 159.404C178.394 159.124 178.754 158.984 179.294 158.984C179.814 158.984 180.164 159.124 180.344 159.404C180.544 159.684 180.644 160.004 180.644 160.364C180.644 160.784 180.544 161.134 180.344 161.414C180.164 161.674 179.814 161.804 179.294 161.804ZM178.034 175.424V163.154H180.524V175.424H178.034ZM189.355 175.724C188.195 175.724 187.155 175.484 186.235 175.004C185.315 174.524 184.585 173.824 184.045 172.904C183.525 171.984 183.265 170.864 183.265 169.544C183.285 168.244 183.565 167.114 184.105 166.154C184.645 165.194 185.365 164.454 186.265 163.934C187.185 163.394 188.235 163.124 189.415 163.124C190.575 163.124 191.565 163.344 192.385 163.784C193.225 164.224 193.885 164.804 194.365 165.524C194.845 166.224 195.135 166.974 195.235 167.774H192.925C192.765 166.994 192.385 166.384 191.785 165.944C191.185 165.504 190.425 165.284 189.505 165.284C188.305 165.284 187.365 165.664 186.685 166.424C186.025 167.184 185.695 168.164 185.695 169.364C185.695 170.644 186.015 171.664 186.655 172.424C187.315 173.164 188.255 173.534 189.475 173.534C190.335 173.534 191.085 173.314 191.725 172.874C192.365 172.434 192.765 171.794 192.925 170.954H195.235C195.135 171.794 194.835 172.584 194.335 173.324C193.855 174.044 193.195 174.624 192.355 175.064C191.515 175.504 190.515 175.724 189.355 175.724ZM203.363 175.724C201.983 175.724 200.853 175.424 199.973 174.824C199.093 174.204 198.443 173.414 198.023 172.454C197.603 171.494 197.393 170.484 197.393 169.424C197.373 168.244 197.593 167.174 198.053 166.214C198.533 165.254 199.213 164.494 200.093 163.934C200.993 163.374 202.063 163.094 203.303 163.094C204.363 163.094 205.313 163.334 206.153 163.814C207.013 164.274 207.693 164.934 208.193 165.794C208.693 166.634 208.963 167.634 209.003 168.794C209.003 168.854 209.003 168.974 209.003 169.154C209.023 169.314 209.033 169.454 209.033 169.574H199.763C199.763 170.854 200.073 171.854 200.693 172.574C201.333 173.274 202.213 173.624 203.333 173.624C204.173 173.624 204.883 173.414 205.463 172.994C206.063 172.554 206.433 171.974 206.573 171.254H209.003C208.823 172.534 208.243 173.604 207.263 174.464C206.283 175.304 204.983 175.724 203.363 175.724ZM199.853 168.344H206.513C206.493 168.124 206.433 167.834 206.333 167.474C206.233 167.114 206.063 166.764 205.823 166.424C205.603 166.064 205.283 165.764 204.863 165.524C204.443 165.284 203.903 165.164 203.243 165.164C202.423 165.164 201.773 165.344 201.293 165.704C200.833 166.044 200.483 166.464 200.243 166.964C200.023 167.444 199.893 167.904 199.853 168.344ZM216.744 175.724C215.824 175.724 214.954 175.524 214.134 175.124C213.334 174.724 212.684 174.194 212.184 173.534C211.704 172.854 211.464 172.124 211.464 171.344H213.804C213.804 171.384 213.814 171.534 213.834 171.794C213.854 172.054 213.944 172.344 214.104 172.664C214.264 172.984 214.544 173.264 214.944 173.504C215.364 173.744 215.954 173.864 216.714 173.864C217.554 173.864 218.234 173.714 218.754 173.414C219.274 173.114 219.534 172.694 219.534 172.154C219.534 171.654 219.344 171.264 218.964 170.984C218.584 170.704 218.094 170.484 217.494 170.324C216.894 170.144 216.254 169.974 215.574 169.814C214.914 169.654 214.284 169.444 213.684 169.184C213.104 168.904 212.624 168.534 212.244 168.074C211.884 167.594 211.714 166.954 211.734 166.154C211.734 165.074 212.184 164.244 213.084 163.664C214.004 163.064 215.164 162.764 216.564 162.764C217.464 162.764 218.324 162.914 219.144 163.214C219.964 163.494 220.634 163.954 221.154 164.594C221.694 165.234 221.954 166.094 221.934 167.174H219.624C219.644 166.494 219.484 165.984 219.144 165.644C218.824 165.284 218.424 165.044 217.944 164.924C217.464 164.784 217.014 164.714 216.594 164.714C215.794 164.714 215.164 164.864 214.704 165.164C214.244 165.444 214.014 165.824 214.014 166.304C214.014 166.824 214.204 167.224 214.584 167.504C214.964 167.764 215.454 167.984 216.054 168.164C216.654 168.324 217.284 168.484 217.944 168.644C218.624 168.804 219.264 169.014 219.864 169.274C220.464 169.534 220.954 169.904 221.334 170.384C221.734 170.864 221.934 171.504 221.934 172.304C221.934 173.484 221.444 174.354 220.464 174.914C219.484 175.454 218.244 175.724 216.744 175.724ZM239.206 175.844C236.506 175.844 234.446 175.054 233.026 173.474C231.606 171.874 230.896 169.724 230.896 167.024C230.896 165.244 231.196 163.704 231.796 162.404C232.416 161.084 233.336 160.064 234.556 159.344C235.796 158.604 237.346 158.234 239.206 158.234C241.906 158.234 243.956 159.034 245.356 160.634C246.776 162.214 247.486 164.344 247.486 167.024C247.486 168.764 247.166 170.304 246.526 171.644C245.906 172.964 244.976 173.994 243.736 174.734C242.516 175.474 241.006 175.844 239.206 175.844ZM239.176 173.444C241.116 173.444 242.576 172.844 243.556 171.644C244.536 170.444 245.026 168.904 245.026 167.024C245.026 165.144 244.536 163.604 243.556 162.404C242.596 161.184 241.136 160.574 239.176 160.574C237.256 160.574 235.796 161.154 234.796 162.314C233.816 163.474 233.326 165.044 233.326 167.024C233.326 168.264 233.536 169.374 233.956 170.354C234.376 171.314 235.016 172.074 235.876 172.634C236.756 173.174 237.856 173.444 239.176 173.444ZM251.098 175.484V164.954H249.298V163.154H251.098V160.784C251.098 159.904 251.288 159.244 251.668 158.804C252.068 158.364 252.698 158.144 253.558 158.144H256.978V160.124H253.588V163.154H256.828V164.954H253.588V175.484H251.098ZM260.333 175.484V164.954H258.533V163.154H260.333V160.784C260.333 159.904 260.523 159.244 260.903 158.804C261.303 158.364 261.933 158.144 262.793 158.144H266.213V160.124H262.823V163.154H266.063V164.954H262.823V175.484H260.333ZM273.513 175.724C272.133 175.724 271.003 175.424 270.123 174.824C269.243 174.204 268.593 173.414 268.173 172.454C267.753 171.494 267.543 170.484 267.543 169.424C267.523 168.244 267.743 167.174 268.203 166.214C268.683 165.254 269.363 164.494 270.243 163.934C271.143 163.374 272.213 163.094 273.453 163.094C274.513 163.094 275.463 163.334 276.303 163.814C277.163 164.274 277.843 164.934 278.343 165.794C278.843 166.634 279.113 167.634 279.153 168.794C279.153 168.854 279.153 168.974 279.153 169.154C279.173 169.314 279.183 169.454 279.183 169.574H269.913C269.913 170.854 270.223 171.854 270.843 172.574C271.483 173.274 272.363 173.624 273.483 173.624C274.323 173.624 275.033 173.414 275.613 172.994C276.213 172.554 276.583 171.974 276.723 171.254H279.153C278.973 172.534 278.393 173.604 277.413 174.464C276.433 175.304 275.133 175.724 273.513 175.724ZM270.003 168.344H276.663C276.643 168.124 276.583 167.834 276.483 167.474C276.383 167.114 276.213 166.764 275.973 166.424C275.753 166.064 275.433 165.764 275.013 165.524C274.593 165.284 274.053 165.164 273.393 165.164C272.573 165.164 271.923 165.344 271.443 165.704C270.983 166.044 270.633 166.464 270.393 166.964C270.173 167.444 270.043 167.904 270.003 168.344ZM282.094 175.424V163.154H284.404L284.614 166.484C284.734 165.944 284.964 165.424 285.304 164.924C285.664 164.404 286.154 163.984 286.774 163.664C287.414 163.324 288.224 163.154 289.204 163.154H289.714V165.914H289.174C287.954 165.914 287.014 166.074 286.354 166.394C285.694 166.694 285.234 167.144 284.974 167.744C284.714 168.324 284.584 169.044 284.584 169.904V175.424H282.094ZM297.287 175.724C295.907 175.724 294.777 175.424 293.897 174.824C293.017 174.204 292.367 173.414 291.947 172.454C291.527 171.494 291.317 170.484 291.317 169.424C291.297 168.244 291.517 167.174 291.977 166.214C292.457 165.254 293.137 164.494 294.017 163.934C294.917 163.374 295.987 163.094 297.227 163.094C298.287 163.094 299.237 163.334 300.077 163.814C300.937 164.274 301.617 164.934 302.117 165.794C302.617 166.634 302.887 167.634 302.927 168.794C302.927 168.854 302.927 168.974 302.927 169.154C302.947 169.314 302.957 169.454 302.957 169.574H293.687C293.687 170.854 293.997 171.854 294.617 172.574C295.257 173.274 296.137 173.624 297.257 173.624C298.097 173.624 298.807 173.414 299.387 172.994C299.987 172.554 300.357 171.974 300.497 171.254H302.927C302.747 172.534 302.167 173.604 301.187 174.464C300.207 175.304 298.907 175.724 297.287 175.724ZM293.777 168.344H300.437C300.417 168.124 300.357 167.834 300.257 167.474C300.157 167.114 299.987 166.764 299.747 166.424C299.527 166.064 299.207 165.764 298.787 165.524C298.367 165.284 297.827 165.164 297.167 165.164C296.347 165.164 295.697 165.344 295.217 165.704C294.757 166.044 294.407 166.464 294.167 166.964C293.947 167.444 293.817 167.904 293.777 168.344ZM311.058 175.724C309.258 175.724 307.938 175.144 307.098 173.984C306.258 172.804 305.838 171.304 305.838 169.484C305.838 167.604 306.258 166.084 307.098 164.924C307.958 163.744 309.278 163.154 311.058 163.154C311.858 163.154 312.528 163.284 313.068 163.544C313.608 163.804 314.038 164.114 314.358 164.474C314.698 164.834 314.938 165.164 315.078 165.464C315.238 165.764 315.328 165.954 315.348 166.034H315.408L315.438 158.534H317.988V175.424H315.828L315.438 172.964H315.378C315.338 173.044 315.228 173.234 315.048 173.534C314.888 173.814 314.638 174.124 314.298 174.464C313.978 174.804 313.548 175.104 313.008 175.364C312.468 175.604 311.818 175.724 311.058 175.724ZM311.778 173.564C312.938 173.564 313.828 173.194 314.448 172.454C315.068 171.694 315.378 170.694 315.378 169.454C315.378 168.254 315.078 167.284 314.478 166.544C313.898 165.784 313.038 165.404 311.898 165.404C311.018 165.404 310.308 165.604 309.768 166.004C309.248 166.384 308.868 166.884 308.628 167.504C308.408 168.124 308.298 168.774 308.298 169.454C308.298 170.154 308.398 170.824 308.598 171.464C308.818 172.084 309.178 172.594 309.678 172.994C310.198 173.374 310.898 173.564 311.778 173.564Z" fill="#00668B"/>
<path fill-rule="evenodd" clip-rule="evenodd" d="M10.1283 209.522C8.02623 209.737 6.11334 210.643 4.62635 212.126C3.20394 213.545 2.32871 215.323 2.04551 217.369C1.98483 217.807 1.98483 219.183 2.04551 219.621C2.32871 221.667 3.20394 223.445 4.62635 224.864C6.05741 226.292 7.7972 227.145 9.88196 227.442C10.3001 227.501 11.6828 227.5 12.117 227.44C14.1537 227.158 15.9469 226.277 17.3541 224.867C20.6172 221.597 20.8956 216.435 18.0029 212.842C16.5692 211.061 14.5423 209.91 12.2402 209.569C11.8098 209.505 10.5604 209.477 10.1283 209.522ZM16.1013 214.42C16.3565 214.537 16.6026 214.783 16.7189 215.037C16.895 215.422 16.859 215.933 16.6321 216.267C16.5531 216.384 12.4624 220.58 10.9576 222.088C10.4612 222.586 10.3017 222.666 9.81157 222.666C9.21236 222.665 9.34717 222.77 7.21922 220.65C5.07994 218.518 5.16547 218.626 5.16547 218.055C5.16547 217.735 5.1749 217.685 5.26948 217.498C5.40246 217.235 5.6846 216.975 5.94872 216.873C6.22812 216.764 6.60294 216.765 6.89016 216.875C7.08554 216.95 7.18828 217.042 8.26287 218.11C8.9017 218.745 9.46899 219.282 9.52347 219.302C9.65068 219.351 9.89393 219.35 10.0326 219.302C10.1037 219.277 10.9221 218.472 12.4193 216.953C13.6725 215.681 14.7613 214.594 14.8389 214.537C15.1799 214.285 15.7008 214.237 16.1013 214.42Z" fill="#133063"/>
<path d="M37.4497 227.424H34.9897V210.534H46.8397V212.694H37.4497V217.464H44.7397V219.534H37.4497V227.424ZM48.4278 227.424V215.154H50.7378L50.9478 218.484C51.0678 217.944 51.2978 217.424 51.6378 216.924C51.9978 216.404 52.4878 215.984 53.1078 215.664C53.7478 215.324 54.5578 215.154 55.5378 215.154H56.0478V217.914H55.5078C54.2878 217.914 53.3478 218.074 52.6878 218.394C52.0278 218.694 51.5678 219.144 51.3078 219.744C51.0478 220.324 50.9178 221.044 50.9178 221.904V227.424H48.4278ZM63.6207 227.724C62.2407 227.724 61.1107 227.424 60.2307 226.824C59.3507 226.204 58.7007 225.414 58.2807 224.454C57.8607 223.494 57.6507 222.484 57.6507 221.424C57.6307 220.244 57.8507 219.174 58.3107 218.214C58.7907 217.254 59.4707 216.494 60.3507 215.934C61.2507 215.374 62.3207 215.094 63.5607 215.094C64.6207 215.094 65.5707 215.334 66.4107 215.814C67.2707 216.274 67.9507 216.934 68.4507 217.794C68.9507 218.634 69.2207 219.634 69.2607 220.794C69.2607 220.854 69.2607 220.974 69.2607 221.154C69.2807 221.314 69.2907 221.454 69.2907 221.574H60.0207C60.0207 222.854 60.3307 223.854 60.9507 224.574C61.5907 225.274 62.4707 225.624 63.5907 225.624C64.4307 225.624 65.1407 225.414 65.7207 224.994C66.3207 224.554 66.6907 223.974 66.8307 223.254H69.2607C69.0807 224.534 68.5007 225.604 67.5207 226.464C66.5407 227.304 65.2407 227.724 63.6207 227.724ZM60.1107 220.344H66.7707C66.7507 220.124 66.6907 219.834 66.5907 219.474C66.4907 219.114 66.3207 218.764 66.0807 218.424C65.8607 218.064 65.5407 217.764 65.1207 217.524C64.7007 217.284 64.1607 217.164 63.5007 217.164C62.6807 217.164 62.0307 217.344 61.5507 217.704C61.0907 218.044 60.7407 218.464 60.5007 218.964C60.2807 219.444 60.1507 219.904 60.1107 220.344ZM77.6317 227.724C76.2517 227.724 75.1217 227.424 74.2417 226.824C73.3617 226.204 72.7117 225.414 72.2917 224.454C71.8717 223.494 71.6617 222.484 71.6617 221.424C71.6417 220.244 71.8617 219.174 72.3217 218.214C72.8017 217.254 73.4817 216.494 74.3617 215.934C75.2617 215.374 76.3317 215.094 77.5717 215.094C78.6317 215.094 79.5817 215.334 80.4217 215.814C81.2817 216.274 81.9617 216.934 82.4617 217.794C82.9617 218.634 83.2317 219.634 83.2717 220.794C83.2717 220.854 83.2717 220.974 83.2717 221.154C83.2917 221.314 83.3017 221.454 83.3017 221.574H74.0317C74.0317 222.854 74.3417 223.854 74.9617 224.574C75.6017 225.274 76.4817 225.624 77.6017 225.624C78.4417 225.624 79.1517 225.414 79.7317 224.994C80.3317 224.554 80.7017 223.974 80.8417 223.254H83.2717C83.0917 224.534 82.5117 225.604 81.5317 226.464C80.5517 227.304 79.2517 227.724 77.6317 227.724ZM74.1217 220.344H80.7817C80.7617 220.124 80.7017 219.834 80.6017 219.474C80.5017 219.114 80.3317 218.764 80.0917 218.424C79.8717 218.064 79.5517 217.764 79.1317 217.524C78.7117 217.284 78.1717 217.164 77.5117 217.164C76.6917 217.164 76.0417 217.344 75.5617 217.704C75.1017 218.044 74.7517 218.464 74.5117 218.964C74.2917 219.444 74.1617 219.904 74.1217 220.344ZM93.9388 227.424V210.534H96.4288V225.264H105.279V227.424H93.9388ZM109.261 213.804C108.721 213.824 108.361 213.694 108.181 213.414C108.001 213.134 107.911 212.784 107.911 212.364C107.911 212.004 108.001 211.684 108.181 211.404C108.361 211.124 108.721 210.984 109.261 210.984C109.781 210.984 110.131 211.124 110.311 211.404C110.511 211.684 110.611 212.004 110.611 212.364C110.611 212.784 110.511 213.134 110.311 213.414C110.131 213.674 109.781 213.804 109.261 213.804ZM108.001 227.424V215.154H110.491V227.424H108.001ZM114.673 227.484V216.954H112.873V215.154H114.673V212.784C114.673 211.904 114.863 211.244 115.243 210.804C115.643 210.364 116.273 210.144 117.133 210.144H120.553V212.124H117.163V215.154H120.403V216.954H117.163V227.484H114.673ZM127.852 227.724C126.472 227.724 125.342 227.424 124.462 226.824C123.582 226.204 122.932 225.414 122.512 224.454C122.092 223.494 121.882 222.484 121.882 221.424C121.862 220.244 122.082 219.174 122.542 218.214C123.022 217.254 123.702 216.494 124.582 215.934C125.482 215.374 126.552 215.094 127.792 215.094C128.852 215.094 129.802 215.334 130.642 215.814C131.502 216.274 132.182 216.934 132.682 217.794C133.182 218.634 133.452 219.634 133.492 220.794C133.492 220.854 133.492 220.974 133.492 221.154C133.512 221.314 133.522 221.454 133.522 221.574H124.252C124.252 222.854 124.562 223.854 125.182 224.574C125.822 225.274 126.702 225.624 127.822 225.624C128.662 225.624 129.372 225.414 129.952 224.994C130.552 224.554 130.922 223.974 131.062 223.254H133.492C133.312 224.534 132.732 225.604 131.752 226.464C130.772 227.304 129.472 227.724 127.852 227.724ZM124.342 220.344H131.002C130.982 220.124 130.922 219.834 130.822 219.474C130.722 219.114 130.552 218.764 130.312 218.424C130.092 218.064 129.772 217.764 129.352 217.524C128.932 217.284 128.392 217.164 127.732 217.164C126.912 217.164 126.262 217.344 125.782 217.704C125.322 218.044 124.972 218.464 124.732 218.964C124.512 219.444 124.382 219.904 124.342 220.344ZM142.509 212.694V210.534H155.409V212.694H150.219V227.424H147.729V212.694H142.509ZM158.369 213.804C157.829 213.824 157.469 213.694 157.289 213.414C157.109 213.134 157.019 212.784 157.019 212.364C157.019 212.004 157.109 211.684 157.289 211.404C157.469 211.124 157.829 210.984 158.369 210.984C158.889 210.984 159.239 211.124 159.419 211.404C159.619 211.684 159.719 212.004 159.719 212.364C159.719 212.784 159.619 213.134 159.419 213.414C159.239 213.674 158.889 213.804 158.369 213.804ZM157.109 227.424V215.154H159.599V227.424H157.109ZM162.67 227.424V215.154H164.83L164.89 218.004H164.95C164.99 217.904 165.07 217.704 165.19 217.404C165.33 217.104 165.54 216.784 165.82 216.444C166.12 216.084 166.51 215.784 166.99 215.544C167.47 215.284 168.06 215.154 168.76 215.154C169.82 215.154 170.6 215.444 171.1 216.024C171.62 216.584 171.99 217.244 172.21 218.004H172.27C172.29 217.904 172.38 217.704 172.54 217.404C172.7 217.104 172.93 216.784 173.23 216.444C173.55 216.084 173.96 215.784 174.46 215.544C174.96 215.284 175.57 215.154 176.29 215.154C177.07 215.154 177.7 215.314 178.18 215.634C178.68 215.954 179.06 216.374 179.32 216.894C179.6 217.394 179.79 217.934 179.89 218.514C180.01 219.074 180.08 219.614 180.1 220.134C180.12 220.654 180.13 221.084 180.13 221.424V227.424H178V221.394C178 221.094 177.98 220.724 177.94 220.284C177.92 219.824 177.83 219.374 177.67 218.934C177.53 218.474 177.28 218.104 176.92 217.824C176.58 217.524 176.09 217.374 175.45 217.374C174.69 217.374 174.1 217.574 173.68 217.974C173.26 218.374 172.96 218.904 172.78 219.564C172.6 220.204 172.51 220.874 172.51 221.574V227.424H170.38V221.394C170.38 221.094 170.36 220.724 170.32 220.284C170.3 219.824 170.21 219.374 170.05 218.934C169.91 218.474 169.66 218.104 169.3 217.824C168.96 217.524 168.47 217.374 167.83 217.374C167.07 217.374 166.48 217.574 166.06 217.974C165.64 218.374 165.34 218.904 165.16 219.564C164.98 220.204 164.89 220.874 164.89 221.574V227.424H162.67ZM188.415 227.724C187.035 227.724 185.905 227.424 185.025 226.824C184.145 226.204 183.495 225.414 183.075 224.454C182.655 223.494 182.445 222.484 182.445 221.424C182.425 220.244 182.645 219.174 183.105 218.214C183.585 217.254 184.265 216.494 185.145 215.934C186.045 215.374 187.115 215.094 188.355 215.094C189.415 215.094 190.365 215.334 191.205 215.814C192.065 216.274 192.745 216.934 193.245 217.794C193.745 218.634 194.015 219.634 194.055 220.794C194.055 220.854 194.055 220.974 194.055 221.154C194.075 221.314 194.085 221.454 194.085 221.574H184.815C184.815 222.854 185.125 223.854 185.745 224.574C186.385 225.274 187.265 225.624 188.385 225.624C189.225 225.624 189.935 225.414 190.515 224.994C191.115 224.554 191.485 223.974 191.625 223.254H194.055C193.875 224.534 193.295 225.604 192.315 226.464C191.335 227.304 190.035 227.724 188.415 227.724ZM184.905 220.344H191.565C191.545 220.124 191.485 219.834 191.385 219.474C191.285 219.114 191.115 218.764 190.875 218.424C190.655 218.064 190.335 217.764 189.915 217.524C189.495 217.284 188.955 217.164 188.295 217.164C187.475 217.164 186.825 217.344 186.345 217.704C185.885 218.044 185.535 218.464 185.295 218.964C185.075 219.444 184.945 219.904 184.905 220.344ZM210.962 227.784C209.742 227.784 208.572 227.594 207.452 227.214C206.332 226.814 205.412 226.194 204.692 225.354C203.992 224.494 203.632 223.384 203.612 222.024H206.132C206.132 222.104 206.162 222.334 206.222 222.714C206.302 223.074 206.492 223.474 206.792 223.914C207.112 224.334 207.612 224.704 208.292 225.024C208.972 225.344 209.922 225.504 211.142 225.504C212.122 225.504 212.892 225.364 213.452 225.084C214.032 224.804 214.432 224.474 214.652 224.094C214.892 223.714 215.022 223.374 215.042 223.074C215.042 222.454 214.842 221.954 214.442 221.574C214.062 221.194 213.542 220.894 212.882 220.674C212.222 220.434 211.492 220.224 210.692 220.044C209.912 219.844 209.132 219.634 208.352 219.414C207.572 219.174 206.852 218.864 206.192 218.484C205.552 218.104 205.042 217.614 204.662 217.014C204.302 216.394 204.152 215.604 204.212 214.644C204.272 213.264 204.922 212.184 206.162 211.404C207.422 210.624 209.042 210.234 211.022 210.234C212.182 210.234 213.262 210.444 214.262 210.864C215.262 211.284 216.062 211.914 216.662 212.754C217.262 213.594 217.562 214.644 217.562 215.904H215.132C215.132 215.204 214.982 214.644 214.682 214.224C214.382 213.784 214.002 213.444 213.542 213.204C213.082 212.964 212.602 212.804 212.102 212.724C211.602 212.624 211.152 212.574 210.752 212.574C209.612 212.574 208.672 212.784 207.932 213.204C207.212 213.624 206.852 214.194 206.852 214.914C206.832 215.554 207.022 216.064 207.422 216.444C207.822 216.824 208.352 217.124 209.012 217.344C209.672 217.564 210.392 217.764 211.172 217.944C211.972 218.124 212.762 218.324 213.542 218.544C214.342 218.764 215.062 219.064 215.702 219.444C216.362 219.804 216.872 220.304 217.232 220.944C217.612 221.564 217.782 222.354 217.742 223.314C217.682 224.254 217.352 225.064 216.752 225.744C216.172 226.404 215.382 226.914 214.382 227.274C213.382 227.614 212.242 227.784 210.962 227.784ZM224.823 227.724C223.783 227.724 222.953 227.534 222.333 227.154C221.733 226.754 221.283 226.234 220.983 225.594C220.703 224.954 220.513 224.274 220.413 223.554C220.333 222.834 220.293 222.134 220.293 221.454V215.154H222.753V221.454C222.753 222.174 222.823 222.844 222.963 223.464C223.103 224.084 223.383 224.584 223.803 224.964C224.243 225.324 224.903 225.504 225.783 225.504C226.623 225.504 227.273 225.314 227.733 224.934C228.193 224.554 228.513 224.064 228.693 223.464C228.893 222.864 229.003 222.234 229.023 221.574L229.053 215.154H231.603V227.424H229.473L229.053 224.874H228.993C228.913 225.134 228.723 225.494 228.423 225.954C228.123 226.394 227.683 226.804 227.103 227.184C226.523 227.544 225.763 227.724 224.823 227.724ZM241.537 227.724C240.757 227.724 240.097 227.604 239.557 227.364C239.037 227.104 238.607 226.804 238.267 226.464C237.947 226.124 237.707 225.814 237.547 225.534C237.407 225.234 237.317 225.044 237.277 224.964H237.217V232.674H234.667V215.154H236.827L237.247 218.034H237.307C237.327 217.954 237.407 217.764 237.547 217.464C237.687 217.164 237.917 216.834 238.237 216.474C238.557 216.114 238.977 215.804 239.497 215.544C240.037 215.284 240.707 215.154 241.507 215.154C243.307 215.154 244.637 215.744 245.497 216.924C246.357 218.104 246.787 219.624 246.787 221.484C246.787 223.344 246.347 224.854 245.467 226.014C244.607 227.154 243.297 227.724 241.537 227.724ZM240.877 225.564C241.757 225.564 242.447 225.374 242.947 224.994C243.467 224.594 243.827 224.084 244.027 223.464C244.247 222.824 244.357 222.154 244.357 221.454C244.357 220.774 244.237 220.124 243.997 219.504C243.777 218.884 243.397 218.384 242.857 218.004C242.337 217.604 241.637 217.404 240.757 217.404C239.597 217.404 238.727 217.784 238.147 218.544C237.567 219.284 237.277 220.254 237.277 221.454C237.277 222.694 237.577 223.694 238.177 224.454C238.797 225.194 239.697 225.564 240.877 225.564ZM256.368 227.724C255.588 227.724 254.928 227.604 254.388 227.364C253.868 227.104 253.438 226.804 253.098 226.464C252.778 226.124 252.538 225.814 252.378 225.534C252.238 225.234 252.148 225.044 252.108 224.964H252.048V232.674H249.498V215.154H251.658L252.078 218.034H252.138C252.158 217.954 252.238 217.764 252.378 217.464C252.518 217.164 252.748 216.834 253.068 216.474C253.388 216.114 253.808 215.804 254.328 215.544C254.868 215.284 255.538 215.154 256.338 215.154C258.138 215.154 259.468 215.744 260.328 216.924C261.188 218.104 261.618 219.624 261.618 221.484C261.618 223.344 261.178 224.854 260.298 226.014C259.438 227.154 258.128 227.724 256.368 227.724ZM255.708 225.564C256.588 225.564 257.278 225.374 257.778 224.994C258.298 224.594 258.658 224.084 258.858 223.464C259.078 222.824 259.188 222.154 259.188 221.454C259.188 220.774 259.068 220.124 258.828 219.504C258.608 218.884 258.228 218.384 257.688 218.004C257.168 217.604 256.468 217.404 255.588 217.404C254.428 217.404 253.558 217.784 252.978 218.544C252.398 219.284 252.108 220.254 252.108 221.454C252.108 222.694 252.408 223.694 253.008 224.454C253.628 225.194 254.528 225.564 255.708 225.564ZM269.639 227.724C267.599 227.724 266.079 227.134 265.079 225.954C264.079 224.774 263.579 223.274 263.579 221.454C263.559 219.614 264.059 218.104 265.079 216.924C266.099 215.744 267.619 215.144 269.639 215.124C271.599 215.124 273.089 215.704 274.109 216.864C275.129 218.024 275.639 219.554 275.639 221.454C275.639 222.634 275.419 223.704 274.979 224.664C274.559 225.604 273.899 226.354 272.999 226.914C272.119 227.454 270.999 227.724 269.639 227.724ZM269.639 225.594C270.599 225.594 271.329 225.384 271.829 224.964C272.349 224.544 272.709 224.014 272.909 223.374C273.109 222.714 273.209 222.044 273.209 221.364C273.209 220.684 273.109 220.024 272.909 219.384C272.709 218.724 272.349 218.184 271.829 217.764C271.329 217.324 270.599 217.104 269.639 217.104C268.659 217.104 267.909 217.324 267.389 217.764C266.869 218.184 266.509 218.724 266.309 219.384C266.109 220.024 266.009 220.684 266.009 221.364C266.009 222.044 266.109 222.714 266.309 223.374C266.509 224.014 266.869 224.544 267.389 224.964C267.909 225.384 268.659 225.594 269.639 225.594ZM278.425 227.424V215.154H280.735L280.945 218.484C281.065 217.944 281.295 217.424 281.635 216.924C281.995 216.404 282.485 215.984 283.105 215.664C283.745 215.324 284.555 215.154 285.535 215.154H286.045V217.914H285.505C284.285 217.914 283.345 218.074 282.685 218.394C282.025 218.694 281.565 219.144 281.305 219.744C281.045 220.324 280.915 221.044 280.915 221.904V227.424H278.425ZM292.25 227.424C291.39 227.424 290.76 227.204 290.36 226.764C289.98 226.324 289.79 225.654 289.79 224.754V216.954H287.9V215.154C288.52 215.154 288.98 215.104 289.28 215.004C289.6 214.884 289.81 214.604 289.91 214.164C290.03 213.704 290.09 212.984 290.09 212.004H292.16V215.154H294.98V216.954H292.16V225.444H295.01V227.424H292.25Z" fill="#00668B"/>
</svg>
