<svg width="17" height="17" viewBox="0 0 17 17" fill="none" xmlns="http://www.w3.org/2000/svg">
<path fill-rule="evenodd" clip-rule="evenodd" d="M3.88559 0.827549C4.10456 0.824421 4.34854 0.840061 4.433 0.85883C4.51433 0.877598 4.69889 0.927647 4.84591 0.97144C4.99292 1.0121 5.2244 1.10282 5.36203 1.16851C5.49967 1.2342 5.72489 1.37183 5.86252 1.47506C6.00016 1.57515 6.15969 1.71279 6.21599 1.77535C6.26917 1.83791 6.3286 1.94114 6.34737 2.0037C6.36614 2.08503 6.36614 2.16323 6.34424 2.24769C6.31609 2.35091 6.16907 2.51357 4.58002 4.10888L5.20563 4.74387L5.48716 4.57496C5.64043 4.48425 5.90319 4.34661 6.06585 4.27154C6.22851 4.19334 6.52567 4.0776 6.72274 4.01191C6.91981 3.94622 7.22323 3.86489 7.39527 3.83048C7.56731 3.79607 7.8113 3.75541 8.16164 3.71787V2.76381H7.87386C7.633 2.76069 7.56106 2.7513 7.46096 2.69187C7.39214 2.6512 7.31707 2.573 7.28266 2.50419C7.25138 2.44163 7.22323 2.34466 7.22323 2.29461C7.22323 2.24456 7.25138 2.14446 7.28579 2.07564C7.3275 1.99223 7.39006 1.92967 7.47347 1.88796C7.59234 1.82853 7.66115 1.8254 8.63085 1.8254C9.60055 1.8254 9.66937 1.82853 9.78823 1.88796C9.87165 1.92967 9.93421 1.99223 9.97591 2.07564C10.0103 2.14446 10.0385 2.24456 10.0385 2.29461C10.0385 2.34466 10.0103 2.44475 9.97591 2.51357C9.93421 2.59699 9.87165 2.65955 9.78823 2.70125C9.69126 2.7513 9.60055 2.76381 9.10006 2.76381V3.71787L9.32528 3.7429C9.4504 3.75541 9.69439 3.79607 9.86643 3.83048C10.0385 3.86489 10.3482 3.94935 10.5546 4.01816C10.7611 4.08698 11.0645 4.20585 11.2271 4.28405C11.3898 4.36225 11.6432 4.49676 12.0561 4.74387L12.6817 4.10888L11.8152 3.24241C11.0926 2.51357 10.9456 2.35091 10.9175 2.24769C10.8956 2.1601 10.8956 2.08503 10.9175 1.99744C10.9425 1.90673 11.005 1.81914 11.1489 1.68464C11.2584 1.58141 11.4711 1.41875 11.6213 1.32491C11.7745 1.23107 12.0248 1.10595 12.1812 1.04651C12.3345 0.990208 12.5534 0.921391 12.666 0.893238C12.7787 0.868214 13.0539 0.840061 13.276 0.833805C13.52 0.824421 13.7515 0.833805 13.8547 0.855701C13.9485 0.87447 14.18 0.940159 14.3708 0.999592C14.5616 1.05903 14.8275 1.17164 14.9652 1.24984C15.1028 1.32804 15.3061 1.46567 15.4187 1.55639C15.5313 1.6471 15.7003 1.80663 15.7941 1.91298C15.8879 2.01934 16.0443 2.23205 16.1382 2.38219C16.2352 2.53234 16.3603 2.77946 16.4166 2.93586C16.4729 3.09226 16.5448 3.3425 16.5792 3.49891C16.6168 3.67408 16.6387 3.90243 16.6387 4.10262C16.6387 4.29031 16.6136 4.54055 16.5792 4.71259C16.548 4.869 16.4729 5.12862 16.4166 5.2819C16.3571 5.4383 16.232 5.68855 16.1382 5.83869C16.0443 5.98884 15.8817 6.20468 15.7785 6.31416C15.6408 6.45805 15.5564 6.52061 15.4657 6.54563C15.3781 6.56753 15.303 6.56753 15.2154 6.54563C15.1122 6.51748 14.9495 6.37046 13.3542 4.78141L12.7943 5.34446L13.0414 5.60409C13.179 5.74485 13.3949 5.99822 13.52 6.16401C13.6451 6.33293 13.8266 6.61132 13.9235 6.78337C14.0236 6.95541 14.1613 7.23068 14.2301 7.39334C14.302 7.55599 14.4084 7.84378 14.4647 8.03459C14.521 8.2254 14.5992 8.54759 14.6367 8.75404C14.6711 8.96049 14.7087 9.33273 14.7212 9.58297C14.7306 9.85511 14.7243 10.1742 14.7024 10.3806C14.6805 10.5714 14.6367 10.8655 14.5992 11.0375C14.5648 11.2096 14.4834 11.513 14.4178 11.7101C14.3552 11.9071 14.2395 12.2043 14.1613 12.3669C14.0862 12.5296 13.9548 12.7767 13.8703 12.9144C13.7859 13.052 13.6264 13.2928 13.5106 13.4461C13.398 13.5994 13.1822 13.8559 13.0352 14.0092C12.8881 14.1624 12.6723 14.3689 12.5534 14.4659C12.4346 14.5628 12.2312 14.7192 12.0999 14.81C11.9685 14.9038 11.834 14.9945 11.8027 15.0164C11.7495 15.0477 11.7902 15.1009 12.25 15.5638C12.5253 15.8422 12.7755 16.1206 12.8037 16.1769C12.8318 16.2301 12.8537 16.3208 12.8537 16.3709C12.8537 16.4209 12.8287 16.5179 12.7943 16.5836C12.763 16.6461 12.6848 16.7306 12.6222 16.7712C12.5566 16.8119 12.4596 16.8401 12.3845 16.8401C12.3157 16.8401 12.2219 16.8182 12.1718 16.7869C12.1249 16.7587 11.8058 16.4584 10.8361 15.4981L10.492 15.6076C10.3012 15.667 10.0135 15.7421 9.85079 15.7734C9.68813 15.8078 9.38471 15.8516 9.17826 15.8735C8.94991 15.8954 8.64336 15.9016 8.39625 15.8923C8.17103 15.8797 7.85509 15.8516 7.69244 15.8234C7.52978 15.7984 7.25451 15.7421 7.08246 15.6952C6.91042 15.6514 6.69146 15.5857 6.42557 15.4887L5.79996 16.1112C5.45588 16.4553 5.13681 16.7587 5.08677 16.7869C5.03984 16.8182 4.946 16.8401 4.87719 16.8401C4.80211 16.8401 4.70514 16.8119 4.63945 16.7712C4.57689 16.7306 4.49869 16.6461 4.46741 16.5836C4.433 16.5179 4.40798 16.4209 4.40798 16.3709C4.40798 16.3208 4.43613 16.2238 4.46741 16.1613C4.50182 16.0956 4.74894 15.8234 5.01482 15.5576C5.28383 15.2917 5.5028 15.0665 5.5028 15.0571C5.5028 15.0477 5.41521 14.9851 5.30886 14.9132C5.19938 14.8444 4.97103 14.6754 4.79898 14.5347C4.62694 14.397 4.36731 14.1593 4.22342 14.006C4.0764 13.8528 3.85744 13.5931 3.73545 13.4305C3.61345 13.2678 3.43515 12.9926 3.33818 12.8205C3.23809 12.6485 3.10045 12.3732 3.03163 12.2105C2.95969 12.0479 2.85333 11.7507 2.7939 11.5536C2.73134 11.3566 2.65314 11.0313 2.61873 10.8342C2.56243 10.5402 2.55304 10.3556 2.55304 9.80194C2.55304 9.25766 2.56555 9.06059 2.61873 8.76968C2.65314 8.57261 2.73134 8.24729 2.7939 8.05023C2.85333 7.85316 2.95969 7.55599 3.03163 7.39334C3.10045 7.23068 3.23809 6.95541 3.33818 6.78337C3.43515 6.61132 3.61658 6.33293 3.7417 6.16401C3.86682 5.99822 4.08266 5.74485 4.46741 5.34446L3.90749 4.78141L3.04102 5.64788C2.31531 6.37046 2.14952 6.51748 2.0463 6.54563C1.95871 6.56753 1.88364 6.56753 1.79605 6.54563C1.71159 6.52374 1.61775 6.45805 1.50514 6.34231C1.41756 6.24847 1.26115 6.0514 1.16419 5.90125C1.06409 5.74798 0.942093 5.51963 0.885788 5.39138C0.832611 5.26313 0.75441 5.02853 0.713745 4.87525C0.651184 4.63752 0.638672 4.52178 0.638672 4.10888C0.638672 3.6991 0.651184 3.58024 0.713745 3.3425C0.75441 3.1861 0.838867 2.94211 0.901428 2.7951C0.96399 2.64808 1.09224 2.4166 1.18608 2.27897C1.2768 2.14133 1.46135 1.92237 1.5896 1.79099C1.72098 1.65961 1.96184 1.46567 2.1245 1.35932C2.28716 1.25296 2.53427 1.12471 2.67191 1.07154C2.80954 1.01836 3.01287 0.952671 3.12548 0.927647C3.23809 0.902622 3.36321 0.868214 3.407 0.855701C3.45079 0.840061 3.6635 0.827549 3.88246 0.827549H3.88559ZM8.22108 6.77398C8.17416 6.86782 8.1679 7.02423 8.1679 8.39431C8.1679 9.90516 8.1679 9.91142 8.23672 10.0272C8.27425 10.0928 8.35558 10.1742 8.41502 10.2086C8.51824 10.2649 8.59019 10.268 10.0416 10.268C11.493 10.268 11.565 10.2649 11.6682 10.2086C11.7276 10.1742 11.809 10.0928 11.8465 10.0272C11.884 9.9646 11.9153 9.8645 11.9184 9.81132C11.9184 9.75502 11.8903 9.65179 11.8559 9.58297C11.8142 9.49956 11.7516 9.437 11.6682 9.39529C11.5493 9.33586 11.4805 9.33273 10.3231 9.33273H9.10319C9.10319 6.95541 9.10006 6.88659 9.04063 6.76772C8.99892 6.68431 8.93636 6.62175 8.85294 6.58004C8.78413 6.54563 8.6809 6.51748 8.62772 6.51748C8.57142 6.51748 8.46819 6.55189 8.39938 6.59568C8.33056 6.63635 8.24923 6.71768 8.22108 6.77398Z" fill="#133063"/>
</svg>
