<svg width="1575" height="320" viewBox="0 0 1575 320" fill="none" xmlns="http://www.w3.org/2000/svg">
<path d="M512.069 23L516.227 10.614H519.241L523.487 23H521.529L520.341 19.304H515.193L514.005 23H512.069ZM517.767 11.384L515.677 17.852H519.857L517.767 11.384ZM529.509 23V10.614H534.195C534.679 10.614 535.2 10.6507 535.757 10.724C536.314 10.7827 536.835 10.922 537.319 11.142C537.803 11.3473 538.199 11.67 538.507 12.11C538.815 12.55 538.969 13.144 538.969 13.892C538.969 14.3613 538.874 14.8013 538.683 15.212C538.507 15.608 538.177 15.9307 537.693 16.18C537.209 16.4293 536.52 16.5687 535.625 16.598V16.686C536.666 16.7007 537.466 16.8473 538.023 17.126C538.595 17.4047 538.991 17.7713 539.211 18.226C539.431 18.666 539.541 19.1573 539.541 19.7C539.541 20.4773 539.372 21.086 539.035 21.526C538.698 21.966 538.265 22.296 537.737 22.516C537.209 22.7213 536.644 22.8533 536.043 22.912C535.456 22.9707 534.899 23 534.371 23H529.509ZM531.313 15.894H533.975C534.576 15.894 535.112 15.8647 535.581 15.806C536.065 15.7327 536.446 15.564 536.725 15.3C537.004 15.036 537.143 14.6253 537.143 14.068C537.143 13.4667 536.996 13.034 536.703 12.77C536.41 12.4913 536.021 12.3153 535.537 12.242C535.053 12.1687 534.54 12.132 533.997 12.132H531.313V15.894ZM531.313 21.504H534.217C534.848 21.504 535.42 21.4673 535.933 21.394C536.446 21.306 536.857 21.1227 537.165 20.844C537.488 20.5507 537.649 20.096 537.649 19.48C537.649 18.8493 537.48 18.38 537.143 18.072C536.82 17.764 536.38 17.566 535.823 17.478C535.28 17.3753 534.686 17.324 534.041 17.324H531.313V21.504ZM551.241 23.308C549.261 23.308 547.751 22.7287 546.709 21.57C545.668 20.3967 545.147 18.82 545.147 16.84C545.147 15.5347 545.367 14.4053 545.807 13.452C546.262 12.484 546.937 11.736 547.831 11.208C548.741 10.6653 549.877 10.394 551.241 10.394C553.221 10.394 554.725 10.9807 555.751 12.154C556.793 13.3127 557.313 14.8747 557.313 16.84C557.313 18.116 557.079 19.2453 556.609 20.228C556.155 21.196 555.473 21.9513 554.563 22.494C553.669 23.0367 552.561 23.308 551.241 23.308ZM551.219 21.548C552.642 21.548 553.713 21.108 554.431 20.228C555.15 19.348 555.509 18.2187 555.509 16.84C555.509 15.4613 555.15 14.332 554.431 13.452C553.727 12.5573 552.657 12.11 551.219 12.11C549.811 12.11 548.741 12.5353 548.007 13.386C547.289 14.2367 546.929 15.388 546.929 16.84C546.929 17.7493 547.083 18.5633 547.391 19.282C547.699 19.986 548.169 20.5433 548.799 20.954C549.445 21.35 550.251 21.548 551.219 21.548ZM569.023 23.308C567.322 23.308 566.017 22.824 565.107 21.856C564.213 20.8733 563.765 19.4947 563.765 17.72V10.614H565.679V17.698C565.679 18.6513 565.833 19.414 566.141 19.986C566.449 20.5433 566.853 20.9467 567.351 21.196C567.865 21.4453 568.422 21.57 569.023 21.57C569.683 21.57 570.263 21.4527 570.761 21.218C571.275 20.9687 571.671 20.5653 571.949 20.008C572.243 19.436 572.389 18.666 572.389 17.698V10.614H574.303V17.72C574.303 19.524 573.856 20.91 572.961 21.878C572.081 22.8313 570.769 23.308 569.023 23.308ZM580.11 12.198V10.614H589.57V12.198H585.764V23H583.938V12.198H580.11ZM607.601 23V18.556L603.377 10.614H605.423L608.547 16.906L611.649 10.614H613.695L609.427 18.534V23H607.601ZM624.353 23.308C622.373 23.308 620.862 22.7287 619.821 21.57C618.779 20.3967 618.259 18.82 618.259 16.84C618.259 15.5347 618.479 14.4053 618.919 13.452C619.373 12.484 620.048 11.736 620.943 11.208C621.852 10.6653 622.989 10.394 624.353 10.394C626.333 10.394 627.836 10.9807 628.863 12.154C629.904 13.3127 630.425 14.8747 630.425 16.84C630.425 18.116 630.19 19.2453 629.721 20.228C629.266 21.196 628.584 21.9513 627.675 22.494C626.78 23.0367 625.673 23.308 624.353 23.308ZM624.331 21.548C625.753 21.548 626.824 21.108 627.543 20.228C628.261 19.348 628.621 18.2187 628.621 16.84C628.621 15.4613 628.261 14.332 627.543 13.452C626.839 12.5573 625.768 12.11 624.331 12.11C622.923 12.11 621.852 12.5353 621.119 13.386C620.4 14.2367 620.041 15.388 620.041 16.84C620.041 17.7493 620.195 18.5633 620.503 19.282C620.811 19.986 621.28 20.5433 621.911 20.954C622.556 21.35 623.363 21.548 624.331 21.548ZM642.135 23.308C640.433 23.308 639.128 22.824 638.219 21.856C637.324 20.8733 636.877 19.4947 636.877 17.72V10.614H638.791V17.698C638.791 18.6513 638.945 19.414 639.253 19.986C639.561 20.5433 639.964 20.9467 640.463 21.196C640.976 21.4453 641.533 21.57 642.135 21.57C642.795 21.57 643.374 21.4527 643.873 21.218C644.386 20.9687 644.782 20.5653 645.061 20.008C645.354 19.436 645.501 18.666 645.501 17.698V10.614H647.415V17.72C647.415 19.524 646.967 20.91 646.073 21.878C645.193 22.8313 643.88 23.308 642.135 23.308ZM654.299 23V10.614H658.633C660.217 10.614 661.442 10.878 662.307 11.406C663.187 11.9193 663.627 12.8507 663.627 14.2C663.627 15.1387 663.385 15.9233 662.901 16.554C662.432 17.1847 661.721 17.5 660.767 17.5C661.339 17.5 661.765 17.6247 662.043 17.874C662.322 18.1233 662.513 18.4387 662.615 18.82C662.718 19.1867 662.784 19.568 662.813 19.964C662.843 20.36 662.887 20.7193 662.945 21.042C663.004 21.3647 663.121 21.5993 663.297 21.746C663.473 21.878 663.774 21.8633 664.199 21.702V22.802C663.994 22.978 663.723 23.0953 663.385 23.154C663.063 23.2273 662.74 23.2053 662.417 23.088C662.095 22.9853 661.816 22.7653 661.581 22.428C661.361 22.076 661.251 21.57 661.251 20.91C661.251 20.1327 661.207 19.524 661.119 19.084C661.031 18.644 660.826 18.3213 660.503 18.116C660.181 17.9107 659.675 17.7933 658.985 17.764C658.296 17.72 657.35 17.72 656.147 17.764V23H654.299ZM656.147 16.4H658.699C659.447 16.4 660.063 16.356 660.547 16.268C661.031 16.1653 661.391 15.9673 661.625 15.674C661.875 15.3807 661.999 14.9333 661.999 14.332C661.999 13.6427 661.853 13.144 661.559 12.836C661.266 12.528 660.833 12.3373 660.261 12.264C659.704 12.176 659.022 12.132 658.215 12.132H656.147V16.4ZM682.053 23H680.249V10.614H688.939V12.198H682.053V15.696H687.399V17.214H682.053V23ZM692.916 23L697.074 10.614H700.088L704.334 23H702.376L701.188 19.304H696.04L694.852 23H692.916ZM698.614 11.384L696.524 17.852H700.704L698.614 11.384ZM717.576 10.614H719.578L715.354 23H712.296L708.072 10.614H710.052L713.814 22.186L717.576 10.614ZM730.735 23.308C728.755 23.308 727.244 22.7287 726.203 21.57C725.161 20.3967 724.641 18.82 724.641 16.84C724.641 15.5347 724.861 14.4053 725.301 13.452C725.755 12.484 726.43 11.736 727.325 11.208C728.234 10.6653 729.371 10.394 730.735 10.394C732.715 10.394 734.218 10.9807 735.245 12.154C736.286 13.3127 736.807 14.8747 736.807 16.84C736.807 18.116 736.572 19.2453 736.103 20.228C735.648 21.196 734.966 21.9513 734.057 22.494C733.162 23.0367 732.055 23.308 730.735 23.308ZM730.713 21.548C732.135 21.548 733.206 21.108 733.925 20.228C734.643 19.348 735.003 18.2187 735.003 16.84C735.003 15.4613 734.643 14.332 733.925 13.452C733.221 12.5573 732.15 12.11 730.713 12.11C729.305 12.11 728.234 12.5353 727.501 13.386C726.782 14.2367 726.423 15.388 726.423 16.84C726.423 17.7493 726.577 18.5633 726.885 19.282C727.193 19.986 727.662 20.5433 728.293 20.954C728.938 21.35 729.745 21.548 730.713 21.548ZM743.283 23V10.614H747.617C749.201 10.614 750.426 10.878 751.291 11.406C752.171 11.9193 752.611 12.8507 752.611 14.2C752.611 15.1387 752.369 15.9233 751.885 16.554C751.416 17.1847 750.705 17.5 749.751 17.5C750.323 17.5 750.749 17.6247 751.027 17.874C751.306 18.1233 751.497 18.4387 751.599 18.82C751.702 19.1867 751.768 19.568 751.797 19.964C751.827 20.36 751.871 20.7193 751.929 21.042C751.988 21.3647 752.105 21.5993 752.281 21.746C752.457 21.878 752.758 21.8633 753.183 21.702V22.802C752.978 22.978 752.707 23.0953 752.369 23.154C752.047 23.2273 751.724 23.2053 751.401 23.088C751.079 22.9853 750.8 22.7653 750.565 22.428C750.345 22.076 750.235 21.57 750.235 20.91C750.235 20.1327 750.191 19.524 750.103 19.084C750.015 18.644 749.81 18.3213 749.487 18.116C749.165 17.9107 748.659 17.7933 747.969 17.764C747.28 17.72 746.334 17.72 745.131 17.764V23H743.283ZM745.131 16.4H747.683C748.431 16.4 749.047 16.356 749.531 16.268C750.015 16.1653 750.375 15.9673 750.609 15.674C750.859 15.3807 750.983 14.9333 750.983 14.332C750.983 13.6427 750.837 13.144 750.543 12.836C750.25 12.528 749.817 12.3373 749.245 12.264C748.688 12.176 748.006 12.132 747.199 12.132H745.131V16.4ZM764.799 21.416V23H759.629V21.416H761.323V12.198H759.629V10.614H764.799V12.198H763.127V21.416H764.799ZM770.878 12.198V10.614H780.338V12.198H776.532V23H774.706V12.198H770.878ZM788.342 21.504H795.338V23H786.538V10.614H795.118V12.198H788.342V15.96H793.622V17.478H788.342V21.504ZM816.519 23.22C815.375 23.22 814.334 22.9853 813.395 22.516C812.471 22.032 811.738 21.3207 811.195 20.382C810.667 19.4287 810.403 18.248 810.403 16.84C810.418 15.4467 810.689 14.2733 811.217 13.32C811.745 12.352 812.471 11.626 813.395 11.142C814.334 10.6433 815.404 10.394 816.607 10.394C818.206 10.394 819.496 10.8193 820.479 11.67C821.462 12.5207 822.07 13.6353 822.305 15.014H820.413C820.296 14.31 820.039 13.7453 819.643 13.32C819.262 12.8947 818.8 12.5867 818.257 12.396C817.729 12.2053 817.179 12.11 816.607 12.11C815.214 12.11 814.136 12.5133 813.373 13.32C812.61 14.112 812.229 15.2487 812.229 16.73C812.229 18.2847 812.603 19.4727 813.351 20.294C814.099 21.1007 815.162 21.504 816.541 21.504C817.494 21.504 818.345 21.2767 819.093 20.822C819.841 20.3527 820.303 19.5973 820.479 18.556H822.393C822.144 19.9347 821.528 21.0567 820.545 21.922C819.562 22.7873 818.22 23.22 816.519 23.22ZM828.919 23V10.614H830.745V21.416H837.235V23H828.919ZM845.215 21.504H852.211V23H843.411V10.614H851.991V12.198H845.215V15.96H850.495V17.478H845.215V21.504ZM857.805 23L861.963 10.614H864.977L869.223 23H867.265L866.077 19.304H860.929L859.741 23H857.805ZM863.503 11.384L861.413 17.852H865.593L863.503 11.384ZM883.89 10.614H885.76V23H882.306L877.092 11.428H877.048V23H875.178V10.614H878.412L883.846 22.186H883.89V10.614ZM897.899 21.416V23H892.729V21.416H894.423V12.198H892.729V10.614H897.899V12.198H896.227V21.416H897.899ZM913.68 10.614H915.55V23H912.096L906.882 11.428H906.838V23H904.968V10.614H908.202L913.636 22.186H913.68V10.614ZM927.623 23.264C926.42 23.264 925.372 23.0147 924.477 22.516C923.597 22.0173 922.915 21.2987 922.431 20.36C921.947 19.4067 921.712 18.2407 921.727 16.862C921.742 15.4833 922.006 14.3173 922.519 13.364C923.047 12.396 923.773 11.6627 924.697 11.164C925.621 10.6507 926.699 10.394 927.931 10.394C929.544 10.394 930.82 10.7607 931.759 11.494C932.698 12.2127 933.314 13.2687 933.607 14.662L931.847 14.904C931.612 13.9067 931.136 13.1953 930.417 12.77C929.698 12.33 928.87 12.11 927.931 12.11C926.435 12.11 925.328 12.528 924.609 13.364C923.905 14.1853 923.538 15.3147 923.509 16.752C923.509 18.2627 923.905 19.436 924.697 20.272C925.504 21.0933 926.633 21.504 928.085 21.504C929.082 21.504 929.948 21.2547 930.681 20.756C931.414 20.2427 931.869 19.458 932.045 18.402H928.987V17.016H933.849V23H932.595L932.177 20.558H932.133C931.986 20.9393 931.73 21.3427 931.363 21.768C931.011 22.1787 930.52 22.5307 929.889 22.824C929.273 23.1173 928.518 23.264 927.623 23.264ZM955.183 23.22C954.039 23.22 952.998 22.9853 952.059 22.516C951.135 22.032 950.402 21.3207 949.859 20.382C949.331 19.4287 949.067 18.248 949.067 16.84C949.082 15.4467 949.353 14.2733 949.881 13.32C950.409 12.352 951.135 11.626 952.059 11.142C952.998 10.6433 954.069 10.394 955.271 10.394C956.87 10.394 958.161 10.8193 959.143 11.67C960.126 12.5207 960.735 13.6353 960.969 15.014H959.077C958.96 14.31 958.703 13.7453 958.307 13.32C957.926 12.8947 957.464 12.5867 956.921 12.396C956.393 12.2053 955.843 12.11 955.271 12.11C953.878 12.11 952.8 12.5133 952.037 13.32C951.275 14.112 950.893 15.2487 950.893 16.73C950.893 18.2847 951.267 19.4727 952.015 20.294C952.763 21.1007 953.827 21.504 955.205 21.504C956.159 21.504 957.009 21.2767 957.757 20.822C958.505 20.3527 958.967 19.5973 959.143 18.556H961.057C960.808 19.9347 960.192 21.0567 959.209 21.922C958.227 22.7873 956.885 23.22 955.183 23.22ZM972.687 23.308C970.707 23.308 969.197 22.7287 968.155 21.57C967.114 20.3967 966.593 18.82 966.593 16.84C966.593 15.5347 966.813 14.4053 967.253 13.452C967.708 12.484 968.383 11.736 969.277 11.208C970.187 10.6653 971.323 10.394 972.687 10.394C974.667 10.394 976.171 10.9807 977.197 12.154C978.239 13.3127 978.759 14.8747 978.759 16.84C978.759 18.116 978.525 19.2453 978.055 20.228C977.601 21.196 976.919 21.9513 976.009 22.494C975.115 23.0367 974.007 23.308 972.687 23.308ZM972.665 21.548C974.088 21.548 975.159 21.108 975.877 20.228C976.596 19.348 976.955 18.2187 976.955 16.84C976.955 15.4613 976.596 14.332 975.877 13.452C975.173 12.5573 974.103 12.11 972.665 12.11C971.257 12.11 970.187 12.5353 969.453 13.386C968.735 14.2367 968.375 15.388 968.375 16.84C968.375 17.7493 968.529 18.5633 968.837 19.282C969.145 19.986 969.615 20.5433 970.245 20.954C970.891 21.35 971.697 21.548 972.665 21.548ZM985.214 23V10.614H988.382L991.858 22.186H991.902L995.312 10.614H998.48V23H996.61L996.72 11.472H996.676L993.2 23H990.494L987.04 11.472H986.996L987.084 23H985.214ZM1007.3 23H1005.47V10.614H1010.31C1011.67 10.614 1012.73 10.9513 1013.48 11.626C1014.23 12.3007 1014.6 13.3127 1014.6 14.662C1014.6 15.8793 1014.21 16.8253 1013.43 17.5C1012.67 18.1747 1011.63 18.512 1010.31 18.512H1007.3V23ZM1010.09 12.132H1007.3V17.126H1010.09C1010.97 17.126 1011.66 16.9207 1012.16 16.51C1012.67 16.0993 1012.93 15.476 1012.93 14.64C1012.93 13.7747 1012.68 13.144 1012.18 12.748C1011.68 12.3373 1010.99 12.132 1010.09 12.132ZM1019.62 23L1023.78 10.614H1026.8L1031.04 23H1029.08L1027.9 19.304H1022.75L1021.56 23H1019.62ZM1025.32 11.384L1023.23 17.852H1027.41L1025.32 11.384ZM1045.71 10.614H1047.58V23H1044.13L1038.91 11.428H1038.87V23H1037V10.614H1040.23L1045.67 22.186H1045.71V10.614ZM1057.53 23V18.556L1053.31 10.614H1055.35L1058.48 16.906L1061.58 10.614H1063.62L1059.36 18.534V23H1057.53Z" fill="url(#paint0_linear_362_10)"/>
<path d="M330.71 90L343.022 49.464H357.35L370.022 90H360.734L357.71 79.2H343.022L340.07 90H330.71ZM350.366 53.064L344.894 72.504H355.838L350.366 53.064ZM389.972 90V49.464H405.668C410.948 49.464 415.076 50.376 418.052 52.2C421.076 53.976 422.588 57.096 422.588 61.56C422.588 65.016 421.772 67.752 420.14 69.768C418.556 71.784 416.348 72.792 413.516 72.792C415.004 72.792 416.132 73.152 416.9 73.872C417.668 74.544 418.196 75.384 418.484 76.392C418.82 77.4 419.06 78.456 419.204 79.56C419.396 80.616 419.636 81.576 419.924 82.44C420.212 83.256 420.692 83.832 421.364 84.168C422.084 84.456 423.14 84.312 424.532 83.736V88.56C423.428 89.52 422.156 90.144 420.716 90.432C419.276 90.768 417.884 90.696 416.54 90.216C415.196 89.736 414.068 88.8 413.156 87.408C412.292 85.968 411.86 84 411.86 81.504C411.86 79.872 411.74 78.504 411.5 77.4C411.308 76.296 410.804 75.432 409.988 74.808C409.172 74.184 407.876 73.776 406.1 73.584C404.324 73.392 401.852 73.392 398.684 73.584V90H389.972ZM398.684 67.392H404.876C407.132 67.392 408.98 67.32 410.42 67.176C411.908 67.032 413.012 66.624 413.732 65.952C414.452 65.232 414.812 64.008 414.812 62.28C414.812 60.312 414.38 58.944 413.516 58.176C412.652 57.36 411.356 56.88 409.628 56.736C407.948 56.592 405.884 56.52 403.436 56.52H398.684V67.392ZM439.178 83.016H461.21V90H430.682V49.464H460.49V56.88H439.178V65.952H455.306V73.008H439.178V83.016ZM484.661 90.792C480.677 90.792 477.197 90 474.221 88.416C471.245 86.832 468.941 84.504 467.309 81.432C465.725 78.312 464.981 74.496 465.077 69.984C465.173 65.376 466.133 61.512 467.957 58.392C469.781 55.224 472.229 52.824 475.301 51.192C478.421 49.56 481.997 48.744 486.029 48.744C491.741 48.744 496.109 49.944 499.133 52.344C502.157 54.744 504.197 58.224 505.253 62.784L496.829 64.08C496.397 62.256 495.605 60.816 494.453 59.76C493.349 58.704 492.053 57.96 490.565 57.528C489.077 57.096 487.565 56.88 486.029 56.88C481.709 56.88 478.565 58.032 476.597 60.336C474.677 62.64 473.693 65.64 473.645 69.336C473.645 73.56 474.797 76.776 477.101 78.984C479.453 81.192 482.789 82.296 487.109 82.296C489.413 82.296 491.597 81.816 493.661 80.856C495.773 79.896 497.213 78.192 497.981 75.744H490.277V69.48H506.045V90H500.213L498.269 83.88H498.125C497.309 85.608 495.773 87.192 493.517 88.632C491.261 90.072 488.309 90.792 484.661 90.792ZM532.751 82.584V90H513.527V82.584H518.855V56.88H513.527V49.464H532.751V56.88H527.495V82.584H532.751ZM557.768 90.792C555.512 90.792 553.304 90.528 551.144 90C548.984 89.472 547.016 88.632 545.24 87.48C543.464 86.328 542.048 84.84 540.992 83.016C539.984 81.192 539.48 78.984 539.48 76.392H548.192C548.192 76.632 548.288 77.112 548.48 77.832C548.672 78.504 549.104 79.248 549.776 80.064C550.448 80.832 551.48 81.504 552.872 82.08C554.264 82.608 556.112 82.872 558.416 82.872C560.528 82.872 562.256 82.536 563.6 81.864C564.992 81.144 565.712 80.112 565.76 78.768C565.76 77.616 565.28 76.704 564.32 76.032C563.408 75.36 562.184 74.808 560.648 74.376C559.112 73.896 557.408 73.464 555.536 73.08C553.712 72.696 551.888 72.216 550.064 71.64C548.288 71.064 546.656 70.296 545.168 69.336C543.68 68.376 542.504 67.152 541.64 65.664C540.824 64.128 540.488 62.184 540.632 59.832C540.872 56.376 542.528 53.664 545.6 51.696C548.672 49.728 552.848 48.744 558.128 48.744C561.056 48.744 563.792 49.272 566.336 50.328C568.88 51.336 570.944 52.896 572.528 55.008C574.112 57.12 574.904 59.784 574.904 63H566.48C566.48 61.272 565.952 59.976 564.896 59.112C563.84 58.248 562.568 57.672 561.08 57.384C559.64 57.048 558.344 56.88 557.192 56.88C555.08 56.88 553.328 57.216 551.936 57.888C550.592 58.512 549.92 59.52 549.92 60.912C549.92 62.112 550.376 63.072 551.288 63.792C552.248 64.512 553.52 65.088 555.104 65.52C556.688 65.952 558.392 66.36 560.216 66.744C562.088 67.08 563.936 67.512 565.76 68.04C567.632 68.568 569.312 69.312 570.8 70.272C572.288 71.184 573.464 72.408 574.328 73.944C575.192 75.432 575.552 77.376 575.408 79.776C575.168 83.232 573.44 85.944 570.224 87.912C567.008 89.832 562.856 90.792 557.768 90.792ZM579.392 56.88V49.464H611.072V56.88H599.552V90H590.84V56.88H579.392ZM626.068 83.016H648.1V90H617.572V49.464H647.38V56.88H626.068V65.952H642.196V73.008H626.068V83.016ZM654.488 90V49.464H670.184C675.464 49.464 679.592 50.376 682.568 52.2C685.592 53.976 687.104 57.096 687.104 61.56C687.104 65.016 686.288 67.752 684.656 69.768C683.072 71.784 680.864 72.792 678.032 72.792C679.52 72.792 680.648 73.152 681.416 73.872C682.184 74.544 682.712 75.384 683 76.392C683.336 77.4 683.576 78.456 683.72 79.56C683.912 80.616 684.152 81.576 684.44 82.44C684.728 83.256 685.208 83.832 685.88 84.168C686.6 84.456 687.656 84.312 689.048 83.736V88.56C687.944 89.52 686.672 90.144 685.232 90.432C683.792 90.768 682.4 90.696 681.056 90.216C679.712 89.736 678.584 88.8 677.672 87.408C676.808 85.968 676.376 84 676.376 81.504C676.376 79.872 676.256 78.504 676.016 77.4C675.824 76.296 675.32 75.432 674.504 74.808C673.688 74.184 672.392 73.776 670.616 73.584C668.84 73.392 666.368 73.392 663.2 73.584V90H654.488ZM663.2 67.392H669.392C671.648 67.392 673.496 67.32 674.936 67.176C676.424 67.032 677.528 66.624 678.248 65.952C678.968 65.232 679.328 64.008 679.328 62.28C679.328 60.312 678.896 58.944 678.032 58.176C677.168 57.36 675.872 56.88 674.144 56.736C672.464 56.592 670.4 56.52 667.952 56.52H663.2V67.392ZM703.693 83.016H725.725V90H695.197V49.464H725.005V56.88H703.693V65.952H719.821V73.008H703.693V83.016ZM769.841 69.696C769.841 75.024 768.785 79.176 766.673 82.152C764.561 85.08 761.561 87.12 757.673 88.272C753.833 89.424 749.321 90 744.137 90H732.761V49.464H744.137C749.321 49.464 753.833 50.232 757.673 51.768C761.561 53.256 764.561 55.488 766.673 58.464C768.785 61.44 769.841 65.184 769.841 69.696ZM741.329 82.872H746.729C749.561 82.872 752.009 82.536 754.073 81.864C756.185 81.144 757.793 79.848 758.897 77.976C760.049 76.056 760.625 73.272 760.625 69.624C760.625 65.4 759.377 62.232 756.881 60.12C754.385 58.008 751.001 56.952 746.729 56.952H741.329V82.872ZM830.335 90.216C828.607 89.448 826.951 88.68 825.367 87.912C823.831 87.096 822.319 86.232 820.831 85.32C818.671 87.096 816.271 88.44 813.631 89.352C810.991 90.216 808.351 90.624 805.711 90.576C803.071 90.576 800.647 90.12 798.439 89.208C796.231 88.296 794.455 86.952 793.111 85.176C791.767 83.352 791.095 81.096 791.095 78.408C791.095 76.344 791.503 74.64 792.319 73.296C793.135 71.952 794.095 70.896 795.199 70.128C796.351 69.312 797.383 68.712 798.295 68.328C799.255 67.944 799.855 67.704 800.095 67.608C799.951 67.416 799.495 66.936 798.727 66.168C798.007 65.352 797.311 64.296 796.639 63C795.967 61.656 795.631 60.072 795.631 58.248C795.631 56.232 796.183 54.528 797.287 53.136C798.391 51.744 799.831 50.688 801.607 49.968C803.431 49.248 805.327 48.864 807.295 48.816C809.311 48.768 811.207 49.08 812.983 49.752C814.759 50.424 816.199 51.456 817.303 52.848C818.455 54.24 819.031 55.992 819.031 58.104C819.031 59.832 818.623 61.344 817.807 62.64C817.039 63.936 816.127 65.016 815.071 65.88C814.015 66.744 813.079 67.416 812.263 67.896C811.447 68.328 810.991 68.568 810.895 68.616C811.135 68.952 811.855 69.72 813.055 70.92C814.255 72.072 815.815 73.44 817.735 75.024C817.927 74.784 818.215 74.256 818.599 73.44C819.031 72.624 819.271 71.736 819.319 70.776C819.367 69.768 818.887 68.832 817.879 67.968L825.223 63.288C825.367 63.432 825.703 64.008 826.231 65.016C826.807 66.024 827.287 67.32 827.671 68.904C828.103 70.44 828.199 72.168 827.959 74.088C827.767 75.96 826.951 77.856 825.511 79.776C826.519 80.4 827.623 81.048 828.823 81.72C830.071 82.392 831.655 83.112 833.575 83.88L830.335 90.216ZM806.071 64.584C807.223 63.96 808.399 63.216 809.599 62.352C810.799 61.44 811.471 60.456 811.615 59.4C811.759 58.152 811.423 57.192 810.607 56.52C809.791 55.848 808.807 55.488 807.655 55.44C806.551 55.344 805.543 55.608 804.631 56.232C803.767 56.856 803.359 57.816 803.407 59.112C803.455 60.84 804.343 62.664 806.071 64.584ZM814.063 80.352C812.191 78.912 810.511 77.496 809.023 76.104C807.583 74.712 806.167 73.224 804.775 71.64C803.479 72.264 802.279 72.984 801.175 73.8C800.119 74.616 799.591 75.816 799.591 77.4C799.591 78.936 800.095 80.184 801.103 81.144C802.111 82.056 803.383 82.68 804.919 83.016C806.503 83.304 808.111 83.232 809.743 82.8C811.375 82.368 812.815 81.552 814.063 80.352ZM851.023 90L863.335 49.464H877.663L890.335 90H881.047L878.023 79.2H863.335L860.383 90H851.023ZM870.679 53.064L865.207 72.504H876.151L870.679 53.064ZM913.166 90.72C909.326 90.72 905.846 89.952 902.726 88.416C899.606 86.832 897.134 84.504 895.31 81.432C893.486 78.36 892.598 74.544 892.646 69.984C892.646 65.472 893.558 61.632 895.382 58.464C897.206 55.296 899.678 52.896 902.798 51.264C905.918 49.584 909.446 48.744 913.382 48.744C917.27 48.744 920.582 49.44 923.318 50.832C926.054 52.224 928.19 54.096 929.726 56.448C931.31 58.8 932.342 61.392 932.822 64.224H923.822C923.534 62.208 922.814 60.696 921.662 59.688C920.51 58.632 919.166 57.912 917.63 57.528C916.142 57.144 914.726 56.952 913.382 56.952C909.398 56.952 906.374 58.032 904.31 60.192C902.246 62.352 901.214 65.4 901.214 69.336C901.214 73.56 902.198 76.824 904.166 79.128C906.182 81.432 909.23 82.584 913.31 82.584C914.702 82.584 916.166 82.368 917.702 81.936C919.238 81.504 920.582 80.736 921.734 79.632C922.934 78.48 923.678 76.896 923.966 74.88H933.038C932.51 77.808 931.454 80.472 929.87 82.872C928.286 85.224 926.102 87.12 923.318 88.56C920.534 90 917.15 90.72 913.166 90.72ZM956.76 90.72C952.92 90.72 949.44 89.952 946.32 88.416C943.2 86.832 940.728 84.504 938.904 81.432C937.08 78.36 936.192 74.544 936.24 69.984C936.24 65.472 937.152 61.632 938.976 58.464C940.8 55.296 943.272 52.896 946.392 51.264C949.512 49.584 953.04 48.744 956.976 48.744C960.864 48.744 964.176 49.44 966.912 50.832C969.648 52.224 971.784 54.096 973.32 56.448C974.904 58.8 975.936 61.392 976.416 64.224H967.416C967.128 62.208 966.408 60.696 965.256 59.688C964.104 58.632 962.76 57.912 961.224 57.528C959.736 57.144 958.32 56.952 956.976 56.952C952.992 56.952 949.968 58.032 947.904 60.192C945.84 62.352 944.808 65.4 944.808 69.336C944.808 73.56 945.792 76.824 947.76 79.128C949.776 81.432 952.824 82.584 956.904 82.584C958.296 82.584 959.76 82.368 961.296 81.936C962.832 81.504 964.176 80.736 965.328 79.632C966.528 78.48 967.272 76.896 967.56 74.88H976.632C976.104 77.808 975.048 80.472 973.464 82.872C971.88 85.224 969.696 87.12 966.912 88.56C964.128 90 960.744 90.72 956.76 90.72ZM982.425 90V49.464H998.121C1003.4 49.464 1007.53 50.376 1010.51 52.2C1013.53 53.976 1015.04 57.096 1015.04 61.56C1015.04 65.016 1014.23 67.752 1012.59 69.768C1011.01 71.784 1008.8 72.792 1005.97 72.792C1007.46 72.792 1008.59 73.152 1009.35 73.872C1010.12 74.544 1010.65 75.384 1010.94 76.392C1011.27 77.4 1011.51 78.456 1011.66 79.56C1011.85 80.616 1012.09 81.576 1012.38 82.44C1012.67 83.256 1013.15 83.832 1013.82 84.168C1014.54 84.456 1015.59 84.312 1016.99 83.736V88.56C1015.88 89.52 1014.61 90.144 1013.17 90.432C1011.73 90.768 1010.34 90.696 1008.99 90.216C1007.65 89.736 1006.52 88.8 1005.61 87.408C1004.75 85.968 1004.31 84 1004.31 81.504C1004.31 79.872 1004.19 78.504 1003.95 77.4C1003.76 76.296 1003.26 75.432 1002.44 74.808C1001.63 74.184 1000.33 73.776 998.553 73.584C996.777 73.392 994.305 73.392 991.137 73.584V90H982.425ZM991.137 67.392H997.329C999.585 67.392 1001.43 67.32 1002.87 67.176C1004.36 67.032 1005.47 66.624 1006.19 65.952C1006.91 65.232 1007.27 64.008 1007.27 62.28C1007.27 60.312 1006.83 58.944 1005.97 58.176C1005.11 57.36 1003.81 56.88 1002.08 56.736C1000.4 56.592 998.337 56.52 995.889 56.52H991.137V67.392ZM1031.63 83.016H1053.66V90H1023.13V49.464H1052.94V56.88H1031.63V65.952H1047.76V73.008H1031.63V83.016ZM1097.78 69.696C1097.78 75.024 1096.72 79.176 1094.61 82.152C1092.5 85.08 1089.5 87.12 1085.61 88.272C1081.77 89.424 1077.26 90 1072.07 90H1060.7V49.464H1072.07C1077.26 49.464 1081.77 50.232 1085.61 51.768C1089.5 53.256 1092.5 55.488 1094.61 58.464C1096.72 61.44 1097.78 65.184 1097.78 69.696ZM1069.27 82.872H1074.67C1077.5 82.872 1079.95 82.536 1082.01 81.864C1084.12 81.144 1085.73 79.848 1086.83 77.976C1087.99 76.056 1088.56 73.272 1088.56 69.624C1088.56 65.4 1087.31 62.232 1084.82 60.12C1082.32 58.008 1078.94 56.952 1074.67 56.952H1069.27V82.872ZM1124.29 82.584V90H1105.07V82.584H1110.39V56.88H1105.07V49.464H1124.29V56.88H1119.03V82.584H1124.29ZM1129.94 56.88V49.464H1161.62V56.88H1150.1V90H1141.39V56.88H1129.94ZM1176.62 83.016H1198.65V90H1168.12V49.464H1197.93V56.88H1176.62V65.952H1192.74V73.008H1176.62V83.016ZM1242.76 69.696C1242.76 75.024 1241.71 79.176 1239.59 82.152C1237.48 85.08 1234.48 87.12 1230.59 88.272C1226.75 89.424 1222.24 90 1217.06 90H1205.68V49.464H1217.06C1222.24 49.464 1226.75 50.232 1230.59 51.768C1234.48 53.256 1237.48 55.488 1239.59 58.464C1241.71 61.44 1242.76 65.184 1242.76 69.696ZM1214.25 82.872H1219.65C1222.48 82.872 1224.93 82.536 1226.99 81.864C1229.11 81.144 1230.71 79.848 1231.82 77.976C1232.97 76.056 1233.55 73.272 1233.55 69.624C1233.55 65.4 1232.3 62.232 1229.8 60.12C1227.31 58.008 1223.92 56.952 1219.65 56.952H1214.25V82.872ZM15.8963 168.016H37.9283V175H7.40025V134.464H37.2083V141.88H15.8963V150.952H32.0243V158.008H15.8963V168.016ZM71.892 134.464H80.964V175H64.332L53.604 138.28H53.46V175H44.46V134.464H59.868L71.748 171.184H71.892V134.464ZM116.688 134.464H126.192L113.232 175H98.7598L85.7998 134.464H95.3038L105.96 171.4L116.688 134.464ZM151.305 167.584V175H132.081V167.584H137.409V141.88H132.081V134.464H151.305V141.88H146.049V167.584H151.305ZM161.246 175V134.464H176.942C182.222 134.464 186.35 135.376 189.326 137.2C192.35 138.976 193.862 142.096 193.862 146.56C193.862 150.016 193.046 152.752 191.414 154.768C189.83 156.784 187.622 157.792 184.79 157.792C186.278 157.792 187.406 158.152 188.174 158.872C188.942 159.544 189.47 160.384 189.758 161.392C190.094 162.4 190.334 163.456 190.478 164.56C190.67 165.616 190.91 166.576 191.198 167.44C191.486 168.256 191.966 168.832 192.638 169.168C193.358 169.456 194.414 169.312 195.806 168.736V173.56C194.702 174.52 193.43 175.144 191.99 175.432C190.55 175.768 189.158 175.696 187.814 175.216C186.47 174.736 185.342 173.8 184.43 172.408C183.566 170.968 183.134 169 183.134 166.504C183.134 164.872 183.014 163.504 182.774 162.4C182.582 161.296 182.078 160.432 181.262 159.808C180.446 159.184 179.15 158.776 177.374 158.584C175.598 158.392 173.126 158.392 169.958 158.584V175H161.246ZM169.958 152.392H176.15C178.406 152.392 180.254 152.32 181.694 152.176C183.182 152.032 184.286 151.624 185.006 150.952C185.726 150.232 186.086 149.008 186.086 147.28C186.086 145.312 185.654 143.944 184.79 143.176C183.926 142.36 182.63 141.88 180.902 141.736C179.222 141.592 177.158 141.52 174.71 141.52H169.958V152.392ZM219.811 176.008C213.187 176.008 208.123 174.112 204.619 170.32C201.115 166.48 199.363 161.32 199.363 154.84C199.363 150.568 200.107 146.872 201.595 143.752C203.131 140.584 205.411 138.136 208.435 136.408C211.459 134.632 215.251 133.744 219.811 133.744C226.483 133.744 231.547 135.664 235.003 139.504C238.459 143.296 240.187 148.408 240.187 154.84C240.187 159.016 239.419 162.712 237.883 165.928C236.347 169.096 234.067 171.568 231.043 173.344C228.019 175.12 224.275 176.008 219.811 176.008ZM219.739 167.584C222.379 167.584 224.587 167.032 226.363 165.928C228.139 164.776 229.459 163.24 230.323 161.32C231.187 159.4 231.619 157.24 231.619 154.84C231.619 152.44 231.187 150.256 230.323 148.288C229.459 146.32 228.139 144.76 226.363 143.608C224.587 142.456 222.379 141.88 219.739 141.88C215.851 141.88 212.899 143.104 210.883 145.552C208.867 147.952 207.859 151.048 207.859 154.84C207.859 157.192 208.291 159.328 209.155 161.248C210.019 163.168 211.315 164.704 213.043 165.856C214.819 167.008 217.051 167.584 219.739 167.584ZM273.9 134.464H282.972V175H266.34L255.612 138.28H255.468V175H246.468V134.464H261.876L273.756 171.184H273.9V134.464ZM291.264 175V134.464H306.384L314.16 171.328H314.304L321.936 134.464H336.984V175H327.984L328.632 138.208H328.488L320.496 175H307.824L299.904 138.208H299.76L300.264 175H291.264ZM353.256 168.016H375.288V175H344.76V134.464H374.568V141.88H353.256V150.952H369.384V158.008H353.256V168.016ZM409.251 134.464H418.323V175H401.691L390.963 138.28H390.819V175H381.819V134.464H397.227L409.107 171.184H409.251V134.464ZM423.087 141.88V134.464H454.767V141.88H443.247V175H434.535V141.88H423.087ZM455.023 175L467.335 134.464H481.663L494.335 175H485.047L482.023 164.2H467.335L464.383 175H455.023ZM474.679 138.064L469.207 157.504H480.151L474.679 138.064ZM499.886 175V134.464H508.598V167.584H527.318V175H499.886ZM556.958 175H548.246V134.464H564.95C569.51 134.464 573.086 135.64 575.678 137.992C578.27 140.296 579.566 143.752 579.566 148.36C579.566 152.392 578.222 155.56 575.534 157.864C572.894 160.12 569.366 161.248 564.95 161.248H556.958V175ZM563.726 141.52H556.958V155.056H563.726C566.03 155.056 567.926 154.504 569.414 153.4C570.95 152.248 571.718 150.544 571.718 148.288C571.718 145.984 570.974 144.28 569.486 143.176C567.998 142.072 566.078 141.52 563.726 141.52ZM585.652 175V134.464H601.348C606.628 134.464 610.756 135.376 613.732 137.2C616.756 138.976 618.268 142.096 618.268 146.56C618.268 150.016 617.452 152.752 615.82 154.768C614.236 156.784 612.028 157.792 609.196 157.792C610.684 157.792 611.812 158.152 612.58 158.872C613.348 159.544 613.876 160.384 614.164 161.392C614.5 162.4 614.74 163.456 614.884 164.56C615.076 165.616 615.316 166.576 615.604 167.44C615.892 168.256 616.372 168.832 617.044 169.168C617.764 169.456 618.82 169.312 620.212 168.736V173.56C619.108 174.52 617.836 175.144 616.396 175.432C614.956 175.768 613.564 175.696 612.22 175.216C610.876 174.736 609.748 173.8 608.836 172.408C607.972 170.968 607.54 169 607.54 166.504C607.54 164.872 607.42 163.504 607.18 162.4C606.988 161.296 606.484 160.432 605.668 159.808C604.852 159.184 603.556 158.776 601.78 158.584C600.004 158.392 597.532 158.392 594.364 158.584V175H585.652ZM594.364 152.392H600.556C602.812 152.392 604.66 152.32 606.1 152.176C607.588 152.032 608.692 151.624 609.412 150.952C610.132 150.232 610.492 149.008 610.492 147.28C610.492 145.312 610.06 143.944 609.196 143.176C608.332 142.36 607.036 141.88 605.308 141.736C603.628 141.592 601.564 141.52 599.116 141.52H594.364V152.392ZM644.217 176.008C637.593 176.008 632.529 174.112 629.025 170.32C625.521 166.48 623.769 161.32 623.769 154.84C623.769 150.568 624.513 146.872 626.001 143.752C627.537 140.584 629.817 138.136 632.841 136.408C635.865 134.632 639.657 133.744 644.217 133.744C650.889 133.744 655.953 135.664 659.409 139.504C662.865 143.296 664.593 148.408 664.593 154.84C664.593 159.016 663.825 162.712 662.289 165.928C660.753 169.096 658.473 171.568 655.449 173.344C652.425 175.12 648.681 176.008 644.217 176.008ZM644.145 167.584C646.785 167.584 648.993 167.032 650.769 165.928C652.545 164.776 653.865 163.24 654.729 161.32C655.593 159.4 656.025 157.24 656.025 154.84C656.025 152.44 655.593 150.256 654.729 148.288C653.865 146.32 652.545 144.76 650.769 143.608C648.993 142.456 646.785 141.88 644.145 141.88C640.257 141.88 637.305 143.104 635.289 145.552C633.273 147.952 632.265 151.048 632.265 154.84C632.265 157.192 632.697 159.328 633.561 161.248C634.425 163.168 635.721 164.704 637.449 165.856C639.225 167.008 641.457 167.584 644.145 167.584ZM667.283 141.88V134.464H698.963V141.88H687.443V175H678.731V141.88H667.283ZM713.959 168.016H735.991V175H705.463V134.464H735.271V141.88H713.959V150.952H730.087V158.008H713.959V168.016ZM760.307 175.72C756.467 175.72 752.987 174.952 749.867 173.416C746.747 171.832 744.275 169.504 742.451 166.432C740.627 163.36 739.739 159.544 739.787 154.984C739.787 150.472 740.699 146.632 742.523 143.464C744.347 140.296 746.819 137.896 749.939 136.264C753.059 134.584 756.587 133.744 760.523 133.744C764.411 133.744 767.723 134.44 770.459 135.832C773.195 137.224 775.331 139.096 776.867 141.448C778.451 143.8 779.483 146.392 779.963 149.224H770.963C770.675 147.208 769.955 145.696 768.803 144.688C767.651 143.632 766.307 142.912 764.771 142.528C763.283 142.144 761.867 141.952 760.523 141.952C756.539 141.952 753.515 143.032 751.451 145.192C749.387 147.352 748.355 150.4 748.355 154.336C748.355 158.56 749.339 161.824 751.307 164.128C753.323 166.432 756.371 167.584 760.451 167.584C761.843 167.584 763.307 167.368 764.843 166.936C766.379 166.504 767.723 165.736 768.875 164.632C770.075 163.48 770.819 161.896 771.107 159.88H780.179C779.651 162.808 778.595 165.472 777.011 167.872C775.427 170.224 773.243 172.12 770.459 173.56C767.675 175 764.291 175.72 760.307 175.72ZM782.876 141.88V134.464H814.556V141.88H803.036V175H794.324V141.88H782.876ZM839.805 167.584V175H820.581V167.584H825.909V141.88H820.581V134.464H839.805V141.88H834.549V167.584H839.805ZM866.334 176.008C859.71 176.008 854.646 174.112 851.142 170.32C847.638 166.48 845.886 161.32 845.886 154.84C845.886 150.568 846.63 146.872 848.118 143.752C849.654 140.584 851.934 138.136 854.958 136.408C857.982 134.632 861.774 133.744 866.334 133.744C873.006 133.744 878.07 135.664 881.526 139.504C884.982 143.296 886.71 148.408 886.71 154.84C886.71 159.016 885.942 162.712 884.406 165.928C882.87 169.096 880.59 171.568 877.566 173.344C874.542 175.12 870.798 176.008 866.334 176.008ZM866.262 167.584C868.902 167.584 871.11 167.032 872.886 165.928C874.662 164.776 875.982 163.24 876.846 161.32C877.71 159.4 878.142 157.24 878.142 154.84C878.142 152.44 877.71 150.256 876.846 148.288C875.982 146.32 874.662 144.76 872.886 143.608C871.11 142.456 868.902 141.88 866.262 141.88C862.374 141.88 859.422 143.104 857.406 145.552C855.39 147.952 854.382 151.048 854.382 154.84C854.382 157.192 854.814 159.328 855.678 161.248C856.542 163.168 857.838 164.704 859.566 165.856C861.342 167.008 863.574 167.584 866.262 167.584ZM920.423 134.464H929.495V175H912.863L902.135 138.28H901.991V175H892.991V134.464H908.399L920.279 171.184H920.423V134.464ZM968.674 175.792C966.418 175.792 964.21 175.528 962.05 175C959.89 174.472 957.922 173.632 956.146 172.48C954.37 171.328 952.954 169.84 951.898 168.016C950.89 166.192 950.386 163.984 950.386 161.392H959.098C959.098 161.632 959.194 162.112 959.386 162.832C959.578 163.504 960.01 164.248 960.682 165.064C961.354 165.832 962.386 166.504 963.778 167.08C965.17 167.608 967.018 167.872 969.322 167.872C971.434 167.872 973.162 167.536 974.506 166.864C975.898 166.144 976.618 165.112 976.666 163.768C976.666 162.616 976.186 161.704 975.226 161.032C974.314 160.36 973.09 159.808 971.554 159.376C970.018 158.896 968.314 158.464 966.442 158.08C964.618 157.696 962.794 157.216 960.97 156.64C959.194 156.064 957.562 155.296 956.074 154.336C954.586 153.376 953.41 152.152 952.546 150.664C951.73 149.128 951.394 147.184 951.538 144.832C951.778 141.376 953.434 138.664 956.506 136.696C959.578 134.728 963.754 133.744 969.034 133.744C971.962 133.744 974.698 134.272 977.242 135.328C979.786 136.336 981.85 137.896 983.434 140.008C985.018 142.12 985.81 144.784 985.81 148H977.386C977.386 146.272 976.858 144.976 975.802 144.112C974.746 143.248 973.474 142.672 971.986 142.384C970.546 142.048 969.25 141.88 968.098 141.88C965.986 141.88 964.234 142.216 962.842 142.888C961.498 143.512 960.826 144.52 960.826 145.912C960.826 147.112 961.282 148.072 962.194 148.792C963.154 149.512 964.426 150.088 966.01 150.52C967.594 150.952 969.298 151.36 971.122 151.744C972.994 152.08 974.842 152.512 976.666 153.04C978.538 153.568 980.218 154.312 981.706 155.272C983.194 156.184 984.37 157.408 985.234 158.944C986.098 160.432 986.458 162.376 986.314 164.776C986.074 168.232 984.346 170.944 981.13 172.912C977.914 174.832 973.762 175.792 968.674 175.792ZM1001.82 168.016H1023.85V175H993.322V134.464H1023.13V141.88H1001.82V150.952H1017.95V158.008H1001.82V168.016ZM1030.24 175V134.464H1045.93C1051.21 134.464 1055.34 135.376 1058.32 137.2C1061.34 138.976 1062.85 142.096 1062.85 146.56C1062.85 150.016 1062.04 152.752 1060.41 154.768C1058.82 156.784 1056.61 157.792 1053.78 157.792C1055.27 157.792 1056.4 158.152 1057.17 158.872C1057.93 159.544 1058.46 160.384 1058.75 161.392C1059.09 162.4 1059.33 163.456 1059.47 164.56C1059.66 165.616 1059.9 166.576 1060.19 167.44C1060.48 168.256 1060.96 168.832 1061.63 169.168C1062.35 169.456 1063.41 169.312 1064.8 168.736V173.56C1063.69 174.52 1062.42 175.144 1060.98 175.432C1059.54 175.768 1058.15 175.696 1056.81 175.216C1055.46 174.736 1054.33 173.8 1053.42 172.408C1052.56 170.968 1052.13 169 1052.13 166.504C1052.13 164.872 1052.01 163.504 1051.77 162.4C1051.57 161.296 1051.07 160.432 1050.25 159.808C1049.44 159.184 1048.14 158.776 1046.37 158.584C1044.59 158.392 1042.12 158.392 1038.95 158.584V175H1030.24ZM1038.95 152.392H1045.14C1047.4 152.392 1049.25 152.32 1050.69 152.176C1052.17 152.032 1053.28 151.624 1054 150.952C1054.72 150.232 1055.08 149.008 1055.08 147.28C1055.08 145.312 1054.65 143.944 1053.78 143.176C1052.92 142.36 1051.62 141.88 1049.89 141.736C1048.21 141.592 1046.15 141.52 1043.7 141.52H1038.95V152.392ZM1097.97 134.464H1107.47L1094.51 175H1080.04L1067.08 134.464H1076.59L1087.24 171.4L1097.97 134.464ZM1132.59 167.584V175H1113.36V167.584H1118.69V141.88H1113.36V134.464H1132.59V141.88H1127.33V167.584H1132.59ZM1159.26 175.72C1155.42 175.72 1151.94 174.952 1148.82 173.416C1145.7 171.832 1143.23 169.504 1141.4 166.432C1139.58 163.36 1138.69 159.544 1138.74 154.984C1138.74 150.472 1139.65 146.632 1141.48 143.464C1143.3 140.296 1145.77 137.896 1148.89 136.264C1152.01 134.584 1155.54 133.744 1159.48 133.744C1163.36 133.744 1166.68 134.44 1169.41 135.832C1172.15 137.224 1174.28 139.096 1175.82 141.448C1177.4 143.8 1178.44 146.392 1178.92 149.224H1169.92C1169.63 147.208 1168.91 145.696 1167.76 144.688C1166.6 143.632 1165.26 142.912 1163.72 142.528C1162.24 142.144 1160.82 141.952 1159.48 141.952C1155.49 141.952 1152.47 143.032 1150.4 145.192C1148.34 147.352 1147.31 150.4 1147.31 154.336C1147.31 158.56 1148.29 161.824 1150.26 164.128C1152.28 166.432 1155.32 167.584 1159.4 167.584C1160.8 167.584 1162.26 167.368 1163.8 166.936C1165.33 166.504 1166.68 165.736 1167.83 164.632C1169.03 163.48 1169.77 161.896 1170.06 159.88H1179.13C1178.6 162.808 1177.55 165.472 1175.96 167.872C1174.38 170.224 1172.2 172.12 1169.41 173.56C1166.63 175 1163.24 175.72 1159.26 175.72ZM1193.35 168.016H1215.38V175H1184.85V134.464H1214.66V141.88H1193.35V150.952H1209.48V158.008H1193.35V168.016ZM1238.04 175.792C1235.79 175.792 1233.58 175.528 1231.42 175C1229.26 174.472 1227.29 173.632 1225.51 172.48C1223.74 171.328 1222.32 169.84 1221.27 168.016C1220.26 166.192 1219.75 163.984 1219.75 161.392H1228.47C1228.47 161.632 1228.56 162.112 1228.75 162.832C1228.95 163.504 1229.38 164.248 1230.05 165.064C1230.72 165.832 1231.75 166.504 1233.15 167.08C1234.54 167.608 1236.39 167.872 1238.69 167.872C1240.8 167.872 1242.53 167.536 1243.87 166.864C1245.27 166.144 1245.99 165.112 1246.03 163.768C1246.03 162.616 1245.55 161.704 1244.59 161.032C1243.68 160.36 1242.46 159.808 1240.92 159.376C1239.39 158.896 1237.68 158.464 1235.81 158.08C1233.99 157.696 1232.16 157.216 1230.34 156.64C1228.56 156.064 1226.93 155.296 1225.44 154.336C1223.95 153.376 1222.78 152.152 1221.91 150.664C1221.1 149.128 1220.76 147.184 1220.91 144.832C1221.15 141.376 1222.8 138.664 1225.87 136.696C1228.95 134.728 1233.12 133.744 1238.4 133.744C1241.33 133.744 1244.07 134.272 1246.61 135.328C1249.15 136.336 1251.22 137.896 1252.8 140.008C1254.39 142.12 1255.18 144.784 1255.18 148H1246.75C1246.75 146.272 1246.23 144.976 1245.17 144.112C1244.11 143.248 1242.84 142.672 1241.35 142.384C1239.91 142.048 1238.62 141.88 1237.47 141.88C1235.35 141.88 1233.6 142.216 1232.21 142.888C1230.87 143.512 1230.19 144.52 1230.19 145.912C1230.19 147.112 1230.65 148.072 1231.56 148.792C1232.52 149.512 1233.79 150.088 1235.38 150.52C1236.96 150.952 1238.67 151.36 1240.49 151.744C1242.36 152.08 1244.21 152.512 1246.03 153.04C1247.91 153.568 1249.59 154.312 1251.07 155.272C1252.56 156.184 1253.74 157.408 1254.6 158.944C1255.47 160.432 1255.83 162.376 1255.68 164.776C1255.44 168.232 1253.71 170.944 1250.5 172.912C1247.28 174.832 1243.13 175.792 1238.04 175.792ZM1295.74 175.72C1291.9 175.72 1288.42 174.952 1285.3 173.416C1282.18 171.832 1279.7 169.504 1277.88 166.432C1276.06 163.36 1275.17 159.544 1275.22 154.984C1275.22 150.472 1276.13 146.632 1277.95 143.464C1279.78 140.296 1282.25 137.896 1285.37 136.264C1288.49 134.584 1292.02 133.744 1295.95 133.744C1299.84 133.744 1303.15 134.44 1305.89 135.832C1308.62 137.224 1310.76 139.096 1312.3 141.448C1313.88 143.8 1314.91 146.392 1315.39 149.224H1306.39C1306.1 147.208 1305.38 145.696 1304.23 144.688C1303.08 143.632 1301.74 142.912 1300.2 142.528C1298.71 142.144 1297.3 141.952 1295.95 141.952C1291.97 141.952 1288.94 143.032 1286.88 145.192C1284.82 147.352 1283.78 150.4 1283.78 154.336C1283.78 158.56 1284.77 161.824 1286.74 164.128C1288.75 166.432 1291.8 167.584 1295.88 167.584C1297.27 167.584 1298.74 167.368 1300.27 166.936C1301.81 166.504 1303.15 165.736 1304.3 164.632C1305.5 163.48 1306.25 161.896 1306.54 159.88H1315.61C1315.08 162.808 1314.02 165.472 1312.44 167.872C1310.86 170.224 1308.67 172.12 1305.89 173.56C1303.1 175 1299.72 175.72 1295.74 175.72ZM1339.19 176.008C1332.56 176.008 1327.5 174.112 1323.99 170.32C1320.49 166.48 1318.74 161.32 1318.74 154.84C1318.74 150.568 1319.48 146.872 1320.97 143.752C1322.51 140.584 1324.79 138.136 1327.81 136.408C1330.83 134.632 1334.63 133.744 1339.19 133.744C1345.86 133.744 1350.92 135.664 1354.38 139.504C1357.83 143.296 1359.56 148.408 1359.56 154.84C1359.56 159.016 1358.79 162.712 1357.26 165.928C1355.72 169.096 1353.44 171.568 1350.42 173.344C1347.39 175.12 1343.65 176.008 1339.19 176.008ZM1339.11 167.584C1341.75 167.584 1343.96 167.032 1345.74 165.928C1347.51 164.776 1348.83 163.24 1349.7 161.32C1350.56 159.4 1350.99 157.24 1350.99 154.84C1350.99 152.44 1350.56 150.256 1349.7 148.288C1348.83 146.32 1347.51 144.76 1345.74 143.608C1343.96 142.456 1341.75 141.88 1339.11 141.88C1335.23 141.88 1332.27 143.104 1330.26 145.552C1328.24 147.952 1327.23 151.048 1327.23 154.84C1327.23 157.192 1327.67 159.328 1328.53 161.248C1329.39 163.168 1330.69 164.704 1332.42 165.856C1334.19 167.008 1336.43 167.584 1339.11 167.584ZM1366.13 175V134.464H1381.25L1389.03 171.328H1389.17L1396.8 134.464H1411.85V175H1402.85L1403.5 138.208H1403.35L1395.36 175H1382.69L1374.77 138.208H1374.63L1375.13 175H1366.13ZM1428.41 175H1419.7V134.464H1436.4C1440.96 134.464 1444.54 135.64 1447.13 137.992C1449.72 140.296 1451.02 143.752 1451.02 148.36C1451.02 152.392 1449.67 155.56 1446.99 157.864C1444.35 160.12 1440.82 161.248 1436.4 161.248H1428.41V175ZM1435.18 141.52H1428.41V155.056H1435.18C1437.48 155.056 1439.38 154.504 1440.87 153.4C1442.4 152.248 1443.17 150.544 1443.17 148.288C1443.17 145.984 1442.43 144.28 1440.94 143.176C1439.45 142.072 1437.53 141.52 1435.18 141.52ZM1452.19 175L1464.51 134.464H1478.83L1491.51 175H1482.22L1479.19 164.2H1464.51L1461.55 175H1452.19ZM1471.85 138.064L1466.38 157.504H1477.32L1471.85 138.064ZM1523.99 134.464H1533.06V175H1516.43L1505.7 138.28H1505.55V175H1496.55V134.464H1511.96L1523.84 171.184H1523.99V134.464ZM1550.53 175V160.888L1536.71 134.464H1546.5L1555 153.4L1563.56 134.464H1573.28L1559.17 160.816V175H1550.53Z" fill="#EDF5FA"/>
<path d="M313.741 260.36C311.869 260.36 310.165 259.976 308.629 259.208C307.117 258.416 305.917 257.252 305.029 255.716C304.165 254.156 303.733 252.224 303.733 249.92C303.757 247.64 304.201 245.72 305.065 244.16C305.929 242.576 307.117 241.388 308.629 240.596C310.165 239.78 311.917 239.372 313.885 239.372C316.501 239.372 318.613 240.068 320.221 241.46C321.829 242.852 322.825 244.676 323.209 246.932H320.113C319.921 245.78 319.501 244.856 318.853 244.16C318.229 243.464 317.473 242.96 316.585 242.648C315.721 242.336 314.821 242.18 313.885 242.18C311.605 242.18 309.841 242.84 308.593 244.16C307.345 245.456 306.721 247.316 306.721 249.74C306.721 252.284 307.333 254.228 308.557 255.572C309.781 256.892 311.521 257.552 313.777 257.552C315.337 257.552 316.729 257.18 317.953 256.436C319.177 255.668 319.933 254.432 320.221 252.728H323.353C322.945 254.984 321.937 256.82 320.329 258.236C318.721 259.652 316.525 260.36 313.741 260.36ZM329.424 257.552H340.872V260H326.472V239.732H340.512V242.324H329.424V248.48H338.064V250.964H329.424V257.552ZM344.265 260V239.732H351.357C353.949 239.732 355.953 240.164 357.369 241.028C358.809 241.868 359.529 243.392 359.529 245.6C359.529 247.136 359.133 248.42 358.341 249.452C357.573 250.484 356.409 251 354.849 251C355.785 251 356.481 251.204 356.937 251.612C357.393 252.02 357.705 252.536 357.873 253.16C358.041 253.76 358.149 254.384 358.197 255.032C358.245 255.68 358.317 256.268 358.413 256.796C358.509 257.324 358.701 257.708 358.989 257.948C359.277 258.164 359.769 258.14 360.465 257.876V259.676C360.129 259.964 359.685 260.156 359.133 260.252C358.605 260.372 358.077 260.336 357.549 260.144C357.021 259.976 356.565 259.616 356.181 259.064C355.821 258.488 355.641 257.66 355.641 256.58C355.641 255.308 355.569 254.312 355.425 253.592C355.281 252.872 354.945 252.344 354.417 252.008C353.889 251.672 353.061 251.48 351.933 251.432C350.805 251.36 349.257 251.36 347.289 251.432V260H344.265ZM347.289 249.2H351.465C352.689 249.2 353.697 249.128 354.489 248.984C355.281 248.816 355.869 248.492 356.253 248.012C356.661 247.532 356.865 246.8 356.865 245.816C356.865 244.688 356.625 243.872 356.145 243.368C355.665 242.864 354.957 242.552 354.021 242.432C353.109 242.288 351.993 242.216 350.673 242.216H347.289V249.2ZM362.048 242.324V239.732H377.528V242.324H371.3V260H368.312V242.324H362.048ZM388.725 257.408V260H380.265V257.408H383.037V242.324H380.265V239.732H388.725V242.324H385.989V257.408H388.725ZM396.513 260H393.561V239.732H407.781V242.324H396.513V248.048H405.261V250.532H396.513V260ZM419.311 257.408V260H410.851V257.408H413.623V242.324H410.851V239.732H419.311V242.324H416.575V257.408H419.311ZM426.631 257.552H438.079V260H423.679V239.732H437.719V242.324H426.631V248.48H435.271V250.964H426.631V257.552ZM459.58 249.848C459.58 252.512 459.064 254.588 458.032 256.076C457 257.54 455.548 258.56 453.676 259.136C451.828 259.712 449.656 260 447.16 260H441.688V239.732H447.16C449.656 239.732 451.828 240.116 453.676 240.884C455.548 241.628 457 242.744 458.032 244.232C459.064 245.72 459.58 247.592 459.58 249.848ZM444.676 257.48H447.952C449.656 257.48 451.144 257.288 452.416 256.904C453.688 256.496 454.672 255.74 455.368 254.636C456.064 253.532 456.412 251.924 456.412 249.812C456.412 247.292 455.644 245.42 454.108 244.196C452.572 242.948 450.52 242.324 447.952 242.324H444.676V257.48ZM471.108 260V239.732H478.776C479.568 239.732 480.42 239.792 481.332 239.912C482.244 240.008 483.096 240.236 483.888 240.596C484.68 240.932 485.328 241.46 485.832 242.18C486.336 242.9 486.588 243.872 486.588 245.096C486.588 245.864 486.432 246.584 486.12 247.256C485.832 247.904 485.292 248.432 484.5 248.84C483.708 249.248 482.58 249.476 481.116 249.524V249.668C482.82 249.692 484.128 249.932 485.04 250.388C485.976 250.844 486.624 251.444 486.984 252.188C487.344 252.908 487.524 253.712 487.524 254.6C487.524 255.872 487.248 256.868 486.696 257.588C486.144 258.308 485.436 258.848 484.572 259.208C483.708 259.544 482.784 259.76 481.8 259.856C480.84 259.952 479.928 260 479.064 260H471.108ZM474.06 248.372H478.416C479.4 248.372 480.276 248.324 481.044 248.228C481.836 248.108 482.46 247.832 482.916 247.4C483.372 246.968 483.6 246.296 483.6 245.384C483.6 244.4 483.36 243.692 482.88 243.26C482.4 242.804 481.764 242.516 480.972 242.396C480.18 242.276 479.34 242.216 478.452 242.216H474.06V248.372ZM474.06 257.552H478.812C479.844 257.552 480.78 257.492 481.62 257.372C482.46 257.228 483.132 256.928 483.636 256.472C484.164 255.992 484.428 255.248 484.428 254.24C484.428 253.208 484.152 252.44 483.6 251.936C483.072 251.432 482.352 251.108 481.44 250.964C480.552 250.796 479.58 250.712 478.524 250.712H474.06V257.552ZM495.077 260V252.728L488.165 239.732H491.513L496.625 250.028L501.701 239.732H505.049L498.065 252.692V260H495.077ZM513.149 242.324V239.732H528.629V242.324H522.401V260H519.413V242.324H513.149ZM534.498 260H531.51V239.732H534.498V248.444H545.082V239.732H548.034V260H545.082V250.784H534.498V260ZM555.233 257.552H566.681V260H552.281V239.732H566.321V242.324H555.233V248.48H563.873V250.964H555.233V257.552ZM578.589 260V239.732H581.577V249.776L591.405 239.732H595.293V240.128L586.977 248.084L595.725 259.604V260H592.269L584.781 250.136L581.577 253.232V260H578.589ZM622.487 239.732H625.691L620.255 260H615.431L611.291 243.62L607.079 260H602.219L596.891 239.732H600.095L604.667 258.668L609.671 239.768V239.732H612.875L617.843 258.668L622.487 239.732ZM625.657 260L632.461 239.732H637.393L644.341 260H641.137L639.193 253.952H630.769L628.825 260H625.657ZM634.981 240.992L631.561 251.576H638.401L634.981 240.992ZM647.03 260V239.732H654.122C656.714 239.732 658.718 240.164 660.134 241.028C661.574 241.868 662.294 243.392 662.294 245.6C662.294 247.136 661.898 248.42 661.106 249.452C660.338 250.484 659.174 251 657.614 251C658.55 251 659.246 251.204 659.702 251.612C660.158 252.02 660.47 252.536 660.638 253.16C660.806 253.76 660.914 254.384 660.962 255.032C661.01 255.68 661.082 256.268 661.178 256.796C661.274 257.324 661.466 257.708 661.754 257.948C662.042 258.164 662.534 258.14 663.23 257.876V259.676C662.894 259.964 662.45 260.156 661.898 260.252C661.37 260.372 660.842 260.336 660.314 260.144C659.786 259.976 659.33 259.616 658.946 259.064C658.586 258.488 658.406 257.66 658.406 256.58C658.406 255.308 658.334 254.312 658.19 253.592C658.046 252.872 657.71 252.344 657.182 252.008C656.654 251.672 655.826 251.48 654.698 251.432C653.57 251.36 652.022 251.36 650.054 251.432V260H647.03ZM650.054 249.2H654.23C655.454 249.2 656.462 249.128 657.254 248.984C658.046 248.816 658.634 248.492 659.018 248.012C659.426 247.532 659.63 246.8 659.63 245.816C659.63 244.688 659.39 243.872 658.91 243.368C658.43 242.864 657.722 242.552 656.786 242.432C655.874 242.288 654.758 242.216 653.438 242.216H650.054V249.2ZM665.489 260L672.293 239.732H677.225L684.173 260H680.969L679.025 253.952H670.601L668.657 260H665.489ZM674.813 240.992L671.393 251.576H678.233L674.813 240.992ZM702.758 260.432C701.294 260.432 699.89 260.204 698.546 259.748C697.202 259.268 696.098 258.524 695.234 257.516C694.394 256.484 693.962 255.152 693.938 253.52H696.962C696.962 253.616 696.998 253.892 697.07 254.348C697.166 254.78 697.394 255.26 697.754 255.788C698.138 256.292 698.738 256.736 699.554 257.12C700.37 257.504 701.51 257.696 702.974 257.696C704.15 257.696 705.074 257.528 705.746 257.192C706.442 256.856 706.922 256.46 707.186 256.004C707.474 255.548 707.63 255.14 707.654 254.78C707.654 254.036 707.414 253.436 706.934 252.98C706.478 252.524 705.854 252.164 705.062 251.9C704.27 251.612 703.394 251.36 702.434 251.144C701.498 250.904 700.562 250.652 699.626 250.388C698.69 250.1 697.826 249.728 697.034 249.272C696.266 248.816 695.654 248.228 695.198 247.508C694.766 246.764 694.586 245.816 694.658 244.664C694.73 243.008 695.51 241.712 696.998 240.776C698.51 239.84 700.454 239.372 702.83 239.372C704.222 239.372 705.518 239.624 706.718 240.128C707.918 240.632 708.878 241.388 709.598 242.396C710.318 243.404 710.678 244.664 710.678 246.176H707.762C707.762 245.336 707.582 244.664 707.222 244.16C706.862 243.632 706.406 243.224 705.854 242.936C705.302 242.648 704.726 242.456 704.126 242.36C703.526 242.24 702.986 242.18 702.506 242.18C701.138 242.18 700.01 242.432 699.122 242.936C698.258 243.44 697.826 244.124 697.826 244.988C697.802 245.756 698.03 246.368 698.51 246.824C698.99 247.28 699.626 247.64 700.418 247.904C701.21 248.168 702.074 248.408 703.01 248.624C703.97 248.84 704.918 249.08 705.854 249.344C706.814 249.608 707.678 249.968 708.446 250.424C709.238 250.856 709.85 251.456 710.282 252.224C710.738 252.968 710.942 253.916 710.894 255.068C710.822 256.196 710.426 257.168 709.706 257.984C709.01 258.776 708.062 259.388 706.862 259.82C705.662 260.228 704.294 260.432 702.758 260.432ZM712.731 242.324V239.732H728.211V242.324H721.983V260H718.995V242.324H712.731ZM728.172 260L734.976 239.732H739.908L746.856 260H743.652L741.708 253.952H733.284L731.34 260H728.172ZM737.496 240.992L734.076 251.576H740.916L737.496 240.992ZM746.446 242.324V239.732H761.926V242.324H755.698V260H752.71V242.324H746.446ZM767.823 257.552H779.271V260H764.871V239.732H778.911V242.324H767.823V248.48H776.463V250.964H767.823V257.552ZM790.818 260V239.732H796.002L801.69 258.668H801.762L807.342 239.732H812.526V260H809.466L809.646 241.136H809.574L803.886 260H799.458L793.806 241.136H793.734L793.878 260H790.818ZM825.189 257.408V260H816.729V257.408H819.501V242.324H816.729V239.732H825.189V242.324H822.453V257.408H825.189ZM843.814 239.732H846.874V260H841.222L832.69 241.064H832.618V260H829.558V239.732H834.85L843.742 258.668H843.814V239.732ZM859.537 257.408V260H851.077V257.408H853.849V242.324H851.077V239.732H859.537V242.324H856.801V257.408H859.537ZM871.754 260.432C870.29 260.432 868.886 260.204 867.542 259.748C866.198 259.268 865.094 258.524 864.23 257.516C863.39 256.484 862.958 255.152 862.934 253.52H865.958C865.958 253.616 865.994 253.892 866.066 254.348C866.162 254.78 866.39 255.26 866.75 255.788C867.134 256.292 867.734 256.736 868.55 257.12C869.366 257.504 870.506 257.696 871.97 257.696C873.146 257.696 874.07 257.528 874.742 257.192C875.438 256.856 875.918 256.46 876.182 256.004C876.47 255.548 876.626 255.14 876.65 254.78C876.65 254.036 876.41 253.436 875.93 252.98C875.474 252.524 874.85 252.164 874.058 251.9C873.266 251.612 872.39 251.36 871.43 251.144C870.494 250.904 869.558 250.652 868.622 250.388C867.686 250.1 866.822 249.728 866.03 249.272C865.262 248.816 864.65 248.228 864.194 247.508C863.762 246.764 863.582 245.816 863.654 244.664C863.726 243.008 864.506 241.712 865.994 240.776C867.506 239.84 869.45 239.372 871.826 239.372C873.218 239.372 874.514 239.624 875.714 240.128C876.914 240.632 877.874 241.388 878.594 242.396C879.314 243.404 879.674 244.664 879.674 246.176H876.758C876.758 245.336 876.578 244.664 876.218 244.16C875.858 243.632 875.402 243.224 874.85 242.936C874.298 242.648 873.722 242.456 873.122 242.36C872.522 242.24 871.982 242.18 871.502 242.18C870.134 242.18 869.006 242.432 868.118 242.936C867.254 243.44 866.822 244.124 866.822 244.988C866.798 245.756 867.026 246.368 867.506 246.824C867.986 247.28 868.622 247.64 869.414 247.904C870.206 248.168 871.07 248.408 872.006 248.624C872.966 248.84 873.914 249.08 874.85 249.344C875.81 249.608 876.674 249.968 877.442 250.424C878.234 250.856 878.846 251.456 879.278 252.224C879.734 252.968 879.938 253.916 879.89 255.068C879.818 256.196 879.422 257.168 878.702 257.984C878.006 258.776 877.058 259.388 875.858 259.82C874.658 260.228 873.29 260.432 871.754 260.432ZM881.727 242.324V239.732H897.207V242.324H890.979V260H887.991V242.324H881.727ZM900.401 260V239.732H907.493C910.085 239.732 912.089 240.164 913.505 241.028C914.945 241.868 915.665 243.392 915.665 245.6C915.665 247.136 915.269 248.42 914.477 249.452C913.709 250.484 912.545 251 910.985 251C911.921 251 912.617 251.204 913.073 251.612C913.529 252.02 913.841 252.536 914.009 253.16C914.177 253.76 914.285 254.384 914.333 255.032C914.381 255.68 914.453 256.268 914.549 256.796C914.645 257.324 914.837 257.708 915.125 257.948C915.413 258.164 915.905 258.14 916.601 257.876V259.676C916.265 259.964 915.821 260.156 915.269 260.252C914.741 260.372 914.213 260.336 913.685 260.144C913.157 259.976 912.701 259.616 912.317 259.064C911.957 258.488 911.777 257.66 911.777 256.58C911.777 255.308 911.705 254.312 911.561 253.592C911.417 252.872 911.081 252.344 910.553 252.008C910.025 251.672 909.197 251.48 908.069 251.432C906.941 251.36 905.393 251.36 903.425 251.432V260H900.401ZM903.425 249.2H907.601C908.825 249.2 909.833 249.128 910.625 248.984C911.417 248.816 912.005 248.492 912.389 248.012C912.797 247.532 913.001 246.8 913.001 245.816C913.001 244.688 912.761 243.872 912.281 243.368C911.801 242.864 911.093 242.552 910.157 242.432C909.245 242.288 908.129 242.216 906.809 242.216H903.425V249.2ZM924.124 260V252.728L917.212 239.732H920.56L925.672 250.028L930.748 239.732H934.096L927.112 252.692V260H924.124ZM952.528 260.504C949.288 260.504 946.816 259.556 945.112 257.66C943.408 255.74 942.556 253.16 942.556 249.92C942.556 247.784 942.916 245.936 943.636 244.376C944.38 242.792 945.484 241.568 946.948 240.704C948.436 239.816 950.296 239.372 952.528 239.372C955.768 239.372 958.228 240.332 959.908 242.252C961.612 244.148 962.464 246.704 962.464 249.92C962.464 252.008 962.08 253.856 961.312 255.464C960.568 257.048 959.452 258.284 957.964 259.172C956.5 260.06 954.688 260.504 952.528 260.504ZM952.492 257.624C954.82 257.624 956.572 256.904 957.748 255.464C958.924 254.024 959.512 252.176 959.512 249.92C959.512 247.664 958.924 245.816 957.748 244.376C956.596 242.912 954.844 242.18 952.492 242.18C950.188 242.18 948.436 242.876 947.236 244.268C946.06 245.66 945.472 247.544 945.472 249.92C945.472 251.408 945.724 252.74 946.228 253.916C946.732 255.068 947.5 255.98 948.532 256.652C949.588 257.3 950.908 257.624 952.492 257.624ZM969.138 260H966.186V239.732H980.406V242.324H969.138V248.048H977.886V250.532H969.138V260ZM994.018 257.552H1005.47V260H991.066V239.732H1005.11V242.324H994.018V248.48H1002.66V250.964H994.018V257.552ZM1022.97 239.732H1026.03V260H1020.38L1011.85 241.064H1011.77V260H1008.71V239.732H1014.01L1022.9 258.668H1022.97V239.732ZM1043.77 239.732H1047.05L1040.13 260H1035.13L1028.22 239.732H1031.46L1037.61 258.668L1043.77 239.732ZM1058.35 257.408V260H1049.89V257.408H1052.66V242.324H1049.89V239.732H1058.35V242.324H1055.61V257.408H1058.35ZM1063.21 260V239.732H1070.3C1072.89 239.732 1074.9 240.164 1076.31 241.028C1077.75 241.868 1078.47 243.392 1078.47 245.6C1078.47 247.136 1078.08 248.42 1077.29 249.452C1076.52 250.484 1075.35 251 1073.79 251C1074.73 251 1075.43 251.204 1075.88 251.612C1076.34 252.02 1076.65 252.536 1076.82 253.16C1076.99 253.76 1077.09 254.384 1077.14 255.032C1077.19 255.68 1077.26 256.268 1077.36 256.796C1077.45 257.324 1077.65 257.708 1077.93 257.948C1078.22 258.164 1078.71 258.14 1079.41 257.876V259.676C1079.07 259.964 1078.63 260.156 1078.08 260.252C1077.55 260.372 1077.02 260.336 1076.49 260.144C1075.97 259.976 1075.51 259.616 1075.13 259.064C1074.77 258.488 1074.59 257.66 1074.59 256.58C1074.59 255.308 1074.51 254.312 1074.37 253.592C1074.23 252.872 1073.89 252.344 1073.36 252.008C1072.83 251.672 1072.01 251.48 1070.88 251.432C1069.75 251.36 1068.2 251.36 1066.23 251.432V260H1063.21ZM1066.23 249.2H1070.41C1071.63 249.2 1072.64 249.128 1073.43 248.984C1074.23 248.816 1074.81 248.492 1075.2 248.012C1075.61 247.532 1075.81 246.8 1075.81 245.816C1075.81 244.688 1075.57 243.872 1075.09 243.368C1074.61 242.864 1073.9 242.552 1072.97 242.432C1072.05 242.288 1070.94 242.216 1069.62 242.216H1066.23V249.2ZM1091.32 260.504C1088.08 260.504 1085.61 259.556 1083.91 257.66C1082.2 255.74 1081.35 253.16 1081.35 249.92C1081.35 247.784 1081.71 245.936 1082.43 244.376C1083.18 242.792 1084.28 241.568 1085.74 240.704C1087.23 239.816 1089.09 239.372 1091.32 239.372C1094.56 239.372 1097.02 240.332 1098.7 242.252C1100.41 244.148 1101.26 246.704 1101.26 249.92C1101.26 252.008 1100.88 253.856 1100.11 255.464C1099.36 257.048 1098.25 258.284 1096.76 259.172C1095.3 260.06 1093.48 260.504 1091.32 260.504ZM1091.29 257.624C1093.62 257.624 1095.37 256.904 1096.54 255.464C1097.72 254.024 1098.31 252.176 1098.31 249.92C1098.31 247.664 1097.72 245.816 1096.54 244.376C1095.39 242.912 1093.64 242.18 1091.29 242.18C1088.98 242.18 1087.23 242.876 1086.03 244.268C1084.86 245.66 1084.27 247.544 1084.27 249.92C1084.27 251.408 1084.52 252.74 1085.02 253.916C1085.53 255.068 1086.3 255.98 1087.33 256.652C1088.38 257.3 1089.7 257.624 1091.29 257.624ZM1118.77 239.732H1121.83V260H1116.18L1107.65 241.064H1107.58V260H1104.52V239.732H1109.81L1118.7 258.668H1118.77V239.732ZM1126 260V239.732H1131.18L1136.87 258.668H1136.94L1142.52 239.732H1147.71V260H1144.65L1144.83 241.136H1144.75L1139.07 260H1134.64L1128.99 241.136H1128.91L1129.06 260H1126ZM1154.72 257.552H1166.17V260H1151.77V239.732H1165.81V242.324H1154.72V248.48H1163.36V250.964H1154.72V257.552ZM1183.67 239.732H1186.73V260H1181.08L1172.55 241.064H1172.47V260H1169.41V239.732H1174.71L1183.6 258.668H1183.67V239.732ZM1189.17 242.324V239.732H1204.65V242.324H1198.42V260H1195.43V242.324H1189.17ZM1218.85 260H1215.9V239.732H1230.12V242.324H1218.85V248.048H1227.6V250.532H1218.85V260ZM1241.3 260.504C1238.06 260.504 1235.59 259.556 1233.89 257.66C1232.18 255.74 1231.33 253.16 1231.33 249.92C1231.33 247.784 1231.69 245.936 1232.41 244.376C1233.15 242.792 1234.26 241.568 1235.72 240.704C1237.21 239.816 1239.07 239.372 1241.3 239.372C1244.54 239.372 1247 240.332 1248.68 242.252C1250.39 244.148 1251.24 246.704 1251.24 249.92C1251.24 252.008 1250.85 253.856 1250.09 255.464C1249.34 257.048 1248.23 258.284 1246.74 259.172C1245.27 260.06 1243.46 260.504 1241.3 260.504ZM1241.27 257.624C1243.59 257.624 1245.35 256.904 1246.52 255.464C1247.7 254.024 1248.29 252.176 1248.29 249.92C1248.29 247.664 1247.7 245.816 1246.52 244.376C1245.37 242.912 1243.62 242.18 1241.27 242.18C1238.96 242.18 1237.21 242.876 1236.01 244.268C1234.83 245.66 1234.25 247.544 1234.25 249.92C1234.25 251.408 1234.5 252.74 1235 253.916C1235.51 255.068 1236.27 255.98 1237.31 256.652C1238.36 257.3 1239.68 257.624 1241.27 257.624ZM1254.64 260V239.732H1261.73C1264.32 239.732 1266.32 240.164 1267.74 241.028C1269.18 241.868 1269.9 243.392 1269.9 245.6C1269.9 247.136 1269.5 248.42 1268.71 249.452C1267.94 250.484 1266.78 251 1265.22 251C1266.16 251 1266.85 251.204 1267.31 251.612C1267.76 252.02 1268.08 252.536 1268.24 253.16C1268.41 253.76 1268.52 254.384 1268.57 255.032C1268.62 255.68 1268.69 256.268 1268.78 256.796C1268.88 257.324 1269.07 257.708 1269.36 257.948C1269.65 258.164 1270.14 258.14 1270.84 257.876V259.676C1270.5 259.964 1270.06 260.156 1269.5 260.252C1268.98 260.372 1268.45 260.336 1267.92 260.144C1267.39 259.976 1266.94 259.616 1266.55 259.064C1266.19 258.488 1266.01 257.66 1266.01 256.58C1266.01 255.308 1265.94 254.312 1265.8 253.592C1265.65 252.872 1265.32 252.344 1264.79 252.008C1264.26 251.672 1263.43 251.48 1262.3 251.432C1261.18 251.36 1259.63 251.36 1257.66 251.432V260H1254.64ZM1257.66 249.2H1261.84C1263.06 249.2 1264.07 249.128 1264.86 248.984C1265.65 248.816 1266.24 248.492 1266.62 248.012C1267.03 247.532 1267.24 246.8 1267.24 245.816C1267.24 244.688 1267 243.872 1266.52 243.368C1266.04 242.864 1265.33 242.552 1264.39 242.432C1263.48 242.288 1262.36 242.216 1261.04 242.216H1257.66V249.2ZM469.668 309H466.68V288.732H474.6C476.832 288.732 478.56 289.284 479.784 290.388C481.008 291.492 481.62 293.148 481.62 295.356C481.62 297.348 480.984 298.896 479.712 300C478.464 301.104 476.76 301.656 474.6 301.656H469.668V309ZM474.24 291.216H469.668V299.388H474.24C475.68 299.388 476.808 299.052 477.624 298.38C478.464 297.708 478.884 296.688 478.884 295.32C478.884 293.904 478.476 292.872 477.66 292.224C476.844 291.552 475.704 291.216 474.24 291.216ZM487.241 306.552H498.689V309H484.289V288.732H498.329V291.324H487.241V297.48H495.881V299.964H487.241V306.552ZM509.785 309.432C508.321 309.432 506.917 309.204 505.573 308.748C504.229 308.268 503.125 307.524 502.261 306.516C501.421 305.484 500.989 304.152 500.965 302.52H503.989C503.989 302.616 504.025 302.892 504.097 303.348C504.193 303.78 504.421 304.26 504.781 304.788C505.165 305.292 505.765 305.736 506.581 306.12C507.397 306.504 508.537 306.696 510.001 306.696C511.177 306.696 512.101 306.528 512.773 306.192C513.469 305.856 513.949 305.46 514.213 305.004C514.501 304.548 514.657 304.14 514.681 303.78C514.681 303.036 514.441 302.436 513.961 301.98C513.505 301.524 512.881 301.164 512.089 300.9C511.297 300.612 510.421 300.36 509.461 300.144C508.525 299.904 507.589 299.652 506.653 299.388C505.717 299.1 504.853 298.728 504.061 298.272C503.293 297.816 502.681 297.228 502.225 296.508C501.793 295.764 501.613 294.816 501.685 293.664C501.757 292.008 502.537 290.712 504.025 289.776C505.537 288.84 507.481 288.372 509.857 288.372C511.249 288.372 512.545 288.624 513.745 289.128C514.945 289.632 515.905 290.388 516.625 291.396C517.345 292.404 517.705 293.664 517.705 295.176H514.789C514.789 294.336 514.609 293.664 514.249 293.16C513.889 292.632 513.433 292.224 512.881 291.936C512.329 291.648 511.753 291.456 511.153 291.36C510.553 291.24 510.013 291.18 509.533 291.18C508.165 291.18 507.037 291.432 506.149 291.936C505.285 292.44 504.853 293.124 504.853 293.988C504.829 294.756 505.057 295.368 505.537 295.824C506.017 296.28 506.653 296.64 507.445 296.904C508.237 297.168 509.101 297.408 510.037 297.624C510.997 297.84 511.945 298.08 512.881 298.344C513.841 298.608 514.705 298.968 515.473 299.424C516.265 299.856 516.877 300.456 517.309 301.224C517.765 301.968 517.969 302.916 517.921 304.068C517.849 305.196 517.453 306.168 516.733 306.984C516.037 307.776 515.089 308.388 513.889 308.82C512.689 309.228 511.321 309.432 509.785 309.432ZM519.758 291.324V288.732H535.238V291.324H529.01V309H526.022V291.324H519.758ZM554.843 309.36C552.971 309.36 551.267 308.976 549.731 308.208C548.219 307.416 547.019 306.252 546.131 304.716C545.267 303.156 544.835 301.224 544.835 298.92C544.859 296.64 545.303 294.72 546.167 293.16C547.031 291.576 548.219 290.388 549.731 289.596C551.267 288.78 553.019 288.372 554.987 288.372C557.603 288.372 559.715 289.068 561.323 290.46C562.931 291.852 563.927 293.676 564.311 295.932H561.215C561.023 294.78 560.603 293.856 559.955 293.16C559.331 292.464 558.575 291.96 557.687 291.648C556.823 291.336 555.923 291.18 554.987 291.18C552.707 291.18 550.943 291.84 549.695 293.16C548.447 294.456 547.823 296.316 547.823 298.74C547.823 301.284 548.435 303.228 549.659 304.572C550.883 305.892 552.623 306.552 554.879 306.552C556.439 306.552 557.831 306.18 559.055 305.436C560.279 304.668 561.035 303.432 561.323 301.728H564.455C564.047 303.984 563.039 305.82 561.431 307.236C559.823 308.652 557.627 309.36 554.843 309.36ZM576.286 309.504C573.046 309.504 570.574 308.556 568.87 306.66C567.166 304.74 566.314 302.16 566.314 298.92C566.314 296.784 566.674 294.936 567.394 293.376C568.138 291.792 569.242 290.568 570.706 289.704C572.194 288.816 574.054 288.372 576.286 288.372C579.526 288.372 581.986 289.332 583.666 291.252C585.37 293.148 586.222 295.704 586.222 298.92C586.222 301.008 585.838 302.856 585.07 304.464C584.326 306.048 583.21 307.284 581.722 308.172C580.258 309.06 578.446 309.504 576.286 309.504ZM576.25 306.624C578.578 306.624 580.33 305.904 581.506 304.464C582.682 303.024 583.27 301.176 583.27 298.92C583.27 296.664 582.682 294.816 581.506 293.376C580.354 291.912 578.602 291.18 576.25 291.18C573.946 291.18 572.194 291.876 570.994 293.268C569.818 294.66 569.23 296.544 569.23 298.92C569.23 300.408 569.482 301.74 569.986 302.916C570.49 304.068 571.258 304.98 572.29 305.652C573.346 306.3 574.666 306.624 576.25 306.624ZM603.732 288.732H606.792V309H601.14L592.608 290.064H592.536V309H589.476V288.732H594.768L603.66 307.668H603.732V288.732ZM609.231 291.324V288.732H624.711V291.324H618.483V309H615.495V291.324H609.231ZM627.905 309V288.732H634.997C637.589 288.732 639.593 289.164 641.009 290.028C642.449 290.868 643.169 292.392 643.169 294.6C643.169 296.136 642.773 297.42 641.981 298.452C641.213 299.484 640.049 300 638.489 300C639.425 300 640.121 300.204 640.577 300.612C641.033 301.02 641.345 301.536 641.513 302.16C641.681 302.76 641.789 303.384 641.837 304.032C641.885 304.68 641.957 305.268 642.053 305.796C642.149 306.324 642.341 306.708 642.629 306.948C642.917 307.164 643.409 307.14 644.105 306.876V308.676C643.769 308.964 643.325 309.156 642.773 309.252C642.245 309.372 641.717 309.336 641.189 309.144C640.661 308.976 640.205 308.616 639.821 308.064C639.461 307.488 639.281 306.66 639.281 305.58C639.281 304.308 639.209 303.312 639.065 302.592C638.921 301.872 638.585 301.344 638.057 301.008C637.529 300.672 636.701 300.48 635.573 300.432C634.445 300.36 632.897 300.36 630.929 300.432V309H627.905ZM630.929 298.2H635.105C636.329 298.2 637.337 298.128 638.129 297.984C638.921 297.816 639.509 297.492 639.893 297.012C640.301 296.532 640.505 295.8 640.505 294.816C640.505 293.688 640.265 292.872 639.785 292.368C639.305 291.864 638.597 291.552 637.661 291.432C636.749 291.288 635.633 291.216 634.313 291.216H630.929V298.2ZM656.02 309.504C652.78 309.504 650.308 308.556 648.604 306.66C646.9 304.74 646.048 302.16 646.048 298.92C646.048 296.784 646.408 294.936 647.128 293.376C647.872 291.792 648.976 290.568 650.44 289.704C651.928 288.816 653.788 288.372 656.02 288.372C659.26 288.372 661.72 289.332 663.4 291.252C665.104 293.148 665.956 295.704 665.956 298.92C665.956 301.008 665.572 302.856 664.804 304.464C664.06 306.048 662.944 307.284 661.456 308.172C659.992 309.06 658.18 309.504 656.02 309.504ZM655.984 306.624C658.312 306.624 660.064 305.904 661.24 304.464C662.416 303.024 663.004 301.176 663.004 298.92C663.004 296.664 662.416 294.816 661.24 293.376C660.088 291.912 658.336 291.18 655.984 291.18C653.68 291.18 651.928 291.876 650.728 293.268C649.552 294.66 648.964 296.544 648.964 298.92C648.964 300.408 649.216 301.74 649.72 302.916C650.224 304.068 650.992 304.98 652.024 305.652C653.08 306.3 654.4 306.624 655.984 306.624ZM669.57 309V288.732H672.558V306.408H683.178V309H669.57ZM692.981 309L699.785 288.732H704.717L711.665 309H708.461L706.517 302.952H698.093L696.149 309H692.981ZM702.305 289.992L698.885 300.576H705.725L702.305 289.992ZM728.466 288.732H731.526V309H725.874L717.342 290.064H717.27V309H714.21V288.732H719.502L728.394 307.668H728.466V288.732ZM753.837 298.848C753.837 301.512 753.321 303.588 752.289 305.076C751.257 306.54 749.805 307.56 747.933 308.136C746.085 308.712 743.913 309 741.417 309H735.945V288.732H741.417C743.913 288.732 746.085 289.116 747.933 289.884C749.805 290.628 751.257 291.744 752.289 293.232C753.321 294.72 753.837 296.592 753.837 298.848ZM738.933 306.48H742.209C743.913 306.48 745.401 306.288 746.673 305.904C747.945 305.496 748.929 304.74 749.625 303.636C750.321 302.532 750.669 300.924 750.669 298.812C750.669 296.292 749.901 294.42 748.365 293.196C746.829 291.948 744.777 291.324 742.209 291.324H738.933V306.48ZM768.677 309H765.725V288.732H779.945V291.324H768.677V297.048H777.425V299.532H768.677V309ZM791.473 309.504C788.689 309.504 786.553 308.712 785.065 307.128C783.601 305.52 782.869 303.264 782.869 300.36V288.732H786.001V300.324C786.001 301.884 786.253 303.132 786.757 304.068C787.261 304.98 787.921 305.64 788.737 306.048C789.577 306.456 790.489 306.66 791.473 306.66C792.553 306.66 793.501 306.468 794.317 306.084C795.157 305.676 795.805 305.016 796.261 304.104C796.741 303.168 796.981 301.908 796.981 300.324V288.732H800.113V300.36C800.113 303.312 799.381 305.58 797.917 307.164C796.477 308.724 794.329 309.504 791.473 309.504ZM804.143 309V288.732H809.327L815.015 307.668H815.087L820.667 288.732H825.851V309H822.791L822.971 290.136H822.899L817.211 309H812.783L807.131 290.136H807.059L807.203 309H804.143ZM838.514 306.408V309H830.054V306.408H832.826V291.324H830.054V288.732H838.514V291.324H835.778V306.408H838.514ZM851.378 309.432C849.41 309.432 847.694 309.024 846.23 308.208C844.79 307.392 843.674 306.216 842.882 304.68C842.09 303.12 841.706 301.212 841.73 298.956C841.754 296.7 842.186 294.792 843.026 293.232C843.89 291.648 845.078 290.448 846.59 289.632C848.102 288.792 849.866 288.372 851.882 288.372C854.522 288.372 856.61 288.972 858.146 290.172C859.682 291.348 860.69 293.076 861.17 295.356L858.29 295.752C857.906 294.12 857.126 292.956 855.95 292.26C854.774 291.54 853.418 291.18 851.882 291.18C849.434 291.18 847.622 291.864 846.446 293.232C845.294 294.576 844.694 296.424 844.646 298.776C844.646 301.248 845.294 303.168 846.59 304.536C847.91 305.88 849.758 306.552 852.134 306.552C853.766 306.552 855.182 306.144 856.382 305.328C857.582 304.488 858.326 303.204 858.614 301.476H853.61V299.208H861.566V309H859.514L858.83 305.004H858.758C858.518 305.628 858.098 306.288 857.498 306.984C856.922 307.656 856.118 308.232 855.086 308.712C854.078 309.192 852.842 309.432 851.378 309.432ZM863.77 309L870.574 288.732H875.506L882.454 309H879.25L877.306 302.952H868.882L866.938 309H863.77ZM873.094 289.992L869.674 300.576H876.514L873.094 289.992ZM882.044 291.324V288.732H897.524V291.324H891.296V309H888.308V291.324H882.044ZM908.721 306.408V309H900.261V306.408H903.033V291.324H900.261V288.732H908.721V291.324H905.985V306.408H908.721ZM921.801 309.504C918.561 309.504 916.089 308.556 914.385 306.66C912.681 304.74 911.829 302.16 911.829 298.92C911.829 296.784 912.189 294.936 912.909 293.376C913.653 291.792 914.757 290.568 916.221 289.704C917.709 288.816 919.569 288.372 921.801 288.372C925.041 288.372 927.501 289.332 929.181 291.252C930.885 293.148 931.737 295.704 931.737 298.92C931.737 301.008 931.353 302.856 930.585 304.464C929.841 306.048 928.725 307.284 927.237 308.172C925.773 309.06 923.961 309.504 921.801 309.504ZM921.765 306.624C924.093 306.624 925.845 305.904 927.021 304.464C928.197 303.024 928.785 301.176 928.785 298.92C928.785 296.664 928.197 294.816 927.021 293.376C925.869 291.912 924.117 291.18 921.765 291.18C919.461 291.18 917.709 291.876 916.509 293.268C915.333 294.66 914.745 296.544 914.745 298.92C914.745 300.408 914.997 301.74 915.501 302.916C916.005 304.068 916.773 304.98 917.805 305.652C918.861 306.3 920.181 306.624 921.765 306.624ZM949.248 288.732H952.308V309H946.656L938.124 290.064H938.052V309H934.992V288.732H940.284L949.176 307.668H949.248V288.732ZM972.406 309.432C970.942 309.432 969.538 309.204 968.194 308.748C966.85 308.268 965.746 307.524 964.882 306.516C964.042 305.484 963.61 304.152 963.586 302.52H966.61C966.61 302.616 966.646 302.892 966.718 303.348C966.814 303.78 967.042 304.26 967.402 304.788C967.786 305.292 968.386 305.736 969.202 306.12C970.018 306.504 971.158 306.696 972.622 306.696C973.798 306.696 974.722 306.528 975.394 306.192C976.09 305.856 976.57 305.46 976.834 305.004C977.122 304.548 977.278 304.14 977.302 303.78C977.302 303.036 977.062 302.436 976.582 301.98C976.126 301.524 975.502 301.164 974.71 300.9C973.918 300.612 973.042 300.36 972.082 300.144C971.146 299.904 970.21 299.652 969.274 299.388C968.338 299.1 967.474 298.728 966.682 298.272C965.914 297.816 965.302 297.228 964.846 296.508C964.414 295.764 964.234 294.816 964.306 293.664C964.378 292.008 965.158 290.712 966.646 289.776C968.158 288.84 970.102 288.372 972.478 288.372C973.87 288.372 975.166 288.624 976.366 289.128C977.566 289.632 978.526 290.388 979.246 291.396C979.966 292.404 980.326 293.664 980.326 295.176H977.41C977.41 294.336 977.23 293.664 976.87 293.16C976.51 292.632 976.054 292.224 975.502 291.936C974.95 291.648 974.374 291.456 973.774 291.36C973.174 291.24 972.634 291.18 972.154 291.18C970.786 291.18 969.658 291.432 968.77 291.936C967.906 292.44 967.474 293.124 967.474 293.988C967.45 294.756 967.678 295.368 968.158 295.824C968.638 296.28 969.274 296.64 970.066 296.904C970.858 297.168 971.722 297.408 972.658 297.624C973.618 297.84 974.566 298.08 975.502 298.344C976.462 298.608 977.326 298.968 978.094 299.424C978.886 299.856 979.498 300.456 979.93 301.224C980.386 301.968 980.59 302.916 980.542 304.068C980.47 305.196 980.074 306.168 979.354 306.984C978.658 307.776 977.71 308.388 976.51 308.82C975.31 309.228 973.942 309.432 972.406 309.432ZM986.952 306.552H998.4V309H984V288.732H998.04V291.324H986.952V297.48H995.592V299.964H986.952V306.552ZM1001.79 309V288.732H1008.88C1011.48 288.732 1013.48 289.164 1014.9 290.028C1016.34 290.868 1017.06 292.392 1017.06 294.6C1017.06 296.136 1016.66 297.42 1015.87 298.452C1015.1 299.484 1013.94 300 1012.38 300C1013.31 300 1014.01 300.204 1014.46 300.612C1014.92 301.02 1015.23 301.536 1015.4 302.16C1015.57 302.76 1015.68 303.384 1015.72 304.032C1015.77 304.68 1015.84 305.268 1015.94 305.796C1016.04 306.324 1016.23 306.708 1016.52 306.948C1016.8 307.164 1017.3 307.14 1017.99 306.876V308.676C1017.66 308.964 1017.21 309.156 1016.66 309.252C1016.13 309.372 1015.6 309.336 1015.08 309.144C1014.55 308.976 1014.09 308.616 1013.71 308.064C1013.35 307.488 1013.17 306.66 1013.17 305.58C1013.17 304.308 1013.1 303.312 1012.95 302.592C1012.81 301.872 1012.47 301.344 1011.94 301.008C1011.42 300.672 1010.59 300.48 1009.46 300.432C1008.33 300.36 1006.78 300.36 1004.82 300.432V309H1001.79ZM1004.82 298.2H1008.99C1010.22 298.2 1011.22 298.128 1012.02 297.984C1012.81 297.816 1013.4 297.492 1013.78 297.012C1014.19 296.532 1014.39 295.8 1014.39 294.816C1014.39 293.688 1014.15 292.872 1013.67 292.368C1013.19 291.864 1012.48 291.552 1011.55 291.432C1010.64 291.288 1009.52 291.216 1008.2 291.216H1004.82V298.2ZM1034.87 288.732H1038.15L1031.24 309H1026.23L1019.32 288.732H1022.56L1028.72 307.668L1034.87 288.732ZM1049.45 306.408V309H1040.99V306.408H1043.76V291.324H1040.99V288.732H1049.45V291.324H1046.72V306.408H1049.45ZM1062.64 309.36C1060.77 309.36 1059.06 308.976 1057.53 308.208C1056.02 307.416 1054.82 306.252 1053.93 304.716C1053.06 303.156 1052.63 301.224 1052.63 298.92C1052.66 296.64 1053.1 294.72 1053.96 293.16C1054.83 291.576 1056.02 290.388 1057.53 289.596C1059.06 288.78 1060.82 288.372 1062.78 288.372C1065.4 288.372 1067.51 289.068 1069.12 290.46C1070.73 291.852 1071.72 293.676 1072.11 295.932H1069.01C1068.82 294.78 1068.4 293.856 1067.75 293.16C1067.13 292.464 1066.37 291.96 1065.48 291.648C1064.62 291.336 1063.72 291.18 1062.78 291.18C1060.5 291.18 1058.74 291.84 1057.49 293.16C1056.24 294.456 1055.62 296.316 1055.62 298.74C1055.62 301.284 1056.23 303.228 1057.46 304.572C1058.68 305.892 1060.42 306.552 1062.68 306.552C1064.24 306.552 1065.63 306.18 1066.85 305.436C1068.08 304.668 1068.83 303.432 1069.12 301.728H1072.25C1071.84 303.984 1070.84 305.82 1069.23 307.236C1067.62 308.652 1065.42 309.36 1062.64 309.36ZM1078.32 306.552H1089.77V309H1075.37V288.732H1089.41V291.324H1078.32V297.48H1086.96V299.964H1078.32V306.552ZM1100.87 309.432C1099.4 309.432 1098 309.204 1096.66 308.748C1095.31 308.268 1094.21 307.524 1093.34 306.516C1092.5 305.484 1092.07 304.152 1092.05 302.52H1095.07C1095.07 302.616 1095.11 302.892 1095.18 303.348C1095.28 303.78 1095.5 304.26 1095.86 304.788C1096.25 305.292 1096.85 305.736 1097.66 306.12C1098.48 306.504 1099.62 306.696 1101.08 306.696C1102.26 306.696 1103.18 306.528 1103.86 306.192C1104.55 305.856 1105.03 305.46 1105.3 305.004C1105.58 304.548 1105.74 304.14 1105.76 303.78C1105.76 303.036 1105.52 302.436 1105.04 301.98C1104.59 301.524 1103.96 301.164 1103.17 300.9C1102.38 300.612 1101.5 300.36 1100.54 300.144C1099.61 299.904 1098.67 299.652 1097.74 299.388C1096.8 299.1 1095.94 298.728 1095.14 298.272C1094.38 297.816 1093.76 297.228 1093.31 296.508C1092.88 295.764 1092.7 294.816 1092.77 293.664C1092.84 292.008 1093.62 290.712 1095.11 289.776C1096.62 288.84 1098.56 288.372 1100.94 288.372C1102.33 288.372 1103.63 288.624 1104.83 289.128C1106.03 289.632 1106.99 290.388 1107.71 291.396C1108.43 292.404 1108.79 293.664 1108.79 295.176H1105.87C1105.87 294.336 1105.69 293.664 1105.33 293.16C1104.97 292.632 1104.52 292.224 1103.96 291.936C1103.41 291.648 1102.84 291.456 1102.24 291.36C1101.64 291.24 1101.1 291.18 1100.62 291.18C1099.25 291.18 1098.12 291.432 1097.23 291.936C1096.37 292.44 1095.94 293.124 1095.94 293.988C1095.91 294.756 1096.14 295.368 1096.62 295.824C1097.1 296.28 1097.74 296.64 1098.53 296.904C1099.32 297.168 1100.18 297.408 1101.12 297.624C1102.08 297.84 1103.03 298.08 1103.96 298.344C1104.92 298.608 1105.79 298.968 1106.56 299.424C1107.35 299.856 1107.96 300.456 1108.39 301.224C1108.85 301.968 1109.05 302.916 1109 304.068C1108.93 305.196 1108.54 306.168 1107.82 306.984C1107.12 307.776 1106.17 308.388 1104.97 308.82C1103.77 309.228 1102.4 309.432 1100.87 309.432Z" fill="#EDF5FA"/>
<defs>
<linearGradient id="paint0_linear_362_10" x1="358.215" y1="15" x2="1445.95" y2="14.9999" gradientUnits="userSpaceOnUse">
<stop stop-color="white"/>
<stop offset="1" stop-color="#4FA0CA"/>
</linearGradient>
</defs>
</svg>
