<svg width="579" height="108" viewBox="0 0 579 108" fill="none" xmlns="http://www.w3.org/2000/svg">
<path d="M0.479414 34.916L10.7394 1.13601H22.6794L33.2394 34.916H25.4994L22.9794 25.916H10.7394L8.27941 34.916H0.479414ZM16.8594 4.13601L12.2994 20.336H21.4194L16.8594 4.13601ZM37.3255 34.916V1.13601H51.3055C52.3855 1.13601 53.6855 1.21601 55.2055 1.37601C56.7255 1.49601 58.2055 1.83601 59.6455 2.39601C61.1255 2.91601 62.3455 3.77601 63.3055 4.97601C64.2655 6.17601 64.7455 7.85601 64.7455 10.016C64.7455 11.296 64.4855 12.496 63.9655 13.616C63.4855 14.696 62.5655 15.596 61.2055 16.316C59.8455 16.996 57.9255 17.396 55.4455 17.516V17.756C58.3255 17.836 60.5455 18.236 62.1055 18.956C63.7055 19.676 64.8055 20.636 65.4055 21.836C66.0455 22.996 66.3655 24.296 66.3655 25.736C66.3655 27.536 66.0255 29.016 65.3455 30.176C64.6655 31.296 63.7655 32.196 62.6455 32.876C61.5255 33.516 60.2855 33.976 58.9255 34.256C57.6055 34.536 56.2855 34.716 54.9655 34.796C53.6855 34.876 52.5055 34.916 51.4255 34.916H37.3255ZM44.4055 14.756H50.3455C51.5855 14.756 52.7455 14.696 53.8255 14.576C54.9455 14.456 55.8455 14.136 56.5255 13.616C57.2455 13.056 57.6055 12.136 57.6055 10.856C57.6055 9.61601 57.2655 8.73601 56.5855 8.21601C55.9055 7.65601 55.0055 7.31601 53.8855 7.19601C52.8055 7.07601 51.6455 7.01601 50.4055 7.01601H44.4055V14.756ZM44.4655 29.096H50.7655C52.2055 29.096 53.5455 29.036 54.7855 28.916C56.0255 28.756 57.0255 28.376 57.7855 27.776C58.5455 27.136 58.9255 26.116 58.9255 24.716C58.9255 23.316 58.5255 22.296 57.7255 21.656C56.9655 21.016 55.9455 20.616 54.6655 20.456C53.4255 20.296 52.0855 20.216 50.6455 20.216H44.4655V29.096ZM86.4814 35.756C80.9614 35.756 76.7414 34.176 73.8214 31.016C70.9014 27.816 69.4414 23.516 69.4414 18.116C69.4414 14.556 70.0614 11.476 71.3014 8.87601C72.5814 6.23602 74.4814 4.19602 77.0014 2.75601C79.5214 1.27601 82.6814 0.536015 86.4814 0.536015C92.0414 0.536015 96.2614 2.13601 99.1414 5.33601C102.021 8.49601 103.461 12.756 103.461 18.116C103.461 21.596 102.821 24.676 101.541 27.356C100.261 29.996 98.3614 32.056 95.8414 33.536C93.3214 35.016 90.2014 35.756 86.4814 35.756ZM86.4214 28.736C88.6214 28.736 90.4614 28.276 91.9414 27.356C93.4214 26.396 94.5214 25.116 95.2414 23.516C95.9614 21.916 96.3214 20.116 96.3214 18.116C96.3214 16.116 95.9614 14.296 95.2414 12.656C94.5214 11.016 93.4214 9.71601 91.9414 8.75601C90.4614 7.79601 88.6214 7.31602 86.4214 7.31602C83.1814 7.31602 80.7214 8.33602 79.0414 10.376C77.3614 12.376 76.5214 14.956 76.5214 18.116C76.5214 20.076 76.8814 21.856 77.6014 23.456C78.3214 25.056 79.4014 26.336 80.8414 27.296C82.3214 28.256 84.1814 28.736 86.4214 28.736ZM124.104 35.756C119.184 35.756 115.444 34.436 112.884 31.796C110.364 29.116 109.104 25.356 109.104 20.516V1.13601H116.844V20.456C116.844 22.816 117.224 24.596 117.984 25.796C118.784 26.996 119.744 27.816 120.864 28.256C121.984 28.656 123.064 28.856 124.104 28.856C125.304 28.856 126.464 28.656 127.584 28.256C128.704 27.816 129.624 26.996 130.344 25.796C131.064 24.596 131.424 22.816 131.424 20.456V1.13601H139.164V20.516C139.164 25.436 137.904 29.216 135.384 31.856C132.904 34.456 129.144 35.756 124.104 35.756ZM142.792 7.31602V1.13601H169.192V7.31602H159.592V34.916H152.332V7.31602H142.792ZM202.772 28.736V34.916H186.752V28.736H191.192V7.31602H186.752V1.13601H202.772V7.31602H198.392V28.736H202.772ZM233.04 1.13601H240.6V34.916H226.74L217.8 4.31601H217.68V34.916H210.18V1.13601H223.02L232.92 31.736H233.04V1.13601ZM245.05 34.916L255.31 1.13601H267.25L277.81 34.916H270.07L267.55 25.916H255.31L252.85 34.916H245.05ZM261.43 4.13601L256.87 20.336H265.99L261.43 4.13601ZM282.256 34.916V1.13601H294.856L301.336 31.856H301.456L307.816 1.13601H320.356V34.916H312.856L313.396 4.25601H313.276L306.616 34.916H296.056L289.456 4.25601H289.336L289.756 34.916H282.256ZM341.956 35.756C337.036 35.756 333.296 34.436 330.736 31.796C328.216 29.116 326.956 25.356 326.956 20.516V1.13601H334.696V20.456C334.696 22.816 335.076 24.596 335.836 25.796C336.636 26.996 337.596 27.816 338.716 28.256C339.836 28.656 340.916 28.856 341.956 28.856C343.156 28.856 344.316 28.656 345.436 28.256C346.556 27.816 347.476 26.996 348.196 25.796C348.916 24.596 349.276 22.816 349.276 20.456V1.13601H357.016V20.516C357.016 25.436 355.756 29.216 353.236 31.856C350.756 34.456 346.996 35.756 341.956 35.756ZM363.224 34.916V1.13601H376.304C380.704 1.13601 384.144 1.89601 386.624 3.41601C389.144 4.89601 390.404 7.49601 390.404 11.216C390.404 14.096 389.724 16.376 388.364 18.056C387.044 19.736 385.204 20.576 382.844 20.576C384.084 20.576 385.024 20.876 385.664 21.476C386.304 22.036 386.744 22.736 386.984 23.576C387.264 24.416 387.464 25.296 387.584 26.216C387.744 27.096 387.944 27.896 388.184 28.616C388.424 29.296 388.824 29.776 389.384 30.056C389.984 30.296 390.864 30.176 392.024 29.696V33.716C391.104 34.516 390.044 35.036 388.844 35.276C387.644 35.556 386.484 35.496 385.364 35.096C384.244 34.696 383.304 33.916 382.544 32.756C381.824 31.556 381.464 29.916 381.464 27.836C381.464 26.476 381.364 25.336 381.164 24.416C381.004 23.496 380.584 22.776 379.904 22.256C379.224 21.736 378.144 21.396 376.664 21.236C375.184 21.076 373.124 21.076 370.484 21.236V34.916H363.224ZM370.484 16.076H375.644C377.524 16.076 379.064 16.016 380.264 15.896C381.504 15.776 382.424 15.436 383.024 14.876C383.624 14.276 383.924 13.256 383.924 11.816C383.924 10.176 383.564 9.03601 382.844 8.39601C382.124 7.71601 381.044 7.31601 379.604 7.19601C378.204 7.07601 376.484 7.01601 374.444 7.01601H370.484V16.076ZM395.694 34.916L405.954 1.13601H417.894L428.454 34.916H420.714L418.194 25.916H405.954L403.494 34.916H395.694ZM412.074 4.13601L407.514 20.336H416.634L412.074 4.13601ZM439.86 34.916H432.6V1.13601H439.86V15.056H454.38V1.13601H461.58V34.916H454.38V20.576H439.86V34.916ZM468.408 34.916V1.13601H481.008L487.488 31.856H487.608L493.968 1.13601H506.508V34.916H499.008L499.548 4.25601H499.428L492.768 34.916H482.208L475.608 4.25601H475.488L475.908 34.916H468.408ZM510.948 34.916L521.208 1.13601H533.148L543.708 34.916H535.968L533.448 25.916H521.208L518.748 34.916H510.948ZM527.328 4.13601L522.768 20.336H531.888L527.328 4.13601ZM570.774 1.13601H578.334V34.916H564.474L555.534 4.31601H555.414V34.916H547.914V1.13601H560.754L570.654 31.736H570.774V1.13601ZM9.89941 106.916H2.63941V73.136H9.89941V87.056H24.4194V73.136H31.6194V106.916H24.4194V92.576H9.89941V106.916ZM47.2124 106.916V95.156L35.6924 73.136H43.8524L50.9324 88.916L58.0724 73.136H66.1724L54.4124 95.096V106.916H47.2124ZM81.9557 107.576C78.6357 107.576 75.7357 106.916 73.2557 105.596C70.7757 104.276 68.8557 102.336 67.4957 99.776C66.1757 97.176 65.5557 93.996 65.6357 90.236C65.7157 86.396 66.5157 83.176 68.0357 80.576C69.5557 77.936 71.5957 75.936 74.1557 74.576C76.7557 73.216 79.7357 72.536 83.0957 72.536C87.8557 72.536 91.4957 73.536 94.0157 75.536C96.5357 77.536 98.2357 80.436 99.1157 84.236L92.0957 85.316C91.7357 83.796 91.0757 82.596 90.1157 81.716C89.1957 80.836 88.1157 80.216 86.8757 79.856C85.6357 79.496 84.3757 79.316 83.0957 79.316C79.4957 79.316 76.8757 80.276 75.2357 82.196C73.6357 84.116 72.8157 86.616 72.7757 89.696C72.7757 93.216 73.7357 95.896 75.6557 97.736C77.6157 99.576 80.3957 100.496 83.9957 100.496C85.9157 100.496 87.7357 100.096 89.4557 99.296C91.2157 98.496 92.4157 97.076 93.0557 95.036H86.6357V89.816H99.7757V106.916H94.9157L93.2957 101.816H93.1757C92.4957 103.256 91.2157 104.576 89.3357 105.776C87.4557 106.976 84.9957 107.576 81.9557 107.576ZM122.03 100.736V106.916H106.01V100.736H110.45V79.316H106.01V73.136H122.03V79.316H117.65V100.736H122.03ZM136.338 101.096H154.698V106.916H129.258V73.136H154.098V79.316H136.338V86.876H149.778V92.756H136.338V101.096ZM183.001 73.136H190.561V106.916H176.701L167.761 76.316H167.641V106.916H160.141V73.136H172.981L182.881 103.736H183.001V73.136ZM213.671 100.736V106.916H197.651V100.736H202.091V79.316H197.651V73.136H213.671V79.316H209.291V100.736H213.671ZM235.898 107.516C232.698 107.516 229.798 106.876 227.198 105.596C224.598 104.276 222.538 102.336 221.018 99.776C219.498 97.216 218.758 94.036 218.798 90.236C218.798 86.476 219.558 83.276 221.078 80.636C222.598 77.996 224.658 75.996 227.258 74.636C229.858 73.236 232.798 72.536 236.078 72.536C239.318 72.536 242.078 73.116 244.358 74.276C246.638 75.436 248.418 76.996 249.698 78.956C251.018 80.916 251.878 83.076 252.278 85.436H244.778C244.538 83.756 243.938 82.496 242.978 81.656C242.018 80.776 240.898 80.176 239.618 79.856C238.378 79.536 237.198 79.376 236.078 79.376C232.758 79.376 230.238 80.276 228.518 82.076C226.798 83.876 225.938 86.416 225.938 89.696C225.938 93.216 226.758 95.936 228.398 97.856C230.078 99.776 232.618 100.736 236.018 100.736C237.178 100.736 238.398 100.556 239.678 100.196C240.958 99.836 242.078 99.196 243.038 98.276C244.038 97.316 244.658 95.996 244.898 94.316H252.458C252.018 96.756 251.138 98.976 249.818 100.976C248.498 102.936 246.678 104.516 244.358 105.716C242.038 106.916 239.218 107.516 235.898 107.516ZM293.046 73.136H300.966L290.166 106.916H278.106L267.306 73.136H275.226L284.106 103.916L293.046 73.136ZM312.705 101.096H331.065V106.916H305.625V73.136H330.465V79.316H312.705V86.876H326.145V92.756H312.705V101.096ZM359.368 73.136H366.928V106.916H353.068L344.128 76.316H344.008V106.916H336.508V73.136H349.348L359.248 103.736H359.368V73.136ZM370.898 79.316V73.136H397.298V79.316H387.698V106.916H380.438V79.316H370.898ZM416.839 107.756C411.919 107.756 408.179 106.436 405.619 103.796C403.099 101.116 401.839 97.356 401.839 92.516V73.136H409.579V92.456C409.579 94.816 409.959 96.596 410.719 97.796C411.519 98.996 412.479 99.816 413.599 100.256C414.719 100.656 415.799 100.856 416.839 100.856C418.039 100.856 419.199 100.656 420.319 100.256C421.439 99.816 422.359 98.996 423.079 97.796C423.799 96.596 424.159 94.816 424.159 92.456V73.136H431.899V92.516C431.899 97.436 430.639 101.216 428.119 103.856C425.639 106.456 421.879 107.756 416.839 107.756ZM438.107 106.916V73.136H451.187C455.587 73.136 459.027 73.896 461.507 75.416C464.027 76.896 465.287 79.496 465.287 83.216C465.287 86.096 464.607 88.376 463.247 90.056C461.927 91.736 460.087 92.576 457.727 92.576C458.967 92.576 459.907 92.876 460.547 93.476C461.187 94.036 461.627 94.736 461.867 95.576C462.147 96.416 462.347 97.296 462.467 98.216C462.627 99.096 462.827 99.896 463.067 100.616C463.307 101.296 463.707 101.776 464.267 102.056C464.867 102.296 465.747 102.176 466.907 101.696V105.716C465.987 106.516 464.927 107.036 463.727 107.276C462.527 107.556 461.367 107.496 460.247 107.096C459.127 106.696 458.187 105.916 457.427 104.756C456.707 103.556 456.347 101.916 456.347 99.836C456.347 98.476 456.247 97.336 456.047 96.416C455.887 95.496 455.467 94.776 454.787 94.256C454.107 93.736 453.027 93.396 451.547 93.236C450.067 93.076 448.007 93.076 445.367 93.236V106.916H438.107ZM445.367 88.076H450.527C452.407 88.076 453.947 88.016 455.147 87.896C456.387 87.776 457.307 87.436 457.907 86.876C458.507 86.276 458.807 85.256 458.807 83.816C458.807 82.176 458.447 81.036 457.727 80.396C457.007 79.716 455.927 79.316 454.487 79.196C453.087 79.076 451.367 79.016 449.327 79.016H445.367V88.076ZM479.111 101.096H497.471V106.916H472.031V73.136H496.871V79.316H479.111V86.876H492.551V92.756H479.111V101.096ZM516.354 107.576C514.474 107.576 512.634 107.356 510.834 106.916C509.034 106.476 507.394 105.776 505.914 104.816C504.434 103.856 503.254 102.616 502.374 101.096C501.534 99.576 501.114 97.736 501.114 95.576H508.374C508.374 95.776 508.454 96.176 508.614 96.776C508.774 97.336 509.134 97.956 509.694 98.636C510.254 99.276 511.114 99.836 512.274 100.316C513.434 100.756 514.974 100.976 516.894 100.976C518.654 100.976 520.094 100.696 521.214 100.136C522.374 99.536 522.974 98.676 523.014 97.556C523.014 96.596 522.614 95.836 521.814 95.276C521.054 94.716 520.034 94.256 518.754 93.896C517.474 93.496 516.054 93.136 514.494 92.816C512.974 92.496 511.454 92.096 509.934 91.616C508.454 91.136 507.094 90.496 505.854 89.696C504.614 88.896 503.634 87.876 502.914 86.636C502.234 85.356 501.954 83.736 502.074 81.776C502.274 78.896 503.654 76.636 506.214 74.996C508.774 73.356 512.254 72.536 516.654 72.536C519.094 72.536 521.374 72.976 523.494 73.856C525.614 74.696 527.334 75.996 528.654 77.756C529.974 79.516 530.634 81.736 530.634 84.416H523.614C523.614 82.976 523.174 81.896 522.294 81.176C521.414 80.456 520.354 79.976 519.114 79.736C517.914 79.456 516.834 79.316 515.874 79.316C514.114 79.316 512.654 79.596 511.494 80.156C510.374 80.676 509.814 81.516 509.814 82.676C509.814 83.676 510.194 84.476 510.954 85.076C511.754 85.676 512.814 86.156 514.134 86.516C515.454 86.876 516.874 87.216 518.394 87.536C519.954 87.816 521.494 88.176 523.014 88.616C524.574 89.056 525.974 89.676 527.214 90.476C528.454 91.236 529.434 92.256 530.154 93.536C530.874 94.776 531.174 96.396 531.054 98.396C530.854 101.276 529.414 103.536 526.734 105.176C524.054 106.776 520.594 107.576 516.354 107.576Z" fill="#133063"/>
</svg>
