<svg width="908" height="113" viewBox="0 0 908 113" fill="none" xmlns="http://www.w3.org/2000/svg">
<path d="M390.534 23.4809C388.554 23.4809 387.043 22.9015 386.002 21.7429C384.961 20.5695 384.44 18.9929 384.44 17.0129C384.44 15.7075 384.66 14.5782 385.1 13.6249C385.555 12.6569 386.229 11.9089 387.124 11.3809C388.033 10.8382 389.17 10.5669 390.534 10.5669C392.514 10.5669 394.017 11.1535 395.044 12.3269C396.085 13.4855 396.606 15.0475 396.606 17.0129C396.606 18.2889 396.371 19.4182 395.902 20.4009C395.447 21.3689 394.765 22.1242 393.856 22.6669C392.961 23.2095 391.854 23.4809 390.534 23.4809ZM390.512 21.7209C391.935 21.7209 393.005 21.2809 393.724 20.4009C394.443 19.5209 394.802 18.3915 394.802 17.0129C394.802 15.6342 394.443 14.5049 393.724 13.6249C393.02 12.7302 391.949 12.2829 390.512 12.2829C389.104 12.2829 388.033 12.7082 387.3 13.5589C386.581 14.4095 386.222 15.5609 386.222 17.0129C386.222 17.9222 386.376 18.7362 386.684 19.4549C386.992 20.1589 387.461 20.7162 388.092 21.1269C388.737 21.5229 389.544 21.7209 390.512 21.7209ZM408.316 23.4809C406.615 23.4809 405.31 22.9969 404.4 22.0289C403.506 21.0462 403.058 19.6675 403.058 17.8929V10.7869H404.972V17.8709C404.972 18.8242 405.126 19.5869 405.434 20.1589C405.742 20.7162 406.146 21.1195 406.644 21.3689C407.158 21.6182 407.715 21.7429 408.316 21.7429C408.976 21.7429 409.556 21.6255 410.054 21.3909C410.568 21.1415 410.964 20.7382 411.242 20.1809C411.536 19.6089 411.682 18.8389 411.682 17.8709V10.7869H413.596V17.8929C413.596 19.6969 413.149 21.0829 412.254 22.0509C411.374 23.0042 410.062 23.4809 408.316 23.4809ZM420.481 23.1729V10.7869H424.815C426.399 10.7869 427.623 11.0509 428.489 11.5789C429.369 12.0922 429.809 13.0235 429.809 14.3729C429.809 15.3115 429.567 16.0962 429.083 16.7269C428.613 17.3575 427.902 17.6729 426.949 17.6729C427.521 17.6729 427.946 17.7975 428.225 18.0469C428.503 18.2962 428.694 18.6115 428.797 18.9929C428.899 19.3595 428.965 19.7409 428.995 20.1369C429.024 20.5329 429.068 20.8922 429.127 21.2149C429.185 21.5375 429.303 21.7722 429.479 21.9189C429.655 22.0509 429.955 22.0362 430.381 21.8749V22.9749C430.175 23.1509 429.904 23.2682 429.567 23.3269C429.244 23.4002 428.921 23.3782 428.599 23.2609C428.276 23.1582 427.997 22.9382 427.763 22.6009C427.543 22.2489 427.433 21.7429 427.433 21.0829C427.433 20.3055 427.389 19.6969 427.301 19.2569C427.213 18.8169 427.007 18.4942 426.685 18.2889C426.362 18.0835 425.856 17.9662 425.167 17.9369C424.477 17.8929 423.531 17.8929 422.329 17.9369V23.1729H420.481ZM422.329 16.5729H424.881C425.629 16.5729 426.245 16.5289 426.729 16.4409C427.213 16.3382 427.572 16.1402 427.807 15.8469C428.056 15.5535 428.181 15.1062 428.181 14.5049C428.181 13.8155 428.034 13.3169 427.741 13.0089C427.447 12.7009 427.015 12.5102 426.443 12.4369C425.885 12.3489 425.203 12.3049 424.397 12.3049H422.329V16.5729ZM446.21 23.1729V10.7869H450.896C451.38 10.7869 451.901 10.8235 452.458 10.8969C453.015 10.9555 453.536 11.0949 454.02 11.3149C454.504 11.5202 454.9 11.8429 455.208 12.2829C455.516 12.7229 455.67 13.3169 455.67 14.0649C455.67 14.5342 455.575 14.9742 455.384 15.3849C455.208 15.7809 454.878 16.1035 454.394 16.3529C453.91 16.6022 453.221 16.7415 452.326 16.7709V16.8589C453.367 16.8735 454.167 17.0202 454.724 17.2989C455.296 17.5775 455.692 17.9442 455.912 18.3989C456.132 18.8389 456.242 19.3302 456.242 19.8729C456.242 20.6502 456.073 21.2589 455.736 21.6989C455.399 22.1389 454.966 22.4689 454.438 22.6889C453.91 22.8942 453.345 23.0262 452.744 23.0849C452.157 23.1435 451.6 23.1729 451.072 23.1729H446.21ZM448.014 16.0669H450.676C451.277 16.0669 451.813 16.0375 452.282 15.9789C452.766 15.9055 453.147 15.7369 453.426 15.4729C453.705 15.2089 453.844 14.7982 453.844 14.2409C453.844 13.6395 453.697 13.2069 453.404 12.9429C453.111 12.6642 452.722 12.4882 452.238 12.4149C451.754 12.3415 451.241 12.3049 450.698 12.3049H448.014V16.0669ZM448.014 21.6769H450.918C451.549 21.6769 452.121 21.6402 452.634 21.5669C453.147 21.4789 453.558 21.2955 453.866 21.0169C454.189 20.7235 454.35 20.2689 454.35 19.6529C454.35 19.0222 454.181 18.5529 453.844 18.2449C453.521 17.9369 453.081 17.7389 452.524 17.6509C451.981 17.5482 451.387 17.4969 450.742 17.4969H448.014V21.6769ZM462.838 23.1729V10.7869H464.664V21.5889H471.154V23.1729H462.838ZM482.547 23.4809C480.567 23.4809 479.057 22.9015 478.015 21.7429C476.974 20.5695 476.453 18.9929 476.453 17.0129C476.453 15.7075 476.673 14.5782 477.113 13.6249C477.568 12.6569 478.243 11.9089 479.137 11.3809C480.047 10.8382 481.183 10.5669 482.547 10.5669C484.527 10.5669 486.031 11.1535 487.057 12.3269C488.099 13.4855 488.619 15.0475 488.619 17.0129C488.619 18.2889 488.385 19.4182 487.915 20.4009C487.461 21.3689 486.779 22.1242 485.869 22.6669C484.975 23.2095 483.867 23.4809 482.547 23.4809ZM482.525 21.7209C483.948 21.7209 485.019 21.2809 485.737 20.4009C486.456 19.5209 486.815 18.3915 486.815 17.0129C486.815 15.6342 486.456 14.5049 485.737 13.6249C485.033 12.7302 483.963 12.2829 482.525 12.2829C481.117 12.2829 480.047 12.7082 479.313 13.5589C478.595 14.4095 478.235 15.5609 478.235 17.0129C478.235 17.9222 478.389 18.7362 478.697 19.4549C479.005 20.1589 479.475 20.7162 480.105 21.1269C480.751 21.5229 481.557 21.7209 482.525 21.7209ZM500.2 23.4369C498.997 23.4369 497.949 23.1875 497.054 22.6889C496.174 22.1902 495.492 21.4715 495.008 20.5329C494.524 19.5795 494.289 18.4135 494.304 17.0349C494.319 15.6562 494.583 14.4902 495.096 13.5369C495.624 12.5689 496.35 11.8355 497.274 11.3369C498.198 10.8235 499.276 10.5669 500.508 10.5669C502.121 10.5669 503.397 10.9335 504.336 11.6669C505.275 12.3855 505.891 13.4415 506.184 14.8349L504.424 15.0769C504.189 14.0795 503.713 13.3682 502.994 12.9429C502.275 12.5029 501.447 12.2829 500.508 12.2829C499.012 12.2829 497.905 12.7009 497.186 13.5369C496.482 14.3582 496.115 15.4875 496.086 16.9249C496.086 18.4355 496.482 19.6089 497.274 20.4449C498.081 21.2662 499.21 21.6769 500.662 21.6769C501.659 21.6769 502.525 21.4275 503.258 20.9289C503.991 20.4155 504.446 19.6309 504.622 18.5749H501.564V17.1889H506.426V23.1729H505.172L504.754 20.7309H504.71C504.563 21.1122 504.307 21.5155 503.94 21.9409C503.588 22.3515 503.097 22.7035 502.466 22.9969C501.85 23.2902 501.095 23.4369 500.2 23.4369ZM517.761 23.4369C516.866 23.4369 516.008 23.2975 515.187 23.0189C514.365 22.7255 513.691 22.2709 513.163 21.6549C512.649 21.0242 512.385 20.2102 512.371 19.2129H514.219C514.219 19.2715 514.241 19.4402 514.285 19.7189C514.343 19.9829 514.483 20.2762 514.703 20.5989C514.937 20.9069 515.304 21.1782 515.803 21.4129C516.301 21.6475 516.998 21.7649 517.893 21.7649C518.611 21.7649 519.176 21.6622 519.587 21.4569C520.012 21.2515 520.305 21.0095 520.467 20.7309C520.643 20.4522 520.738 20.2029 520.753 19.9829C520.753 19.5282 520.606 19.1615 520.313 18.8829C520.034 18.6042 519.653 18.3842 519.169 18.2229C518.685 18.0469 518.149 17.8929 517.563 17.7609C516.991 17.6142 516.419 17.4602 515.847 17.2989C515.275 17.1229 514.747 16.8955 514.263 16.6169C513.793 16.3382 513.419 15.9789 513.141 15.5389C512.877 15.0842 512.767 14.5049 512.811 13.8009C512.855 12.7889 513.331 11.9969 514.241 11.4249C515.165 10.8529 516.353 10.5669 517.805 10.5669C518.655 10.5669 519.447 10.7209 520.181 11.0289C520.914 11.3369 521.501 11.7989 521.941 12.4149C522.381 13.0309 522.601 13.8009 522.601 14.7249H520.819C520.819 14.2115 520.709 13.8009 520.489 13.4929C520.269 13.1702 519.99 12.9209 519.653 12.7449C519.315 12.5689 518.963 12.4515 518.597 12.3929C518.23 12.3195 517.9 12.2829 517.607 12.2829C516.771 12.2829 516.081 12.4369 515.539 12.7449C515.011 13.0529 514.747 13.4709 514.747 13.9989C514.732 14.4682 514.871 14.8422 515.165 15.1209C515.458 15.3995 515.847 15.6195 516.331 15.7809C516.815 15.9422 517.343 16.0889 517.915 16.2209C518.501 16.3529 519.081 16.4995 519.653 16.6609C520.239 16.8222 520.767 17.0422 521.237 17.3209C521.721 17.5849 522.095 17.9515 522.359 18.4209C522.637 18.8755 522.762 19.4549 522.733 20.1589C522.689 20.8482 522.447 21.4422 522.007 21.9409C521.581 22.4249 521.002 22.7989 520.269 23.0629C519.535 23.3122 518.699 23.4369 517.761 23.4369Z" fill="url(#paint0_linear_243_686)"/>
<path d="M227.869 100.013C222.349 100.013 218.129 98.4329 215.209 95.2729C212.289 92.0729 210.829 87.7729 210.829 82.3729C210.829 78.8129 211.449 75.7329 212.689 73.1329C213.969 70.4929 215.869 68.4529 218.389 67.0129C220.909 65.5329 224.069 64.7929 227.869 64.7929C233.429 64.7929 237.649 66.3929 240.529 69.5928C243.409 72.7528 244.849 77.0129 244.849 82.3729C244.849 85.8529 244.209 88.9329 242.929 91.6129C241.649 94.2529 239.749 96.3129 237.229 97.7929C234.709 99.2729 231.589 100.013 227.869 100.013ZM227.809 92.9929C230.009 92.9929 231.849 92.5329 233.329 91.6129C234.809 90.6529 235.909 89.3729 236.629 87.7729C237.349 86.1729 237.709 84.3729 237.709 82.3729C237.709 80.3729 237.349 78.5529 236.629 76.9129C235.909 75.2728 234.809 73.9728 233.329 73.0129C231.849 72.0529 230.009 71.5729 227.809 71.5729C224.569 71.5729 222.109 72.5929 220.429 74.6329C218.749 76.6329 217.909 79.2129 217.909 82.3729C217.909 84.3329 218.269 86.1129 218.989 87.7129C219.709 89.3129 220.789 90.5929 222.229 91.5529C223.709 92.5129 225.569 92.9929 227.809 92.9929ZM265.492 100.013C260.572 100.013 256.832 98.6929 254.272 96.0529C251.752 93.3729 250.492 89.6129 250.492 84.7729V65.3929H258.232V84.7129C258.232 87.0729 258.612 88.8529 259.372 90.0529C260.172 91.2529 261.132 92.0729 262.252 92.5129C263.372 92.9129 264.452 93.1129 265.492 93.1129C266.692 93.1129 267.852 92.9129 268.972 92.5129C270.092 92.0729 271.012 91.2529 271.732 90.0529C272.452 88.8529 272.812 87.0729 272.812 84.7129V65.3929H280.552V84.7729C280.552 89.6929 279.292 93.4729 276.772 96.1129C274.292 98.7129 270.532 100.013 265.492 100.013ZM286.76 99.1729V65.3929H299.84C304.24 65.3929 307.68 66.1528 310.16 67.6728C312.68 69.1528 313.94 71.7528 313.94 75.4729C313.94 78.3529 313.26 80.6329 311.9 82.3129C310.58 83.9929 308.74 84.8329 306.38 84.8329C307.62 84.8329 308.56 85.1329 309.2 85.7329C309.84 86.2929 310.28 86.9929 310.52 87.8329C310.8 88.6729 311 89.5529 311.12 90.4729C311.28 91.3529 311.48 92.1529 311.72 92.8729C311.96 93.5529 312.36 94.0329 312.92 94.3129C313.52 94.5529 314.4 94.4329 315.56 93.9529V97.9729C314.64 98.7729 313.58 99.2929 312.38 99.5329C311.18 99.8129 310.02 99.7529 308.9 99.3529C307.78 98.9529 306.84 98.1729 306.08 97.0129C305.36 95.8129 305 94.1729 305 92.0929C305 90.7329 304.9 89.5929 304.7 88.6729C304.54 87.7529 304.12 87.0329 303.44 86.5129C302.76 85.9929 301.68 85.6529 300.2 85.4929C298.72 85.3329 296.66 85.3329 294.02 85.4929V99.1729H286.76ZM294.02 80.3329H299.18C301.06 80.3329 302.6 80.2729 303.8 80.1529C305.04 80.0329 305.96 79.6929 306.56 79.1329C307.16 78.5329 307.46 77.5129 307.46 76.0729C307.46 74.4329 307.1 73.2928 306.38 72.6528C305.66 71.9729 304.58 71.5729 303.14 71.4529C301.74 71.3328 300.02 71.2728 297.98 71.2728H294.02V80.3329ZM333.823 99.1729V65.3929H341.083V92.9929H356.683V99.1729H333.823ZM359.484 99.1729L369.744 65.3929H381.684L392.244 99.1729H384.504L381.984 90.1729H369.744L367.284 99.1729H359.484ZM375.864 68.3929L371.304 84.5929H380.424L375.864 68.3929ZM392.403 71.5729V65.3929H418.803V71.5729H409.203V99.1729H401.943V71.5729H392.403ZM431.3 93.3529H449.66V99.1729H424.22V65.3929H449.06V71.5729H431.3V79.1329H444.74V85.0129H431.3V93.3529ZM468.543 99.8329C466.663 99.8329 464.823 99.6129 463.023 99.1729C461.223 98.7329 459.583 98.0329 458.103 97.0729C456.623 96.1129 455.443 94.8729 454.563 93.3529C453.723 91.8329 453.303 89.9929 453.303 87.8329H460.563C460.563 88.0329 460.643 88.4329 460.803 89.0329C460.963 89.5929 461.323 90.2129 461.883 90.8929C462.443 91.5329 463.303 92.0929 464.463 92.5729C465.623 93.0129 467.163 93.2329 469.083 93.2329C470.843 93.2329 472.283 92.9529 473.403 92.3929C474.563 91.7929 475.163 90.9329 475.203 89.8129C475.203 88.8529 474.803 88.0929 474.003 87.5329C473.243 86.9729 472.223 86.5129 470.943 86.1529C469.663 85.7529 468.243 85.3929 466.683 85.0729C465.163 84.7529 463.643 84.3529 462.123 83.8729C460.643 83.3929 459.283 82.7529 458.043 81.9529C456.803 81.1529 455.823 80.1329 455.103 78.8928C454.423 77.6129 454.143 75.9929 454.263 74.0328C454.463 71.1528 455.843 68.8929 458.403 67.2529C460.963 65.6129 464.443 64.7929 468.843 64.7929C471.283 64.7929 473.563 65.2329 475.683 66.1129C477.803 66.9529 479.523 68.2528 480.843 70.0128C482.163 71.7728 482.823 73.9928 482.823 76.6728H475.803C475.803 75.2329 475.363 74.1529 474.483 73.4329C473.603 72.7129 472.543 72.2329 471.303 71.9929C470.103 71.7129 469.023 71.5729 468.063 71.5729C466.303 71.5729 464.843 71.8529 463.683 72.4129C462.563 72.9329 462.003 73.7729 462.003 74.9329C462.003 75.9329 462.383 76.7329 463.143 77.3329C463.943 77.9329 465.003 78.4129 466.323 78.7729C467.643 79.1329 469.063 79.4729 470.583 79.7929C472.143 80.0729 473.683 80.4329 475.203 80.8729C476.763 81.3129 478.163 81.9329 479.403 82.7329C480.643 83.4929 481.623 84.5129 482.343 85.7929C483.063 87.0329 483.363 88.6529 483.243 90.6529C483.043 93.5329 481.603 95.7929 478.923 97.4329C476.243 99.0329 472.783 99.8329 468.543 99.8329ZM486.563 71.5729V65.3929H512.963V71.5729H503.363V99.1729H496.103V71.5729H486.563ZM529.983 99.1729V65.3929H543.963C545.043 65.3929 546.343 65.4729 547.863 65.6329C549.383 65.7528 550.863 66.0928 552.303 66.6528C553.783 67.1728 555.003 68.0328 555.963 69.2329C556.923 70.4329 557.403 72.1129 557.403 74.2729C557.403 75.5529 557.143 76.7529 556.623 77.8729C556.143 78.9529 555.223 79.8529 553.863 80.5729C552.503 81.2529 550.583 81.6529 548.103 81.7729V82.0129C550.983 82.0929 553.203 82.4929 554.763 83.2129C556.363 83.9329 557.463 84.8929 558.063 86.0929C558.703 87.2529 559.023 88.5529 559.023 89.9929C559.023 91.7929 558.683 93.2729 558.003 94.4329C557.323 95.5529 556.423 96.4529 555.303 97.1329C554.183 97.7729 552.943 98.2329 551.583 98.5129C550.263 98.7929 548.943 98.9729 547.623 99.0529C546.343 99.1329 545.163 99.1729 544.083 99.1729H529.983ZM537.063 79.0129H543.003C544.243 79.0129 545.403 78.9529 546.483 78.8329C547.603 78.7129 548.503 78.3929 549.183 77.8729C549.903 77.3129 550.263 76.3929 550.263 75.1129C550.263 73.8729 549.923 72.9929 549.243 72.4729C548.563 71.9129 547.663 71.5729 546.543 71.4529C545.463 71.3328 544.303 71.2728 543.063 71.2728H537.063V79.0129ZM537.123 93.3529H543.423C544.863 93.3529 546.203 93.2929 547.443 93.1729C548.683 93.0129 549.683 92.6329 550.443 92.0329C551.203 91.3929 551.583 90.3729 551.583 88.9729C551.583 87.5729 551.183 86.5529 550.383 85.9129C549.623 85.2729 548.603 84.8729 547.323 84.7129C546.083 84.5529 544.743 84.4729 543.303 84.4729H537.123V93.3529ZM564.859 99.1729V65.3929H572.119V92.9929H587.719V99.1729H564.859ZM607.322 100.013C601.802 100.013 597.582 98.4329 594.662 95.2729C591.742 92.0729 590.282 87.7729 590.282 82.3729C590.282 78.8129 590.902 75.7329 592.142 73.1329C593.422 70.4929 595.322 68.4529 597.842 67.0129C600.362 65.5329 603.522 64.7929 607.322 64.7929C612.882 64.7929 617.102 66.3929 619.982 69.5928C622.862 72.7528 624.302 77.0129 624.302 82.3729C624.302 85.8529 623.662 88.9329 622.382 91.6129C621.102 94.2529 619.202 96.3129 616.682 97.7929C614.162 99.2729 611.042 100.013 607.322 100.013ZM607.262 92.9929C609.462 92.9929 611.302 92.5329 612.782 91.6129C614.262 90.6529 615.362 89.3729 616.082 87.7729C616.802 86.1729 617.162 84.3729 617.162 82.3729C617.162 80.3729 616.802 78.5529 616.082 76.9129C615.362 75.2728 614.262 73.9728 612.782 73.0129C611.302 72.0529 609.462 71.5729 607.262 71.5729C604.022 71.5729 601.562 72.5929 599.882 74.6329C598.202 76.6329 597.362 79.2129 597.362 82.3729C597.362 84.3329 597.722 86.1129 598.442 87.7129C599.162 89.3129 600.242 90.5929 601.682 91.5529C603.162 92.5129 605.022 92.9929 607.262 92.9929ZM643.636 99.8329C640.316 99.8329 637.416 99.1729 634.936 97.8529C632.456 96.5329 630.536 94.5929 629.176 92.0329C627.856 89.4329 627.236 86.2529 627.316 82.4928C627.396 78.6529 628.196 75.4329 629.716 72.8329C631.236 70.1929 633.276 68.1929 635.836 66.8328C638.436 65.4729 641.416 64.7929 644.776 64.7929C649.536 64.7929 653.176 65.7929 655.696 67.7929C658.216 69.7929 659.916 72.6929 660.796 76.4929L653.776 77.5729C653.416 76.0529 652.756 74.8528 651.796 73.9729C650.876 73.0928 649.796 72.4728 648.556 72.1128C647.316 71.7529 646.056 71.5729 644.776 71.5729C641.176 71.5729 638.556 72.5329 636.916 74.4528C635.316 76.3729 634.496 78.8729 634.456 81.9529C634.456 85.4729 635.416 88.1529 637.336 89.9929C639.296 91.8329 642.076 92.7529 645.676 92.7529C647.596 92.7529 649.416 92.3529 651.136 91.5529C652.896 90.7529 654.096 89.3329 654.736 87.2929H648.316V82.0728H661.456V99.1729H656.596L654.976 94.0729H654.856C654.176 95.5129 652.896 96.8329 651.016 98.0329C649.136 99.2329 646.676 99.8329 643.636 99.8329ZM680.711 99.8329C678.831 99.8329 676.991 99.6129 675.191 99.1729C673.391 98.7329 671.751 98.0329 670.271 97.0729C668.791 96.1129 667.611 94.8729 666.731 93.3529C665.891 91.8329 665.471 89.9929 665.471 87.8329H672.731C672.731 88.0329 672.811 88.4329 672.971 89.0329C673.131 89.5929 673.491 90.2129 674.051 90.8929C674.611 91.5329 675.471 92.0929 676.631 92.5729C677.791 93.0129 679.331 93.2329 681.251 93.2329C683.011 93.2329 684.451 92.9529 685.571 92.3929C686.731 91.7929 687.331 90.9329 687.371 89.8129C687.371 88.8529 686.971 88.0929 686.171 87.5329C685.411 86.9729 684.391 86.5129 683.111 86.1529C681.831 85.7529 680.411 85.3929 678.851 85.0729C677.331 84.7529 675.811 84.3529 674.291 83.8729C672.811 83.3929 671.451 82.7529 670.211 81.9529C668.971 81.1529 667.991 80.1329 667.271 78.8928C666.591 77.6129 666.311 75.9929 666.431 74.0328C666.631 71.1528 668.011 68.8929 670.571 67.2529C673.131 65.6129 676.611 64.7929 681.011 64.7929C683.451 64.7929 685.731 65.2329 687.851 66.1129C689.971 66.9529 691.691 68.2528 693.011 70.0128C694.331 71.7728 694.991 73.9928 694.991 76.6728H687.971C687.971 75.2329 687.531 74.1529 686.651 73.4329C685.771 72.7129 684.711 72.2329 683.471 71.9929C682.271 71.7129 681.191 71.5729 680.231 71.5729C678.471 71.5729 677.011 71.8529 675.851 72.4129C674.731 72.9329 674.171 73.7729 674.171 74.9329C674.171 75.9329 674.551 76.7329 675.311 77.3329C676.111 77.9329 677.171 78.4129 678.491 78.7729C679.811 79.1329 681.231 79.4729 682.751 79.7929C684.311 80.0729 685.851 80.4329 687.371 80.8729C688.931 81.3129 690.331 81.9329 691.571 82.7329C692.811 83.4929 693.791 84.5129 694.511 85.7929C695.231 87.0329 695.531 88.6529 695.411 90.6529C695.211 93.5329 693.771 95.7929 691.091 97.4329C688.411 99.0329 684.951 99.8329 680.711 99.8329Z" fill="#133063"/>
<defs>
<linearGradient id="paint0_linear_243_686" x1="415.841" y1="15.1728" x2="512.529" y2="15.1728" gradientUnits="userSpaceOnUse">
<stop stop-color="#133063"/>
<stop offset="1" stop-color="#4FA0CA"/>
</linearGradient>
</defs>
</svg>
