<svg width="1575" height="235" viewBox="0 0 1575 235" fill="none" xmlns="http://www.w3.org/2000/svg">
<path d="M447.808 23V10.614H452.494C452.978 10.614 453.499 10.6507 454.056 10.724C454.614 10.7827 455.134 10.922 455.618 11.142C456.102 11.3473 456.498 11.67 456.806 12.11C457.114 12.55 457.268 13.144 457.268 13.892C457.268 14.3613 457.173 14.8013 456.982 15.212C456.806 15.608 456.476 15.9307 455.992 16.18C455.508 16.4293 454.819 16.5687 453.924 16.598V16.686C454.966 16.7007 455.765 16.8473 456.322 17.126C456.894 17.4047 457.29 17.7713 457.51 18.226C457.73 18.666 457.84 19.1573 457.84 19.7C457.84 20.4773 457.672 21.086 457.334 21.526C456.997 21.966 456.564 22.296 456.036 22.516C455.508 22.7213 454.944 22.8533 454.342 22.912C453.756 22.9707 453.198 23 452.67 23H447.808ZM449.612 15.894H452.274C452.876 15.894 453.411 15.8647 453.88 15.806C454.364 15.7327 454.746 15.564 455.024 15.3C455.303 15.036 455.442 14.6253 455.442 14.068C455.442 13.4667 455.296 13.034 455.002 12.77C454.709 12.4913 454.32 12.3153 453.836 12.242C453.352 12.1687 452.839 12.132 452.296 12.132H449.612V15.894ZM449.612 21.504H452.516C453.147 21.504 453.719 21.4673 454.232 21.394C454.746 21.306 455.156 21.1227 455.464 20.844C455.787 20.5507 455.948 20.096 455.948 19.48C455.948 18.8493 455.78 18.38 455.442 18.072C455.12 17.764 454.68 17.566 454.122 17.478C453.58 17.3753 452.986 17.324 452.34 17.324H449.612V21.504ZM466.02 21.504H473.016V23H464.216V10.614H472.796V12.198H466.02V15.96H471.3V17.478H466.02V21.504ZM494.021 23.308C492.32 23.308 491.015 22.824 490.105 21.856C489.211 20.8733 488.763 19.4947 488.763 17.72V10.614H490.677V17.698C490.677 18.6513 490.831 19.414 491.139 19.986C491.447 20.5433 491.851 20.9467 492.349 21.196C492.863 21.4453 493.42 21.57 494.021 21.57C494.681 21.57 495.261 21.4527 495.759 21.218C496.273 20.9687 496.669 20.5653 496.947 20.008C497.241 19.436 497.387 18.666 497.387 17.698V10.614H499.301V17.72C499.301 19.524 498.854 20.91 497.959 21.878C497.079 22.8313 495.767 23.308 494.021 23.308ZM508.034 23H506.208V10.614H511.048C512.412 10.614 513.468 10.9513 514.216 11.626C514.964 12.3007 515.338 13.3127 515.338 14.662C515.338 15.8793 514.949 16.8253 514.172 17.5C513.409 18.1747 512.368 18.512 511.048 18.512H508.034V23ZM510.828 12.132H508.034V17.126H510.828C511.708 17.126 512.397 16.9207 512.896 16.51C513.409 16.0993 513.666 15.476 513.666 14.64C513.666 13.7747 513.417 13.144 512.918 12.748C512.419 12.3373 511.723 12.132 510.828 12.132ZM532.523 16.796C532.523 18.424 532.208 19.6927 531.577 20.602C530.947 21.4967 530.059 22.12 528.915 22.472C527.786 22.824 526.459 23 524.933 23H521.589V10.614H524.933C526.459 10.614 527.786 10.8487 528.915 11.318C530.059 11.7727 530.947 12.4547 531.577 13.364C532.208 14.2733 532.523 15.4173 532.523 16.796ZM523.415 21.46H525.417C526.459 21.46 527.368 21.3427 528.145 21.108C528.923 20.8587 529.524 20.3967 529.949 19.722C530.375 19.0473 530.587 18.0647 530.587 16.774C530.587 15.234 530.118 14.09 529.179 13.342C528.241 12.5793 526.987 12.198 525.417 12.198H523.415V21.46ZM538.104 23L542.262 10.614H545.276L549.522 23H547.564L546.376 19.304H541.228L540.04 23H538.104ZM543.802 11.384L541.712 17.852H545.892L543.802 11.384ZM553.671 12.198V10.614H563.131V12.198H559.325V23H557.499V12.198H553.671ZM571.135 21.504H578.131V23H569.331V10.614H577.911V12.198H571.135V15.96H576.415V17.478H571.135V21.504ZM595.67 16.796C595.67 18.424 595.355 19.6927 594.724 20.602C594.093 21.4967 593.206 22.12 592.062 22.472C590.933 22.824 589.605 23 588.08 23H584.736V10.614H588.08C589.605 10.614 590.933 10.8487 592.062 11.318C593.206 11.7727 594.093 12.4547 594.724 13.364C595.355 14.2733 595.67 15.4173 595.67 16.796ZM586.562 21.46H588.564C589.605 21.46 590.515 21.3427 591.292 21.108C592.069 20.8587 592.671 20.3967 593.096 19.722C593.521 19.0473 593.734 18.0647 593.734 16.774C593.734 15.234 593.265 14.09 592.326 13.342C591.387 12.5793 590.133 12.198 588.564 12.198H586.562V21.46ZM616.773 23.308C614.793 23.308 613.282 22.7287 612.241 21.57C611.2 20.3967 610.679 18.82 610.679 16.84C610.679 15.5347 610.899 14.4053 611.339 13.452C611.794 12.484 612.468 11.736 613.363 11.208C614.272 10.6653 615.409 10.394 616.773 10.394C618.753 10.394 620.256 10.9807 621.283 12.154C622.324 13.3127 622.845 14.8747 622.845 16.84C622.845 18.116 622.61 19.2453 622.141 20.228C621.686 21.196 621.004 21.9513 620.095 22.494C619.2 23.0367 618.093 23.308 616.773 23.308ZM616.751 21.548C618.174 21.548 619.244 21.108 619.963 20.228C620.682 19.348 621.041 18.2187 621.041 16.84C621.041 15.4613 620.682 14.332 619.963 13.452C619.259 12.5573 618.188 12.11 616.751 12.11C615.343 12.11 614.272 12.5353 613.539 13.386C612.82 14.2367 612.461 15.388 612.461 16.84C612.461 17.7493 612.615 18.5633 612.923 19.282C613.231 19.986 613.7 20.5433 614.331 20.954C614.976 21.35 615.783 21.548 616.751 21.548ZM637.946 10.614H639.816V23H636.362L631.148 11.428H631.104V23H629.234V10.614H632.468L637.902 22.186H637.946V10.614ZM655.112 12.198V10.614H664.572V12.198H660.766V23H658.94V12.198H655.112ZM672.559 23H670.733V10.614H672.559V15.938H679.027V10.614H680.831V23H679.027V17.368H672.559V23ZM689.63 21.504H696.626V23H687.826V10.614H696.406V12.198H689.63V15.96H694.91V17.478H689.63V21.504ZM712.637 23V10.614H714.463V21.416H720.953V23H712.637ZM726.337 23L730.495 10.614H733.509L737.755 23H735.797L734.609 19.304H729.461L728.273 23H726.337ZM732.035 11.384L729.945 17.852H734.125L732.035 11.384ZM741.905 12.198V10.614H751.365V12.198H747.559V23H745.733V12.198H741.905ZM759.368 21.504H766.364V23H757.564V10.614H766.144V12.198H759.368V15.96H764.648V17.478H759.368V21.504ZM777.545 23.264C776.651 23.264 775.793 23.1247 774.971 22.846C774.15 22.5527 773.475 22.098 772.947 21.482C772.434 20.8513 772.17 20.0373 772.155 19.04H774.003C774.003 19.0987 774.025 19.2673 774.069 19.546C774.128 19.81 774.267 20.1033 774.487 20.426C774.722 20.734 775.089 21.0053 775.587 21.24C776.086 21.4747 776.783 21.592 777.677 21.592C778.396 21.592 778.961 21.4893 779.371 21.284C779.797 21.0787 780.09 20.8367 780.251 20.558C780.427 20.2793 780.523 20.03 780.537 19.81C780.537 19.3553 780.391 18.9887 780.097 18.71C779.819 18.4313 779.437 18.2113 778.953 18.05C778.469 17.874 777.934 17.72 777.347 17.588C776.775 17.4413 776.203 17.2873 775.631 17.126C775.059 16.95 774.531 16.7227 774.047 16.444C773.578 16.1653 773.204 15.806 772.925 15.366C772.661 14.9113 772.551 14.332 772.595 13.628C772.639 12.616 773.116 11.824 774.025 11.252C774.949 10.68 776.137 10.394 777.589 10.394C778.44 10.394 779.232 10.548 779.965 10.856C780.699 11.164 781.285 11.626 781.725 12.242C782.165 12.858 782.385 13.628 782.385 14.552H780.603C780.603 14.0387 780.493 13.628 780.273 13.32C780.053 12.9973 779.775 12.748 779.437 12.572C779.1 12.396 778.748 12.2787 778.381 12.22C778.015 12.1467 777.685 12.11 777.391 12.11C776.555 12.11 775.866 12.264 775.323 12.572C774.795 12.88 774.531 13.298 774.531 13.826C774.517 14.2953 774.656 14.6693 774.949 14.948C775.243 15.2267 775.631 15.4467 776.115 15.608C776.599 15.7693 777.127 15.916 777.699 16.048C778.286 16.18 778.865 16.3267 779.437 16.488C780.024 16.6493 780.552 16.8693 781.021 17.148C781.505 17.412 781.879 17.7787 782.143 18.248C782.422 18.7027 782.547 19.282 782.517 19.986C782.473 20.6753 782.231 21.2693 781.791 21.768C781.366 22.252 780.787 22.626 780.053 22.89C779.32 23.1393 778.484 23.264 777.545 23.264ZM788.04 12.198V10.614H797.5V12.198H793.694V23H791.868V12.198H788.04ZM818.215 23.308C816.235 23.308 814.724 22.7287 813.683 21.57C812.641 20.3967 812.121 18.82 812.121 16.84C812.121 15.5347 812.341 14.4053 812.781 13.452C813.235 12.484 813.91 11.736 814.805 11.208C815.714 10.6653 816.851 10.394 818.215 10.394C820.195 10.394 821.698 10.9807 822.725 12.154C823.766 13.3127 824.287 14.8747 824.287 16.84C824.287 18.116 824.052 19.2453 823.583 20.228C823.128 21.196 822.446 21.9513 821.537 22.494C820.642 23.0367 819.535 23.308 818.215 23.308ZM818.193 21.548C819.615 21.548 820.686 21.108 821.405 20.228C822.123 19.348 822.483 18.2187 822.483 16.84C822.483 15.4613 822.123 14.332 821.405 13.452C820.701 12.5573 819.63 12.11 818.193 12.11C816.785 12.11 815.714 12.5353 814.981 13.386C814.262 14.2367 813.903 15.388 813.903 16.84C813.903 17.7493 814.057 18.5633 814.365 19.282C814.673 19.986 815.142 20.5433 815.773 20.954C816.418 21.35 817.225 21.548 818.193 21.548ZM839.387 10.614H841.257V23H837.803L832.589 11.428H832.545V23H830.675V10.614H833.909L839.343 22.186H839.387V10.614ZM862.934 23.22C861.79 23.22 860.748 22.9853 859.81 22.516C858.886 22.032 858.152 21.3207 857.61 20.382C857.082 19.4287 856.818 18.248 856.818 16.84C856.832 15.4467 857.104 14.2733 857.632 13.32C858.16 12.352 858.886 11.626 859.81 11.142C860.748 10.6433 861.819 10.394 863.022 10.394C864.62 10.394 865.911 10.8193 866.894 11.67C867.876 12.5207 868.485 13.6353 868.72 15.014H866.828C866.71 14.31 866.454 13.7453 866.058 13.32C865.676 12.8947 865.214 12.5867 864.672 12.396C864.144 12.2053 863.594 12.11 863.022 12.11C861.628 12.11 860.55 12.5133 859.788 13.32C859.025 14.112 858.644 15.2487 858.644 16.73C858.644 18.2847 859.018 19.4727 859.766 20.294C860.514 21.1007 861.577 21.504 862.956 21.504C863.909 21.504 864.76 21.2767 865.508 20.822C866.256 20.3527 866.718 19.5973 866.894 18.556H868.808C868.558 19.9347 867.942 21.0567 866.96 21.922C865.977 22.7873 864.635 23.22 862.934 23.22ZM875.334 23V10.614H877.16V21.416H883.65V23H875.334ZM891.63 21.504H898.626V23H889.826V10.614H898.406V12.198H891.63V15.96H896.91V17.478H891.63V21.504ZM904.219 23L908.377 10.614H911.391L915.637 23H913.679L912.491 19.304H907.343L906.155 23H904.219ZM909.917 11.384L907.827 17.852H912.007L909.917 11.384ZM930.305 10.614H932.175V23H928.721L923.507 11.428H923.463V23H921.593V10.614H924.827L930.261 22.186H930.305V10.614ZM944.314 21.416V23H939.144V21.416H940.838V12.198H939.144V10.614H944.314V12.198H942.642V21.416H944.314ZM960.095 10.614H961.965V23H958.511L953.297 11.428H953.253V23H951.383V10.614H954.617L960.051 22.186H960.095V10.614ZM974.038 23.264C972.835 23.264 971.786 23.0147 970.892 22.516C970.012 22.0173 969.33 21.2987 968.846 20.36C968.362 19.4067 968.127 18.2407 968.142 16.862C968.156 15.4833 968.42 14.3173 968.934 13.364C969.462 12.396 970.188 11.6627 971.112 11.164C972.036 10.6507 973.114 10.394 974.346 10.394C975.959 10.394 977.235 10.7607 978.174 11.494C979.112 12.2127 979.728 13.2687 980.022 14.662L978.262 14.904C978.027 13.9067 977.55 13.1953 976.832 12.77C976.113 12.33 975.284 12.11 974.346 12.11C972.85 12.11 971.742 12.528 971.024 13.364C970.32 14.1853 969.953 15.3147 969.924 16.752C969.924 18.2627 970.32 19.436 971.112 20.272C971.918 21.0933 973.048 21.504 974.5 21.504C975.497 21.504 976.362 21.2547 977.096 20.756C977.829 20.2427 978.284 19.458 978.46 18.402H975.402V17.016H980.264V23H979.01L978.592 20.558H978.548C978.401 20.9393 978.144 21.3427 977.778 21.768C977.426 22.1787 976.934 22.5307 976.304 22.824C975.688 23.1173 974.932 23.264 974.038 23.264ZM1008.04 23.044C1007.5 22.824 1006.99 22.5893 1006.5 22.34C1006.03 22.076 1005.54 21.768 1005.01 21.416C1004.41 22.0027 1003.72 22.4427 1002.94 22.736C1002.16 23.0293 1001.37 23.1833 1000.56 23.198C999.772 23.2127 999.039 23.088 998.364 22.824C997.69 22.5453 997.14 22.1347 996.714 21.592C996.304 21.0347 996.098 20.3453 996.098 19.524C996.098 18.952 996.208 18.468 996.428 18.072C996.648 17.676 996.92 17.3533 997.242 17.104C997.565 16.84 997.888 16.6273 998.21 16.466C998.533 16.29 998.79 16.1507 998.98 16.048C998.863 15.8867 998.694 15.6667 998.474 15.388C998.269 15.1093 998.078 14.7867 997.902 14.42C997.741 14.0387 997.66 13.6133 997.66 13.144C997.66 12.5573 997.814 12.066 998.122 11.67C998.43 11.2593 998.834 10.9513 999.332 10.746C999.831 10.5407 1000.36 10.438 1000.92 10.438C1001.47 10.4233 1002 10.5113 1002.5 10.702C1003 10.8927 1003.4 11.186 1003.71 11.582C1004.03 11.9633 1004.19 12.4473 1004.19 13.034C1004.19 13.5327 1004.06 13.98 1003.8 14.376C1003.55 14.7573 1003.24 15.0873 1002.87 15.366C1002.52 15.6447 1002.19 15.8647 1001.88 16.026C1001.59 16.1873 1001.4 16.29 1001.31 16.334C1001.47 16.5393 1001.71 16.8107 1002.02 17.148C1002.34 17.4707 1002.71 17.8153 1003.12 18.182C1003.54 18.534 1003.97 18.8713 1004.41 19.194C1004.58 18.9447 1004.73 18.6147 1004.88 18.204C1005.02 17.7933 1005.09 17.3753 1005.07 16.95C1005.07 16.5247 1004.93 16.158 1004.63 15.85L1006.17 14.816C1006.29 14.992 1006.42 15.2707 1006.55 15.652C1006.69 16.0333 1006.79 16.4807 1006.83 16.994C1006.89 17.5073 1006.86 18.0427 1006.75 18.6C1006.63 19.1573 1006.39 19.6927 1006.02 20.206C1006.45 20.4993 1006.86 20.7633 1007.25 20.998C1007.66 21.218 1008.15 21.438 1008.73 21.658L1008.04 23.044ZM1000.3 15.476C1000.4 15.432 1000.58 15.344 1000.83 15.212C1001.08 15.08 1001.33 14.9187 1001.6 14.728C1001.86 14.5373 1002.09 14.3247 1002.28 14.09C1002.49 13.8407 1002.6 13.5767 1002.61 13.298C1002.64 12.9167 1002.54 12.616 1002.32 12.396C1002.1 12.1613 1001.83 12.0073 1001.49 11.934C1001.17 11.846 1000.84 11.846 1000.5 11.934C1000.16 12.0073 999.875 12.1613 999.64 12.396C999.42 12.616 999.31 12.924 999.31 13.32C999.325 13.9507 999.655 14.6693 1000.3 15.476ZM1003.58 20.382C1002.92 19.8833 1002.27 19.326 1001.62 18.71C1000.97 18.094 1000.42 17.5 999.97 16.928C999.428 17.192 998.951 17.5 998.54 17.852C998.13 18.204 997.924 18.688 997.924 19.304C997.924 19.9493 998.122 20.4627 998.518 20.844C998.929 21.2107 999.442 21.4453 1000.06 21.548C1000.67 21.6507 1001.3 21.6067 1001.93 21.416C1002.57 21.2253 1003.12 20.8807 1003.58 20.382ZM1026.11 23H1024.28V10.614H1026.11V15.938H1032.58V10.614H1034.38V23H1032.58V17.368H1026.11V23ZM1044.53 23V18.556L1040.31 10.614H1042.35L1045.48 16.906L1048.58 10.614H1050.63L1046.36 18.534V23H1044.53ZM1061.15 23.264C1059.95 23.264 1058.9 23.0147 1058.01 22.516C1057.13 22.0173 1056.44 21.2987 1055.96 20.36C1055.48 19.4067 1055.24 18.2407 1055.26 16.862C1055.27 15.4833 1055.54 14.3173 1056.05 13.364C1056.58 12.396 1057.3 11.6627 1058.23 11.164C1059.15 10.6507 1060.23 10.394 1061.46 10.394C1063.07 10.394 1064.35 10.7607 1065.29 11.494C1066.23 12.2127 1066.84 13.2687 1067.14 14.662L1065.38 14.904C1065.14 13.9067 1064.67 13.1953 1063.95 12.77C1063.23 12.33 1062.4 12.11 1061.46 12.11C1059.96 12.11 1058.86 12.528 1058.14 13.364C1057.43 14.1853 1057.07 15.3147 1057.04 16.752C1057.04 18.2627 1057.43 19.436 1058.23 20.272C1059.03 21.0933 1060.16 21.504 1061.61 21.504C1062.61 21.504 1063.48 21.2547 1064.21 20.756C1064.94 20.2427 1065.4 19.458 1065.57 18.402H1062.52V17.016H1067.38V23H1066.12L1065.71 20.558H1065.66C1065.52 20.9393 1065.26 21.3427 1064.89 21.768C1064.54 22.1787 1064.05 22.5307 1063.42 22.824C1062.8 23.1173 1062.05 23.264 1061.15 23.264ZM1079.18 21.416V23H1074.01V21.416H1075.7V12.198H1074.01V10.614H1079.18V12.198H1077.5V21.416H1079.18ZM1088.05 21.504H1095.04V23H1086.24V10.614H1094.82V12.198H1088.05V15.96H1093.33V17.478H1088.05V21.504ZM1110.14 10.614H1112.01V23H1108.56L1103.34 11.428H1103.3V23H1101.43V10.614H1104.66L1110.1 22.186H1110.14V10.614ZM1120.7 21.504H1127.69V23H1118.89V10.614H1127.47V12.198H1120.7V15.96H1125.98V17.478H1120.7V21.504Z" fill="url(#paint0_linear_476_1426)"/>
<path d="M563.358 90.792C561.102 90.792 558.894 90.528 556.734 90C554.574 89.472 552.606 88.632 550.83 87.48C549.054 86.328 547.638 84.84 546.582 83.016C545.574 81.192 545.07 78.984 545.07 76.392H553.782C553.782 76.632 553.878 77.112 554.07 77.832C554.262 78.504 554.694 79.248 555.366 80.064C556.038 80.832 557.07 81.504 558.462 82.08C559.854 82.608 561.702 82.872 564.006 82.872C566.118 82.872 567.846 82.536 569.19 81.864C570.582 81.144 571.302 80.112 571.35 78.768C571.35 77.616 570.87 76.704 569.91 76.032C568.998 75.36 567.774 74.808 566.238 74.376C564.702 73.896 562.998 73.464 561.126 73.08C559.302 72.696 557.478 72.216 555.654 71.64C553.878 71.064 552.246 70.296 550.758 69.336C549.27 68.376 548.094 67.152 547.23 65.664C546.414 64.128 546.078 62.184 546.222 59.832C546.462 56.376 548.118 53.664 551.19 51.696C554.262 49.728 558.438 48.744 563.718 48.744C566.646 48.744 569.382 49.272 571.926 50.328C574.47 51.336 576.534 52.896 578.118 55.008C579.702 57.12 580.494 59.784 580.494 63H572.07C572.07 61.272 571.542 59.976 570.486 59.112C569.43 58.248 568.158 57.672 566.67 57.384C565.23 57.048 563.934 56.88 562.782 56.88C560.67 56.88 558.918 57.216 557.526 57.888C556.182 58.512 555.51 59.52 555.51 60.912C555.51 62.112 555.966 63.072 556.878 63.792C557.838 64.512 559.11 65.088 560.694 65.52C562.278 65.952 563.982 66.36 565.806 66.744C567.678 67.08 569.526 67.512 571.35 68.04C573.222 68.568 574.902 69.312 576.39 70.272C577.878 71.184 579.054 72.408 579.918 73.944C580.782 75.432 581.142 77.376 580.998 79.776C580.758 83.232 579.03 85.944 575.814 87.912C572.598 89.832 568.446 90.792 563.358 90.792ZM584.982 56.88V49.464H616.662V56.88H605.142V90H596.43V56.88H584.982ZM616.917 90L629.229 49.464H643.557L656.229 90H646.941L643.917 79.2H629.229L626.277 90H616.917ZM636.573 53.064L631.101 72.504H642.045L636.573 53.064ZM668.497 90V75.888L654.673 49.464H664.465L672.961 68.4L681.529 49.464H691.249L677.137 75.816V90H668.497ZM728.043 82.584V90H708.819V82.584H714.147V56.88H708.819V49.464H728.043V56.88H722.787V82.584H728.043ZM764.365 49.464H773.437V90H756.805L746.077 53.28H745.933V90H736.933V49.464H752.341L764.221 86.184H764.365V49.464ZM790.512 90H782.016V49.464H811.248V56.88H790.512V65.376H806.136V72.36H790.512V90ZM833.041 91.008C826.417 91.008 821.353 89.112 817.849 85.32C814.345 81.48 812.593 76.32 812.593 69.84C812.593 65.568 813.337 61.872 814.825 58.752C816.361 55.584 818.641 53.136 821.665 51.408C824.689 49.632 828.481 48.744 833.041 48.744C839.713 48.744 844.777 50.664 848.233 54.504C851.689 58.296 853.417 63.408 853.417 69.84C853.417 74.016 852.649 77.712 851.113 80.928C849.577 84.096 847.297 86.568 844.273 88.344C841.249 90.12 837.505 91.008 833.041 91.008ZM832.969 82.584C835.609 82.584 837.817 82.032 839.593 80.928C841.369 79.776 842.689 78.24 843.553 76.32C844.417 74.4 844.849 72.24 844.849 69.84C844.849 67.44 844.417 65.256 843.553 63.288C842.689 61.32 841.369 59.76 839.593 58.608C837.817 57.456 835.609 56.88 832.969 56.88C829.081 56.88 826.129 58.104 824.113 60.552C822.097 62.952 821.089 66.048 821.089 69.84C821.089 72.192 821.521 74.328 822.385 76.248C823.249 78.168 824.545 79.704 826.273 80.856C828.049 82.008 830.281 82.584 832.969 82.584ZM859.554 90V49.464H875.25C880.53 49.464 884.658 50.376 887.634 52.2C890.658 53.976 892.17 57.096 892.17 61.56C892.17 65.016 891.354 67.752 889.722 69.768C888.138 71.784 885.93 72.792 883.098 72.792C884.586 72.792 885.714 73.152 886.482 73.872C887.25 74.544 887.778 75.384 888.066 76.392C888.402 77.4 888.642 78.456 888.786 79.56C888.978 80.616 889.218 81.576 889.506 82.44C889.794 83.256 890.274 83.832 890.946 84.168C891.666 84.456 892.722 84.312 894.114 83.736V88.56C893.01 89.52 891.738 90.144 890.298 90.432C888.858 90.768 887.466 90.696 886.122 90.216C884.778 89.736 883.65 88.8 882.738 87.408C881.874 85.968 881.442 84 881.442 81.504C881.442 79.872 881.322 78.504 881.082 77.4C880.89 76.296 880.386 75.432 879.57 74.808C878.754 74.184 877.458 73.776 875.682 73.584C873.906 73.392 871.434 73.392 868.266 73.584V90H859.554ZM868.266 67.392H874.458C876.714 67.392 878.562 67.32 880.002 67.176C881.49 67.032 882.594 66.624 883.314 65.952C884.034 65.232 884.394 64.008 884.394 62.28C884.394 60.312 883.962 58.944 883.098 58.176C882.234 57.36 880.938 56.88 879.21 56.736C877.53 56.592 875.466 56.52 873.018 56.52H868.266V67.392ZM900.768 90V49.464H915.888L923.664 86.328H923.808L931.44 49.464H946.488V90H937.488L938.136 53.208H937.992L930 90H917.328L909.408 53.208H909.264L909.768 90H900.768ZM962.76 83.016H984.792V90H954.264V49.464H984.072V56.88H962.76V65.952H978.888V73.008H962.76V83.016ZM1028.91 69.696C1028.91 75.024 1027.85 79.176 1025.74 82.152C1023.63 85.08 1020.63 87.12 1016.74 88.272C1012.9 89.424 1008.39 90 1003.2 90H991.827V49.464H1003.2C1008.39 49.464 1012.9 50.232 1016.74 51.768C1020.63 53.256 1023.63 55.488 1025.74 58.464C1027.85 61.44 1028.91 65.184 1028.91 69.696ZM1000.4 82.872H1005.8C1008.63 82.872 1011.08 82.536 1013.14 81.864C1015.25 81.144 1016.86 79.848 1017.96 77.976C1019.12 76.056 1019.69 73.272 1019.69 69.624C1019.69 65.4 1018.44 62.232 1015.95 60.12C1013.45 58.008 1010.07 56.952 1005.8 56.952H1000.4V82.872Z" fill="#EDF5FA"/>
<path d="M330.345 164.848C330.345 167.512 329.829 169.588 328.797 171.076C327.765 172.54 326.313 173.56 324.441 174.136C322.593 174.712 320.421 175 317.925 175H312.453V154.732H317.925C320.421 154.732 322.593 155.116 324.441 155.884C326.313 156.628 327.765 157.744 328.797 159.232C329.829 160.72 330.345 162.592 330.345 164.848ZM315.441 172.48H318.717C320.421 172.48 321.909 172.288 323.181 171.904C324.453 171.496 325.437 170.74 326.133 169.636C326.829 168.532 327.177 166.924 327.177 164.812C327.177 162.292 326.409 160.42 324.873 159.196C323.337 157.948 321.285 157.324 318.717 157.324H315.441V172.48ZM342.178 172.408V175H333.718V172.408H336.49V157.324H333.718V154.732H342.178V157.324H339.442V172.408H342.178ZM354.394 175.432C352.93 175.432 351.526 175.204 350.182 174.748C348.838 174.268 347.734 173.524 346.87 172.516C346.03 171.484 345.598 170.152 345.574 168.52H348.598C348.598 168.616 348.634 168.892 348.706 169.348C348.802 169.78 349.03 170.26 349.39 170.788C349.774 171.292 350.374 171.736 351.19 172.12C352.006 172.504 353.146 172.696 354.61 172.696C355.786 172.696 356.71 172.528 357.382 172.192C358.078 171.856 358.558 171.46 358.822 171.004C359.11 170.548 359.266 170.14 359.29 169.78C359.29 169.036 359.05 168.436 358.57 167.98C358.114 167.524 357.49 167.164 356.698 166.9C355.906 166.612 355.03 166.36 354.07 166.144C353.134 165.904 352.198 165.652 351.262 165.388C350.326 165.1 349.462 164.728 348.67 164.272C347.902 163.816 347.29 163.228 346.834 162.508C346.402 161.764 346.222 160.816 346.294 159.664C346.366 158.008 347.146 156.712 348.634 155.776C350.146 154.84 352.09 154.372 354.466 154.372C355.858 154.372 357.154 154.624 358.354 155.128C359.554 155.632 360.514 156.388 361.234 157.396C361.954 158.404 362.314 159.664 362.314 161.176H359.398C359.398 160.336 359.218 159.664 358.858 159.16C358.498 158.632 358.042 158.224 357.49 157.936C356.938 157.648 356.362 157.456 355.762 157.36C355.162 157.24 354.622 157.18 354.142 157.18C352.774 157.18 351.646 157.432 350.758 157.936C349.894 158.44 349.462 159.124 349.462 159.988C349.438 160.756 349.666 161.368 350.146 161.824C350.626 162.28 351.262 162.64 352.054 162.904C352.846 163.168 353.71 163.408 354.646 163.624C355.606 163.84 356.554 164.08 357.49 164.344C358.45 164.608 359.314 164.968 360.082 165.424C360.874 165.856 361.486 166.456 361.918 167.224C362.374 167.968 362.578 168.916 362.53 170.068C362.458 171.196 362.062 172.168 361.342 172.984C360.646 173.776 359.698 174.388 358.498 174.82C357.298 175.228 355.93 175.432 354.394 175.432ZM374.808 175.36C372.936 175.36 371.232 174.976 369.696 174.208C368.184 173.416 366.984 172.252 366.096 170.716C365.232 169.156 364.8 167.224 364.8 164.92C364.824 162.64 365.268 160.72 366.132 159.16C366.996 157.576 368.184 156.388 369.696 155.596C371.232 154.78 372.984 154.372 374.952 154.372C377.568 154.372 379.68 155.068 381.288 156.46C382.896 157.852 383.892 159.676 384.276 161.932H381.18C380.988 160.78 380.568 159.856 379.92 159.16C379.296 158.464 378.54 157.96 377.652 157.648C376.788 157.336 375.888 157.18 374.952 157.18C372.672 157.18 370.908 157.84 369.66 159.16C368.412 160.456 367.788 162.316 367.788 164.74C367.788 167.284 368.4 169.228 369.624 170.572C370.848 171.892 372.588 172.552 374.844 172.552C376.404 172.552 377.796 172.18 379.02 171.436C380.244 170.668 381 169.432 381.288 167.728H384.42C384.012 169.984 383.004 171.82 381.396 173.236C379.788 174.652 377.592 175.36 374.808 175.36ZM396.251 175.504C393.011 175.504 390.539 174.556 388.835 172.66C387.131 170.74 386.279 168.16 386.279 164.92C386.279 162.784 386.639 160.936 387.359 159.376C388.103 157.792 389.207 156.568 390.671 155.704C392.159 154.816 394.019 154.372 396.251 154.372C399.491 154.372 401.951 155.332 403.631 157.252C405.335 159.148 406.187 161.704 406.187 164.92C406.187 167.008 405.803 168.856 405.035 170.464C404.291 172.048 403.175 173.284 401.687 174.172C400.223 175.06 398.411 175.504 396.251 175.504ZM396.215 172.624C398.543 172.624 400.295 171.904 401.471 170.464C402.647 169.024 403.235 167.176 403.235 164.92C403.235 162.664 402.647 160.816 401.471 159.376C400.319 157.912 398.567 157.18 396.215 157.18C393.911 157.18 392.159 157.876 390.959 159.268C389.783 160.66 389.195 162.544 389.195 164.92C389.195 166.408 389.447 167.74 389.951 168.916C390.455 170.068 391.223 170.98 392.255 171.652C393.311 172.3 394.631 172.624 396.215 172.624ZM422.945 154.732H426.221L419.309 175H414.305L407.393 154.732H410.633L416.789 173.668L422.945 154.732ZM432.045 172.552H443.493V175H429.093V154.732H443.133V157.324H432.045V163.48H440.685V165.964H432.045V172.552ZM446.886 175V154.732H453.978C456.57 154.732 458.574 155.164 459.99 156.028C461.43 156.868 462.15 158.392 462.15 160.6C462.15 162.136 461.754 163.42 460.962 164.452C460.194 165.484 459.03 166 457.47 166C458.406 166 459.102 166.204 459.558 166.612C460.014 167.02 460.326 167.536 460.494 168.16C460.662 168.76 460.77 169.384 460.818 170.032C460.866 170.68 460.938 171.268 461.034 171.796C461.13 172.324 461.322 172.708 461.61 172.948C461.898 173.164 462.39 173.14 463.086 172.876V174.676C462.75 174.964 462.306 175.156 461.754 175.252C461.226 175.372 460.698 175.336 460.17 175.144C459.642 174.976 459.186 174.616 458.802 174.064C458.442 173.488 458.262 172.66 458.262 171.58C458.262 170.308 458.19 169.312 458.046 168.592C457.902 167.872 457.566 167.344 457.038 167.008C456.51 166.672 455.682 166.48 454.554 166.432C453.426 166.36 451.878 166.36 449.91 166.432V175H446.886ZM449.91 164.2H454.086C455.31 164.2 456.318 164.128 457.11 163.984C457.902 163.816 458.49 163.492 458.874 163.012C459.282 162.532 459.486 161.8 459.486 160.816C459.486 159.688 459.246 158.872 458.766 158.368C458.286 157.864 457.578 157.552 456.642 157.432C455.73 157.288 454.614 157.216 453.294 157.216H449.91V164.2ZM472.86 157.324V154.732H488.34V157.324H482.112V175H479.124V157.324H472.86ZM494.209 175H491.221V154.732H494.209V163.444H504.793V154.732H507.745V175H504.793V165.784H494.209V175ZM514.944 172.552H526.392V175H511.992V154.732H526.032V157.324H514.944V163.48H523.584V165.964H514.944V172.552ZM538.192 175V154.732H541.18V172.408H551.8V175H538.192ZM553.411 175L560.215 154.732H565.147L572.095 175H568.891L566.947 168.952H558.523L556.579 175H553.411ZM562.735 155.992L559.315 166.576H566.155L562.735 155.992ZM571.684 157.324V154.732H587.164V157.324H580.936V175H577.948V157.324H571.684ZM593.061 172.552H604.509V175H590.109V154.732H604.149V157.324H593.061V163.48H601.701V165.964H593.061V172.552ZM615.605 175.432C614.141 175.432 612.737 175.204 611.393 174.748C610.049 174.268 608.945 173.524 608.081 172.516C607.241 171.484 606.809 170.152 606.785 168.52H609.809C609.809 168.616 609.845 168.892 609.917 169.348C610.013 169.78 610.241 170.26 610.601 170.788C610.985 171.292 611.585 171.736 612.401 172.12C613.217 172.504 614.357 172.696 615.821 172.696C616.997 172.696 617.921 172.528 618.593 172.192C619.289 171.856 619.769 171.46 620.033 171.004C620.321 170.548 620.477 170.14 620.501 169.78C620.501 169.036 620.261 168.436 619.781 167.98C619.325 167.524 618.701 167.164 617.909 166.9C617.117 166.612 616.241 166.36 615.281 166.144C614.345 165.904 613.409 165.652 612.473 165.388C611.537 165.1 610.673 164.728 609.881 164.272C609.113 163.816 608.501 163.228 608.045 162.508C607.613 161.764 607.433 160.816 607.505 159.664C607.577 158.008 608.357 156.712 609.845 155.776C611.357 154.84 613.301 154.372 615.677 154.372C617.069 154.372 618.365 154.624 619.565 155.128C620.765 155.632 621.725 156.388 622.445 157.396C623.165 158.404 623.525 159.664 623.525 161.176H620.609C620.609 160.336 620.429 159.664 620.069 159.16C619.709 158.632 619.253 158.224 618.701 157.936C618.149 157.648 617.573 157.456 616.973 157.36C616.373 157.24 615.833 157.18 615.353 157.18C613.985 157.18 612.857 157.432 611.969 157.936C611.105 158.44 610.673 159.124 610.673 159.988C610.649 160.756 610.877 161.368 611.357 161.824C611.837 162.28 612.473 162.64 613.265 162.904C614.057 163.168 614.921 163.408 615.857 163.624C616.817 163.84 617.765 164.08 618.701 164.344C619.661 164.608 620.525 164.968 621.293 165.424C622.085 165.856 622.697 166.456 623.129 167.224C623.585 167.968 623.789 168.916 623.741 170.068C623.669 171.196 623.273 172.168 622.553 172.984C621.857 173.776 620.909 174.388 619.709 174.82C618.509 175.228 617.141 175.432 615.605 175.432ZM625.579 157.324V154.732H641.059V157.324H634.831V175H631.843V157.324H625.579ZM660.447 172.408V175H651.987V172.408H654.759V157.324H651.987V154.732H660.447V157.324H657.711V172.408H660.447ZM679.072 154.732H682.132V175H676.48L667.948 156.064H667.876V175H664.816V154.732H670.108L679 173.668H679.072V154.732ZM689.611 175H686.659V154.732H700.879V157.324H689.611V163.048H698.359V165.532H689.611V175ZM712.059 175.504C708.819 175.504 706.347 174.556 704.643 172.66C702.939 170.74 702.087 168.16 702.087 164.92C702.087 162.784 702.447 160.936 703.167 159.376C703.911 157.792 705.015 156.568 706.479 155.704C707.967 154.816 709.827 154.372 712.059 154.372C715.299 154.372 717.759 155.332 719.439 157.252C721.143 159.148 721.995 161.704 721.995 164.92C721.995 167.008 721.611 168.856 720.843 170.464C720.099 172.048 718.983 173.284 717.495 174.172C716.031 175.06 714.219 175.504 712.059 175.504ZM712.023 172.624C714.351 172.624 716.103 171.904 717.279 170.464C718.455 169.024 719.043 167.176 719.043 164.92C719.043 162.664 718.455 160.816 717.279 159.376C716.127 157.912 714.375 157.18 712.023 157.18C709.719 157.18 707.967 157.876 706.767 159.268C705.591 160.66 705.003 162.544 705.003 164.92C705.003 166.408 705.255 167.74 705.759 168.916C706.263 170.068 707.031 170.98 708.063 171.652C709.119 172.3 710.439 172.624 712.023 172.624ZM725.394 175V154.732H732.486C735.078 154.732 737.082 155.164 738.498 156.028C739.938 156.868 740.658 158.392 740.658 160.6C740.658 162.136 740.262 163.42 739.47 164.452C738.702 165.484 737.538 166 735.978 166C736.914 166 737.61 166.204 738.066 166.612C738.522 167.02 738.834 167.536 739.002 168.16C739.17 168.76 739.278 169.384 739.326 170.032C739.374 170.68 739.446 171.268 739.542 171.796C739.638 172.324 739.83 172.708 740.118 172.948C740.406 173.164 740.898 173.14 741.594 172.876V174.676C741.258 174.964 740.814 175.156 740.262 175.252C739.734 175.372 739.206 175.336 738.678 175.144C738.15 174.976 737.694 174.616 737.31 174.064C736.95 173.488 736.77 172.66 736.77 171.58C736.77 170.308 736.698 169.312 736.554 168.592C736.41 167.872 736.074 167.344 735.546 167.008C735.018 166.672 734.19 166.48 733.062 166.432C731.934 166.36 730.386 166.36 728.418 166.432V175H725.394ZM728.418 164.2H732.594C733.818 164.2 734.826 164.128 735.618 163.984C736.41 163.816 736.998 163.492 737.382 163.012C737.79 162.532 737.994 161.8 737.994 160.816C737.994 159.688 737.754 158.872 737.274 158.368C736.794 157.864 736.086 157.552 735.15 157.432C734.238 157.288 733.122 157.216 731.802 157.216H728.418V164.2ZM744.904 175V154.732H750.088L755.776 173.668H755.848L761.428 154.732H766.612V175H763.552L763.732 156.136H763.66L757.972 175H753.544L747.892 156.136H747.82L747.964 175H744.904ZM769.375 175L776.179 154.732H781.111L788.059 175H784.855L782.911 168.952H774.487L772.543 175H769.375ZM778.699 155.992L775.279 166.576H782.119L778.699 155.992ZM787.649 157.324V154.732H803.129V157.324H796.901V175H793.913V157.324H787.649ZM814.326 172.408V175H805.866V172.408H808.638V157.324H805.866V154.732H814.326V157.324H811.59V172.408H814.326ZM827.407 175.504C824.167 175.504 821.695 174.556 819.991 172.66C818.287 170.74 817.435 168.16 817.435 164.92C817.435 162.784 817.795 160.936 818.515 159.376C819.259 157.792 820.363 156.568 821.827 155.704C823.315 154.816 825.175 154.372 827.407 154.372C830.647 154.372 833.107 155.332 834.787 157.252C836.491 159.148 837.343 161.704 837.343 164.92C837.343 167.008 836.959 168.856 836.191 170.464C835.447 172.048 834.331 173.284 832.843 174.172C831.379 175.06 829.567 175.504 827.407 175.504ZM827.371 172.624C829.699 172.624 831.451 171.904 832.627 170.464C833.803 169.024 834.391 167.176 834.391 164.92C834.391 162.664 833.803 160.816 832.627 159.376C831.475 157.912 829.723 157.18 827.371 157.18C825.067 157.18 823.315 157.876 822.115 159.268C820.939 160.66 820.351 162.544 820.351 164.92C820.351 166.408 820.603 167.74 821.107 168.916C821.611 170.068 822.379 170.98 823.411 171.652C824.467 172.3 825.787 172.624 827.371 172.624ZM854.853 154.732H857.913V175H852.261L843.729 156.064H843.657V175H840.597V154.732H845.889L854.781 173.668H854.853V154.732ZM878.876 175.504C875.636 175.504 873.164 174.556 871.46 172.66C869.756 170.74 868.904 168.16 868.904 164.92C868.904 162.784 869.264 160.936 869.984 159.376C870.728 157.792 871.832 156.568 873.296 155.704C874.784 154.816 876.644 154.372 878.876 154.372C882.116 154.372 884.576 155.332 886.256 157.252C887.96 159.148 888.812 161.704 888.812 164.92C888.812 167.008 888.428 168.856 887.66 170.464C886.916 172.048 885.8 173.284 884.312 174.172C882.848 175.06 881.036 175.504 878.876 175.504ZM878.84 172.624C881.168 172.624 882.92 171.904 884.096 170.464C885.272 169.024 885.86 167.176 885.86 164.92C885.86 162.664 885.272 160.816 884.096 159.376C882.944 157.912 881.192 157.18 878.84 157.18C876.536 157.18 874.784 157.876 873.584 159.268C872.408 160.66 871.82 162.544 871.82 164.92C871.82 166.408 872.072 167.74 872.576 168.916C873.08 170.068 873.848 170.98 874.88 171.652C875.936 172.3 877.256 172.624 878.84 172.624ZM906.322 154.732H909.382V175H903.73L895.198 156.064H895.126V175H892.066V154.732H897.358L906.25 173.668H906.322V154.732ZM925.952 175V167.728L919.04 154.732H922.388L927.5 165.028L932.576 154.732H935.924L928.94 167.692V175H925.952ZM946.165 175.504C942.925 175.504 940.453 174.556 938.749 172.66C937.045 170.74 936.193 168.16 936.193 164.92C936.193 162.784 936.553 160.936 937.273 159.376C938.017 157.792 939.121 156.568 940.585 155.704C942.073 154.816 943.933 154.372 946.165 154.372C949.405 154.372 951.865 155.332 953.545 157.252C955.249 159.148 956.101 161.704 956.101 164.92C956.101 167.008 955.717 168.856 954.949 170.464C954.205 172.048 953.089 173.284 951.601 174.172C950.137 175.06 948.325 175.504 946.165 175.504ZM946.129 172.624C948.457 172.624 950.209 171.904 951.385 170.464C952.561 169.024 953.149 167.176 953.149 164.92C953.149 162.664 952.561 160.816 951.385 159.376C950.233 157.912 948.481 157.18 946.129 157.18C943.825 157.18 942.073 157.876 940.873 159.268C939.697 160.66 939.109 162.544 939.109 164.92C939.109 166.408 939.361 167.74 939.865 168.916C940.369 170.068 941.137 170.98 942.169 171.652C943.225 172.3 944.545 172.624 946.129 172.624ZM968.063 175.504C965.279 175.504 963.143 174.712 961.655 173.128C960.191 171.52 959.459 169.264 959.459 166.36V154.732H962.591V166.324C962.591 167.884 962.843 169.132 963.347 170.068C963.851 170.98 964.511 171.64 965.327 172.048C966.167 172.456 967.079 172.66 968.063 172.66C969.143 172.66 970.091 172.468 970.907 172.084C971.747 171.676 972.395 171.016 972.851 170.104C973.331 169.168 973.571 167.908 973.571 166.324V154.732H976.703V166.36C976.703 169.312 975.971 171.58 974.507 173.164C973.067 174.724 970.919 175.504 968.063 175.504ZM980.769 175V154.732H987.861C990.453 154.732 992.457 155.164 993.873 156.028C995.313 156.868 996.033 158.392 996.033 160.6C996.033 162.136 995.637 163.42 994.845 164.452C994.077 165.484 992.913 166 991.353 166C992.289 166 992.985 166.204 993.441 166.612C993.897 167.02 994.209 167.536 994.377 168.16C994.545 168.76 994.653 169.384 994.701 170.032C994.749 170.68 994.821 171.268 994.917 171.796C995.013 172.324 995.205 172.708 995.493 172.948C995.781 173.164 996.273 173.14 996.969 172.876V174.676C996.633 174.964 996.189 175.156 995.637 175.252C995.109 175.372 994.581 175.336 994.053 175.144C993.525 174.976 993.069 174.616 992.685 174.064C992.325 173.488 992.145 172.66 992.145 171.58C992.145 170.308 992.073 169.312 991.929 168.592C991.785 167.872 991.449 167.344 990.921 167.008C990.393 166.672 989.565 166.48 988.437 166.432C987.309 166.36 985.761 166.36 983.793 166.432V175H980.769ZM983.793 164.2H987.969C989.193 164.2 990.201 164.128 990.993 163.984C991.785 163.816 992.373 163.492 992.757 163.012C993.165 162.532 993.369 161.8 993.369 160.816C993.369 159.688 993.129 158.872 992.649 158.368C992.169 157.864 991.461 157.552 990.525 157.432C989.613 157.288 988.497 157.216 987.177 157.216H983.793V164.2ZM1011.64 175H1008.65V154.732H1011.64V163.444H1022.22V154.732H1025.17V175H1022.22V165.784H1011.64V175ZM1034.59 175V167.728L1027.67 154.732H1031.02L1036.13 165.028L1041.21 154.732H1044.56L1037.57 167.692V175H1034.59ZM1054.58 175.432C1052.61 175.432 1050.9 175.024 1049.43 174.208C1047.99 173.392 1046.88 172.216 1046.09 170.68C1045.29 169.12 1044.91 167.212 1044.93 164.956C1044.96 162.7 1045.39 160.792 1046.23 159.232C1047.09 157.648 1048.28 156.448 1049.79 155.632C1051.31 154.792 1053.07 154.372 1055.09 154.372C1057.73 154.372 1059.81 154.972 1061.35 156.172C1062.89 157.348 1063.89 159.076 1064.37 161.356L1061.49 161.752C1061.11 160.12 1060.33 158.956 1059.15 158.26C1057.98 157.54 1056.62 157.18 1055.09 157.18C1052.64 157.18 1050.83 157.864 1049.65 159.232C1048.5 160.576 1047.9 162.424 1047.85 164.776C1047.85 167.248 1048.5 169.168 1049.79 170.536C1051.11 171.88 1052.96 172.552 1055.34 172.552C1056.97 172.552 1058.39 172.144 1059.59 171.328C1060.79 170.488 1061.53 169.204 1061.82 167.476H1056.81V165.208H1064.77V175H1062.72L1062.03 171.004H1061.96C1061.72 171.628 1061.3 172.288 1060.7 172.984C1060.13 173.656 1059.32 174.232 1058.29 174.712C1057.28 175.192 1056.05 175.432 1054.58 175.432ZM1076.87 172.408V175H1068.41V172.408H1071.19V157.324H1068.41V154.732H1076.87V157.324H1074.14V172.408H1076.87ZM1084.19 172.552H1095.64V175H1081.24V154.732H1095.28V157.324H1084.19V163.48H1092.83V165.964H1084.19V172.552ZM1113.15 154.732H1116.21V175H1110.55L1102.02 156.064H1101.95V175H1098.89V154.732H1104.18L1113.07 173.668H1113.15V154.732ZM1123.22 172.552H1134.67V175H1120.27V154.732H1134.31V157.324H1123.22V163.48H1131.86V165.964H1123.22V172.552ZM1137.84 178.42V176.332H1138.6C1139.2 176.332 1139.59 176.212 1139.79 175.972C1139.98 175.756 1140.07 175.432 1140.07 175C1139.31 175.048 1138.75 174.904 1138.42 174.568C1138.11 174.232 1137.95 173.776 1137.95 173.2C1137.95 172.696 1138.07 172.276 1138.31 171.94C1138.57 171.58 1139.05 171.4 1139.75 171.4C1140.3 171.4 1140.72 171.58 1141.01 171.94C1141.32 172.276 1141.48 172.912 1141.48 173.848C1141.48 175.144 1141.26 176.224 1140.83 177.088C1140.42 177.976 1139.69 178.42 1138.63 178.42H1137.84ZM1156.8 175H1153.81V154.732H1156.8V163.444H1167.38V154.732H1170.33V175H1167.38V165.784H1156.8V175ZM1183.29 175.504C1180.05 175.504 1177.58 174.556 1175.88 172.66C1174.17 170.74 1173.32 168.16 1173.32 164.92C1173.32 162.784 1173.68 160.936 1174.4 159.376C1175.15 157.792 1176.25 156.568 1177.71 155.704C1179.2 154.816 1181.06 154.372 1183.29 154.372C1186.53 154.372 1188.99 155.332 1190.67 157.252C1192.38 159.148 1193.23 161.704 1193.23 164.92C1193.23 167.008 1192.85 168.856 1192.08 170.464C1191.33 172.048 1190.22 173.284 1188.73 174.172C1187.27 175.06 1185.45 175.504 1183.29 175.504ZM1183.26 172.624C1185.59 172.624 1187.34 171.904 1188.51 170.464C1189.69 169.024 1190.28 167.176 1190.28 164.92C1190.28 162.664 1189.69 160.816 1188.51 159.376C1187.36 157.912 1185.61 157.18 1183.26 157.18C1180.95 157.18 1179.2 157.876 1178 159.268C1176.83 160.66 1176.24 162.544 1176.24 164.92C1176.24 166.408 1176.49 167.74 1176.99 168.916C1177.5 170.068 1178.27 170.98 1179.3 171.652C1180.35 172.3 1181.67 172.624 1183.26 172.624ZM1196.59 175V154.732H1201.78L1207.46 173.668H1207.54L1213.12 154.732H1218.3V175H1215.24L1215.42 156.136H1215.35L1209.66 175H1205.23L1199.58 156.136H1199.51L1199.65 175H1196.59ZM1225.31 172.552H1236.76V175H1222.36V154.732H1236.4V157.324H1225.31V163.48H1233.95V165.964H1225.31V172.552ZM1247.86 175.432C1246.39 175.432 1244.99 175.204 1243.64 174.748C1242.3 174.268 1241.2 173.524 1240.33 172.516C1239.49 171.484 1239.06 170.152 1239.04 168.52H1242.06C1242.06 168.616 1242.1 168.892 1242.17 169.348C1242.26 169.78 1242.49 170.26 1242.85 170.788C1243.24 171.292 1243.84 171.736 1244.65 172.12C1245.47 172.504 1246.61 172.696 1248.07 172.696C1249.25 172.696 1250.17 172.528 1250.84 172.192C1251.54 171.856 1252.02 171.46 1252.28 171.004C1252.57 170.548 1252.73 170.14 1252.75 169.78C1252.75 169.036 1252.51 168.436 1252.03 167.98C1251.58 167.524 1250.95 167.164 1250.16 166.9C1249.37 166.612 1248.49 166.36 1247.53 166.144C1246.6 165.904 1245.66 165.652 1244.72 165.388C1243.79 165.1 1242.92 164.728 1242.13 164.272C1241.36 163.816 1240.75 163.228 1240.3 162.508C1239.86 161.764 1239.68 160.816 1239.76 159.664C1239.83 158.008 1240.61 156.712 1242.1 155.776C1243.61 154.84 1245.55 154.372 1247.93 154.372C1249.32 154.372 1250.62 154.624 1251.82 155.128C1253.02 155.632 1253.98 156.388 1254.7 157.396C1255.42 158.404 1255.78 159.664 1255.78 161.176H1252.86C1252.86 160.336 1252.68 159.664 1252.32 159.16C1251.96 158.632 1251.5 158.224 1250.95 157.936C1250.4 157.648 1249.82 157.456 1249.22 157.36C1248.62 157.24 1248.08 157.18 1247.6 157.18C1246.24 157.18 1245.11 157.432 1244.22 157.936C1243.36 158.44 1242.92 159.124 1242.92 159.988C1242.9 160.756 1243.13 161.368 1243.61 161.824C1244.09 162.28 1244.72 162.64 1245.52 162.904C1246.31 163.168 1247.17 163.408 1248.11 163.624C1249.07 163.84 1250.02 164.08 1250.95 164.344C1251.91 164.608 1252.78 164.968 1253.54 165.424C1254.34 165.856 1254.95 166.456 1255.38 167.224C1255.84 167.968 1256.04 168.916 1255.99 170.068C1255.92 171.196 1255.52 172.168 1254.8 172.984C1254.11 173.776 1253.16 174.388 1251.96 174.82C1250.76 175.228 1249.39 175.432 1247.86 175.432ZM1259.38 178.42V176.332H1260.13C1260.73 176.332 1261.13 176.212 1261.32 175.972C1261.51 175.756 1261.61 175.432 1261.61 175C1260.84 175.048 1260.29 174.904 1259.95 174.568C1259.64 174.232 1259.48 173.776 1259.48 173.2C1259.48 172.696 1259.6 172.276 1259.84 171.94C1260.11 171.58 1260.59 171.4 1261.28 171.4C1261.84 171.4 1262.26 171.58 1262.54 171.94C1262.86 172.276 1263.01 172.912 1263.01 173.848C1263.01 175.144 1262.8 176.224 1262.36 177.088C1261.96 177.976 1261.22 178.42 1260.17 178.42H1259.38ZM485.178 224.504C481.938 224.504 479.466 223.556 477.762 221.66C476.058 219.74 475.206 217.16 475.206 213.92C475.206 211.784 475.566 209.936 476.286 208.376C477.03 206.792 478.134 205.568 479.598 204.704C481.086 203.816 482.946 203.372 485.178 203.372C488.418 203.372 490.878 204.332 492.558 206.252C494.262 208.148 495.114 210.704 495.114 213.92C495.114 216.008 494.73 217.856 493.962 219.464C493.218 221.048 492.102 222.284 490.614 223.172C489.15 224.06 487.338 224.504 485.178 224.504ZM485.142 221.624C487.47 221.624 489.222 220.904 490.398 219.464C491.574 218.024 492.162 216.176 492.162 213.92C492.162 211.664 491.574 209.816 490.398 208.376C489.246 206.912 487.494 206.18 485.142 206.18C482.838 206.18 481.086 206.876 479.886 208.268C478.71 209.66 478.122 211.544 478.122 213.92C478.122 215.408 478.374 216.74 478.878 217.916C479.382 219.068 480.15 219.98 481.182 220.652C482.238 221.3 483.558 221.624 485.142 221.624ZM501.789 224H498.837V203.732H513.057V206.324H501.789V212.048H510.537V214.532H501.789V224ZM519.121 224H516.169V203.732H530.389V206.324H519.121V212.048H527.869V214.532H519.121V224ZM541.918 221.408V224H533.458V221.408H536.23V206.324H533.458V203.732H541.918V206.324H539.182V221.408H541.918ZM555.107 224.36C553.235 224.36 551.531 223.976 549.995 223.208C548.483 222.416 547.283 221.252 546.395 219.716C545.531 218.156 545.099 216.224 545.099 213.92C545.123 211.64 545.567 209.72 546.431 208.16C547.295 206.576 548.483 205.388 549.995 204.596C551.531 203.78 553.283 203.372 555.251 203.372C557.867 203.372 559.979 204.068 561.587 205.46C563.195 206.852 564.191 208.676 564.575 210.932H561.479C561.287 209.78 560.867 208.856 560.219 208.16C559.595 207.464 558.839 206.96 557.951 206.648C557.087 206.336 556.187 206.18 555.251 206.18C552.971 206.18 551.207 206.84 549.959 208.16C548.711 209.456 548.087 211.316 548.087 213.74C548.087 216.284 548.699 218.228 549.923 219.572C551.147 220.892 552.887 221.552 555.143 221.552C556.703 221.552 558.095 221.18 559.319 220.436C560.543 219.668 561.299 218.432 561.587 216.728H564.719C564.311 218.984 563.303 220.82 561.695 222.236C560.087 223.652 557.891 224.36 555.107 224.36ZM570.789 221.552H582.237V224H567.837V203.732H581.877V206.324H570.789V212.48H579.429V214.964H570.789V221.552ZM593.334 224.432C591.87 224.432 590.466 224.204 589.122 223.748C587.778 223.268 586.674 222.524 585.81 221.516C584.97 220.484 584.538 219.152 584.514 217.52H587.538C587.538 217.616 587.574 217.892 587.646 218.348C587.742 218.78 587.97 219.26 588.33 219.788C588.714 220.292 589.314 220.736 590.13 221.12C590.946 221.504 592.086 221.696 593.55 221.696C594.726 221.696 595.65 221.528 596.322 221.192C597.018 220.856 597.498 220.46 597.762 220.004C598.05 219.548 598.206 219.14 598.23 218.78C598.23 218.036 597.99 217.436 597.51 216.98C597.054 216.524 596.43 216.164 595.638 215.9C594.846 215.612 593.97 215.36 593.01 215.144C592.074 214.904 591.138 214.652 590.202 214.388C589.266 214.1 588.402 213.728 587.61 213.272C586.842 212.816 586.23 212.228 585.774 211.508C585.342 210.764 585.162 209.816 585.234 208.664C585.306 207.008 586.086 205.712 587.574 204.776C589.086 203.84 591.03 203.372 593.406 203.372C594.798 203.372 596.094 203.624 597.294 204.128C598.494 204.632 599.454 205.388 600.174 206.396C600.894 207.404 601.254 208.664 601.254 210.176H598.338C598.338 209.336 598.158 208.664 597.798 208.16C597.438 207.632 596.982 207.224 596.43 206.936C595.878 206.648 595.302 206.456 594.702 206.36C594.102 206.24 593.562 206.18 593.082 206.18C591.714 206.18 590.586 206.432 589.698 206.936C588.834 207.44 588.402 208.124 588.402 208.988C588.378 209.756 588.606 210.368 589.086 210.824C589.566 211.28 590.202 211.64 590.994 211.904C591.786 212.168 592.65 212.408 593.586 212.624C594.546 212.84 595.494 213.08 596.43 213.344C597.39 213.608 598.254 213.968 599.022 214.424C599.814 214.856 600.426 215.456 600.858 216.224C601.314 216.968 601.518 217.916 601.47 219.068C601.398 220.196 601.002 221.168 600.282 221.984C599.586 222.776 598.638 223.388 597.438 223.82C596.238 224.228 594.87 224.432 593.334 224.432ZM604.855 227.42V225.332H605.611C606.211 225.332 606.607 225.212 606.799 224.972C606.991 224.756 607.087 224.432 607.087 224C606.319 224.048 605.767 223.904 605.431 223.568C605.119 223.232 604.963 222.776 604.963 222.2C604.963 221.696 605.083 221.276 605.323 220.94C605.587 220.58 606.067 220.4 606.763 220.4C607.315 220.4 607.735 220.58 608.023 220.94C608.335 221.276 608.491 221.912 608.491 222.848C608.491 224.144 608.275 225.224 607.843 226.088C607.435 226.976 606.703 227.42 605.647 227.42H604.855ZM623.489 221.552H634.937V224H620.537V203.732H634.577V206.324H623.489V212.48H632.129V214.964H623.489V221.552ZM652.441 203.732H655.501V224H649.849L641.317 205.064H641.245V224H638.185V203.732H643.477L652.369 222.668H652.441V203.732ZM673.24 203.732H676.516L669.604 224H664.6L657.688 203.732H660.928L667.084 222.668L673.24 203.732ZM687.816 221.408V224H679.356V221.408H682.128V206.324H679.356V203.732H687.816V206.324H685.08V221.408H687.816ZM692.681 224V203.732H699.773C702.365 203.732 704.369 204.164 705.785 205.028C707.225 205.868 707.945 207.392 707.945 209.6C707.945 211.136 707.549 212.42 706.757 213.452C705.989 214.484 704.825 215 703.265 215C704.201 215 704.897 215.204 705.353 215.612C705.809 216.02 706.121 216.536 706.289 217.16C706.457 217.76 706.565 218.384 706.613 219.032C706.661 219.68 706.733 220.268 706.829 220.796C706.925 221.324 707.117 221.708 707.405 221.948C707.693 222.164 708.185 222.14 708.881 221.876V223.676C708.545 223.964 708.101 224.156 707.549 224.252C707.021 224.372 706.493 224.336 705.965 224.144C705.437 223.976 704.981 223.616 704.597 223.064C704.237 222.488 704.057 221.66 704.057 220.58C704.057 219.308 703.985 218.312 703.841 217.592C703.697 216.872 703.361 216.344 702.833 216.008C702.305 215.672 701.477 215.48 700.349 215.432C699.221 215.36 697.673 215.36 695.705 215.432V224H692.681ZM695.705 213.2H699.881C701.105 213.2 702.113 213.128 702.905 212.984C703.697 212.816 704.285 212.492 704.669 212.012C705.077 211.532 705.281 210.8 705.281 209.816C705.281 208.688 705.041 207.872 704.561 207.368C704.081 206.864 703.373 206.552 702.437 206.432C701.525 206.288 700.409 206.216 699.089 206.216H695.705V213.2ZM720.796 224.504C717.556 224.504 715.084 223.556 713.38 221.66C711.676 219.74 710.824 217.16 710.824 213.92C710.824 211.784 711.184 209.936 711.904 208.376C712.648 206.792 713.752 205.568 715.216 204.704C716.704 203.816 718.564 203.372 720.796 203.372C724.036 203.372 726.496 204.332 728.176 206.252C729.88 208.148 730.732 210.704 730.732 213.92C730.732 216.008 730.348 217.856 729.58 219.464C728.836 221.048 727.72 222.284 726.232 223.172C724.768 224.06 722.956 224.504 720.796 224.504ZM720.76 221.624C723.088 221.624 724.84 220.904 726.016 219.464C727.192 218.024 727.78 216.176 727.78 213.92C727.78 211.664 727.192 209.816 726.016 208.376C724.864 206.912 723.112 206.18 720.76 206.18C718.456 206.18 716.704 206.876 715.504 208.268C714.328 209.66 713.74 211.544 713.74 213.92C713.74 215.408 713.992 216.74 714.496 217.916C715 219.068 715.768 219.98 716.8 220.652C717.856 221.3 719.176 221.624 720.76 221.624ZM748.242 203.732H751.302V224H745.65L737.118 205.064H737.046V224H733.986V203.732H739.278L748.17 222.668H748.242V203.732ZM755.469 224V203.732H760.653L766.341 222.668H766.413L771.993 203.732H777.177V224H774.117L774.297 205.136H774.225L768.537 224H764.109L758.457 205.136H758.385L758.529 224H755.469ZM784.188 221.552H795.636V224H781.236V203.732H795.276V206.324H784.188V212.48H792.828V214.964H784.188V221.552ZM813.14 203.732H816.2V224H810.548L802.016 205.064H801.944V224H798.884V203.732H804.176L813.068 222.668H813.14V203.732ZM818.639 206.324V203.732H834.119V206.324H827.891V224H824.903V206.324H818.639ZM844.56 224.432C843.096 224.432 841.692 224.204 840.348 223.748C839.004 223.268 837.9 222.524 837.036 221.516C836.196 220.484 835.764 219.152 835.74 217.52H838.764C838.764 217.616 838.8 217.892 838.872 218.348C838.968 218.78 839.196 219.26 839.556 219.788C839.94 220.292 840.54 220.736 841.356 221.12C842.172 221.504 843.312 221.696 844.776 221.696C845.952 221.696 846.876 221.528 847.548 221.192C848.244 220.856 848.724 220.46 848.988 220.004C849.276 219.548 849.432 219.14 849.456 218.78C849.456 218.036 849.216 217.436 848.736 216.98C848.28 216.524 847.656 216.164 846.864 215.9C846.072 215.612 845.196 215.36 844.236 215.144C843.3 214.904 842.364 214.652 841.428 214.388C840.492 214.1 839.628 213.728 838.836 213.272C838.068 212.816 837.456 212.228 837 211.508C836.568 210.764 836.388 209.816 836.46 208.664C836.532 207.008 837.312 205.712 838.8 204.776C840.312 203.84 842.256 203.372 844.632 203.372C846.024 203.372 847.32 203.624 848.52 204.128C849.72 204.632 850.68 205.388 851.4 206.396C852.12 207.404 852.48 208.664 852.48 210.176H849.564C849.564 209.336 849.384 208.664 849.024 208.16C848.664 207.632 848.208 207.224 847.656 206.936C847.104 206.648 846.528 206.456 845.928 206.36C845.328 206.24 844.788 206.18 844.308 206.18C842.94 206.18 841.812 206.432 840.924 206.936C840.06 207.44 839.628 208.124 839.628 208.988C839.604 209.756 839.832 210.368 840.312 210.824C840.792 211.28 841.428 211.64 842.22 211.904C843.012 212.168 843.876 212.408 844.812 212.624C845.772 212.84 846.72 213.08 847.656 213.344C848.616 213.608 849.48 213.968 850.248 214.424C851.04 214.856 851.652 215.456 852.084 216.224C852.54 216.968 852.744 217.916 852.696 219.068C852.624 220.196 852.228 221.168 851.508 221.984C850.812 222.776 849.864 223.388 848.664 223.82C847.464 224.228 846.096 224.432 844.56 224.432ZM863.049 224L869.853 203.732H874.785L881.733 224H878.529L876.585 217.952H868.161L866.217 224H863.049ZM872.373 204.992L868.953 215.576H875.793L872.373 204.992ZM898.535 203.732H901.595V224H895.943L887.411 205.064H887.339V224H884.279V203.732H889.571L898.463 222.668H898.535V203.732ZM923.906 213.848C923.906 216.512 923.39 218.588 922.358 220.076C921.326 221.54 919.874 222.56 918.002 223.136C916.154 223.712 913.982 224 911.486 224H906.014V203.732H911.486C913.982 203.732 916.154 204.116 918.002 204.884C919.874 205.628 921.326 206.744 922.358 208.232C923.39 209.72 923.906 211.592 923.906 213.848ZM909.002 221.48H912.278C913.982 221.48 915.47 221.288 916.742 220.904C918.014 220.496 918.998 219.74 919.694 218.636C920.39 217.532 920.738 215.924 920.738 213.812C920.738 211.292 919.97 209.42 918.434 208.196C916.898 206.948 914.846 206.324 912.278 206.324H909.002V221.48ZM935.686 224V203.732H938.674V221.408H949.294V224H935.686ZM960.737 224.504C957.497 224.504 955.025 223.556 953.321 221.66C951.617 219.74 950.765 217.16 950.765 213.92C950.765 211.784 951.125 209.936 951.845 208.376C952.589 206.792 953.693 205.568 955.157 204.704C956.645 203.816 958.505 203.372 960.737 203.372C963.977 203.372 966.437 204.332 968.117 206.252C969.821 208.148 970.673 210.704 970.673 213.92C970.673 216.008 970.289 217.856 969.521 219.464C968.777 221.048 967.661 222.284 966.173 223.172C964.709 224.06 962.897 224.504 960.737 224.504ZM960.701 221.624C963.029 221.624 964.781 220.904 965.957 219.464C967.133 218.024 967.721 216.176 967.721 213.92C967.721 211.664 967.133 209.816 965.957 208.376C964.805 206.912 963.053 206.18 960.701 206.18C958.397 206.18 956.645 206.876 955.445 208.268C954.269 209.66 953.681 211.544 953.681 213.92C953.681 215.408 953.933 216.74 954.437 217.916C954.941 219.068 955.709 219.98 956.741 220.652C957.797 221.3 959.117 221.624 960.701 221.624ZM971.815 206.324V203.732H987.295V206.324H981.067V224H978.079V206.324H971.815ZM997.736 224.432C996.272 224.432 994.868 224.204 993.524 223.748C992.18 223.268 991.076 222.524 990.212 221.516C989.372 220.484 988.94 219.152 988.916 217.52H991.94C991.94 217.616 991.976 217.892 992.048 218.348C992.144 218.78 992.372 219.26 992.732 219.788C993.116 220.292 993.716 220.736 994.532 221.12C995.348 221.504 996.488 221.696 997.952 221.696C999.128 221.696 1000.05 221.528 1000.72 221.192C1001.42 220.856 1001.9 220.46 1002.16 220.004C1002.45 219.548 1002.61 219.14 1002.63 218.78C1002.63 218.036 1002.39 217.436 1001.91 216.98C1001.46 216.524 1000.83 216.164 1000.04 215.9C999.248 215.612 998.372 215.36 997.412 215.144C996.476 214.904 995.54 214.652 994.604 214.388C993.668 214.1 992.804 213.728 992.012 213.272C991.244 212.816 990.632 212.228 990.176 211.508C989.744 210.764 989.564 209.816 989.636 208.664C989.708 207.008 990.488 205.712 991.976 204.776C993.488 203.84 995.432 203.372 997.808 203.372C999.2 203.372 1000.5 203.624 1001.7 204.128C1002.9 204.632 1003.86 205.388 1004.58 206.396C1005.3 207.404 1005.66 208.664 1005.66 210.176H1002.74C1002.74 209.336 1002.56 208.664 1002.2 208.16C1001.84 207.632 1001.38 207.224 1000.83 206.936C1000.28 206.648 999.704 206.456 999.104 206.36C998.504 206.24 997.964 206.18 997.484 206.18C996.116 206.18 994.988 206.432 994.1 206.936C993.236 207.44 992.804 208.124 992.804 208.988C992.78 209.756 993.008 210.368 993.488 210.824C993.968 211.28 994.604 211.64 995.396 211.904C996.188 212.168 997.052 212.408 997.988 212.624C998.948 212.84 999.896 213.08 1000.83 213.344C1001.79 213.608 1002.66 213.968 1003.42 214.424C1004.22 214.856 1004.83 215.456 1005.26 216.224C1005.72 216.968 1005.92 217.916 1005.87 219.068C1005.8 220.196 1005.4 221.168 1004.68 221.984C1003.99 222.776 1003.04 223.388 1001.84 223.82C1000.64 224.228 999.272 224.432 997.736 224.432ZM1017.63 224V203.732H1022.81L1028.5 222.668H1028.57L1034.15 203.732H1039.34V224H1036.28L1036.46 205.136H1036.39L1030.7 224H1026.27L1020.62 205.136H1020.55L1020.69 224H1017.63ZM1052.11 224.504C1048.87 224.504 1046.4 223.556 1044.69 221.66C1042.99 219.74 1042.14 217.16 1042.14 213.92C1042.14 211.784 1042.5 209.936 1043.22 208.376C1043.96 206.792 1045.06 205.568 1046.53 204.704C1048.02 203.816 1049.88 203.372 1052.11 203.372C1055.35 203.372 1057.81 204.332 1059.49 206.252C1061.19 208.148 1062.04 210.704 1062.04 213.92C1062.04 216.008 1061.66 217.856 1060.89 219.464C1060.15 221.048 1059.03 222.284 1057.54 223.172C1056.08 224.06 1054.27 224.504 1052.11 224.504ZM1052.07 221.624C1054.4 221.624 1056.15 220.904 1057.33 219.464C1058.5 218.024 1059.09 216.176 1059.09 213.92C1059.09 211.664 1058.5 209.816 1057.33 208.376C1056.18 206.912 1054.42 206.18 1052.07 206.18C1049.77 206.18 1048.02 206.876 1046.82 208.268C1045.64 209.66 1045.05 211.544 1045.05 213.92C1045.05 215.408 1045.3 216.74 1045.81 217.916C1046.31 219.068 1047.08 219.98 1048.11 220.652C1049.17 221.3 1050.49 221.624 1052.07 221.624ZM1065.44 224V203.732H1072.53C1075.13 203.732 1077.13 204.164 1078.55 205.028C1079.99 205.868 1080.71 207.392 1080.71 209.6C1080.71 211.136 1080.31 212.42 1079.52 213.452C1078.75 214.484 1077.59 215 1076.03 215C1076.96 215 1077.66 215.204 1078.11 215.612C1078.57 216.02 1078.88 216.536 1079.05 217.16C1079.22 217.76 1079.33 218.384 1079.37 219.032C1079.42 219.68 1079.49 220.268 1079.59 220.796C1079.69 221.324 1079.88 221.708 1080.17 221.948C1080.45 222.164 1080.95 222.14 1081.64 221.876V223.676C1081.31 223.964 1080.86 224.156 1080.31 224.252C1079.78 224.372 1079.25 224.336 1078.73 224.144C1078.2 223.976 1077.74 223.616 1077.36 223.064C1077 222.488 1076.82 221.66 1076.82 220.58C1076.82 219.308 1076.75 218.312 1076.6 217.592C1076.46 216.872 1076.12 216.344 1075.59 216.008C1075.07 215.672 1074.24 215.48 1073.11 215.432C1071.98 215.36 1070.43 215.36 1068.47 215.432V224H1065.44ZM1068.47 213.2H1072.64C1073.87 213.2 1074.87 213.128 1075.67 212.984C1076.46 212.816 1077.05 212.492 1077.43 212.012C1077.84 211.532 1078.04 210.8 1078.04 209.816C1078.04 208.688 1077.8 207.872 1077.32 207.368C1076.84 206.864 1076.13 206.552 1075.2 206.432C1074.29 206.288 1073.17 206.216 1071.85 206.216H1068.47V213.2ZM1087.8 221.552H1099.25V224H1084.85V203.732H1098.89V206.324H1087.8V212.48H1096.44V214.964H1087.8V221.552Z" fill="#EDF5FA"/>
<defs>
<linearGradient id="paint0_linear_476_1426" x1="358.215" y1="15" x2="1445.95" y2="14.9999" gradientUnits="userSpaceOnUse">
<stop stop-color="white"/>
<stop offset="1" stop-color="#4FA0CA"/>
</linearGradient>
</defs>
</svg>
