<svg width="218" height="66" viewBox="0 0 218 66" fill="none" xmlns="http://www.w3.org/2000/svg">
<rect x="0.259277" y="0.141357" width="217" height="65" rx="32.5" fill="#133063"/>
<path d="M25.6513 42.1414V28.6294H30.7633C31.2913 28.6294 31.8593 28.6694 32.4673 28.7494C33.0753 28.8134 33.6433 28.9654 34.1713 29.2054C34.6993 29.4294 35.1313 29.7814 35.4673 30.2614C35.8033 30.7414 35.9713 31.3894 35.9713 32.2054C35.9713 32.7174 35.8673 33.1974 35.6593 33.6454C35.4673 34.0774 35.1073 34.4294 34.5793 34.7014C34.0513 34.9734 33.2993 35.1254 32.3233 35.1574V35.2534C33.4593 35.2694 34.3313 35.4294 34.9393 35.7334C35.5633 36.0374 35.9953 36.4374 36.2353 36.9334C36.4753 37.4134 36.5953 37.9494 36.5953 38.5414C36.5953 39.3894 36.4113 40.0534 36.0433 40.5334C35.6753 41.0134 35.2033 41.3734 34.6273 41.6134C34.0513 41.8374 33.4353 41.9814 32.7793 42.0454C32.1393 42.1094 31.5313 42.1414 30.9553 42.1414H25.6513ZM27.6193 34.3894H30.5233C31.1793 34.3894 31.7633 34.3574 32.2753 34.2934C32.8033 34.2134 33.2193 34.0294 33.5233 33.7414C33.8273 33.4534 33.9793 33.0054 33.9793 32.3974C33.9793 31.7414 33.8193 31.2694 33.4993 30.9814C33.1793 30.6774 32.7553 30.4854 32.2273 30.4054C31.6993 30.3254 31.1393 30.2854 30.5473 30.2854H27.6193V34.3894ZM27.6193 40.5094H30.7873C31.4753 40.5094 32.0993 40.4694 32.6593 40.3894C33.2193 40.2934 33.6673 40.0934 34.0033 39.7894C34.3553 39.4694 34.5313 38.9734 34.5313 38.3014C34.5313 37.6134 34.3473 37.1014 33.9793 36.7654C33.6273 36.4294 33.1473 36.2134 32.5393 36.1174C31.9473 36.0054 31.2993 35.9494 30.5953 35.9494H27.6193V40.5094ZM44.5592 42.4774C42.3992 42.4774 40.7512 41.8454 39.6152 40.5814C38.4792 39.3014 37.9112 37.5814 37.9112 35.4214C37.9112 33.9974 38.1512 32.7654 38.6312 31.7254C39.1272 30.6694 39.8632 29.8534 40.8392 29.2774C41.8312 28.6854 43.0712 28.3894 44.5592 28.3894C46.7192 28.3894 48.3592 29.0294 49.4792 30.3094C50.6152 31.5734 51.1832 33.2774 51.1832 35.4214C51.1832 36.8134 50.9272 38.0454 50.4152 39.1174C49.9192 40.1734 49.1752 40.9974 48.1832 41.5894C47.2072 42.1814 45.9992 42.4774 44.5592 42.4774ZM44.5352 40.5574C46.0872 40.5574 47.2552 40.0774 48.0392 39.1174C48.8232 38.1574 49.2152 36.9254 49.2152 35.4214C49.2152 33.9174 48.8232 32.6854 48.0392 31.7254C47.2712 30.7494 46.1032 30.2614 44.5352 30.2614C42.9992 30.2614 41.8312 30.7254 41.0312 31.6534C40.2472 32.5814 39.8552 33.8374 39.8552 35.4214C39.8552 36.4134 40.0232 37.3014 40.3592 38.0854C40.6952 38.8534 41.2072 39.4614 41.8952 39.9094C42.5992 40.3414 43.4792 40.5574 44.5352 40.5574ZM59.1607 42.4774C57.0007 42.4774 55.3527 41.8454 54.2167 40.5814C53.0807 39.3014 52.5127 37.5814 52.5127 35.4214C52.5127 33.9974 52.7527 32.7654 53.2327 31.7254C53.7287 30.6694 54.4647 29.8534 55.4407 29.2774C56.4327 28.6854 57.6727 28.3894 59.1607 28.3894C61.3207 28.3894 62.9607 29.0294 64.0807 30.3094C65.2167 31.5734 65.7847 33.2774 65.7847 35.4214C65.7847 36.8134 65.5287 38.0454 65.0167 39.1174C64.5207 40.1734 63.7767 40.9974 62.7847 41.5894C61.8087 42.1814 60.6007 42.4774 59.1607 42.4774ZM59.1367 40.5574C60.6887 40.5574 61.8567 40.0774 62.6407 39.1174C63.4247 38.1574 63.8167 36.9254 63.8167 35.4214C63.8167 33.9174 63.4247 32.6854 62.6407 31.7254C61.8727 30.7494 60.7047 30.2614 59.1367 30.2614C57.6007 30.2614 56.4327 30.7254 55.6327 31.6534C54.8487 32.5814 54.4567 33.8374 54.4567 35.4214C54.4567 36.4134 54.6247 37.3014 54.9607 38.0854C55.2967 38.8534 55.8087 39.4614 56.4967 39.9094C57.2007 40.3414 58.0807 40.5574 59.1367 40.5574ZM68.2663 42.1414V28.6294H70.2583V35.3254L76.8103 28.6294H79.4023V28.8934L73.8583 34.1974L79.6903 41.8774V42.1414H77.3863L72.3943 35.5654L70.2583 37.6294V42.1414H68.2663ZM86.145 42.1414L90.681 28.6294H93.969L98.601 42.1414H96.465L95.169 38.1094H89.553L88.257 42.1414H86.145ZM92.361 29.4694L90.081 36.5254H94.641L92.361 29.4694ZM110.991 42.4294C110.015 42.4294 109.079 42.2774 108.183 41.9734C107.287 41.6534 106.551 41.1574 105.975 40.4854C105.415 39.7974 105.127 38.9094 105.111 37.8214H107.127C107.127 37.8854 107.151 38.0694 107.199 38.3734C107.263 38.6614 107.415 38.9814 107.655 39.3334C107.911 39.6694 108.311 39.9654 108.855 40.2214C109.399 40.4774 110.159 40.6054 111.135 40.6054C111.919 40.6054 112.535 40.4934 112.983 40.2694C113.447 40.0454 113.767 39.7814 113.943 39.4774C114.135 39.1734 114.239 38.9014 114.255 38.6614C114.255 38.1654 114.095 37.7654 113.775 37.4614C113.471 37.1574 113.055 36.9174 112.527 36.7414C111.999 36.5494 111.415 36.3814 110.775 36.2374C110.151 36.0774 109.527 35.9094 108.903 35.7334C108.279 35.5414 107.703 35.2934 107.175 34.9894C106.663 34.6854 106.255 34.2934 105.951 33.8134C105.663 33.3174 105.543 32.6854 105.591 31.9174C105.639 30.8134 106.159 29.9494 107.151 29.3254C108.159 28.7014 109.455 28.3894 111.039 28.3894C111.967 28.3894 112.831 28.5574 113.631 28.8934C114.431 29.2294 115.071 29.7334 115.551 30.4054C116.031 31.0774 116.271 31.9174 116.271 32.9254H114.327C114.327 32.3654 114.207 31.9174 113.967 31.5814C113.727 31.2294 113.423 30.9574 113.055 30.7654C112.687 30.5734 112.303 30.4454 111.903 30.3814C111.503 30.3014 111.143 30.2614 110.823 30.2614C109.911 30.2614 109.159 30.4294 108.567 30.7654C107.991 31.1014 107.703 31.5574 107.703 32.1334C107.687 32.6454 107.839 33.0534 108.159 33.3574C108.479 33.6614 108.903 33.9014 109.431 34.0774C109.959 34.2534 110.535 34.4134 111.159 34.5574C111.799 34.7014 112.431 34.8614 113.055 35.0374C113.695 35.2134 114.271 35.4534 114.783 35.7574C115.311 36.0454 115.719 36.4454 116.007 36.9574C116.311 37.4534 116.447 38.0854 116.415 38.8534C116.367 39.6054 116.103 40.2534 115.623 40.7974C115.159 41.3254 114.527 41.7334 113.727 42.0214C112.927 42.2934 112.015 42.4294 110.991 42.4294ZM120.688 40.5094H128.32V42.1414H118.72V28.6294H128.08V30.3574H120.688V34.4614H126.448V36.1174H120.688V40.5094ZM135.718 42.4294C134.742 42.4294 133.806 42.2774 132.91 41.9734C132.014 41.6534 131.278 41.1574 130.702 40.4854C130.142 39.7974 129.854 38.9094 129.838 37.8214H131.854C131.854 37.8854 131.878 38.0694 131.926 38.3734C131.99 38.6614 132.142 38.9814 132.382 39.3334C132.638 39.6694 133.038 39.9654 133.582 40.2214C134.126 40.4774 134.886 40.6054 135.862 40.6054C136.646 40.6054 137.262 40.4934 137.71 40.2694C138.174 40.0454 138.494 39.7814 138.67 39.4774C138.862 39.1734 138.966 38.9014 138.982 38.6614C138.982 38.1654 138.822 37.7654 138.502 37.4614C138.198 37.1574 137.782 36.9174 137.254 36.7414C136.726 36.5494 136.142 36.3814 135.502 36.2374C134.878 36.0774 134.254 35.9094 133.63 35.7334C133.006 35.5414 132.43 35.2934 131.902 34.9894C131.39 34.6854 130.982 34.2934 130.678 33.8134C130.39 33.3174 130.27 32.6854 130.318 31.9174C130.366 30.8134 130.886 29.9494 131.878 29.3254C132.886 28.7014 134.182 28.3894 135.766 28.3894C136.694 28.3894 137.558 28.5574 138.358 28.8934C139.158 29.2294 139.798 29.7334 140.278 30.4054C140.758 31.0774 140.998 31.9174 140.998 32.9254H139.054C139.054 32.3654 138.934 31.9174 138.694 31.5814C138.454 31.2294 138.15 30.9574 137.782 30.7654C137.414 30.5734 137.03 30.4454 136.63 30.3814C136.23 30.3014 135.87 30.2614 135.55 30.2614C134.638 30.2614 133.886 30.4294 133.294 30.7654C132.718 31.1014 132.43 31.5574 132.43 32.1334C132.414 32.6454 132.566 33.0534 132.886 33.3574C133.206 33.6614 133.63 33.9014 134.158 34.0774C134.686 34.2534 135.262 34.4134 135.886 34.5574C136.526 34.7014 137.158 34.8614 137.782 35.0374C138.422 35.2134 138.998 35.4534 139.51 35.7574C140.038 36.0454 140.446 36.4454 140.734 36.9574C141.038 37.4534 141.174 38.0854 141.142 38.8534C141.094 39.6054 140.83 40.2534 140.35 40.7974C139.886 41.3254 139.254 41.7334 138.454 42.0214C137.654 42.2934 136.742 42.4294 135.718 42.4294ZM148.678 42.4294C147.702 42.4294 146.766 42.2774 145.87 41.9734C144.974 41.6534 144.238 41.1574 143.662 40.4854C143.102 39.7974 142.814 38.9094 142.798 37.8214H144.814C144.814 37.8854 144.838 38.0694 144.886 38.3734C144.95 38.6614 145.102 38.9814 145.342 39.3334C145.598 39.6694 145.998 39.9654 146.542 40.2214C147.086 40.4774 147.846 40.6054 148.822 40.6054C149.606 40.6054 150.222 40.4934 150.67 40.2694C151.134 40.0454 151.454 39.7814 151.63 39.4774C151.822 39.1734 151.926 38.9014 151.942 38.6614C151.942 38.1654 151.782 37.7654 151.462 37.4614C151.158 37.1574 150.742 36.9174 150.214 36.7414C149.686 36.5494 149.102 36.3814 148.462 36.2374C147.838 36.0774 147.214 35.9094 146.59 35.7334C145.966 35.5414 145.39 35.2934 144.862 34.9894C144.35 34.6854 143.942 34.2934 143.638 33.8134C143.35 33.3174 143.23 32.6854 143.278 31.9174C143.326 30.8134 143.846 29.9494 144.838 29.3254C145.846 28.7014 147.142 28.3894 148.726 28.3894C149.654 28.3894 150.518 28.5574 151.318 28.8934C152.118 29.2294 152.758 29.7334 153.238 30.4054C153.718 31.0774 153.958 31.9174 153.958 32.9254H152.014C152.014 32.3654 151.894 31.9174 151.654 31.5814C151.414 31.2294 151.11 30.9574 150.742 30.7654C150.374 30.5734 149.99 30.4454 149.59 30.3814C149.19 30.3014 148.83 30.2614 148.51 30.2614C147.598 30.2614 146.846 30.4294 146.254 30.7654C145.678 31.1014 145.39 31.5574 145.39 32.1334C145.374 32.6454 145.526 33.0534 145.846 33.3574C146.166 33.6614 146.59 33.9014 147.118 34.0774C147.646 34.2534 148.222 34.4134 148.846 34.5574C149.486 34.7014 150.118 34.8614 150.742 35.0374C151.382 35.2134 151.958 35.4534 152.47 35.7574C152.998 36.0454 153.406 36.4454 153.694 36.9574C153.998 37.4534 154.134 38.0854 154.102 38.8534C154.054 39.6054 153.79 40.2534 153.31 40.7974C152.846 41.3254 152.214 41.7334 151.414 42.0214C150.614 42.2934 149.702 42.4294 148.678 42.4294ZM162.143 40.4134V42.1414H156.503V40.4134H158.351V30.3574H156.503V28.6294H162.143V30.3574H160.319V40.4134H162.143ZM170.864 42.4774C168.704 42.4774 167.056 41.8454 165.92 40.5814C164.784 39.3014 164.216 37.5814 164.216 35.4214C164.216 33.9974 164.456 32.7654 164.936 31.7254C165.432 30.6694 166.168 29.8534 167.144 29.2774C168.136 28.6854 169.376 28.3894 170.864 28.3894C173.024 28.3894 174.664 29.0294 175.784 30.3094C176.92 31.5734 177.488 33.2774 177.488 35.4214C177.488 36.8134 177.232 38.0454 176.72 39.1174C176.224 40.1734 175.48 40.9974 174.488 41.5894C173.512 42.1814 172.304 42.4774 170.864 42.4774ZM170.84 40.5574C172.392 40.5574 173.56 40.0774 174.344 39.1174C175.128 38.1574 175.52 36.9254 175.52 35.4214C175.52 33.9174 175.128 32.6854 174.344 31.7254C173.576 30.7494 172.408 30.2614 170.84 30.2614C169.304 30.2614 168.136 30.7254 167.336 31.6534C166.552 32.5814 166.16 33.8374 166.16 35.4214C166.16 36.4134 166.328 37.3014 166.664 38.0854C167 38.8534 167.512 39.4614 168.2 39.9094C168.904 40.3414 169.784 40.5574 170.84 40.5574ZM189.161 28.6294H191.201V42.1414H187.433L181.745 29.5174H181.697V42.1414H179.657V28.6294H183.185L189.113 41.2534H189.161V28.6294Z" fill="#EDF5FA"/>
</svg>
