<svg width="157" height="56" viewBox="0 0 157 56" fill="none" xmlns="http://www.w3.org/2000/svg">
<path d="M53.8346 35.5385C53.4813 35.1715 53.0874 34.8459 52.6605 34.5679C51.3725 33.85 49.9907 33.3152 48.5551 32.9789C46.4278 32.3996 44.2601 31.981 42.0701 31.7265C39.7728 31.4604 37.4637 31.2569 35.1625 31.0338C34.7007 30.9908 34.2349 30.9869 33.7692 30.9634C34.035 31.018 34.3045 31.0534 34.5754 31.069C36.8086 31.2308 39.0303 31.5249 41.2287 31.9496C42.8931 32.2396 44.5215 32.7081 46.0855 33.3468C46.8198 33.6178 47.4872 34.0436 48.0424 34.5953C48.2971 34.8292 48.4488 35.1545 48.4642 35.5C48.4796 35.8455 48.3575 36.183 48.1246 36.4386C47.7378 36.9075 47.2615 37.2946 46.7235 37.5775C45.3507 38.3289 43.8866 38.8998 42.3676 39.276C38.1873 40.3542 33.8941 40.9336 29.5777 41.002C26.0678 41.113 22.5547 40.9377 19.0734 40.4775C16.6636 40.1895 14.2831 39.6945 11.9583 38.9982C10.6158 38.6257 9.33249 38.0657 8.14637 37.3348C7.69501 37.0647 7.30987 36.697 7.01923 36.2586C6.86683 36.042 6.78899 35.7816 6.79746 35.5169C6.80594 35.2522 6.90025 34.9974 7.0662 34.791C7.17331 34.648 7.29532 34.5168 7.43017 34.3996C8.21803 33.7582 9.12522 33.2793 10.0993 32.9907C13.2694 31.9027 16.5647 31.4682 19.8835 31.1434C20.4079 31.0925 20.9363 31.0495 21.449 31.0064C21.2864 30.9889 21.1223 30.9889 20.9597 31.0064C18.6115 31.2139 16.2633 31.3978 13.9386 31.6444C11.5381 31.9001 9.16072 32.3397 6.82746 32.9594C5.34036 33.3014 3.9066 33.8439 2.56547 34.5718C1.84844 34.9149 1.28877 35.518 1 36.2586L1 36.7439C1.36397 37.8241 2.23672 38.4307 3.14469 38.9982C4.59567 39.8643 6.14295 40.5578 7.755 41.0646C10.3011 41.904 12.9091 42.5425 15.555 42.9745C19.2191 43.5949 22.9263 43.9272 26.6424 43.9685C26.7123 43.9729 26.7817 43.9834 26.8498 43.9998H28.3723C28.5523 43.9998 28.7284 43.9646 28.9084 43.9646C34.3243 43.9071 39.7129 43.1882 44.9545 41.8238C47.2004 41.2738 49.3724 40.4565 51.4238 39.3895C51.9128 39.1159 52.3846 38.8127 52.8366 38.4815C53.4822 38.0665 53.9711 37.4482 54.226 36.7243V36.2586C54.1313 36.0008 53.9994 35.7582 53.8346 35.5385Z" fill="#4FA0CA"/>
<path d="M14.408 32.2198C13.1084 32.4584 11.8489 32.8787 10.6665 33.4682C10.2699 33.6953 9.90647 33.9758 9.58632 34.3018C9.43681 34.4463 9.34608 34.641 9.33163 34.8484C9.31717 35.0558 9.38002 35.2612 9.50804 35.4251C9.71146 35.7199 9.95668 35.9835 10.236 36.2078C11.2107 36.9312 12.2993 37.4867 13.4569 37.8515C17.1671 39.1939 21.0182 39.781 24.9318 39.9806C27.1921 40.1039 29.4582 40.0725 31.7142 39.8866C34.3015 39.6882 36.8659 39.2599 39.3772 38.6069C41.086 38.2055 42.7301 37.5665 44.2615 36.7087C44.688 36.4453 45.082 36.1327 45.4356 35.7773C46.0422 35.1746 45.9952 34.5249 45.3338 33.9809C45.0618 33.7591 44.7666 33.5676 44.4533 33.4095C43.125 32.7908 41.7209 32.3499 40.2774 32.0984C38.3879 31.7284 36.4788 31.4671 34.5595 31.3157C33.9216 31.257 33.2836 31.2179 32.6418 31.1748C34.035 31.3822 35.4322 31.5662 36.8177 31.7971C38.0995 31.9822 39.3471 32.3554 40.52 32.9047C40.9143 33.1031 41.277 33.359 41.5963 33.6639C41.68 33.7357 41.7479 33.824 41.796 33.9232C41.844 34.0225 41.8711 34.1306 41.8755 34.2407C41.8799 34.3509 41.8615 34.4608 41.8216 34.5636C41.7816 34.6663 41.7209 34.7598 41.6432 34.838C41.4357 35.0962 41.1918 35.3229 40.9192 35.5112C40.1739 35.9756 39.3642 36.3277 38.5162 36.5561C35.6552 37.3771 32.7016 37.8321 29.7261 37.9102C26.6651 38.0597 23.5969 37.8998 20.5681 37.4328C18.9387 37.2086 17.3372 36.8151 15.7895 36.2587C15.0571 36.0187 14.3771 35.6415 13.7857 35.1472C13.1556 34.568 13.1634 33.9496 13.8444 33.4369C14.2277 33.145 14.6457 32.9018 15.0889 32.7129C16.6693 32.1135 18.32 31.7189 20.0006 31.5388C20.8577 31.4135 21.7187 31.3274 22.5797 31.2218C22.4822 31.2101 22.3837 31.2101 22.2862 31.2218L20.3294 31.3783C18.3393 31.5291 16.3613 31.8102 14.408 32.2198Z" fill="#4FA0CA"/>
<path d="M16.6548 32.9555C15.7977 33.4642 15.7429 34.0591 16.5648 34.6227C17.1305 35.0112 17.74 35.3317 18.3807 35.5776C21.0538 36.5991 23.8599 36.9591 26.6973 37.0492C28.794 37.1212 30.8925 36.9757 32.9592 36.6147C34.5249 36.3874 36.0522 35.9477 37.499 35.3076C38.0195 35.0586 38.5061 34.7442 38.9471 34.3722C39.405 33.9808 39.3698 33.5386 38.8845 33.1981C38.5109 32.9303 38.1028 32.7144 37.6712 32.5563C36.0759 32.0287 34.4229 31.695 32.7478 31.5622C32.5013 31.5348 32.2547 31.5191 32.0042 31.4957C32.8222 31.6757 33.6402 31.8166 34.4464 32.0044C35.1251 32.1317 35.77 32.3982 36.3406 32.7872C36.8376 33.159 36.8533 33.613 36.3406 33.9613C35.9555 34.2116 35.5398 34.4115 35.1039 34.5561C33.5577 35.0406 31.9526 35.3118 30.3331 35.3624C28.8616 35.4367 27.3822 35.4485 25.9106 35.4172C24.2818 35.3928 22.6602 35.1947 21.0733 34.8262C20.3422 34.6903 19.6412 34.4252 19.003 34.0435C18.3494 33.6169 18.3416 33.1277 19.003 32.7363C19.3904 32.5047 19.8043 32.3208 20.2358 32.1884C21.386 31.845 22.5649 31.6066 23.7581 31.4761C23.6812 31.4722 23.6041 31.4722 23.5272 31.4761C22.087 31.6796 20.6389 31.8675 19.2222 32.0984C18.3211 32.2246 17.4509 32.5151 16.6548 32.9555Z" fill="#4FA0CA"/>
<path d="M23.39 30.3295C21.6996 29.3869 20.3268 27.964 19.4451 26.241C18.5635 24.518 18.2127 22.5722 18.4371 20.6498C18.6615 18.7273 19.451 16.9146 20.7058 15.441C21.9606 13.9674 23.6243 12.899 25.4864 12.371C27.3485 11.8431 29.3253 11.8793 31.1668 12.475C33.0084 13.0707 34.6318 14.1993 35.8319 15.7178C37.0319 17.2364 37.7546 19.0768 37.9085 21.0061C38.0624 22.9355 37.6406 24.8671 36.6965 26.5567C35.4315 28.8208 33.3193 30.4899 30.8242 31.1973C28.3291 31.9048 25.6551 31.5926 23.39 30.3295ZM32.6146 13.8216C31.0395 12.9437 29.2394 12.5524 27.442 12.6974C25.6445 12.8423 23.9304 13.5169 22.5163 14.6359C21.1022 15.7549 20.0516 17.268 19.4974 18.984C18.9431 20.7 18.9101 22.5418 19.4025 24.2765C19.8948 26.0113 20.8905 27.5611 22.2636 28.7301C23.6366 29.8991 25.3254 30.6347 27.1165 30.844C28.9076 31.0533 30.7206 30.7268 32.3261 29.9059C33.9317 29.085 35.2578 27.8064 36.1369 26.2319C37.3132 24.1186 37.6029 21.625 36.9426 19.2983C36.2822 16.9716 34.7257 15.0019 32.6146 13.8216Z" fill="#4FA0CA"/>
<path d="M21.5274 23.3162C21.4929 23.2671 21.4782 23.2068 21.4862 23.1474C21.4942 23.0879 21.5242 23.0336 21.5704 22.9953L21.7935 22.7957C21.954 22.6522 22.1031 22.4965 22.2397 22.33C22.0454 22.4229 21.8583 22.5302 21.68 22.6509C21.5939 22.7057 21.5117 22.7644 21.4295 22.8231C21.3815 22.8578 21.3221 22.873 21.2634 22.8658C21.2046 22.8585 21.1507 22.8293 21.1125 22.784L20.9129 22.5609C20.768 22.4004 20.611 22.2513 20.4433 22.1147C20.5371 22.3086 20.6443 22.4956 20.7642 22.6744C20.819 22.7605 20.8777 22.8427 20.9364 22.921C20.9705 22.9699 20.9853 23.0297 20.9781 23.0889C20.9709 23.1481 20.9421 23.2025 20.8973 23.2419L20.6703 23.4415C20.5098 23.5864 20.3606 23.7434 20.2241 23.9111C20.4184 23.8182 20.6055 23.7109 20.7838 23.5902C20.8699 23.5354 20.9521 23.4767 21.0343 23.418C21.0832 23.3839 21.143 23.3691 21.2022 23.3763C21.2614 23.3836 21.3158 23.4123 21.3552 23.4571C21.4178 23.5354 21.4843 23.6098 21.5509 23.6841C21.6969 23.8423 21.8538 23.9901 22.0205 24.1264C21.9267 23.9313 21.8195 23.743 21.6996 23.5628L21.5274 23.3162Z" fill="#4FA0CA"/>
<path d="M23.2141 18.2755C23.1963 18.2502 23.1889 18.2192 23.1933 18.1886C23.1976 18.1581 23.2135 18.1304 23.2375 18.1111L23.4215 17.9467C23.5328 17.8426 23.6373 17.7314 23.7346 17.6141C23.5984 17.6779 23.4675 17.7525 23.3432 17.8371C23.2729 17.8805 23.205 17.9275 23.1397 17.978C23.1144 17.9958 23.0834 18.0032 23.0529 17.9988C23.0223 17.9945 22.9946 17.9786 22.9753 17.9546C22.9205 17.8919 22.8696 17.8293 22.8109 17.7706C22.7077 17.6584 22.5966 17.5537 22.4783 17.4575C22.5421 17.5937 22.6167 17.7246 22.7014 17.8489C22.7447 17.9192 22.7917 17.9871 22.8423 18.0524C22.8621 18.0752 22.873 18.1044 22.873 18.1346C22.873 18.1648 22.8621 18.194 22.8423 18.2168C22.7757 18.2716 22.7131 18.3224 22.6544 18.3811C22.5424 18.4834 22.439 18.5947 22.3452 18.7138C22.4815 18.6501 22.6124 18.5755 22.7366 18.4907C22.8068 18.4474 22.8748 18.4003 22.9401 18.3498C22.9629 18.33 22.9921 18.3191 23.0223 18.3191C23.0525 18.3191 23.0817 18.33 23.1045 18.3498C23.1593 18.4177 23.2141 18.4803 23.2688 18.5377C23.3711 18.6497 23.4824 18.7531 23.6015 18.8469C23.5378 18.7106 23.4632 18.5797 23.3784 18.4555C23.3268 18.3927 23.2719 18.3326 23.2141 18.2755Z" fill="#4FA0CA"/>
<path d="M26.5602 18.7998C26.5494 18.7888 26.5434 18.7741 26.5434 18.7587C26.5434 18.7433 26.5494 18.7286 26.5602 18.7176C26.6855 18.6138 26.8008 18.4985 26.9046 18.3732C26.7587 18.4449 26.6198 18.5301 26.4897 18.6276C26.4788 18.6384 26.464 18.6444 26.4487 18.6444C26.4333 18.6444 26.4185 18.6384 26.4076 18.6276C26.3038 18.5023 26.1885 18.387 26.0632 18.2832C26.1334 18.4299 26.2186 18.569 26.3175 18.6981C26.3283 18.709 26.3343 18.7238 26.3343 18.7391C26.3343 18.7545 26.3283 18.7693 26.3175 18.7802C26.1913 18.883 26.0759 18.9984 25.9731 19.1246C26.119 19.0529 26.2579 18.9678 26.388 18.8703C26.399 18.8595 26.4137 18.8535 26.4291 18.8535C26.4445 18.8535 26.4592 18.8595 26.4702 18.8703C26.5729 18.9965 26.6883 19.1119 26.8146 19.2147C26.7429 19.0688 26.6577 18.9299 26.5602 18.7998Z" fill="#4FA0CA"/>
<path d="M25.4335 14.4128C25.3652 14.4662 25.3142 14.5387 25.2871 14.6211C25.26 14.7035 25.2579 14.7921 25.2812 14.8757C25.3045 14.9593 25.352 15.0341 25.4178 15.0906C25.4836 15.1471 25.5647 15.1829 25.6508 15.1933C25.7369 15.2037 25.8242 15.1884 25.9016 15.1492C25.979 15.1099 26.043 15.0487 26.0855 14.973C26.128 14.8974 26.1472 14.8109 26.1405 14.7244C26.1338 14.6379 26.1016 14.5553 26.048 14.4872C25.9763 14.396 25.8713 14.3369 25.7561 14.323C25.641 14.3091 25.525 14.3414 25.4335 14.4128Z" fill="#4FA0CA"/>
<path d="M23.7542 21.1794C23.7042 21.2185 23.6668 21.2715 23.647 21.3318C23.6271 21.3921 23.6256 21.457 23.6426 21.5182C23.6596 21.5794 23.6943 21.6341 23.7425 21.6755C23.7906 21.7169 23.85 21.7431 23.913 21.7508C23.976 21.7585 24.0399 21.7473 24.0966 21.7186C24.1533 21.69 24.2002 21.6452 24.2313 21.5899C24.2625 21.5345 24.2766 21.4712 24.2718 21.4079C24.267 21.3446 24.2435 21.2841 24.2043 21.2342C24.1518 21.1673 24.0749 21.124 23.9906 21.1137C23.9062 21.1034 23.8212 21.127 23.7542 21.1794Z" fill="#4FA0CA"/>
<path d="M21.4293 20.1693C21.4601 20.1452 21.4859 20.1152 21.5051 20.0811C21.5244 20.047 21.5367 20.0094 21.5414 19.9705C21.5461 19.9316 21.5432 19.8922 21.5327 19.8544C21.5221 19.8167 21.5043 19.7814 21.4801 19.7506C21.456 19.7197 21.426 19.694 21.3919 19.6747C21.3577 19.6555 21.3202 19.6431 21.2813 19.6384C21.2424 19.6337 21.203 19.6367 21.1652 19.6472C21.1275 19.6577 21.0922 19.6755 21.0614 19.6997C20.9998 19.749 20.96 19.8204 20.9504 19.8987C20.9409 19.977 20.9625 20.0559 21.0105 20.1185C21.0346 20.1494 21.0645 20.1753 21.0987 20.1946C21.1328 20.2139 21.1704 20.2263 21.2093 20.231C21.2482 20.2357 21.2877 20.2327 21.3254 20.2221C21.3632 20.2115 21.3985 20.1936 21.4293 20.1693Z" fill="#4FA0CA"/>
<path d="M21.6525 32.6112C20.4542 31.3809 19.5392 29.9036 18.9717 28.2827C18.7877 27.7152 18.6234 27.0498 18.0754 26.9207C17.4982 26.7937 16.9023 26.7751 16.3182 26.8659C16.1695 26.0401 15.7507 23.735 15.328 21.4455C15.0189 19.7743 14.7684 18.4398 14.5844 17.4809C14.1931 15.5515 14.1931 15.5475 14.0796 15.4497L13.6882 15.9585C13.6426 15.9245 13.6073 15.8784 13.5865 15.8254C13.7195 16.2168 14.8936 22.6 15.6881 26.9911C15.0455 27.1295 14.4513 27.4361 13.9661 27.8795C13.6099 28.2396 13.7313 29.2767 13.7547 29.7816C13.7545 31.3179 13.5182 32.8451 13.0542 34.3097C13.8917 34.5524 14.4083 34.8107 15.2459 34.7872C15.3359 34.2275 15.6685 33.0965 15.6842 32.5642C15.6842 33.1278 16.0756 34.2158 16.1186 34.7402C17.1175 34.6565 18.0966 34.4133 19.0186 34.0201C18.9404 33.6874 18.6273 32.2472 18.6273 32.2472C18.6273 32.2472 19.3396 33.6013 19.4765 33.887C20.2635 33.5768 20.9975 33.1464 21.6525 32.6112Z" fill="#4FA0CA"/>
<path d="M27.8479 21.1127C27.3039 21.5354 26.7521 21.9541 26.2042 22.3729L24.3726 23.7779C24.4138 23.8624 24.444 23.9518 24.4626 24.044C24.4626 24.7485 24.4626 25.449 24.4626 26.1535C24.4626 26.4157 24.5213 26.4823 24.7874 26.494C25.0535 26.5057 25.2023 26.494 25.4097 26.494H27.0808C27.4057 26.494 27.4722 26.4235 27.4722 26.1026V23.8836H28.5289V24.1262C28.5289 24.8189 28.5289 25.5077 28.5289 26.1966C28.5289 26.3766 28.5954 26.4588 28.7637 26.4783C28.8367 26.4821 28.9099 26.4821 28.9829 26.4783H31.2332C31.4915 26.4509 31.5424 26.3962 31.5424 26.1339C31.5424 25.4569 31.5424 24.7798 31.5424 24.1027C31.5591 23.9903 31.5921 23.8809 31.6403 23.7779C30.4662 22.8856 29.3194 21.9972 28.1649 21.1049C28.1442 21.0834 28.1193 21.0665 28.0917 21.0552C28.0641 21.0439 28.0345 21.0384 28.0047 21.0391C27.9749 21.0399 27.9456 21.0468 27.9186 21.0594C27.8916 21.0721 27.8675 21.0902 27.8479 21.1127Z" fill="#4FA0CA"/>
<path d="M32.2469 22.7293C31.562 22.2009 30.881 21.6726 30.1922 21.1638C30.1489 21.1353 30.1142 21.0953 30.0921 21.0484C30.07 21.0014 30.0613 20.9493 30.067 20.8977C30.067 20.475 30.067 20.0523 30.067 19.6296C30.0707 19.5815 30.0648 19.5331 30.0497 19.4873C30.0345 19.4414 30.0104 19.3991 29.9787 19.3627C29.947 19.3262 29.9084 19.2965 29.8651 19.2751C29.8218 19.2538 29.7747 19.2413 29.7265 19.2383C29.6227 19.2383 29.5232 19.2795 29.4498 19.3529C29.3764 19.4263 29.3351 19.5259 29.3351 19.6296C29.3351 19.7431 29.3351 19.8566 29.3351 19.9701V20.4867L28.3528 19.7314C28.3084 19.6826 28.2543 19.6436 28.194 19.617C28.1337 19.5903 28.0685 19.5765 28.0025 19.5765C27.9366 19.5765 27.8714 19.5903 27.811 19.617C27.7507 19.6436 27.6966 19.6826 27.6523 19.7314L24.9127 21.8409C24.5213 22.1383 24.1299 22.4358 23.7386 22.7371C23.6887 22.7644 23.6454 22.8023 23.6116 22.848C23.5778 22.8938 23.5545 22.9463 23.5431 23.0021C23.5317 23.0578 23.5326 23.1153 23.5457 23.1706C23.5588 23.226 23.5838 23.2778 23.619 23.3225C23.6542 23.3671 23.6986 23.4036 23.7494 23.4294C23.8001 23.4551 23.8558 23.4695 23.9126 23.4715C23.9694 23.4735 24.026 23.4632 24.0784 23.4411C24.1308 23.419 24.1778 23.3858 24.216 23.3437L24.3139 23.2694L28.0045 20.4124L30.1492 22.064L31.7694 23.3163C31.9925 23.4846 32.1921 23.4846 32.3448 23.3163C32.3811 23.273 32.4077 23.2223 32.4226 23.1678C32.4375 23.1132 32.4404 23.0561 32.4311 23.0003C32.4218 22.9445 32.4005 22.8913 32.3687 22.8446C32.3369 22.7978 32.2954 22.7585 32.2469 22.7293Z" fill="#4FA0CA"/>
<path d="M24.2746 27.3354H23.8989V29.2571H24.2746V27.3354Z" fill="#4FA0CA"/>
<path d="M26.0475 28.4314C26.1271 28.3831 26.192 28.3142 26.2354 28.2318C26.2807 28.1379 26.3035 28.0347 26.3019 27.9304C26.3034 27.8249 26.2807 27.7205 26.2354 27.6252C26.1932 27.542 26.128 27.4727 26.0475 27.4256C25.9631 27.3771 25.867 27.3528 25.7697 27.3551H24.9321V29.2768H25.2961V28.494H25.5153L25.9497 29.2768H26.388L25.9301 28.494C25.9718 28.4784 26.0113 28.4573 26.0475 28.4314ZM25.2883 27.7035H25.7383C25.7734 27.7012 25.8084 27.7102 25.8379 27.7292C25.8675 27.7482 25.8902 27.7762 25.9027 27.8091C25.9191 27.8474 25.9271 27.8888 25.9262 27.9304C25.9268 27.9708 25.9188 28.0108 25.9027 28.0479C25.8895 28.0804 25.8662 28.1078 25.8362 28.1261C25.8074 28.1456 25.7731 28.1552 25.7383 28.1535H25.2961L25.2883 27.7035Z" fill="#4FA0CA"/>
<path d="M27.1785 27.3354H27.0454V29.2571H27.1785H27.4094H28.333V28.9087H27.4094V28.4782H28.1882V28.1299H27.4094V27.6838H28.333V27.3354H27.4094H27.1785Z" fill="#4FA0CA"/>
<path d="M30.0474 28.1299H29.3547V27.3354H28.9946V29.2571H29.3547V28.4782H30.0474V29.2571H30.4075V27.3354H30.0474V28.1299Z" fill="#4FA0CA"/>
<path d="M32.2586 27.3354L31.8477 28.6191L31.4406 27.3354H31.0688L31.7068 29.2571H31.9886L32.6304 27.3354H32.2586Z" fill="#4FA0CA"/>
<path d="M43.5492 19.9698C43.4324 19.8233 43.2865 19.7025 43.1209 19.615C42.9552 19.5274 42.7733 19.475 42.5864 19.461H42.3751V19.2144L42.4142 18.6548H42.2694L42.0933 19.1714C41.1892 19.0103 40.2721 18.933 39.3537 18.9405C39.2384 18.9454 39.1291 18.9936 39.0478 19.0756C38.9666 19.1576 38.9193 19.2673 38.9154 19.3827V19.5628C38.9049 19.6808 38.9395 19.7984 39.012 19.892C39.0846 19.9856 39.1899 20.0483 39.3068 20.0676C40.2114 20.2221 41.1289 20.289 42.0464 20.2672L42.1755 20.8386H42.3164L42.3516 20.2829V20.0363H42.5277C42.6485 20.047 42.7659 20.082 42.8728 20.1391C42.9798 20.1963 43.074 20.2745 43.15 20.369L45.7291 23.4999L45.9013 22.7524L43.5492 19.9698Z" fill="#F57F80"/>
<path d="M38.6263 20.1423C38.6165 20.138 38.6058 20.1357 38.595 20.1357C38.5842 20.1357 38.5736 20.138 38.5637 20.1423C38.5464 20.1499 38.5305 20.1605 38.5167 20.1736C38.3328 20.3145 38.1254 20.4397 37.9493 20.565L37.7379 20.7019C37.3035 20.9915 36.9082 21.2538 36.5247 21.5551C36.2038 21.8056 35.8868 22.0678 35.5776 22.3378L34.9866 22.8271C34.4152 23.2889 33.8986 23.6998 33.3624 24.0794C33.1002 24.2673 32.8654 24.4356 32.6384 24.6313L32.6149 24.6508L32.5562 24.7095C32.5422 24.7289 32.5347 24.7522 32.5347 24.7761C32.5347 24.8 32.5422 24.8232 32.5562 24.8426C32.5632 24.8548 32.5725 24.8654 32.5836 24.8739C32.5974 24.8835 32.6138 24.8887 32.6306 24.8887C32.6474 24.8887 32.6638 24.8835 32.6775 24.8739C32.7106 24.8558 32.742 24.8348 32.7715 24.8113L32.975 24.6547L33.3663 24.3495C34.3369 23.6333 35.2801 22.8858 36.0707 22.2439C36.4621 21.9191 36.8534 21.6021 37.28 21.3007L37.5266 21.1207C37.8788 20.8585 38.2389 20.5923 38.6028 20.338C38.6204 20.3285 38.6356 20.3151 38.6472 20.2988C38.6587 20.2825 38.6663 20.2638 38.6694 20.244V20.2127C38.664 20.1848 38.6487 20.1598 38.6263 20.1423Z" fill="#F57F80"/>
<path d="M32.5641 17.0816C32.6098 17.1145 32.6598 17.1408 32.7128 17.1598C33.1433 17.336 33.6012 17.5121 34.2 17.7234L36.0708 18.377L36.5052 18.5296L37.327 18.831C37.6558 18.9523 37.9963 19.0815 38.3329 19.1949C38.3533 19.2013 38.3751 19.2013 38.3955 19.1949C38.4092 19.1936 38.4224 19.189 38.434 19.1815C38.4456 19.174 38.4552 19.1639 38.462 19.1519C38.4687 19.1371 38.4722 19.1211 38.4722 19.1049C38.4722 19.0887 38.4687 19.0727 38.462 19.058C38.4556 19.0419 38.4449 19.028 38.4311 19.0176C38.4173 19.0073 38.4009 19.0009 38.3837 18.9993C38.2831 18.9775 38.1848 18.946 38.0902 18.9053H38.0472C37.1901 18.5688 36.3056 18.2557 35.4407 17.9465L35.2685 17.8878L33.8243 17.3594L33.1903 17.1246L33.0533 17.0816L32.7011 16.9485C32.6726 16.934 32.6401 16.9296 32.6088 16.936C32.5775 16.9424 32.5493 16.9592 32.5289 16.9837L32.4897 17.0189L32.5289 17.0542L32.5641 17.0816Z" fill="#F57F80"/>
<path d="M38.6767 18.7493C38.6552 18.728 38.63 18.7108 38.6024 18.6985L38.5398 18.6476L38.3167 18.5263L37.7883 18.2797C37.4439 18.1114 37.0878 17.9353 36.7434 17.7474C36.2777 17.4891 35.8158 17.2269 35.354 16.9647L34.5713 16.5107H34.5478C34.5271 16.494 34.5033 16.4816 34.4778 16.4742C34.4523 16.4668 34.4255 16.4646 34.3991 16.4677H34.313L34.3717 16.5381C34.4 16.5699 34.4315 16.5988 34.4656 16.6242C34.499 16.6492 34.5344 16.6714 34.5713 16.6907H34.5948L35.1035 16.996L35.581 17.2856L35.7806 17.4069C36.1289 17.6183 36.4851 17.8335 36.849 18.0253C37.3617 18.2914 37.8862 18.5537 38.4145 18.808L38.5398 18.8667L38.6063 18.8981H38.6337C38.6442 18.9033 38.6556 18.9063 38.6673 18.9069C38.679 18.9076 38.6907 18.9058 38.7017 18.9018C38.7126 18.8978 38.7227 18.8915 38.7312 18.8835C38.7397 18.8754 38.7465 18.8658 38.7511 18.855C38.7533 18.8432 38.7532 18.831 38.7506 18.8192C38.7481 18.8074 38.7432 18.7963 38.7363 18.7864C38.7293 18.7766 38.7205 18.7682 38.7103 18.7618C38.7 18.7555 38.6886 18.7512 38.6767 18.7493Z" fill="#F57F80"/>
<path d="M34.8687 23.539C34.8334 23.539 34.81 23.5703 34.7943 23.5899C34.7786 23.6095 34.7278 23.6721 34.6965 23.7034L33.4323 24.9088L33.0018 25.3002C32.7709 25.5115 32.5322 25.7307 32.3091 25.9616C32.2847 25.9806 32.2647 26.0046 32.2504 26.032C32.2421 26.0491 32.2378 26.0678 32.2378 26.0868C32.2378 26.1058 32.2421 26.1245 32.2504 26.1416C32.2586 26.1563 32.2692 26.1695 32.2817 26.1807C32.2932 26.1866 32.306 26.1896 32.3189 26.1896C32.3318 26.1896 32.3446 26.1866 32.3561 26.1807C32.3947 26.1708 32.4299 26.1505 32.4578 26.122L32.5439 26.0829L32.677 25.9577C33.1858 25.4606 33.6906 24.944 34.1838 24.4431L34.9078 23.7073C34.9336 23.6871 34.9505 23.6576 34.9548 23.6251C34.9511 23.6023 34.9416 23.5807 34.9274 23.5625C34.9203 23.554 34.9112 23.5474 34.901 23.5433C34.8907 23.5392 34.8796 23.5377 34.8687 23.539Z" fill="#F57F80"/>
<path d="M36.8417 20.2594H36.8026L36.7048 20.3181L36.5287 20.4199C35.8712 20.7877 35.3545 21.0969 34.8614 21.3944L34.7949 21.4335C34.7096 21.4829 34.6284 21.5392 34.5522 21.6018V21.6214V21.6488C34.5574 21.6778 34.5726 21.7042 34.5953 21.7231C34.6075 21.729 34.6209 21.7321 34.6344 21.7321C34.648 21.7321 34.6614 21.729 34.6736 21.7231L34.8145 21.6566L35.9377 21.0108C36.239 20.8386 36.5404 20.6508 36.83 20.4512L36.8965 20.4042C36.9093 20.3918 36.9183 20.376 36.9225 20.3587C36.9266 20.3414 36.9258 20.3232 36.92 20.3064C36.9122 20.2711 36.877 20.2477 36.8417 20.2594Z" fill="#F57F80"/>
<path d="M33.2057 18.2128C33.2312 18.2219 33.2592 18.2209 33.2839 18.21C33.3087 18.199 33.3283 18.179 33.3387 18.1541V18.1267V18.0993C33.3173 18.0749 33.2908 18.0556 33.261 18.0427C33.2312 18.0299 33.199 18.0238 33.1665 18.0249H33.1196C32.7634 17.9466 32.3995 17.8762 32.0472 17.8018H31.969C31.7576 17.7588 31.5424 17.7157 31.331 17.6805C31.298 17.6722 31.2636 17.6706 31.23 17.676C31.1963 17.6814 31.1641 17.6936 31.1353 17.7118L31.0884 17.7471L31.1314 17.7901H31.1549C31.1982 17.8195 31.2478 17.8383 31.2997 17.8449C31.5032 17.884 31.6911 17.931 31.9063 17.974C32.196 18.0367 32.4934 18.1032 32.7908 18.1541L33.2057 18.2128Z" fill="#F57F80"/>
<path d="M32.3096 18.4356H32.3566C32.3896 18.4478 32.4255 18.4499 32.4596 18.4415C32.4938 18.4331 32.5247 18.4147 32.5483 18.3886L32.607 18.3299L32.5288 18.3064C32.3938 18.2549 32.2465 18.2453 32.1061 18.279L32.0435 18.3025L32.0865 18.3573C32.0975 18.3723 32.1107 18.3855 32.1256 18.3965C32.1525 18.414 32.1827 18.4258 32.2144 18.4312C32.246 18.4365 32.2784 18.4354 32.3096 18.4278V18.4356Z" fill="#F57F80"/>
<path d="M33.5151 22.3341L33.3077 22.4633C33.2568 22.4946 33.2724 22.5611 33.2763 22.5885V22.6277H33.3155C33.4038 22.613 33.4856 22.572 33.5503 22.5102L33.5894 22.4789C33.6087 22.4661 33.6225 22.4466 33.6283 22.4243C33.6341 22.4019 33.6314 22.3781 33.6207 22.3576C33.6156 22.3489 33.6086 22.3413 33.6004 22.3354C33.5922 22.3295 33.5829 22.3253 33.573 22.3231C33.5631 22.3209 33.5528 22.3207 33.5429 22.3226C33.5329 22.3245 33.5235 22.3284 33.5151 22.3341Z" fill="#F57F80"/>
<path d="M33.5466 16.1037C33.5722 16.1222 33.5998 16.138 33.6288 16.1506L33.6953 16.1898C33.7023 16.1987 33.7112 16.2059 33.7213 16.2109C33.7315 16.2159 33.7427 16.2185 33.754 16.2185C33.7653 16.2185 33.7765 16.2159 33.7867 16.2109C33.7969 16.2059 33.8058 16.1987 33.8127 16.1898L33.8323 16.1663V16.135C33.805 16.0738 33.7573 16.0239 33.6973 15.994C33.6374 15.964 33.5689 15.9557 33.5035 15.9706L33.4448 15.9941L33.484 16.045C33.5011 16.0682 33.5223 16.088 33.5466 16.1037Z" fill="#F57F80"/>
<path d="M16.3182 26.8659C16.1695 26.0401 15.7507 23.735 15.328 21.4455C15.0188 19.7743 14.7684 18.4398 14.5844 17.4809C14.193 15.5515 14.193 15.5475 14.0795 15.4497L13.6882 15.9585C13.6425 15.9245 13.6073 15.8784 13.5864 15.8254C13.7195 16.2168 14.8936 22.6 15.6881 26.9911" fill="#F57F80"/>
<path d="M68.69 16.0015H64V40.0002H68.69V16.0015Z" fill="#133063"/>
<path d="M87.6284 29.468C88.6359 28.8744 89.4485 27.9999 89.9666 26.9516C90.5089 25.7683 90.7897 24.482 90.7897 23.1803C90.7897 21.8787 90.5089 20.5924 89.9666 19.4091C89.4467 18.3642 88.6375 17.4907 87.6353 16.8927C86.5765 16.2853 85.3725 15.9772 84.152 16.0013H73.6406V40H78.1592V30.3388H80.9019L86.3119 39.9931H91.7973L86.0582 30.0988C86.6085 29.9628 87.137 29.7505 87.6284 29.468ZM78.1592 20.3622H83.7886C84.2272 20.3507 84.6593 20.47 85.0297 20.7051C85.3919 20.9509 85.6752 21.2961 85.8457 21.6993C86.0462 22.1668 86.1444 22.6718 86.1337 23.1803C86.1326 23.6914 86.03 24.1972 85.832 24.6683C85.6589 25.07 85.3731 25.413 85.0091 25.6556C84.6469 25.8926 84.2214 26.0145 83.7886 26.0053H78.1592V20.3622Z" fill="#133063"/>
<path d="M97.3102 16.0015H95.6714V39.9933H97.3102H100.197H111.751V35.6392H100.197V30.2567H109.933V25.9026H100.197V20.3555H111.751V16.0015H100.197H97.3102Z" fill="#133063"/>
<path d="M129.016 25.9164H120.397V16.0015H115.878V39.9933H120.397V30.2773H129.016V39.9933H133.535V16.0015H129.016V25.9164Z" fill="#133063"/>
<path d="M151.856 16.0015L146.754 32.0052L141.653 16.0015H137.004L144.992 39.9933H148.523L156.511 16.0015H151.856Z" fill="#133063"/>
</svg>
