<svg width="908" height="113" viewBox="0 0 908 113" fill="none" xmlns="http://www.w3.org/2000/svg">
<path d="M365.534 24.2221C363.554 24.2221 362.043 23.6427 361.002 22.4841C359.961 21.3107 359.44 19.7341 359.44 17.7541C359.44 16.4487 359.66 15.3194 360.1 14.3661C360.555 13.3981 361.229 12.6501 362.124 12.1221C363.033 11.5794 364.17 11.3081 365.534 11.3081C367.514 11.3081 369.017 11.8947 370.044 13.0681C371.085 14.2267 371.606 15.7887 371.606 17.7541C371.606 19.0301 371.371 20.1594 370.902 21.1421C370.447 22.1101 369.765 22.8654 368.856 23.4081C367.961 23.9507 366.854 24.2221 365.534 24.2221ZM365.512 22.4621C366.935 22.4621 368.005 22.0221 368.724 21.1421C369.443 20.2621 369.802 19.1327 369.802 17.7541C369.802 16.3754 369.443 15.2461 368.724 14.3661C368.02 13.4714 366.949 13.0241 365.512 13.0241C364.104 13.0241 363.033 13.4494 362.3 14.3001C361.581 15.1507 361.222 16.3021 361.222 17.7541C361.222 18.6634 361.376 19.4774 361.684 20.1961C361.992 20.9001 362.461 21.4574 363.092 21.8681C363.737 22.2641 364.544 22.4621 365.512 22.4621ZM383.316 24.2221C381.615 24.2221 380.31 23.7381 379.4 22.7701C378.506 21.7874 378.058 20.4087 378.058 18.6341V11.5281H379.972V18.6121C379.972 19.5654 380.126 20.3281 380.434 20.9001C380.742 21.4574 381.146 21.8607 381.644 22.1101C382.158 22.3594 382.715 22.4841 383.316 22.4841C383.976 22.4841 384.556 22.3667 385.054 22.1321C385.568 21.8827 385.964 21.4794 386.242 20.9221C386.536 20.3501 386.682 19.5801 386.682 18.6121V11.5281H388.596V18.6341C388.596 20.4381 388.149 21.8241 387.254 22.7921C386.374 23.7454 385.062 24.2221 383.316 24.2221ZM395.481 23.9141V11.5281H399.815C401.399 11.5281 402.623 11.7921 403.489 12.3201C404.369 12.8334 404.809 13.7647 404.809 15.1141C404.809 16.0527 404.567 16.8374 404.083 17.4681C403.613 18.0987 402.902 18.4141 401.949 18.4141C402.521 18.4141 402.946 18.5387 403.225 18.7881C403.503 19.0374 403.694 19.3527 403.797 19.7341C403.899 20.1007 403.965 20.4821 403.995 20.8781C404.024 21.2741 404.068 21.6334 404.127 21.9561C404.185 22.2787 404.303 22.5134 404.479 22.6601C404.655 22.7921 404.955 22.7774 405.381 22.6161V23.7161C405.175 23.8921 404.904 24.0094 404.567 24.0681C404.244 24.1414 403.921 24.1194 403.599 24.0021C403.276 23.8994 402.997 23.6794 402.763 23.3421C402.543 22.9901 402.433 22.4841 402.433 21.8241C402.433 21.0467 402.389 20.4381 402.301 19.9981C402.213 19.5581 402.007 19.2354 401.685 19.0301C401.362 18.8247 400.856 18.7074 400.167 18.6781C399.477 18.6341 398.531 18.6341 397.329 18.6781V23.9141H395.481ZM397.329 17.3141H399.881C400.629 17.3141 401.245 17.2701 401.729 17.1821C402.213 17.0794 402.572 16.8814 402.807 16.5881C403.056 16.2947 403.181 15.8474 403.181 15.2461C403.181 14.5567 403.034 14.0581 402.741 13.7501C402.447 13.4421 402.015 13.2514 401.443 13.1781C400.885 13.0901 400.203 13.0461 399.397 13.0461H397.329V17.3141ZM423.08 23.9141H421.254V11.5281H426.094C427.458 11.5281 428.514 11.8654 429.262 12.5401C430.01 13.2147 430.384 14.2267 430.384 15.5761C430.384 16.7934 429.995 17.7394 429.218 18.4141C428.455 19.0887 427.414 19.4261 426.094 19.4261H423.08V23.9141ZM425.874 13.0461H423.08V18.0401H425.874C426.754 18.0401 427.443 17.8347 427.942 17.4241C428.455 17.0134 428.712 16.3901 428.712 15.5541C428.712 14.6887 428.463 14.0581 427.964 13.6621C427.465 13.2514 426.769 13.0461 425.874 13.0461ZM436.718 23.9141V11.5281H441.052C442.636 11.5281 443.861 11.7921 444.726 12.3201C445.606 12.8334 446.046 13.7647 446.046 15.1141C446.046 16.0527 445.804 16.8374 445.32 17.4681C444.851 18.0987 444.139 18.4141 443.186 18.4141C443.758 18.4141 444.183 18.5387 444.462 18.7881C444.741 19.0374 444.931 19.3527 445.034 19.7341C445.137 20.1007 445.203 20.4821 445.232 20.8781C445.261 21.2741 445.305 21.6334 445.364 21.9561C445.423 22.2787 445.54 22.5134 445.716 22.6601C445.892 22.7921 446.193 22.7774 446.618 22.6161V23.7161C446.413 23.8921 446.141 24.0094 445.804 24.0681C445.481 24.1414 445.159 24.1194 444.836 24.0021C444.513 23.8994 444.235 23.6794 444 23.3421C443.78 22.9901 443.67 22.4841 443.67 21.8241C443.67 21.0467 443.626 20.4381 443.538 19.9981C443.45 19.5581 443.245 19.2354 442.922 19.0301C442.599 18.8247 442.093 18.7074 441.404 18.6781C440.715 18.6341 439.769 18.6341 438.566 18.6781V23.9141H436.718ZM438.566 17.3141H441.118C441.866 17.3141 442.482 17.2701 442.966 17.1821C443.45 17.0794 443.809 16.8814 444.044 16.5881C444.293 16.2947 444.418 15.8474 444.418 15.2461C444.418 14.5567 444.271 14.0581 443.978 13.7501C443.685 13.4421 443.252 13.2514 442.68 13.1781C442.123 13.0901 441.441 13.0461 440.634 13.0461H438.566V17.3141ZM458.299 24.2221C456.319 24.2221 454.809 23.6427 453.767 22.4841C452.726 21.3107 452.205 19.7341 452.205 17.7541C452.205 16.4487 452.425 15.3194 452.865 14.3661C453.32 13.3981 453.995 12.6501 454.889 12.1221C455.799 11.5794 456.935 11.3081 458.299 11.3081C460.279 11.3081 461.783 11.8947 462.809 13.0681C463.851 14.2267 464.371 15.7887 464.371 17.7541C464.371 19.0301 464.137 20.1594 463.667 21.1421C463.213 22.1101 462.531 22.8654 461.621 23.4081C460.727 23.9507 459.619 24.2221 458.299 24.2221ZM458.277 22.4621C459.7 22.4621 460.771 22.0221 461.489 21.1421C462.208 20.2621 462.567 19.1327 462.567 17.7541C462.567 16.3754 462.208 15.2461 461.489 14.3661C460.785 13.4714 459.715 13.0241 458.277 13.0241C456.869 13.0241 455.799 13.4494 455.065 14.3001C454.347 15.1507 453.987 16.3021 453.987 17.7541C453.987 18.6634 454.141 19.4774 454.449 20.1961C454.757 20.9001 455.227 21.4574 455.857 21.8681C456.503 22.2641 457.309 22.4621 458.277 22.4621ZM481.914 17.7101C481.914 19.3381 481.599 20.6067 480.968 21.5161C480.337 22.4107 479.45 23.0341 478.306 23.3861C477.177 23.7381 475.849 23.9141 474.324 23.9141H470.98V11.5281H474.324C475.849 11.5281 477.177 11.7627 478.306 12.2321C479.45 12.6867 480.337 13.3687 480.968 14.2781C481.599 15.1874 481.914 16.3314 481.914 17.7101ZM472.806 22.3741H474.808C475.849 22.3741 476.759 22.2567 477.536 22.0221C478.313 21.7727 478.915 21.3107 479.34 20.6361C479.765 19.9614 479.978 18.9787 479.978 17.6881C479.978 16.1481 479.509 15.0041 478.57 14.2561C477.631 13.4934 476.377 13.1121 474.808 13.1121H472.806V22.3741ZM493.501 24.2221C491.8 24.2221 490.494 23.7381 489.585 22.7701C488.69 21.7874 488.243 20.4087 488.243 18.6341V11.5281H490.157V18.6121C490.157 19.5654 490.311 20.3281 490.619 20.9001C490.927 21.4574 491.33 21.8607 491.829 22.1101C492.342 22.3594 492.9 22.4841 493.501 22.4841C494.161 22.4841 494.74 22.3667 495.239 22.1321C495.752 21.8827 496.148 21.4794 496.427 20.9221C496.72 20.3501 496.867 19.5801 496.867 18.6121V11.5281H498.781V18.6341C498.781 20.4381 498.334 21.8241 497.439 22.7921C496.559 23.7454 495.246 24.2221 493.501 24.2221ZM510.968 24.1341C509.824 24.1341 508.782 23.8994 507.844 23.4301C506.92 22.9461 506.186 22.2347 505.644 21.2961C505.116 20.3427 504.852 19.1621 504.852 17.7541C504.866 16.3607 505.138 15.1874 505.666 14.2341C506.194 13.2661 506.92 12.5401 507.844 12.0561C508.782 11.5574 509.853 11.3081 511.056 11.3081C512.654 11.3081 513.945 11.7334 514.928 12.5841C515.91 13.4347 516.519 14.5494 516.754 15.9281H514.862C514.744 15.2241 514.488 14.6594 514.092 14.2341C513.71 13.8087 513.248 13.5007 512.706 13.3101C512.178 13.1194 511.628 13.0241 511.056 13.0241C509.662 13.0241 508.584 13.4274 507.822 14.2341C507.059 15.0261 506.678 16.1627 506.678 17.6441C506.678 19.1987 507.052 20.3867 507.8 21.2081C508.548 22.0147 509.611 22.4181 510.99 22.4181C511.943 22.4181 512.794 22.1907 513.542 21.7361C514.29 21.2667 514.752 20.5114 514.928 19.4701H516.842C516.592 20.8487 515.976 21.9707 514.994 22.8361C514.011 23.7014 512.669 24.1341 510.968 24.1341ZM522.158 13.1121V11.5281H531.618V13.1121H527.812V23.9141H525.986V13.1121H522.158ZM542.398 24.1781C541.504 24.1781 540.646 24.0387 539.824 23.7601C539.003 23.4667 538.328 23.0121 537.8 22.3961C537.287 21.7654 537.023 20.9514 537.008 19.9541H538.856C538.856 20.0127 538.878 20.1814 538.922 20.4601C538.981 20.7241 539.12 21.0174 539.34 21.3401C539.575 21.6481 539.942 21.9194 540.44 22.1541C540.939 22.3887 541.636 22.5061 542.53 22.5061C543.249 22.5061 543.814 22.4034 544.224 22.1981C544.65 21.9927 544.943 21.7507 545.104 21.4721C545.28 21.1934 545.376 20.9441 545.39 20.7241C545.39 20.2694 545.244 19.9027 544.95 19.6241C544.672 19.3454 544.29 19.1254 543.806 18.9641C543.322 18.7881 542.787 18.6341 542.2 18.5021C541.628 18.3554 541.056 18.2014 540.484 18.0401C539.912 17.8641 539.384 17.6367 538.9 17.3581C538.431 17.0794 538.057 16.7201 537.778 16.2801C537.514 15.8254 537.404 15.2461 537.448 14.5421C537.492 13.5301 537.969 12.7381 538.878 12.1661C539.802 11.5941 540.99 11.3081 542.442 11.3081C543.293 11.3081 544.085 11.4621 544.818 11.7701C545.552 12.0781 546.138 12.5401 546.578 13.1561C547.018 13.7721 547.238 14.5421 547.238 15.4661H545.456C545.456 14.9527 545.346 14.5421 545.126 14.2341C544.906 13.9114 544.628 13.6621 544.29 13.4861C543.953 13.3101 543.601 13.1927 543.234 13.1341C542.868 13.0607 542.538 13.0241 542.244 13.0241C541.408 13.0241 540.719 13.1781 540.176 13.4861C539.648 13.7941 539.384 14.2121 539.384 14.7401C539.37 15.2094 539.509 15.5834 539.802 15.8621C540.096 16.1407 540.484 16.3607 540.968 16.5221C541.452 16.6834 541.98 16.8301 542.552 16.9621C543.139 17.0941 543.718 17.2407 544.29 17.4021C544.877 17.5634 545.405 17.7834 545.874 18.0621C546.358 18.3261 546.732 18.6927 546.996 19.1621C547.275 19.6167 547.4 20.1961 547.37 20.9001C547.326 21.5894 547.084 22.1834 546.644 22.6821C546.219 23.1661 545.64 23.5401 544.906 23.8041C544.173 24.0534 543.337 24.1781 542.398 24.1781Z" fill="url(#paint0_linear_389_22)"/>
<path d="M158.934 100.754C153.414 100.754 149.194 99.1741 146.274 96.0141C143.354 92.8141 141.894 88.5141 141.894 83.1141C141.894 79.5541 142.514 76.4741 143.754 73.8741C145.034 71.2341 146.934 69.1941 149.454 67.7541C151.974 66.2741 155.134 65.5341 158.934 65.5341C164.494 65.5341 168.714 67.1341 171.594 70.3341C174.474 73.4941 175.914 77.7541 175.914 83.1141C175.914 86.5941 175.274 89.6741 173.994 92.3541C172.714 94.9941 170.814 97.0541 168.294 98.5341C165.774 100.014 162.654 100.754 158.934 100.754ZM158.874 93.7341C161.074 93.7341 162.914 93.2741 164.394 92.3541C165.874 91.3941 166.974 90.1141 167.694 88.5141C168.414 86.9141 168.774 85.1141 168.774 83.1141C168.774 81.1141 168.414 79.2941 167.694 77.6541C166.974 76.0141 165.874 74.7141 164.394 73.7541C162.914 72.7941 161.074 72.3141 158.874 72.3141C155.634 72.3141 153.174 73.3341 151.494 75.3741C149.814 77.3741 148.974 79.9541 148.974 83.1141C148.974 85.0741 149.334 86.8541 150.054 88.4541C150.774 90.0541 151.854 91.3341 153.294 92.2941C154.774 93.2541 156.634 93.7341 158.874 93.7341ZM196.556 100.754C191.636 100.754 187.896 99.4341 185.336 96.7941C182.816 94.1141 181.556 90.3541 181.556 85.5141V66.1341H189.296V85.4541C189.296 87.8141 189.676 89.5941 190.436 90.7941C191.236 91.9941 192.196 92.8141 193.316 93.2541C194.436 93.6541 195.516 93.8541 196.556 93.8541C197.756 93.8541 198.916 93.6541 200.036 93.2541C201.156 92.8141 202.076 91.9941 202.796 90.7941C203.516 89.5941 203.876 87.8141 203.876 85.4541V66.1341H211.616V85.5141C211.616 90.4341 210.356 94.2141 207.836 96.8541C205.356 99.4541 201.596 100.754 196.556 100.754ZM217.824 99.9141V66.1341H230.904C235.304 66.1341 238.744 66.8941 241.224 68.4141C243.744 69.8941 245.004 72.4941 245.004 76.2141C245.004 79.0941 244.324 81.3741 242.964 83.0541C241.644 84.7341 239.804 85.5741 237.444 85.5741C238.684 85.5741 239.624 85.8741 240.264 86.4741C240.904 87.0341 241.344 87.7341 241.584 88.5741C241.864 89.4141 242.064 90.2941 242.184 91.2141C242.344 92.0941 242.544 92.8941 242.784 93.6141C243.024 94.2941 243.424 94.7741 243.984 95.0541C244.584 95.2941 245.464 95.1741 246.624 94.6941V98.7141C245.704 99.5141 244.644 100.034 243.444 100.274C242.244 100.554 241.084 100.494 239.964 100.094C238.844 99.6941 237.904 98.9141 237.144 97.7541C236.424 96.5541 236.064 94.9141 236.064 92.8341C236.064 91.4741 235.964 90.3341 235.764 89.4141C235.604 88.4941 235.184 87.7741 234.504 87.2541C233.824 86.7341 232.744 86.3941 231.264 86.2341C229.784 86.0741 227.724 86.0741 225.084 86.2341V99.9141H217.824ZM225.084 81.0741H230.244C232.124 81.0741 233.664 81.0141 234.864 80.8941C236.104 80.7741 237.024 80.4341 237.624 79.8741C238.224 79.2741 238.524 78.2541 238.524 76.8141C238.524 75.1741 238.164 74.0341 237.444 73.3941C236.724 72.7141 235.644 72.3141 234.204 72.1941C232.804 72.0741 231.084 72.0141 229.044 72.0141H225.084V81.0741ZM284.748 107.954C283.988 107.954 283.188 107.914 282.348 107.834C281.508 107.754 280.708 107.494 279.948 107.054C279.228 106.654 278.608 105.934 278.088 104.894C277.608 103.894 277.328 102.454 277.248 100.574C272.608 100.014 269.068 98.1941 266.628 95.1141C264.228 92.0341 263.028 88.0341 263.028 83.1141C263.028 79.5941 263.668 76.5141 264.948 73.8741C266.228 71.2341 268.128 69.1941 270.648 67.7541C273.168 66.2741 276.348 65.5341 280.188 65.5341C283.868 65.5341 286.968 66.2741 289.488 67.7541C292.048 69.1941 293.968 71.2341 295.248 73.8741C296.528 76.4741 297.168 79.5541 297.168 83.1141C297.168 87.6741 296.048 91.5141 293.808 94.6341C291.608 97.7141 288.368 99.6541 284.088 100.454C284.128 101.294 284.308 101.834 284.628 102.074C284.948 102.354 285.728 102.494 286.968 102.494C286.968 102.494 287.288 102.434 287.928 102.314C288.608 102.234 289.268 102.194 289.908 102.194V107.654C289.788 107.654 289.468 107.674 288.948 107.714C288.428 107.754 287.828 107.794 287.148 107.834C286.508 107.874 285.948 107.894 285.468 107.894C284.988 107.934 284.748 107.954 284.748 107.954ZM280.068 93.6141C283.308 93.6141 285.728 92.6541 287.328 90.7341C288.968 88.7741 289.788 86.1541 289.788 82.8741C289.788 79.6341 288.968 77.0341 287.328 75.0741C285.728 73.0741 283.308 72.0741 280.068 72.0741C276.908 72.0741 274.508 73.0341 272.868 74.9541C271.228 76.8341 270.408 79.4741 270.408 82.8741C270.408 86.1141 271.188 88.7141 272.748 90.6741C274.348 92.6341 276.788 93.6141 280.068 93.6141ZM317.201 100.754C312.281 100.754 308.541 99.4341 305.981 96.7941C303.461 94.1141 302.201 90.3541 302.201 85.5141V66.1341H309.941V85.4541C309.941 87.8141 310.321 89.5941 311.081 90.7941C311.881 91.9941 312.841 92.8141 313.961 93.2541C315.081 93.6541 316.161 93.8541 317.201 93.8541C318.401 93.8541 319.561 93.6541 320.681 93.2541C321.801 92.8141 322.721 91.9941 323.441 90.7941C324.161 89.5941 324.521 87.8141 324.521 85.4541V66.1341H332.261V85.5141C332.261 90.4341 331.001 94.2141 328.481 96.8541C326.001 99.4541 322.241 100.754 317.201 100.754ZM336.369 99.9141L346.629 66.1341H358.569L369.129 99.9141H361.389L358.869 90.9141H346.629L344.169 99.9141H336.369ZM352.749 69.1341L348.189 85.3341H357.309L352.749 69.1341ZM373.755 99.9141V66.1341H381.015V93.7341H396.615V99.9141H373.755ZM418.076 93.7341V99.9141H402.056V93.7341H406.496V72.3141H402.056V66.1341H418.076V72.3141H413.696V93.7341H418.076ZM422.784 72.3141V66.1341H449.184V72.3141H439.584V99.9141H432.324V72.3141H422.784ZM463.024 99.9141V88.1541L451.504 66.1341H459.664L466.744 81.9141L473.884 66.1341H481.984L470.224 88.0941V99.9141H463.024ZM503.346 99.9141H496.086V66.1341H510.006C513.806 66.1341 516.786 67.1141 518.946 69.0741C521.106 70.9941 522.186 73.8741 522.186 77.7141C522.186 81.0741 521.066 83.7141 518.826 85.6341C516.626 87.5141 513.686 88.4541 510.006 88.4541H503.346V99.9141ZM508.986 72.0141H503.346V83.2941H508.986C510.906 83.2941 512.486 82.8341 513.726 81.9141C515.006 80.9541 515.646 79.5341 515.646 77.6541C515.646 75.7341 515.026 74.3141 513.786 73.3941C512.546 72.4741 510.946 72.0141 508.986 72.0141ZM527.258 99.9141V66.1341H540.338C544.738 66.1341 548.178 66.8941 550.658 68.4141C553.178 69.8941 554.438 72.4941 554.438 76.2141C554.438 79.0941 553.758 81.3741 552.398 83.0541C551.078 84.7341 549.238 85.5741 546.878 85.5741C548.118 85.5741 549.058 85.8741 549.698 86.4741C550.338 87.0341 550.778 87.7341 551.018 88.5741C551.298 89.4141 551.498 90.2941 551.618 91.2141C551.778 92.0941 551.978 92.8941 552.218 93.6141C552.458 94.2941 552.858 94.7741 553.418 95.0541C554.018 95.2941 554.898 95.1741 556.058 94.6941V98.7141C555.138 99.5141 554.078 100.034 552.878 100.274C551.678 100.554 550.518 100.494 549.398 100.094C548.278 99.6941 547.338 98.9141 546.578 97.7541C545.858 96.5541 545.498 94.9141 545.498 92.8341C545.498 91.4741 545.398 90.3341 545.198 89.4141C545.038 88.4941 544.618 87.7741 543.938 87.2541C543.258 86.7341 542.178 86.3941 540.698 86.2341C539.218 86.0741 537.158 86.0741 534.518 86.2341V99.9141H527.258ZM534.518 81.0741H539.678C541.558 81.0741 543.098 81.0141 544.298 80.8941C545.538 80.7741 546.458 80.4341 547.058 79.8741C547.658 79.2741 547.958 78.2541 547.958 76.8141C547.958 75.1741 547.598 74.0341 546.878 73.3941C546.158 72.7141 545.078 72.3141 543.638 72.1941C542.238 72.0741 540.518 72.0141 538.478 72.0141H534.518V81.0741ZM576.062 100.754C570.542 100.754 566.322 99.1741 563.402 96.0141C560.482 92.8141 559.022 88.5141 559.022 83.1141C559.022 79.5541 559.642 76.4741 560.882 73.8741C562.162 71.2341 564.062 69.1941 566.582 67.7541C569.102 66.2741 572.262 65.5341 576.062 65.5341C581.622 65.5341 585.842 67.1341 588.722 70.3341C591.602 73.4941 593.042 77.7541 593.042 83.1141C593.042 86.5941 592.402 89.6741 591.122 92.3541C589.842 94.9941 587.942 97.0541 585.422 98.5341C582.902 100.014 579.782 100.754 576.062 100.754ZM576.002 93.7341C578.202 93.7341 580.042 93.2741 581.522 92.3541C583.002 91.3941 584.102 90.1141 584.822 88.5141C585.542 86.9141 585.902 85.1141 585.902 83.1141C585.902 81.1141 585.542 79.2941 584.822 77.6541C584.102 76.0141 583.002 74.7141 581.522 73.7541C580.042 72.7941 578.202 72.3141 576.002 72.3141C572.762 72.3141 570.302 73.3341 568.622 75.3741C566.942 77.3741 566.102 79.9541 566.102 83.1141C566.102 85.0741 566.462 86.8541 567.182 88.4541C567.902 90.0541 568.982 91.3341 570.422 92.2941C571.902 93.2541 573.762 93.7341 576.002 93.7341ZM629.597 82.9941C629.597 87.4341 628.717 90.8941 626.957 93.3741C625.197 95.8141 622.697 97.5141 619.457 98.4741C616.257 99.4341 612.497 99.9141 608.177 99.9141H598.697V66.1341H608.177C612.497 66.1341 616.257 66.7741 619.457 68.0541C622.697 69.2941 625.197 71.1541 626.957 73.6341C628.717 76.1141 629.597 79.2341 629.597 82.9941ZM605.837 93.9741H610.337C612.697 93.9741 614.737 93.6941 616.457 93.1341C618.217 92.5341 619.557 91.4541 620.477 89.8941C621.437 88.2941 621.917 85.9741 621.917 82.9341C621.917 79.4141 620.877 76.7741 618.797 75.0141C616.717 73.2541 613.897 72.3741 610.337 72.3741H605.837V93.9741ZM650.189 100.754C645.269 100.754 641.529 99.4341 638.969 96.7941C636.449 94.1141 635.189 90.3541 635.189 85.5141V66.1341H642.929V85.4541C642.929 87.8141 643.309 89.5941 644.069 90.7941C644.869 91.9941 645.829 92.8141 646.949 93.2541C648.069 93.6541 649.149 93.8541 650.189 93.8541C651.389 93.8541 652.549 93.6541 653.669 93.2541C654.789 92.8141 655.709 91.9941 656.429 90.7941C657.149 89.5941 657.509 87.8141 657.509 85.4541V66.1341H665.249V85.5141C665.249 90.4341 663.989 94.2141 661.469 96.8541C658.989 99.4541 655.229 100.754 650.189 100.754ZM686.397 100.514C683.197 100.514 680.297 99.8741 677.697 98.5941C675.097 97.2741 673.037 95.3341 671.517 92.7741C669.997 90.2141 669.257 87.0341 669.297 83.2341C669.297 79.4741 670.057 76.2741 671.577 73.6341C673.097 70.9941 675.157 68.9941 677.757 67.6341C680.357 66.2341 683.297 65.5341 686.577 65.5341C689.817 65.5341 692.577 66.1141 694.857 67.2741C697.137 68.4341 698.917 69.9941 700.197 71.9541C701.517 73.9141 702.377 76.0741 702.777 78.4341H695.277C695.037 76.7541 694.437 75.4941 693.477 74.6541C692.517 73.7741 691.397 73.1741 690.117 72.8541C688.877 72.5341 687.697 72.3741 686.577 72.3741C683.257 72.3741 680.737 73.2741 679.017 75.0741C677.297 76.8741 676.437 79.4141 676.437 82.6941C676.437 86.2141 677.257 88.9341 678.897 90.8541C680.577 92.7741 683.117 93.7341 686.517 93.7341C687.677 93.7341 688.897 93.5541 690.177 93.1941C691.457 92.8341 692.577 92.1941 693.537 91.2741C694.537 90.3141 695.157 88.9941 695.397 87.3141H702.957C702.517 89.7541 701.637 91.9741 700.317 93.9741C698.997 95.9341 697.177 97.5141 694.857 98.7141C692.537 99.9141 689.717 100.514 686.397 100.514ZM705.205 72.3141V66.1341H731.605V72.3141H722.005V99.9141H714.745V72.3141H705.205ZM749.646 100.574C747.766 100.574 745.926 100.354 744.126 99.9141C742.326 99.4741 740.686 98.7741 739.206 97.8141C737.726 96.8541 736.546 95.6141 735.666 94.0941C734.826 92.5741 734.406 90.7341 734.406 88.5741H741.666C741.666 88.7741 741.746 89.1741 741.906 89.7741C742.066 90.3341 742.426 90.9541 742.986 91.6341C743.546 92.2741 744.406 92.8341 745.566 93.3141C746.726 93.7541 748.266 93.9741 750.186 93.9741C751.946 93.9741 753.386 93.6941 754.506 93.1341C755.666 92.5341 756.266 91.6741 756.306 90.5541C756.306 89.5941 755.906 88.8341 755.106 88.2741C754.346 87.7141 753.326 87.2541 752.046 86.8941C750.766 86.4941 749.346 86.1341 747.786 85.8141C746.266 85.4941 744.746 85.0941 743.226 84.6141C741.746 84.1341 740.386 83.4941 739.146 82.6941C737.906 81.8941 736.926 80.8741 736.206 79.6341C735.526 78.3541 735.246 76.7341 735.366 74.7741C735.566 71.8941 736.946 69.6341 739.506 67.9941C742.066 66.3541 745.546 65.5341 749.946 65.5341C752.386 65.5341 754.666 65.9741 756.786 66.8541C758.906 67.6941 760.626 68.9941 761.946 70.7541C763.266 72.5141 763.926 74.7341 763.926 77.4141H756.906C756.906 75.9741 756.466 74.8941 755.586 74.1741C754.706 73.4541 753.646 72.9741 752.406 72.7341C751.206 72.4541 750.126 72.3141 749.166 72.3141C747.406 72.3141 745.946 72.5941 744.786 73.1541C743.666 73.6741 743.106 74.5141 743.106 75.6741C743.106 76.6741 743.486 77.4741 744.246 78.0741C745.046 78.6741 746.106 79.1541 747.426 79.5141C748.746 79.8741 750.166 80.2141 751.686 80.5341C753.246 80.8141 754.786 81.1741 756.306 81.6141C757.866 82.0541 759.266 82.6741 760.506 83.4741C761.746 84.2341 762.726 85.2541 763.446 86.5341C764.166 87.7741 764.466 89.3941 764.346 91.3941C764.146 94.2741 762.706 96.5341 760.026 98.1741C757.346 99.7741 753.886 100.574 749.646 100.574Z" fill="#133063"/>
<defs>
<linearGradient id="paint0_linear_389_22" x1="402.213" y1="15.914" x2="533.432" y2="15.914" gradientUnits="userSpaceOnUse">
<stop stop-color="#133063"/>
<stop offset="1" stop-color="#4FA0CA"/>
</linearGradient>
</defs>
</svg>
