<svg width="707" height="237" viewBox="0 0 707 237" fill="none" xmlns="http://www.w3.org/2000/svg">
<path d="M4.13777 23.1572H2.33377V10.7712H11.0238V12.3552H4.13777V15.8532H9.48377V17.3712H4.13777V23.1572ZM17.2994 23.1572V10.7712H21.6334C23.2174 10.7712 24.4421 11.0352 25.3074 11.5632C26.1874 12.0766 26.6274 13.0079 26.6274 14.3572C26.6274 15.2959 26.3854 16.0806 25.9014 16.7112C25.4321 17.3419 24.7208 17.6572 23.7674 17.6572C24.3394 17.6572 24.7648 17.7819 25.0434 18.0312C25.3221 18.2806 25.5128 18.5959 25.6154 18.9772C25.7181 19.3439 25.7841 19.7252 25.8134 20.1212C25.8428 20.5172 25.8868 20.8766 25.9454 21.1992C26.0041 21.5219 26.1214 21.7566 26.2974 21.9032C26.4734 22.0352 26.7741 22.0206 27.1994 21.8592V22.9592C26.9941 23.1352 26.7228 23.2526 26.3854 23.3112C26.0628 23.3846 25.7401 23.3626 25.4174 23.2452C25.0948 23.1426 24.8161 22.9226 24.5814 22.5852C24.3614 22.2332 24.2514 21.7272 24.2514 21.0672C24.2514 20.2899 24.2074 19.6812 24.1194 19.2412C24.0314 18.8012 23.8261 18.4786 23.5034 18.2732C23.1808 18.0679 22.6748 17.9506 21.9854 17.9212C21.2961 17.8772 20.3501 17.8772 19.1474 17.9212V23.1572H17.2994ZM19.1474 16.5572H21.6994C22.4474 16.5572 23.0634 16.5132 23.5474 16.4252C24.0314 16.3226 24.3908 16.1246 24.6254 15.8312C24.8748 15.5379 24.9994 15.0906 24.9994 14.4892C24.9994 13.7999 24.8528 13.3012 24.5594 12.9932C24.2661 12.6852 23.8334 12.4946 23.2614 12.4212C22.7041 12.3332 22.0221 12.2892 21.2154 12.2892H19.1474V16.5572ZM35.3608 21.6612H42.3568V23.1572H33.5568V10.7712H42.1368V12.3552H35.3608V16.1172H40.6408V17.6352H35.3608V21.6612ZM55.8699 25.8192C55.5472 25.8192 55.2172 25.7752 54.8799 25.6872C54.5572 25.5992 54.2786 25.3866 54.0439 25.0492C53.8092 24.7119 53.6772 24.1766 53.6479 23.4432C51.9026 23.2819 50.5679 22.6292 49.6439 21.4852C48.7346 20.3412 48.2799 18.8452 48.2799 16.9972C48.2799 15.7066 48.4999 14.5772 48.9399 13.6092C49.3946 12.6412 50.0766 11.8932 50.9859 11.3652C51.8952 10.8226 53.0319 10.5512 54.3959 10.5512C55.7159 10.5512 56.8232 10.8152 57.7179 11.3432C58.6272 11.8712 59.3092 12.6192 59.7639 13.5872C60.2332 14.5552 60.4679 15.6846 60.4679 16.9752C60.4679 18.7352 60.0352 20.2019 59.1699 21.3752C58.3046 22.5339 57.0359 23.2086 55.3639 23.3992C55.3786 23.7219 55.4372 23.9639 55.5399 24.1252C55.6572 24.3012 55.9286 24.3892 56.3539 24.3892C56.4859 24.3892 56.6546 24.3452 56.8599 24.2572C57.0799 24.1692 57.2632 24.1252 57.4099 24.1252L57.4759 25.5112C57.4466 25.5112 57.3219 25.5332 57.1019 25.5772C56.8819 25.6359 56.6472 25.6872 56.3979 25.7312C56.1486 25.7899 55.9726 25.8192 55.8699 25.8192ZM54.3739 21.6612C55.7819 21.6612 56.8379 21.2359 57.5419 20.3852C58.2606 19.5346 58.6199 18.3832 58.6199 16.9312C58.6199 15.5086 58.2679 14.3646 57.5639 13.4992C56.8599 12.6339 55.7966 12.2012 54.3739 12.2012C52.9806 12.2012 51.9246 12.6192 51.2059 13.4552C50.4872 14.2766 50.1279 15.4352 50.1279 16.9312C50.1279 18.3686 50.4726 19.5199 51.1619 20.3852C51.8659 21.2359 52.9366 21.6612 54.3739 21.6612ZM71.977 23.4652C70.2757 23.4652 68.9703 22.9812 68.061 22.0132C67.1663 21.0306 66.719 19.6519 66.719 17.8772V10.7712H68.633V17.8552C68.633 18.8086 68.787 19.5712 69.095 20.1432C69.403 20.7006 69.8063 21.1039 70.305 21.3532C70.8183 21.6026 71.3757 21.7272 71.977 21.7272C72.637 21.7272 73.2163 21.6099 73.715 21.3752C74.2283 21.1259 74.6243 20.7226 74.903 20.1652C75.1963 19.5932 75.343 18.8232 75.343 17.8552V10.7712H77.257V17.8772C77.257 19.6812 76.8097 21.0672 75.915 22.0352C75.035 22.9886 73.7223 23.4652 71.977 23.4652ZM85.8576 21.6612H92.8536V23.1572H84.0536V10.7712H92.6336V12.3552H85.8576V16.1172H91.1376V17.6352H85.8576V21.6612ZM107.951 10.7712H109.821V23.1572H106.367L101.153 11.5852H101.109V23.1572H99.2388V10.7712H102.473L107.907 22.3432H107.951V10.7712ZM115.711 12.3552V10.7712H125.171V12.3552H121.365V23.1572H119.539V12.3552H115.711ZM131.376 23.1572V10.7712H133.202V21.5732H139.692V23.1572H131.376ZM148.014 23.1572V18.7132L143.79 10.7712H145.836L148.96 17.0632L152.062 10.7712H154.108L149.84 18.6912V23.1572H148.014ZM168.056 23.1572L172.214 10.7712H175.228L179.474 23.1572H177.516L176.328 19.4612H171.18L169.992 23.1572H168.056ZM173.754 11.5412L171.664 18.0092H175.844L173.754 11.5412ZM190.226 23.4212C189.331 23.4212 188.473 23.2819 187.652 23.0032C186.83 22.7099 186.156 22.2552 185.628 21.6392C185.114 21.0086 184.85 20.1946 184.836 19.1972H186.684C186.684 19.2559 186.706 19.4246 186.75 19.7032C186.808 19.9672 186.948 20.2606 187.168 20.5832C187.402 20.8912 187.769 21.1626 188.268 21.3972C188.766 21.6319 189.463 21.7492 190.358 21.7492C191.076 21.7492 191.641 21.6466 192.052 21.4412C192.477 21.2359 192.77 20.9939 192.932 20.7152C193.108 20.4366 193.203 20.1872 193.218 19.9672C193.218 19.5126 193.071 19.1459 192.778 18.8672C192.499 18.5886 192.118 18.3686 191.634 18.2072C191.15 18.0312 190.614 17.8772 190.028 17.7452C189.456 17.5986 188.884 17.4446 188.312 17.2832C187.74 17.1072 187.212 16.8799 186.728 16.6012C186.258 16.3226 185.884 15.9632 185.606 15.5232C185.342 15.0686 185.232 14.4892 185.276 13.7852C185.32 12.7732 185.796 11.9812 186.706 11.4092C187.63 10.8372 188.818 10.5512 190.27 10.5512C191.12 10.5512 191.912 10.7052 192.646 11.0132C193.379 11.3212 193.966 11.7832 194.406 12.3992C194.846 13.0152 195.066 13.7852 195.066 14.7092H193.284C193.284 14.1959 193.174 13.7852 192.954 13.4772C192.734 13.1546 192.455 12.9052 192.118 12.7292C191.78 12.5532 191.428 12.4359 191.062 12.3772C190.695 12.3039 190.365 12.2672 190.072 12.2672C189.236 12.2672 188.546 12.4212 188.004 12.7292C187.476 13.0372 187.212 13.4552 187.212 13.9832C187.197 14.4526 187.336 14.8266 187.63 15.1052C187.923 15.3839 188.312 15.6039 188.796 15.7652C189.28 15.9266 189.808 16.0732 190.38 16.2052C190.966 16.3372 191.546 16.4839 192.118 16.6452C192.704 16.8066 193.232 17.0266 193.702 17.3052C194.186 17.5692 194.56 17.9359 194.824 18.4052C195.102 18.8599 195.227 19.4392 195.198 20.1432C195.154 20.8326 194.912 21.4266 194.472 21.9252C194.046 22.4092 193.467 22.7832 192.734 23.0472C192 23.2966 191.164 23.4212 190.226 23.4212ZM201.997 23.1572V10.7712H203.823V16.9092L209.829 10.7712H212.205V11.0132L207.123 15.8752L212.469 22.9152V23.1572H210.357L205.781 17.1292L203.823 19.0212V23.1572H201.997ZM220.376 21.6612H227.372V23.1572H218.572V10.7712H227.152V12.3552H220.376V16.1172H225.656V17.6352H220.376V21.6612ZM244.911 16.9532C244.911 18.5812 244.595 19.8499 243.965 20.7592C243.334 21.6539 242.447 22.2772 241.303 22.6292C240.173 22.9812 238.846 23.1572 237.321 23.1572H233.977V10.7712H237.321C238.846 10.7712 240.173 11.0059 241.303 11.4752C242.447 11.9299 243.334 12.6119 243.965 13.5212C244.595 14.4306 244.911 15.5746 244.911 16.9532ZM235.803 21.6172H237.805C238.846 21.6172 239.755 21.4999 240.533 21.2652C241.31 21.0159 241.911 20.5539 242.337 19.8792C242.762 19.2046 242.975 18.2219 242.975 16.9312C242.975 15.3912 242.505 14.2472 241.567 13.4992C240.628 12.7366 239.374 12.3552 237.805 12.3552H235.803V21.6172ZM267.818 25.8192C267.495 25.8192 267.165 25.7752 266.828 25.6872C266.505 25.5992 266.226 25.3866 265.992 25.0492C265.757 24.7119 265.625 24.1766 265.596 23.4432C263.85 23.2819 262.516 22.6292 261.592 21.4852C260.682 20.3412 260.228 18.8452 260.228 16.9972C260.228 15.7066 260.448 14.5772 260.888 13.6092C261.342 12.6412 262.024 11.8932 262.934 11.3652C263.843 10.8226 264.98 10.5512 266.344 10.5512C267.664 10.5512 268.771 10.8152 269.666 11.3432C270.575 11.8712 271.257 12.6192 271.712 13.5872C272.181 14.5552 272.416 15.6846 272.416 16.9752C272.416 18.7352 271.983 20.2019 271.118 21.3752C270.252 22.5339 268.984 23.2086 267.312 23.3992C267.326 23.7219 267.385 23.9639 267.488 24.1252C267.605 24.3012 267.876 24.3892 268.302 24.3892C268.434 24.3892 268.602 24.3452 268.808 24.2572C269.028 24.1692 269.211 24.1252 269.358 24.1252L269.424 25.5112C269.394 25.5112 269.27 25.5332 269.05 25.5772C268.83 25.6359 268.595 25.6872 268.346 25.7312C268.096 25.7899 267.92 25.8192 267.818 25.8192ZM266.322 21.6612C267.73 21.6612 268.786 21.2359 269.49 20.3852C270.208 19.5346 270.568 18.3832 270.568 16.9312C270.568 15.5086 270.216 14.3646 269.512 13.4992C268.808 12.6339 267.744 12.2012 266.322 12.2012C264.928 12.2012 263.872 12.6192 263.154 13.4552C262.435 14.2766 262.076 15.4352 262.076 16.9312C262.076 18.3686 262.42 19.5199 263.11 20.3852C263.814 21.2359 264.884 21.6612 266.322 21.6612ZM283.925 23.4652C282.223 23.4652 280.918 22.9812 280.009 22.0132C279.114 21.0306 278.667 19.6519 278.667 17.8772V10.7712H280.581V17.8552C280.581 18.8086 280.735 19.5712 281.043 20.1432C281.351 20.7006 281.754 21.1039 282.253 21.3532C282.766 21.6026 283.323 21.7272 283.925 21.7272C284.585 21.7272 285.164 21.6099 285.663 21.3752C286.176 21.1259 286.572 20.7226 286.851 20.1652C287.144 19.5932 287.291 18.8232 287.291 17.8552V10.7712H289.205V17.8772C289.205 19.6812 288.757 21.0672 287.863 22.0352C286.983 22.9886 285.67 23.4652 283.925 23.4652ZM297.805 21.6612H304.801V23.1572H296.001V10.7712H304.581V12.3552H297.805V16.1172H303.085V17.6352H297.805V21.6612ZM315.982 23.4212C315.088 23.4212 314.23 23.2819 313.408 23.0032C312.587 22.7099 311.912 22.2552 311.384 21.6392C310.871 21.0086 310.607 20.1946 310.592 19.1972H312.44C312.44 19.2559 312.462 19.4246 312.506 19.7032C312.565 19.9672 312.704 20.2606 312.924 20.5832C313.159 20.8912 313.526 21.1626 314.024 21.3972C314.523 21.6319 315.22 21.7492 316.114 21.7492C316.833 21.7492 317.398 21.6466 317.808 21.4412C318.234 21.2359 318.527 20.9939 318.688 20.7152C318.864 20.4366 318.96 20.1872 318.974 19.9672C318.974 19.5126 318.828 19.1459 318.534 18.8672C318.256 18.5886 317.874 18.3686 317.39 18.2072C316.906 18.0312 316.371 17.8772 315.784 17.7452C315.212 17.5986 314.64 17.4446 314.068 17.2832C313.496 17.1072 312.968 16.8799 312.484 16.6012C312.015 16.3226 311.641 15.9632 311.362 15.5232C311.098 15.0686 310.988 14.4892 311.032 13.7852C311.076 12.7732 311.553 11.9812 312.462 11.4092C313.386 10.8372 314.574 10.5512 316.026 10.5512C316.877 10.5512 317.669 10.7052 318.402 11.0132C319.136 11.3212 319.722 11.7832 320.162 12.3992C320.602 13.0152 320.822 13.7852 320.822 14.7092H319.04C319.04 14.1959 318.93 13.7852 318.71 13.4772C318.49 13.1546 318.212 12.9052 317.874 12.7292C317.537 12.5532 317.185 12.4359 316.818 12.3772C316.452 12.3039 316.122 12.2672 315.828 12.2672C314.992 12.2672 314.303 12.4212 313.76 12.7292C313.232 13.0372 312.968 13.4552 312.968 13.9832C312.954 14.4526 313.093 14.8266 313.386 15.1052C313.68 15.3839 314.068 15.6039 314.552 15.7652C315.036 15.9266 315.564 16.0732 316.136 16.2052C316.723 16.3372 317.302 16.4839 317.874 16.6452C318.461 16.8066 318.989 17.0266 319.458 17.3052C319.942 17.5692 320.316 17.9359 320.58 18.4052C320.859 18.8599 320.984 19.4392 320.954 20.1432C320.91 20.8326 320.668 21.4266 320.228 21.9252C319.803 22.4092 319.224 22.7832 318.49 23.0472C317.757 23.2966 316.921 23.4212 315.982 23.4212ZM326.477 12.3552V10.7712H335.937V12.3552H332.131V23.1572H330.305V12.3552H326.477ZM347.18 21.5732V23.1572H342.01V21.5732H343.704V12.3552H342.01V10.7712H347.18V12.3552H345.508V21.5732H347.18ZM359.574 23.4652C357.594 23.4652 356.083 22.8859 355.042 21.7272C354 20.5539 353.48 18.9772 353.48 16.9972C353.48 15.6919 353.7 14.5626 354.14 13.6092C354.594 12.6412 355.269 11.8932 356.164 11.3652C357.073 10.8226 358.21 10.5512 359.574 10.5512C361.554 10.5512 363.057 11.1379 364.084 12.3112C365.125 13.4699 365.646 15.0319 365.646 16.9972C365.646 18.2732 365.411 19.4026 364.942 20.3852C364.487 21.3532 363.805 22.1086 362.896 22.6512C362.001 23.1939 360.894 23.4652 359.574 23.4652ZM359.552 21.7052C360.974 21.7052 362.045 21.2652 362.764 20.3852C363.482 19.5052 363.842 18.3759 363.842 16.9972C363.842 15.6186 363.482 14.4892 362.764 13.6092C362.06 12.7146 360.989 12.2672 359.552 12.2672C358.144 12.2672 357.073 12.6926 356.34 13.5432C355.621 14.3939 355.262 15.5452 355.262 16.9972C355.262 17.9066 355.416 18.7206 355.724 19.4392C356.032 20.1432 356.501 20.7006 357.132 21.1112C357.777 21.5072 358.584 21.7052 359.552 21.7052ZM380.746 10.7712H382.616V23.1572H379.162L373.948 11.5852H373.904V23.1572H372.034V10.7712H375.268L380.702 22.3432H380.746V10.7712Z" fill="url(#paint0_linear_59_2215)"/>
<path d="M18.2378 79.8172C14.9178 79.8172 12.0178 79.1572 9.53777 77.8372C7.05777 76.5172 5.13777 74.5772 3.77777 72.0172C2.45777 69.4172 1.83777 66.2372 1.91777 62.4772C1.99777 58.6372 2.79777 55.4172 4.31777 52.8172C5.83777 50.1772 7.87777 48.1772 10.4378 46.8172C13.0378 45.4572 16.0178 44.7772 19.3778 44.7772C24.1378 44.7772 27.7778 45.7772 30.2978 47.7772C32.8178 49.7772 34.5178 52.6772 35.3978 56.4772L28.3778 57.5572C28.0178 56.0372 27.3578 54.8372 26.3978 53.9572C25.4778 53.0772 24.3978 52.4572 23.1578 52.0972C21.9178 51.7372 20.6578 51.5572 19.3778 51.5572C15.7778 51.5572 13.1578 52.5172 11.5178 54.4372C9.91777 56.3572 9.09777 58.8572 9.05777 61.9372C9.05777 65.4572 10.0178 68.1372 11.9378 69.9772C13.8978 71.8172 16.6778 72.7372 20.2778 72.7372C22.1978 72.7372 24.0178 72.3372 25.7378 71.5372C27.4978 70.7372 28.6978 69.3172 29.3378 67.2772H22.9178V62.0572H36.0578V79.1572H31.1978L29.5778 74.0572H29.4578C28.7778 75.4972 27.4978 76.8172 25.6178 78.0172C23.7378 79.2172 21.2778 79.8172 18.2378 79.8172ZM48.7721 73.3372H67.1321V79.1572H41.6921V45.3772H66.5321V51.5572H48.7721V59.1172H62.2121V64.9972H48.7721V73.3372ZM69.8753 51.5572V45.3772H96.2753V51.5572H86.6753V79.1572H79.4153V51.5572H69.8753ZM111.195 79.1572L121.455 45.3772H133.395L143.955 79.1572H136.215L133.695 70.1572H121.455L118.995 79.1572H111.195ZM127.575 48.3772L123.015 64.5772H132.135L127.575 48.3772ZM171.021 45.3772H178.581V79.1572H164.721L155.781 48.5572H155.661V79.1572H148.161V45.3772H161.001L170.901 75.9772H171.021V45.3772ZM198.691 79.8172C196.811 79.8172 194.971 79.5972 193.171 79.1572C191.371 78.7172 189.731 78.0172 188.251 77.0572C186.771 76.0972 185.591 74.8572 184.711 73.3372C183.871 71.8172 183.451 69.9772 183.451 67.8172H190.711C190.711 68.0172 190.791 68.4172 190.951 69.0172C191.111 69.5772 191.471 70.1972 192.031 70.8772C192.591 71.5172 193.451 72.0772 194.611 72.5572C195.771 72.9972 197.311 73.2172 199.231 73.2172C200.991 73.2172 202.431 72.9372 203.551 72.3772C204.711 71.7772 205.311 70.9172 205.351 69.7972C205.351 68.8372 204.951 68.0772 204.151 67.5172C203.391 66.9572 202.371 66.4972 201.091 66.1372C199.811 65.7372 198.391 65.3772 196.831 65.0572C195.311 64.7372 193.791 64.3372 192.271 63.8572C190.791 63.3772 189.431 62.7372 188.191 61.9372C186.951 61.1372 185.971 60.1172 185.251 58.8772C184.571 57.5972 184.291 55.9772 184.411 54.0172C184.611 51.1372 185.991 48.8772 188.551 47.2372C191.111 45.5972 194.591 44.7772 198.991 44.7772C201.431 44.7772 203.711 45.2172 205.831 46.0972C207.951 46.9372 209.671 48.2372 210.991 49.9972C212.311 51.7572 212.971 53.9772 212.971 56.6572H205.951C205.951 55.2172 205.511 54.1372 204.631 53.4172C203.751 52.6972 202.691 52.2172 201.451 51.9772C200.251 51.6972 199.171 51.5572 198.211 51.5572C196.451 51.5572 194.991 51.8372 193.831 52.3972C192.711 52.9172 192.151 53.7572 192.151 54.9172C192.151 55.9172 192.531 56.7172 193.291 57.3172C194.091 57.9172 195.151 58.3972 196.471 58.7572C197.791 59.1172 199.211 59.4572 200.731 59.7772C202.291 60.0572 203.831 60.4172 205.351 60.8572C206.911 61.2972 208.311 61.9172 209.551 62.7172C210.791 63.4772 211.771 64.4972 212.491 65.7772C213.211 67.0172 213.511 68.6372 213.391 70.6372C213.191 73.5172 211.751 75.7772 209.071 77.4172C206.391 79.0172 202.931 79.8172 198.691 79.8172ZM255.891 45.3772H263.571L256.431 79.1572H244.791L240.411 54.5572L236.151 79.1572H224.511L217.131 45.3772H224.811L230.331 76.1572L236.511 45.4972L236.451 45.3772H244.251L250.611 76.1572L255.891 45.3772ZM275.94 73.3372H294.3V79.1572H268.86V45.3772H293.7V51.5572H275.94V59.1172H289.38V64.9972H275.94V73.3372ZM299.623 79.1572V45.3772H312.703C317.103 45.3772 320.543 46.1372 323.023 47.6572C325.543 49.1372 326.803 51.7372 326.803 55.4572C326.803 58.3372 326.123 60.6172 324.763 62.2972C323.443 63.9772 321.603 64.8172 319.243 64.8172C320.483 64.8172 321.423 65.1172 322.063 65.7172C322.703 66.2772 323.143 66.9772 323.383 67.8172C323.663 68.6572 323.863 69.5372 323.983 70.4572C324.143 71.3372 324.343 72.1372 324.583 72.8572C324.823 73.5372 325.223 74.0172 325.783 74.2972C326.383 74.5372 327.263 74.4172 328.423 73.9372V77.9572C327.503 78.7572 326.443 79.2772 325.243 79.5172C324.043 79.7972 322.883 79.7372 321.763 79.3372C320.643 78.9372 319.703 78.1572 318.943 76.9972C318.223 75.7972 317.863 74.1572 317.863 72.0772C317.863 70.7172 317.763 69.5772 317.563 68.6572C317.403 67.7372 316.983 67.0172 316.303 66.4972C315.623 65.9772 314.543 65.6372 313.063 65.4772C311.583 65.3172 309.523 65.3172 306.883 65.4772V79.1572H299.623ZM306.883 60.3172H312.043C313.923 60.3172 315.463 60.2572 316.663 60.1372C317.903 60.0172 318.823 59.6772 319.423 59.1172C320.023 58.5172 320.323 57.4972 320.323 56.0572C320.323 54.4172 319.963 53.2772 319.243 52.6372C318.523 51.9572 317.443 51.5572 316.003 51.4372C314.603 51.3172 312.883 51.2572 310.843 51.2572H306.883V60.3172ZM347.168 79.8172C345.288 79.8172 343.448 79.5972 341.648 79.1572C339.848 78.7172 338.208 78.0172 336.728 77.0572C335.248 76.0972 334.068 74.8572 333.188 73.3372C332.348 71.8172 331.928 69.9772 331.928 67.8172H339.188C339.188 68.0172 339.268 68.4172 339.428 69.0172C339.588 69.5772 339.948 70.1972 340.508 70.8772C341.068 71.5172 341.928 72.0772 343.088 72.5572C344.248 72.9972 345.788 73.2172 347.708 73.2172C349.468 73.2172 350.908 72.9372 352.028 72.3772C353.188 71.7772 353.788 70.9172 353.828 69.7972C353.828 68.8372 353.428 68.0772 352.628 67.5172C351.868 66.9572 350.848 66.4972 349.568 66.1372C348.288 65.7372 346.868 65.3772 345.308 65.0572C343.788 64.7372 342.268 64.3372 340.748 63.8572C339.268 63.3772 337.908 62.7372 336.668 61.9372C335.428 61.1372 334.448 60.1172 333.728 58.8772C333.048 57.5972 332.768 55.9772 332.888 54.0172C333.088 51.1372 334.468 48.8772 337.028 47.2372C339.588 45.5972 343.068 44.7772 347.468 44.7772C349.908 44.7772 352.188 45.2172 354.308 46.0972C356.428 46.9372 358.148 48.2372 359.468 49.9972C360.788 51.7572 361.448 53.9772 361.448 56.6572H354.428C354.428 55.2172 353.988 54.1372 353.108 53.4172C352.228 52.6972 351.168 52.2172 349.928 51.9772C348.728 51.6972 347.648 51.5572 346.688 51.5572C344.928 51.5572 343.468 51.8372 342.308 52.3972C341.188 52.9172 340.628 53.7572 340.628 54.9172C340.628 55.9172 341.008 56.7172 341.768 57.3172C342.568 57.9172 343.628 58.3972 344.948 58.7572C346.268 59.1172 347.688 59.4572 349.208 59.7772C350.768 60.0572 352.308 60.4172 353.828 60.8572C355.388 61.2972 356.788 61.9172 358.028 62.7172C359.268 63.4772 360.248 64.4972 360.968 65.7772C361.688 67.0172 361.988 68.6372 361.868 70.6372C361.668 73.5172 360.228 75.7772 357.548 77.4172C354.868 79.0172 351.408 79.8172 347.168 79.8172ZM377.727 51.5572V45.3772H404.127V51.5572H394.527V79.1572H387.267V51.5572H377.727ZM423.428 79.9972C417.908 79.9972 413.688 78.4172 410.768 75.2572C407.848 72.0572 406.388 67.7572 406.388 62.3572C406.388 58.7972 407.008 55.7172 408.248 53.1172C409.528 50.4772 411.428 48.4372 413.948 46.9972C416.468 45.5172 419.628 44.7772 423.428 44.7772C428.988 44.7772 433.208 46.3772 436.088 49.5772C438.968 52.7372 440.408 56.9972 440.408 62.3572C440.408 65.8372 439.768 68.9172 438.488 71.5972C437.208 74.2372 435.308 76.2972 432.788 77.7772C430.268 79.2572 427.148 79.9972 423.428 79.9972ZM423.368 72.9772C425.568 72.9772 427.408 72.5172 428.888 71.5972C430.368 70.6372 431.468 69.3572 432.188 67.7572C432.908 66.1572 433.268 64.3572 433.268 62.3572C433.268 60.3572 432.908 58.5372 432.188 56.8972C431.468 55.2572 430.368 53.9572 428.888 52.9972C427.408 52.0372 425.568 51.5572 423.368 51.5572C420.128 51.5572 417.668 52.5772 415.988 54.6172C414.308 56.6172 413.468 59.1972 413.468 62.3572C413.468 64.3172 413.828 66.0972 414.548 67.6972C415.268 69.2972 416.348 70.5772 417.788 71.5372C419.268 72.4972 421.128 72.9772 423.368 72.9772ZM473.001 79.7572C469.801 79.7572 466.901 79.1172 464.301 77.8372C461.701 76.5172 459.641 74.5772 458.121 72.0172C456.601 69.4572 455.861 66.2772 455.901 62.4772C455.901 58.7172 456.661 55.5172 458.181 52.8772C459.701 50.2372 461.761 48.2372 464.361 46.8772C466.961 45.4772 469.901 44.7772 473.181 44.7772C476.421 44.7772 479.181 45.3572 481.461 46.5172C483.741 47.6772 485.521 49.2372 486.801 51.1972C488.121 53.1572 488.981 55.3172 489.381 57.6772H481.881C481.641 55.9972 481.041 54.7372 480.081 53.8972C479.121 53.0172 478.001 52.4172 476.721 52.0972C475.481 51.7772 474.301 51.6172 473.181 51.6172C469.861 51.6172 467.341 52.5172 465.621 54.3172C463.901 56.1172 463.041 58.6572 463.041 61.9372C463.041 65.4572 463.861 68.1772 465.501 70.0972C467.181 72.0172 469.721 72.9772 473.121 72.9772C474.281 72.9772 475.501 72.7972 476.781 72.4372C478.061 72.0772 479.181 71.4372 480.141 70.5172C481.141 69.5572 481.761 68.2372 482.001 66.5572H489.561C489.121 68.9972 488.241 71.2172 486.921 73.2172C485.601 75.1772 483.781 76.7572 481.461 77.9572C479.141 79.1572 476.321 79.7572 473.001 79.7572ZM509.209 79.9972C503.689 79.9972 499.469 78.4172 496.549 75.2572C493.629 72.0572 492.169 67.7572 492.169 62.3572C492.169 58.7972 492.789 55.7172 494.029 53.1172C495.309 50.4772 497.209 48.4372 499.729 46.9972C502.249 45.5172 505.409 44.7772 509.209 44.7772C514.769 44.7772 518.989 46.3772 521.869 49.5772C524.749 52.7372 526.189 56.9972 526.189 62.3572C526.189 65.8372 525.549 68.9172 524.269 71.5972C522.989 74.2372 521.089 76.2972 518.569 77.7772C516.049 79.2572 512.929 79.9972 509.209 79.9972ZM509.149 72.9772C511.349 72.9772 513.189 72.5172 514.669 71.5972C516.149 70.6372 517.249 69.3572 517.969 67.7572C518.689 66.1572 519.049 64.3572 519.049 62.3572C519.049 60.3572 518.689 58.5372 517.969 56.8972C517.249 55.2572 516.149 53.9572 514.669 52.9972C513.189 52.0372 511.349 51.5572 509.149 51.5572C505.909 51.5572 503.449 52.5772 501.769 54.6172C500.089 56.6172 499.249 59.1972 499.249 62.3572C499.249 64.3172 499.609 66.0972 500.329 67.6972C501.049 69.2972 502.129 70.5772 503.569 71.5372C505.049 72.4972 506.909 72.9772 509.149 72.9772ZM531.663 79.1572V45.3772H544.263L550.743 76.0972H550.863L557.223 45.3772H569.763V79.1572H562.263L562.803 48.4972H562.683L556.023 79.1572H545.463L538.863 48.4972H538.743L539.163 79.1572H531.663ZM576.663 79.1572V45.3772H589.263L595.743 76.0972H595.863L602.223 45.3772H614.763V79.1572H607.263L607.803 48.4972H607.683L601.023 79.1572H590.463L583.863 48.4972H583.743L584.163 79.1572H576.663ZM636.123 79.9972C630.603 79.9972 626.383 78.4172 623.463 75.2572C620.543 72.0572 619.083 67.7572 619.083 62.3572C619.083 58.7972 619.703 55.7172 620.943 53.1172C622.223 50.4772 624.123 48.4372 626.643 46.9972C629.163 45.5172 632.323 44.7772 636.123 44.7772C641.683 44.7772 645.903 46.3772 648.783 49.5772C651.663 52.7372 653.103 56.9972 653.103 62.3572C653.103 65.8372 652.463 68.9172 651.183 71.5972C649.903 74.2372 648.003 76.2972 645.483 77.7772C642.963 79.2572 639.843 79.9972 636.123 79.9972ZM636.063 72.9772C638.263 72.9772 640.103 72.5172 641.583 71.5972C643.063 70.6372 644.163 69.3572 644.883 67.7572C645.603 66.1572 645.963 64.3572 645.963 62.3572C645.963 60.3572 645.603 58.5372 644.883 56.8972C644.163 55.2572 643.063 53.9572 641.583 52.9972C640.103 52.0372 638.263 51.5572 636.063 51.5572C632.823 51.5572 630.363 52.5772 628.683 54.6172C627.003 56.6172 626.163 59.1972 626.163 62.3572C626.163 64.3172 626.523 66.0972 627.243 67.6972C627.963 69.2972 629.043 70.5772 630.483 71.5372C631.963 72.4972 633.823 72.9772 636.063 72.9772ZM681.197 45.3772H688.757V79.1572H674.897L665.957 48.5572H665.837V79.1572H658.337V45.3772H671.177L681.077 75.9772H681.197V45.3772ZM24.4178 159.197C23.6578 159.197 22.8578 159.157 22.0178 159.077C21.1778 158.997 20.3778 158.737 19.6178 158.297C18.8978 157.897 18.2778 157.177 17.7578 156.137C17.2778 155.137 16.9978 153.697 16.9178 151.817C12.2778 151.257 8.73777 149.437 6.29777 146.357C3.89777 143.277 2.69777 139.277 2.69777 134.357C2.69777 130.837 3.33777 127.757 4.61777 125.117C5.89777 122.477 7.79777 120.437 10.3178 118.997C12.8378 117.517 16.0178 116.777 19.8578 116.777C23.5378 116.777 26.6378 117.517 29.1578 118.997C31.7178 120.437 33.6378 122.477 34.9178 125.117C36.1978 127.717 36.8378 130.797 36.8378 134.357C36.8378 138.917 35.7178 142.757 33.4778 145.877C31.2778 148.957 28.0378 150.897 23.7578 151.697C23.7978 152.537 23.9778 153.077 24.2978 153.317C24.6178 153.597 25.3978 153.737 26.6378 153.737C26.6378 153.737 26.9578 153.677 27.5978 153.557C28.2778 153.477 28.9378 153.437 29.5778 153.437V158.897C29.4578 158.897 29.1378 158.917 28.6178 158.957C28.0978 158.997 27.4978 159.037 26.8178 159.077C26.1778 159.117 25.6178 159.137 25.1378 159.137C24.6578 159.177 24.4178 159.197 24.4178 159.197ZM19.7378 144.857C22.9778 144.857 25.3978 143.897 26.9978 141.977C28.6378 140.017 29.4578 137.397 29.4578 134.117C29.4578 130.877 28.6378 128.277 26.9978 126.317C25.3978 124.317 22.9778 123.317 19.7378 123.317C16.5778 123.317 14.1778 124.277 12.5378 126.197C10.8978 128.077 10.0778 130.717 10.0778 134.117C10.0778 137.357 10.8578 139.957 12.4178 141.917C14.0178 143.877 16.4578 144.857 19.7378 144.857ZM56.8707 151.997C51.9507 151.997 48.2107 150.677 45.6507 148.037C43.1307 145.357 41.8707 141.597 41.8707 136.757V117.377H49.6107V136.697C49.6107 139.057 49.9907 140.837 50.7507 142.037C51.5507 143.237 52.5107 144.057 53.6307 144.497C54.7507 144.897 55.8307 145.097 56.8707 145.097C58.0707 145.097 59.2307 144.897 60.3507 144.497C61.4707 144.057 62.3907 143.237 63.1107 142.037C63.8307 140.837 64.1907 139.057 64.1907 136.697V117.377H71.9307V136.757C71.9307 141.677 70.6707 145.457 68.1507 148.097C65.6707 150.697 61.9107 151.997 56.8707 151.997ZM85.1589 145.337H103.519V151.157H78.0789V117.377H102.919V123.557H85.1589V131.117H98.5989V136.997H85.1589V145.337ZM122.402 151.817C120.522 151.817 118.682 151.597 116.882 151.157C115.082 150.717 113.442 150.017 111.962 149.057C110.482 148.097 109.302 146.857 108.422 145.337C107.582 143.817 107.162 141.977 107.162 139.817H114.422C114.422 140.017 114.502 140.417 114.662 141.017C114.822 141.577 115.182 142.197 115.742 142.877C116.302 143.517 117.162 144.077 118.322 144.557C119.482 144.997 121.022 145.217 122.942 145.217C124.702 145.217 126.142 144.937 127.262 144.377C128.422 143.777 129.022 142.917 129.062 141.797C129.062 140.837 128.662 140.077 127.862 139.517C127.102 138.957 126.082 138.497 124.802 138.137C123.522 137.737 122.102 137.377 120.542 137.057C119.022 136.737 117.502 136.337 115.982 135.857C114.502 135.377 113.142 134.737 111.902 133.937C110.662 133.137 109.682 132.117 108.962 130.877C108.282 129.597 108.002 127.977 108.122 126.017C108.322 123.137 109.702 120.877 112.262 119.237C114.822 117.597 118.302 116.777 122.702 116.777C125.142 116.777 127.422 117.217 129.542 118.097C131.662 118.937 133.382 120.237 134.702 121.997C136.022 123.757 136.682 125.977 136.682 128.657H129.662C129.662 127.217 129.222 126.137 128.342 125.417C127.462 124.697 126.402 124.217 125.162 123.977C123.962 123.697 122.882 123.557 121.922 123.557C120.162 123.557 118.702 123.837 117.542 124.397C116.422 124.917 115.862 125.757 115.862 126.917C115.862 127.917 116.242 128.717 117.002 129.317C117.802 129.917 118.862 130.397 120.182 130.757C121.502 131.117 122.922 131.457 124.442 131.777C126.002 132.057 127.542 132.417 129.062 132.857C130.622 133.297 132.022 133.917 133.262 134.717C134.502 135.477 135.482 136.497 136.202 137.777C136.922 139.017 137.222 140.637 137.102 142.637C136.902 145.517 135.462 147.777 132.782 149.417C130.102 151.017 126.642 151.817 122.402 151.817ZM140.422 123.557V117.377H166.822V123.557H157.222V151.157H149.962V123.557H140.422ZM187.863 144.977V151.157H171.843V144.977H176.283V123.557H171.843V117.377H187.863V123.557H183.483V144.977H187.863ZM209.971 151.997C204.451 151.997 200.231 150.417 197.311 147.257C194.391 144.057 192.931 139.757 192.931 134.357C192.931 130.797 193.551 127.717 194.791 125.117C196.071 122.477 197.971 120.437 200.491 118.997C203.011 117.517 206.171 116.777 209.971 116.777C215.531 116.777 219.751 118.377 222.631 121.577C225.511 124.737 226.951 128.997 226.951 134.357C226.951 137.837 226.311 140.917 225.031 143.597C223.751 146.237 221.851 148.297 219.331 149.777C216.811 151.257 213.691 151.997 209.971 151.997ZM209.911 144.977C212.111 144.977 213.951 144.517 215.431 143.597C216.911 142.637 218.011 141.357 218.731 139.757C219.451 138.157 219.811 136.357 219.811 134.357C219.811 132.357 219.451 130.537 218.731 128.897C218.011 127.257 216.911 125.957 215.431 124.997C213.951 124.037 212.111 123.557 209.911 123.557C206.671 123.557 204.211 124.577 202.531 126.617C200.851 128.617 200.011 131.197 200.011 134.357C200.011 136.317 200.371 138.097 201.091 139.697C201.811 141.297 202.891 142.577 204.331 143.537C205.811 144.497 207.671 144.977 209.911 144.977ZM255.045 117.377H262.605V151.157H248.745L239.805 120.557H239.685V151.157H232.185V117.377H245.025L254.925 147.977H255.045V117.377ZM282.714 151.817C280.834 151.817 278.994 151.597 277.194 151.157C275.394 150.717 273.754 150.017 272.274 149.057C270.794 148.097 269.614 146.857 268.734 145.337C267.894 143.817 267.474 141.977 267.474 139.817H274.734C274.734 140.017 274.814 140.417 274.974 141.017C275.134 141.577 275.494 142.197 276.054 142.877C276.614 143.517 277.474 144.077 278.634 144.557C279.794 144.997 281.334 145.217 283.254 145.217C285.014 145.217 286.454 144.937 287.574 144.377C288.734 143.777 289.334 142.917 289.374 141.797C289.374 140.837 288.974 140.077 288.174 139.517C287.414 138.957 286.394 138.497 285.114 138.137C283.834 137.737 282.414 137.377 280.854 137.057C279.334 136.737 277.814 136.337 276.294 135.857C274.814 135.377 273.454 134.737 272.214 133.937C270.974 133.137 269.994 132.117 269.274 130.877C268.594 129.597 268.314 127.977 268.434 126.017C268.634 123.137 270.014 120.877 272.574 119.237C275.134 117.597 278.614 116.777 283.014 116.777C285.454 116.777 287.734 117.217 289.854 118.097C291.974 118.937 293.694 120.237 295.014 121.997C296.334 123.757 296.994 125.977 296.994 128.657H289.974C289.974 127.217 289.534 126.137 288.654 125.417C287.774 124.697 286.714 124.217 285.474 123.977C284.274 123.697 283.194 123.557 282.234 123.557C280.474 123.557 279.014 123.837 277.854 124.397C276.734 124.917 276.174 125.757 276.174 126.917C276.174 127.917 276.554 128.717 277.314 129.317C278.114 129.917 279.174 130.397 280.494 130.757C281.814 131.117 283.234 131.457 284.754 131.777C286.314 132.057 287.854 132.417 289.374 132.857C290.934 133.297 292.334 133.917 293.574 134.717C294.814 135.477 295.794 136.497 296.514 137.777C297.234 139.017 297.534 140.637 297.414 142.637C297.214 145.517 295.774 147.777 293.094 149.417C290.414 151.017 286.954 151.817 282.714 151.817ZM313.754 151.157L324.014 117.377H335.954L346.514 151.157H338.774L336.254 142.157H324.014L321.554 151.157H313.754ZM330.134 120.377L325.574 136.577H334.694L330.134 120.377ZM350.6 151.157V117.377H364.58C365.66 117.377 366.96 117.457 368.48 117.617C370 117.737 371.48 118.077 372.92 118.637C374.4 119.157 375.62 120.017 376.58 121.217C377.54 122.417 378.02 124.097 378.02 126.257C378.02 127.537 377.76 128.737 377.24 129.857C376.76 130.937 375.84 131.837 374.48 132.557C373.12 133.237 371.2 133.637 368.72 133.757V133.997C371.6 134.077 373.82 134.477 375.38 135.197C376.98 135.917 378.08 136.877 378.68 138.077C379.32 139.237 379.64 140.537 379.64 141.977C379.64 143.777 379.3 145.257 378.62 146.417C377.94 147.537 377.04 148.437 375.92 149.117C374.8 149.757 373.56 150.217 372.2 150.497C370.88 150.777 369.56 150.957 368.24 151.037C366.96 151.117 365.78 151.157 364.7 151.157H350.6ZM357.68 130.997H363.62C364.86 130.997 366.02 130.937 367.1 130.817C368.22 130.697 369.12 130.377 369.8 129.857C370.52 129.297 370.88 128.377 370.88 127.097C370.88 125.857 370.54 124.977 369.86 124.457C369.18 123.897 368.28 123.557 367.16 123.437C366.08 123.317 364.92 123.257 363.68 123.257H357.68V130.997ZM357.74 145.337H364.04C365.48 145.337 366.82 145.277 368.06 145.157C369.3 144.997 370.3 144.617 371.06 144.017C371.82 143.377 372.2 142.357 372.2 140.957C372.2 139.557 371.8 138.537 371 137.897C370.24 137.257 369.22 136.857 367.94 136.697C366.7 136.537 365.36 136.457 363.92 136.457H357.74V145.337ZM399.756 151.997C394.236 151.997 390.016 150.417 387.096 147.257C384.176 144.057 382.716 139.757 382.716 134.357C382.716 130.797 383.336 127.717 384.576 125.117C385.856 122.477 387.756 120.437 390.276 118.997C392.796 117.517 395.956 116.777 399.756 116.777C405.316 116.777 409.536 118.377 412.416 121.577C415.296 124.737 416.736 128.997 416.736 134.357C416.736 137.837 416.096 140.917 414.816 143.597C413.536 146.237 411.636 148.297 409.116 149.777C406.596 151.257 403.476 151.997 399.756 151.997ZM399.696 144.977C401.896 144.977 403.736 144.517 405.216 143.597C406.696 142.637 407.796 141.357 408.516 139.757C409.236 138.157 409.596 136.357 409.596 134.357C409.596 132.357 409.236 130.537 408.516 128.897C407.796 127.257 406.696 125.957 405.216 124.997C403.736 124.037 401.896 123.557 399.696 123.557C396.456 123.557 393.996 124.577 392.316 126.617C390.636 128.617 389.796 131.197 389.796 134.357C389.796 136.317 390.156 138.097 390.876 139.697C391.596 141.297 392.676 142.577 394.116 143.537C395.596 144.497 397.456 144.977 399.696 144.977ZM437.379 151.997C432.459 151.997 428.719 150.677 426.159 148.037C423.639 145.357 422.379 141.597 422.379 136.757V117.377H430.119V136.697C430.119 139.057 430.499 140.837 431.259 142.037C432.059 143.237 433.019 144.057 434.139 144.497C435.259 144.897 436.339 145.097 437.379 145.097C438.579 145.097 439.739 144.897 440.859 144.497C441.979 144.057 442.899 143.237 443.619 142.037C444.339 140.837 444.699 139.057 444.699 136.697V117.377H452.439V136.757C452.439 141.677 451.179 145.457 448.659 148.097C446.179 150.697 442.419 151.997 437.379 151.997ZM456.067 123.557V117.377H482.467V123.557H472.867V151.157H465.607V123.557H456.067ZM514.307 151.997C508.787 151.997 504.567 150.417 501.647 147.257C498.727 144.057 497.267 139.757 497.267 134.357C497.267 130.797 497.887 127.717 499.127 125.117C500.407 122.477 502.307 120.437 504.827 118.997C507.347 117.517 510.507 116.777 514.307 116.777C519.867 116.777 524.087 118.377 526.967 121.577C529.847 124.737 531.287 128.997 531.287 134.357C531.287 137.837 530.647 140.917 529.367 143.597C528.087 146.237 526.187 148.297 523.667 149.777C521.147 151.257 518.027 151.997 514.307 151.997ZM514.247 144.977C516.447 144.977 518.287 144.517 519.767 143.597C521.247 142.637 522.347 141.357 523.067 139.757C523.787 138.157 524.147 136.357 524.147 134.357C524.147 132.357 523.787 130.537 523.067 128.897C522.347 127.257 521.247 125.957 519.767 124.997C518.287 124.037 516.447 123.557 514.247 123.557C511.007 123.557 508.547 124.577 506.867 126.617C505.187 128.617 504.347 131.197 504.347 134.357C504.347 136.317 504.707 138.097 505.427 139.697C506.147 141.297 507.227 142.577 508.667 143.537C510.147 144.497 512.007 144.977 514.247 144.977ZM551.929 151.997C547.009 151.997 543.269 150.677 540.709 148.037C538.189 145.357 536.929 141.597 536.929 136.757V117.377H544.669V136.697C544.669 139.057 545.049 140.837 545.809 142.037C546.609 143.237 547.569 144.057 548.689 144.497C549.809 144.897 550.889 145.097 551.929 145.097C553.129 145.097 554.289 144.897 555.409 144.497C556.529 144.057 557.449 143.237 558.169 142.037C558.889 140.837 559.249 139.057 559.249 136.697V117.377H566.989V136.757C566.989 141.677 565.729 145.457 563.209 148.097C560.729 150.697 556.969 151.997 551.929 151.997ZM573.197 151.157V117.377H586.277C590.677 117.377 594.117 118.137 596.597 119.657C599.117 121.137 600.377 123.737 600.377 127.457C600.377 130.337 599.697 132.617 598.337 134.297C597.017 135.977 595.177 136.817 592.817 136.817C594.057 136.817 594.997 137.117 595.637 137.717C596.277 138.277 596.717 138.977 596.957 139.817C597.237 140.657 597.437 141.537 597.557 142.457C597.717 143.337 597.917 144.137 598.157 144.857C598.397 145.537 598.797 146.017 599.357 146.297C599.957 146.537 600.837 146.417 601.997 145.937V149.957C601.077 150.757 600.017 151.277 598.817 151.517C597.617 151.797 596.457 151.737 595.337 151.337C594.217 150.937 593.277 150.157 592.517 148.997C591.797 147.797 591.437 146.157 591.437 144.077C591.437 142.717 591.337 141.577 591.137 140.657C590.977 139.737 590.557 139.017 589.877 138.497C589.197 137.977 588.117 137.637 586.637 137.477C585.157 137.317 583.097 137.317 580.457 137.477V151.157H573.197ZM580.457 132.317H585.617C587.497 132.317 589.037 132.257 590.237 132.137C591.477 132.017 592.397 131.677 592.997 131.117C593.597 130.517 593.897 129.497 593.897 128.057C593.897 126.417 593.537 125.277 592.817 124.637C592.097 123.957 591.017 123.557 589.577 123.437C588.177 123.317 586.457 123.257 584.417 123.257H580.457V132.317ZM656.321 117.377H664.001L656.861 151.157H645.221L640.841 126.557L636.581 151.157H624.941L617.561 117.377H625.241L630.761 148.157L636.941 117.497L636.881 117.377H644.681L651.041 148.157L656.321 117.377ZM676.37 145.337H694.73V151.157H669.29V117.377H694.13V123.557H676.37V131.117H689.81V136.997H676.37V145.337ZM18.8378 223.997C13.3178 223.997 9.09777 222.417 6.17777 219.257C3.25777 216.057 1.79777 211.757 1.79777 206.357C1.79777 202.797 2.41777 199.717 3.65777 197.117C4.93777 194.477 6.83777 192.437 9.35777 190.997C11.8778 189.517 15.0378 188.777 18.8378 188.777C24.3978 188.777 28.6178 190.377 31.4978 193.577C34.3778 196.737 35.8178 200.997 35.8178 206.357C35.8178 209.837 35.1778 212.917 33.8978 215.597C32.6178 218.237 30.7178 220.297 28.1978 221.777C25.6778 223.257 22.5578 223.997 18.8378 223.997ZM18.7778 216.977C20.9778 216.977 22.8178 216.517 24.2978 215.597C25.7778 214.637 26.8778 213.357 27.5978 211.757C28.3178 210.157 28.6778 208.357 28.6778 206.357C28.6778 204.357 28.3178 202.537 27.5978 200.897C26.8778 199.257 25.7778 197.957 24.2978 196.997C22.8178 196.037 20.9778 195.557 18.7778 195.557C15.5378 195.557 13.0778 196.577 11.3978 198.617C9.71777 200.617 8.87777 203.197 8.87777 206.357C8.87777 208.317 9.23777 210.097 9.95777 211.697C10.6778 213.297 11.7578 214.577 13.1978 215.537C14.6778 216.497 16.5378 216.977 18.7778 216.977ZM48.1918 223.157H40.9318V189.377H54.8518C58.6518 189.377 61.6318 190.357 63.7918 192.317C65.9518 194.237 67.0318 197.117 67.0318 200.957C67.0318 204.317 65.9118 206.957 63.6718 208.877C61.4718 210.757 58.5318 211.697 54.8518 211.697H48.1918V223.157ZM53.8318 195.257H48.1918V206.537H53.8318C55.7518 206.537 57.3318 206.077 58.5718 205.157C59.8518 204.197 60.4918 202.777 60.4918 200.897C60.4918 198.977 59.8718 197.557 58.6318 196.637C57.3918 195.717 55.7918 195.257 53.8318 195.257ZM78.1276 217.337H96.4876V223.157H71.0476V189.377H95.8876V195.557H78.1276V203.117H91.5676V208.997H78.1276V217.337ZM101.811 223.157V189.377H114.891C119.291 189.377 122.731 190.137 125.211 191.657C127.731 193.137 128.991 195.737 128.991 199.457C128.991 202.337 128.311 204.617 126.951 206.297C125.631 207.977 123.791 208.817 121.431 208.817C122.671 208.817 123.611 209.117 124.251 209.717C124.891 210.277 125.331 210.977 125.571 211.817C125.851 212.657 126.051 213.537 126.171 214.457C126.331 215.337 126.531 216.137 126.771 216.857C127.011 217.537 127.411 218.017 127.971 218.297C128.571 218.537 129.451 218.417 130.611 217.937V221.957C129.691 222.757 128.631 223.277 127.431 223.517C126.231 223.797 125.071 223.737 123.951 223.337C122.831 222.937 121.891 222.157 121.131 220.997C120.411 219.797 120.051 218.157 120.051 216.077C120.051 214.717 119.951 213.577 119.751 212.657C119.591 211.737 119.171 211.017 118.491 210.497C117.811 209.977 116.731 209.637 115.251 209.477C113.771 209.317 111.711 209.317 109.071 209.477V223.157H101.811ZM109.071 204.317H114.231C116.111 204.317 117.651 204.257 118.851 204.137C120.091 204.017 121.011 203.677 121.611 203.117C122.211 202.517 122.511 201.497 122.511 200.057C122.511 198.417 122.151 197.277 121.431 196.637C120.711 195.957 119.631 195.557 118.191 195.437C116.791 195.317 115.071 195.257 113.031 195.257H109.071V204.317ZM134.281 223.157L144.541 189.377H156.481L167.041 223.157H159.301L156.781 214.157H144.541L142.081 223.157H134.281ZM150.661 192.377L146.101 208.577H155.221L150.661 192.377ZM167.199 195.557V189.377H193.599V195.557H183.999V223.157H176.739V195.557H167.199ZM206.096 217.337H224.456V223.157H199.016V189.377H223.856V195.557H206.096V203.117H219.536V208.997H206.096V217.337ZM243.339 223.817C241.459 223.817 239.619 223.597 237.819 223.157C236.019 222.717 234.379 222.017 232.899 221.057C231.419 220.097 230.239 218.857 229.359 217.337C228.519 215.817 228.099 213.977 228.099 211.817H235.359C235.359 212.017 235.439 212.417 235.599 213.017C235.759 213.577 236.119 214.197 236.679 214.877C237.239 215.517 238.099 216.077 239.259 216.557C240.419 216.997 241.959 217.217 243.879 217.217C245.639 217.217 247.079 216.937 248.199 216.377C249.359 215.777 249.959 214.917 249.999 213.797C249.999 212.837 249.599 212.077 248.799 211.517C248.039 210.957 247.019 210.497 245.739 210.137C244.459 209.737 243.039 209.377 241.479 209.057C239.959 208.737 238.439 208.337 236.919 207.857C235.439 207.377 234.079 206.737 232.839 205.937C231.599 205.137 230.619 204.117 229.899 202.877C229.219 201.597 228.939 199.977 229.059 198.017C229.259 195.137 230.639 192.877 233.199 191.237C235.759 189.597 239.239 188.777 243.639 188.777C246.079 188.777 248.359 189.217 250.479 190.097C252.599 190.937 254.319 192.237 255.639 193.997C256.959 195.757 257.619 197.977 257.619 200.657H250.599C250.599 199.217 250.159 198.137 249.279 197.417C248.399 196.697 247.339 196.217 246.099 195.977C244.899 195.697 243.819 195.557 242.859 195.557C241.099 195.557 239.639 195.837 238.479 196.397C237.359 196.917 236.799 197.757 236.799 198.917C236.799 199.917 237.179 200.717 237.939 201.317C238.739 201.917 239.799 202.397 241.119 202.757C242.439 203.117 243.859 203.457 245.379 203.777C246.939 204.057 248.479 204.417 249.999 204.857C251.559 205.297 252.959 205.917 254.199 206.717C255.439 207.477 256.419 208.497 257.139 209.777C257.859 211.017 258.159 212.637 258.039 214.637C257.839 217.517 256.399 219.777 253.719 221.417C251.039 223.017 247.579 223.817 243.339 223.817Z" fill="#133063"/>
<defs>
<linearGradient id="paint0_linear_59_2215" x1="88.1739" y1="15.1572" x2="353.374" y2="15.1572" gradientUnits="userSpaceOnUse">
<stop stop-color="#133063"/>
<stop offset="1" stop-color="#4FA0CA"/>
</linearGradient>
</defs>
</svg>
