<svg width="265" height="110" viewBox="0 0 265 110" fill="none" xmlns="http://www.w3.org/2000/svg">
<path d="M10.1848 2.02734C5.5824 2.02734 1.85144 5.7583 1.85144 10.3607C1.85144 14.963 5.5824 18.694 10.1848 18.694C14.7871 18.694 18.5181 14.963 18.5181 10.3607C18.5181 5.7583 14.7871 2.02734 10.1848 2.02734Z" fill="#133063"/>
<path fill-rule="evenodd" clip-rule="evenodd" d="M13.274 8.10443C13.5995 8.42987 13.5995 8.9575 13.274 9.28294L9.9407 12.6163C9.61526 12.9417 9.08762 12.9417 8.76218 12.6163L7.09552 10.9496C6.77008 10.6242 6.77008 10.0965 7.09552 9.7711C7.42096 9.44566 7.94859 9.44566 8.27403 9.7711L9.35144 10.8485L12.0955 8.10443C12.421 7.77899 12.9486 7.77899 13.274 8.10443Z" fill="white"/>
<path d="M39.1928 16.0164V17.3604H33.6248V16.0164H35.7608V6.15235C35.6008 6.64835 35.3768 7.04035 35.0888 7.32835C34.8168 7.60035 34.5208 7.80835 34.2008 7.95235C33.8968 8.08035 33.6168 8.16835 33.3608 8.21635C33.1208 8.24835 32.9528 8.26435 32.8568 8.26435V6.63235C32.9528 6.64835 33.1528 6.62435 33.4568 6.56035C33.7768 6.49635 34.1208 6.36835 34.4888 6.17635C34.8568 5.98435 35.1768 5.70435 35.4488 5.33635C35.7208 4.96835 35.8648 4.47235 35.8808 3.84835H37.2728V16.0164H39.1928ZM59.098 10.5924C59.098 12.3684 58.762 13.7524 58.09 14.7444C57.418 15.7204 56.474 16.4004 55.258 16.7844C54.042 17.1684 52.618 17.3604 50.986 17.3604H47.41V3.84835H50.986C52.618 3.84835 54.042 4.10435 55.258 4.61635C56.474 5.11235 57.418 5.85635 58.09 6.84835C58.762 7.84035 59.098 9.08835 59.098 10.5924ZM48.946 16.0404H51.322C52.57 16.0404 53.65 15.9044 54.562 15.6324C55.49 15.3444 56.202 14.8084 56.698 14.0244C57.21 13.2404 57.466 12.0964 57.466 10.5924C57.466 8.75235 56.906 7.40035 55.786 6.53635C54.666 5.65635 53.178 5.21635 51.322 5.21635H48.946V16.0404ZM65.2394 17.6004C63.6714 17.6004 62.4954 17.1364 61.7114 16.2084C60.9434 15.2644 60.5594 14.0644 60.5594 12.6084C60.5434 11.1364 60.9274 9.93635 61.7114 9.00835C62.5114 8.06435 63.6874 7.58435 65.2394 7.56835C66.7754 7.56835 67.9354 8.03235 68.7194 8.96035C69.5194 9.87235 69.9194 11.0884 69.9194 12.6084C69.9194 13.5524 69.7514 14.4004 69.4154 15.1524C69.0794 15.9044 68.5674 16.5044 67.8794 16.9524C67.1914 17.3844 66.3114 17.6004 65.2394 17.6004ZM65.2394 16.2564C66.0714 16.2564 66.7114 16.0724 67.1594 15.7044C67.6234 15.3364 67.9434 14.8724 68.1194 14.3124C68.3114 13.7364 68.4074 13.1524 68.4074 12.5604C68.4074 11.9684 68.3114 11.3844 68.1194 10.8084C67.9434 10.2324 67.6234 9.76035 67.1594 9.39235C66.7114 9.02435 66.0714 8.84035 65.2394 8.84035C64.4074 8.84035 63.7594 9.02435 63.2954 9.39235C62.8474 9.76035 62.5274 10.2324 62.3354 10.8084C62.1594 11.3844 62.0714 11.9684 62.0714 12.5604C62.0714 13.1524 62.1594 13.7364 62.3354 14.3124C62.5274 14.8724 62.8474 15.3364 63.2954 15.7044C63.7594 16.0724 64.4074 16.2564 65.2394 16.2564ZM71.7921 17.3604V7.59235H73.1121L73.2081 10.0164H73.2561C73.2881 9.90435 73.3601 9.72035 73.4721 9.46435C73.5841 9.19235 73.7601 8.91235 74.0001 8.62435C74.2401 8.33635 74.5521 8.09635 74.9361 7.90435C75.3201 7.69635 75.8081 7.59235 76.4001 7.59235C77.2961 7.59235 77.9521 7.84035 78.3681 8.33635C78.8001 8.83235 79.0881 9.39235 79.2321 10.0164H79.2801C79.3281 9.90435 79.4161 9.72035 79.5441 9.46435C79.6721 9.19235 79.8641 8.91235 80.1201 8.62435C80.3761 8.33635 80.7041 8.09635 81.1041 7.90435C81.5201 7.69635 82.0241 7.59235 82.6161 7.59235C83.2401 7.59235 83.7521 7.72035 84.1521 7.97635C84.5521 8.21635 84.8561 8.54435 85.0641 8.96035C85.2881 9.36035 85.4481 9.78435 85.5441 10.2324C85.6401 10.6804 85.6961 11.1124 85.7121 11.5284C85.7281 11.9444 85.7361 12.2804 85.7361 12.5364V17.3604H84.3921V12.5364C84.3921 12.2804 84.3761 11.9524 84.3441 11.5524C84.3121 11.1524 84.2321 10.7604 84.1041 10.3764C83.9761 9.97635 83.7521 9.64835 83.4321 9.39235C83.1281 9.12035 82.6881 8.98435 82.1121 8.98435C81.4721 8.98435 80.9601 9.16035 80.5761 9.51235C80.1921 9.86435 79.9121 10.3284 79.7361 10.9044C79.5601 11.4644 79.4721 12.0724 79.4721 12.7284V17.3604H78.1281V12.5364C78.1281 12.2804 78.1121 11.9524 78.0801 11.5524C78.0481 11.1524 77.9681 10.7604 77.8401 10.3764C77.7121 9.97635 77.4881 9.64835 77.1681 9.39235C76.8641 9.12035 76.4241 8.98435 75.8481 8.98435C75.2081 8.98435 74.6961 9.16035 74.3121 9.51235C73.9281 9.86435 73.6481 10.3284 73.4721 10.9044C73.2961 11.4644 73.2081 12.0724 73.2081 12.7284V17.3604H71.7921ZM91.0679 17.5764C90.1719 17.5764 89.4359 17.3604 88.8599 16.9284C88.2839 16.4804 87.8519 15.8804 87.5639 15.1284C87.2919 14.3764 87.1559 13.5204 87.1559 12.5604C87.1559 11.0884 87.4759 9.88035 88.1159 8.93635C88.7719 7.97635 89.7559 7.49635 91.0679 7.49635C91.7399 7.49635 92.2999 7.61635 92.7479 7.85635C93.2119 8.08035 93.5799 8.36035 93.8519 8.69635C94.1399 9.03235 94.3479 9.35235 94.4759 9.65635H94.4999V7.59235H96.0839V17.3604H94.7639L94.5239 15.4644H94.4759C94.3319 15.7844 94.1239 16.1124 93.8519 16.4484C93.5799 16.7684 93.2119 17.0404 92.7479 17.2644C92.2999 17.4724 91.7399 17.5764 91.0679 17.5764ZM91.6679 16.2084C92.6599 16.2084 93.3719 15.8804 93.8039 15.2244C94.2519 14.5684 94.4759 13.6884 94.4759 12.5844C94.4759 11.4004 94.2439 10.4964 93.7799 9.87235C93.3319 9.24835 92.6279 8.93635 91.6679 8.93635C90.6119 8.93635 89.8519 9.28835 89.3879 9.99235C88.9399 10.6804 88.7159 11.5364 88.7159 12.5604C88.7159 13.6324 88.9479 14.5124 89.4119 15.2004C89.8759 15.8724 90.6279 16.2084 91.6679 16.2084ZM99.1021 6.53635C98.7501 6.53635 98.5101 6.44835 98.3821 6.27235C98.2701 6.08035 98.2141 5.84035 98.2141 5.55235C98.2141 5.31235 98.2701 5.10435 98.3821 4.92835C98.5101 4.73635 98.7501 4.64035 99.1021 4.64035C99.4541 4.64035 99.6861 4.73635 99.7981 4.92835C99.9261 5.10435 99.9901 5.31235 99.9901 5.55235C99.9901 5.84035 99.9261 6.08035 99.7981 6.27235C99.6861 6.44835 99.4541 6.53635 99.1021 6.53635ZM98.3341 17.3604V7.59235H99.8701V17.3604H98.3341ZM102.12 17.3604V7.59235H103.44L103.704 10.0164H103.752C103.768 9.93635 103.84 9.76835 103.968 9.51235C104.096 9.25635 104.288 8.98435 104.544 8.69635C104.816 8.39235 105.168 8.13635 105.6 7.92835C106.032 7.70435 106.584 7.59235 107.256 7.59235C108.104 7.59235 108.768 7.74435 109.248 8.04835C109.744 8.35235 110.112 8.76035 110.352 9.27235C110.592 9.76835 110.744 10.3044 110.808 10.8804C110.872 11.4564 110.904 12.0084 110.904 12.5364V17.3604H109.416V12.5364C109.416 11.4804 109.232 10.6244 108.864 9.96835C108.512 9.31235 107.808 8.98435 106.752 8.98435C106.032 8.98435 105.44 9.16035 104.976 9.51235C104.528 9.84835 104.2 10.3044 103.992 10.8804C103.8 11.4404 103.704 12.0564 103.704 12.7284V17.3604H102.12Z" fill="#133063"/>
<path d="M10.1848 46.0273C5.5824 46.0273 1.85144 49.7583 1.85144 54.3607C1.85144 58.963 5.5824 62.694 10.1848 62.694C14.7871 62.694 18.5181 58.963 18.5181 54.3607C18.5181 49.7583 14.7871 46.0273 10.1848 46.0273Z" fill="#133063"/>
<path fill-rule="evenodd" clip-rule="evenodd" d="M13.274 52.1044C13.5995 52.4299 13.5995 52.9575 13.274 53.2829L9.9407 56.6163C9.61526 56.9417 9.08762 56.9417 8.76218 56.6163L7.09552 54.9496C6.77008 54.6242 6.77008 54.0965 7.09552 53.7711C7.42096 53.4457 7.94859 53.4457 8.27403 53.7711L9.35144 54.8485L12.0955 52.1044C12.421 51.779 12.9486 51.779 13.274 52.1044Z" fill="white"/>
<path d="M39.1928 60.0164V61.3604H33.6248V60.0164H35.7608V50.1524C35.6008 50.6484 35.3768 51.0404 35.0888 51.3284C34.8168 51.6004 34.5208 51.8084 34.2008 51.9524C33.8968 52.0804 33.6168 52.1684 33.3608 52.2164C33.1208 52.2484 32.9528 52.2644 32.8568 52.2644V50.6324C32.9528 50.6484 33.1528 50.6244 33.4568 50.5604C33.7768 50.4964 34.1208 50.3684 34.4888 50.1764C34.8568 49.9844 35.1768 49.7044 35.4488 49.3364C35.7208 48.9684 35.8648 48.4724 35.8808 47.8484H37.2728V60.0164H39.1928ZM50.074 61.3604V56.4164L45.49 47.8484H47.218L50.89 55.0004L54.562 47.8484H56.266L51.634 56.4164V61.3604H50.074ZM60.5056 61.6004C59.4336 61.6004 58.5456 61.3604 57.8416 60.8804C57.1536 60.3844 56.6416 59.7524 56.3056 58.9844C55.9856 58.2004 55.8256 57.3924 55.8256 56.5604C55.8256 55.6484 56.0016 54.8164 56.3536 54.0644C56.7216 53.2964 57.2496 52.6884 57.9376 52.2404C58.6416 51.7924 59.4816 51.5684 60.4576 51.5684C61.7056 51.5684 62.7456 51.9764 63.5776 52.7924C64.4096 53.5924 64.8576 54.6724 64.9216 56.0324C64.9376 56.0964 64.9456 56.1924 64.9456 56.3204C64.9456 56.4324 64.9456 56.5364 64.9456 56.6324H57.3136C57.3136 57.7684 57.5856 58.6644 58.1296 59.3204C58.6896 59.9604 59.4736 60.2804 60.4816 60.2804C61.2336 60.2804 61.8736 60.0884 62.4016 59.7044C62.9456 59.3204 63.2816 58.8004 63.4096 58.1444H64.9216C64.7616 59.1364 64.2896 59.9604 63.5056 60.6164C62.7216 61.2724 61.7216 61.6004 60.5056 61.6004ZM57.3616 55.7924H63.3616C63.3616 55.4564 63.2656 55.0564 63.0736 54.5924C62.8976 54.1284 62.5936 53.7284 62.1616 53.3924C61.7456 53.0404 61.1696 52.8644 60.4336 52.8644C59.7616 52.8644 59.2096 53.0084 58.7776 53.2964C58.3456 53.5844 58.0176 53.9524 57.7936 54.4004C57.5696 54.8484 57.4256 55.3124 57.3616 55.7924ZM70.3257 61.5764C69.4297 61.5764 68.6937 61.3604 68.1177 60.9284C67.5417 60.4804 67.1097 59.8804 66.8217 59.1284C66.5497 58.3764 66.4137 57.5204 66.4137 56.5604C66.4137 55.0884 66.7337 53.8804 67.3737 52.9364C68.0297 51.9764 69.0137 51.4964 70.3257 51.4964C70.9977 51.4964 71.5577 51.6164 72.0057 51.8564C72.4697 52.0804 72.8377 52.3604 73.1097 52.6964C73.3977 53.0324 73.6057 53.3524 73.7337 53.6564H73.7577V51.5924H75.3417V61.3604H74.0217L73.7817 59.4644H73.7337C73.5897 59.7844 73.3817 60.1124 73.1097 60.4484C72.8377 60.7684 72.4697 61.0404 72.0057 61.2644C71.5577 61.4724 70.9977 61.5764 70.3257 61.5764ZM70.9257 60.2084C71.9177 60.2084 72.6297 59.8804 73.0617 59.2244C73.5097 58.5684 73.7337 57.6884 73.7337 56.5844C73.7337 55.4004 73.5017 54.4964 73.0377 53.8724C72.5897 53.2484 71.8857 52.9364 70.9257 52.9364C69.8697 52.9364 69.1097 53.2884 68.6457 53.9924C68.1977 54.6804 67.9737 55.5364 67.9737 56.5604C67.9737 57.6324 68.2057 58.5124 68.6697 59.2004C69.1337 59.8724 69.8857 60.2084 70.9257 60.2084ZM77.3759 61.3604V51.5924H78.7679L78.9359 54.1604C79.0319 53.7284 79.2239 53.3124 79.5119 52.9124C79.7999 52.5124 80.1919 52.1924 80.6879 51.9524C81.1999 51.6964 81.8319 51.5764 82.5839 51.5924H83.0399V53.2964H82.5599C81.5359 53.2964 80.7599 53.4484 80.2319 53.7524C79.7199 54.0404 79.3679 54.4484 79.1759 54.9764C78.9999 55.5044 78.9119 56.1124 78.9119 56.8004V61.3604H77.3759ZM92.2094 61.3604H90.6734V47.8484H95.8094C97.2974 47.8484 98.4334 48.2084 99.2174 48.9284C100.001 49.6484 100.393 50.7204 100.393 52.1444C100.393 53.4724 99.9854 54.4964 99.1694 55.2164C98.3694 55.9364 97.2494 56.2964 95.8094 56.2964H92.2094V61.3604ZM95.6414 49.1684H92.2094V55.0964H95.6414C96.6974 55.0964 97.5134 54.8564 98.0894 54.3764C98.6814 53.8804 98.9774 53.1364 98.9774 52.1444C98.9774 51.1204 98.6894 50.3684 98.1134 49.8884C97.5534 49.4084 96.7294 49.1684 95.6414 49.1684ZM102.056 61.3604V51.5924H103.448L103.616 54.1604C103.712 53.7284 103.904 53.3124 104.192 52.9124C104.48 52.5124 104.872 52.1924 105.368 51.9524C105.88 51.6964 106.512 51.5764 107.264 51.5924H107.72V53.2964H107.24C106.216 53.2964 105.44 53.4484 104.912 53.7524C104.4 54.0404 104.048 54.4484 103.856 54.9764C103.68 55.5044 103.592 56.1124 103.592 56.8004V61.3604H102.056ZM113.334 61.6004C112.262 61.6004 111.374 61.3604 110.67 60.8804C109.982 60.3844 109.47 59.7524 109.134 58.9844C108.814 58.2004 108.654 57.3924 108.654 56.5604C108.654 55.6484 108.83 54.8164 109.182 54.0644C109.55 53.2964 110.078 52.6884 110.766 52.2404C111.47 51.7924 112.31 51.5684 113.286 51.5684C114.534 51.5684 115.574 51.9764 116.406 52.7924C117.238 53.5924 117.686 54.6724 117.75 56.0324C117.766 56.0964 117.774 56.1924 117.774 56.3204C117.774 56.4324 117.774 56.5364 117.774 56.6324H110.142C110.142 57.7684 110.414 58.6644 110.958 59.3204C111.518 59.9604 112.302 60.2804 113.31 60.2804C114.062 60.2804 114.702 60.0884 115.23 59.7044C115.774 59.3204 116.11 58.8004 116.238 58.1444H117.75C117.59 59.1364 117.118 59.9604 116.334 60.6164C115.55 61.2724 114.55 61.6004 113.334 61.6004ZM110.19 55.7924H116.19C116.19 55.4564 116.094 55.0564 115.902 54.5924C115.726 54.1284 115.422 53.7284 114.99 53.3924C114.574 53.0404 113.998 52.8644 113.262 52.8644C112.59 52.8644 112.038 53.0084 111.606 53.2964C111.174 53.5844 110.846 53.9524 110.622 54.4004C110.398 54.8484 110.254 55.3124 110.19 55.7924ZM119.722 61.3604V51.5924H121.042L121.138 54.0164H121.186C121.218 53.9044 121.29 53.7204 121.402 53.4644C121.514 53.1924 121.69 52.9124 121.93 52.6244C122.17 52.3364 122.482 52.0964 122.866 51.9044C123.25 51.6964 123.738 51.5924 124.33 51.5924C125.226 51.5924 125.882 51.8404 126.298 52.3364C126.73 52.8324 127.018 53.3924 127.162 54.0164H127.21C127.258 53.9044 127.346 53.7204 127.474 53.4644C127.602 53.1924 127.794 52.9124 128.05 52.6244C128.306 52.3364 128.634 52.0964 129.034 51.9044C129.45 51.6964 129.954 51.5924 130.546 51.5924C131.17 51.5924 131.682 51.7204 132.082 51.9764C132.482 52.2164 132.786 52.5444 132.994 52.9604C133.218 53.3604 133.378 53.7844 133.474 54.2324C133.57 54.6804 133.626 55.1124 133.642 55.5284C133.658 55.9444 133.666 56.2804 133.666 56.5364V61.3604H132.322V56.5364C132.322 56.2804 132.306 55.9524 132.274 55.5524C132.242 55.1524 132.162 54.7604 132.034 54.3764C131.906 53.9764 131.682 53.6484 131.362 53.3924C131.058 53.1204 130.618 52.9844 130.042 52.9844C129.402 52.9844 128.89 53.1604 128.506 53.5124C128.122 53.8644 127.842 54.3284 127.666 54.9044C127.49 55.4644 127.402 56.0724 127.402 56.7284V61.3604H126.058V56.5364C126.058 56.2804 126.042 55.9524 126.01 55.5524C125.978 55.1524 125.898 54.7604 125.77 54.3764C125.642 53.9764 125.418 53.6484 125.098 53.3924C124.794 53.1204 124.354 52.9844 123.778 52.9844C123.138 52.9844 122.626 53.1604 122.242 53.5124C121.858 53.8644 121.578 54.3284 121.402 54.9044C121.226 55.4644 121.138 56.0724 121.138 56.7284V61.3604H119.722ZM136.79 50.5364C136.438 50.5364 136.198 50.4484 136.07 50.2724C135.958 50.0804 135.902 49.8404 135.902 49.5524C135.902 49.3124 135.958 49.1044 136.07 48.9284C136.198 48.7364 136.438 48.6404 136.79 48.6404C137.142 48.6404 137.374 48.7364 137.486 48.9284C137.614 49.1044 137.678 49.3124 137.678 49.5524C137.678 49.8404 137.614 50.0804 137.486 50.2724C137.374 50.4484 137.142 50.5364 136.79 50.5364ZM136.022 61.3604V51.5924H137.558V61.3604H136.022ZM143.432 61.6004C142.632 61.6004 141.984 61.4564 141.488 61.1684C141.008 60.8804 140.64 60.4964 140.384 60.0164C140.128 59.5204 139.952 58.9844 139.856 58.4084C139.776 57.8164 139.736 57.2244 139.736 56.6324V51.5924H141.272V56.6564C141.272 57.2964 141.336 57.8884 141.464 58.4324C141.592 58.9764 141.848 59.4084 142.232 59.7284C142.632 60.0484 143.208 60.2084 143.96 60.2084C144.68 60.2084 145.24 60.0484 145.64 59.7284C146.056 59.3924 146.36 58.9604 146.552 58.4324C146.744 57.9044 146.856 57.3524 146.888 56.7764V51.5924H148.472V61.3604H147.152L146.888 59.1764H146.84C146.76 59.4484 146.592 59.7764 146.336 60.1604C146.08 60.5444 145.712 60.8804 145.232 61.1684C144.768 61.4564 144.168 61.6004 143.432 61.6004ZM150.495 61.3604V51.5924H151.815L151.911 54.0164H151.959C151.991 53.9044 152.063 53.7204 152.175 53.4644C152.287 53.1924 152.463 52.9124 152.703 52.6244C152.943 52.3364 153.255 52.0964 153.639 51.9044C154.023 51.6964 154.511 51.5924 155.103 51.5924C155.999 51.5924 156.655 51.8404 157.071 52.3364C157.503 52.8324 157.791 53.3924 157.935 54.0164H157.983C158.031 53.9044 158.119 53.7204 158.247 53.4644C158.375 53.1924 158.567 52.9124 158.823 52.6244C159.079 52.3364 159.407 52.0964 159.807 51.9044C160.223 51.6964 160.727 51.5924 161.319 51.5924C161.943 51.5924 162.455 51.7204 162.855 51.9764C163.255 52.2164 163.559 52.5444 163.767 52.9604C163.991 53.3604 164.151 53.7844 164.247 54.2324C164.343 54.6804 164.399 55.1124 164.415 55.5284C164.431 55.9444 164.439 56.2804 164.439 56.5364V61.3604H163.095V56.5364C163.095 56.2804 163.079 55.9524 163.047 55.5524C163.015 55.1524 162.935 54.7604 162.807 54.3764C162.679 53.9764 162.455 53.6484 162.135 53.3924C161.831 53.1204 161.391 52.9844 160.815 52.9844C160.175 52.9844 159.663 53.1604 159.279 53.5124C158.895 53.8644 158.615 54.3284 158.439 54.9044C158.263 55.4644 158.175 56.0724 158.175 56.7284V61.3604H156.831V56.5364C156.831 56.2804 156.815 55.9524 156.783 55.5524C156.751 55.1524 156.671 54.7604 156.543 54.3764C156.415 53.9764 156.191 53.6484 155.871 53.3924C155.567 53.1204 155.127 52.9844 154.551 52.9844C153.911 52.9844 153.399 53.1604 153.015 53.5124C152.631 53.8644 152.351 54.3284 152.175 54.9044C151.999 55.4644 151.911 56.0724 151.911 56.7284V61.3604H150.495ZM177.578 61.6724C176.634 61.6724 175.722 61.5204 174.842 61.2164C173.978 60.8964 173.266 60.4084 172.706 59.7524C172.146 59.0804 171.858 58.2164 171.842 57.1604H173.378C173.378 57.2084 173.394 57.3444 173.426 57.5684C173.458 57.7924 173.538 58.0564 173.666 58.3604C173.81 58.6484 174.034 58.9444 174.338 59.2484C174.642 59.5364 175.066 59.7764 175.61 59.9684C176.154 60.1604 176.85 60.2564 177.698 60.2564C178.642 60.2564 179.362 60.1204 179.858 59.8484C180.354 59.5604 180.69 59.2404 180.866 58.8884C181.058 58.5204 181.154 58.2324 181.154 58.0244C181.17 57.4644 181.018 57.0164 180.698 56.6804C180.378 56.3444 179.946 56.0724 179.402 55.8644C178.874 55.6564 178.29 55.4724 177.65 55.3124C177.01 55.1524 176.37 54.9844 175.73 54.8084C175.106 54.6164 174.53 54.3764 174.002 54.0884C173.474 53.7844 173.058 53.3924 172.754 52.9124C172.45 52.4324 172.314 51.8164 172.346 51.0644C172.378 50.3444 172.626 49.7284 173.09 49.2164C173.554 48.7044 174.17 48.3124 174.938 48.0404C175.722 47.7524 176.61 47.6084 177.602 47.6084C178.514 47.6084 179.354 47.7764 180.122 48.1124C180.906 48.4324 181.53 48.9204 181.994 49.5764C182.458 50.2324 182.674 51.0484 182.642 52.0244H181.13C181.146 51.4164 181.026 50.9204 180.77 50.5364C180.53 50.1364 180.21 49.8324 179.81 49.6244C179.41 49.4164 178.994 49.2724 178.562 49.1924C178.146 49.0964 177.778 49.0484 177.458 49.0484C176.45 49.0484 175.618 49.2484 174.962 49.6484C174.306 50.0484 173.97 50.5684 173.954 51.2084C173.954 51.7684 174.114 52.2164 174.434 52.5524C174.754 52.8884 175.178 53.1604 175.706 53.3684C176.25 53.5604 176.842 53.7284 177.482 53.8724C178.122 54.0164 178.754 54.1844 179.378 54.3764C180.018 54.5524 180.602 54.7844 181.13 55.0724C181.658 55.3604 182.074 55.7524 182.378 56.2484C182.682 56.7444 182.818 57.3764 182.786 58.1444C182.754 58.8964 182.506 59.5364 182.042 60.0644C181.578 60.5764 180.962 60.9764 180.194 61.2644C179.426 61.5364 178.554 61.6724 177.578 61.6724ZM188.268 61.6004C187.468 61.6004 186.82 61.4564 186.324 61.1684C185.844 60.8804 185.476 60.4964 185.22 60.0164C184.964 59.5204 184.788 58.9844 184.692 58.4084C184.612 57.8164 184.572 57.2244 184.572 56.6324V51.5924H186.108V56.6564C186.108 57.2964 186.172 57.8884 186.3 58.4324C186.428 58.9764 186.684 59.4084 187.068 59.7284C187.468 60.0484 188.044 60.2084 188.796 60.2084C189.516 60.2084 190.076 60.0484 190.476 59.7284C190.892 59.3924 191.196 58.9604 191.388 58.4324C191.58 57.9044 191.692 57.3524 191.724 56.7764V51.5924H193.308V61.3604H191.988L191.724 59.1764H191.676C191.596 59.4484 191.428 59.7764 191.172 60.1604C190.916 60.5444 190.548 60.8804 190.068 61.1684C189.604 61.4564 189.004 61.6004 188.268 61.6004ZM200.779 61.6004C200.155 61.6004 199.619 61.4964 199.171 61.2884C198.739 61.0644 198.387 60.8084 198.115 60.5204C197.843 60.2324 197.635 59.9604 197.491 59.7044C197.363 59.4484 197.283 59.2804 197.251 59.2004H197.203V65.3924H195.619V51.5924H196.939L197.203 54.0404H197.251C197.283 53.9604 197.363 53.7924 197.491 53.5364C197.619 53.2804 197.811 53.0004 198.067 52.6964C198.339 52.3924 198.691 52.1364 199.123 51.9284C199.571 51.7044 200.123 51.5924 200.779 51.5924C201.723 51.5924 202.507 51.8084 203.131 52.2404C203.771 52.6724 204.251 53.2724 204.571 54.0404C204.907 54.7924 205.075 55.6564 205.075 56.6324C205.075 58.0884 204.707 59.2804 203.971 60.2084C203.235 61.1364 202.171 61.6004 200.779 61.6004ZM200.467 60.2324C201.219 60.2324 201.819 60.0564 202.267 59.7044C202.731 59.3524 203.059 58.9044 203.251 58.3604C203.459 57.8004 203.563 57.2164 203.563 56.6084C203.563 55.9844 203.451 55.4004 203.227 54.8564C203.003 54.3124 202.651 53.8724 202.171 53.5364C201.707 53.1844 201.091 53.0084 200.323 53.0084C199.395 53.0084 198.651 53.3364 198.091 53.9924C197.531 54.6324 197.251 55.5044 197.251 56.6084C197.251 57.7284 197.547 58.6164 198.139 59.2724C198.731 59.9124 199.507 60.2324 200.467 60.2324ZM212.17 61.6004C211.546 61.6004 211.01 61.4964 210.562 61.2884C210.13 61.0644 209.778 60.8084 209.506 60.5204C209.234 60.2324 209.026 59.9604 208.882 59.7044C208.754 59.4484 208.674 59.2804 208.642 59.2004H208.594V65.3924H207.01V51.5924H208.33L208.594 54.0404H208.642C208.674 53.9604 208.754 53.7924 208.882 53.5364C209.01 53.2804 209.202 53.0004 209.458 52.6964C209.73 52.3924 210.082 52.1364 210.514 51.9284C210.962 51.7044 211.514 51.5924 212.17 51.5924C213.114 51.5924 213.898 51.8084 214.522 52.2404C215.162 52.6724 215.642 53.2724 215.962 54.0404C216.298 54.7924 216.466 55.6564 216.466 56.6324C216.466 58.0884 216.098 59.2804 215.362 60.2084C214.626 61.1364 213.562 61.6004 212.17 61.6004ZM211.858 60.2324C212.61 60.2324 213.21 60.0564 213.658 59.7044C214.122 59.3524 214.45 58.9044 214.642 58.3604C214.85 57.8004 214.954 57.2164 214.954 56.6084C214.954 55.9844 214.842 55.4004 214.618 54.8564C214.394 54.3124 214.042 53.8724 213.562 53.5364C213.098 53.1844 212.482 53.0084 211.714 53.0084C210.786 53.0084 210.042 53.3364 209.482 53.9924C208.922 54.6324 208.642 55.5044 208.642 56.6084C208.642 57.7284 208.938 58.6164 209.53 59.2724C210.122 59.9124 210.898 60.2324 211.858 60.2324ZM222.528 61.6004C220.96 61.6004 219.784 61.1364 219 60.2084C218.232 59.2644 217.848 58.0644 217.848 56.6084C217.832 55.1364 218.216 53.9364 219 53.0084C219.8 52.0644 220.976 51.5844 222.528 51.5684C224.064 51.5684 225.224 52.0324 226.008 52.9604C226.808 53.8724 227.208 55.0884 227.208 56.6084C227.208 57.5524 227.04 58.4004 226.704 59.1524C226.368 59.9044 225.856 60.5044 225.168 60.9524C224.48 61.3844 223.6 61.6004 222.528 61.6004ZM222.528 60.2564C223.36 60.2564 224 60.0724 224.448 59.7044C224.912 59.3364 225.232 58.8724 225.408 58.3124C225.6 57.7364 225.696 57.1524 225.696 56.5604C225.696 55.9684 225.6 55.3844 225.408 54.8084C225.232 54.2324 224.912 53.7604 224.448 53.3924C224 53.0244 223.36 52.8404 222.528 52.8404C221.696 52.8404 221.048 53.0244 220.584 53.3924C220.136 53.7604 219.816 54.2324 219.624 54.8084C219.448 55.3844 219.36 55.9684 219.36 56.5604C219.36 57.1524 219.448 57.7364 219.624 58.3124C219.816 58.8724 220.136 59.3364 220.584 59.7044C221.048 60.0724 221.696 60.2564 222.528 60.2564ZM229.321 61.3604V51.5924H230.713L230.881 54.1604C230.977 53.7284 231.169 53.3124 231.457 52.9124C231.745 52.5124 232.137 52.1924 232.633 51.9524C233.145 51.6964 233.777 51.5764 234.529 51.5924H234.985V53.2964H234.505C233.481 53.2964 232.705 53.4484 232.177 53.7524C231.665 54.0404 231.313 54.4484 231.121 54.9764C230.945 55.5044 230.857 56.1124 230.857 56.8004V61.3604H229.321ZM239.428 61.3604C238.836 61.3604 238.42 61.2004 238.18 60.8804C237.956 60.5604 237.844 60.1204 237.844 59.5604V52.7444H236.308V51.5924C236.82 51.5924 237.196 51.5524 237.436 51.4724C237.692 51.3764 237.852 51.1524 237.916 50.8004C237.98 50.4484 238.012 49.8724 238.012 49.0724H239.332V51.5924H241.588V52.7444H239.332V60.1124H241.612V61.3604H239.428Z" fill="#133063"/>
<path d="M10.1848 90.0273C5.5824 90.0273 1.85144 93.7583 1.85144 98.3607C1.85144 102.963 5.5824 106.694 10.1848 106.694C14.7871 106.694 18.5181 102.963 18.5181 98.3607C18.5181 93.7583 14.7871 90.0273 10.1848 90.0273Z" fill="#133063"/>
<path fill-rule="evenodd" clip-rule="evenodd" d="M13.274 96.1044C13.5995 96.4299 13.5995 96.9575 13.274 97.2829L9.9407 100.616C9.61526 100.942 9.08762 100.942 8.76218 100.616L7.09552 98.9496C6.77008 98.6242 6.77008 98.0965 7.09552 97.7711C7.42096 97.4457 7.94859 97.4457 8.27403 97.7711L9.35144 98.8485L12.0955 96.1044C12.421 95.779 12.9486 95.779 13.274 96.1044Z" fill="white"/>
<path d="M33.5528 105.36V91.8484H36.2168L40.6088 104.664H40.6568L44.9768 91.8484H47.6408V105.36H46.0808L46.1528 92.6404H46.1048L41.7368 105.36H39.4568L35.0888 92.6404H35.0408L35.1128 105.36H33.5528ZM54.3878 105.6C52.8198 105.6 51.6438 105.136 50.8598 104.208C50.0918 103.264 49.7078 102.064 49.7078 100.608C49.6918 99.1364 50.0758 97.9364 50.8598 97.0084C51.6598 96.0644 52.8358 95.5844 54.3878 95.5684C55.9238 95.5684 57.0838 96.0324 57.8678 96.9604C58.6678 97.8724 59.0678 99.0884 59.0678 100.608C59.0678 101.552 58.8998 102.4 58.5638 103.152C58.2278 103.904 57.7158 104.504 57.0278 104.952C56.3398 105.384 55.4598 105.6 54.3878 105.6ZM54.3878 104.256C55.2198 104.256 55.8598 104.072 56.3078 103.704C56.7718 103.336 57.0918 102.872 57.2678 102.312C57.4598 101.736 57.5558 101.152 57.5558 100.56C57.5558 99.9684 57.4598 99.3844 57.2678 98.8084C57.0918 98.2324 56.7718 97.7604 56.3078 97.3924C55.8598 97.0244 55.2198 96.8404 54.3878 96.8404C53.5558 96.8404 52.9078 97.0244 52.4438 97.3924C51.9958 97.7604 51.6758 98.2324 51.4838 98.8084C51.3078 99.3844 51.2198 99.9684 51.2198 100.56C51.2198 101.152 51.3078 101.736 51.4838 102.312C51.6758 102.872 51.9958 103.336 52.4438 103.704C52.9078 104.072 53.5558 104.256 54.3878 104.256ZM60.9406 105.36V95.5924H62.2606L62.5246 98.0164H62.5726C62.5886 97.9364 62.6606 97.7684 62.7886 97.5124C62.9166 97.2564 63.1086 96.9844 63.3646 96.6964C63.6366 96.3924 63.9886 96.1364 64.4206 95.9284C64.8526 95.7044 65.4046 95.5924 66.0766 95.5924C66.9246 95.5924 67.5886 95.7444 68.0686 96.0484C68.5646 96.3524 68.9326 96.7604 69.1726 97.2724C69.4126 97.7684 69.5646 98.3044 69.6286 98.8804C69.6926 99.4564 69.7246 100.008 69.7246 100.536V105.36H68.2366V100.536C68.2366 99.4804 68.0526 98.6244 67.6846 97.9684C67.3326 97.3124 66.6286 96.9844 65.5726 96.9844C64.8526 96.9844 64.2606 97.1604 63.7966 97.5124C63.3486 97.8484 63.0206 98.3044 62.8126 98.8804C62.6206 99.4404 62.5246 100.056 62.5246 100.728V105.36H60.9406ZM74.0995 105.36C73.5075 105.36 73.0915 105.2 72.8515 104.88C72.6275 104.56 72.5155 104.12 72.5155 103.56V96.7444H70.9795V95.5924C71.4915 95.5924 71.8675 95.5524 72.1075 95.4724C72.3635 95.3764 72.5235 95.1524 72.5875 94.8004C72.6515 94.4484 72.6835 93.8724 72.6835 93.0724H74.0035V95.5924H76.2595V96.7444H74.0035V104.112H76.2835V105.36H74.0995ZM78.3803 105.36V91.8484H79.9403V98.0164H79.9883C80.0203 97.9364 80.0923 97.7684 80.2043 97.5124C80.3323 97.2564 80.5243 96.9844 80.7803 96.6964C81.0363 96.3924 81.3803 96.1364 81.8123 95.9284C82.2443 95.7044 82.7883 95.5924 83.4443 95.5924C84.2763 95.5924 84.9403 95.7524 85.4363 96.0724C85.9323 96.3764 86.3003 96.7844 86.5403 97.2964C86.7963 97.7924 86.9643 98.3284 87.0443 98.9044C87.1243 99.4804 87.1643 100.024 87.1643 100.536V105.36H85.6523V100.536C85.6523 99.4804 85.4683 98.6244 85.1003 97.9684C84.7483 97.3124 84.0523 96.9844 83.0123 96.9844C82.2763 96.9844 81.6843 97.1604 81.2363 97.5124C80.7883 97.8484 80.4603 98.3044 80.2523 98.8804C80.0443 99.4404 79.9403 100.056 79.9403 100.728V105.36H78.3803ZM89.4953 105.36V91.8484H91.0073V105.36H89.4953ZM92.1831 109.728V108.48H93.5271C93.8471 108.48 94.1111 108.392 94.3191 108.216C94.5271 108.056 94.7831 107.656 95.0871 107.016L96.1191 104.784L92.2791 95.5924H93.8871L96.8871 103.152L100.079 95.5924H101.711L96.4791 107.232C96.1591 107.952 95.8711 108.488 95.6151 108.84C95.3751 109.208 95.1031 109.448 94.7991 109.56C94.4951 109.672 94.1111 109.728 93.6471 109.728H92.1831ZM114.588 105.696C112.78 105.696 111.388 105.168 110.412 104.112C109.452 103.04 108.972 101.536 108.972 99.6004V91.8484H110.556V99.6004C110.556 101.216 110.94 102.392 111.708 103.128C112.476 103.864 113.436 104.232 114.588 104.232C115.836 104.232 116.82 103.872 117.54 103.152C118.276 102.416 118.644 101.232 118.644 99.6004V91.8484H120.228V99.6004C120.228 101.568 119.748 103.08 118.788 104.136C117.844 105.176 116.444 105.696 114.588 105.696ZM127.935 105.6C127.311 105.6 126.775 105.496 126.327 105.288C125.895 105.064 125.543 104.808 125.271 104.52C124.999 104.232 124.791 103.96 124.647 103.704C124.519 103.448 124.439 103.28 124.407 103.2H124.359V109.392H122.775V95.5924H124.095L124.359 98.0404H124.407C124.439 97.9604 124.519 97.7924 124.647 97.5364C124.775 97.2804 124.967 97.0004 125.223 96.6964C125.495 96.3924 125.847 96.1364 126.279 95.9284C126.727 95.7044 127.279 95.5924 127.935 95.5924C128.879 95.5924 129.663 95.8084 130.287 96.2404C130.927 96.6724 131.407 97.2724 131.727 98.0404C132.063 98.7924 132.231 99.6564 132.231 100.632C132.231 102.088 131.863 103.28 131.127 104.208C130.391 105.136 129.327 105.6 127.935 105.6ZM127.623 104.232C128.375 104.232 128.975 104.056 129.423 103.704C129.887 103.352 130.215 102.904 130.407 102.36C130.615 101.8 130.719 101.216 130.719 100.608C130.719 99.9844 130.607 99.4004 130.383 98.8564C130.159 98.3124 129.807 97.8724 129.327 97.5364C128.863 97.1844 128.247 97.0084 127.479 97.0084C126.551 97.0084 125.807 97.3364 125.247 97.9924C124.687 98.6324 124.407 99.5044 124.407 100.608C124.407 101.728 124.703 102.616 125.295 103.272C125.887 103.912 126.663 104.232 127.623 104.232ZM138.318 105.6C137.374 105.6 136.582 105.384 135.942 104.952C135.318 104.52 134.846 103.928 134.526 103.176C134.222 102.408 134.07 101.552 134.07 100.608C134.07 99.1524 134.43 97.9524 135.15 97.0084C135.87 96.0644 136.934 95.5924 138.342 95.5924C138.998 95.5924 139.542 95.7044 139.974 95.9284C140.422 96.1364 140.782 96.3924 141.054 96.6964C141.326 97.0004 141.526 97.2804 141.654 97.5364C141.782 97.7924 141.862 97.9604 141.894 98.0404H141.942L141.966 91.8484H143.55V105.36H142.206L141.966 103.2H141.918C141.886 103.28 141.798 103.448 141.654 103.704C141.51 103.96 141.294 104.232 141.006 104.52C140.734 104.808 140.374 105.064 139.926 105.288C139.494 105.496 138.958 105.6 138.318 105.6ZM138.702 104.232C139.646 104.232 140.414 103.912 141.006 103.272C141.614 102.616 141.918 101.728 141.918 100.608C141.918 99.5044 141.638 98.6324 141.078 97.9924C140.518 97.3364 139.766 97.0084 138.822 97.0084C138.07 97.0084 137.454 97.1844 136.974 97.5364C136.494 97.8724 136.142 98.3124 135.918 98.8564C135.694 99.4004 135.582 99.9844 135.582 100.608C135.582 101.216 135.686 101.8 135.894 102.36C136.102 102.904 136.43 103.352 136.878 103.704C137.326 104.056 137.934 104.232 138.702 104.232ZM149.005 105.576C148.109 105.576 147.373 105.36 146.797 104.928C146.221 104.48 145.789 103.88 145.501 103.128C145.229 102.376 145.093 101.52 145.093 100.56C145.093 99.0884 145.413 97.8804 146.053 96.9364C146.709 95.9764 147.693 95.4964 149.005 95.4964C149.677 95.4964 150.237 95.6164 150.685 95.8564C151.149 96.0804 151.517 96.3604 151.789 96.6964C152.077 97.0324 152.285 97.3524 152.413 97.6564H152.437V95.5924H154.021V105.36H152.701L152.461 103.464H152.413C152.269 103.784 152.061 104.112 151.789 104.448C151.517 104.768 151.149 105.04 150.685 105.264C150.237 105.472 149.677 105.576 149.005 105.576ZM149.605 104.208C150.597 104.208 151.309 103.88 151.741 103.224C152.189 102.568 152.413 101.688 152.413 100.584C152.413 99.4004 152.181 98.4964 151.717 97.8724C151.269 97.2484 150.565 96.9364 149.605 96.9364C148.549 96.9364 147.789 97.2884 147.325 97.9924C146.877 98.6804 146.653 99.5364 146.653 100.56C146.653 101.632 146.885 102.512 147.349 103.2C147.813 103.872 148.565 104.208 149.605 104.208ZM158.264 105.36C157.672 105.36 157.256 105.2 157.016 104.88C156.792 104.56 156.68 104.12 156.68 103.56V96.7444H155.144V95.5924C155.656 95.5924 156.032 95.5524 156.272 95.4724C156.528 95.3764 156.688 95.1524 156.752 94.8004C156.816 94.4484 156.848 93.8724 156.848 93.0724H158.168V95.5924H160.424V96.7444H158.168V104.112H160.448V105.36H158.264ZM166.584 105.6C165.512 105.6 164.624 105.36 163.92 104.88C163.232 104.384 162.72 103.752 162.384 102.984C162.064 102.2 161.904 101.392 161.904 100.56C161.904 99.6484 162.08 98.8164 162.432 98.0644C162.8 97.2964 163.328 96.6884 164.016 96.2404C164.72 95.7924 165.56 95.5684 166.536 95.5684C167.784 95.5684 168.824 95.9764 169.656 96.7924C170.488 97.5924 170.936 98.6724 171 100.032C171.016 100.096 171.024 100.192 171.024 100.32C171.024 100.432 171.024 100.536 171.024 100.632H163.392C163.392 101.768 163.664 102.664 164.208 103.32C164.768 103.96 165.552 104.28 166.56 104.28C167.312 104.28 167.952 104.088 168.48 103.704C169.024 103.32 169.36 102.8 169.488 102.144H171C170.84 103.136 170.368 103.96 169.584 104.616C168.8 105.272 167.8 105.6 166.584 105.6ZM163.44 99.7924H169.44C169.44 99.4564 169.344 99.0564 169.152 98.5924C168.976 98.1284 168.672 97.7284 168.24 97.3924C167.824 97.0404 167.248 96.8644 166.512 96.8644C165.84 96.8644 165.288 97.0084 164.856 97.2964C164.424 97.5844 164.096 97.9524 163.872 98.4004C163.648 98.8484 163.504 99.3124 163.44 99.7924ZM176.86 105.6C175.932 105.6 175.164 105.408 174.556 105.024C173.964 104.624 173.516 104.16 173.212 103.632C172.924 103.104 172.78 102.632 172.78 102.216H174.268C174.268 102.232 174.276 102.352 174.292 102.576C174.324 102.8 174.412 103.056 174.556 103.344C174.7 103.632 174.948 103.888 175.3 104.112C175.652 104.32 176.164 104.424 176.836 104.424C177.556 104.424 178.172 104.296 178.684 104.04C179.212 103.784 179.468 103.384 179.452 102.84C179.452 102.376 179.292 102.024 178.972 101.784C178.668 101.528 178.268 101.336 177.772 101.208C177.276 101.064 176.756 100.928 176.212 100.8C175.668 100.672 175.148 100.512 174.652 100.32C174.172 100.112 173.78 99.8244 173.476 99.4564C173.172 99.0884 173.02 98.5764 173.02 97.9204C173.02 97.1204 173.38 96.4884 174.1 96.0244C174.82 95.5444 175.74 95.3044 176.86 95.3044C177.484 95.3044 178.116 95.4084 178.756 95.6164C179.396 95.8084 179.924 96.1524 180.34 96.6484C180.756 97.1284 180.948 97.8084 180.916 98.6884H179.476C179.508 98.0804 179.372 97.6244 179.068 97.3204C178.764 97.0164 178.396 96.8164 177.964 96.7204C177.548 96.6084 177.164 96.5524 176.812 96.5524C176.124 96.5524 175.556 96.6804 175.108 96.9364C174.676 97.1924 174.46 97.5524 174.46 98.0164C174.46 98.4644 174.612 98.8084 174.916 99.0484C175.236 99.2724 175.636 99.4564 176.116 99.6004C176.612 99.7284 177.132 99.8564 177.676 99.9844C178.236 100.096 178.764 100.256 179.26 100.464C179.756 100.672 180.156 100.968 180.46 101.352C180.78 101.736 180.94 102.264 180.94 102.936C180.94 103.864 180.548 104.544 179.764 104.976C178.98 105.392 178.012 105.6 176.86 105.6Z" fill="#133063"/>
</svg>
