<svg width="372" height="142" viewBox="0 0 372 142" fill="none" xmlns="http://www.w3.org/2000/svg">
<path d="M78.0465 28.682C78.0465 31.346 77.5185 33.422 76.4625 34.91C75.4305 36.374 73.9665 37.394 72.0705 37.97C70.1745 38.546 67.9425 38.834 65.3745 38.834H59.7945V18.566H65.3745C67.9425 18.566 70.1745 18.95 72.0705 19.718C73.9665 20.462 75.4305 21.578 76.4625 23.066C77.5185 24.554 78.0465 26.426 78.0465 28.682ZM63.4305 35.81H66.4185C68.0025 35.81 69.3705 35.63 70.5225 35.27C71.6745 34.886 72.5625 34.178 73.1865 33.146C73.8105 32.114 74.1225 30.614 74.1225 28.646C74.1225 26.318 73.4265 24.59 72.0345 23.462C70.6665 22.31 68.7945 21.734 66.4185 21.734H63.4305V35.81ZM87.6745 39.194C85.9945 39.194 84.6025 38.87 83.4985 38.222C82.3945 37.574 81.5665 36.686 81.0145 35.558C80.4625 34.406 80.1865 33.098 80.1865 31.634C80.1625 29.426 80.7745 27.614 82.0225 26.198C83.2945 24.758 85.1785 24.038 87.6745 24.038C90.0985 24.038 91.9345 24.734 93.1825 26.126C94.4545 27.518 95.0905 29.354 95.0905 31.634C95.0905 33.05 94.8265 34.334 94.2985 35.486C93.7705 36.638 92.9545 37.55 91.8505 38.222C90.7465 38.87 89.3545 39.194 87.6745 39.194ZM87.6745 36.098C88.7305 36.098 89.5345 35.87 90.0865 35.414C90.6625 34.958 91.0465 34.382 91.2385 33.686C91.4305 32.966 91.5265 32.246 91.5265 31.526C91.5265 30.782 91.4305 30.05 91.2385 29.33C91.0465 28.61 90.6625 28.022 90.0865 27.566C89.5345 27.11 88.7305 26.882 87.6745 26.882C86.5945 26.882 85.7665 27.122 85.1905 27.602C84.6385 28.058 84.2545 28.646 84.0385 29.366C83.8465 30.062 83.7505 30.782 83.7505 31.526C83.7505 32.246 83.8465 32.966 84.0385 33.686C84.2545 34.382 84.6385 34.958 85.1905 35.414C85.7665 35.87 86.5945 36.098 87.6745 36.098ZM97.671 38.834V24.038H100.875L100.911 27.242H100.983C101.007 27.146 101.103 26.942 101.271 26.63C101.439 26.294 101.691 25.934 102.027 25.55C102.363 25.142 102.807 24.794 103.359 24.506C103.911 24.194 104.595 24.038 105.411 24.038C106.611 24.038 107.511 24.362 108.111 25.01C108.711 25.634 109.143 26.378 109.407 27.242H109.479C109.503 27.146 109.599 26.942 109.767 26.63C109.959 26.294 110.235 25.934 110.595 25.55C110.979 25.142 111.459 24.794 112.035 24.506C112.611 24.194 113.319 24.038 114.159 24.038C115.095 24.038 115.851 24.242 116.427 24.65C117.003 25.034 117.447 25.538 117.759 26.162C118.095 26.762 118.323 27.41 118.443 28.106C118.587 28.802 118.659 29.474 118.659 30.122C118.683 30.746 118.695 31.262 118.695 31.67V38.834H115.599V31.634C115.599 31.274 115.587 30.854 115.563 30.374C115.539 29.87 115.443 29.39 115.275 28.934C115.107 28.454 114.831 28.058 114.447 27.746C114.063 27.434 113.535 27.278 112.863 27.278C112.023 27.278 111.387 27.506 110.955 27.962C110.523 28.394 110.223 28.958 110.055 29.654C109.887 30.326 109.803 31.034 109.803 31.778V38.834H106.707V31.634C106.707 31.274 106.695 30.854 106.671 30.374C106.647 29.87 106.551 29.39 106.383 28.934C106.215 28.454 105.939 28.058 105.555 27.746C105.171 27.434 104.643 27.278 103.971 27.278C103.131 27.278 102.495 27.506 102.063 27.962C101.631 28.394 101.331 28.958 101.163 29.654C100.995 30.326 100.911 31.034 100.911 31.778V38.834H97.671ZM128.349 39.194C126.645 39.194 125.253 38.834 124.173 38.114C123.117 37.37 122.325 36.434 121.797 35.306C121.293 34.154 121.029 32.942 121.005 31.67C120.981 30.182 121.257 28.862 121.833 27.71C122.433 26.534 123.273 25.622 124.353 24.974C125.457 24.302 126.753 23.966 128.241 23.966C129.561 23.966 130.737 24.254 131.769 24.83C132.825 25.406 133.665 26.222 134.289 27.278C134.913 28.31 135.237 29.534 135.261 30.95C135.261 30.998 135.261 31.13 135.261 31.346C135.261 31.562 135.261 31.742 135.261 31.886H124.497C124.497 33.254 124.833 34.31 125.505 35.054C126.177 35.774 127.101 36.134 128.277 36.134C129.189 36.134 129.945 35.906 130.545 35.45C131.169 34.994 131.541 34.394 131.661 33.65H135.225C135.057 35.21 134.385 36.53 133.209 37.61C132.033 38.666 130.413 39.194 128.349 39.194ZM124.605 30.23H131.589C131.565 30.062 131.505 29.798 131.409 29.438C131.337 29.078 131.181 28.706 130.941 28.322C130.725 27.938 130.389 27.614 129.933 27.35C129.477 27.086 128.889 26.954 128.169 26.954C127.209 26.954 126.477 27.158 125.973 27.566C125.493 27.95 125.145 28.406 124.929 28.934C124.737 29.438 124.629 29.87 124.605 30.23ZM144.294 39.194C143.67 39.194 142.974 39.086 142.206 38.87C141.462 38.654 140.742 38.33 140.046 37.898C139.374 37.466 138.81 36.914 138.354 36.242C137.922 35.546 137.706 34.73 137.706 33.794H141.09C141.09 33.842 141.102 34.01 141.126 34.298C141.15 34.562 141.246 34.874 141.414 35.234C141.606 35.57 141.918 35.87 142.35 36.134C142.782 36.398 143.406 36.53 144.222 36.53C145.182 36.53 145.902 36.362 146.382 36.026C146.862 35.666 147.102 35.258 147.102 34.802C147.102 34.274 146.874 33.866 146.418 33.578C145.986 33.266 145.422 33.014 144.726 32.822C144.03 32.63 143.286 32.438 142.494 32.246C141.726 32.03 140.994 31.754 140.298 31.418C139.626 31.082 139.074 30.626 138.642 30.05C138.21 29.45 137.994 28.682 137.994 27.746C137.994 26.378 138.546 25.346 139.65 24.65C140.754 23.93 142.158 23.57 143.862 23.57C145.062 23.57 146.178 23.762 147.21 24.146C148.242 24.506 149.07 25.094 149.694 25.91C150.318 26.702 150.63 27.746 150.63 29.042H147.246C147.27 28.298 147.102 27.746 146.742 27.386C146.406 27.002 145.974 26.738 145.446 26.594C144.942 26.45 144.45 26.378 143.97 26.378C143.106 26.378 142.446 26.534 141.99 26.846C141.558 27.134 141.342 27.518 141.342 27.998C141.342 28.55 141.558 28.982 141.99 29.294C142.446 29.582 143.022 29.822 143.718 30.014C144.438 30.206 145.182 30.41 145.95 30.626C146.742 30.818 147.486 31.082 148.182 31.418C148.902 31.754 149.478 32.21 149.91 32.786C150.366 33.338 150.594 34.082 150.594 35.018C150.594 36.434 150.006 37.49 148.83 38.186C147.678 38.858 146.166 39.194 144.294 39.194ZM157.867 38.834C156.691 38.834 155.803 38.546 155.203 37.97C154.627 37.394 154.339 36.458 154.339 35.162V26.63H152.107V24.038C152.803 24.038 153.343 23.966 153.727 23.822C154.111 23.678 154.387 23.342 154.555 22.814C154.723 22.286 154.807 21.434 154.807 20.258H157.759V24.038H161.143V26.63H157.759V35.954H161.215V38.834H157.867ZM166.424 22.418C165.632 22.442 165.104 22.262 164.84 21.878C164.6 21.47 164.48 20.99 164.48 20.438C164.48 19.91 164.612 19.454 164.876 19.07C165.14 18.686 165.656 18.494 166.424 18.494C167.168 18.494 167.66 18.686 167.9 19.07C168.164 19.454 168.296 19.91 168.296 20.438C168.296 20.99 168.164 21.458 167.9 21.842C167.66 22.202 167.168 22.394 166.424 22.418ZM164.552 38.834V24.038H168.224V38.834H164.552ZM178.557 39.194C177.165 39.194 175.905 38.918 174.777 38.366C173.649 37.79 172.749 36.95 172.077 35.846C171.405 34.718 171.069 33.35 171.069 31.742C171.117 30.134 171.465 28.754 172.113 27.602C172.785 26.45 173.673 25.562 174.777 24.938C175.905 24.314 177.189 24.002 178.629 24.002C180.093 24.002 181.341 24.29 182.373 24.866C183.429 25.418 184.245 26.15 184.821 27.062C185.397 27.95 185.721 28.874 185.793 29.834H182.409C182.049 28.058 180.825 27.17 178.737 27.17C177.441 27.17 176.433 27.566 175.713 28.358C175.017 29.15 174.669 30.182 174.669 31.454C174.669 32.846 175.005 33.962 175.677 34.802C176.373 35.618 177.393 36.026 178.737 36.026C179.649 36.026 180.441 35.786 181.113 35.306C181.809 34.826 182.241 34.118 182.409 33.182H185.793C185.721 34.214 185.385 35.186 184.785 36.098C184.209 37.01 183.393 37.754 182.337 38.33C181.305 38.906 180.045 39.194 178.557 39.194ZM205.648 39.194C203.752 39.194 202.036 38.81 200.5 38.042C198.964 37.25 197.74 36.086 196.828 34.55C195.94 33.014 195.496 31.094 195.496 28.79C195.52 26.534 195.976 24.614 196.864 23.03C197.752 21.446 198.964 20.246 200.5 19.43C202.036 18.614 203.788 18.206 205.756 18.206C207.628 18.206 209.224 18.542 210.544 19.214C211.864 19.886 212.92 20.798 213.712 21.95C214.528 23.102 215.056 24.398 215.296 25.838H211.516C211.348 24.782 210.952 23.954 210.328 23.354C209.728 22.73 209.02 22.298 208.204 22.058C207.388 21.794 206.572 21.662 205.756 21.662C203.62 21.662 201.976 22.262 200.824 23.462C199.696 24.662 199.132 26.354 199.132 28.538C199.132 30.866 199.684 32.654 200.788 33.902C201.916 35.15 203.548 35.774 205.684 35.774C206.572 35.774 207.436 35.642 208.276 35.378C209.116 35.09 209.836 34.634 210.436 34.01C211.036 33.362 211.42 32.498 211.588 31.418H215.404C215.14 32.906 214.6 34.238 213.784 35.414C212.992 36.566 211.912 37.49 210.544 38.186C209.2 38.858 207.568 39.194 205.648 39.194ZM218.196 38.834V18.566H221.796V38.834H218.196ZM231.778 39.194C230.074 39.194 228.682 38.834 227.602 38.114C226.546 37.37 225.754 36.434 225.226 35.306C224.722 34.154 224.458 32.942 224.434 31.67C224.41 30.182 224.686 28.862 225.262 27.71C225.862 26.534 226.702 25.622 227.782 24.974C228.886 24.302 230.182 23.966 231.67 23.966C232.99 23.966 234.166 24.254 235.198 24.83C236.254 25.406 237.094 26.222 237.718 27.278C238.342 28.31 238.666 29.534 238.69 30.95C238.69 30.998 238.69 31.13 238.69 31.346C238.69 31.562 238.69 31.742 238.69 31.886H227.926C227.926 33.254 228.262 34.31 228.934 35.054C229.606 35.774 230.53 36.134 231.706 36.134C232.618 36.134 233.374 35.906 233.974 35.45C234.598 34.994 234.97 34.394 235.09 33.65H238.654C238.486 35.21 237.814 36.53 236.638 37.61C235.462 38.666 233.842 39.194 231.778 39.194ZM228.034 30.23H235.018C234.994 30.062 234.934 29.798 234.838 29.438C234.766 29.078 234.61 28.706 234.37 28.322C234.154 27.938 233.818 27.614 233.362 27.35C232.906 27.086 232.318 26.954 231.598 26.954C230.638 26.954 229.906 27.158 229.402 27.566C228.922 27.95 228.574 28.406 228.358 28.934C228.166 29.438 228.058 29.87 228.034 30.23ZM246.571 39.194C244.531 39.194 243.079 38.498 242.215 37.106C241.351 35.714 240.919 33.89 240.919 31.634C240.919 29.354 241.351 27.518 242.215 26.126C243.103 24.71 244.555 24.002 246.571 24.002C247.723 24.002 248.635 24.206 249.307 24.614C249.979 24.998 250.483 25.43 250.819 25.91C251.155 26.39 251.359 26.75 251.431 26.99H251.503V24.038H255.283V38.834H252.115L251.503 36.422H251.431C251.359 36.638 251.143 36.974 250.783 37.43C250.447 37.862 249.931 38.27 249.235 38.654C248.563 39.014 247.675 39.194 246.571 39.194ZM248.083 36.098C249.427 36.098 250.327 35.678 250.783 34.838C251.263 33.974 251.503 32.918 251.503 31.67C251.503 30.35 251.263 29.282 250.783 28.466C250.303 27.65 249.403 27.242 248.083 27.242C247.147 27.242 246.415 27.446 245.887 27.854C245.383 28.262 245.023 28.802 244.807 29.474C244.615 30.122 244.519 30.854 244.519 31.67C244.519 32.486 244.615 33.23 244.807 33.902C245.023 34.574 245.383 35.114 245.887 35.522C246.415 35.906 247.147 36.098 248.083 36.098ZM257.808 38.834V24.11H260.94L261.552 27.242H261.624C261.648 27.17 261.732 26.978 261.876 26.666C262.044 26.33 262.308 25.958 262.668 25.55C263.052 25.142 263.556 24.794 264.18 24.506C264.828 24.194 265.632 24.038 266.592 24.038C267.912 24.038 268.932 24.302 269.652 24.83C270.372 25.358 270.888 26.03 271.2 26.846C271.512 27.638 271.704 28.466 271.776 29.33C271.848 30.194 271.884 30.974 271.884 31.67V38.834H268.284V31.634C268.284 30.842 268.212 30.122 268.068 29.474C267.924 28.802 267.612 28.274 267.132 27.89C266.676 27.482 265.992 27.278 265.08 27.278C264.12 27.278 263.388 27.494 262.884 27.926C262.38 28.358 262.032 28.922 261.84 29.618C261.648 30.29 261.552 31.01 261.552 31.778V38.834H257.808ZM277.025 22.418C276.233 22.442 275.705 22.262 275.441 21.878C275.201 21.47 275.081 20.99 275.081 20.438C275.081 19.91 275.213 19.454 275.477 19.07C275.741 18.686 276.257 18.494 277.025 18.494C277.769 18.494 278.261 18.686 278.501 19.07C278.765 19.454 278.897 19.91 278.897 20.438C278.897 20.99 278.765 21.458 278.501 21.842C278.261 22.202 277.769 22.394 277.025 22.418ZM275.153 38.834V24.038H278.825V38.834H275.153ZM282.03 38.834V24.11H285.162L285.774 27.242H285.846C285.87 27.17 285.954 26.978 286.098 26.666C286.266 26.33 286.53 25.958 286.89 25.55C287.274 25.142 287.778 24.794 288.402 24.506C289.05 24.194 289.854 24.038 290.814 24.038C292.134 24.038 293.154 24.302 293.874 24.83C294.594 25.358 295.11 26.03 295.422 26.846C295.734 27.638 295.926 28.466 295.998 29.33C296.07 30.194 296.106 30.974 296.106 31.67V38.834H292.506V31.634C292.506 30.842 292.434 30.122 292.29 29.474C292.146 28.802 291.834 28.274 291.354 27.89C290.898 27.482 290.214 27.278 289.302 27.278C288.342 27.278 287.61 27.494 287.106 27.926C286.602 28.358 286.254 28.922 286.062 29.618C285.87 30.29 285.774 31.01 285.774 31.778V38.834H282.03ZM302.94 45.422V41.966H309.42V36.206H309.348C309.324 36.254 309.216 36.434 309.024 36.746C308.856 37.058 308.58 37.406 308.196 37.79C307.812 38.174 307.308 38.51 306.684 38.798C306.084 39.062 305.328 39.194 304.416 39.194C302.232 39.194 300.66 38.498 299.7 37.106C298.74 35.714 298.26 33.902 298.26 31.67C298.26 29.342 298.74 27.494 299.7 26.126C300.684 24.734 302.256 24.038 304.416 24.038C305.376 24.038 306.168 24.194 306.792 24.506C307.416 24.794 307.908 25.142 308.268 25.55C308.628 25.958 308.88 26.33 309.024 26.666C309.192 27.002 309.288 27.206 309.312 27.278H309.384L309.42 24.038H313.2V40.094C313.2 42.062 312.804 43.442 312.012 44.234C311.244 45.026 310.044 45.422 308.412 45.422H302.94ZM305.568 36.098C306.912 36.098 307.884 35.69 308.484 34.874C309.084 34.034 309.384 32.966 309.384 31.67C309.384 30.422 309.096 29.39 308.52 28.574C307.944 27.734 306.984 27.314 305.64 27.314C304.656 27.314 303.888 27.53 303.336 27.962C302.784 28.37 302.388 28.91 302.148 29.582C301.932 30.23 301.824 30.926 301.824 31.67C301.824 32.414 301.92 33.134 302.112 33.83C302.328 34.502 302.7 35.054 303.228 35.486C303.78 35.894 304.56 36.098 305.568 36.098Z" fill="#133063"/>
<path d="M22.2583 83.322H23.9383L19.9543 96.834H17.4343L14.1703 85.362L10.8103 96.834H8.29033L4.45033 83.322H6.08233L9.56233 96.114L13.3543 83.322H15.0103L18.6823 96.114L22.2583 83.322ZM29.2984 97.074C28.2264 97.074 27.3384 96.834 26.6344 96.354C25.9464 95.858 25.4344 95.226 25.0984 94.458C24.7784 93.674 24.6184 92.866 24.6184 92.034C24.6184 91.122 24.7944 90.29 25.1464 89.538C25.5144 88.77 26.0424 88.162 26.7304 87.714C27.4344 87.266 28.2744 87.042 29.2504 87.042C30.4984 87.042 31.5384 87.45 32.3704 88.266C33.2024 89.066 33.6504 90.146 33.7144 91.506C33.7304 91.57 33.7384 91.666 33.7384 91.794C33.7384 91.906 33.7384 92.01 33.7384 92.106H26.1064C26.1064 93.242 26.3784 94.138 26.9224 94.794C27.4824 95.434 28.2664 95.754 29.2744 95.754C30.0264 95.754 30.6664 95.562 31.1944 95.178C31.7384 94.794 32.0744 94.274 32.2024 93.618H33.7144C33.5544 94.61 33.0824 95.434 32.2984 96.09C31.5144 96.746 30.5144 97.074 29.2984 97.074ZM26.1544 91.266H32.1544C32.1544 90.93 32.0584 90.53 31.8664 90.066C31.6904 89.602 31.3864 89.202 30.9544 88.866C30.5384 88.514 29.9624 88.338 29.2264 88.338C28.5544 88.338 28.0024 88.482 27.5704 88.77C27.1384 89.058 26.8104 89.426 26.5864 89.874C26.3624 90.322 26.2184 90.786 26.1544 91.266ZM45.2698 97.074C44.3418 97.074 43.5738 96.882 42.9658 96.498C42.3738 96.098 41.9258 95.634 41.6218 95.106C41.3338 94.578 41.1898 94.106 41.1898 93.69H42.6778C42.6778 93.706 42.6858 93.826 42.7018 94.05C42.7338 94.274 42.8218 94.53 42.9658 94.818C43.1098 95.106 43.3578 95.362 43.7098 95.586C44.0618 95.794 44.5738 95.898 45.2458 95.898C45.9658 95.898 46.5818 95.77 47.0938 95.514C47.6218 95.258 47.8778 94.858 47.8618 94.314C47.8618 93.85 47.7018 93.498 47.3818 93.258C47.0778 93.002 46.6778 92.81 46.1818 92.682C45.6858 92.538 45.1658 92.402 44.6218 92.274C44.0778 92.146 43.5578 91.986 43.0618 91.794C42.5818 91.586 42.1898 91.298 41.8858 90.93C41.5818 90.562 41.4298 90.05 41.4298 89.394C41.4298 88.594 41.7898 87.962 42.5098 87.498C43.2298 87.018 44.1498 86.778 45.2698 86.778C45.8938 86.778 46.5258 86.882 47.1658 87.09C47.8058 87.282 48.3338 87.626 48.7498 88.122C49.1658 88.602 49.3578 89.282 49.3258 90.162H47.8858C47.9178 89.554 47.7818 89.098 47.4778 88.794C47.1738 88.49 46.8058 88.29 46.3738 88.194C45.9578 88.082 45.5738 88.026 45.2218 88.026C44.5338 88.026 43.9658 88.154 43.5178 88.41C43.0858 88.666 42.8698 89.026 42.8698 89.49C42.8698 89.938 43.0218 90.282 43.3258 90.522C43.6458 90.746 44.0458 90.93 44.5258 91.074C45.0218 91.202 45.5418 91.33 46.0858 91.458C46.6458 91.57 47.1738 91.73 47.6698 91.938C48.1658 92.146 48.5658 92.442 48.8698 92.826C49.1898 93.21 49.3498 93.738 49.3498 94.41C49.3498 95.338 48.9578 96.018 48.1738 96.45C47.3898 96.866 46.4218 97.074 45.2698 97.074ZM53.4861 96.834C52.8941 96.834 52.4781 96.674 52.2381 96.354C52.0141 96.034 51.9021 95.594 51.9021 95.034V88.218H50.3661V87.066C50.8781 87.066 51.2541 87.026 51.4941 86.946C51.7501 86.85 51.9101 86.626 51.9741 86.274C52.0381 85.922 52.0701 85.346 52.0701 84.546H53.3901V87.066H55.6461V88.218H53.3901V95.586H55.6701V96.834H53.4861ZM57.9109 96.834V87.066H59.3029L59.4709 89.634C59.5669 89.202 59.7589 88.786 60.0469 88.386C60.3349 87.986 60.7269 87.666 61.2229 87.426C61.7349 87.17 62.3669 87.05 63.1189 87.066H63.5749V88.77H63.0949C62.0709 88.77 61.2949 88.922 60.7669 89.226C60.2549 89.514 59.9029 89.922 59.7109 90.45C59.5349 90.978 59.4469 91.586 59.4469 92.274V96.834H57.9109ZM66.1371 86.01C65.7851 86.01 65.5451 85.922 65.4171 85.746C65.3051 85.554 65.2491 85.314 65.2491 85.026C65.2491 84.786 65.3051 84.578 65.4171 84.402C65.5451 84.21 65.7851 84.114 66.1371 84.114C66.4891 84.114 66.7211 84.21 66.8331 84.402C66.9611 84.578 67.0251 84.786 67.0251 85.026C67.0251 85.314 66.9611 85.554 66.8331 85.746C66.7211 85.922 66.4891 86.01 66.1371 86.01ZM65.3691 96.834V87.066H66.9051V96.834H65.3691ZM76.3033 87.066H77.8393V87.402L74.1433 96.834H71.9593L68.2393 87.402V87.066H69.7753L73.0393 95.562H73.0873L76.3033 87.066ZM83.4859 97.074C82.4139 97.074 81.5259 96.834 80.8219 96.354C80.1339 95.858 79.6219 95.226 79.2859 94.458C78.9659 93.674 78.8059 92.866 78.8059 92.034C78.8059 91.122 78.9819 90.29 79.3339 89.538C79.7019 88.77 80.2299 88.162 80.9179 87.714C81.6219 87.266 82.4619 87.042 83.4379 87.042C84.6859 87.042 85.7259 87.45 86.5579 88.266C87.3899 89.066 87.8379 90.146 87.9019 91.506C87.9179 91.57 87.9259 91.666 87.9259 91.794C87.9259 91.906 87.9259 92.01 87.9259 92.106H80.2939C80.2939 93.242 80.5659 94.138 81.1099 94.794C81.6699 95.434 82.4539 95.754 83.4619 95.754C84.2139 95.754 84.8539 95.562 85.3819 95.178C85.9259 94.794 86.2619 94.274 86.3899 93.618H87.9019C87.7419 94.61 87.2699 95.434 86.4859 96.09C85.7019 96.746 84.7019 97.074 83.4859 97.074ZM80.3419 91.266H86.3419C86.3419 90.93 86.2459 90.53 86.0539 90.066C85.8779 89.602 85.5739 89.202 85.1419 88.866C84.7259 88.514 84.1499 88.338 83.4139 88.338C82.7419 88.338 82.1899 88.482 81.7579 88.77C81.3259 89.058 80.9979 89.426 80.7739 89.874C80.5499 90.322 80.4059 90.786 80.3419 91.266ZM98.0173 96.834C97.4253 96.834 97.0093 96.674 96.7693 96.354C96.5453 96.034 96.4333 95.594 96.4333 95.034V88.218H94.8973V87.066C95.4093 87.066 95.7853 87.026 96.0253 86.946C96.2813 86.85 96.4413 86.626 96.5053 86.274C96.5693 85.922 96.6013 85.346 96.6013 84.546H97.9213V87.066H100.177V88.218H97.9213V95.586H100.201V96.834H98.0173ZM106.313 97.074C104.745 97.074 103.569 96.61 102.785 95.682C102.017 94.738 101.633 93.538 101.633 92.082C101.617 90.61 102.001 89.41 102.785 88.482C103.585 87.538 104.761 87.058 106.313 87.042C107.849 87.042 109.009 87.506 109.793 88.434C110.593 89.346 110.993 90.562 110.993 92.082C110.993 93.026 110.825 93.874 110.489 94.626C110.153 95.378 109.641 95.978 108.953 96.426C108.265 96.858 107.385 97.074 106.313 97.074ZM106.313 95.73C107.145 95.73 107.785 95.546 108.233 95.178C108.697 94.81 109.017 94.346 109.193 93.786C109.385 93.21 109.481 92.626 109.481 92.034C109.481 91.442 109.385 90.858 109.193 90.282C109.017 89.706 108.697 89.234 108.233 88.866C107.785 88.498 107.145 88.314 106.313 88.314C105.481 88.314 104.833 88.498 104.369 88.866C103.921 89.234 103.601 89.706 103.409 90.282C103.233 90.858 103.145 91.442 103.145 92.034C103.145 92.626 103.233 93.21 103.409 93.786C103.601 94.346 103.921 94.81 104.369 95.178C104.833 95.546 105.481 95.73 106.313 95.73ZM124.01 97.074C123.386 97.074 122.85 96.97 122.402 96.762C121.97 96.538 121.618 96.282 121.346 95.994C121.074 95.706 120.866 95.434 120.722 95.178C120.594 94.922 120.514 94.754 120.482 94.674H120.434V100.866H118.85V87.066H120.17L120.434 89.514H120.482C120.514 89.434 120.594 89.266 120.722 89.01C120.85 88.754 121.042 88.474 121.298 88.17C121.57 87.866 121.922 87.61 122.354 87.402C122.802 87.178 123.354 87.066 124.01 87.066C124.954 87.066 125.738 87.282 126.362 87.714C127.002 88.146 127.482 88.746 127.802 89.514C128.138 90.266 128.306 91.13 128.306 92.106C128.306 93.562 127.938 94.754 127.202 95.682C126.466 96.61 125.402 97.074 124.01 97.074ZM123.698 95.706C124.45 95.706 125.05 95.53 125.498 95.178C125.962 94.826 126.29 94.378 126.482 93.834C126.69 93.274 126.794 92.69 126.794 92.082C126.794 91.458 126.682 90.874 126.458 90.33C126.234 89.786 125.882 89.346 125.402 89.01C124.938 88.658 124.322 88.482 123.554 88.482C122.626 88.482 121.882 88.81 121.322 89.466C120.762 90.106 120.482 90.978 120.482 92.082C120.482 93.202 120.778 94.09 121.37 94.746C121.962 95.386 122.738 95.706 123.698 95.706ZM130.192 96.834V87.066H131.584L131.752 89.634C131.848 89.202 132.04 88.786 132.328 88.386C132.616 87.986 133.008 87.666 133.504 87.426C134.016 87.17 134.648 87.05 135.4 87.066H135.856V88.77H135.376C134.352 88.77 133.576 88.922 133.048 89.226C132.536 89.514 132.184 89.922 131.992 90.45C131.816 90.978 131.728 91.586 131.728 92.274V96.834H130.192ZM141.446 97.074C139.878 97.074 138.702 96.61 137.918 95.682C137.15 94.738 136.766 93.538 136.766 92.082C136.75 90.61 137.134 89.41 137.918 88.482C138.718 87.538 139.894 87.058 141.446 87.042C142.982 87.042 144.142 87.506 144.926 88.434C145.726 89.346 146.126 90.562 146.126 92.082C146.126 93.026 145.958 93.874 145.622 94.626C145.286 95.378 144.774 95.978 144.086 96.426C143.398 96.858 142.518 97.074 141.446 97.074ZM141.446 95.73C142.278 95.73 142.918 95.546 143.366 95.178C143.83 94.81 144.15 94.346 144.326 93.786C144.518 93.21 144.614 92.626 144.614 92.034C144.614 91.442 144.518 90.858 144.326 90.282C144.15 89.706 143.83 89.234 143.366 88.866C142.918 88.498 142.278 88.314 141.446 88.314C140.614 88.314 139.966 88.498 139.502 88.866C139.054 89.234 138.734 89.706 138.542 90.282C138.366 90.858 138.278 91.442 138.278 92.034C138.278 92.626 138.366 93.21 138.542 93.786C138.734 94.346 139.054 94.81 139.502 95.178C139.966 95.546 140.614 95.73 141.446 95.73ZM154.983 87.066H156.519V87.402L152.823 96.834H150.639L146.919 87.402V87.066H148.455L151.719 95.562H151.767L154.983 87.066ZM159.137 86.01C158.785 86.01 158.545 85.922 158.417 85.746C158.305 85.554 158.249 85.314 158.249 85.026C158.249 84.786 158.305 84.578 158.417 84.402C158.545 84.21 158.785 84.114 159.137 84.114C159.489 84.114 159.721 84.21 159.833 84.402C159.961 84.578 160.025 84.786 160.025 85.026C160.025 85.314 159.961 85.554 159.833 85.746C159.721 85.922 159.489 86.01 159.137 86.01ZM158.369 96.834V87.066H159.905V96.834H158.369ZM166.595 97.074C165.651 97.074 164.859 96.858 164.219 96.426C163.595 95.994 163.123 95.402 162.803 94.65C162.499 93.882 162.347 93.026 162.347 92.082C162.347 90.626 162.707 89.426 163.427 88.482C164.147 87.538 165.211 87.066 166.619 87.066C167.275 87.066 167.819 87.178 168.251 87.402C168.699 87.61 169.059 87.866 169.331 88.17C169.603 88.474 169.803 88.754 169.931 89.01C170.059 89.266 170.139 89.434 170.171 89.514H170.219L170.243 83.322H171.827V96.834H170.483L170.243 94.674H170.195C170.163 94.754 170.075 94.922 169.931 95.178C169.787 95.434 169.571 95.706 169.283 95.994C169.011 96.282 168.651 96.538 168.203 96.762C167.771 96.97 167.235 97.074 166.595 97.074ZM166.979 95.706C167.923 95.706 168.691 95.386 169.283 94.746C169.891 94.09 170.195 93.202 170.195 92.082C170.195 90.978 169.915 90.106 169.355 89.466C168.795 88.81 168.043 88.482 167.099 88.482C166.347 88.482 165.731 88.658 165.251 89.01C164.771 89.346 164.419 89.786 164.195 90.33C163.971 90.874 163.859 91.458 163.859 92.082C163.859 92.69 163.963 93.274 164.171 93.834C164.379 94.378 164.707 94.826 165.155 95.178C165.603 95.53 166.211 95.706 166.979 95.706ZM178.291 97.074C177.219 97.074 176.331 96.834 175.627 96.354C174.939 95.858 174.427 95.226 174.091 94.458C173.771 93.674 173.611 92.866 173.611 92.034C173.611 91.122 173.787 90.29 174.139 89.538C174.507 88.77 175.035 88.162 175.723 87.714C176.427 87.266 177.267 87.042 178.243 87.042C179.491 87.042 180.531 87.45 181.363 88.266C182.195 89.066 182.643 90.146 182.707 91.506C182.723 91.57 182.731 91.666 182.731 91.794C182.731 91.906 182.731 92.01 182.731 92.106H175.099C175.099 93.242 175.371 94.138 175.915 94.794C176.475 95.434 177.259 95.754 178.267 95.754C179.019 95.754 179.659 95.562 180.187 95.178C180.731 94.794 181.067 94.274 181.195 93.618H182.707C182.547 94.61 182.075 95.434 181.291 96.09C180.507 96.746 179.507 97.074 178.291 97.074ZM175.147 91.266H181.147C181.147 90.93 181.051 90.53 180.859 90.066C180.683 89.602 180.379 89.202 179.947 88.866C179.531 88.514 178.955 88.338 178.219 88.338C177.547 88.338 176.995 88.482 176.563 88.77C176.131 89.058 175.803 89.426 175.579 89.874C175.355 90.322 175.211 90.786 175.147 91.266ZM193.806 97.05C192.91 97.05 192.174 96.834 191.598 96.402C191.022 95.954 190.59 95.354 190.302 94.602C190.03 93.85 189.894 92.994 189.894 92.034C189.894 90.562 190.214 89.354 190.854 88.41C191.51 87.45 192.494 86.97 193.806 86.97C194.478 86.97 195.038 87.09 195.486 87.33C195.95 87.554 196.318 87.834 196.59 88.17C196.878 88.506 197.086 88.826 197.214 89.13H197.238V87.066H198.822V96.834H197.502L197.262 94.938H197.214C197.07 95.258 196.862 95.586 196.59 95.922C196.318 96.242 195.95 96.514 195.486 96.738C195.038 96.946 194.478 97.05 193.806 97.05ZM194.406 95.682C195.398 95.682 196.11 95.354 196.542 94.698C196.99 94.042 197.214 93.162 197.214 92.058C197.214 90.874 196.982 89.97 196.518 89.346C196.07 88.722 195.366 88.41 194.406 88.41C193.35 88.41 192.59 88.762 192.126 89.466C191.678 90.154 191.454 91.01 191.454 92.034C191.454 93.106 191.686 93.986 192.15 94.674C192.614 95.346 193.366 95.682 194.406 95.682ZM201.528 96.906V88.218H200.016V87.066H201.528V84.906C201.528 84.346 201.64 83.906 201.864 83.586C202.104 83.266 202.52 83.106 203.112 83.106H206.016V84.378H203.088V87.066H205.848V88.218H203.088V96.906H201.528ZM208.419 96.906V88.218H206.907V87.066H208.419V84.906C208.419 84.346 208.531 83.906 208.755 83.586C208.995 83.266 209.411 83.106 210.003 83.106H212.907V84.378H209.979V87.066H212.739V88.218H209.979V96.906H208.419ZM218.345 97.074C216.777 97.074 215.601 96.61 214.817 95.682C214.049 94.738 213.665 93.538 213.665 92.082C213.649 90.61 214.033 89.41 214.817 88.482C215.617 87.538 216.793 87.058 218.345 87.042C219.881 87.042 221.041 87.506 221.825 88.434C222.625 89.346 223.025 90.562 223.025 92.082C223.025 93.026 222.857 93.874 222.521 94.626C222.185 95.378 221.673 95.978 220.985 96.426C220.297 96.858 219.417 97.074 218.345 97.074ZM218.345 95.73C219.177 95.73 219.817 95.546 220.265 95.178C220.729 94.81 221.049 94.346 221.225 93.786C221.417 93.21 221.513 92.626 221.513 92.034C221.513 91.442 221.417 90.858 221.225 90.282C221.049 89.706 220.729 89.234 220.265 88.866C219.817 88.498 219.177 88.314 218.345 88.314C217.513 88.314 216.865 88.498 216.401 88.866C215.953 89.234 215.633 89.706 215.441 90.282C215.265 90.858 215.177 91.442 215.177 92.034C215.177 92.626 215.265 93.21 215.441 93.786C215.633 94.346 215.953 94.81 216.401 95.178C216.865 95.546 217.513 95.73 218.345 95.73ZM225.137 96.834V87.066H226.529L226.697 89.634C226.793 89.202 226.985 88.786 227.273 88.386C227.561 87.986 227.953 87.666 228.449 87.426C228.961 87.17 229.593 87.05 230.345 87.066H230.801V88.77H230.321C229.297 88.77 228.521 88.922 227.993 89.226C227.481 89.514 227.129 89.922 226.937 90.45C226.761 90.978 226.673 91.586 226.673 92.274V96.834H225.137ZM236.416 97.074C235.472 97.074 234.68 96.858 234.04 96.426C233.416 95.994 232.944 95.402 232.624 94.65C232.32 93.882 232.168 93.026 232.168 92.082C232.168 90.626 232.528 89.426 233.248 88.482C233.968 87.538 235.032 87.066 236.44 87.066C237.096 87.066 237.64 87.178 238.072 87.402C238.52 87.61 238.88 87.866 239.152 88.17C239.424 88.474 239.624 88.754 239.752 89.01C239.88 89.266 239.96 89.434 239.992 89.514H240.04L240.064 83.322H241.648V96.834H240.304L240.064 94.674H240.016C239.984 94.754 239.896 94.922 239.752 95.178C239.608 95.434 239.392 95.706 239.104 95.994C238.832 96.282 238.472 96.538 238.024 96.762C237.592 96.97 237.056 97.074 236.416 97.074ZM236.8 95.706C237.744 95.706 238.512 95.386 239.104 94.746C239.712 94.09 240.016 93.202 240.016 92.082C240.016 90.978 239.736 90.106 239.176 89.466C238.616 88.81 237.864 88.482 236.92 88.482C236.168 88.482 235.552 88.658 235.072 89.01C234.592 89.346 234.24 89.786 234.016 90.33C233.792 90.874 233.68 91.458 233.68 92.082C233.68 92.69 233.784 93.274 233.992 93.834C234.2 94.378 234.528 94.826 234.976 95.178C235.424 95.53 236.032 95.706 236.8 95.706ZM247.103 97.05C246.207 97.05 245.471 96.834 244.895 96.402C244.319 95.954 243.887 95.354 243.599 94.602C243.327 93.85 243.191 92.994 243.191 92.034C243.191 90.562 243.511 89.354 244.151 88.41C244.807 87.45 245.791 86.97 247.103 86.97C247.775 86.97 248.335 87.09 248.783 87.33C249.247 87.554 249.615 87.834 249.887 88.17C250.175 88.506 250.383 88.826 250.511 89.13H250.535V87.066H252.119V96.834H250.799L250.559 94.938H250.511C250.367 95.258 250.159 95.586 249.887 95.922C249.615 96.242 249.247 96.514 248.783 96.738C248.335 96.946 247.775 97.05 247.103 97.05ZM247.703 95.682C248.695 95.682 249.407 95.354 249.839 94.698C250.287 94.042 250.511 93.162 250.511 92.058C250.511 90.874 250.279 89.97 249.815 89.346C249.367 88.722 248.663 88.41 247.703 88.41C246.647 88.41 245.887 88.762 245.423 89.466C244.975 90.154 244.751 91.01 244.751 92.034C244.751 93.106 244.983 93.986 245.447 94.674C245.911 95.346 246.663 95.682 247.703 95.682ZM259.337 97.074C258.697 97.074 258.153 96.97 257.705 96.762C257.273 96.538 256.913 96.282 256.625 95.994C256.353 95.706 256.145 95.434 256.001 95.178C255.857 94.922 255.769 94.754 255.737 94.674H255.689L255.449 96.834H254.105V83.322H255.689L255.713 89.514H255.761C255.793 89.434 255.873 89.266 256.001 89.01C256.129 88.754 256.329 88.474 256.601 88.17C256.873 87.866 257.225 87.61 257.657 87.402C258.105 87.178 258.657 87.066 259.313 87.066C260.257 87.066 261.041 87.282 261.665 87.714C262.305 88.146 262.785 88.746 263.105 89.514C263.425 90.266 263.585 91.122 263.585 92.082C263.585 93.042 263.425 93.898 263.105 94.65C262.785 95.402 262.305 95.994 261.665 96.426C261.041 96.858 260.265 97.074 259.337 97.074ZM258.953 95.706C259.721 95.706 260.329 95.53 260.777 95.178C261.225 94.826 261.553 94.378 261.761 93.834C261.969 93.274 262.073 92.69 262.073 92.082C262.073 91.458 261.961 90.874 261.737 90.33C261.513 89.786 261.161 89.346 260.681 89.01C260.201 88.658 259.585 88.482 258.833 88.482C257.889 88.482 257.137 88.81 256.577 89.466C256.017 90.106 255.737 90.978 255.737 92.082C255.737 93.202 256.033 94.09 256.625 94.746C257.233 95.386 258.009 95.706 258.953 95.706ZM265.663 96.834V83.322H267.175V96.834H265.663ZM273.775 97.074C272.703 97.074 271.815 96.834 271.111 96.354C270.423 95.858 269.911 95.226 269.575 94.458C269.255 93.674 269.095 92.866 269.095 92.034C269.095 91.122 269.271 90.29 269.623 89.538C269.991 88.77 270.519 88.162 271.207 87.714C271.911 87.266 272.751 87.042 273.727 87.042C274.975 87.042 276.015 87.45 276.847 88.266C277.679 89.066 278.127 90.146 278.191 91.506C278.207 91.57 278.215 91.666 278.215 91.794C278.215 91.906 278.215 92.01 278.215 92.106H270.583C270.583 93.242 270.855 94.138 271.399 94.794C271.959 95.434 272.743 95.754 273.751 95.754C274.503 95.754 275.143 95.562 275.671 95.178C276.215 94.794 276.551 94.274 276.679 93.618H278.191C278.031 94.61 277.559 95.434 276.775 96.09C275.991 96.746 274.991 97.074 273.775 97.074ZM270.631 91.266H276.631C276.631 90.93 276.535 90.53 276.343 90.066C276.167 89.602 275.863 89.202 275.431 88.866C275.015 88.514 274.439 88.338 273.703 88.338C273.031 88.338 272.479 88.482 272.047 88.77C271.615 89.058 271.287 89.426 271.063 89.874C270.839 90.322 270.695 90.786 270.631 91.266ZM289.29 97.05C288.394 97.05 287.658 96.834 287.082 96.402C286.506 95.954 286.074 95.354 285.786 94.602C285.514 93.85 285.378 92.994 285.378 92.034C285.378 90.562 285.698 89.354 286.338 88.41C286.994 87.45 287.978 86.97 289.29 86.97C289.962 86.97 290.522 87.09 290.97 87.33C291.434 87.554 291.802 87.834 292.074 88.17C292.362 88.506 292.57 88.826 292.698 89.13H292.722V87.066H294.306V96.834H292.986L292.746 94.938H292.698C292.554 95.258 292.346 95.586 292.074 95.922C291.802 96.242 291.434 96.514 290.97 96.738C290.522 96.946 289.962 97.05 289.29 97.05ZM289.89 95.682C290.882 95.682 291.594 95.354 292.026 94.698C292.474 94.042 292.698 93.162 292.698 92.058C292.698 90.874 292.466 89.97 292.002 89.346C291.554 88.722 290.85 88.41 289.89 88.41C288.834 88.41 288.074 88.762 287.61 89.466C287.162 90.154 286.938 91.01 286.938 92.034C286.938 93.106 287.17 93.986 287.634 94.674C288.098 95.346 288.85 95.682 289.89 95.682ZM296.101 96.834V87.066H297.421L297.685 89.49H297.733C297.749 89.41 297.821 89.242 297.949 88.986C298.077 88.73 298.269 88.458 298.525 88.17C298.797 87.866 299.149 87.61 299.581 87.402C300.013 87.178 300.565 87.066 301.237 87.066C302.085 87.066 302.749 87.218 303.229 87.522C303.725 87.826 304.093 88.234 304.333 88.746C304.573 89.242 304.725 89.778 304.789 90.354C304.853 90.93 304.885 91.482 304.885 92.01V96.834H303.397V92.01C303.397 90.954 303.213 90.098 302.845 89.442C302.493 88.786 301.789 88.458 300.733 88.458C300.013 88.458 299.421 88.634 298.957 88.986C298.509 89.322 298.181 89.778 297.973 90.354C297.781 90.914 297.685 91.53 297.685 92.202V96.834H296.101ZM311.252 97.074C310.308 97.074 309.516 96.858 308.876 96.426C308.252 95.994 307.78 95.402 307.46 94.65C307.156 93.882 307.004 93.026 307.004 92.082C307.004 90.626 307.364 89.426 308.084 88.482C308.804 87.538 309.868 87.066 311.276 87.066C311.932 87.066 312.476 87.178 312.908 87.402C313.356 87.61 313.716 87.866 313.988 88.17C314.26 88.474 314.46 88.754 314.588 89.01C314.716 89.266 314.796 89.434 314.828 89.514H314.876L314.9 83.322H316.484V96.834H315.14L314.9 94.674H314.852C314.82 94.754 314.732 94.922 314.588 95.178C314.444 95.434 314.228 95.706 313.94 95.994C313.668 96.282 313.308 96.538 312.86 96.762C312.428 96.97 311.892 97.074 311.252 97.074ZM311.636 95.706C312.58 95.706 313.348 95.386 313.94 94.746C314.548 94.09 314.852 93.202 314.852 92.082C314.852 90.978 314.572 90.106 314.012 89.466C313.452 88.81 312.7 88.482 311.756 88.482C311.004 88.482 310.388 88.658 309.908 89.01C309.428 89.346 309.076 89.786 308.852 90.33C308.628 90.874 308.516 91.458 308.516 92.082C308.516 92.69 308.62 93.274 308.828 93.834C309.036 94.378 309.364 94.826 309.812 95.178C310.26 95.53 310.868 95.706 311.636 95.706ZM324.298 96.834V83.322H325.858V89.49H325.906C325.938 89.41 326.01 89.242 326.122 88.986C326.25 88.73 326.442 88.458 326.698 88.17C326.954 87.866 327.298 87.61 327.73 87.402C328.162 87.178 328.706 87.066 329.362 87.066C330.194 87.066 330.858 87.226 331.354 87.546C331.85 87.85 332.218 88.258 332.458 88.77C332.714 89.266 332.882 89.802 332.962 90.378C333.042 90.954 333.082 91.498 333.082 92.01V96.834H331.57V92.01C331.57 90.954 331.386 90.098 331.018 89.442C330.666 88.786 329.97 88.458 328.93 88.458C328.194 88.458 327.602 88.634 327.154 88.986C326.706 89.322 326.378 89.778 326.17 90.354C325.962 90.914 325.858 91.53 325.858 92.202V96.834H324.298ZM336.301 86.01C335.949 86.01 335.709 85.922 335.581 85.746C335.469 85.554 335.413 85.314 335.413 85.026C335.413 84.786 335.469 84.578 335.581 84.402C335.709 84.21 335.949 84.114 336.301 84.114C336.653 84.114 336.885 84.21 336.997 84.402C337.125 84.578 337.189 84.786 337.189 85.026C337.189 85.314 337.125 85.554 336.997 85.746C336.885 85.922 336.653 86.01 336.301 86.01ZM335.533 96.834V87.066H337.069V96.834H335.533ZM341.719 100.866V99.402H346.591V94.674H346.543C346.511 94.754 346.423 94.922 346.279 95.178C346.151 95.434 345.943 95.706 345.655 95.994C345.383 96.282 345.023 96.538 344.575 96.762C344.143 96.97 343.615 97.074 342.991 97.074C342.047 97.074 341.255 96.858 340.615 96.426C339.991 95.978 339.519 95.378 339.199 94.626C338.879 93.874 338.719 93.026 338.719 92.082C338.719 90.61 339.079 89.41 339.799 88.482C340.535 87.538 341.607 87.066 343.015 87.066C343.671 87.066 344.215 87.178 344.647 87.402C345.095 87.61 345.447 87.866 345.703 88.17C345.975 88.474 346.175 88.754 346.303 89.01C346.431 89.266 346.511 89.434 346.543 89.514H346.591V87.066H348.175V98.514C348.175 99.282 348.031 99.866 347.743 100.266C347.455 100.666 346.935 100.866 346.183 100.866H341.719ZM343.327 95.706C344.287 95.706 345.063 95.386 345.655 94.746C346.247 94.09 346.543 93.202 346.543 92.082C346.543 90.978 346.263 90.106 345.703 89.466C345.143 88.81 344.399 88.482 343.471 88.482C342.703 88.482 342.079 88.658 341.599 89.01C341.135 89.346 340.791 89.786 340.567 90.33C340.343 90.874 340.231 91.458 340.231 92.082C340.231 92.69 340.327 93.274 340.519 93.834C340.727 94.378 341.055 94.826 341.503 95.178C341.967 95.53 342.575 95.706 343.327 95.706ZM350.314 96.834V83.322H351.874V89.49H351.922C351.954 89.41 352.026 89.242 352.138 88.986C352.266 88.73 352.458 88.458 352.714 88.17C352.97 87.866 353.314 87.61 353.746 87.402C354.178 87.178 354.722 87.066 355.378 87.066C356.21 87.066 356.874 87.226 357.37 87.546C357.866 87.85 358.234 88.258 358.474 88.77C358.73 89.266 358.898 89.802 358.978 90.378C359.058 90.954 359.098 91.498 359.098 92.01V96.834H357.586V92.01C357.586 90.954 357.402 90.098 357.034 89.442C356.682 88.786 355.986 88.458 354.946 88.458C354.21 88.458 353.618 88.634 353.17 88.986C352.722 89.322 352.394 89.778 352.186 90.354C351.978 90.914 351.874 91.53 351.874 92.202V96.834H350.314ZM361.141 92.034V90.858H366.469V92.034H361.141ZM12.3335 133.074C11.4055 133.074 10.6215 132.858 9.98149 132.426C9.34149 131.994 8.86149 131.402 8.54149 130.65C8.22149 129.898 8.06149 129.05 8.06149 128.106C8.06149 127.13 8.22149 126.266 8.54149 125.514C8.87749 124.746 9.36549 124.146 10.0055 123.714C10.6455 123.282 11.4295 123.066 12.3575 123.066C13.0135 123.066 13.5575 123.178 13.9895 123.402C14.4375 123.61 14.7895 123.866 15.0455 124.17C15.3175 124.474 15.5175 124.754 15.6455 125.01C15.7735 125.266 15.8455 125.434 15.8615 125.514H15.9095L16.1975 123.066H17.5175V136.866H15.9335V130.674H15.8855C15.8535 130.754 15.7655 130.922 15.6215 131.178C15.4935 131.434 15.2855 131.706 14.9975 131.994C14.7255 132.282 14.3735 132.538 13.9415 132.762C13.5095 132.97 12.9735 133.074 12.3335 133.074ZM12.6695 131.706C13.6295 131.706 14.4055 131.386 14.9975 130.746C15.5895 130.09 15.8855 129.202 15.8855 128.082C15.8855 126.978 15.6055 126.106 15.0455 125.466C14.4855 124.81 13.7335 124.482 12.7895 124.482C12.0375 124.482 11.4215 124.658 10.9415 125.01C10.4775 125.346 10.1335 125.786 9.90949 126.33C9.68549 126.874 9.57349 127.458 9.57349 128.082C9.57349 128.69 9.66949 129.274 9.86149 129.834C10.0695 130.378 10.3975 130.826 10.8455 131.178C11.3095 131.53 11.9175 131.706 12.6695 131.706ZM23.2441 133.074C22.4441 133.074 21.7961 132.93 21.3001 132.642C20.8201 132.354 20.4521 131.97 20.1961 131.49C19.9401 130.994 19.7641 130.458 19.6681 129.882C19.5881 129.29 19.5481 128.698 19.5481 128.106V123.066H21.0841V128.13C21.0841 128.77 21.1481 129.362 21.2761 129.906C21.4041 130.45 21.6601 130.882 22.0441 131.202C22.4441 131.522 23.0201 131.682 23.7721 131.682C24.4921 131.682 25.0521 131.522 25.4521 131.202C25.8681 130.866 26.1721 130.434 26.3641 129.906C26.5561 129.378 26.6681 128.826 26.7001 128.25V123.066H28.2841V132.834H26.9641L26.7001 130.65H26.6521C26.5721 130.922 26.4041 131.25 26.1481 131.634C25.8921 132.018 25.5241 132.354 25.0441 132.642C24.5801 132.93 23.9801 133.074 23.2441 133.074ZM33.7396 133.05C32.8436 133.05 32.1076 132.834 31.5316 132.402C30.9556 131.954 30.5236 131.354 30.2356 130.602C29.9636 129.85 29.8276 128.994 29.8276 128.034C29.8276 126.562 30.1476 125.354 30.7876 124.41C31.4436 123.45 32.4276 122.97 33.7396 122.97C34.4116 122.97 34.9716 123.09 35.4196 123.33C35.8836 123.554 36.2516 123.834 36.5236 124.17C36.8116 124.506 37.0196 124.826 37.1476 125.13H37.1716V123.066H38.7556V132.834H37.4356L37.1956 130.938H37.1476C37.0036 131.258 36.7956 131.586 36.5236 131.922C36.2516 132.242 35.8836 132.514 35.4196 132.738C34.9716 132.946 34.4116 133.05 33.7396 133.05ZM34.3396 131.682C35.3316 131.682 36.0436 131.354 36.4756 130.698C36.9236 130.042 37.1476 129.162 37.1476 128.058C37.1476 126.874 36.9156 125.97 36.4516 125.346C36.0036 124.722 35.2996 124.41 34.3396 124.41C33.2836 124.41 32.5236 124.762 32.0596 125.466C31.6116 126.154 31.3876 127.01 31.3876 128.034C31.3876 129.106 31.6196 129.986 32.0836 130.674C32.5476 131.346 33.2996 131.682 34.3396 131.682ZM40.8858 132.834V119.322H42.3978V132.834H40.8858ZM45.7816 122.01C45.4296 122.01 45.1896 121.922 45.0616 121.746C44.9496 121.554 44.8936 121.314 44.8936 121.026C44.8936 120.786 44.9496 120.578 45.0616 120.402C45.1896 120.21 45.4296 120.114 45.7816 120.114C46.1336 120.114 46.3656 120.21 46.4776 120.402C46.6056 120.578 46.6696 120.786 46.6696 121.026C46.6696 121.314 46.6056 121.554 46.4776 121.746C46.3656 121.922 46.1336 122.01 45.7816 122.01ZM45.0136 132.834V123.066H46.5496V132.834H45.0136ZM51.4822 132.834C50.8902 132.834 50.4742 132.674 50.2342 132.354C50.0102 132.034 49.8982 131.594 49.8982 131.034V124.218H48.3622V123.066C48.8742 123.066 49.2502 123.026 49.4902 122.946C49.7462 122.85 49.9062 122.626 49.9702 122.274C50.0342 121.922 50.0662 121.346 50.0662 120.546H51.3862V123.066H53.6422V124.218H51.3862V131.586H53.6662V132.834H51.4822ZM54.683 137.202V135.954H56.027C56.347 135.954 56.611 135.866 56.819 135.69C57.027 135.53 57.283 135.13 57.587 134.49L58.619 132.258L54.779 123.066H56.387L59.387 130.626L62.579 123.066H64.211L58.979 134.706C58.659 135.426 58.371 135.962 58.115 136.314C57.875 136.682 57.603 136.922 57.299 137.034C56.995 137.146 56.611 137.202 56.147 137.202H54.683ZM75.6237 133.074C74.7117 133.074 73.8957 132.882 73.1757 132.498C72.4557 132.114 71.8877 131.554 71.4717 130.818C71.0557 130.082 70.8477 129.194 70.8477 128.154C70.8797 127.13 71.0957 126.234 71.4957 125.466C71.9117 124.698 72.4797 124.106 73.1997 123.69C73.9197 123.258 74.7437 123.042 75.6717 123.042C76.5357 123.042 77.2877 123.202 77.9277 123.522C78.5677 123.842 79.0797 124.274 79.4637 124.818C79.8477 125.362 80.0877 125.962 80.1837 126.618H78.7677C78.6077 125.914 78.2557 125.37 77.7117 124.986C77.1837 124.602 76.5197 124.41 75.7197 124.41C74.6957 124.41 73.8797 124.754 73.2717 125.442C72.6797 126.114 72.3757 126.994 72.3597 128.082C72.3597 129.186 72.6477 130.066 73.2237 130.722C73.8157 131.362 74.6397 131.682 75.6957 131.682C76.4637 131.682 77.1277 131.49 77.6877 131.106C78.2477 130.722 78.6077 130.17 78.7677 129.45H80.1837C80.0877 130.122 79.8397 130.73 79.4397 131.274C79.0557 131.818 78.5357 132.258 77.8797 132.594C77.2397 132.914 76.4877 133.074 75.6237 133.074ZM82.3233 132.834V119.322H83.8353V132.834H82.3233ZM90.4351 133.074C89.3631 133.074 88.4751 132.834 87.7711 132.354C87.0831 131.858 86.5711 131.226 86.2351 130.458C85.9151 129.674 85.7551 128.866 85.7551 128.034C85.7551 127.122 85.9311 126.29 86.2831 125.538C86.6511 124.77 87.1791 124.162 87.8671 123.714C88.5711 123.266 89.4111 123.042 90.3871 123.042C91.6351 123.042 92.6751 123.45 93.5071 124.266C94.3391 125.066 94.7871 126.146 94.8511 127.506C94.8671 127.57 94.8751 127.666 94.8751 127.794C94.8751 127.906 94.8751 128.01 94.8751 128.106H87.2431C87.2431 129.242 87.5151 130.138 88.0591 130.794C88.6191 131.434 89.4031 131.754 90.4111 131.754C91.1631 131.754 91.8031 131.562 92.3311 131.178C92.8751 130.794 93.2111 130.274 93.3391 129.618H94.8511C94.6911 130.61 94.2191 131.434 93.4351 132.09C92.6511 132.746 91.6511 133.074 90.4351 133.074ZM87.2911 127.266H93.2911C93.2911 126.93 93.1951 126.53 93.0031 126.066C92.8271 125.602 92.5231 125.202 92.0911 124.866C91.6751 124.514 91.0991 124.338 90.3631 124.338C89.6911 124.338 89.1391 124.482 88.7071 124.77C88.2751 125.058 87.9471 125.426 87.7231 125.874C87.4991 126.322 87.3551 126.786 87.2911 127.266ZM100.255 133.05C99.3592 133.05 98.6232 132.834 98.0472 132.402C97.4712 131.954 97.0392 131.354 96.7512 130.602C96.4792 129.85 96.3432 128.994 96.3432 128.034C96.3432 126.562 96.6632 125.354 97.3032 124.41C97.9592 123.45 98.9432 122.97 100.255 122.97C100.927 122.97 101.487 123.09 101.935 123.33C102.399 123.554 102.767 123.834 103.039 124.17C103.327 124.506 103.535 124.826 103.663 125.13H103.687V123.066H105.271V132.834H103.951L103.711 130.938H103.663C103.519 131.258 103.311 131.586 103.039 131.922C102.767 132.242 102.399 132.514 101.935 132.738C101.487 132.946 100.927 133.05 100.255 133.05ZM100.855 131.682C101.847 131.682 102.559 131.354 102.991 130.698C103.439 130.042 103.663 129.162 103.663 128.058C103.663 126.874 103.431 125.97 102.967 125.346C102.519 124.722 101.815 124.41 100.855 124.41C99.7992 124.41 99.0392 124.762 98.5752 125.466C98.1272 126.154 97.9032 127.01 97.9032 128.034C97.9032 129.106 98.1352 129.986 98.5992 130.674C99.0632 131.346 99.8152 131.682 100.855 131.682ZM107.065 132.834V123.066H108.385L108.649 125.49H108.697C108.713 125.41 108.785 125.242 108.913 124.986C109.041 124.73 109.233 124.458 109.489 124.17C109.761 123.866 110.113 123.61 110.545 123.402C110.977 123.178 111.529 123.066 112.201 123.066C113.049 123.066 113.713 123.218 114.193 123.522C114.689 123.826 115.057 124.234 115.297 124.746C115.537 125.242 115.689 125.778 115.753 126.354C115.817 126.93 115.849 127.482 115.849 128.01V132.834H114.361V128.01C114.361 126.954 114.177 126.098 113.809 125.442C113.457 124.786 112.753 124.458 111.697 124.458C110.977 124.458 110.385 124.634 109.921 124.986C109.473 125.322 109.145 125.778 108.937 126.354C108.745 126.914 108.649 127.53 108.649 128.202V132.834H107.065ZM119 122.01C118.648 122.01 118.408 121.922 118.28 121.746C118.168 121.554 118.112 121.314 118.112 121.026C118.112 120.786 118.168 120.578 118.28 120.402C118.408 120.21 118.648 120.114 119 120.114C119.352 120.114 119.584 120.21 119.696 120.402C119.824 120.578 119.888 120.786 119.888 121.026C119.888 121.314 119.824 121.554 119.696 121.746C119.584 121.922 119.352 122.01 119 122.01ZM118.232 132.834V123.066H119.768V132.834H118.232ZM122.019 132.834V123.066H123.339L123.603 125.49H123.651C123.667 125.41 123.739 125.242 123.867 124.986C123.995 124.73 124.187 124.458 124.443 124.17C124.715 123.866 125.067 123.61 125.499 123.402C125.931 123.178 126.483 123.066 127.155 123.066C128.003 123.066 128.667 123.218 129.147 123.522C129.643 123.826 130.011 124.234 130.251 124.746C130.491 125.242 130.643 125.778 130.707 126.354C130.771 126.93 130.803 127.482 130.803 128.01V132.834H129.315V128.01C129.315 126.954 129.131 126.098 128.763 125.442C128.411 124.786 127.707 124.458 126.651 124.458C125.931 124.458 125.339 124.634 124.875 124.986C124.427 125.322 124.099 125.778 123.891 126.354C123.699 126.914 123.603 127.53 123.603 128.202V132.834H122.019ZM135.129 136.866V135.402H140.001V130.674H139.953C139.921 130.754 139.833 130.922 139.689 131.178C139.561 131.434 139.353 131.706 139.065 131.994C138.793 132.282 138.433 132.538 137.985 132.762C137.553 132.97 137.025 133.074 136.401 133.074C135.457 133.074 134.665 132.858 134.025 132.426C133.401 131.978 132.929 131.378 132.609 130.626C132.289 129.874 132.129 129.026 132.129 128.082C132.129 126.61 132.489 125.41 133.209 124.482C133.945 123.538 135.017 123.066 136.425 123.066C137.081 123.066 137.625 123.178 138.057 123.402C138.505 123.61 138.857 123.866 139.113 124.17C139.385 124.474 139.585 124.754 139.713 125.01C139.841 125.266 139.921 125.434 139.953 125.514H140.001V123.066H141.585V134.514C141.585 135.282 141.441 135.866 141.153 136.266C140.865 136.666 140.345 136.866 139.593 136.866H135.129ZM136.737 131.706C137.697 131.706 138.473 131.386 139.065 130.746C139.657 130.09 139.953 129.202 139.953 128.082C139.953 126.978 139.673 126.106 139.113 125.466C138.553 124.81 137.809 124.482 136.881 124.482C136.113 124.482 135.489 124.658 135.009 125.01C134.545 125.346 134.201 125.786 133.977 126.33C133.753 126.874 133.641 127.458 133.641 128.082C133.641 128.69 133.737 129.274 133.929 129.834C134.137 130.378 134.465 130.826 134.913 131.178C135.377 131.53 135.985 131.706 136.737 131.706ZM153.211 133.074C152.283 133.074 151.515 132.882 150.907 132.498C150.315 132.098 149.867 131.634 149.563 131.106C149.275 130.578 149.131 130.106 149.131 129.69H150.619C150.619 129.706 150.627 129.826 150.643 130.05C150.675 130.274 150.763 130.53 150.907 130.818C151.051 131.106 151.299 131.362 151.651 131.586C152.003 131.794 152.515 131.898 153.187 131.898C153.907 131.898 154.523 131.77 155.035 131.514C155.563 131.258 155.819 130.858 155.803 130.314C155.803 129.85 155.643 129.498 155.323 129.258C155.019 129.002 154.619 128.81 154.123 128.682C153.627 128.538 153.107 128.402 152.563 128.274C152.019 128.146 151.499 127.986 151.003 127.794C150.523 127.586 150.131 127.298 149.827 126.93C149.523 126.562 149.371 126.05 149.371 125.394C149.371 124.594 149.731 123.962 150.451 123.498C151.171 123.018 152.091 122.778 153.211 122.778C153.835 122.778 154.467 122.882 155.107 123.09C155.747 123.282 156.275 123.626 156.691 124.122C157.107 124.602 157.299 125.282 157.267 126.162H155.827C155.859 125.554 155.723 125.098 155.419 124.794C155.115 124.49 154.747 124.29 154.315 124.194C153.899 124.082 153.515 124.026 153.163 124.026C152.475 124.026 151.907 124.154 151.459 124.41C151.027 124.666 150.811 125.026 150.811 125.49C150.811 125.938 150.963 126.282 151.267 126.522C151.587 126.746 151.987 126.93 152.467 127.074C152.963 127.202 153.483 127.33 154.027 127.458C154.587 127.57 155.115 127.73 155.611 127.938C156.107 128.146 156.507 128.442 156.811 128.826C157.131 129.21 157.291 129.738 157.291 130.41C157.291 131.338 156.899 132.018 156.115 132.45C155.331 132.866 154.363 133.074 153.211 133.074ZM163.419 133.074C162.347 133.074 161.459 132.834 160.755 132.354C160.067 131.858 159.555 131.226 159.219 130.458C158.899 129.674 158.739 128.866 158.739 128.034C158.739 127.122 158.915 126.29 159.267 125.538C159.635 124.77 160.163 124.162 160.851 123.714C161.555 123.266 162.395 123.042 163.371 123.042C164.619 123.042 165.659 123.45 166.491 124.266C167.323 125.066 167.771 126.146 167.835 127.506C167.851 127.57 167.859 127.666 167.859 127.794C167.859 127.906 167.859 128.01 167.859 128.106H160.227C160.227 129.242 160.499 130.138 161.043 130.794C161.603 131.434 162.387 131.754 163.395 131.754C164.147 131.754 164.787 131.562 165.315 131.178C165.859 130.794 166.195 130.274 166.323 129.618H167.835C167.675 130.61 167.203 131.434 166.419 132.09C165.635 132.746 164.635 133.074 163.419 133.074ZM160.275 127.266H166.275C166.275 126.93 166.179 126.53 165.987 126.066C165.811 125.602 165.507 125.202 165.075 124.866C164.659 124.514 164.083 124.338 163.347 124.338C162.675 124.338 162.123 124.482 161.691 124.77C161.259 125.058 160.931 125.426 160.707 125.874C160.483 126.322 160.339 126.786 160.275 127.266ZM170.048 132.834V123.066H171.44L171.608 125.634C171.704 125.202 171.896 124.786 172.184 124.386C172.472 123.986 172.864 123.666 173.36 123.426C173.872 123.17 174.504 123.05 175.256 123.066H175.712V124.77H175.232C174.208 124.77 173.432 124.922 172.904 125.226C172.392 125.514 172.04 125.922 171.848 126.45C171.672 126.978 171.584 127.586 171.584 128.274V132.834H170.048ZM184.831 123.066H186.367V123.402L182.671 132.834H180.487L176.767 123.402V123.066H178.303L181.567 131.562H181.615L184.831 123.066ZM188.985 122.01C188.633 122.01 188.393 121.922 188.265 121.746C188.153 121.554 188.097 121.314 188.097 121.026C188.097 120.786 188.153 120.578 188.265 120.402C188.393 120.21 188.633 120.114 188.985 120.114C189.337 120.114 189.569 120.21 189.681 120.402C189.809 120.578 189.873 120.786 189.873 121.026C189.873 121.314 189.809 121.554 189.681 121.746C189.569 121.922 189.337 122.01 188.985 122.01ZM188.217 132.834V123.066H189.753V132.834H188.217ZM196.491 133.074C195.579 133.074 194.763 132.882 194.043 132.498C193.323 132.114 192.755 131.554 192.339 130.818C191.923 130.082 191.715 129.194 191.715 128.154C191.747 127.13 191.963 126.234 192.363 125.466C192.779 124.698 193.347 124.106 194.067 123.69C194.787 123.258 195.611 123.042 196.539 123.042C197.403 123.042 198.155 123.202 198.795 123.522C199.435 123.842 199.947 124.274 200.331 124.818C200.715 125.362 200.955 125.962 201.051 126.618H199.635C199.475 125.914 199.123 125.37 198.579 124.986C198.051 124.602 197.387 124.41 196.587 124.41C195.563 124.41 194.747 124.754 194.139 125.442C193.547 126.114 193.243 126.994 193.227 128.082C193.227 129.186 193.515 130.066 194.091 130.722C194.683 131.362 195.507 131.682 196.563 131.682C197.331 131.682 197.995 131.49 198.555 131.106C199.115 130.722 199.475 130.17 199.635 129.45H201.051C200.955 130.122 200.707 130.73 200.307 131.274C199.923 131.818 199.403 132.258 198.747 132.594C198.107 132.914 197.355 133.074 196.491 133.074ZM207.294 133.074C206.222 133.074 205.334 132.834 204.63 132.354C203.942 131.858 203.43 131.226 203.094 130.458C202.774 129.674 202.614 128.866 202.614 128.034C202.614 127.122 202.79 126.29 203.142 125.538C203.51 124.77 204.038 124.162 204.726 123.714C205.43 123.266 206.27 123.042 207.246 123.042C208.494 123.042 209.534 123.45 210.366 124.266C211.198 125.066 211.646 126.146 211.71 127.506C211.726 127.57 211.734 127.666 211.734 127.794C211.734 127.906 211.734 128.01 211.734 128.106H204.102C204.102 129.242 204.374 130.138 204.918 130.794C205.478 131.434 206.262 131.754 207.27 131.754C208.022 131.754 208.662 131.562 209.19 131.178C209.734 130.794 210.07 130.274 210.198 129.618H211.71C211.55 130.61 211.078 131.434 210.294 132.09C209.51 132.746 208.51 133.074 207.294 133.074ZM204.15 127.266H210.15C210.15 126.93 210.054 126.53 209.862 126.066C209.686 125.602 209.382 125.202 208.95 124.866C208.534 124.514 207.958 124.338 207.222 124.338C206.55 124.338 205.998 124.482 205.566 124.77C205.134 125.058 204.806 125.426 204.582 125.874C204.358 126.322 204.214 126.786 204.15 127.266ZM217.571 133.074C216.643 133.074 215.875 132.882 215.267 132.498C214.675 132.098 214.227 131.634 213.923 131.106C213.635 130.578 213.491 130.106 213.491 129.69H214.979C214.979 129.706 214.987 129.826 215.003 130.05C215.035 130.274 215.123 130.53 215.267 130.818C215.411 131.106 215.659 131.362 216.011 131.586C216.363 131.794 216.875 131.898 217.547 131.898C218.267 131.898 218.883 131.77 219.395 131.514C219.923 131.258 220.179 130.858 220.163 130.314C220.163 129.85 220.003 129.498 219.683 129.258C219.379 129.002 218.979 128.81 218.483 128.682C217.987 128.538 217.467 128.402 216.923 128.274C216.379 128.146 215.859 127.986 215.363 127.794C214.883 127.586 214.491 127.298 214.187 126.93C213.883 126.562 213.731 126.05 213.731 125.394C213.731 124.594 214.091 123.962 214.811 123.498C215.531 123.018 216.451 122.778 217.571 122.778C218.195 122.778 218.827 122.882 219.467 123.09C220.107 123.282 220.635 123.626 221.051 124.122C221.467 124.602 221.659 125.282 221.627 126.162H220.187C220.219 125.554 220.083 125.098 219.779 124.794C219.475 124.49 219.107 124.29 218.675 124.194C218.259 124.082 217.875 124.026 217.523 124.026C216.835 124.026 216.267 124.154 215.819 124.41C215.387 124.666 215.171 125.026 215.171 125.49C215.171 125.938 215.323 126.282 215.627 126.522C215.947 126.746 216.347 126.93 216.827 127.074C217.323 127.202 217.843 127.33 218.387 127.458C218.947 127.57 219.475 127.73 219.971 127.938C220.467 128.146 220.867 128.442 221.171 128.826C221.491 129.21 221.651 129.738 221.651 130.41C221.651 131.338 221.259 132.018 220.475 132.45C219.691 132.866 218.723 133.074 217.571 133.074ZM229.946 132.906V124.218H228.434V123.066H229.946V120.906C229.946 120.346 230.058 119.906 230.282 119.586C230.522 119.266 230.938 119.106 231.53 119.106H234.434V120.378H231.506V123.066H234.266V124.218H231.506V132.906H229.946ZM239.872 133.074C238.304 133.074 237.128 132.61 236.344 131.682C235.576 130.738 235.192 129.538 235.192 128.082C235.176 126.61 235.56 125.41 236.344 124.482C237.144 123.538 238.32 123.058 239.872 123.042C241.408 123.042 242.568 123.506 243.352 124.434C244.152 125.346 244.552 126.562 244.552 128.082C244.552 129.026 244.384 129.874 244.048 130.626C243.712 131.378 243.2 131.978 242.512 132.426C241.824 132.858 240.944 133.074 239.872 133.074ZM239.872 131.73C240.704 131.73 241.344 131.546 241.792 131.178C242.256 130.81 242.576 130.346 242.752 129.786C242.944 129.21 243.04 128.626 243.04 128.034C243.04 127.442 242.944 126.858 242.752 126.282C242.576 125.706 242.256 125.234 241.792 124.866C241.344 124.498 240.704 124.314 239.872 124.314C239.04 124.314 238.392 124.498 237.928 124.866C237.48 125.234 237.16 125.706 236.968 126.282C236.792 126.858 236.704 127.442 236.704 128.034C236.704 128.626 236.792 129.21 236.968 129.786C237.16 130.346 237.48 130.81 237.928 131.178C238.392 131.546 239.04 131.73 239.872 131.73ZM246.665 132.834V123.066H248.057L248.225 125.634C248.321 125.202 248.513 124.786 248.801 124.386C249.089 123.986 249.481 123.666 249.977 123.426C250.489 123.17 251.121 123.05 251.873 123.066H252.329V124.77H251.849C250.825 124.77 250.049 124.922 249.521 125.226C249.009 125.514 248.657 125.922 248.465 126.45C248.289 126.978 248.201 127.586 248.201 128.274V132.834H246.665ZM258.378 137.202V135.954H259.722C260.042 135.954 260.306 135.866 260.514 135.69C260.722 135.53 260.978 135.13 261.282 134.49L262.314 132.258L258.474 123.066H260.082L263.082 130.626L266.274 123.066H267.906L262.674 134.706C262.354 135.426 262.066 135.962 261.81 136.314C261.57 136.682 261.298 136.922 260.994 137.034C260.69 137.146 260.306 137.202 259.842 137.202H258.378ZM273.153 133.074C271.585 133.074 270.409 132.61 269.625 131.682C268.857 130.738 268.473 129.538 268.473 128.082C268.457 126.61 268.841 125.41 269.625 124.482C270.425 123.538 271.601 123.058 273.153 123.042C274.689 123.042 275.849 123.506 276.633 124.434C277.433 125.346 277.833 126.562 277.833 128.082C277.833 129.026 277.665 129.874 277.329 130.626C276.993 131.378 276.481 131.978 275.793 132.426C275.105 132.858 274.225 133.074 273.153 133.074ZM273.153 131.73C273.985 131.73 274.625 131.546 275.073 131.178C275.537 130.81 275.857 130.346 276.033 129.786C276.225 129.21 276.321 128.626 276.321 128.034C276.321 127.442 276.225 126.858 276.033 126.282C275.857 125.706 275.537 125.234 275.073 124.866C274.625 124.498 273.985 124.314 273.153 124.314C272.321 124.314 271.673 124.498 271.209 124.866C270.761 125.234 270.441 125.706 270.249 126.282C270.073 126.858 269.985 127.442 269.985 128.034C269.985 128.626 270.073 129.21 270.249 129.786C270.441 130.346 270.761 130.81 271.209 131.178C271.673 131.546 272.321 131.73 273.153 131.73ZM283.33 133.074C282.53 133.074 281.882 132.93 281.386 132.642C280.906 132.354 280.538 131.97 280.282 131.49C280.026 130.994 279.85 130.458 279.754 129.882C279.674 129.29 279.634 128.698 279.634 128.106V123.066H281.17V128.13C281.17 128.77 281.234 129.362 281.362 129.906C281.49 130.45 281.746 130.882 282.13 131.202C282.53 131.522 283.106 131.682 283.858 131.682C284.578 131.682 285.138 131.522 285.538 131.202C285.954 130.866 286.258 130.434 286.45 129.906C286.642 129.378 286.754 128.826 286.786 128.25V123.066H288.37V132.834H287.05L286.786 130.65H286.738C286.658 130.922 286.49 131.25 286.234 131.634C285.978 132.018 285.61 132.354 285.13 132.642C284.666 132.93 284.066 133.074 283.33 133.074ZM290.634 132.834V123.066H292.026L292.194 125.634C292.29 125.202 292.482 124.786 292.77 124.386C293.058 123.986 293.45 123.666 293.946 123.426C294.458 123.17 295.09 123.05 295.842 123.066H296.298V124.77H295.818C294.794 124.77 294.018 124.922 293.49 125.226C292.978 125.514 292.626 125.922 292.434 126.45C292.258 126.978 292.17 127.586 292.17 128.274V132.834H290.634ZM303.427 132.834V119.322H304.987V125.49H305.035C305.067 125.41 305.139 125.242 305.251 124.986C305.379 124.73 305.571 124.458 305.827 124.17C306.083 123.866 306.427 123.61 306.859 123.402C307.291 123.178 307.835 123.066 308.491 123.066C309.323 123.066 309.987 123.226 310.483 123.546C310.979 123.85 311.347 124.258 311.587 124.77C311.843 125.266 312.011 125.802 312.091 126.378C312.171 126.954 312.211 127.498 312.211 128.01V132.834H310.699V128.01C310.699 126.954 310.515 126.098 310.147 125.442C309.795 124.786 309.099 124.458 308.059 124.458C307.323 124.458 306.731 124.634 306.283 124.986C305.835 125.322 305.507 125.778 305.299 126.354C305.091 126.914 304.987 127.53 304.987 128.202V132.834H303.427ZM318.622 133.074C317.054 133.074 315.878 132.61 315.094 131.682C314.326 130.738 313.942 129.538 313.942 128.082C313.926 126.61 314.31 125.41 315.094 124.482C315.894 123.538 317.07 123.058 318.622 123.042C320.158 123.042 321.318 123.506 322.102 124.434C322.902 125.346 323.302 126.562 323.302 128.082C323.302 129.026 323.134 129.874 322.798 130.626C322.462 131.378 321.95 131.978 321.262 132.426C320.574 132.858 319.694 133.074 318.622 133.074ZM318.622 131.73C319.454 131.73 320.094 131.546 320.542 131.178C321.006 130.81 321.326 130.346 321.502 129.786C321.694 129.21 321.79 128.626 321.79 128.034C321.79 127.442 321.694 126.858 321.502 126.282C321.326 125.706 321.006 125.234 320.542 124.866C320.094 124.498 319.454 124.314 318.622 124.314C317.79 124.314 317.142 124.498 316.678 124.866C316.23 125.234 315.91 125.706 315.718 126.282C315.542 126.858 315.454 127.442 315.454 128.034C315.454 128.626 315.542 129.21 315.718 129.786C315.91 130.346 316.23 130.81 316.678 131.178C317.142 131.546 317.79 131.73 318.622 131.73ZM325.175 132.834V123.066H326.495L326.591 125.49H326.639C326.671 125.378 326.743 125.194 326.855 124.938C326.967 124.666 327.143 124.386 327.383 124.098C327.623 123.81 327.935 123.57 328.319 123.378C328.703 123.17 329.191 123.066 329.783 123.066C330.679 123.066 331.335 123.314 331.751 123.81C332.183 124.306 332.471 124.866 332.615 125.49H332.663C332.711 125.378 332.799 125.194 332.927 124.938C333.055 124.666 333.247 124.386 333.503 124.098C333.759 123.81 334.087 123.57 334.487 123.378C334.903 123.17 335.407 123.066 335.999 123.066C336.623 123.066 337.135 123.194 337.535 123.45C337.935 123.69 338.239 124.018 338.447 124.434C338.671 124.834 338.831 125.258 338.927 125.706C339.023 126.154 339.079 126.586 339.095 127.002C339.111 127.418 339.119 127.754 339.119 128.01V132.834H337.775V128.01C337.775 127.754 337.759 127.426 337.727 127.026C337.695 126.626 337.615 126.234 337.487 125.85C337.359 125.45 337.135 125.122 336.815 124.866C336.511 124.594 336.071 124.458 335.495 124.458C334.855 124.458 334.343 124.634 333.959 124.986C333.575 125.338 333.295 125.802 333.119 126.378C332.943 126.938 332.855 127.546 332.855 128.202V132.834H331.511V128.01C331.511 127.754 331.495 127.426 331.463 127.026C331.431 126.626 331.351 126.234 331.223 125.85C331.095 125.45 330.871 125.122 330.551 124.866C330.247 124.594 329.807 124.458 329.231 124.458C328.591 124.458 328.079 124.634 327.695 124.986C327.311 125.338 327.031 125.802 326.855 126.378C326.679 126.938 326.591 127.546 326.591 128.202V132.834H325.175ZM345.459 133.074C344.387 133.074 343.499 132.834 342.795 132.354C342.107 131.858 341.595 131.226 341.259 130.458C340.939 129.674 340.779 128.866 340.779 128.034C340.779 127.122 340.955 126.29 341.307 125.538C341.675 124.77 342.203 124.162 342.891 123.714C343.595 123.266 344.435 123.042 345.411 123.042C346.659 123.042 347.699 123.45 348.531 124.266C349.363 125.066 349.811 126.146 349.875 127.506C349.891 127.57 349.899 127.666 349.899 127.794C349.899 127.906 349.899 128.01 349.899 128.106H342.267C342.267 129.242 342.539 130.138 343.083 130.794C343.643 131.434 344.427 131.754 345.435 131.754C346.187 131.754 346.827 131.562 347.355 131.178C347.899 130.794 348.235 130.274 348.363 129.618H349.875C349.715 130.61 349.243 131.434 348.459 132.09C347.675 132.746 346.675 133.074 345.459 133.074ZM342.315 127.266H348.315C348.315 126.93 348.219 126.53 348.027 126.066C347.851 125.602 347.547 125.202 347.115 124.866C346.699 124.514 346.123 124.338 345.387 124.338C344.715 124.338 344.163 124.482 343.731 124.77C343.299 125.058 342.971 125.426 342.747 125.874C342.523 126.322 342.379 126.786 342.315 127.266ZM355.735 133.074C354.807 133.074 354.039 132.882 353.431 132.498C352.839 132.098 352.391 131.634 352.087 131.106C351.799 130.578 351.655 130.106 351.655 129.69H353.143C353.143 129.706 353.151 129.826 353.167 130.05C353.199 130.274 353.287 130.53 353.431 130.818C353.575 131.106 353.823 131.362 354.175 131.586C354.527 131.794 355.039 131.898 355.711 131.898C356.431 131.898 357.047 131.77 357.559 131.514C358.087 131.258 358.343 130.858 358.327 130.314C358.327 129.85 358.167 129.498 357.847 129.258C357.543 129.002 357.143 128.81 356.647 128.682C356.151 128.538 355.631 128.402 355.087 128.274C354.543 128.146 354.023 127.986 353.527 127.794C353.047 127.586 352.655 127.298 352.351 126.93C352.047 126.562 351.895 126.05 351.895 125.394C351.895 124.594 352.255 123.962 352.975 123.498C353.695 123.018 354.615 122.778 355.735 122.778C356.359 122.778 356.991 122.882 357.631 123.09C358.271 123.282 358.799 123.626 359.215 124.122C359.631 124.602 359.823 125.282 359.791 126.162H358.351C358.383 125.554 358.247 125.098 357.943 124.794C357.639 124.49 357.271 124.29 356.839 124.194C356.423 124.082 356.039 124.026 355.687 124.026C354.999 124.026 354.431 124.154 353.983 124.41C353.551 124.666 353.335 125.026 353.335 125.49C353.335 125.938 353.487 126.282 353.791 126.522C354.111 126.746 354.511 126.93 354.991 127.074C355.487 127.202 356.007 127.33 356.551 127.458C357.111 127.57 357.639 127.73 358.135 127.938C358.631 128.146 359.031 128.442 359.335 128.826C359.655 129.21 359.815 129.738 359.815 130.41C359.815 131.338 359.423 132.018 358.639 132.45C357.855 132.866 356.887 133.074 355.735 133.074ZM362.439 132.834C362.039 132.834 361.767 132.73 361.623 132.522C361.495 132.298 361.431 132.042 361.431 131.754C361.431 131.45 361.495 131.194 361.623 130.986C361.767 130.778 362.039 130.674 362.439 130.674C362.839 130.674 363.103 130.778 363.231 130.986C363.375 131.194 363.447 131.45 363.447 131.754C363.447 132.058 363.375 132.314 363.231 132.522C363.103 132.73 362.839 132.834 362.439 132.834Z" fill="#00668B"/>
</svg>
