<svg width="706" height="93" viewBox="0 0 706 93" fill="none" xmlns="http://www.w3.org/2000/svg">
<path d="M268.034 24.142C266.054 24.142 264.543 23.5627 263.502 22.404C262.461 21.2307 261.94 19.654 261.94 17.674C261.94 16.3687 262.16 15.2393 262.6 14.286C263.055 13.318 263.729 12.57 264.624 12.042C265.533 11.4993 266.67 11.228 268.034 11.228C270.014 11.228 271.517 11.8147 272.544 12.988C273.585 14.1467 274.106 15.7087 274.106 17.674C274.106 18.95 273.871 20.0793 273.402 21.062C272.947 22.03 272.265 22.7853 271.356 23.328C270.461 23.8707 269.354 24.142 268.034 24.142ZM268.012 22.382C269.435 22.382 270.505 21.942 271.224 21.062C271.943 20.182 272.302 19.0527 272.302 17.674C272.302 16.2953 271.943 15.166 271.224 14.286C270.52 13.3913 269.449 12.944 268.012 12.944C266.604 12.944 265.533 13.3693 264.8 14.22C264.081 15.0707 263.722 16.222 263.722 17.674C263.722 18.5833 263.876 19.3973 264.184 20.116C264.492 20.82 264.961 21.3773 265.592 21.788C266.237 22.184 267.044 22.382 268.012 22.382ZM285.816 24.142C284.115 24.142 282.81 23.658 281.9 22.69C281.006 21.7073 280.558 20.3287 280.558 18.554V11.448H282.472V18.532C282.472 19.4853 282.626 20.248 282.934 20.82C283.242 21.3773 283.646 21.7807 284.144 22.03C284.658 22.2793 285.215 22.404 285.816 22.404C286.476 22.404 287.056 22.2867 287.554 22.052C288.068 21.8027 288.464 21.3993 288.742 20.842C289.036 20.27 289.182 19.5 289.182 18.532V11.448H291.096V18.554C291.096 20.358 290.649 21.744 289.754 22.712C288.874 23.6653 287.562 24.142 285.816 24.142ZM297.981 23.834V11.448H302.315C303.899 11.448 305.123 11.712 305.989 12.24C306.869 12.7533 307.309 13.6847 307.309 15.034C307.309 15.9727 307.067 16.7573 306.583 17.388C306.113 18.0187 305.402 18.334 304.449 18.334C305.021 18.334 305.446 18.4587 305.725 18.708C306.003 18.9573 306.194 19.2727 306.297 19.654C306.399 20.0207 306.465 20.402 306.495 20.798C306.524 21.194 306.568 21.5533 306.627 21.876C306.685 22.1987 306.803 22.4333 306.979 22.58C307.155 22.712 307.455 22.6973 307.881 22.536V23.636C307.675 23.812 307.404 23.9293 307.067 23.988C306.744 24.0613 306.421 24.0393 306.099 23.922C305.776 23.8193 305.497 23.5993 305.263 23.262C305.043 22.91 304.933 22.404 304.933 21.744C304.933 20.9667 304.889 20.358 304.801 19.918C304.713 19.478 304.507 19.1553 304.185 18.95C303.862 18.7447 303.356 18.6273 302.667 18.598C301.977 18.554 301.031 18.554 299.829 18.598V23.834H297.981ZM299.829 17.234H302.381C303.129 17.234 303.745 17.19 304.229 17.102C304.713 16.9993 305.072 16.8013 305.307 16.508C305.556 16.2147 305.681 15.7673 305.681 15.166C305.681 14.4767 305.534 13.978 305.241 13.67C304.947 13.362 304.515 13.1713 303.943 13.098C303.385 13.01 302.703 12.966 301.897 12.966H299.829V17.234ZM328.44 24.098C327.545 24.098 326.687 23.9587 325.866 23.68C325.045 23.3867 324.37 22.932 323.842 22.316C323.329 21.6853 323.065 20.8713 323.05 19.874H324.898C324.898 19.9327 324.92 20.1013 324.964 20.38C325.023 20.644 325.162 20.9373 325.382 21.26C325.617 21.568 325.983 21.8393 326.482 22.074C326.981 22.3087 327.677 22.426 328.572 22.426C329.291 22.426 329.855 22.3233 330.266 22.118C330.691 21.9127 330.985 21.6707 331.146 21.392C331.322 21.1133 331.417 20.864 331.432 20.644C331.432 20.1893 331.285 19.8227 330.992 19.544C330.713 19.2653 330.332 19.0453 329.848 18.884C329.364 18.708 328.829 18.554 328.242 18.422C327.67 18.2753 327.098 18.1213 326.526 17.96C325.954 17.784 325.426 17.5567 324.942 17.278C324.473 16.9993 324.099 16.64 323.82 16.2C323.556 15.7453 323.446 15.166 323.49 14.462C323.534 13.45 324.011 12.658 324.92 12.086C325.844 11.514 327.032 11.228 328.484 11.228C329.335 11.228 330.127 11.382 330.86 11.69C331.593 11.998 332.18 12.46 332.62 13.076C333.06 13.692 333.28 14.462 333.28 15.386H331.498C331.498 14.8727 331.388 14.462 331.168 14.154C330.948 13.8313 330.669 13.582 330.332 13.406C329.995 13.23 329.643 13.1127 329.276 13.054C328.909 12.9807 328.579 12.944 328.286 12.944C327.45 12.944 326.761 13.098 326.218 13.406C325.69 13.714 325.426 14.132 325.426 14.66C325.411 15.1293 325.551 15.5033 325.844 15.782C326.137 16.0607 326.526 16.2807 327.01 16.442C327.494 16.6033 328.022 16.75 328.594 16.882C329.181 17.014 329.76 17.1607 330.332 17.322C330.919 17.4833 331.447 17.7033 331.916 17.982C332.4 18.246 332.774 18.6127 333.038 19.082C333.317 19.5367 333.441 20.116 333.412 20.82C333.368 21.5093 333.126 22.1033 332.686 22.602C332.261 23.086 331.681 23.46 330.948 23.724C330.215 23.9733 329.379 24.098 328.44 24.098ZM341.729 22.338H348.725V23.834H339.925V11.448H348.505V13.032H341.729V16.794H347.009V18.312H341.729V22.338ZM355.198 23.834V11.448H359.532C361.116 11.448 362.341 11.712 363.206 12.24C364.086 12.7533 364.526 13.6847 364.526 15.034C364.526 15.9727 364.284 16.7573 363.8 17.388C363.331 18.0187 362.619 18.334 361.666 18.334C362.238 18.334 362.663 18.4587 362.942 18.708C363.221 18.9573 363.411 19.2727 363.514 19.654C363.617 20.0207 363.683 20.402 363.712 20.798C363.741 21.194 363.785 21.5533 363.844 21.876C363.903 22.1987 364.02 22.4333 364.196 22.58C364.372 22.712 364.673 22.6973 365.098 22.536V23.636C364.893 23.812 364.621 23.9293 364.284 23.988C363.961 24.0613 363.639 24.0393 363.316 23.922C362.993 23.8193 362.715 23.5993 362.48 23.262C362.26 22.91 362.15 22.404 362.15 21.744C362.15 20.9667 362.106 20.358 362.018 19.918C361.93 19.478 361.725 19.1553 361.402 18.95C361.079 18.7447 360.573 18.6273 359.884 18.598C359.195 18.554 358.249 18.554 357.046 18.598V23.834H355.198ZM357.046 17.234H359.598C360.346 17.234 360.962 17.19 361.446 17.102C361.93 16.9993 362.289 16.8013 362.524 16.508C362.773 16.2147 362.898 15.7673 362.898 15.166C362.898 14.4767 362.751 13.978 362.458 13.67C362.165 13.362 361.732 13.1713 361.16 13.098C360.603 13.01 359.921 12.966 359.114 12.966H357.046V17.234ZM379.815 11.448H381.817L377.593 23.834H374.535L370.311 11.448H372.291L376.053 23.02L379.815 11.448ZM393.123 22.25V23.834H387.953V22.25H389.647V13.032H387.953V11.448H393.123V13.032H391.451V22.25H393.123ZM405.583 24.054C404.439 24.054 403.397 23.8193 402.459 23.35C401.535 22.866 400.801 22.1547 400.259 21.216C399.731 20.2627 399.467 19.082 399.467 17.674C399.481 16.2807 399.753 15.1073 400.281 14.154C400.809 13.186 401.535 12.46 402.459 11.976C403.397 11.4773 404.468 11.228 405.671 11.228C407.269 11.228 408.56 11.6533 409.543 12.504C410.525 13.3547 411.134 14.4693 411.369 15.848H409.477C409.359 15.144 409.103 14.5793 408.707 14.154C408.325 13.7287 407.863 13.4207 407.321 13.23C406.793 13.0393 406.243 12.944 405.671 12.944C404.277 12.944 403.199 13.3473 402.437 14.154C401.674 14.946 401.293 16.0827 401.293 17.564C401.293 19.1187 401.667 20.3067 402.415 21.128C403.163 21.9347 404.226 22.338 405.605 22.338C406.558 22.338 407.409 22.1107 408.157 21.656C408.905 21.1867 409.367 20.4313 409.543 19.39H411.457C411.207 20.7687 410.591 21.8907 409.609 22.756C408.626 23.6213 407.284 24.054 405.583 24.054ZM419.567 22.338H426.563V23.834H417.763V11.448H426.343V13.032H419.567V16.794H424.847V18.312H419.567V22.338ZM437.744 24.098C436.849 24.098 435.991 23.9587 435.17 23.68C434.349 23.3867 433.674 22.932 433.146 22.316C432.633 21.6853 432.369 20.8713 432.354 19.874H434.202C434.202 19.9327 434.224 20.1013 434.268 20.38C434.327 20.644 434.466 20.9373 434.686 21.26C434.921 21.568 435.287 21.8393 435.786 22.074C436.285 22.3087 436.981 22.426 437.876 22.426C438.595 22.426 439.159 22.3233 439.57 22.118C439.995 21.9127 440.289 21.6707 440.45 21.392C440.626 21.1133 440.721 20.864 440.736 20.644C440.736 20.1893 440.589 19.8227 440.296 19.544C440.017 19.2653 439.636 19.0453 439.152 18.884C438.668 18.708 438.133 18.554 437.546 18.422C436.974 18.2753 436.402 18.1213 435.83 17.96C435.258 17.784 434.73 17.5567 434.246 17.278C433.777 16.9993 433.403 16.64 433.124 16.2C432.86 15.7453 432.75 15.166 432.794 14.462C432.838 13.45 433.315 12.658 434.224 12.086C435.148 11.514 436.336 11.228 437.788 11.228C438.639 11.228 439.431 11.382 440.164 11.69C440.897 11.998 441.484 12.46 441.924 13.076C442.364 13.692 442.584 14.462 442.584 15.386H440.802C440.802 14.8727 440.692 14.462 440.472 14.154C440.252 13.8313 439.973 13.582 439.636 13.406C439.299 13.23 438.947 13.1127 438.58 13.054C438.213 12.9807 437.883 12.944 437.59 12.944C436.754 12.944 436.065 13.098 435.522 13.406C434.994 13.714 434.73 14.132 434.73 14.66C434.715 15.1293 434.855 15.5033 435.148 15.782C435.441 16.0607 435.83 16.2807 436.314 16.442C436.798 16.6033 437.326 16.75 437.898 16.882C438.485 17.014 439.064 17.1607 439.636 17.322C440.223 17.4833 440.751 17.7033 441.22 17.982C441.704 18.246 442.078 18.6127 442.342 19.082C442.621 19.5367 442.745 20.116 442.716 20.82C442.672 21.5093 442.43 22.1033 441.99 22.602C441.565 23.086 440.985 23.46 440.252 23.724C439.519 23.9733 438.683 24.098 437.744 24.098Z" fill="url(#paint0_linear_59_1868)"/>
<path d="M187.057 46.054H194.737L187.597 79.834H175.957L171.577 55.234L167.317 79.834H155.677L148.297 46.054H155.977L161.497 76.834L167.677 46.174L167.617 46.054H175.417L181.777 76.834L187.057 46.054ZM206.41 79.834H199.15V46.054H206.41V59.974H220.93V46.054H228.13V79.834H220.93V65.494H206.41V79.834ZM232.498 79.834L242.758 46.054H254.698L265.258 79.834H257.518L254.998 70.834H242.758L240.298 79.834H232.498ZM248.878 49.054L244.318 65.254H253.438L248.878 49.054ZM265.416 52.234V46.054H291.816V52.234H282.216V79.834H274.956V52.234H265.416ZM345.436 46.054H353.116L345.976 79.834H334.336L329.956 55.234L325.696 79.834H314.056L306.676 46.054H314.356L319.876 76.834L326.056 46.174L325.996 46.054H333.796L340.156 76.834L345.436 46.054ZM365.485 74.014H383.845V79.834H358.405V46.054H383.245V52.234H365.485V59.794H378.925V65.674H365.485V74.014ZM416.527 80.674C411.007 80.674 406.787 79.094 403.867 75.934C400.947 72.734 399.487 68.434 399.487 63.034C399.487 59.474 400.107 56.394 401.347 53.794C402.627 51.154 404.527 49.114 407.047 47.674C409.567 46.194 412.727 45.454 416.527 45.454C422.087 45.454 426.307 47.054 429.187 50.254C432.067 53.414 433.507 57.674 433.507 63.034C433.507 66.514 432.867 69.594 431.587 72.274C430.307 74.914 428.407 76.974 425.887 78.454C423.367 79.934 420.247 80.674 416.527 80.674ZM416.467 73.654C418.667 73.654 420.507 73.194 421.987 72.274C423.467 71.314 424.567 70.034 425.287 68.434C426.007 66.834 426.367 65.034 426.367 63.034C426.367 61.034 426.007 59.214 425.287 57.574C424.567 55.934 423.467 54.634 421.987 53.674C420.507 52.714 418.667 52.234 416.467 52.234C413.227 52.234 410.767 53.254 409.087 55.294C407.407 57.294 406.567 59.874 406.567 63.034C406.567 64.994 406.927 66.774 407.647 68.374C408.367 69.974 409.447 71.254 410.887 72.214C412.367 73.174 414.227 73.654 416.467 73.654ZM446.301 79.834H439.221V46.054H463.581V52.234H446.301V59.314H459.321V65.134H446.301V79.834ZM475.071 79.834H467.991V46.054H492.351V52.234H475.071V59.314H488.091V65.134H475.071V79.834ZM504.235 74.014H522.595V79.834H497.155V46.054H521.995V52.234H504.235V59.794H517.675V65.674H504.235V74.014ZM527.918 79.834V46.054H540.998C545.398 46.054 548.838 46.814 551.318 48.334C553.838 49.814 555.098 52.414 555.098 56.134C555.098 59.014 554.418 61.294 553.058 62.974C551.738 64.654 549.898 65.494 547.538 65.494C548.778 65.494 549.718 65.794 550.358 66.394C550.998 66.954 551.438 67.654 551.678 68.494C551.958 69.334 552.158 70.214 552.278 71.134C552.438 72.014 552.638 72.814 552.878 73.534C553.118 74.214 553.518 74.694 554.078 74.974C554.678 75.214 555.558 75.094 556.718 74.614V78.634C555.798 79.434 554.738 79.954 553.538 80.194C552.338 80.474 551.178 80.414 550.058 80.014C548.938 79.614 547.998 78.834 547.238 77.674C546.518 76.474 546.158 74.834 546.158 72.754C546.158 71.394 546.058 70.254 545.858 69.334C545.698 68.414 545.278 67.694 544.598 67.174C543.918 66.654 542.838 66.314 541.358 66.154C539.878 65.994 537.818 65.994 535.178 66.154V79.834H527.918ZM535.178 60.994H540.338C542.218 60.994 543.758 60.934 544.958 60.814C546.198 60.694 547.118 60.354 547.718 59.794C548.318 59.194 548.618 58.174 548.618 56.734C548.618 55.094 548.258 53.954 547.538 53.314C546.818 52.634 545.738 52.234 544.298 52.114C542.898 51.994 541.178 51.934 539.138 51.934H535.178V60.994Z" fill="#133063"/>
<defs>
<linearGradient id="paint0_linear_59_1868" x1="303.121" y1="15.834" x2="429.506" y2="15.8339" gradientUnits="userSpaceOnUse">
<stop stop-color="#133063"/>
<stop offset="1" stop-color="#4FA0CA"/>
</linearGradient>
</defs>
</svg>
