<svg width="1107" height="276" viewBox="0 0 1107 276" fill="none" xmlns="http://www.w3.org/2000/svg">
<path d="M301.376 23.3614C300.232 23.3614 299.191 23.1267 298.252 22.6574C297.328 22.1734 296.595 21.462 296.052 20.5234C295.524 19.57 295.26 18.3894 295.26 16.9814C295.275 15.588 295.546 14.4147 296.074 13.4614C296.602 12.4934 297.328 11.7674 298.252 11.2834C299.191 10.7847 300.262 10.5354 301.464 10.5354C303.063 10.5354 304.354 10.9607 305.336 11.8114C306.319 12.662 306.928 13.7767 307.162 15.1554H305.27C305.153 14.4514 304.896 13.8867 304.5 13.4614C304.119 13.036 303.657 12.728 303.114 12.5374C302.586 12.3467 302.036 12.2514 301.464 12.2514C300.071 12.2514 298.993 12.6547 298.23 13.4614C297.468 14.2534 297.086 15.39 297.086 16.8714C297.086 18.426 297.46 19.614 298.208 20.4354C298.956 21.242 300.02 21.6454 301.398 21.6454C302.352 21.6454 303.202 21.418 303.95 20.9634C304.698 20.494 305.16 19.7387 305.336 18.6974H307.25C307.001 20.076 306.385 21.198 305.402 22.0634C304.42 22.9287 303.078 23.3614 301.376 23.3614ZM318.88 23.4494C316.9 23.4494 315.39 22.87 314.348 21.7114C313.307 20.538 312.786 18.9614 312.786 16.9814C312.786 15.676 313.006 14.5467 313.446 13.5934C313.901 12.6254 314.576 11.8774 315.47 11.3494C316.38 10.8067 317.516 10.5354 318.88 10.5354C320.86 10.5354 322.364 11.122 323.39 12.2954C324.432 13.454 324.952 15.016 324.952 16.9814C324.952 18.2574 324.718 19.3867 324.248 20.3694C323.794 21.3374 323.112 22.0927 322.202 22.6354C321.308 23.178 320.2 23.4494 318.88 23.4494ZM318.858 21.6894C320.281 21.6894 321.352 21.2494 322.07 20.3694C322.789 19.4894 323.148 18.36 323.148 16.9814C323.148 15.6027 322.789 14.4734 322.07 13.5934C321.366 12.6987 320.296 12.2514 318.858 12.2514C317.45 12.2514 316.38 12.6767 315.646 13.5274C314.928 14.378 314.568 15.5294 314.568 16.9814C314.568 17.8907 314.722 18.7047 315.03 19.4234C315.338 20.1274 315.808 20.6847 316.438 21.0954C317.084 21.4914 317.89 21.6894 318.858 21.6894ZM331.407 23.1414V10.7554H334.575L338.051 22.3274H338.095L341.505 10.7554H344.673V23.1414H342.803L342.913 11.6134H342.869L339.393 23.1414H336.687L333.233 11.6134H333.189L333.277 23.1414H331.407ZM351.62 23.1414V10.7554H354.788L358.264 22.3274H358.308L361.718 10.7554H364.886V23.1414H363.016L363.126 11.6134H363.082L359.606 23.1414H356.9L353.446 11.6134H353.402L353.49 23.1414H351.62ZM377.024 21.5574V23.1414H371.854V21.5574H373.548V12.3394H371.854V10.7554H377.024V12.3394H375.352V21.5574H377.024ZM383.104 12.3394V10.7554H392.564V12.3394H388.758V23.1414H386.932V12.3394H383.104ZM398.289 12.3394V10.7554H407.749V12.3394H403.943V23.1414H402.117V12.3394H398.289ZM415.753 21.6454H422.749V23.1414H413.949V10.7554H422.529V12.3394H415.753V16.1014H421.033V17.6194H415.753V21.6454ZM440.288 16.9374C440.288 18.5654 439.972 19.834 439.342 20.7434C438.711 21.638 437.824 22.2614 436.68 22.6134C435.55 22.9654 434.223 23.1414 432.698 23.1414H429.354V10.7554H432.698C434.223 10.7554 435.55 10.99 436.68 11.4594C437.824 11.914 438.711 12.596 439.342 13.5054C439.972 14.4147 440.288 15.5587 440.288 16.9374ZM431.18 21.6014H433.182C434.223 21.6014 435.132 21.484 435.91 21.2494C436.687 21 437.288 20.538 437.714 19.8634C438.139 19.1887 438.352 18.206 438.352 16.9154C438.352 15.3754 437.882 14.2314 436.944 13.4834C436.005 12.7207 434.751 12.3394 433.182 12.3394H431.18V21.6014ZM455.077 12.3394V10.7554H464.537V12.3394H460.731V23.1414H458.905V12.3394H455.077ZM475.845 23.4494C473.865 23.4494 472.355 22.87 471.313 21.7114C470.272 20.538 469.751 18.9614 469.751 16.9814C469.751 15.676 469.971 14.5467 470.411 13.5934C470.866 12.6254 471.541 11.8774 472.435 11.3494C473.345 10.8067 474.481 10.5354 475.845 10.5354C477.825 10.5354 479.329 11.122 480.355 12.2954C481.397 13.454 481.917 15.016 481.917 16.9814C481.917 18.2574 481.683 19.3867 481.213 20.3694C480.759 21.3374 480.077 22.0927 479.167 22.6354C478.273 23.178 477.165 23.4494 475.845 23.4494ZM475.823 21.6894C477.246 21.6894 478.317 21.2494 479.035 20.3694C479.754 19.4894 480.113 18.36 480.113 16.9814C480.113 15.6027 479.754 14.4734 479.035 13.5934C478.331 12.6987 477.261 12.2514 475.823 12.2514C474.415 12.2514 473.345 12.6767 472.611 13.5274C471.893 14.378 471.533 15.5294 471.533 16.9814C471.533 17.8907 471.687 18.7047 471.995 19.4234C472.303 20.1274 472.773 20.6847 473.403 21.0954C474.049 21.4914 474.855 21.6894 475.823 21.6894ZM499.714 23.1414H497.888V10.7554H499.714V16.0794H506.182V10.7554H507.986V23.1414H506.182V17.5094H499.714V23.1414ZM520.239 21.5574V23.1414H515.069V21.5574H516.763V12.3394H515.069V10.7554H520.239V12.3394H518.567V21.5574H520.239ZM532.501 23.4054C531.298 23.4054 530.249 23.156 529.355 22.6574C528.475 22.1587 527.793 21.44 527.309 20.5014C526.825 19.548 526.59 18.382 526.605 17.0034C526.619 15.6247 526.883 14.4587 527.397 13.5054C527.925 12.5374 528.651 11.804 529.575 11.3054C530.499 10.792 531.577 10.5354 532.809 10.5354C534.422 10.5354 535.698 10.902 536.637 11.6354C537.575 12.354 538.191 13.41 538.485 14.8034L536.725 15.0454C536.49 14.048 536.013 13.3367 535.295 12.9114C534.576 12.4714 533.747 12.2514 532.809 12.2514C531.313 12.2514 530.205 12.6694 529.487 13.5054C528.783 14.3267 528.416 15.456 528.387 16.8934C528.387 18.404 528.783 19.5774 529.575 20.4134C530.381 21.2347 531.511 21.6454 532.963 21.6454C533.96 21.6454 534.825 21.396 535.559 20.8974C536.292 20.384 536.747 19.5994 536.923 18.5434H533.865V17.1574H538.727V23.1414H537.473L537.055 20.6994H537.011C536.864 21.0807 536.607 21.484 536.241 21.9094C535.889 22.32 535.397 22.672 534.767 22.9654C534.151 23.2587 533.395 23.4054 532.501 23.4054ZM547.267 23.1414H545.441V10.7554H547.267V16.0794H553.735V10.7554H555.539V23.1414H553.735V17.5094H547.267V23.1414ZM562.204 18.8514V17.5314H567.088V18.8514H562.204ZM581.045 25.8034C580.722 25.8034 580.392 25.7594 580.055 25.6714C579.732 25.5834 579.454 25.3707 579.219 25.0334C578.984 24.696 578.852 24.1607 578.823 23.4274C577.078 23.266 575.743 22.6134 574.819 21.4694C573.91 20.3254 573.455 18.8294 573.455 16.9814C573.455 15.6907 573.675 14.5614 574.115 13.5934C574.57 12.6254 575.252 11.8774 576.161 11.3494C577.07 10.8067 578.207 10.5354 579.571 10.5354C580.891 10.5354 581.998 10.7994 582.893 11.3274C583.802 11.8554 584.484 12.6034 584.939 13.5714C585.408 14.5394 585.643 15.6687 585.643 16.9594C585.643 18.7194 585.21 20.186 584.345 21.3594C583.48 22.518 582.211 23.1927 580.539 23.3834C580.554 23.706 580.612 23.948 580.715 24.1094C580.832 24.2854 581.104 24.3734 581.529 24.3734C581.661 24.3734 581.83 24.3294 582.035 24.2414C582.255 24.1534 582.438 24.1094 582.585 24.1094L582.651 25.4954C582.622 25.4954 582.497 25.5174 582.277 25.5614C582.057 25.62 581.822 25.6714 581.573 25.7154C581.324 25.774 581.148 25.8034 581.045 25.8034ZM579.549 21.6454C580.957 21.6454 582.013 21.22 582.717 20.3694C583.436 19.5187 583.795 18.3674 583.795 16.9154C583.795 15.4927 583.443 14.3487 582.739 13.4834C582.035 12.618 580.972 12.1854 579.549 12.1854C578.156 12.1854 577.1 12.6034 576.381 13.4394C575.662 14.2607 575.303 15.4194 575.303 16.9154C575.303 18.3527 575.648 19.504 576.337 20.3694C577.041 21.22 578.112 21.6454 579.549 21.6454ZM597.152 23.4494C595.451 23.4494 594.145 22.9654 593.236 21.9974C592.341 21.0147 591.894 19.636 591.894 17.8614V10.7554H593.808V17.8394C593.808 18.7927 593.962 19.5554 594.27 20.1274C594.578 20.6847 594.981 21.088 595.48 21.3374C595.993 21.5867 596.551 21.7114 597.152 21.7114C597.812 21.7114 598.391 21.594 598.89 21.3594C599.403 21.11 599.799 20.7067 600.078 20.1494C600.371 19.5774 600.518 18.8074 600.518 17.8394V10.7554H602.432V17.8614C602.432 19.6654 601.985 21.0514 601.09 22.0194C600.21 22.9727 598.897 23.4494 597.152 23.4494ZM608.437 23.1414L612.595 10.7554H615.609L619.855 23.1414H617.897L616.709 19.4454H611.561L610.373 23.1414H608.437ZM614.135 11.5254L612.045 17.9934H616.225L614.135 11.5254ZM626.03 23.1414V10.7554H627.856V21.5574H634.346V23.1414H626.03ZM645.781 21.5574V23.1414H640.611V21.5574H642.305V12.3394H640.611V10.7554H645.781V12.3394H644.109V21.5574H645.781ZM651.861 12.3394V10.7554H661.321V12.3394H657.515V23.1414H655.689V12.3394H651.861ZM670.933 23.1414V18.6974L666.709 10.7554H668.755L671.879 17.0474L674.981 10.7554H677.027L672.759 18.6754V23.1414H670.933ZM696.563 23.4054C695.669 23.4054 694.811 23.266 693.989 22.9874C693.168 22.694 692.493 22.2394 691.965 21.6234C691.452 20.9927 691.188 20.1787 691.173 19.1814H693.021C693.021 19.24 693.043 19.4087 693.087 19.6874C693.146 19.9514 693.285 20.2447 693.505 20.5674C693.74 20.8754 694.107 21.1467 694.605 21.3814C695.104 21.616 695.801 21.7334 696.695 21.7334C697.414 21.7334 697.979 21.6307 698.389 21.4254C698.815 21.22 699.108 20.978 699.269 20.6994C699.445 20.4207 699.541 20.1714 699.555 19.9514C699.555 19.4967 699.409 19.13 699.115 18.8514C698.837 18.5727 698.455 18.3527 697.971 18.1914C697.487 18.0154 696.952 17.8614 696.365 17.7294C695.793 17.5827 695.221 17.4287 694.649 17.2674C694.077 17.0914 693.549 16.864 693.065 16.5854C692.596 16.3067 692.222 15.9474 691.943 15.5074C691.679 15.0527 691.569 14.4734 691.613 13.7694C691.657 12.7574 692.134 11.9654 693.043 11.3934C693.967 10.8214 695.155 10.5354 696.607 10.5354C697.458 10.5354 698.25 10.6894 698.983 10.9974C699.717 11.3054 700.303 11.7674 700.743 12.3834C701.183 12.9994 701.403 13.7694 701.403 14.6934H699.621C699.621 14.18 699.511 13.7694 699.291 13.4614C699.071 13.1387 698.793 12.8894 698.455 12.7134C698.118 12.5374 697.766 12.42 697.399 12.3614C697.033 12.288 696.703 12.2514 696.409 12.2514C695.573 12.2514 694.884 12.4054 694.341 12.7134C693.813 13.0214 693.549 13.4394 693.549 13.9674C693.535 14.4367 693.674 14.8107 693.967 15.0894C694.261 15.368 694.649 15.588 695.133 15.7494C695.617 15.9107 696.145 16.0574 696.717 16.1894C697.304 16.3214 697.883 16.468 698.455 16.6294C699.042 16.7907 699.57 17.0107 700.039 17.2894C700.523 17.5534 700.897 17.92 701.161 18.3894C701.44 18.844 701.565 19.4234 701.535 20.1274C701.491 20.8167 701.249 21.4107 700.809 21.9094C700.384 22.3934 699.805 22.7674 699.071 23.0314C698.338 23.2807 697.502 23.4054 696.563 23.4054ZM709.852 21.6454H716.848V23.1414H708.048V10.7554H716.628V12.3394H709.852V16.1014H715.132V17.6194H709.852V21.6454ZM723.321 23.1414V10.7554H727.655C729.239 10.7554 730.464 11.0194 731.329 11.5474C732.209 12.0607 732.649 12.992 732.649 14.3414C732.649 15.28 732.407 16.0647 731.923 16.6954C731.454 17.326 730.743 17.6414 729.789 17.6414C730.361 17.6414 730.787 17.766 731.065 18.0154C731.344 18.2647 731.535 18.58 731.637 18.9614C731.74 19.328 731.806 19.7094 731.835 20.1054C731.865 20.5014 731.909 20.8607 731.967 21.1834C732.026 21.506 732.143 21.7407 732.319 21.8874C732.495 22.0194 732.796 22.0047 733.221 21.8434V22.9434C733.016 23.1194 732.745 23.2367 732.407 23.2954C732.085 23.3687 731.762 23.3467 731.439 23.2294C731.117 23.1267 730.838 22.9067 730.603 22.5694C730.383 22.2174 730.273 21.7114 730.273 21.0514C730.273 20.274 730.229 19.6654 730.141 19.2254C730.053 18.7854 729.848 18.4627 729.525 18.2574C729.203 18.052 728.697 17.9347 728.007 17.9054C727.318 17.8614 726.372 17.8614 725.169 17.9054V23.1414H723.321ZM725.169 16.5414H727.721C728.469 16.5414 729.085 16.4974 729.569 16.4094C730.053 16.3067 730.413 16.1087 730.647 15.8154C730.897 15.522 731.021 15.0747 731.021 14.4734C731.021 13.784 730.875 13.2854 730.581 12.9774C730.288 12.6694 729.855 12.4787 729.283 12.4054C728.726 12.3174 728.044 12.2734 727.237 12.2734H725.169V16.5414ZM747.939 10.7554H749.941L745.717 23.1414H742.659L738.435 10.7554H740.415L744.177 22.3274L747.939 10.7554ZM761.246 21.5574V23.1414H756.076V21.5574H757.77V12.3394H756.076V10.7554H761.246V12.3394H759.574V21.5574H761.246ZM773.706 23.3614C772.562 23.3614 771.521 23.1267 770.582 22.6574C769.658 22.1734 768.925 21.462 768.382 20.5234C767.854 19.57 767.59 18.3894 767.59 16.9814C767.605 15.588 767.876 14.4147 768.404 13.4614C768.932 12.4934 769.658 11.7674 770.582 11.2834C771.521 10.7847 772.591 10.5354 773.794 10.5354C775.393 10.5354 776.683 10.9607 777.666 11.8114C778.649 12.662 779.257 13.7767 779.492 15.1554H777.6C777.483 14.4514 777.226 13.8867 776.83 13.4614C776.449 13.036 775.987 12.728 775.444 12.5374C774.916 12.3467 774.366 12.2514 773.794 12.2514C772.401 12.2514 771.323 12.6547 770.56 13.4614C769.797 14.2534 769.416 15.39 769.416 16.8714C769.416 18.426 769.79 19.614 770.538 20.4354C771.286 21.242 772.349 21.6454 773.728 21.6454C774.681 21.6454 775.532 21.418 776.28 20.9634C777.028 20.494 777.49 19.7387 777.666 18.6974H779.58C779.331 20.076 778.715 21.198 777.732 22.0634C776.749 22.9287 775.407 23.3614 773.706 23.3614ZM787.69 21.6454H794.686V23.1414H785.886V10.7554H794.466V12.3394H787.69V16.1014H792.97V17.6194H787.69V21.6454ZM805.867 23.4054C804.973 23.4054 804.115 23.266 803.293 22.9874C802.472 22.694 801.797 22.2394 801.269 21.6234C800.756 20.9927 800.492 20.1787 800.477 19.1814H802.325C802.325 19.24 802.347 19.4087 802.391 19.6874C802.45 19.9514 802.589 20.2447 802.809 20.5674C803.044 20.8754 803.411 21.1467 803.909 21.3814C804.408 21.616 805.105 21.7334 805.999 21.7334C806.718 21.7334 807.283 21.6307 807.693 21.4254C808.119 21.22 808.412 20.978 808.573 20.6994C808.749 20.4207 808.845 20.1714 808.859 19.9514C808.859 19.4967 808.713 19.13 808.419 18.8514C808.141 18.5727 807.759 18.3527 807.275 18.1914C806.791 18.0154 806.256 17.8614 805.669 17.7294C805.097 17.5827 804.525 17.4287 803.953 17.2674C803.381 17.0914 802.853 16.864 802.369 16.5854C801.9 16.3067 801.526 15.9474 801.247 15.5074C800.983 15.0527 800.873 14.4734 800.917 13.7694C800.961 12.7574 801.438 11.9654 802.347 11.3934C803.271 10.8214 804.459 10.5354 805.911 10.5354C806.762 10.5354 807.554 10.6894 808.287 10.9974C809.021 11.3054 809.607 11.7674 810.047 12.3834C810.487 12.9994 810.707 13.7694 810.707 14.6934H808.925C808.925 14.18 808.815 13.7694 808.595 13.4614C808.375 13.1387 808.097 12.8894 807.759 12.7134C807.422 12.5374 807.07 12.42 806.703 12.3614C806.337 12.288 806.007 12.2514 805.713 12.2514C804.877 12.2514 804.188 12.4054 803.645 12.7134C803.117 13.0214 802.853 13.4394 802.853 13.9674C802.839 14.4367 802.978 14.8107 803.271 15.0894C803.565 15.368 803.953 15.588 804.437 15.7494C804.921 15.9107 805.449 16.0574 806.021 16.1894C806.608 16.3214 807.187 16.468 807.759 16.6294C808.346 16.7907 808.874 17.0107 809.343 17.2894C809.827 17.5534 810.201 17.92 810.465 18.3894C810.744 18.844 810.869 19.4234 810.839 20.1274C810.795 20.8167 810.553 21.4107 810.113 21.9094C809.688 22.3934 809.109 22.7674 808.375 23.0314C807.642 23.2807 806.806 23.4054 805.867 23.4054Z" fill="url(#paint0_linear_38_531)"/>
<path d="M44.7717 90.1414H36.0597V49.6054H52.7637C57.3237 49.6054 60.8997 50.7814 63.4917 53.1334C66.0837 55.4374 67.3797 58.8934 67.3797 63.5014C67.3797 67.5334 66.0357 70.7014 63.3477 73.0054C60.7077 75.2614 57.1797 76.3894 52.7637 76.3894H44.7717V90.1414ZM51.5397 56.6614H44.7717V70.1974H51.5397C53.8437 70.1974 55.7397 69.6454 57.2277 68.5414C58.7637 67.3894 59.5317 65.6854 59.5317 63.4294C59.5317 61.1254 58.7877 59.4214 57.2997 58.3174C55.8117 57.2134 53.8917 56.6614 51.5397 56.6614ZM73.4659 90.1414V49.6054H89.1619C94.4419 49.6054 98.5699 50.5174 101.546 52.3414C104.57 54.1174 106.082 57.2374 106.082 61.7014C106.082 65.1574 105.266 67.8934 103.634 69.9094C102.05 71.9254 99.8419 72.9334 97.0099 72.9334C98.4979 72.9334 99.6259 73.2934 100.394 74.0134C101.162 74.6854 101.69 75.5254 101.978 76.5334C102.314 77.5414 102.554 78.5974 102.698 79.7014C102.89 80.7574 103.13 81.7174 103.418 82.5814C103.706 83.3974 104.186 83.9734 104.858 84.3094C105.578 84.5974 106.634 84.4534 108.026 83.8774V88.7014C106.922 89.6614 105.65 90.2854 104.21 90.5734C102.77 90.9094 101.378 90.8374 100.034 90.3574C98.6899 89.8774 97.5619 88.9414 96.6499 87.5494C95.7859 86.1094 95.3539 84.1414 95.3539 81.6454C95.3539 80.0134 95.2339 78.6454 94.9939 77.5414C94.8019 76.4374 94.2979 75.5734 93.4819 74.9494C92.6659 74.3254 91.3699 73.9174 89.5939 73.7254C87.8179 73.5334 85.3459 73.5334 82.1779 73.7254V90.1414H73.4659ZM82.1779 67.5334H88.3699C90.6259 67.5334 92.4739 67.4614 93.9139 67.3174C95.4019 67.1734 96.5059 66.7654 97.2259 66.0934C97.9459 65.3734 98.3059 64.1494 98.3059 62.4214C98.3059 60.4534 97.8739 59.0854 97.0099 58.3174C96.1459 57.5014 94.8499 57.0214 93.1219 56.8774C91.4419 56.7334 89.3779 56.6614 86.9299 56.6614H82.1779V67.5334ZM132.031 91.1494C125.407 91.1494 120.343 89.2534 116.839 85.4614C113.335 81.6214 111.583 76.4614 111.583 69.9814C111.583 65.7094 112.327 62.0134 113.815 58.8934C115.351 55.7254 117.631 53.2774 120.655 51.5494C123.679 49.7734 127.471 48.8854 132.031 48.8854C138.703 48.8854 143.767 50.8054 147.223 54.6454C150.679 58.4374 152.407 63.5494 152.407 69.9814C152.407 74.1574 151.639 77.8534 150.103 81.0694C148.567 84.2374 146.287 86.7094 143.263 88.4854C140.239 90.2614 136.495 91.1494 132.031 91.1494ZM131.959 82.7254C134.599 82.7254 136.807 82.1734 138.583 81.0694C140.359 79.9174 141.679 78.3814 142.543 76.4614C143.407 74.5414 143.839 72.3814 143.839 69.9814C143.839 67.5814 143.407 65.3974 142.543 63.4294C141.679 61.4614 140.359 59.9014 138.583 58.7494C136.807 57.5974 134.599 57.0214 131.959 57.0214C128.071 57.0214 125.119 58.2454 123.103 60.6934C121.087 63.0934 120.079 66.1894 120.079 69.9814C120.079 72.3334 120.511 74.4694 121.375 76.3894C122.239 78.3094 123.535 79.8454 125.263 80.9974C127.039 82.1494 129.271 82.7254 131.959 82.7254ZM167.76 90.1414H159.264V49.6054H188.496V57.0214H167.76V65.5174H183.384V72.5014H167.76V90.1414ZM202.757 83.1574H224.789V90.1414H194.261V49.6054H224.069V57.0214H202.757V66.0934H218.885V73.1494H202.757V83.1574ZM247.449 90.9334C245.193 90.9334 242.985 90.6694 240.825 90.1414C238.665 89.6134 236.697 88.7734 234.921 87.6214C233.145 86.4694 231.729 84.9814 230.673 83.1574C229.665 81.3334 229.161 79.1254 229.161 76.5334H237.873C237.873 76.7734 237.969 77.2534 238.161 77.9734C238.353 78.6454 238.785 79.3894 239.457 80.2054C240.129 80.9734 241.161 81.6454 242.553 82.2214C243.945 82.7494 245.793 83.0134 248.097 83.0134C250.209 83.0134 251.937 82.6774 253.281 82.0054C254.673 81.2854 255.393 80.2534 255.441 78.9094C255.441 77.7574 254.961 76.8454 254.001 76.1734C253.089 75.5014 251.865 74.9494 250.329 74.5174C248.793 74.0374 247.089 73.6054 245.217 73.2214C243.393 72.8374 241.569 72.3574 239.745 71.7814C237.969 71.2054 236.337 70.4374 234.849 69.4774C233.361 68.5174 232.185 67.2934 231.321 65.8054C230.505 64.2694 230.169 62.3254 230.313 59.9734C230.553 56.5174 232.209 53.8054 235.281 51.8374C238.353 49.8694 242.529 48.8854 247.809 48.8854C250.737 48.8854 253.473 49.4134 256.017 50.4694C258.561 51.4774 260.625 53.0374 262.209 55.1494C263.793 57.2614 264.585 59.9254 264.585 63.1414H256.161C256.161 61.4134 255.633 60.1174 254.577 59.2534C253.521 58.3894 252.249 57.8134 250.761 57.5254C249.321 57.1894 248.025 57.0214 246.873 57.0214C244.761 57.0214 243.009 57.3574 241.617 58.0294C240.273 58.6534 239.601 59.6614 239.601 61.0534C239.601 62.2534 240.057 63.2134 240.969 63.9334C241.929 64.6534 243.201 65.2294 244.785 65.6614C246.369 66.0934 248.073 66.5014 249.897 66.8854C251.769 67.2214 253.617 67.6534 255.441 68.1814C257.313 68.7094 258.993 69.4534 260.481 70.4134C261.969 71.3254 263.145 72.5494 264.009 74.0854C264.873 75.5734 265.233 77.5174 265.089 79.9174C264.849 83.3734 263.121 86.0854 259.905 88.0534C256.689 89.9734 252.537 90.9334 247.449 90.9334ZM288.441 90.9334C286.185 90.9334 283.977 90.6694 281.817 90.1414C279.657 89.6134 277.689 88.7734 275.913 87.6214C274.137 86.4694 272.721 84.9814 271.665 83.1574C270.657 81.3334 270.153 79.1254 270.153 76.5334H278.865C278.865 76.7734 278.961 77.2534 279.153 77.9734C279.345 78.6454 279.777 79.3894 280.449 80.2054C281.121 80.9734 282.153 81.6454 283.545 82.2214C284.937 82.7494 286.785 83.0134 289.089 83.0134C291.201 83.0134 292.929 82.6774 294.273 82.0054C295.665 81.2854 296.385 80.2534 296.433 78.9094C296.433 77.7574 295.953 76.8454 294.993 76.1734C294.081 75.5014 292.857 74.9494 291.321 74.5174C289.785 74.0374 288.081 73.6054 286.209 73.2214C284.385 72.8374 282.561 72.3574 280.737 71.7814C278.961 71.2054 277.329 70.4374 275.841 69.4774C274.353 68.5174 273.177 67.2934 272.313 65.8054C271.497 64.2694 271.161 62.3254 271.305 59.9734C271.545 56.5174 273.201 53.8054 276.273 51.8374C279.345 49.8694 283.521 48.8854 288.801 48.8854C291.729 48.8854 294.465 49.4134 297.009 50.4694C299.553 51.4774 301.617 53.0374 303.201 55.1494C304.785 57.2614 305.577 59.9254 305.577 63.1414H297.153C297.153 61.4134 296.625 60.1174 295.569 59.2534C294.513 58.3894 293.241 57.8134 291.753 57.5254C290.313 57.1894 289.017 57.0214 287.865 57.0214C285.753 57.0214 284.001 57.3574 282.609 58.0294C281.265 58.6534 280.593 59.6614 280.593 61.0534C280.593 62.2534 281.049 63.2134 281.961 63.9334C282.921 64.6534 284.193 65.2294 285.777 65.6614C287.361 66.0934 289.065 66.5014 290.889 66.8854C292.761 67.2214 294.609 67.6534 296.433 68.1814C298.305 68.7094 299.985 69.4534 301.473 70.4134C302.961 71.3254 304.137 72.5494 305.001 74.0854C305.865 75.5734 306.225 77.5174 306.081 79.9174C305.841 83.3734 304.113 86.0854 300.897 88.0534C297.681 89.9734 293.529 90.9334 288.441 90.9334ZM333.033 82.7254V90.1414H313.809V82.7254H319.137V57.0214H313.809V49.6054H333.033V57.0214H327.777V82.7254H333.033ZM359.562 91.1494C352.938 91.1494 347.874 89.2534 344.37 85.4614C340.866 81.6214 339.114 76.4614 339.114 69.9814C339.114 65.7094 339.858 62.0134 341.346 58.8934C342.882 55.7254 345.162 53.2774 348.186 51.5494C351.21 49.7734 355.002 48.8854 359.562 48.8854C366.234 48.8854 371.298 50.8054 374.754 54.6454C378.21 58.4374 379.938 63.5494 379.938 69.9814C379.938 74.1574 379.17 77.8534 377.634 81.0694C376.098 84.2374 373.818 86.7094 370.794 88.4854C367.77 90.2614 364.026 91.1494 359.562 91.1494ZM359.49 82.7254C362.13 82.7254 364.338 82.1734 366.114 81.0694C367.89 79.9174 369.21 78.3814 370.074 76.4614C370.938 74.5414 371.37 72.3814 371.37 69.9814C371.37 67.5814 370.938 65.3974 370.074 63.4294C369.21 61.4614 367.89 59.9014 366.114 58.7494C364.338 57.5974 362.13 57.0214 359.49 57.0214C355.602 57.0214 352.65 58.2454 350.634 60.6934C348.618 63.0934 347.61 66.1894 347.61 69.9814C347.61 72.3334 348.042 74.4694 348.906 76.3894C349.77 78.3094 351.066 79.8454 352.794 80.9974C354.57 82.1494 356.802 82.7254 359.49 82.7254ZM413.651 49.6054H422.723V90.1414H406.091L395.363 53.4214H395.219V90.1414H386.219V49.6054H401.627L413.507 86.3254H413.651V49.6054ZM428.063 90.1414L440.375 49.6054H454.703L467.375 90.1414H458.087L455.063 79.3414H440.375L437.423 90.1414H428.063ZM447.719 53.2054L442.247 72.6454H453.191L447.719 53.2054ZM472.926 90.1414V49.6054H481.638V82.7254H500.358V90.1414H472.926ZM521.286 90.1414V49.6054H536.982C542.262 49.6054 546.39 50.5174 549.366 52.3414C552.39 54.1174 553.902 57.2374 553.902 61.7014C553.902 65.1574 553.086 67.8934 551.454 69.9094C549.87 71.9254 547.662 72.9334 544.83 72.9334C546.318 72.9334 547.446 73.2934 548.214 74.0134C548.982 74.6854 549.51 75.5254 549.798 76.5334C550.134 77.5414 550.374 78.5974 550.518 79.7014C550.71 80.7574 550.95 81.7174 551.238 82.5814C551.526 83.3974 552.006 83.9734 552.678 84.3094C553.398 84.5974 554.454 84.4534 555.846 83.8774V88.7014C554.742 89.6614 553.47 90.2854 552.03 90.5734C550.59 90.9094 549.198 90.8374 547.854 90.3574C546.51 89.8774 545.382 88.9414 544.47 87.5494C543.606 86.1094 543.174 84.1414 543.174 81.6454C543.174 80.0134 543.054 78.6454 542.814 77.5414C542.622 76.4374 542.118 75.5734 541.302 74.9494C540.486 74.3254 539.19 73.9174 537.414 73.7254C535.638 73.5334 533.166 73.5334 529.998 73.7254V90.1414H521.286ZM529.998 67.5334H536.19C538.446 67.5334 540.294 67.4614 541.734 67.3174C543.222 67.1734 544.326 66.7654 545.046 66.0934C545.766 65.3734 546.126 64.1494 546.126 62.4214C546.126 60.4534 545.694 59.0854 544.83 58.3174C543.966 57.5014 542.67 57.0214 540.942 56.8774C539.262 56.7334 537.198 56.6614 534.75 56.6614H529.998V67.5334ZM570.491 83.1574H592.523V90.1414H561.995V49.6054H591.803V57.0214H570.491V66.0934H586.619V73.1494H570.491V83.1574ZM615.183 90.9334C612.927 90.9334 610.719 90.6694 608.559 90.1414C606.399 89.6134 604.431 88.7734 602.655 87.6214C600.879 86.4694 599.463 84.9814 598.407 83.1574C597.399 81.3334 596.895 79.1254 596.895 76.5334H605.607C605.607 76.7734 605.703 77.2534 605.895 77.9734C606.087 78.6454 606.519 79.3894 607.191 80.2054C607.863 80.9734 608.895 81.6454 610.287 82.2214C611.679 82.7494 613.527 83.0134 615.831 83.0134C617.943 83.0134 619.671 82.6774 621.015 82.0054C622.407 81.2854 623.127 80.2534 623.175 78.9094C623.175 77.7574 622.695 76.8454 621.735 76.1734C620.823 75.5014 619.599 74.9494 618.063 74.5174C616.527 74.0374 614.823 73.6054 612.951 73.2214C611.127 72.8374 609.303 72.3574 607.479 71.7814C605.703 71.2054 604.071 70.4374 602.583 69.4774C601.095 68.5174 599.919 67.2934 599.055 65.8054C598.239 64.2694 597.903 62.3254 598.047 59.9734C598.287 56.5174 599.943 53.8054 603.015 51.8374C606.087 49.8694 610.263 48.8854 615.543 48.8854C618.471 48.8854 621.207 49.4134 623.751 50.4694C626.295 51.4774 628.359 53.0374 629.943 55.1494C631.527 57.2614 632.319 59.9254 632.319 63.1414H623.895C623.895 61.4134 623.367 60.1174 622.311 59.2534C621.255 58.3894 619.983 57.8134 618.495 57.5254C617.055 57.1894 615.759 57.0214 614.607 57.0214C612.495 57.0214 610.743 57.3574 609.351 58.0294C608.007 58.6534 607.335 59.6614 607.335 61.0534C607.335 62.2534 607.791 63.2134 608.703 63.9334C609.663 64.6534 610.935 65.2294 612.519 65.6614C614.103 66.0934 615.807 66.5014 617.631 66.8854C619.503 67.2214 621.351 67.6534 623.175 68.1814C625.047 68.7094 626.727 69.4534 628.215 70.4134C629.703 71.3254 630.879 72.5494 631.743 74.0854C632.607 75.5734 632.967 77.5174 632.823 79.9174C632.583 83.3734 630.855 86.0854 627.639 88.0534C624.423 89.9734 620.271 90.9334 615.183 90.9334ZM659.775 82.7254V90.1414H640.551V82.7254H645.879V57.0214H640.551V49.6054H659.775V57.0214H654.519V82.7254H659.775ZM706.249 69.8374C706.249 75.1654 705.193 79.3174 703.081 82.2934C700.969 85.2214 697.969 87.2614 694.081 88.4134C690.241 89.5654 685.729 90.1414 680.545 90.1414H669.169V49.6054H680.545C685.729 49.6054 690.241 50.3734 694.081 51.9094C697.969 53.3974 700.969 55.6294 703.081 58.6054C705.193 61.5814 706.249 65.3254 706.249 69.8374ZM677.737 83.0134H683.137C685.969 83.0134 688.417 82.6774 690.481 82.0054C692.593 81.2854 694.201 79.9894 695.305 78.1174C696.457 76.1974 697.033 73.4134 697.033 69.7654C697.033 65.5414 695.785 62.3734 693.289 60.2614C690.793 58.1494 687.409 57.0934 683.137 57.0934H677.737V83.0134ZM721.312 83.1574H743.344V90.1414H712.816V49.6054H742.624V57.0214H721.312V66.0934H737.44V73.1494H721.312V83.1574ZM777.308 49.6054H786.38V90.1414H769.748L759.02 53.4214H758.876V90.1414H749.876V49.6054H765.284L777.164 86.3254H777.308V49.6054ZM791.143 57.0214V49.6054H822.823V57.0214H811.303V90.1414H802.591V57.0214H791.143ZM848.072 82.7254V90.1414H828.848V82.7254H834.176V57.0214H828.848V49.6054H848.072V57.0214H842.816V82.7254H848.072ZM854.297 90.1414L866.609 49.6054H880.937L893.609 90.1414H884.321L881.297 79.3414H866.609L863.657 90.1414H854.297ZM873.953 53.2054L868.481 72.6454H879.425L873.953 53.2054ZM899.161 90.1414V49.6054H907.873V82.7254H926.593V90.1414H899.161ZM945.001 90.1414L957.313 49.6054H971.641L984.313 90.1414H975.025L972.001 79.3414H957.313L954.361 90.1414H945.001ZM964.657 53.2054L959.185 72.6454H970.129L964.657 53.2054ZM1016.79 49.6054H1025.86V90.1414H1009.23L998.504 53.4214H998.36V90.1414H989.36V49.6054H1004.77L1016.65 86.3254H1016.79V49.6054ZM1071.45 69.8374C1071.45 75.1654 1070.4 79.3174 1068.28 82.2934C1066.17 85.2214 1063.17 87.2614 1059.28 88.4134C1055.44 89.5654 1050.93 90.1414 1045.75 90.1414H1034.37V49.6054H1045.75C1050.93 49.6054 1055.44 50.3734 1059.28 51.9094C1063.17 53.3974 1066.17 55.6294 1068.28 58.6054C1070.4 61.5814 1071.45 65.3254 1071.45 69.8374ZM1042.94 83.0134H1048.34C1051.17 83.0134 1053.62 82.6774 1055.68 82.0054C1057.8 81.2854 1059.4 79.9894 1060.51 78.1174C1061.66 76.1974 1062.24 73.4134 1062.24 69.7654C1062.24 65.5414 1060.99 62.3734 1058.49 60.2614C1056 58.1494 1052.61 57.0934 1048.34 57.0934H1042.94V83.0134ZM124.476 175.861C120.636 175.861 117.156 175.093 114.036 173.557C110.916 171.973 108.444 169.645 106.62 166.573C104.796 163.501 103.908 159.685 103.956 155.125C103.956 150.613 104.868 146.773 106.692 143.605C108.516 140.437 110.988 138.037 114.108 136.405C117.228 134.725 120.756 133.885 124.692 133.885C128.58 133.885 131.892 134.581 134.628 135.973C137.364 137.365 139.5 139.237 141.036 141.589C142.62 143.941 143.652 146.533 144.132 149.365H135.132C134.844 147.349 134.124 145.837 132.972 144.829C131.82 143.773 130.476 143.053 128.94 142.669C127.452 142.285 126.036 142.093 124.692 142.093C120.708 142.093 117.684 143.173 115.62 145.333C113.556 147.493 112.524 150.541 112.524 154.477C112.524 158.701 113.508 161.965 115.476 164.269C117.492 166.573 120.54 167.725 124.62 167.725C126.012 167.725 127.476 167.509 129.012 167.077C130.548 166.645 131.892 165.877 133.044 164.773C134.244 163.621 134.988 162.037 135.276 160.021H144.348C143.82 162.949 142.764 165.613 141.18 168.013C139.596 170.365 137.412 172.261 134.628 173.701C131.844 175.141 128.46 175.861 124.476 175.861ZM167.926 176.149C161.302 176.149 156.238 174.253 152.734 170.461C149.23 166.621 147.478 161.461 147.478 154.981C147.478 150.709 148.222 147.013 149.71 143.893C151.246 140.725 153.526 138.277 156.55 136.549C159.574 134.773 163.366 133.885 167.926 133.885C174.598 133.885 179.662 135.805 183.118 139.645C186.574 143.437 188.302 148.549 188.302 154.981C188.302 159.157 187.534 162.853 185.998 166.069C184.462 169.237 182.182 171.709 179.158 173.485C176.134 175.261 172.39 176.149 167.926 176.149ZM167.854 167.725C170.494 167.725 172.702 167.173 174.478 166.069C176.254 164.917 177.574 163.381 178.438 161.461C179.302 159.541 179.734 157.381 179.734 154.981C179.734 152.581 179.302 150.397 178.438 148.429C177.574 146.461 176.254 144.901 174.478 143.749C172.702 142.597 170.494 142.021 167.854 142.021C163.966 142.021 161.014 143.245 158.998 145.693C156.982 148.093 155.974 151.189 155.974 154.981C155.974 157.333 156.406 159.469 157.27 161.389C158.134 163.309 159.43 164.845 161.158 165.997C162.934 167.149 165.166 167.725 167.854 167.725ZM194.871 175.141V134.605H209.991L217.767 171.469H217.911L225.543 134.605H240.591V175.141H231.591L232.239 138.349H232.095L224.103 175.141H211.431L203.511 138.349H203.367L203.871 175.141H194.871ZM248.871 175.141V134.605H263.991L271.767 171.469H271.911L279.543 134.605H294.591V175.141H285.591L286.239 138.349H286.095L278.103 175.141H265.431L257.511 138.349H257.367L257.871 175.141H248.871ZM310.863 168.157H332.895V175.141H302.367V134.605H332.175V142.021H310.863V151.093H326.991V158.149H310.863V168.157ZM339.282 175.141V134.605H354.978C360.258 134.605 364.386 135.517 367.362 137.341C370.386 139.117 371.898 142.237 371.898 146.701C371.898 150.157 371.082 152.893 369.45 154.909C367.866 156.925 365.658 157.933 362.826 157.933C364.314 157.933 365.442 158.293 366.21 159.013C366.978 159.685 367.506 160.525 367.794 161.533C368.13 162.541 368.37 163.597 368.514 164.701C368.706 165.757 368.946 166.717 369.234 167.581C369.522 168.397 370.002 168.973 370.674 169.309C371.394 169.597 372.45 169.453 373.842 168.877V173.701C372.738 174.661 371.466 175.285 370.026 175.573C368.586 175.909 367.194 175.837 365.85 175.357C364.506 174.877 363.378 173.941 362.466 172.549C361.602 171.109 361.17 169.141 361.17 166.645C361.17 165.013 361.05 163.645 360.81 162.541C360.618 161.437 360.114 160.573 359.298 159.949C358.482 159.325 357.186 158.917 355.41 158.725C353.634 158.533 351.162 158.533 347.994 158.725V175.141H339.282ZM347.994 152.533H354.186C356.442 152.533 358.29 152.461 359.73 152.317C361.218 152.173 362.322 151.765 363.042 151.093C363.762 150.373 364.122 149.149 364.122 147.421C364.122 145.453 363.69 144.085 362.826 143.317C361.962 142.501 360.666 142.021 358.938 141.877C357.258 141.733 355.194 141.661 352.746 141.661H347.994V152.533ZM397.992 175.861C394.152 175.861 390.672 175.093 387.552 173.557C384.432 171.973 381.96 169.645 380.136 166.573C378.312 163.501 377.424 159.685 377.472 155.125C377.472 150.613 378.384 146.773 380.208 143.605C382.032 140.437 384.504 138.037 387.624 136.405C390.744 134.725 394.272 133.885 398.208 133.885C402.096 133.885 405.408 134.581 408.144 135.973C410.88 137.365 413.016 139.237 414.552 141.589C416.136 143.941 417.168 146.533 417.648 149.365H408.648C408.36 147.349 407.64 145.837 406.488 144.829C405.336 143.773 403.992 143.053 402.456 142.669C400.968 142.285 399.552 142.093 398.208 142.093C394.224 142.093 391.2 143.173 389.136 145.333C387.072 147.493 386.04 150.541 386.04 154.477C386.04 158.701 387.024 161.965 388.992 164.269C391.008 166.573 394.056 167.725 398.136 167.725C399.528 167.725 400.992 167.509 402.528 167.077C404.064 166.645 405.408 165.877 406.56 164.773C407.76 163.621 408.504 162.037 408.792 160.021H417.864C417.336 162.949 416.28 165.613 414.696 168.013C413.112 170.365 410.928 172.261 408.144 173.701C405.36 175.141 401.976 175.861 397.992 175.861ZM443.529 167.725V175.141H424.305V167.725H429.633V142.021H424.305V134.605H443.529V142.021H438.273V167.725H443.529ZM449.754 175.141L462.066 134.605H476.394L489.066 175.141H479.778L476.754 164.341H462.066L459.114 175.141H449.754ZM469.41 138.205L463.938 157.645H474.882L469.41 138.205ZM494.618 175.141V134.605H503.33V167.725H522.05V175.141H494.618ZM560.906 175.861C557.066 175.861 553.586 175.093 550.466 173.557C547.346 171.973 544.874 169.645 543.05 166.573C541.226 163.501 540.338 159.685 540.386 155.125C540.386 150.613 541.298 146.773 543.122 143.605C544.946 140.437 547.418 138.037 550.538 136.405C553.658 134.725 557.186 133.885 561.122 133.885C565.01 133.885 568.322 134.581 571.058 135.973C573.794 137.365 575.93 139.237 577.466 141.589C579.05 143.941 580.082 146.533 580.562 149.365H571.562C571.274 147.349 570.554 145.837 569.402 144.829C568.25 143.773 566.906 143.053 565.37 142.669C563.882 142.285 562.466 142.093 561.122 142.093C557.138 142.093 554.114 143.173 552.05 145.333C549.986 147.493 548.954 150.541 548.954 154.477C548.954 158.701 549.938 161.965 551.906 164.269C553.922 166.573 556.97 167.725 561.05 167.725C562.442 167.725 563.906 167.509 565.442 167.077C566.978 166.645 568.322 165.877 569.474 164.773C570.674 163.621 571.418 162.037 571.706 160.021H580.778C580.25 162.949 579.194 165.613 577.61 168.013C576.026 170.365 573.842 172.261 571.058 173.701C568.274 175.141 564.89 175.861 560.906 175.861ZM587.219 175.141V134.605H595.931V167.725H614.651V175.141H587.219ZM628.956 168.157H650.988V175.141H620.46V134.605H650.268V142.021H628.956V151.093H645.084V158.149H628.956V168.157ZM654.856 175.141L667.168 134.605H681.496L694.168 175.141H684.88L681.856 164.341H667.168L664.216 175.141H654.856ZM674.512 138.205L669.04 157.645H679.984L674.512 138.205ZM726.647 134.605H735.719V175.141H719.087L708.359 138.421H708.215V175.141H699.215V134.605H714.623L726.503 171.325H726.647V134.605ZM763.451 167.725V175.141H744.227V167.725H749.555V142.021H744.227V134.605H763.451V142.021H758.195V167.725H763.451ZM799.772 134.605H808.844V175.141H792.212L781.484 138.421H781.34V175.141H772.34V134.605H787.748L799.628 171.325H799.772V134.605ZM833.768 175.933C829.784 175.933 826.304 175.141 823.328 173.557C820.352 171.973 818.048 169.645 816.416 166.573C814.832 163.453 814.088 159.637 814.184 155.125C814.28 150.517 815.24 146.653 817.064 143.533C818.888 140.365 821.336 137.965 824.408 136.333C827.528 134.701 831.104 133.885 835.136 133.885C840.848 133.885 845.216 135.085 848.24 137.485C851.264 139.885 853.304 143.365 854.36 147.925L845.936 149.221C845.504 147.397 844.712 145.957 843.56 144.901C842.456 143.845 841.16 143.101 839.672 142.669C838.184 142.237 836.672 142.021 835.136 142.021C830.816 142.021 827.672 143.173 825.704 145.477C823.784 147.781 822.8 150.781 822.752 154.477C822.752 158.701 823.904 161.917 826.208 164.125C828.56 166.333 831.896 167.437 836.216 167.437C838.52 167.437 840.704 166.957 842.768 165.997C844.88 165.037 846.32 163.333 847.088 160.885H839.384V154.621H855.152V175.141H849.32L847.376 169.021H847.232C846.416 170.749 844.88 172.333 842.624 173.773C840.368 175.213 837.416 175.933 833.768 175.933ZM874.512 175.141L886.824 134.605H901.152L913.824 175.141H904.536L901.512 164.341H886.824L883.872 175.141H874.512ZM894.168 138.205L888.696 157.645H899.64L894.168 138.205ZM946.304 134.605H955.376V175.141H938.744L928.016 138.421H927.872V175.141H918.872V134.605H934.28L946.16 171.325H946.304V134.605ZM1000.96 154.837C1000.96 160.165 999.907 164.317 997.795 167.293C995.683 170.221 992.683 172.261 988.795 173.413C984.955 174.565 980.443 175.141 975.259 175.141H963.883V134.605H975.259C980.443 134.605 984.955 135.373 988.795 136.909C992.683 138.397 995.683 140.629 997.795 143.605C999.907 146.581 1000.96 150.325 1000.96 154.837ZM972.451 168.013H977.851C980.683 168.013 983.131 167.677 985.195 167.005C987.307 166.285 988.915 164.989 990.019 163.117C991.171 161.197 991.747 158.413 991.747 154.765C991.747 150.541 990.499 147.373 988.003 145.261C985.507 143.149 982.123 142.093 977.851 142.093H972.451V168.013ZM139.933 253.157H161.965V260.141H131.437V219.605H161.245V227.021H139.933V236.093H156.061V243.149H139.933V253.157ZM195.929 219.605H205.001V260.141H188.369L177.641 223.421H177.497V260.141H168.497V219.605H183.905L195.785 256.325H195.929V219.605ZM240.724 219.605H250.228L237.268 260.141H222.796L209.836 219.605H219.34L229.996 256.541L240.724 219.605ZM275.342 252.725V260.141H256.118V252.725H261.446V227.021H256.118V219.605H275.342V227.021H270.086V252.725H275.342ZM285.282 260.141V219.605H300.978C306.258 219.605 310.386 220.517 313.362 222.341C316.386 224.117 317.898 227.237 317.898 231.701C317.898 235.157 317.082 237.893 315.45 239.909C313.866 241.925 311.658 242.933 308.826 242.933C310.314 242.933 311.442 243.293 312.21 244.013C312.978 244.685 313.506 245.525 313.794 246.533C314.13 247.541 314.37 248.597 314.514 249.701C314.706 250.757 314.946 251.717 315.234 252.581C315.522 253.397 316.002 253.973 316.674 254.309C317.394 254.597 318.45 254.453 319.842 253.877V258.701C318.738 259.661 317.466 260.285 316.026 260.573C314.586 260.909 313.194 260.837 311.85 260.357C310.506 259.877 309.378 258.941 308.466 257.549C307.602 256.109 307.17 254.141 307.17 251.645C307.17 250.013 307.05 248.645 306.81 247.541C306.618 246.437 306.114 245.573 305.298 244.949C304.482 244.325 303.186 243.917 301.41 243.725C299.634 243.533 297.162 243.533 293.994 243.725V260.141H285.282ZM293.994 237.533H300.186C302.442 237.533 304.29 237.461 305.73 237.317C307.218 237.173 308.322 236.765 309.042 236.093C309.762 235.373 310.122 234.149 310.122 232.421C310.122 230.453 309.69 229.085 308.826 228.317C307.962 227.501 306.666 227.021 304.938 226.877C303.258 226.733 301.194 226.661 298.746 226.661H293.994V237.533ZM343.848 261.149C337.224 261.149 332.16 259.253 328.656 255.461C325.152 251.621 323.4 246.461 323.4 239.981C323.4 235.709 324.144 232.013 325.632 228.893C327.168 225.725 329.448 223.277 332.472 221.549C335.496 219.773 339.288 218.885 343.848 218.885C350.52 218.885 355.584 220.805 359.04 224.645C362.496 228.437 364.224 233.549 364.224 239.981C364.224 244.157 363.456 247.853 361.92 251.069C360.384 254.237 358.104 256.709 355.08 258.485C352.056 260.261 348.312 261.149 343.848 261.149ZM343.776 252.725C346.416 252.725 348.624 252.173 350.4 251.069C352.176 249.917 353.496 248.381 354.36 246.461C355.224 244.541 355.656 242.381 355.656 239.981C355.656 237.581 355.224 235.397 354.36 233.429C353.496 231.461 352.176 229.901 350.4 228.749C348.624 227.597 346.416 227.021 343.776 227.021C339.888 227.021 336.936 228.245 334.92 230.693C332.904 233.093 331.896 236.189 331.896 239.981C331.896 242.333 332.328 244.469 333.192 246.389C334.056 248.309 335.352 249.845 337.08 250.997C338.856 252.149 341.088 252.725 343.776 252.725ZM397.936 219.605H407.008V260.141H390.376L379.648 223.421H379.504V260.141H370.504V219.605H385.912L397.792 256.325H397.936V219.605ZM415.3 260.141V219.605H430.42L438.196 256.469H438.34L445.972 219.605H461.02V260.141H452.02L452.668 223.349H452.524L444.532 260.141H431.86L423.94 223.349H423.796L424.3 260.141H415.3ZM477.292 253.157H499.324V260.141H468.796V219.605H498.604V227.021H477.292V236.093H493.42V243.149H477.292V253.157ZM533.288 219.605H542.36V260.141H525.728L515 223.421H514.856V260.141H505.856V219.605H521.264L533.144 256.325H533.288V219.605ZM547.124 227.021V219.605H578.804V227.021H567.284V260.141H558.572V227.021H547.124ZM579.059 260.141L591.371 219.605H605.699L618.371 260.141H609.083L606.059 249.341H591.371L588.419 260.141H579.059ZM598.715 223.205L593.243 242.645H604.187L598.715 223.205ZM623.922 260.141V219.605H632.634V252.725H651.354V260.141H623.922ZM688.554 260.933C686.298 260.933 684.09 260.669 681.93 260.141C679.77 259.613 677.802 258.773 676.026 257.621C674.25 256.469 672.834 254.981 671.778 253.157C670.77 251.333 670.266 249.125 670.266 246.533H678.978C678.978 246.773 679.074 247.253 679.266 247.973C679.458 248.645 679.89 249.389 680.562 250.205C681.234 250.973 682.266 251.645 683.658 252.221C685.05 252.749 686.898 253.013 689.202 253.013C691.314 253.013 693.042 252.677 694.386 252.005C695.778 251.285 696.498 250.253 696.546 248.909C696.546 247.757 696.066 246.845 695.106 246.173C694.194 245.501 692.97 244.949 691.434 244.517C689.898 244.037 688.194 243.605 686.322 243.221C684.498 242.837 682.674 242.357 680.85 241.781C679.074 241.205 677.442 240.437 675.954 239.477C674.466 238.517 673.29 237.293 672.426 235.805C671.61 234.269 671.274 232.325 671.418 229.973C671.658 226.517 673.314 223.805 676.386 221.837C679.458 219.869 683.634 218.885 688.914 218.885C691.842 218.885 694.578 219.413 697.122 220.469C699.666 221.477 701.73 223.037 703.314 225.149C704.898 227.261 705.69 229.925 705.69 233.141H697.266C697.266 231.413 696.738 230.117 695.682 229.253C694.626 228.389 693.354 227.813 691.866 227.525C690.426 227.189 689.13 227.021 687.978 227.021C685.866 227.021 684.114 227.357 682.722 228.029C681.378 228.653 680.706 229.661 680.706 231.053C680.706 232.253 681.162 233.213 682.074 233.933C683.034 234.653 684.306 235.229 685.89 235.661C687.474 236.093 689.178 236.501 691.002 236.885C692.874 237.221 694.722 237.653 696.546 238.181C698.418 238.709 700.098 239.453 701.586 240.413C703.074 241.325 704.25 242.549 705.114 244.085C705.978 245.573 706.338 247.517 706.194 249.917C705.954 253.373 704.226 256.085 701.01 258.053C697.794 259.973 693.642 260.933 688.554 260.933ZM721.698 253.157H743.73V260.141H713.202V219.605H743.01V227.021H721.698V236.093H737.826V243.149H721.698V253.157ZM750.118 260.141V219.605H765.814C771.094 219.605 775.222 220.517 778.198 222.341C781.222 224.117 782.734 227.237 782.734 231.701C782.734 235.157 781.918 237.893 780.286 239.909C778.702 241.925 776.494 242.933 773.662 242.933C775.15 242.933 776.278 243.293 777.046 244.013C777.814 244.685 778.342 245.525 778.63 246.533C778.966 247.541 779.206 248.597 779.35 249.701C779.542 250.757 779.782 251.717 780.07 252.581C780.358 253.397 780.838 253.973 781.51 254.309C782.23 254.597 783.286 254.453 784.678 253.877V258.701C783.574 259.661 782.302 260.285 780.862 260.573C779.422 260.909 778.03 260.837 776.686 260.357C775.342 259.877 774.214 258.941 773.302 257.549C772.438 256.109 772.006 254.141 772.006 251.645C772.006 250.013 771.886 248.645 771.646 247.541C771.454 246.437 770.95 245.573 770.134 244.949C769.318 244.325 768.022 243.917 766.246 243.725C764.47 243.533 761.998 243.533 758.83 243.725V260.141H750.118ZM758.83 237.533H765.022C767.278 237.533 769.126 237.461 770.566 237.317C772.054 237.173 773.158 236.765 773.878 236.093C774.598 235.373 774.958 234.149 774.958 232.421C774.958 230.453 774.526 229.085 773.662 228.317C772.798 227.501 771.502 227.021 769.774 226.877C768.094 226.733 766.03 226.661 763.582 226.661H758.83V237.533ZM817.849 219.605H827.353L814.393 260.141H799.921L786.961 219.605H796.465L807.121 256.541L817.849 219.605ZM852.467 252.725V260.141H833.243V252.725H838.571V227.021H833.243V219.605H852.467V227.021H847.211V252.725H852.467ZM879.14 260.861C875.3 260.861 871.82 260.093 868.7 258.557C865.58 256.973 863.108 254.645 861.284 251.573C859.46 248.501 858.572 244.685 858.62 240.125C858.62 235.613 859.532 231.773 861.356 228.605C863.18 225.437 865.652 223.037 868.772 221.405C871.892 219.725 875.42 218.885 879.356 218.885C883.244 218.885 886.556 219.581 889.292 220.973C892.028 222.365 894.164 224.237 895.7 226.589C897.284 228.941 898.316 231.533 898.796 234.365H889.796C889.508 232.349 888.788 230.837 887.636 229.829C886.484 228.773 885.14 228.053 883.604 227.669C882.116 227.285 880.7 227.093 879.356 227.093C875.372 227.093 872.348 228.173 870.284 230.333C868.22 232.493 867.188 235.541 867.188 239.477C867.188 243.701 868.172 246.965 870.14 249.269C872.156 251.573 875.204 252.725 879.284 252.725C880.676 252.725 882.14 252.509 883.676 252.077C885.212 251.645 886.556 250.877 887.708 249.773C888.908 248.621 889.652 247.037 889.94 245.021H899.012C898.484 247.949 897.428 250.613 895.844 253.013C894.26 255.365 892.076 257.261 889.292 258.701C886.508 260.141 883.124 260.861 879.14 260.861ZM913.23 253.157H935.262V260.141H904.734V219.605H934.542V227.021H913.23V236.093H929.358V243.149H913.23V253.157ZM957.921 260.933C955.665 260.933 953.457 260.669 951.297 260.141C949.137 259.613 947.169 258.773 945.393 257.621C943.617 256.469 942.201 254.981 941.145 253.157C940.137 251.333 939.633 249.125 939.633 246.533H948.345C948.345 246.773 948.441 247.253 948.633 247.973C948.825 248.645 949.257 249.389 949.929 250.205C950.601 250.973 951.633 251.645 953.025 252.221C954.417 252.749 956.265 253.013 958.569 253.013C960.681 253.013 962.409 252.677 963.753 252.005C965.145 251.285 965.865 250.253 965.913 248.909C965.913 247.757 965.433 246.845 964.473 246.173C963.561 245.501 962.337 244.949 960.801 244.517C959.265 244.037 957.561 243.605 955.689 243.221C953.865 242.837 952.041 242.357 950.217 241.781C948.441 241.205 946.809 240.437 945.321 239.477C943.833 238.517 942.657 237.293 941.793 235.805C940.977 234.269 940.641 232.325 940.785 229.973C941.025 226.517 942.681 223.805 945.753 221.837C948.825 219.869 953.001 218.885 958.281 218.885C961.209 218.885 963.945 219.413 966.489 220.469C969.033 221.477 971.097 223.037 972.681 225.149C974.265 227.261 975.057 229.925 975.057 233.141H966.633C966.633 231.413 966.105 230.117 965.049 229.253C963.993 228.389 962.721 227.813 961.233 227.525C959.793 227.189 958.497 227.021 957.345 227.021C955.233 227.021 953.481 227.357 952.089 228.029C950.745 228.653 950.073 229.661 950.073 231.053C950.073 232.253 950.529 233.213 951.441 233.933C952.401 234.653 953.673 235.229 955.257 235.661C956.841 236.093 958.545 236.501 960.369 236.885C962.241 237.221 964.089 237.653 965.913 238.181C967.785 238.709 969.465 239.453 970.953 240.413C972.441 241.325 973.617 242.549 974.481 244.085C975.345 245.573 975.705 247.517 975.561 249.917C975.321 253.373 973.593 256.085 970.377 258.053C967.161 259.973 963.009 260.933 957.921 260.933Z" fill="#EDF5FA"/>
<defs>
<linearGradient id="paint0_linear_38_531" x1="251.806" y1="15.1413" x2="1015.64" y2="15.1413" gradientUnits="userSpaceOnUse">
<stop stop-color="white"/>
<stop offset="1" stop-color="#4FA0CA"/>
</linearGradient>
</defs>
</svg>
