<svg width="908" height="185" viewBox="0 0 908 185" fill="none" xmlns="http://www.w3.org/2000/svg">
<path d="M385.506 24.098C384.611 24.098 383.753 23.9587 382.932 23.68C382.111 23.3867 381.436 22.932 380.908 22.316C380.395 21.6853 380.131 20.8713 380.116 19.874H381.964C381.964 19.9327 381.986 20.1013 382.03 20.38C382.089 20.644 382.228 20.9373 382.448 21.26C382.683 21.568 383.049 21.8393 383.548 22.074C384.047 22.3087 384.743 22.426 385.638 22.426C386.357 22.426 386.921 22.3233 387.332 22.118C387.757 21.9127 388.051 21.6707 388.212 21.392C388.388 21.1133 388.483 20.864 388.498 20.644C388.498 20.1893 388.351 19.8227 388.058 19.544C387.779 19.2653 387.398 19.0453 386.914 18.884C386.43 18.708 385.895 18.554 385.308 18.422C384.736 18.2753 384.164 18.1213 383.592 17.96C383.02 17.784 382.492 17.5567 382.008 17.278C381.539 16.9993 381.165 16.64 380.886 16.2C380.622 15.7453 380.512 15.166 380.556 14.462C380.6 13.45 381.077 12.658 381.986 12.086C382.91 11.514 384.098 11.228 385.55 11.228C386.401 11.228 387.193 11.382 387.926 11.69C388.659 11.998 389.246 12.46 389.686 13.076C390.126 13.692 390.346 14.462 390.346 15.386H388.564C388.564 14.8727 388.454 14.462 388.234 14.154C388.014 13.8313 387.735 13.582 387.398 13.406C387.061 13.23 386.709 13.1127 386.342 13.054C385.975 12.9807 385.645 12.944 385.352 12.944C384.516 12.944 383.827 13.098 383.284 13.406C382.756 13.714 382.492 14.132 382.492 14.66C382.477 15.1293 382.617 15.5033 382.91 15.782C383.203 16.0607 383.592 16.2807 384.076 16.442C384.56 16.6033 385.088 16.75 385.66 16.882C386.247 17.014 386.826 17.1607 387.398 17.322C387.985 17.4833 388.513 17.7033 388.982 17.982C389.466 18.246 389.84 18.6127 390.104 19.082C390.383 19.5367 390.507 20.116 390.478 20.82C390.434 21.5093 390.192 22.1033 389.752 22.602C389.327 23.086 388.747 23.46 388.014 23.724C387.281 23.9733 386.445 24.098 385.506 24.098ZM398.795 22.338H405.791V23.834H396.991V11.448H405.571V13.032H398.795V16.794H404.075V18.312H398.795V22.338ZM413.98 22.338H420.976V23.834H412.176V11.448H420.756V13.032H413.98V16.794H419.26V18.312H413.98V22.338ZM435.975 23.834L440.133 11.448H443.147L447.393 23.834H445.435L444.247 20.138H439.099L437.911 23.834H435.975ZM441.673 12.218L439.583 18.686H443.763L441.673 12.218ZM473.909 17.63C473.909 19.258 473.593 20.5267 472.963 21.436C472.332 22.3307 471.445 22.954 470.301 23.306C469.171 23.658 467.844 23.834 466.319 23.834H462.975V11.448H466.319C467.844 11.448 469.171 11.6827 470.301 12.152C471.445 12.6067 472.332 13.2887 472.963 14.198C473.593 15.1073 473.909 16.2513 473.909 17.63ZM464.801 22.294H466.803C467.844 22.294 468.753 22.1767 469.531 21.942C470.308 21.6927 470.909 21.2307 471.335 20.556C471.76 19.8813 471.973 18.8987 471.973 17.608C471.973 16.068 471.503 14.924 470.565 14.176C469.626 13.4133 468.372 13.032 466.803 13.032H464.801V22.294ZM482.085 22.338H489.081V23.834H480.281V11.448H488.861V13.032H482.085V16.794H487.365V18.312H482.085V22.338ZM495.533 23.834V11.448H498.701L502.177 23.02H502.221L505.631 11.448H508.799V23.834H506.929L507.039 12.306H506.995L503.519 23.834H500.813L497.359 12.306H497.315L497.403 23.834H495.533ZM521.003 24.142C519.023 24.142 517.512 23.5627 516.471 22.404C515.43 21.2307 514.909 19.654 514.909 17.674C514.909 16.3687 515.129 15.2393 515.569 14.286C516.024 13.318 516.698 12.57 517.593 12.042C518.502 11.4993 519.639 11.228 521.003 11.228C522.983 11.228 524.486 11.8147 525.513 12.988C526.554 14.1467 527.075 15.7087 527.075 17.674C527.075 18.95 526.84 20.0793 526.371 21.062C525.916 22.03 525.234 22.7853 524.325 23.328C523.43 23.8707 522.323 24.142 521.003 24.142ZM520.981 22.382C522.404 22.382 523.474 21.942 524.193 21.062C524.912 20.182 525.271 19.0527 525.271 17.674C525.271 16.2953 524.912 15.166 524.193 14.286C523.489 13.3913 522.418 12.944 520.981 12.944C519.573 12.944 518.502 13.3693 517.769 14.22C517.05 15.0707 516.691 16.222 516.691 17.674C516.691 18.5833 516.845 19.3973 517.153 20.116C517.461 20.82 517.93 21.3773 518.561 21.788C519.206 22.184 520.013 22.382 520.981 22.382Z" fill="url(#paint0_linear_59_1957)"/>
<path d="M154.425 100.434C151.225 100.434 148.325 99.794 145.725 98.514C143.125 97.194 141.065 95.254 139.545 92.694C138.025 90.134 137.285 86.954 137.325 83.154C137.325 79.394 138.085 76.194 139.605 73.554C141.125 70.914 143.185 68.914 145.785 67.554C148.385 66.154 151.325 65.454 154.605 65.454C157.845 65.454 160.605 66.034 162.885 67.194C165.165 68.354 166.945 69.914 168.225 71.874C169.545 73.834 170.405 75.994 170.805 78.354H163.305C163.065 76.674 162.465 75.414 161.505 74.574C160.545 73.694 159.425 73.094 158.145 72.774C156.905 72.454 155.725 72.294 154.605 72.294C151.285 72.294 148.765 73.194 147.045 74.994C145.325 76.794 144.465 79.334 144.465 82.614C144.465 86.134 145.285 88.854 146.925 90.774C148.605 92.694 151.145 93.654 154.545 93.654C155.705 93.654 156.925 93.474 158.205 93.114C159.485 92.754 160.605 92.114 161.565 91.194C162.565 90.234 163.185 88.914 163.425 87.234H170.985C170.545 89.674 169.665 91.894 168.345 93.894C167.025 95.854 165.205 97.434 162.885 98.634C160.565 99.834 157.745 100.434 154.425 100.434ZM176.353 99.834V66.054H183.613V93.654H199.213V99.834H176.353ZM220.674 93.654V99.834H204.654V93.654H209.094V72.234H204.654V66.054H220.674V72.234H216.294V93.654H220.674ZM242.901 100.434C239.701 100.434 236.801 99.794 234.201 98.514C231.601 97.194 229.541 95.254 228.021 92.694C226.501 90.134 225.761 86.954 225.801 83.154C225.801 79.394 226.561 76.194 228.081 73.554C229.601 70.914 231.661 68.914 234.261 67.554C236.861 66.154 239.801 65.454 243.081 65.454C246.321 65.454 249.081 66.034 251.361 67.194C253.641 68.354 255.421 69.914 256.701 71.874C258.021 73.834 258.881 75.994 259.281 78.354H251.781C251.541 76.674 250.941 75.414 249.981 74.574C249.021 73.694 247.901 73.094 246.621 72.774C245.381 72.454 244.201 72.294 243.081 72.294C239.761 72.294 237.241 73.194 235.521 74.994C233.801 76.794 232.941 79.334 232.941 82.614C232.941 86.134 233.761 88.854 235.401 90.774C237.081 92.694 239.621 93.654 243.021 93.654C244.181 93.654 245.401 93.474 246.681 93.114C247.961 92.754 249.081 92.114 250.041 91.194C251.041 90.234 251.661 88.914 251.901 87.234H259.461C259.021 89.674 258.141 91.894 256.821 93.894C255.501 95.854 253.681 97.434 251.361 98.634C249.041 99.834 246.221 100.434 242.901 100.434ZM264.889 99.834V66.054H272.089V81.174L285.649 66.054H295.069V66.774L282.169 79.374L295.789 99.114V99.834H287.509L276.949 84.474L272.089 89.214V99.834H264.889ZM327.098 100.674C321.578 100.674 317.358 99.094 314.438 95.934C311.518 92.734 310.058 88.434 310.058 83.034C310.058 79.474 310.678 76.394 311.918 73.794C313.198 71.154 315.098 69.114 317.618 67.674C320.138 66.194 323.298 65.454 327.098 65.454C332.658 65.454 336.878 67.054 339.758 70.254C342.638 73.414 344.078 77.674 344.078 83.034C344.078 86.514 343.438 89.594 342.158 92.274C340.878 94.914 338.978 96.974 336.458 98.454C333.938 99.934 330.818 100.674 327.098 100.674ZM327.038 93.654C329.238 93.654 331.078 93.194 332.558 92.274C334.038 91.314 335.138 90.034 335.858 88.434C336.578 86.834 336.938 85.034 336.938 83.034C336.938 81.034 336.578 79.214 335.858 77.574C335.138 75.934 334.038 74.634 332.558 73.674C331.078 72.714 329.238 72.234 327.038 72.234C323.798 72.234 321.338 73.254 319.658 75.294C317.978 77.294 317.138 79.874 317.138 83.034C317.138 84.994 317.498 86.774 318.218 88.374C318.938 89.974 320.018 91.254 321.458 92.214C322.938 93.174 324.798 93.654 327.038 93.654ZM372.172 66.054H379.732V99.834H365.872L356.932 69.234H356.812V99.834H349.312V66.054H362.152L372.052 96.654H372.172V66.054ZM396.241 72.234V66.054H422.641V72.234H413.041V99.834H405.781V72.234H396.241ZM434.441 99.834H427.181V66.054H434.441V79.974H448.961V66.054H456.161V99.834H448.961V85.494H434.441V99.834ZM479.189 93.654V99.834H463.169V93.654H467.609V72.234H463.169V66.054H479.189V72.234H474.809V93.654H479.189ZM500.037 100.494C498.157 100.494 496.317 100.274 494.517 99.834C492.717 99.394 491.077 98.694 489.597 97.734C488.117 96.774 486.937 95.534 486.057 94.014C485.217 92.494 484.797 90.654 484.797 88.494H492.057C492.057 88.694 492.137 89.094 492.297 89.694C492.457 90.254 492.817 90.874 493.377 91.554C493.937 92.194 494.797 92.754 495.957 93.234C497.117 93.674 498.657 93.894 500.577 93.894C502.337 93.894 503.777 93.614 504.897 93.054C506.057 92.454 506.657 91.594 506.697 90.474C506.697 89.514 506.297 88.754 505.497 88.194C504.737 87.634 503.717 87.174 502.437 86.814C501.157 86.414 499.737 86.054 498.177 85.734C496.657 85.414 495.137 85.014 493.617 84.534C492.137 84.054 490.777 83.414 489.537 82.614C488.297 81.814 487.317 80.794 486.597 79.554C485.917 78.274 485.637 76.654 485.757 74.694C485.957 71.814 487.337 69.554 489.897 67.914C492.457 66.274 495.937 65.454 500.337 65.454C502.777 65.454 505.057 65.894 507.177 66.774C509.297 67.614 511.017 68.914 512.337 70.674C513.657 72.434 514.317 74.654 514.317 77.334H507.297C507.297 75.894 506.857 74.814 505.977 74.094C505.097 73.374 504.037 72.894 502.797 72.654C501.597 72.374 500.517 72.234 499.557 72.234C497.797 72.234 496.337 72.514 495.177 73.074C494.057 73.594 493.497 74.434 493.497 75.594C493.497 76.594 493.877 77.394 494.637 77.994C495.437 78.594 496.497 79.074 497.817 79.434C499.137 79.794 500.557 80.134 502.077 80.454C503.637 80.734 505.177 81.094 506.697 81.534C508.257 81.974 509.657 82.594 510.897 83.394C512.137 84.154 513.117 85.174 513.837 86.454C514.557 87.694 514.857 89.314 514.737 91.314C514.537 94.194 513.097 96.454 510.417 98.094C507.737 99.694 504.277 100.494 500.037 100.494ZM556.396 66.054H564.316L553.516 99.834H541.456L530.656 66.054H538.576L547.456 96.834L556.396 66.054ZM585.244 93.654V99.834H569.224V93.654H573.664V72.234H569.224V66.054H585.244V72.234H580.864V93.654H585.244ZM623.972 82.914C623.972 87.354 623.092 90.814 621.332 93.294C619.572 95.734 617.072 97.434 613.832 98.394C610.632 99.354 606.872 99.834 602.552 99.834H593.072V66.054H602.552C606.872 66.054 610.632 66.694 613.832 67.974C617.072 69.214 619.572 71.074 621.332 73.554C623.092 76.034 623.972 79.154 623.972 82.914ZM600.212 93.894H604.712C607.072 93.894 609.112 93.614 610.832 93.054C612.592 92.454 613.932 91.374 614.852 89.814C615.812 88.214 616.292 85.894 616.292 82.854C616.292 79.334 615.252 76.694 613.172 74.934C611.092 73.174 608.272 72.294 604.712 72.294H600.212V93.894ZM636.524 94.014H654.884V99.834H629.444V66.054H654.284V72.234H636.524V79.794H649.964V85.674H636.524V94.014ZM675.027 100.674C669.507 100.674 665.287 99.094 662.367 95.934C659.447 92.734 657.987 88.434 657.987 83.034C657.987 79.474 658.607 76.394 659.847 73.794C661.127 71.154 663.027 69.114 665.547 67.674C668.067 66.194 671.227 65.454 675.027 65.454C680.587 65.454 684.807 67.054 687.687 70.254C690.567 73.414 692.007 77.674 692.007 83.034C692.007 86.514 691.367 89.594 690.087 92.274C688.807 94.914 686.907 96.974 684.387 98.454C681.867 99.934 678.747 100.674 675.027 100.674ZM674.967 93.654C677.167 93.654 679.007 93.194 680.487 92.274C681.967 91.314 683.067 90.034 683.787 88.434C684.507 86.834 684.867 85.034 684.867 83.034C684.867 81.034 684.507 79.214 683.787 77.574C683.067 75.934 681.967 74.634 680.487 73.674C679.007 72.714 677.167 72.234 674.967 72.234C671.727 72.234 669.267 73.254 667.587 75.294C665.907 77.294 665.067 79.874 665.067 83.034C665.067 84.994 665.427 86.774 666.147 88.374C666.867 89.974 667.947 91.254 669.387 92.214C670.867 93.174 672.727 93.654 674.967 93.654ZM707.08 72.234V66.054H733.48V72.234H723.88V99.834H716.62V72.234H707.08ZM752.781 100.674C747.261 100.674 743.041 99.094 740.121 95.934C737.201 92.734 735.741 88.434 735.741 83.034C735.741 79.474 736.361 76.394 737.601 73.794C738.881 71.154 740.781 69.114 743.301 67.674C745.821 66.194 748.981 65.454 752.781 65.454C758.341 65.454 762.561 67.054 765.441 70.254C768.321 73.414 769.761 77.674 769.761 83.034C769.761 86.514 769.121 89.594 767.841 92.274C766.561 94.914 764.661 96.974 762.141 98.454C759.621 99.934 756.501 100.674 752.781 100.674ZM752.721 93.654C754.921 93.654 756.761 93.194 758.241 92.274C759.721 91.314 760.821 90.034 761.541 88.434C762.261 86.834 762.621 85.034 762.621 83.034C762.621 81.034 762.261 79.214 761.541 77.574C760.821 75.934 759.721 74.634 758.241 73.674C756.761 72.714 754.921 72.234 752.721 72.234C749.481 72.234 747.021 73.254 745.341 75.294C743.661 77.294 742.821 79.874 742.821 83.034C742.821 84.994 743.181 86.774 743.901 88.374C744.621 89.974 745.701 91.254 747.141 92.214C748.621 93.174 750.481 93.654 752.721 93.654ZM234.08 172.494C232.2 172.494 230.36 172.274 228.56 171.834C226.76 171.394 225.12 170.694 223.64 169.734C222.16 168.774 220.98 167.534 220.1 166.014C219.26 164.494 218.84 162.654 218.84 160.494H226.1C226.1 160.694 226.18 161.094 226.34 161.694C226.5 162.254 226.86 162.874 227.42 163.554C227.98 164.194 228.84 164.754 230 165.234C231.16 165.674 232.7 165.894 234.62 165.894C236.38 165.894 237.82 165.614 238.94 165.054C240.1 164.454 240.7 163.594 240.74 162.474C240.74 161.514 240.34 160.754 239.54 160.194C238.78 159.634 237.76 159.174 236.48 158.814C235.2 158.414 233.78 158.054 232.22 157.734C230.7 157.414 229.18 157.014 227.66 156.534C226.18 156.054 224.82 155.414 223.58 154.614C222.34 153.814 221.36 152.794 220.64 151.554C219.96 150.274 219.68 148.654 219.8 146.694C220 143.814 221.38 141.554 223.94 139.914C226.5 138.274 229.98 137.454 234.38 137.454C236.82 137.454 239.1 137.894 241.22 138.774C243.34 139.614 245.06 140.914 246.38 142.674C247.7 144.434 248.36 146.654 248.36 149.334H241.34C241.34 147.894 240.9 146.814 240.02 146.094C239.14 145.374 238.08 144.894 236.84 144.654C235.64 144.374 234.56 144.234 233.6 144.234C231.84 144.234 230.38 144.514 229.22 145.074C228.1 145.594 227.54 146.434 227.54 147.594C227.54 148.594 227.92 149.394 228.68 149.994C229.48 150.594 230.54 151.074 231.86 151.434C233.18 151.794 234.6 152.134 236.12 152.454C237.68 152.734 239.22 153.094 240.74 153.534C242.3 153.974 243.7 154.594 244.94 155.394C246.18 156.154 247.16 157.174 247.88 158.454C248.6 159.694 248.9 161.314 248.78 163.314C248.58 166.194 247.14 168.454 244.46 170.094C241.78 171.694 238.32 172.494 234.08 172.494ZM261.7 166.014H280.06V171.834H254.62V138.054H279.46V144.234H261.7V151.794H275.14V157.674H261.7V166.014ZM292.403 166.014H310.763V171.834H285.323V138.054H310.163V144.234H292.403V151.794H305.843V157.674H292.403V166.014ZM335.945 171.834H328.685V138.054H335.945V151.974H350.465V138.054H357.665V171.834H350.465V157.494H335.945V171.834ZM378.953 172.674C373.433 172.674 369.213 171.094 366.293 167.934C363.373 164.734 361.913 160.434 361.913 155.034C361.913 151.474 362.533 148.394 363.773 145.794C365.053 143.154 366.953 141.114 369.473 139.674C371.993 138.194 375.153 137.454 378.953 137.454C384.513 137.454 388.733 139.054 391.613 142.254C394.493 145.414 395.933 149.674 395.933 155.034C395.933 158.514 395.293 161.594 394.013 164.274C392.733 166.914 390.833 168.974 388.313 170.454C385.793 171.934 382.673 172.674 378.953 172.674ZM378.893 165.654C381.093 165.654 382.933 165.194 384.413 164.274C385.893 163.314 386.993 162.034 387.713 160.434C388.433 158.834 388.793 157.034 388.793 155.034C388.793 153.034 388.433 151.214 387.713 149.574C386.993 147.934 385.893 146.634 384.413 145.674C382.933 144.714 381.093 144.234 378.893 144.234C375.653 144.234 373.193 145.254 371.513 147.294C369.833 149.294 368.993 151.874 368.993 155.034C368.993 156.994 369.353 158.774 370.073 160.374C370.793 161.974 371.873 163.254 373.313 164.214C374.793 165.174 376.653 165.654 378.893 165.654ZM437.647 138.054H445.327L438.187 171.834H426.547L422.167 147.234L417.907 171.834H406.267L398.887 138.054H406.567L412.087 168.834L418.267 138.174L418.207 138.054H426.007L432.367 168.834L437.647 138.054ZM498.819 138.054H506.499L499.359 171.834H487.719L483.339 147.234L479.079 171.834H467.439L460.059 138.054H467.739L473.259 168.834L479.439 138.174L479.379 138.054H487.179L493.539 168.834L498.819 138.054ZM518.868 166.014H537.228V171.834H511.788V138.054H536.628V144.234H518.868V151.794H532.308V157.674H518.868V166.014ZM586.53 154.914C586.53 159.354 585.65 162.814 583.89 165.294C582.13 167.734 579.63 169.434 576.39 170.394C573.19 171.354 569.43 171.834 565.11 171.834H555.63V138.054H565.11C569.43 138.054 573.19 138.694 576.39 139.974C579.63 141.214 582.13 143.074 583.89 145.554C585.65 148.034 586.53 151.154 586.53 154.914ZM562.77 165.894H567.27C569.63 165.894 571.67 165.614 573.39 165.054C575.15 164.454 576.49 163.374 577.41 161.814C578.37 160.214 578.85 157.894 578.85 154.854C578.85 151.334 577.81 148.694 575.73 146.934C573.65 145.174 570.83 144.294 567.27 144.294H562.77V165.894ZM607.059 172.674C601.539 172.674 597.319 171.094 594.399 167.934C591.479 164.734 590.019 160.434 590.019 155.034C590.019 151.474 590.639 148.394 591.879 145.794C593.159 143.154 595.059 141.114 597.579 139.674C600.099 138.194 603.259 137.454 607.059 137.454C612.619 137.454 616.839 139.054 619.719 142.254C622.599 145.414 624.039 149.674 624.039 155.034C624.039 158.514 623.399 161.594 622.119 164.274C620.839 166.914 618.939 168.974 616.419 170.454C613.899 171.934 610.779 172.674 607.059 172.674ZM606.999 165.654C609.199 165.654 611.039 165.194 612.519 164.274C613.999 163.314 615.099 162.034 615.819 160.434C616.539 158.834 616.899 157.034 616.899 155.034C616.899 153.034 616.539 151.214 615.819 149.574C615.099 147.934 613.999 146.634 612.519 145.674C611.039 144.714 609.199 144.234 606.999 144.234C603.759 144.234 601.299 145.254 599.619 147.294C597.939 149.294 597.099 151.874 597.099 155.034C597.099 156.994 597.459 158.774 598.179 160.374C598.899 161.974 599.979 163.254 601.419 164.214C602.899 165.174 604.759 165.654 606.999 165.654ZM658.252 165.654V171.834H642.232V165.654H646.672V144.234H642.232V138.054H658.252V144.234H653.872V165.654H658.252ZM662.959 144.234V138.054H689.359V144.234H679.759V171.834H672.499V144.234H662.959Z" fill="#133063"/>
<defs>
<linearGradient id="paint0_linear_59_1957" x1="413.388" y1="15.834" x2="516.292" y2="15.8339" gradientUnits="userSpaceOnUse">
<stop stop-color="#133063"/>
<stop offset="1" stop-color="#4FA0CA"/>
</linearGradient>
</defs>
</svg>
