<svg width="372" height="178" viewBox="0 0 372 178" fill="none" xmlns="http://www.w3.org/2000/svg">
<path d="M111.383 39.194C109.487 39.194 107.771 38.81 106.235 38.042C104.699 37.25 103.475 36.086 102.563 34.55C101.675 33.014 101.231 31.094 101.231 28.79C101.255 26.534 101.711 24.614 102.599 23.03C103.487 21.446 104.699 20.246 106.235 19.43C107.771 18.614 109.523 18.206 111.491 18.206C113.363 18.206 114.959 18.542 116.279 19.214C117.599 19.886 118.655 20.798 119.447 21.95C120.263 23.102 120.791 24.398 121.031 25.838H117.251C117.083 24.782 116.687 23.954 116.063 23.354C115.463 22.73 114.755 22.298 113.939 22.058C113.123 21.794 112.307 21.662 111.491 21.662C109.355 21.662 107.711 22.262 106.559 23.462C105.431 24.662 104.867 26.354 104.867 28.538C104.867 30.866 105.419 32.654 106.523 33.902C107.651 35.15 109.283 35.774 111.419 35.774C112.307 35.774 113.171 35.642 114.011 35.378C114.851 35.09 115.571 34.634 116.171 34.01C116.771 33.362 117.155 32.498 117.323 31.418H121.139C120.875 32.906 120.335 34.238 119.519 35.414C118.727 36.566 117.647 37.49 116.279 38.186C114.935 38.858 113.303 39.194 111.383 39.194ZM130.52 39.194C128.84 39.194 127.448 38.87 126.344 38.222C125.24 37.574 124.412 36.686 123.86 35.558C123.308 34.406 123.032 33.098 123.032 31.634C123.008 29.426 123.62 27.614 124.868 26.198C126.14 24.758 128.024 24.038 130.52 24.038C132.944 24.038 134.78 24.734 136.028 26.126C137.3 27.518 137.936 29.354 137.936 31.634C137.936 33.05 137.672 34.334 137.144 35.486C136.616 36.638 135.8 37.55 134.696 38.222C133.592 38.87 132.2 39.194 130.52 39.194ZM130.52 36.098C131.576 36.098 132.38 35.87 132.932 35.414C133.508 34.958 133.892 34.382 134.084 33.686C134.276 32.966 134.372 32.246 134.372 31.526C134.372 30.782 134.276 30.05 134.084 29.33C133.892 28.61 133.508 28.022 132.932 27.566C132.38 27.11 131.576 26.882 130.52 26.882C129.44 26.882 128.612 27.122 128.036 27.602C127.484 28.058 127.1 28.646 126.884 29.366C126.692 30.062 126.596 30.782 126.596 31.526C126.596 32.246 126.692 32.966 126.884 33.686C127.1 34.382 127.484 34.958 128.036 35.414C128.612 35.87 129.44 36.098 130.52 36.098ZM140.516 38.834V24.11H143.648L144.26 27.242H144.332C144.356 27.17 144.44 26.978 144.584 26.666C144.752 26.33 145.016 25.958 145.376 25.55C145.76 25.142 146.264 24.794 146.888 24.506C147.536 24.194 148.34 24.038 149.3 24.038C150.62 24.038 151.64 24.302 152.36 24.83C153.08 25.358 153.596 26.03 153.908 26.846C154.22 27.638 154.412 28.466 154.484 29.33C154.556 30.194 154.592 30.974 154.592 31.67V38.834H150.992V31.634C150.992 30.842 150.92 30.122 150.776 29.474C150.632 28.802 150.32 28.274 149.84 27.89C149.384 27.482 148.7 27.278 147.788 27.278C146.828 27.278 146.096 27.494 145.592 27.926C145.088 28.358 144.74 28.922 144.548 29.618C144.356 30.29 144.26 31.01 144.26 31.778V38.834H140.516ZM163.514 39.194C162.89 39.194 162.194 39.086 161.426 38.87C160.682 38.654 159.962 38.33 159.266 37.898C158.594 37.466 158.03 36.914 157.574 36.242C157.142 35.546 156.926 34.73 156.926 33.794H160.31C160.31 33.842 160.322 34.01 160.346 34.298C160.37 34.562 160.466 34.874 160.634 35.234C160.826 35.57 161.138 35.87 161.57 36.134C162.002 36.398 162.626 36.53 163.442 36.53C164.402 36.53 165.122 36.362 165.602 36.026C166.082 35.666 166.322 35.258 166.322 34.802C166.322 34.274 166.094 33.866 165.638 33.578C165.206 33.266 164.642 33.014 163.946 32.822C163.25 32.63 162.506 32.438 161.714 32.246C160.946 32.03 160.214 31.754 159.518 31.418C158.846 31.082 158.294 30.626 157.862 30.05C157.43 29.45 157.214 28.682 157.214 27.746C157.214 26.378 157.766 25.346 158.87 24.65C159.974 23.93 161.378 23.57 163.082 23.57C164.282 23.57 165.398 23.762 166.43 24.146C167.462 24.506 168.29 25.094 168.914 25.91C169.538 26.702 169.85 27.746 169.85 29.042H166.466C166.49 28.298 166.322 27.746 165.962 27.386C165.626 27.002 165.194 26.738 164.666 26.594C164.162 26.45 163.67 26.378 163.19 26.378C162.326 26.378 161.666 26.534 161.21 26.846C160.778 27.134 160.562 27.518 160.562 27.998C160.562 28.55 160.778 28.982 161.21 29.294C161.666 29.582 162.242 29.822 162.938 30.014C163.658 30.206 164.402 30.41 165.17 30.626C165.962 30.818 166.706 31.082 167.402 31.418C168.122 31.754 168.698 32.21 169.13 32.786C169.586 33.338 169.814 34.082 169.814 35.018C169.814 36.434 169.226 37.49 168.05 38.186C166.898 38.858 165.386 39.194 163.514 39.194ZM177.375 39.194C176.079 39.194 175.071 38.942 174.351 38.438C173.631 37.934 173.103 37.286 172.767 36.494C172.455 35.702 172.263 34.874 172.191 34.01C172.119 33.122 172.083 32.318 172.083 31.598V24.038H175.647V31.598C175.647 32.342 175.719 33.05 175.863 33.722C176.007 34.394 176.307 34.934 176.763 35.342C177.243 35.75 177.963 35.954 178.923 35.954C179.859 35.954 180.567 35.75 181.047 35.342C181.527 34.91 181.851 34.37 182.019 33.722C182.187 33.074 182.283 32.402 182.307 31.706L182.343 24.038H186.087V38.834H182.955L182.343 36.026H182.271C182.223 36.17 182.103 36.41 181.911 36.746C181.719 37.082 181.431 37.442 181.047 37.826C180.687 38.21 180.207 38.534 179.607 38.798C179.007 39.062 178.263 39.194 177.375 39.194ZM189.217 38.834V18.566H192.817V38.834H189.217ZM200.747 38.834C199.571 38.834 198.683 38.546 198.083 37.97C197.507 37.394 197.219 36.458 197.219 35.162V26.63H194.987V24.038C195.683 24.038 196.223 23.966 196.607 23.822C196.991 23.678 197.267 23.342 197.435 22.814C197.603 22.286 197.687 21.434 197.687 20.258H200.639V24.038H204.023V26.63H200.639V35.954H204.095V38.834H200.747ZM211.932 39.194C209.892 39.194 208.44 38.498 207.576 37.106C206.712 35.714 206.28 33.89 206.28 31.634C206.28 29.354 206.712 27.518 207.576 26.126C208.464 24.71 209.916 24.002 211.932 24.002C213.084 24.002 213.996 24.206 214.668 24.614C215.34 24.998 215.844 25.43 216.18 25.91C216.516 26.39 216.72 26.75 216.792 26.99H216.864V24.038H220.644V38.834H217.476L216.864 36.422H216.792C216.72 36.638 216.504 36.974 216.144 37.43C215.808 37.862 215.292 38.27 214.596 38.654C213.924 39.014 213.036 39.194 211.932 39.194ZM213.444 36.098C214.788 36.098 215.688 35.678 216.144 34.838C216.624 33.974 216.864 32.918 216.864 31.67C216.864 30.35 216.624 29.282 216.144 28.466C215.664 27.65 214.764 27.242 213.444 27.242C212.508 27.242 211.776 27.446 211.248 27.854C210.744 28.262 210.384 28.802 210.168 29.474C209.976 30.122 209.88 30.854 209.88 31.67C209.88 32.486 209.976 33.23 210.168 33.902C210.384 34.574 210.744 35.114 211.248 35.522C211.776 35.906 212.508 36.098 213.444 36.098ZM223.168 38.834V24.11H226.3L226.912 27.242H226.984C227.008 27.17 227.092 26.978 227.236 26.666C227.404 26.33 227.668 25.958 228.028 25.55C228.412 25.142 228.916 24.794 229.54 24.506C230.188 24.194 230.992 24.038 231.952 24.038C233.272 24.038 234.292 24.302 235.012 24.83C235.732 25.358 236.248 26.03 236.56 26.846C236.872 27.638 237.064 28.466 237.136 29.33C237.208 30.194 237.244 30.974 237.244 31.67V38.834H233.644V31.634C233.644 30.842 233.572 30.122 233.428 29.474C233.284 28.802 232.972 28.274 232.492 27.89C232.036 27.482 231.352 27.278 230.44 27.278C229.48 27.278 228.748 27.494 228.244 27.926C227.74 28.358 227.392 28.922 227.2 29.618C227.008 30.29 226.912 31.01 226.912 31.778V38.834H223.168ZM247.066 39.194C245.674 39.194 244.414 38.918 243.286 38.366C242.158 37.79 241.258 36.95 240.586 35.846C239.914 34.718 239.578 33.35 239.578 31.742C239.626 30.134 239.974 28.754 240.622 27.602C241.294 26.45 242.182 25.562 243.286 24.938C244.414 24.314 245.698 24.002 247.138 24.002C248.602 24.002 249.85 24.29 250.882 24.866C251.938 25.418 252.754 26.15 253.33 27.062C253.906 27.95 254.23 28.874 254.302 29.834H250.918C250.558 28.058 249.334 27.17 247.246 27.17C245.95 27.17 244.942 27.566 244.222 28.358C243.526 29.15 243.178 30.182 243.178 31.454C243.178 32.846 243.514 33.962 244.186 34.802C244.882 35.618 245.902 36.026 247.246 36.026C248.158 36.026 248.95 35.786 249.622 35.306C250.318 34.826 250.75 34.118 250.918 33.182H254.302C254.23 34.214 253.894 35.186 253.294 36.098C252.718 37.01 251.902 37.754 250.846 38.33C249.814 38.906 248.554 39.194 247.066 39.194ZM255.409 45.71V42.866H257.677C258.037 42.866 258.349 42.83 258.613 42.758C258.877 42.686 259.141 42.494 259.405 42.182C259.669 41.894 259.969 41.414 260.305 40.742L261.277 38.582L255.517 24.038H259.297L263.077 34.802L267.145 24.038H270.925L263.653 41.102C263.077 42.446 262.549 43.442 262.069 44.09C261.589 44.762 261.049 45.194 260.449 45.386C259.873 45.602 259.129 45.71 258.217 45.71H255.409Z" fill="#133063"/>
<path d="M12.8414 95.49V96.834H7.60939V95.49H9.45739V84.666H7.60939V83.322H12.8414V84.666H10.9934V95.49H12.8414ZM16.0726 96.834V83.322H20.5366C22.2486 83.322 23.5686 83.594 24.4966 84.138C25.4406 84.682 25.9126 85.698 25.9126 87.186C25.9126 88.146 25.6486 88.978 25.1206 89.682C24.6086 90.37 23.8166 90.714 22.7446 90.714C23.4166 90.714 23.9126 90.858 24.2326 91.146C24.5686 91.434 24.7926 91.802 24.9046 92.25C25.0326 92.682 25.1046 93.138 25.1206 93.618C25.1366 94.082 25.1686 94.506 25.2166 94.89C25.2646 95.274 25.3766 95.554 25.5526 95.73C25.7446 95.906 26.0646 95.914 26.5126 95.754V96.762C26.3686 96.89 26.1446 96.978 25.8406 97.026C25.5526 97.09 25.2486 97.074 24.9286 96.978C24.6086 96.882 24.3366 96.666 24.1126 96.33C23.9046 95.994 23.8006 95.498 23.8006 94.842C23.8006 93.85 23.7446 93.082 23.6326 92.538C23.5206 91.994 23.2646 91.61 22.8646 91.386C22.4806 91.162 21.8726 91.034 21.0406 91.002C20.2086 90.97 19.0726 90.97 17.6326 91.002V96.834H16.0726ZM17.6326 89.826H20.7766C22.0406 89.826 22.9766 89.658 23.5846 89.322C24.2086 88.986 24.5206 88.306 24.5206 87.282C24.5206 86.482 24.3526 85.898 24.0166 85.53C23.6806 85.146 23.1926 84.906 22.5526 84.81C21.9286 84.698 21.1526 84.642 20.2246 84.642H17.6326V89.826ZM30.2146 95.538H37.9906V96.834H28.7026V83.322H37.7506V84.69H30.2146V89.346H36.1906V90.642H30.2146V95.538ZM41.963 96.834H40.427V83.322H41.963V89.25H49.643V83.322H51.155V96.834H49.643V90.498H41.963V96.834ZM64.0938 83.322H65.7738L60.9978 96.834H58.4058L53.6538 83.322H55.3338L59.7018 96.114L64.0938 83.322ZM78.1321 97.074C77.5081 97.074 76.9721 96.97 76.5241 96.762C76.0921 96.538 75.7401 96.282 75.4681 95.994C75.1961 95.706 74.9881 95.434 74.8441 95.178C74.7161 94.922 74.6361 94.754 74.6041 94.674H74.5561V100.866H72.9721V87.066H74.2921L74.5561 89.514H74.6041C74.6361 89.434 74.7161 89.266 74.8441 89.01C74.9721 88.754 75.1641 88.474 75.4201 88.17C75.6921 87.866 76.0441 87.61 76.4761 87.402C76.9241 87.178 77.4761 87.066 78.1321 87.066C79.0761 87.066 79.8601 87.282 80.4841 87.714C81.1241 88.146 81.6041 88.746 81.9241 89.514C82.2601 90.266 82.4281 91.13 82.4281 92.106C82.4281 93.562 82.0601 94.754 81.3241 95.682C80.5881 96.61 79.5241 97.074 78.1321 97.074ZM77.8201 95.706C78.5721 95.706 79.1721 95.53 79.6201 95.178C80.0841 94.826 80.4121 94.378 80.6041 93.834C80.8121 93.274 80.9161 92.69 80.9161 92.082C80.9161 91.458 80.8041 90.874 80.5801 90.33C80.3561 89.786 80.0041 89.346 79.5241 89.01C79.0601 88.658 78.4441 88.482 77.6761 88.482C76.7481 88.482 76.0041 88.81 75.4441 89.466C74.8841 90.106 74.6041 90.978 74.6041 92.082C74.6041 93.202 74.9001 94.09 75.4921 94.746C76.0841 95.386 76.8601 95.706 77.8201 95.706ZM84.3147 96.834V87.066H85.7067L85.8747 89.634C85.9707 89.202 86.1627 88.786 86.4507 88.386C86.7387 87.986 87.1307 87.666 87.6267 87.426C88.1387 87.17 88.7707 87.05 89.5227 87.066H89.9787V88.77H89.4987C88.4747 88.77 87.6987 88.922 87.1707 89.226C86.6587 89.514 86.3067 89.922 86.1147 90.45C85.9387 90.978 85.8507 91.586 85.8507 92.274V96.834H84.3147ZM95.5688 97.074C94.0008 97.074 92.8248 96.61 92.0408 95.682C91.2728 94.738 90.8888 93.538 90.8888 92.082C90.8728 90.61 91.2568 89.41 92.0408 88.482C92.8408 87.538 94.0168 87.058 95.5688 87.042C97.1048 87.042 98.2648 87.506 99.0488 88.434C99.8488 89.346 100.249 90.562 100.249 92.082C100.249 93.026 100.081 93.874 99.7448 94.626C99.4088 95.378 98.8968 95.978 98.2088 96.426C97.5208 96.858 96.6408 97.074 95.5688 97.074ZM95.5688 95.73C96.4008 95.73 97.0408 95.546 97.4888 95.178C97.9528 94.81 98.2728 94.346 98.4488 93.786C98.6408 93.21 98.7368 92.626 98.7368 92.034C98.7368 91.442 98.6408 90.858 98.4488 90.282C98.2728 89.706 97.9528 89.234 97.4888 88.866C97.0408 88.498 96.4008 88.314 95.5688 88.314C94.7368 88.314 94.0888 88.498 93.6248 88.866C93.1768 89.234 92.8568 89.706 92.6648 90.282C92.4888 90.858 92.4008 91.442 92.4008 92.034C92.4008 92.626 92.4888 93.21 92.6648 93.786C92.8568 94.346 93.1768 94.81 93.6248 95.178C94.0888 95.546 94.7368 95.73 95.5688 95.73ZM109.106 87.066H110.642V87.402L106.946 96.834H104.762L101.042 87.402V87.066H102.578L105.842 95.562H105.89L109.106 87.066ZM113.26 86.01C112.908 86.01 112.668 85.922 112.54 85.746C112.428 85.554 112.372 85.314 112.372 85.026C112.372 84.786 112.428 84.578 112.54 84.402C112.668 84.21 112.908 84.114 113.26 84.114C113.612 84.114 113.844 84.21 113.956 84.402C114.084 84.578 114.148 84.786 114.148 85.026C114.148 85.314 114.084 85.554 113.956 85.746C113.844 85.922 113.612 86.01 113.26 86.01ZM112.492 96.834V87.066H114.028V96.834H112.492ZM120.718 97.074C119.774 97.074 118.982 96.858 118.342 96.426C117.718 95.994 117.246 95.402 116.926 94.65C116.622 93.882 116.47 93.026 116.47 92.082C116.47 90.626 116.83 89.426 117.55 88.482C118.27 87.538 119.334 87.066 120.742 87.066C121.398 87.066 121.942 87.178 122.374 87.402C122.822 87.61 123.182 87.866 123.454 88.17C123.726 88.474 123.926 88.754 124.054 89.01C124.182 89.266 124.262 89.434 124.294 89.514H124.342L124.366 83.322H125.95V96.834H124.606L124.366 94.674H124.318C124.286 94.754 124.198 94.922 124.054 95.178C123.91 95.434 123.694 95.706 123.406 95.994C123.134 96.282 122.774 96.538 122.326 96.762C121.894 96.97 121.358 97.074 120.718 97.074ZM121.102 95.706C122.046 95.706 122.814 95.386 123.406 94.746C124.014 94.09 124.318 93.202 124.318 92.082C124.318 90.978 124.038 90.106 123.478 89.466C122.918 88.81 122.166 88.482 121.222 88.482C120.47 88.482 119.854 88.658 119.374 89.01C118.894 89.346 118.542 89.786 118.318 90.33C118.094 90.874 117.982 91.458 117.982 92.082C117.982 92.69 118.086 93.274 118.294 93.834C118.502 94.378 118.83 94.826 119.278 95.178C119.726 95.53 120.334 95.706 121.102 95.706ZM132.413 97.074C131.341 97.074 130.453 96.834 129.749 96.354C129.061 95.858 128.549 95.226 128.213 94.458C127.893 93.674 127.733 92.866 127.733 92.034C127.733 91.122 127.909 90.29 128.261 89.538C128.629 88.77 129.157 88.162 129.845 87.714C130.549 87.266 131.389 87.042 132.365 87.042C133.613 87.042 134.653 87.45 135.485 88.266C136.317 89.066 136.765 90.146 136.829 91.506C136.845 91.57 136.853 91.666 136.853 91.794C136.853 91.906 136.853 92.01 136.853 92.106H129.221C129.221 93.242 129.493 94.138 130.037 94.794C130.597 95.434 131.381 95.754 132.389 95.754C133.141 95.754 133.781 95.562 134.309 95.178C134.853 94.794 135.189 94.274 135.317 93.618H136.829C136.669 94.61 136.197 95.434 135.413 96.09C134.629 96.746 133.629 97.074 132.413 97.074ZM129.269 91.266H135.269C135.269 90.93 135.173 90.53 134.981 90.066C134.805 89.602 134.501 89.202 134.069 88.866C133.653 88.514 133.077 88.338 132.341 88.338C131.669 88.338 131.117 88.482 130.685 88.77C130.253 89.058 129.925 89.426 129.701 89.874C129.477 90.322 129.333 90.786 129.269 91.266ZM142.689 97.074C141.761 97.074 140.993 96.882 140.385 96.498C139.793 96.098 139.345 95.634 139.041 95.106C138.753 94.578 138.609 94.106 138.609 93.69H140.097C140.097 93.706 140.105 93.826 140.121 94.05C140.153 94.274 140.241 94.53 140.385 94.818C140.529 95.106 140.777 95.362 141.129 95.586C141.481 95.794 141.993 95.898 142.665 95.898C143.385 95.898 144.001 95.77 144.513 95.514C145.041 95.258 145.297 94.858 145.281 94.314C145.281 93.85 145.121 93.498 144.801 93.258C144.497 93.002 144.097 92.81 143.601 92.682C143.105 92.538 142.585 92.402 142.041 92.274C141.497 92.146 140.977 91.986 140.481 91.794C140.001 91.586 139.609 91.298 139.305 90.93C139.001 90.562 138.849 90.05 138.849 89.394C138.849 88.594 139.209 87.962 139.929 87.498C140.649 87.018 141.569 86.778 142.689 86.778C143.313 86.778 143.945 86.882 144.585 87.09C145.225 87.282 145.753 87.626 146.169 88.122C146.585 88.602 146.777 89.282 146.745 90.162H145.305C145.337 89.554 145.201 89.098 144.897 88.794C144.593 88.49 144.225 88.29 143.793 88.194C143.377 88.082 142.993 88.026 142.641 88.026C141.953 88.026 141.385 88.154 140.937 88.41C140.505 88.666 140.289 89.026 140.289 89.49C140.289 89.938 140.441 90.282 140.745 90.522C141.065 90.746 141.465 90.93 141.945 91.074C142.441 91.202 142.961 91.33 143.505 91.458C144.065 91.57 144.593 91.73 145.089 91.938C145.585 92.146 145.985 92.442 146.289 92.826C146.609 93.21 146.769 93.738 146.769 94.41C146.769 95.338 146.377 96.018 145.593 96.45C144.809 96.866 143.841 97.074 142.689 97.074ZM160.417 97.074C159.169 97.074 158.049 96.818 157.057 96.306C156.065 95.778 155.273 94.994 154.681 93.954C154.105 92.914 153.825 91.634 153.841 90.114C153.841 88.578 154.121 87.29 154.681 86.25C155.257 85.194 156.049 84.402 157.057 83.874C158.065 83.346 159.217 83.082 160.513 83.082C162.177 83.082 163.537 83.53 164.593 84.426C165.649 85.306 166.321 86.522 166.609 88.074H165.001C164.793 86.858 164.265 85.962 163.417 85.386C162.569 84.81 161.601 84.522 160.513 84.522C158.913 84.522 157.657 85.002 156.745 85.962C155.833 86.906 155.377 88.258 155.377 90.018C155.377 91.858 155.817 93.258 156.697 94.218C157.593 95.162 158.841 95.634 160.441 95.634C161.641 95.634 162.665 95.346 163.513 94.77C164.361 94.178 164.881 93.282 165.073 92.082H166.705C166.417 93.618 165.737 94.834 164.665 95.73C163.609 96.626 162.193 97.074 160.417 97.074ZM172.866 97.074C171.298 97.074 170.122 96.61 169.338 95.682C168.57 94.738 168.186 93.538 168.186 92.082C168.17 90.61 168.554 89.41 169.338 88.482C170.138 87.538 171.314 87.058 172.866 87.042C174.402 87.042 175.562 87.506 176.346 88.434C177.146 89.346 177.546 90.562 177.546 92.082C177.546 93.026 177.378 93.874 177.042 94.626C176.706 95.378 176.194 95.978 175.506 96.426C174.818 96.858 173.938 97.074 172.866 97.074ZM172.866 95.73C173.698 95.73 174.338 95.546 174.786 95.178C175.25 94.81 175.57 94.346 175.746 93.786C175.938 93.21 176.034 92.626 176.034 92.034C176.034 91.442 175.938 90.858 175.746 90.282C175.57 89.706 175.25 89.234 174.786 88.866C174.338 88.498 173.698 88.314 172.866 88.314C172.034 88.314 171.386 88.498 170.922 88.866C170.474 89.234 170.154 89.706 169.962 90.282C169.786 90.858 169.698 91.442 169.698 92.034C169.698 92.626 169.786 93.21 169.962 93.786C170.154 94.346 170.474 94.81 170.922 95.178C171.386 95.546 172.034 95.73 172.866 95.73ZM179.418 96.834V87.066H180.738L181.002 89.49H181.05C181.066 89.41 181.138 89.242 181.266 88.986C181.394 88.73 181.586 88.458 181.842 88.17C182.114 87.866 182.466 87.61 182.898 87.402C183.33 87.178 183.882 87.066 184.554 87.066C185.402 87.066 186.066 87.218 186.546 87.522C187.042 87.826 187.41 88.234 187.65 88.746C187.89 89.242 188.042 89.778 188.106 90.354C188.17 90.93 188.202 91.482 188.202 92.01V96.834H186.714V92.01C186.714 90.954 186.53 90.098 186.162 89.442C185.81 88.786 185.106 88.458 184.05 88.458C183.33 88.458 182.738 88.634 182.274 88.986C181.826 89.322 181.498 89.778 181.29 90.354C181.098 90.914 181.002 91.53 181.002 92.202V96.834H179.418ZM194.017 97.074C193.089 97.074 192.321 96.882 191.713 96.498C191.121 96.098 190.673 95.634 190.369 95.106C190.081 94.578 189.937 94.106 189.937 93.69H191.425C191.425 93.706 191.433 93.826 191.449 94.05C191.481 94.274 191.569 94.53 191.713 94.818C191.857 95.106 192.105 95.362 192.457 95.586C192.809 95.794 193.321 95.898 193.993 95.898C194.713 95.898 195.329 95.77 195.841 95.514C196.369 95.258 196.625 94.858 196.609 94.314C196.609 93.85 196.449 93.498 196.129 93.258C195.825 93.002 195.425 92.81 194.929 92.682C194.433 92.538 193.913 92.402 193.369 92.274C192.825 92.146 192.305 91.986 191.809 91.794C191.329 91.586 190.937 91.298 190.633 90.93C190.329 90.562 190.177 90.05 190.177 89.394C190.177 88.594 190.537 87.962 191.257 87.498C191.977 87.018 192.897 86.778 194.017 86.778C194.641 86.778 195.273 86.882 195.913 87.09C196.553 87.282 197.081 87.626 197.497 88.122C197.913 88.602 198.105 89.282 198.073 90.162H196.633C196.665 89.554 196.529 89.098 196.225 88.794C195.921 88.49 195.553 88.29 195.121 88.194C194.705 88.082 194.321 88.026 193.969 88.026C193.281 88.026 192.713 88.154 192.265 88.41C191.833 88.666 191.617 89.026 191.617 89.49C191.617 89.938 191.769 90.282 192.073 90.522C192.393 90.746 192.793 90.93 193.273 91.074C193.769 91.202 194.289 91.33 194.833 91.458C195.393 91.57 195.921 91.73 196.417 91.938C196.913 92.146 197.313 92.442 197.617 92.826C197.937 93.21 198.097 93.738 198.097 94.41C198.097 95.338 197.705 96.018 196.921 96.45C196.137 96.866 195.169 97.074 194.017 97.074ZM203.41 97.074C202.61 97.074 201.962 96.93 201.466 96.642C200.986 96.354 200.618 95.97 200.362 95.49C200.106 94.994 199.93 94.458 199.834 93.882C199.754 93.29 199.714 92.698 199.714 92.106V87.066H201.25V92.13C201.25 92.77 201.314 93.362 201.442 93.906C201.57 94.45 201.826 94.882 202.21 95.202C202.61 95.522 203.186 95.682 203.938 95.682C204.658 95.682 205.218 95.522 205.618 95.202C206.034 94.866 206.338 94.434 206.53 93.906C206.722 93.378 206.834 92.826 206.866 92.25V87.066H208.45V96.834H207.13L206.866 94.65H206.818C206.738 94.922 206.57 95.25 206.314 95.634C206.058 96.018 205.69 96.354 205.21 96.642C204.746 96.93 204.146 97.074 203.41 97.074ZM210.809 96.834V83.322H212.321V96.834H210.809ZM216.929 96.834C216.337 96.834 215.921 96.674 215.681 96.354C215.457 96.034 215.345 95.594 215.345 95.034V88.218H213.809V87.066C214.321 87.066 214.697 87.026 214.937 86.946C215.193 86.85 215.353 86.626 215.417 86.274C215.481 85.922 215.513 85.346 215.513 84.546H216.833V87.066H219.089V88.218H216.833V95.586H219.113V96.834H216.929ZM224.546 97.05C223.65 97.05 222.914 96.834 222.338 96.402C221.762 95.954 221.33 95.354 221.042 94.602C220.77 93.85 220.634 92.994 220.634 92.034C220.634 90.562 220.954 89.354 221.594 88.41C222.25 87.45 223.234 86.97 224.546 86.97C225.218 86.97 225.778 87.09 226.226 87.33C226.69 87.554 227.058 87.834 227.33 88.17C227.618 88.506 227.826 88.826 227.954 89.13H227.978V87.066H229.562V96.834H228.242L228.002 94.938H227.954C227.81 95.258 227.602 95.586 227.33 95.922C227.058 96.242 226.69 96.514 226.226 96.738C225.778 96.946 225.218 97.05 224.546 97.05ZM225.146 95.682C226.138 95.682 226.85 95.354 227.282 94.698C227.73 94.042 227.954 93.162 227.954 92.058C227.954 90.874 227.722 89.97 227.258 89.346C226.81 88.722 226.106 88.41 225.146 88.41C224.09 88.41 223.33 88.762 222.866 89.466C222.418 90.154 222.194 91.01 222.194 92.034C222.194 93.106 222.426 93.986 222.89 94.674C223.354 95.346 224.106 95.682 225.146 95.682ZM233.804 96.834C233.212 96.834 232.796 96.674 232.556 96.354C232.332 96.034 232.22 95.594 232.22 95.034V88.218H230.684V87.066C231.196 87.066 231.572 87.026 231.812 86.946C232.068 86.85 232.228 86.626 232.292 86.274C232.356 85.922 232.388 85.346 232.388 84.546H233.708V87.066H235.964V88.218H233.708V95.586H235.988V96.834H233.804ZM239.213 86.01C238.861 86.01 238.621 85.922 238.493 85.746C238.381 85.554 238.325 85.314 238.325 85.026C238.325 84.786 238.381 84.578 238.493 84.402C238.621 84.21 238.861 84.114 239.213 84.114C239.565 84.114 239.797 84.21 239.909 84.402C240.037 84.578 240.101 84.786 240.101 85.026C240.101 85.314 240.037 85.554 239.909 85.746C239.797 85.922 239.565 86.01 239.213 86.01ZM238.445 96.834V87.066H239.981V96.834H238.445ZM246.647 97.074C245.079 97.074 243.903 96.61 243.119 95.682C242.351 94.738 241.967 93.538 241.967 92.082C241.951 90.61 242.335 89.41 243.119 88.482C243.919 87.538 245.095 87.058 246.647 87.042C248.183 87.042 249.343 87.506 250.127 88.434C250.927 89.346 251.327 90.562 251.327 92.082C251.327 93.026 251.159 93.874 250.823 94.626C250.487 95.378 249.975 95.978 249.287 96.426C248.599 96.858 247.719 97.074 246.647 97.074ZM246.647 95.73C247.479 95.73 248.119 95.546 248.567 95.178C249.031 94.81 249.351 94.346 249.527 93.786C249.719 93.21 249.815 92.626 249.815 92.034C249.815 91.442 249.719 90.858 249.527 90.282C249.351 89.706 249.031 89.234 248.567 88.866C248.119 88.498 247.479 88.314 246.647 88.314C245.815 88.314 245.167 88.498 244.703 88.866C244.255 89.234 243.935 89.706 243.743 90.282C243.567 90.858 243.479 91.442 243.479 92.034C243.479 92.626 243.567 93.21 243.743 93.786C243.935 94.346 244.255 94.81 244.703 95.178C245.167 95.546 245.815 95.73 246.647 95.73ZM253.2 96.834V87.066H254.52L254.784 89.49H254.832C254.848 89.41 254.92 89.242 255.048 88.986C255.176 88.73 255.368 88.458 255.624 88.17C255.896 87.866 256.248 87.61 256.68 87.402C257.112 87.178 257.664 87.066 258.336 87.066C259.184 87.066 259.848 87.218 260.328 87.522C260.824 87.826 261.192 88.234 261.432 88.746C261.672 89.242 261.824 89.778 261.888 90.354C261.952 90.93 261.984 91.482 261.984 92.01V96.834H260.496V92.01C260.496 90.954 260.312 90.098 259.944 89.442C259.592 88.786 258.888 88.458 257.832 88.458C257.112 88.458 256.52 88.634 256.056 88.986C255.608 89.322 255.28 89.778 255.072 90.354C254.88 90.914 254.784 91.53 254.784 92.202V96.834H253.2ZM273.494 97.074C272.566 97.074 271.798 96.882 271.19 96.498C270.598 96.098 270.15 95.634 269.846 95.106C269.558 94.578 269.414 94.106 269.414 93.69H270.902C270.902 93.706 270.91 93.826 270.926 94.05C270.958 94.274 271.046 94.53 271.19 94.818C271.334 95.106 271.582 95.362 271.934 95.586C272.286 95.794 272.798 95.898 273.47 95.898C274.19 95.898 274.806 95.77 275.318 95.514C275.846 95.258 276.102 94.858 276.086 94.314C276.086 93.85 275.926 93.498 275.606 93.258C275.302 93.002 274.902 92.81 274.406 92.682C273.91 92.538 273.39 92.402 272.846 92.274C272.302 92.146 271.782 91.986 271.286 91.794C270.806 91.586 270.414 91.298 270.11 90.93C269.806 90.562 269.654 90.05 269.654 89.394C269.654 88.594 270.014 87.962 270.734 87.498C271.454 87.018 272.374 86.778 273.494 86.778C274.118 86.778 274.75 86.882 275.39 87.09C276.03 87.282 276.558 87.626 276.974 88.122C277.39 88.602 277.582 89.282 277.55 90.162H276.11C276.142 89.554 276.006 89.098 275.702 88.794C275.398 88.49 275.03 88.29 274.598 88.194C274.182 88.082 273.798 88.026 273.446 88.026C272.758 88.026 272.19 88.154 271.742 88.41C271.31 88.666 271.094 89.026 271.094 89.49C271.094 89.938 271.246 90.282 271.55 90.522C271.87 90.746 272.27 90.93 272.75 91.074C273.246 91.202 273.766 91.33 274.31 91.458C274.87 91.57 275.398 91.73 275.894 91.938C276.39 92.146 276.79 92.442 277.094 92.826C277.414 93.21 277.574 93.738 277.574 94.41C277.574 95.338 277.182 96.018 276.398 96.45C275.614 96.866 274.646 97.074 273.494 97.074ZM283.702 97.074C282.63 97.074 281.742 96.834 281.038 96.354C280.35 95.858 279.838 95.226 279.502 94.458C279.182 93.674 279.022 92.866 279.022 92.034C279.022 91.122 279.198 90.29 279.55 89.538C279.918 88.77 280.446 88.162 281.134 87.714C281.838 87.266 282.678 87.042 283.654 87.042C284.902 87.042 285.942 87.45 286.774 88.266C287.606 89.066 288.054 90.146 288.118 91.506C288.134 91.57 288.142 91.666 288.142 91.794C288.142 91.906 288.142 92.01 288.142 92.106H280.51C280.51 93.242 280.782 94.138 281.326 94.794C281.886 95.434 282.67 95.754 283.678 95.754C284.43 95.754 285.07 95.562 285.598 95.178C286.142 94.794 286.478 94.274 286.606 93.618H288.118C287.958 94.61 287.486 95.434 286.702 96.09C285.918 96.746 284.918 97.074 283.702 97.074ZM280.558 91.266H286.558C286.558 90.93 286.462 90.53 286.27 90.066C286.094 89.602 285.79 89.202 285.358 88.866C284.942 88.514 284.366 88.338 283.63 88.338C282.958 88.338 282.406 88.482 281.974 88.77C281.542 89.058 281.214 89.426 280.99 89.874C280.766 90.322 280.622 90.786 280.558 91.266ZM290.33 96.834V87.066H291.722L291.89 89.634C291.986 89.202 292.178 88.786 292.466 88.386C292.754 87.986 293.146 87.666 293.642 87.426C294.154 87.17 294.786 87.05 295.538 87.066H295.994V88.77H295.514C294.49 88.77 293.714 88.922 293.186 89.226C292.674 89.514 292.322 89.922 292.13 90.45C291.954 90.978 291.866 91.586 291.866 92.274V96.834H290.33ZM305.113 87.066H306.649V87.402L302.953 96.834H300.769L297.049 87.402V87.066H298.585L301.849 95.562H301.897L305.113 87.066ZM309.267 86.01C308.915 86.01 308.675 85.922 308.547 85.746C308.435 85.554 308.379 85.314 308.379 85.026C308.379 84.786 308.435 84.578 308.547 84.402C308.675 84.21 308.915 84.114 309.267 84.114C309.619 84.114 309.851 84.21 309.963 84.402C310.091 84.578 310.155 84.786 310.155 85.026C310.155 85.314 310.091 85.554 309.963 85.746C309.851 85.922 309.619 86.01 309.267 86.01ZM308.499 96.834V87.066H310.035V96.834H308.499ZM316.774 97.074C315.862 97.074 315.046 96.882 314.326 96.498C313.606 96.114 313.038 95.554 312.622 94.818C312.206 94.082 311.998 93.194 311.998 92.154C312.03 91.13 312.246 90.234 312.646 89.466C313.062 88.698 313.63 88.106 314.35 87.69C315.07 87.258 315.894 87.042 316.822 87.042C317.686 87.042 318.438 87.202 319.078 87.522C319.718 87.842 320.23 88.274 320.614 88.818C320.998 89.362 321.238 89.962 321.334 90.618H319.918C319.758 89.914 319.406 89.37 318.862 88.986C318.334 88.602 317.67 88.41 316.87 88.41C315.846 88.41 315.03 88.754 314.422 89.442C313.83 90.114 313.526 90.994 313.51 92.082C313.51 93.186 313.798 94.066 314.374 94.722C314.966 95.362 315.79 95.682 316.846 95.682C317.614 95.682 318.278 95.49 318.838 95.106C319.398 94.722 319.758 94.17 319.918 93.45H321.334C321.238 94.122 320.99 94.73 320.59 95.274C320.206 95.818 319.686 96.258 319.03 96.594C318.39 96.914 317.638 97.074 316.774 97.074ZM327.577 97.074C326.505 97.074 325.617 96.834 324.913 96.354C324.225 95.858 323.713 95.226 323.377 94.458C323.057 93.674 322.897 92.866 322.897 92.034C322.897 91.122 323.073 90.29 323.425 89.538C323.793 88.77 324.321 88.162 325.009 87.714C325.713 87.266 326.553 87.042 327.529 87.042C328.777 87.042 329.817 87.45 330.649 88.266C331.481 89.066 331.929 90.146 331.993 91.506C332.009 91.57 332.017 91.666 332.017 91.794C332.017 91.906 332.017 92.01 332.017 92.106H324.385C324.385 93.242 324.657 94.138 325.201 94.794C325.761 95.434 326.545 95.754 327.553 95.754C328.305 95.754 328.945 95.562 329.473 95.178C330.017 94.794 330.353 94.274 330.481 93.618H331.993C331.833 94.61 331.361 95.434 330.577 96.09C329.793 96.746 328.793 97.074 327.577 97.074ZM324.433 91.266H330.433C330.433 90.93 330.337 90.53 330.145 90.066C329.969 89.602 329.665 89.202 329.233 88.866C328.817 88.514 328.241 88.338 327.505 88.338C326.833 88.338 326.281 88.482 325.849 88.77C325.417 89.058 325.089 89.426 324.865 89.874C324.641 90.322 324.497 90.786 324.433 91.266ZM337.853 97.074C336.925 97.074 336.157 96.882 335.549 96.498C334.957 96.098 334.509 95.634 334.205 95.106C333.917 94.578 333.773 94.106 333.773 93.69H335.261C335.261 93.706 335.269 93.826 335.285 94.05C335.317 94.274 335.405 94.53 335.549 94.818C335.693 95.106 335.941 95.362 336.293 95.586C336.645 95.794 337.157 95.898 337.829 95.898C338.549 95.898 339.165 95.77 339.677 95.514C340.205 95.258 340.461 94.858 340.445 94.314C340.445 93.85 340.285 93.498 339.965 93.258C339.661 93.002 339.261 92.81 338.765 92.682C338.269 92.538 337.749 92.402 337.205 92.274C336.661 92.146 336.141 91.986 335.645 91.794C335.165 91.586 334.773 91.298 334.469 90.93C334.165 90.562 334.013 90.05 334.013 89.394C334.013 88.594 334.373 87.962 335.093 87.498C335.813 87.018 336.733 86.778 337.853 86.778C338.477 86.778 339.109 86.882 339.749 87.09C340.389 87.282 340.917 87.626 341.333 88.122C341.749 88.602 341.941 89.282 341.909 90.162H340.469C340.501 89.554 340.365 89.098 340.061 88.794C339.757 88.49 339.389 88.29 338.957 88.194C338.541 88.082 338.157 88.026 337.805 88.026C337.117 88.026 336.549 88.154 336.101 88.41C335.669 88.666 335.453 89.026 335.453 89.49C335.453 89.938 335.605 90.282 335.909 90.522C336.229 90.746 336.629 90.93 337.109 91.074C337.605 91.202 338.125 91.33 338.669 91.458C339.229 91.57 339.757 91.73 340.253 91.938C340.749 92.146 341.149 92.442 341.453 92.826C341.773 93.21 341.933 93.738 341.933 94.41C341.933 95.338 341.541 96.018 340.757 96.45C339.973 96.866 339.005 97.074 337.853 97.074ZM351.765 96.834C351.173 96.834 350.757 96.674 350.517 96.354C350.293 96.034 350.181 95.594 350.181 95.034V88.218H348.645V87.066C349.157 87.066 349.533 87.026 349.773 86.946C350.029 86.85 350.189 86.626 350.253 86.274C350.317 85.922 350.349 85.346 350.349 84.546H351.669V87.066H353.925V88.218H351.669V95.586H353.949V96.834H351.765ZM360.061 97.074C358.493 97.074 357.317 96.61 356.533 95.682C355.765 94.738 355.381 93.538 355.381 92.082C355.365 90.61 355.749 89.41 356.533 88.482C357.333 87.538 358.509 87.058 360.061 87.042C361.597 87.042 362.757 87.506 363.541 88.434C364.341 89.346 364.741 90.562 364.741 92.082C364.741 93.026 364.573 93.874 364.237 94.626C363.901 95.378 363.389 95.978 362.701 96.426C362.013 96.858 361.133 97.074 360.061 97.074ZM360.061 95.73C360.893 95.73 361.533 95.546 361.981 95.178C362.445 94.81 362.765 94.346 362.941 93.786C363.133 93.21 363.229 92.626 363.229 92.034C363.229 91.442 363.133 90.858 362.941 90.282C362.765 89.706 362.445 89.234 361.981 88.866C361.533 88.498 360.893 88.314 360.061 88.314C359.229 88.314 358.581 88.498 358.117 88.866C357.669 89.234 357.349 89.706 357.157 90.282C356.981 90.858 356.893 91.442 356.893 92.034C356.893 92.626 356.981 93.21 357.157 93.786C357.349 94.346 357.669 94.81 358.117 95.178C358.581 95.546 359.229 95.73 360.061 95.73ZM32.8501 133.074C31.2821 133.074 30.1061 132.61 29.3221 131.682C28.5541 130.738 28.1701 129.538 28.1701 128.082C28.1541 126.61 28.5381 125.41 29.3221 124.482C30.1221 123.538 31.2981 123.058 32.8501 123.042C34.3861 123.042 35.5461 123.506 36.3301 124.434C37.1301 125.346 37.5301 126.562 37.5301 128.082C37.5301 129.026 37.3621 129.874 37.0261 130.626C36.6901 131.378 36.1781 131.978 35.4901 132.426C34.8021 132.858 33.9221 133.074 32.8501 133.074ZM32.8501 131.73C33.6821 131.73 34.3221 131.546 34.7701 131.178C35.2341 130.81 35.5541 130.346 35.7301 129.786C35.9221 129.21 36.0181 128.626 36.0181 128.034C36.0181 127.442 35.9221 126.858 35.7301 126.282C35.5541 125.706 35.2341 125.234 34.7701 124.866C34.3221 124.498 33.6821 124.314 32.8501 124.314C32.0181 124.314 31.3701 124.498 30.9061 124.866C30.4581 125.234 30.1381 125.706 29.9461 126.282C29.7701 126.858 29.6821 127.442 29.6821 128.034C29.6821 128.626 29.7701 129.21 29.9461 129.786C30.1381 130.346 30.4581 130.81 30.9061 131.178C31.3701 131.546 32.0181 131.73 32.8501 131.73ZM39.6428 132.834V123.066H41.0348L41.2028 125.634C41.2988 125.202 41.4908 124.786 41.7788 124.386C42.0668 123.986 42.4588 123.666 42.9548 123.426C43.4668 123.17 44.0988 123.05 44.8508 123.066H45.3068V124.77H44.8268C43.8028 124.77 43.0268 124.922 42.4988 125.226C41.9868 125.514 41.6348 125.922 41.4428 126.45C41.2668 126.978 41.1788 127.586 41.1788 128.274V132.834H39.6428ZM47.869 122.01C47.517 122.01 47.277 121.922 47.149 121.746C47.037 121.554 46.981 121.314 46.981 121.026C46.981 120.786 47.037 120.578 47.149 120.402C47.277 120.21 47.517 120.114 47.869 120.114C48.221 120.114 48.453 120.21 48.565 120.402C48.693 120.578 48.757 120.786 48.757 121.026C48.757 121.314 48.693 121.554 48.565 121.746C48.453 121.922 48.221 122.01 47.869 122.01ZM47.101 132.834V123.066H48.637V132.834H47.101ZM55.3272 133.074C54.2552 133.074 53.3672 132.834 52.6632 132.354C51.9752 131.858 51.4632 131.226 51.1272 130.458C50.8072 129.674 50.6472 128.866 50.6472 128.034C50.6472 127.122 50.8232 126.29 51.1752 125.538C51.5432 124.77 52.0712 124.162 52.7592 123.714C53.4632 123.266 54.3032 123.042 55.2792 123.042C56.5272 123.042 57.5672 123.45 58.3992 124.266C59.2312 125.066 59.6792 126.146 59.7432 127.506C59.7592 127.57 59.7672 127.666 59.7672 127.794C59.7672 127.906 59.7672 128.01 59.7672 128.106H52.1352C52.1352 129.242 52.4072 130.138 52.9512 130.794C53.5112 131.434 54.2952 131.754 55.3032 131.754C56.0552 131.754 56.6952 131.562 57.2232 131.178C57.7672 130.794 58.1032 130.274 58.2312 129.618H59.7432C59.5832 130.61 59.1112 131.434 58.3272 132.09C57.5432 132.746 56.5432 133.074 55.3272 133.074ZM52.1832 127.266H58.1832C58.1832 126.93 58.0872 126.53 57.8952 126.066C57.7192 125.602 57.4152 125.202 56.9832 124.866C56.5672 124.514 55.9912 124.338 55.2552 124.338C54.5832 124.338 54.0312 124.482 53.5992 124.77C53.1672 125.058 52.8392 125.426 52.6152 125.874C52.3912 126.322 52.2472 126.786 52.1832 127.266ZM61.7153 132.834V123.066H63.0353L63.2993 125.49H63.3473C63.3633 125.41 63.4353 125.242 63.5633 124.986C63.6913 124.73 63.8833 124.458 64.1393 124.17C64.4113 123.866 64.7633 123.61 65.1953 123.402C65.6273 123.178 66.1793 123.066 66.8513 123.066C67.6993 123.066 68.3633 123.218 68.8433 123.522C69.3393 123.826 69.7073 124.234 69.9473 124.746C70.1873 125.242 70.3393 125.778 70.4033 126.354C70.4673 126.93 70.4993 127.482 70.4993 128.01V132.834H69.0113V128.01C69.0113 126.954 68.8273 126.098 68.4593 125.442C68.1073 124.786 67.4033 124.458 66.3473 124.458C65.6273 124.458 65.0353 124.634 64.5713 124.986C64.1233 125.322 63.7953 125.778 63.5873 126.354C63.3953 126.914 63.2993 127.53 63.2993 128.202V132.834H61.7153ZM74.8743 132.834C74.2823 132.834 73.8663 132.674 73.6263 132.354C73.4023 132.034 73.2903 131.594 73.2903 131.034V124.218H71.7543V123.066C72.2663 123.066 72.6423 123.026 72.8823 122.946C73.1383 122.85 73.2983 122.626 73.3623 122.274C73.4263 121.922 73.4583 121.346 73.4583 120.546H74.7783V123.066H77.0343V124.218H74.7783V131.586H77.0583V132.834H74.8743ZM82.4911 133.05C81.5951 133.05 80.8591 132.834 80.2831 132.402C79.7071 131.954 79.2751 131.354 78.9871 130.602C78.7151 129.85 78.5791 128.994 78.5791 128.034C78.5791 126.562 78.8991 125.354 79.5391 124.41C80.1951 123.45 81.1791 122.97 82.4911 122.97C83.1631 122.97 83.7231 123.09 84.1711 123.33C84.6351 123.554 85.0031 123.834 85.2751 124.17C85.5631 124.506 85.7711 124.826 85.8991 125.13H85.9231V123.066H87.5071V132.834H86.1871L85.9471 130.938H85.8991C85.7551 131.258 85.5471 131.586 85.2751 131.922C85.0031 132.242 84.6351 132.514 84.1711 132.738C83.7231 132.946 83.1631 133.05 82.4911 133.05ZM83.0911 131.682C84.0831 131.682 84.7951 131.354 85.2271 130.698C85.6751 130.042 85.8991 129.162 85.8991 128.058C85.8991 126.874 85.6671 125.97 85.2031 125.346C84.7551 124.722 84.0511 124.41 83.0911 124.41C82.0351 124.41 81.2751 124.762 80.8111 125.466C80.3631 126.154 80.1391 127.01 80.1391 128.034C80.1391 129.106 80.3711 129.986 80.8351 130.674C81.2991 131.346 82.0511 131.682 83.0911 131.682ZM91.7493 132.834C91.1573 132.834 90.7413 132.674 90.5013 132.354C90.2773 132.034 90.1653 131.594 90.1653 131.034V124.218H88.6293V123.066C89.1413 123.066 89.5173 123.026 89.7573 122.946C90.0133 122.85 90.1733 122.626 90.2373 122.274C90.3013 121.922 90.3333 121.346 90.3333 120.546H91.6533V123.066H93.9093V124.218H91.6533V131.586H93.9333V132.834H91.7493ZM99.3661 133.05C98.4701 133.05 97.7341 132.834 97.1581 132.402C96.5821 131.954 96.1501 131.354 95.8621 130.602C95.5901 129.85 95.4541 128.994 95.4541 128.034C95.4541 126.562 95.7741 125.354 96.4141 124.41C97.0701 123.45 98.0541 122.97 99.3661 122.97C100.038 122.97 100.598 123.09 101.046 123.33C101.51 123.554 101.878 123.834 102.15 124.17C102.438 124.506 102.646 124.826 102.774 125.13H102.798V123.066H104.382V132.834H103.062L102.822 130.938H102.774C102.63 131.258 102.422 131.586 102.15 131.922C101.878 132.242 101.51 132.514 101.046 132.738C100.598 132.946 100.038 133.05 99.3661 133.05ZM99.9661 131.682C100.958 131.682 101.67 131.354 102.102 130.698C102.55 130.042 102.774 129.162 102.774 128.058C102.774 126.874 102.542 125.97 102.078 125.346C101.63 124.722 100.926 124.41 99.9661 124.41C98.9101 124.41 98.1501 124.762 97.6861 125.466C97.2381 126.154 97.0141 127.01 97.0141 128.034C97.0141 129.106 97.2461 129.986 97.7101 130.674C98.1741 131.346 98.9261 131.682 99.9661 131.682ZM108.624 132.834C108.032 132.834 107.616 132.674 107.376 132.354C107.152 132.034 107.04 131.594 107.04 131.034V124.218H105.504V123.066C106.016 123.066 106.392 123.026 106.632 122.946C106.888 122.85 107.048 122.626 107.112 122.274C107.176 121.922 107.208 121.346 107.208 120.546H108.528V123.066H110.784V124.218H108.528V131.586H110.808V132.834H108.624ZM116.944 133.074C115.872 133.074 114.984 132.834 114.28 132.354C113.592 131.858 113.08 131.226 112.744 130.458C112.424 129.674 112.264 128.866 112.264 128.034C112.264 127.122 112.44 126.29 112.792 125.538C113.16 124.77 113.688 124.162 114.376 123.714C115.08 123.266 115.92 123.042 116.896 123.042C118.144 123.042 119.184 123.45 120.016 124.266C120.848 125.066 121.296 126.146 121.36 127.506C121.376 127.57 121.384 127.666 121.384 127.794C121.384 127.906 121.384 128.01 121.384 128.106H113.752C113.752 129.242 114.024 130.138 114.568 130.794C115.128 131.434 115.912 131.754 116.92 131.754C117.672 131.754 118.312 131.562 118.84 131.178C119.384 130.794 119.72 130.274 119.848 129.618H121.36C121.2 130.61 120.728 131.434 119.944 132.09C119.16 132.746 118.16 133.074 116.944 133.074ZM113.8 127.266H119.8C119.8 126.93 119.704 126.53 119.512 126.066C119.336 125.602 119.032 125.202 118.6 124.866C118.184 124.514 117.608 124.338 116.872 124.338C116.2 124.338 115.648 124.482 115.216 124.77C114.784 125.058 114.456 125.426 114.232 125.874C114.008 126.322 113.864 126.786 113.8 127.266ZM135.292 133.074C134.044 133.074 132.924 132.818 131.932 132.306C130.94 131.778 130.148 130.994 129.556 129.954C128.98 128.914 128.7 127.634 128.716 126.114C128.716 124.578 128.996 123.29 129.556 122.25C130.132 121.194 130.924 120.402 131.932 119.874C132.94 119.346 134.092 119.082 135.388 119.082C137.052 119.082 138.412 119.53 139.468 120.426C140.524 121.306 141.196 122.522 141.484 124.074H139.876C139.668 122.858 139.14 121.962 138.292 121.386C137.444 120.81 136.476 120.522 135.388 120.522C133.788 120.522 132.532 121.002 131.62 121.962C130.708 122.906 130.252 124.258 130.252 126.018C130.252 127.858 130.692 129.258 131.572 130.218C132.468 131.162 133.716 131.634 135.316 131.634C136.516 131.634 137.54 131.346 138.388 130.77C139.236 130.178 139.756 129.282 139.948 128.082H141.58C141.292 129.618 140.612 130.834 139.54 131.73C138.484 132.626 137.068 133.074 135.292 133.074ZM143.661 132.834V119.322H145.173V132.834H143.661ZM148.557 122.01C148.205 122.01 147.965 121.922 147.837 121.746C147.725 121.554 147.669 121.314 147.669 121.026C147.669 120.786 147.725 120.578 147.837 120.402C147.965 120.21 148.205 120.114 148.557 120.114C148.909 120.114 149.141 120.21 149.253 120.402C149.381 120.578 149.445 120.786 149.445 121.026C149.445 121.314 149.381 121.554 149.253 121.746C149.141 121.922 148.909 122.01 148.557 122.01ZM147.789 132.834V123.066H149.325V132.834H147.789ZM156.015 133.074C154.943 133.074 154.055 132.834 153.351 132.354C152.663 131.858 152.151 131.226 151.815 130.458C151.495 129.674 151.335 128.866 151.335 128.034C151.335 127.122 151.511 126.29 151.863 125.538C152.231 124.77 152.759 124.162 153.447 123.714C154.151 123.266 154.991 123.042 155.967 123.042C157.215 123.042 158.255 123.45 159.087 124.266C159.919 125.066 160.367 126.146 160.431 127.506C160.447 127.57 160.455 127.666 160.455 127.794C160.455 127.906 160.455 128.01 160.455 128.106H152.823C152.823 129.242 153.095 130.138 153.639 130.794C154.199 131.434 154.983 131.754 155.991 131.754C156.743 131.754 157.383 131.562 157.911 131.178C158.455 130.794 158.791 130.274 158.919 129.618H160.431C160.271 130.61 159.799 131.434 159.015 132.09C158.231 132.746 157.231 133.074 156.015 133.074ZM152.871 127.266H158.871C158.871 126.93 158.775 126.53 158.583 126.066C158.407 125.602 158.103 125.202 157.671 124.866C157.255 124.514 156.679 124.338 155.943 124.338C155.271 124.338 154.719 124.482 154.287 124.77C153.855 125.058 153.527 125.426 153.303 125.874C153.079 126.322 152.935 126.786 152.871 127.266ZM162.403 132.834V123.066H163.723L163.987 125.49H164.035C164.051 125.41 164.123 125.242 164.251 124.986C164.379 124.73 164.571 124.458 164.827 124.17C165.099 123.866 165.451 123.61 165.883 123.402C166.315 123.178 166.867 123.066 167.539 123.066C168.387 123.066 169.051 123.218 169.531 123.522C170.027 123.826 170.395 124.234 170.635 124.746C170.875 125.242 171.027 125.778 171.091 126.354C171.155 126.93 171.187 127.482 171.187 128.01V132.834H169.699V128.01C169.699 126.954 169.515 126.098 169.147 125.442C168.795 124.786 168.091 124.458 167.035 124.458C166.315 124.458 165.723 124.634 165.259 124.986C164.811 125.322 164.483 125.778 164.275 126.354C164.083 126.914 163.987 127.53 163.987 128.202V132.834H162.403ZM175.562 132.834C174.97 132.834 174.554 132.674 174.314 132.354C174.09 132.034 173.978 131.594 173.978 131.034V124.218H172.442V123.066C172.954 123.066 173.33 123.026 173.57 122.946C173.826 122.85 173.986 122.626 174.05 122.274C174.114 121.922 174.146 121.346 174.146 120.546H175.466V123.066H177.722V124.218H175.466V131.586H177.746V132.834H175.562ZM183.635 133.074C182.707 133.074 181.939 132.882 181.331 132.498C180.739 132.098 180.291 131.634 179.987 131.106C179.699 130.578 179.555 130.106 179.555 129.69H181.043C181.043 129.706 181.051 129.826 181.067 130.05C181.099 130.274 181.187 130.53 181.331 130.818C181.475 131.106 181.723 131.362 182.075 131.586C182.427 131.794 182.939 131.898 183.611 131.898C184.331 131.898 184.947 131.77 185.459 131.514C185.987 131.258 186.243 130.858 186.227 130.314C186.227 129.85 186.067 129.498 185.747 129.258C185.443 129.002 185.043 128.81 184.547 128.682C184.051 128.538 183.531 128.402 182.987 128.274C182.443 128.146 181.923 127.986 181.427 127.794C180.947 127.586 180.555 127.298 180.251 126.93C179.947 126.562 179.795 126.05 179.795 125.394C179.795 124.594 180.155 123.962 180.875 123.498C181.595 123.018 182.515 122.778 183.635 122.778C184.259 122.778 184.891 122.882 185.531 123.09C186.171 123.282 186.699 123.626 187.115 124.122C187.531 124.602 187.723 125.282 187.691 126.162H186.251C186.283 125.554 186.147 125.098 185.843 124.794C185.539 124.49 185.171 124.29 184.739 124.194C184.323 124.082 183.939 124.026 183.587 124.026C182.899 124.026 182.331 124.154 181.883 124.41C181.451 124.666 181.235 125.026 181.235 125.49C181.235 125.938 181.387 126.282 181.691 126.522C182.011 126.746 182.411 126.93 182.891 127.074C183.387 127.202 183.907 127.33 184.451 127.458C185.011 127.57 185.539 127.73 186.035 127.938C186.531 128.146 186.931 128.442 187.235 128.826C187.555 129.21 187.715 129.738 187.715 130.41C187.715 131.338 187.323 132.018 186.539 132.45C185.755 132.866 184.787 133.074 183.635 133.074ZM199.586 133.074C198.674 133.074 197.858 132.882 197.138 132.498C196.418 132.114 195.85 131.554 195.434 130.818C195.018 130.082 194.81 129.194 194.81 128.154C194.842 127.13 195.058 126.234 195.458 125.466C195.874 124.698 196.442 124.106 197.162 123.69C197.882 123.258 198.706 123.042 199.634 123.042C200.498 123.042 201.25 123.202 201.89 123.522C202.53 123.842 203.042 124.274 203.426 124.818C203.81 125.362 204.05 125.962 204.146 126.618H202.73C202.57 125.914 202.218 125.37 201.674 124.986C201.146 124.602 200.482 124.41 199.682 124.41C198.658 124.41 197.842 124.754 197.234 125.442C196.642 126.114 196.338 126.994 196.322 128.082C196.322 129.186 196.61 130.066 197.186 130.722C197.778 131.362 198.602 131.682 199.658 131.682C200.426 131.682 201.09 131.49 201.65 131.106C202.21 130.722 202.57 130.17 202.73 129.45H204.146C204.05 130.122 203.802 130.73 203.402 131.274C203.018 131.818 202.498 132.258 201.842 132.594C201.202 132.914 200.45 133.074 199.586 133.074ZM206.19 132.834V123.066H207.582L207.75 125.634C207.846 125.202 208.038 124.786 208.326 124.386C208.614 123.986 209.006 123.666 209.502 123.426C210.014 123.17 210.646 123.05 211.398 123.066H211.854V124.77H211.374C210.35 124.77 209.574 124.922 209.046 125.226C208.534 125.514 208.182 125.922 207.99 126.45C207.814 126.978 207.726 127.586 207.726 128.274V132.834H206.19ZM217.468 133.074C216.396 133.074 215.508 132.834 214.804 132.354C214.116 131.858 213.604 131.226 213.268 130.458C212.948 129.674 212.788 128.866 212.788 128.034C212.788 127.122 212.964 126.29 213.316 125.538C213.684 124.77 214.212 124.162 214.9 123.714C215.604 123.266 216.444 123.042 217.42 123.042C218.668 123.042 219.708 123.45 220.54 124.266C221.372 125.066 221.82 126.146 221.884 127.506C221.9 127.57 221.908 127.666 221.908 127.794C221.908 127.906 221.908 128.01 221.908 128.106H214.276C214.276 129.242 214.548 130.138 215.092 130.794C215.652 131.434 216.436 131.754 217.444 131.754C218.196 131.754 218.836 131.562 219.364 131.178C219.908 130.794 220.244 130.274 220.372 129.618H221.884C221.724 130.61 221.252 131.434 220.468 132.09C219.684 132.746 218.684 133.074 217.468 133.074ZM214.324 127.266H220.324C220.324 126.93 220.228 126.53 220.036 126.066C219.86 125.602 219.556 125.202 219.124 124.866C218.708 124.514 218.132 124.338 217.396 124.338C216.724 124.338 216.172 124.482 215.74 124.77C215.308 125.058 214.98 125.426 214.756 125.874C214.532 126.322 214.388 126.786 214.324 127.266ZM227.288 133.05C226.392 133.05 225.656 132.834 225.08 132.402C224.504 131.954 224.072 131.354 223.784 130.602C223.512 129.85 223.376 128.994 223.376 128.034C223.376 126.562 223.696 125.354 224.336 124.41C224.992 123.45 225.976 122.97 227.288 122.97C227.96 122.97 228.52 123.09 228.968 123.33C229.432 123.554 229.8 123.834 230.072 124.17C230.36 124.506 230.568 124.826 230.696 125.13H230.72V123.066H232.304V132.834H230.984L230.744 130.938H230.696C230.552 131.258 230.344 131.586 230.072 131.922C229.8 132.242 229.432 132.514 228.968 132.738C228.52 132.946 227.96 133.05 227.288 133.05ZM227.888 131.682C228.88 131.682 229.592 131.354 230.024 130.698C230.472 130.042 230.696 129.162 230.696 128.058C230.696 126.874 230.464 125.97 230 125.346C229.552 124.722 228.848 124.41 227.888 124.41C226.832 124.41 226.072 124.762 225.608 125.466C225.16 126.154 224.936 127.01 224.936 128.034C224.936 129.106 225.168 129.986 225.632 130.674C226.096 131.346 226.848 131.682 227.888 131.682ZM236.546 132.834C235.954 132.834 235.538 132.674 235.298 132.354C235.074 132.034 234.962 131.594 234.962 131.034V124.218H233.426V123.066C233.938 123.066 234.314 123.026 234.554 122.946C234.81 122.85 234.97 122.626 235.034 122.274C235.098 121.922 235.13 121.346 235.13 120.546H236.45V123.066H238.706V124.218H236.45V131.586H238.73V132.834H236.546ZM244.866 133.074C243.794 133.074 242.906 132.834 242.202 132.354C241.514 131.858 241.002 131.226 240.666 130.458C240.346 129.674 240.186 128.866 240.186 128.034C240.186 127.122 240.362 126.29 240.714 125.538C241.082 124.77 241.61 124.162 242.298 123.714C243.002 123.266 243.842 123.042 244.818 123.042C246.066 123.042 247.106 123.45 247.938 124.266C248.77 125.066 249.218 126.146 249.282 127.506C249.298 127.57 249.306 127.666 249.306 127.794C249.306 127.906 249.306 128.01 249.306 128.106H241.674C241.674 129.242 241.946 130.138 242.49 130.794C243.05 131.434 243.834 131.754 244.842 131.754C245.594 131.754 246.234 131.562 246.762 131.178C247.306 130.794 247.642 130.274 247.77 129.618H249.282C249.122 130.61 248.65 131.434 247.866 132.09C247.082 132.746 246.082 133.074 244.866 133.074ZM241.722 127.266H247.722C247.722 126.93 247.626 126.53 247.434 126.066C247.258 125.602 246.954 125.202 246.522 124.866C246.106 124.514 245.53 124.338 244.794 124.338C244.122 124.338 243.57 124.482 243.138 124.77C242.706 125.058 242.378 125.426 242.154 125.874C241.93 126.322 241.786 126.786 241.722 127.266ZM260.382 133.05C259.486 133.05 258.75 132.834 258.174 132.402C257.598 131.954 257.166 131.354 256.878 130.602C256.606 129.85 256.47 128.994 256.47 128.034C256.47 126.562 256.79 125.354 257.43 124.41C258.086 123.45 259.07 122.97 260.382 122.97C261.054 122.97 261.614 123.09 262.062 123.33C262.526 123.554 262.894 123.834 263.166 124.17C263.454 124.506 263.662 124.826 263.79 125.13H263.814V123.066H265.398V132.834H264.078L263.838 130.938H263.79C263.646 131.258 263.438 131.586 263.166 131.922C262.894 132.242 262.526 132.514 262.062 132.738C261.614 132.946 261.054 133.05 260.382 133.05ZM260.982 131.682C261.974 131.682 262.686 131.354 263.118 130.698C263.566 130.042 263.79 129.162 263.79 128.058C263.79 126.874 263.558 125.97 263.094 125.346C262.646 124.722 261.942 124.41 260.982 124.41C259.926 124.41 259.166 124.762 258.702 125.466C258.254 126.154 258.03 127.01 258.03 128.034C258.03 129.106 258.262 129.986 258.726 130.674C259.19 131.346 259.942 131.682 260.982 131.682ZM272.983 132.834V119.322H274.543V125.49H274.591C274.623 125.41 274.695 125.242 274.807 124.986C274.935 124.73 275.127 124.458 275.383 124.17C275.639 123.866 275.983 123.61 276.415 123.402C276.847 123.178 277.391 123.066 278.047 123.066C278.879 123.066 279.543 123.226 280.039 123.546C280.535 123.85 280.903 124.258 281.143 124.77C281.399 125.266 281.567 125.802 281.647 126.378C281.727 126.954 281.767 127.498 281.767 128.01V132.834H280.255V128.01C280.255 126.954 280.071 126.098 279.703 125.442C279.351 124.786 278.655 124.458 277.615 124.458C276.879 124.458 276.287 124.634 275.839 124.986C275.391 125.322 275.063 125.778 274.855 126.354C274.647 126.914 274.543 127.53 274.543 128.202V132.834H272.983ZM282.778 137.202V135.954H284.122C284.442 135.954 284.706 135.866 284.914 135.69C285.122 135.53 285.378 135.13 285.682 134.49L286.714 132.258L282.874 123.066H284.482L287.482 130.626L290.674 123.066H292.306L287.074 134.706C286.754 135.426 286.466 135.962 286.21 136.314C285.97 136.682 285.698 136.922 285.394 137.034C285.09 137.146 284.706 137.202 284.242 137.202H282.778ZM295.936 136.866V135.402H300.808V130.674H300.76C300.728 130.754 300.64 130.922 300.496 131.178C300.368 131.434 300.16 131.706 299.872 131.994C299.6 132.282 299.24 132.538 298.792 132.762C298.36 132.97 297.832 133.074 297.208 133.074C296.264 133.074 295.472 132.858 294.832 132.426C294.208 131.978 293.736 131.378 293.416 130.626C293.096 129.874 292.936 129.026 292.936 128.082C292.936 126.61 293.296 125.41 294.016 124.482C294.752 123.538 295.824 123.066 297.232 123.066C297.888 123.066 298.432 123.178 298.864 123.402C299.312 123.61 299.664 123.866 299.92 124.17C300.192 124.474 300.392 124.754 300.52 125.01C300.648 125.266 300.728 125.434 300.76 125.514H300.808V123.066H302.392V134.514C302.392 135.282 302.248 135.866 301.96 136.266C301.672 136.666 301.152 136.866 300.4 136.866H295.936ZM297.544 131.706C298.504 131.706 299.28 131.386 299.872 130.746C300.464 130.09 300.76 129.202 300.76 128.082C300.76 126.978 300.48 126.106 299.92 125.466C299.36 124.81 298.616 124.482 297.688 124.482C296.92 124.482 296.296 124.658 295.816 125.01C295.352 125.346 295.008 125.786 294.784 126.33C294.56 126.874 294.448 127.458 294.448 128.082C294.448 128.69 294.544 129.274 294.736 129.834C294.944 130.378 295.272 130.826 295.72 131.178C296.184 131.53 296.792 131.706 297.544 131.706ZM305.658 122.01C305.306 122.01 305.066 121.922 304.938 121.746C304.826 121.554 304.77 121.314 304.77 121.026C304.77 120.786 304.826 120.578 304.938 120.402C305.066 120.21 305.306 120.114 305.658 120.114C306.01 120.114 306.242 120.21 306.354 120.402C306.482 120.578 306.546 120.786 306.546 121.026C306.546 121.314 306.482 121.554 306.354 121.746C306.242 121.922 306.01 122.01 305.658 122.01ZM304.89 132.834V123.066H306.426V132.834H304.89ZM313.116 133.074C312.044 133.074 311.156 132.834 310.452 132.354C309.764 131.858 309.252 131.226 308.916 130.458C308.596 129.674 308.436 128.866 308.436 128.034C308.436 127.122 308.612 126.29 308.964 125.538C309.332 124.77 309.86 124.162 310.548 123.714C311.252 123.266 312.092 123.042 313.068 123.042C314.316 123.042 315.356 123.45 316.188 124.266C317.02 125.066 317.468 126.146 317.532 127.506C317.548 127.57 317.556 127.666 317.556 127.794C317.556 127.906 317.556 128.01 317.556 128.106H309.924C309.924 129.242 310.196 130.138 310.74 130.794C311.3 131.434 312.084 131.754 313.092 131.754C313.844 131.754 314.484 131.562 315.012 131.178C315.556 130.794 315.892 130.274 316.02 129.618H317.532C317.372 130.61 316.9 131.434 316.116 132.09C315.332 132.746 314.332 133.074 313.116 133.074ZM309.972 127.266H315.972C315.972 126.93 315.876 126.53 315.684 126.066C315.508 125.602 315.204 125.202 314.772 124.866C314.356 124.514 313.78 124.338 313.044 124.338C312.372 124.338 311.82 124.482 311.388 124.77C310.956 125.058 310.628 125.426 310.404 125.874C310.18 126.322 310.036 126.786 309.972 127.266ZM319.504 132.834V123.066H320.824L321.088 125.49H321.136C321.152 125.41 321.224 125.242 321.352 124.986C321.48 124.73 321.672 124.458 321.928 124.17C322.2 123.866 322.552 123.61 322.984 123.402C323.416 123.178 323.968 123.066 324.64 123.066C325.488 123.066 326.152 123.218 326.632 123.522C327.128 123.826 327.496 124.234 327.736 124.746C327.976 125.242 328.128 125.778 328.192 126.354C328.256 126.93 328.288 127.482 328.288 128.01V132.834H326.8V128.01C326.8 126.954 326.616 126.098 326.248 125.442C325.896 124.786 325.192 124.458 324.136 124.458C323.416 124.458 322.824 124.634 322.36 124.986C321.912 125.322 321.584 125.778 321.376 126.354C321.184 126.914 321.088 127.53 321.088 128.202V132.834H319.504ZM331.439 122.01C331.087 122.01 330.847 121.922 330.719 121.746C330.607 121.554 330.551 121.314 330.551 121.026C330.551 120.786 330.607 120.578 330.719 120.402C330.847 120.21 331.087 120.114 331.439 120.114C331.791 120.114 332.023 120.21 332.135 120.402C332.263 120.578 332.327 120.786 332.327 121.026C332.327 121.314 332.263 121.554 332.135 121.746C332.023 121.922 331.791 122.01 331.439 122.01ZM330.671 132.834V123.066H332.207V132.834H330.671ZM338.946 133.074C338.034 133.074 337.218 132.882 336.498 132.498C335.778 132.114 335.21 131.554 334.794 130.818C334.378 130.082 334.17 129.194 334.17 128.154C334.202 127.13 334.418 126.234 334.818 125.466C335.234 124.698 335.802 124.106 336.522 123.69C337.242 123.258 338.066 123.042 338.994 123.042C339.858 123.042 340.61 123.202 341.25 123.522C341.89 123.842 342.402 124.274 342.786 124.818C343.17 125.362 343.41 125.962 343.506 126.618H342.09C341.93 125.914 341.578 125.37 341.034 124.986C340.506 124.602 339.842 124.41 339.042 124.41C338.018 124.41 337.202 124.754 336.594 125.442C336.002 126.114 335.698 126.994 335.682 128.082C335.682 129.186 335.97 130.066 336.546 130.722C337.138 131.362 337.962 131.682 339.018 131.682C339.786 131.682 340.45 131.49 341.01 131.106C341.57 130.722 341.93 130.17 342.09 129.45H343.506C343.41 130.122 343.162 130.73 342.762 131.274C342.378 131.818 341.858 132.258 341.202 132.594C340.562 132.914 339.81 133.074 338.946 133.074ZM132.191 167.538H139.967V168.834H130.679V155.322H139.727V156.69H132.191V161.346H138.167V162.642H132.191V167.538ZM141.708 168.834V159.066H143.028L143.292 161.49H143.34C143.356 161.41 143.428 161.242 143.556 160.986C143.684 160.73 143.876 160.458 144.132 160.17C144.404 159.866 144.756 159.61 145.188 159.402C145.62 159.178 146.172 159.066 146.844 159.066C147.692 159.066 148.356 159.218 148.836 159.522C149.332 159.826 149.7 160.234 149.94 160.746C150.18 161.242 150.332 161.778 150.396 162.354C150.46 162.93 150.492 163.482 150.492 164.01V168.834H149.004V164.01C149.004 162.954 148.82 162.098 148.452 161.442C148.1 160.786 147.396 160.458 146.34 160.458C145.62 160.458 145.028 160.634 144.564 160.986C144.116 161.322 143.788 161.778 143.58 162.354C143.388 162.914 143.292 163.53 143.292 164.202V168.834H141.708ZM159.402 159.066H160.938V159.402L157.242 168.834H155.058L151.338 159.402V159.066H152.874L156.138 167.562H156.186L159.402 159.066ZM163.557 158.01C163.205 158.01 162.965 157.922 162.837 157.746C162.725 157.554 162.669 157.314 162.669 157.026C162.669 156.786 162.725 156.578 162.837 156.402C162.965 156.21 163.205 156.114 163.557 156.114C163.909 156.114 164.141 156.21 164.253 156.402C164.381 156.578 164.445 156.786 164.445 157.026C164.445 157.314 164.381 157.554 164.253 157.746C164.141 157.922 163.909 158.01 163.557 158.01ZM162.789 168.834V159.066H164.325V168.834H162.789ZM166.815 168.834V159.066H168.207L168.375 161.634C168.471 161.202 168.663 160.786 168.951 160.386C169.239 159.986 169.631 159.666 170.127 159.426C170.639 159.17 171.271 159.05 172.023 159.066H172.479V160.77H171.999C170.975 160.77 170.199 160.922 169.671 161.226C169.159 161.514 168.807 161.922 168.615 162.45C168.439 162.978 168.351 163.586 168.351 164.274V168.834H166.815ZM178.069 169.074C176.501 169.074 175.325 168.61 174.541 167.682C173.773 166.738 173.389 165.538 173.389 164.082C173.373 162.61 173.757 161.41 174.541 160.482C175.341 159.538 176.517 159.058 178.069 159.042C179.605 159.042 180.765 159.506 181.549 160.434C182.349 161.346 182.749 162.562 182.749 164.082C182.749 165.026 182.581 165.874 182.245 166.626C181.909 167.378 181.397 167.978 180.709 168.426C180.021 168.858 179.141 169.074 178.069 169.074ZM178.069 167.73C178.901 167.73 179.541 167.546 179.989 167.178C180.453 166.81 180.773 166.346 180.949 165.786C181.141 165.21 181.237 164.626 181.237 164.034C181.237 163.442 181.141 162.858 180.949 162.282C180.773 161.706 180.453 161.234 179.989 160.866C179.541 160.498 178.901 160.314 178.069 160.314C177.237 160.314 176.589 160.498 176.125 160.866C175.677 161.234 175.357 161.706 175.165 162.282C174.989 162.858 174.901 163.442 174.901 164.034C174.901 164.626 174.989 165.21 175.165 165.786C175.357 166.346 175.677 166.81 176.125 167.178C176.589 167.546 177.237 167.73 178.069 167.73ZM184.622 168.834V159.066H185.942L186.206 161.49H186.254C186.27 161.41 186.342 161.242 186.47 160.986C186.598 160.73 186.79 160.458 187.046 160.17C187.318 159.866 187.67 159.61 188.102 159.402C188.534 159.178 189.086 159.066 189.758 159.066C190.606 159.066 191.27 159.218 191.75 159.522C192.246 159.826 192.614 160.234 192.854 160.746C193.094 161.242 193.246 161.778 193.31 162.354C193.374 162.93 193.406 163.482 193.406 164.01V168.834H191.918V164.01C191.918 162.954 191.734 162.098 191.366 161.442C191.014 160.786 190.31 160.458 189.254 160.458C188.534 160.458 187.942 160.634 187.478 160.986C187.03 161.322 186.702 161.778 186.494 162.354C186.302 162.914 186.206 163.53 186.206 164.202V168.834H184.622ZM195.333 168.834V159.066H196.653L196.749 161.49H196.797C196.829 161.378 196.901 161.194 197.013 160.938C197.125 160.666 197.301 160.386 197.541 160.098C197.781 159.81 198.093 159.57 198.477 159.378C198.861 159.17 199.349 159.066 199.941 159.066C200.837 159.066 201.493 159.314 201.909 159.81C202.341 160.306 202.629 160.866 202.773 161.49H202.821C202.869 161.378 202.957 161.194 203.085 160.938C203.213 160.666 203.405 160.386 203.661 160.098C203.917 159.81 204.245 159.57 204.645 159.378C205.061 159.17 205.565 159.066 206.157 159.066C206.781 159.066 207.293 159.194 207.693 159.45C208.093 159.69 208.397 160.018 208.605 160.434C208.829 160.834 208.989 161.258 209.085 161.706C209.181 162.154 209.237 162.586 209.253 163.002C209.269 163.418 209.277 163.754 209.277 164.01V168.834H207.933V164.01C207.933 163.754 207.917 163.426 207.885 163.026C207.853 162.626 207.773 162.234 207.645 161.85C207.517 161.45 207.293 161.122 206.973 160.866C206.669 160.594 206.229 160.458 205.653 160.458C205.013 160.458 204.501 160.634 204.117 160.986C203.733 161.338 203.453 161.802 203.277 162.378C203.101 162.938 203.013 163.546 203.013 164.202V168.834H201.669V164.01C201.669 163.754 201.653 163.426 201.621 163.026C201.589 162.626 201.509 162.234 201.381 161.85C201.253 161.45 201.029 161.122 200.709 160.866C200.405 160.594 199.965 160.458 199.389 160.458C198.749 160.458 198.237 160.634 197.853 160.986C197.469 161.338 197.189 161.802 197.013 162.378C196.837 162.938 196.749 163.546 196.749 164.202V168.834H195.333ZM215.616 169.074C214.544 169.074 213.656 168.834 212.952 168.354C212.264 167.858 211.752 167.226 211.416 166.458C211.096 165.674 210.936 164.866 210.936 164.034C210.936 163.122 211.112 162.29 211.464 161.538C211.832 160.77 212.36 160.162 213.048 159.714C213.752 159.266 214.592 159.042 215.568 159.042C216.816 159.042 217.856 159.45 218.688 160.266C219.52 161.066 219.968 162.146 220.032 163.506C220.048 163.57 220.056 163.666 220.056 163.794C220.056 163.906 220.056 164.01 220.056 164.106H212.424C212.424 165.242 212.696 166.138 213.24 166.794C213.8 167.434 214.584 167.754 215.592 167.754C216.344 167.754 216.984 167.562 217.512 167.178C218.056 166.794 218.392 166.274 218.52 165.618H220.032C219.872 166.61 219.4 167.434 218.616 168.09C217.832 168.746 216.832 169.074 215.616 169.074ZM212.472 163.266H218.472C218.472 162.93 218.376 162.53 218.184 162.066C218.008 161.602 217.704 161.202 217.272 160.866C216.856 160.514 216.28 160.338 215.544 160.338C214.872 160.338 214.32 160.482 213.888 160.77C213.456 161.058 213.128 161.426 212.904 161.874C212.68 162.322 212.536 162.786 212.472 163.266ZM222.004 168.834V159.066H223.324L223.588 161.49H223.636C223.652 161.41 223.724 161.242 223.852 160.986C223.98 160.73 224.172 160.458 224.428 160.17C224.7 159.866 225.052 159.61 225.484 159.402C225.916 159.178 226.468 159.066 227.14 159.066C227.988 159.066 228.652 159.218 229.132 159.522C229.628 159.826 229.996 160.234 230.236 160.746C230.476 161.242 230.628 161.778 230.692 162.354C230.756 162.93 230.788 163.482 230.788 164.01V168.834H229.3V164.01C229.3 162.954 229.116 162.098 228.748 161.442C228.396 160.786 227.692 160.458 226.636 160.458C225.916 160.458 225.324 160.634 224.86 160.986C224.412 161.322 224.084 161.778 223.876 162.354C223.684 162.914 223.588 163.53 223.588 164.202V168.834H222.004ZM235.163 168.834C234.571 168.834 234.155 168.674 233.915 168.354C233.691 168.034 233.579 167.594 233.579 167.034V160.218H232.043V159.066C232.555 159.066 232.931 159.026 233.171 158.946C233.427 158.85 233.587 158.626 233.651 158.274C233.715 157.922 233.747 157.346 233.747 156.546H235.067V159.066H237.323V160.218H235.067V167.586H237.347V168.834H235.163ZM240.284 168.834C239.884 168.834 239.612 168.73 239.468 168.522C239.34 168.298 239.276 168.042 239.276 167.754C239.276 167.45 239.34 167.194 239.468 166.986C239.612 166.778 239.884 166.674 240.284 166.674C240.684 166.674 240.948 166.778 241.076 166.986C241.22 167.194 241.292 167.45 241.292 167.754C241.292 168.058 241.22 168.314 241.076 168.522C240.948 168.73 240.684 168.834 240.284 168.834Z" fill="#00668B"/>
</svg>
