<svg width="908" height="113" viewBox="0 0 908 113" fill="none" xmlns="http://www.w3.org/2000/svg">
<path d="M358.22 12.8044V11.2204H367.68V12.8044H363.874V23.6064H362.048V12.8044H358.22ZM375.684 22.1104H382.68V23.6064H373.88V11.2204H382.46V12.8044H375.684V16.5664H380.964V18.0844H375.684V22.1104ZM388.273 23.6064L392.431 11.2204H395.445L399.691 23.6064H397.733L396.545 19.9104H391.397L390.209 23.6064H388.273ZM393.971 11.9904L391.881 18.4584H396.061L393.971 11.9904ZM405.712 23.6064V11.2204H408.88L412.356 22.7924H412.4L415.81 11.2204H418.978V23.6064H417.108L417.218 12.0784H417.174L413.698 23.6064H410.992L407.538 12.0784H407.494L407.582 23.6064H405.712ZM435.331 23.6064V11.2204H438.499L441.975 22.7924H442.019L445.429 11.2204H448.597V23.6064H446.727L446.837 12.0784H446.793L443.317 23.6064H440.611L437.157 12.0784H437.113L437.201 23.6064H435.331ZM457.281 22.1104H464.277V23.6064H455.477V11.2204H464.057V12.8044H457.281V16.5664H462.561V18.0844H457.281V22.1104ZM470.728 23.6064V11.2204H473.896L477.372 22.7924H477.416L480.826 11.2204H483.994V23.6064H482.124L482.234 12.0784H482.19L478.714 23.6064H476.008L472.554 12.0784H472.51L472.598 23.6064H470.728ZM490.941 23.6064V11.2204H495.627C496.111 11.2204 496.632 11.2571 497.189 11.3304C497.746 11.3891 498.267 11.5284 498.751 11.7484C499.235 11.9538 499.631 12.2764 499.939 12.7164C500.247 13.1564 500.401 13.7504 500.401 14.4984C500.401 14.9678 500.306 15.4078 500.115 15.8184C499.939 16.2144 499.609 16.5371 499.125 16.7864C498.641 17.0358 497.952 17.1751 497.057 17.2044V17.2924C498.098 17.3071 498.898 17.4538 499.455 17.7324C500.027 18.0111 500.423 18.3778 500.643 18.8324C500.863 19.2724 500.973 19.7638 500.973 20.3064C500.973 21.0838 500.804 21.6924 500.467 22.1324C500.13 22.5724 499.697 22.9024 499.169 23.1224C498.641 23.3278 498.076 23.4598 497.475 23.5184C496.888 23.5771 496.331 23.6064 495.803 23.6064H490.941ZM492.745 16.5004H495.407C496.008 16.5004 496.544 16.4711 497.013 16.4124C497.497 16.3391 497.878 16.1704 498.157 15.9064C498.436 15.6424 498.575 15.2318 498.575 14.6744C498.575 14.0731 498.428 13.6404 498.135 13.3764C497.842 13.0978 497.453 12.9218 496.969 12.8484C496.485 12.7751 495.972 12.7384 495.429 12.7384H492.745V16.5004ZM492.745 22.1104H495.649C496.28 22.1104 496.852 22.0738 497.365 22.0004C497.878 21.9124 498.289 21.7291 498.597 21.4504C498.92 21.1571 499.081 20.7024 499.081 20.0864C499.081 19.4558 498.912 18.9864 498.575 18.6784C498.252 18.3704 497.812 18.1724 497.255 18.0844C496.712 17.9818 496.118 17.9304 495.473 17.9304H492.745V22.1104ZM509.153 22.1104H516.149V23.6064H507.349V11.2204H515.929V12.8044H509.153V16.5664H514.433V18.0844H509.153V22.1104ZM522.622 23.6064V11.2204H526.956C528.54 11.2204 529.765 11.4844 530.63 12.0124C531.51 12.5258 531.95 13.4571 531.95 14.8064C531.95 15.7451 531.708 16.5298 531.224 17.1604C530.755 17.7911 530.044 18.1064 529.09 18.1064C529.662 18.1064 530.088 18.2311 530.366 18.4804C530.645 18.7298 530.836 19.0451 530.938 19.4264C531.041 19.7931 531.107 20.1744 531.136 20.5704C531.166 20.9664 531.21 21.3258 531.268 21.6484C531.327 21.9711 531.444 22.2058 531.62 22.3524C531.796 22.4844 532.097 22.4698 532.522 22.3084V23.4084C532.317 23.5844 532.046 23.7018 531.708 23.7604C531.386 23.8338 531.063 23.8118 530.74 23.6944C530.418 23.5918 530.139 23.3718 529.904 23.0344C529.684 22.6824 529.574 22.1764 529.574 21.5164C529.574 20.7391 529.53 20.1304 529.442 19.6904C529.354 19.2504 529.149 18.9278 528.826 18.7224C528.504 18.5171 527.998 18.3998 527.308 18.3704C526.619 18.3264 525.673 18.3264 524.47 18.3704V23.6064H522.622ZM524.47 17.0064H527.022C527.77 17.0064 528.386 16.9624 528.87 16.8744C529.354 16.7718 529.714 16.5738 529.948 16.2804C530.198 15.9871 530.322 15.5398 530.322 14.9384C530.322 14.2491 530.176 13.7504 529.882 13.4424C529.589 13.1344 529.156 12.9438 528.584 12.8704C528.027 12.7824 527.345 12.7384 526.538 12.7384H524.47V17.0064ZM543.676 23.8704C542.781 23.8704 541.923 23.7311 541.102 23.4524C540.28 23.1591 539.606 22.7044 539.078 22.0884C538.564 21.4578 538.3 20.6438 538.286 19.6464H540.134C540.134 19.7051 540.156 19.8738 540.2 20.1524C540.258 20.4164 540.398 20.7098 540.618 21.0324C540.852 21.3404 541.219 21.6118 541.718 21.8464C542.216 22.0811 542.913 22.1984 543.808 22.1984C544.526 22.1984 545.091 22.0958 545.502 21.8904C545.927 21.6851 546.22 21.4431 546.382 21.1644C546.558 20.8858 546.653 20.6364 546.668 20.4164C546.668 19.9618 546.521 19.5951 546.228 19.3164C545.949 19.0378 545.568 18.8178 545.084 18.6564C544.6 18.4804 544.064 18.3264 543.478 18.1944C542.906 18.0478 542.334 17.8938 541.762 17.7324C541.19 17.5564 540.662 17.3291 540.178 17.0504C539.708 16.7718 539.334 16.4124 539.056 15.9724C538.792 15.5178 538.682 14.9384 538.726 14.2344C538.77 13.2224 539.246 12.4304 540.156 11.8584C541.08 11.2864 542.268 11.0004 543.72 11.0004C544.57 11.0004 545.362 11.1544 546.096 11.4624C546.829 11.7704 547.416 12.2324 547.856 12.8484C548.296 13.4644 548.516 14.2344 548.516 15.1584H546.734C546.734 14.6451 546.624 14.2344 546.404 13.9264C546.184 13.6038 545.905 13.3544 545.568 13.1784C545.23 13.0024 544.878 12.8851 544.512 12.8264C544.145 12.7531 543.815 12.7164 543.522 12.7164C542.686 12.7164 541.996 12.8704 541.454 13.1784C540.926 13.4864 540.662 13.9044 540.662 14.4324C540.647 14.9018 540.786 15.2758 541.08 15.5544C541.373 15.8331 541.762 16.0531 542.246 16.2144C542.73 16.3758 543.258 16.5224 543.83 16.6544C544.416 16.7864 544.996 16.9331 545.568 17.0944C546.154 17.2558 546.682 17.4758 547.152 17.7544C547.636 18.0184 548.01 18.3851 548.274 18.8544C548.552 19.3091 548.677 19.8884 548.648 20.5924C548.604 21.2818 548.362 21.8758 547.922 22.3744C547.496 22.8584 546.917 23.2324 546.184 23.4964C545.45 23.7458 544.614 23.8704 543.676 23.8704Z" fill="url(#paint0_linear_135_64)"/>
<path d="M112.013 99.6064V65.8264H124.613L131.093 96.5464H131.213L137.573 65.8264H150.113V99.6064H142.613L143.153 68.9464H143.033L136.373 99.6064H125.813L119.213 68.9464H119.093L119.513 99.6064H112.013ZM163.673 93.7864H182.033V99.6064H156.593V65.8264H181.433V72.0064H163.673V79.5664H177.113V85.4464H163.673V93.7864ZM194.376 93.7864H212.736V99.6064H187.296V65.8264H212.136V72.0064H194.376V79.5664H207.816V85.4464H194.376V93.7864ZM215.479 72.0064V65.8264H241.879V72.0064H232.279V99.6064H225.019V72.0064H215.479ZM273.719 100.446C268.199 100.446 263.979 98.8664 261.059 95.7064C258.139 92.5064 256.679 88.2064 256.679 82.8064C256.679 79.2464 257.299 76.1664 258.539 73.5664C259.819 70.9264 261.719 68.8864 264.239 67.4464C266.759 65.9664 269.919 65.2264 273.719 65.2264C279.279 65.2264 283.499 66.8264 286.379 70.0264C289.259 73.1864 290.699 77.4464 290.699 82.8064C290.699 86.2864 290.059 89.3664 288.779 92.0464C287.499 94.6864 285.599 96.7464 283.079 98.2264C280.559 99.7064 277.439 100.446 273.719 100.446ZM273.659 93.4264C275.859 93.4264 277.699 92.9664 279.179 92.0464C280.659 91.0864 281.759 89.8064 282.479 88.2064C283.199 86.6064 283.559 84.8064 283.559 82.8064C283.559 80.8064 283.199 78.9864 282.479 77.3464C281.759 75.7064 280.659 74.4064 279.179 73.4464C277.699 72.4864 275.859 72.0064 273.659 72.0064C270.419 72.0064 267.959 73.0264 266.279 75.0664C264.599 77.0664 263.759 79.6464 263.759 82.8064C263.759 84.7664 264.119 86.5464 264.839 88.1464C265.559 89.7464 266.639 91.0264 268.079 91.9864C269.559 92.9464 271.419 93.4264 273.659 93.4264ZM311.342 100.446C306.422 100.446 302.682 99.1264 300.122 96.4864C297.602 93.8064 296.342 90.0464 296.342 85.2064V65.8264H304.082V85.1464C304.082 87.5064 304.462 89.2864 305.222 90.4864C306.022 91.6864 306.982 92.5064 308.102 92.9464C309.222 93.3464 310.302 93.5464 311.342 93.5464C312.542 93.5464 313.702 93.3464 314.822 92.9464C315.942 92.5064 316.862 91.6864 317.582 90.4864C318.302 89.2864 318.662 87.5064 318.662 85.1464V65.8264H326.402V85.2064C326.402 90.1264 325.142 93.9064 322.622 96.5464C320.142 99.1464 316.382 100.446 311.342 100.446ZM332.61 99.6064V65.8264H345.69C350.09 65.8264 353.53 66.5864 356.01 68.1064C358.53 69.5864 359.79 72.1864 359.79 75.9064C359.79 78.7864 359.11 81.0664 357.75 82.7464C356.43 84.4264 354.59 85.2664 352.23 85.2664C353.47 85.2664 354.41 85.5664 355.05 86.1664C355.69 86.7264 356.13 87.4264 356.37 88.2664C356.65 89.1064 356.85 89.9864 356.97 90.9064C357.13 91.7864 357.33 92.5864 357.57 93.3064C357.81 93.9864 358.21 94.4664 358.77 94.7464C359.37 94.9864 360.25 94.8664 361.41 94.3864V98.4064C360.49 99.2064 359.43 99.7264 358.23 99.9664C357.03 100.246 355.87 100.186 354.75 99.7864C353.63 99.3864 352.69 98.6064 351.93 97.4464C351.21 96.2464 350.85 94.6064 350.85 92.5264C350.85 91.1664 350.75 90.0264 350.55 89.1064C350.39 88.1864 349.97 87.4664 349.29 86.9464C348.61 86.4264 347.53 86.0864 346.05 85.9264C344.57 85.7664 342.51 85.7664 339.87 85.9264V99.6064H332.61ZM339.87 80.7664H345.03C346.91 80.7664 348.45 80.7064 349.65 80.5864C350.89 80.4664 351.81 80.1264 352.41 79.5664C353.01 78.9664 353.31 77.9464 353.31 76.5064C353.31 74.8664 352.95 73.7264 352.23 73.0864C351.51 72.4064 350.43 72.0064 348.99 71.8864C347.59 71.7664 345.87 71.7064 343.83 71.7064H339.87V80.7664ZM379.133 99.6064V65.8264H393.113C394.193 65.8264 395.493 65.9064 397.013 66.0664C398.533 66.1864 400.013 66.5264 401.453 67.0864C402.933 67.6064 404.153 68.4664 405.113 69.6664C406.073 70.8664 406.553 72.5464 406.553 74.7064C406.553 75.9864 406.293 77.1864 405.773 78.3064C405.293 79.3864 404.373 80.2864 403.013 81.0064C401.653 81.6864 399.733 82.0864 397.253 82.2064V82.4464C400.133 82.5264 402.353 82.9264 403.913 83.6464C405.513 84.3664 406.613 85.3264 407.213 86.5264C407.853 87.6864 408.173 88.9864 408.173 90.4264C408.173 92.2264 407.833 93.7064 407.153 94.8664C406.473 95.9864 405.573 96.8864 404.453 97.5664C403.333 98.2064 402.093 98.6664 400.733 98.9464C399.413 99.2264 398.093 99.4064 396.773 99.4864C395.493 99.5664 394.313 99.6064 393.233 99.6064H379.133ZM386.213 79.4464H392.153C393.393 79.4464 394.553 79.3864 395.633 79.2664C396.753 79.1464 397.653 78.8264 398.333 78.3064C399.053 77.7464 399.413 76.8264 399.413 75.5464C399.413 74.3064 399.073 73.4264 398.393 72.9064C397.713 72.3464 396.813 72.0064 395.693 71.8864C394.613 71.7664 393.453 71.7064 392.213 71.7064H386.213V79.4464ZM386.273 93.7864H392.573C394.013 93.7864 395.353 93.7264 396.593 93.6064C397.833 93.4464 398.833 93.0664 399.593 92.4664C400.353 91.8264 400.733 90.8064 400.733 89.4064C400.733 88.0064 400.333 86.9864 399.533 86.3464C398.773 85.7064 397.753 85.3064 396.473 85.1464C395.233 84.9864 393.893 84.9064 392.453 84.9064H386.273V93.7864ZM420.489 93.7864H438.849V99.6064H413.409V65.8264H438.249V72.0064H420.489V79.5664H433.929V85.4464H420.489V93.7864ZM457.732 100.266C455.852 100.266 454.012 100.046 452.212 99.6064C450.412 99.1664 448.772 98.4664 447.292 97.5064C445.812 96.5464 444.632 95.3064 443.752 93.7864C442.912 92.2664 442.492 90.4264 442.492 88.2664H449.752C449.752 88.4664 449.832 88.8664 449.992 89.4664C450.152 90.0264 450.512 90.6464 451.072 91.3264C451.632 91.9664 452.492 92.5264 453.652 93.0064C454.812 93.4464 456.352 93.6664 458.272 93.6664C460.032 93.6664 461.472 93.3864 462.592 92.8264C463.752 92.2264 464.352 91.3664 464.392 90.2464C464.392 89.2864 463.992 88.5264 463.192 87.9664C462.432 87.4064 461.412 86.9464 460.132 86.5864C458.852 86.1864 457.432 85.8264 455.872 85.5064C454.352 85.1864 452.832 84.7864 451.312 84.3064C449.832 83.8264 448.472 83.1864 447.232 82.3864C445.992 81.5864 445.012 80.5664 444.292 79.3264C443.612 78.0464 443.332 76.4264 443.452 74.4664C443.652 71.5864 445.032 69.3264 447.592 67.6864C450.152 66.0464 453.632 65.2264 458.032 65.2264C460.472 65.2264 462.752 65.6664 464.872 66.5464C466.992 67.3864 468.712 68.6864 470.032 70.4464C471.352 72.2064 472.012 74.4264 472.012 77.1064H464.992C464.992 75.6664 464.552 74.5864 463.672 73.8664C462.792 73.1464 461.732 72.6664 460.492 72.4264C459.292 72.1464 458.212 72.0064 457.252 72.0064C455.492 72.0064 454.032 72.2864 452.872 72.8464C451.752 73.3664 451.192 74.2064 451.192 75.3664C451.192 76.3664 451.572 77.1664 452.332 77.7664C453.132 78.3664 454.192 78.8464 455.512 79.2064C456.832 79.5664 458.252 79.9064 459.772 80.2264C461.332 80.5064 462.872 80.8664 464.392 81.3064C465.952 81.7464 467.352 82.3664 468.592 83.1664C469.832 83.9264 470.812 84.9464 471.532 86.2264C472.252 87.4664 472.552 89.0864 472.432 91.0864C472.232 93.9664 470.792 96.2264 468.112 97.8664C465.432 99.4664 461.972 100.266 457.732 100.266ZM475.752 72.0064V65.8264H502.152V72.0064H492.552V99.6064H485.292V72.0064H475.752ZM516.592 72.0064V65.8264H542.992V72.0064H533.392V99.6064H526.132V72.0064H516.592ZM555.489 93.7864H573.849V99.6064H548.409V65.8264H573.249V72.0064H555.489V79.5664H568.929V85.4464H555.489V93.7864ZM577.072 99.6064L587.332 65.8264H599.272L609.832 99.6064H602.092L599.572 90.6064H587.332L584.872 99.6064H577.072ZM593.452 68.8264L588.892 85.0264H598.012L593.452 68.8264ZM614.278 99.6064V65.8264H626.878L633.358 96.5464H633.478L639.838 65.8264H652.378V99.6064H644.878L645.418 68.9464H645.298L638.638 99.6064H628.078L621.478 68.9464H621.358L621.778 99.6064H614.278ZM678.477 93.7864H696.837V99.6064H671.397V65.8264H696.237V72.0064H678.477V79.5664H691.917V85.4464H678.477V93.7864ZM725.38 65.8264H733.3L722.5 99.6064H710.44L699.64 65.8264H707.56L716.44 96.6064L725.38 65.8264ZM745.04 93.7864H763.4V99.6064H737.96V65.8264H762.8V72.0064H745.04V79.5664H758.48V85.4464H745.04V93.7864ZM768.723 99.6064V65.8264H781.803C786.203 65.8264 789.643 66.5864 792.123 68.1064C794.643 69.5864 795.903 72.1864 795.903 75.9064C795.903 78.7864 795.223 81.0664 793.863 82.7464C792.543 84.4264 790.703 85.2664 788.343 85.2664C789.583 85.2664 790.523 85.5664 791.163 86.1664C791.803 86.7264 792.243 87.4264 792.483 88.2664C792.763 89.1064 792.963 89.9864 793.083 90.9064C793.243 91.7864 793.443 92.5864 793.683 93.3064C793.923 93.9864 794.323 94.4664 794.883 94.7464C795.483 94.9864 796.363 94.8664 797.523 94.3864V98.4064C796.603 99.2064 795.543 99.7264 794.343 99.9664C793.143 100.246 791.983 100.186 790.863 99.7864C789.743 99.3864 788.803 98.6064 788.043 97.4464C787.323 96.2464 786.963 94.6064 786.963 92.5264C786.963 91.1664 786.863 90.0264 786.663 89.1064C786.503 88.1864 786.083 87.4664 785.403 86.9464C784.723 86.4264 783.643 86.0864 782.163 85.9264C780.683 85.7664 778.623 85.7664 775.983 85.9264V99.6064H768.723ZM775.983 80.7664H781.143C783.023 80.7664 784.563 80.7064 785.763 80.5864C787.003 80.4664 787.923 80.1264 788.523 79.5664C789.123 78.9664 789.423 77.9464 789.423 76.5064C789.423 74.8664 789.063 73.7264 788.343 73.0864C787.623 72.4064 786.543 72.0064 785.103 71.8864C783.703 71.7664 781.983 71.7064 779.943 71.7064H775.983V80.7664Z" fill="#133063"/>
<defs>
<linearGradient id="paint0_linear_135_64" x1="401.668" y1="15.6064" x2="534.268" y2="15.6064" gradientUnits="userSpaceOnUse">
<stop stop-color="#133063"/>
<stop offset="1" stop-color="#4FA0CA"/>
</linearGradient>
</defs>
</svg>
