<svg width="908" height="185" viewBox="0 0 908 185" fill="none" xmlns="http://www.w3.org/2000/svg">
<path d="M346.6 24.054C345.456 24.054 344.415 23.8193 343.476 23.35C342.552 22.866 341.819 22.1547 341.276 21.216C340.748 20.2627 340.484 19.082 340.484 17.674C340.499 16.2807 340.77 15.1073 341.298 14.154C341.826 13.186 342.552 12.46 343.476 11.976C344.415 11.4773 345.485 11.228 346.688 11.228C348.287 11.228 349.577 11.6533 350.56 12.504C351.543 13.3547 352.151 14.4693 352.386 15.848H350.494C350.377 15.144 350.12 14.5793 349.724 14.154C349.343 13.7287 348.881 13.4207 348.338 13.23C347.81 13.0393 347.26 12.944 346.688 12.944C345.295 12.944 344.217 13.3473 343.454 14.154C342.691 14.946 342.31 16.0827 342.31 17.564C342.31 19.1187 342.684 20.3067 343.432 21.128C344.18 21.9347 345.243 22.338 346.622 22.338C347.575 22.338 348.426 22.1107 349.174 21.656C349.922 21.1867 350.384 20.4313 350.56 19.39H352.474C352.225 20.7687 351.609 21.8907 350.626 22.756C349.643 23.6213 348.301 24.054 346.6 24.054ZM359 23.834V11.448H360.826V22.25H367.316V23.834H359ZM378.75 22.25V23.834H373.58V22.25H375.274V13.032H373.58V11.448H378.75V13.032H377.078V22.25H378.75ZM387.624 22.338H394.62V23.834H385.82V11.448H394.4V13.032H387.624V16.794H392.904V18.312H387.624V22.338ZM409.717 11.448H411.587V23.834H408.133L402.919 12.262H402.875V23.834H401.005V11.448H404.239L409.673 23.02H409.717V11.448ZM417.478 13.032V11.448H426.938V13.032H423.132V23.834H421.306V13.032H417.478ZM444.418 23.834H442.614V11.448H451.304V13.032H444.418V16.53H449.764V18.048H444.418V23.834ZM459.339 22.338H466.335V23.834H457.535V11.448H466.115V13.032H459.339V16.794H464.619V18.312H459.339V22.338ZM474.524 22.338H481.52V23.834H472.72V11.448H481.3V13.032H474.524V16.794H479.804V18.312H474.524V22.338ZM499.059 17.63C499.059 19.258 498.744 20.5267 498.113 21.436C497.483 22.3307 496.595 22.954 495.451 23.306C494.322 23.658 492.995 23.834 491.469 23.834H488.125V11.448H491.469C492.995 11.448 494.322 11.6827 495.451 12.152C496.595 12.6067 497.483 13.2887 498.113 14.198C498.744 15.1073 499.059 16.2513 499.059 17.63ZM489.951 22.294H491.953C492.995 22.294 493.904 22.1767 494.681 21.942C495.459 21.6927 496.06 21.2307 496.485 20.556C496.911 19.8813 497.123 18.8987 497.123 17.608C497.123 16.068 496.654 14.924 495.715 14.176C494.777 13.4133 493.523 13.032 491.953 13.032H489.951V22.294ZM505.498 23.834V11.448H510.184C510.668 11.448 511.189 11.4847 511.746 11.558C512.304 11.6167 512.824 11.756 513.308 11.976C513.792 12.1813 514.188 12.504 514.496 12.944C514.804 13.384 514.958 13.978 514.958 14.726C514.958 15.1953 514.863 15.6353 514.672 16.046C514.496 16.442 514.166 16.7647 513.682 17.014C513.198 17.2633 512.509 17.4027 511.614 17.432V17.52C512.656 17.5347 513.455 17.6813 514.012 17.96C514.584 18.2387 514.98 18.6053 515.2 19.06C515.42 19.5 515.53 19.9913 515.53 20.534C515.53 21.3113 515.362 21.92 515.024 22.36C514.687 22.8 514.254 23.13 513.726 23.35C513.198 23.5553 512.634 23.6873 512.032 23.746C511.446 23.8047 510.888 23.834 510.36 23.834H505.498ZM507.302 16.728H509.964C510.566 16.728 511.101 16.6987 511.57 16.64C512.054 16.5667 512.436 16.398 512.714 16.134C512.993 15.87 513.132 15.4593 513.132 14.902C513.132 14.3007 512.986 13.868 512.692 13.604C512.399 13.3253 512.01 13.1493 511.526 13.076C511.042 13.0027 510.529 12.966 509.986 12.966H507.302V16.728ZM507.302 22.338H510.206C510.837 22.338 511.409 22.3013 511.922 22.228C512.436 22.14 512.846 21.9567 513.154 21.678C513.477 21.3847 513.638 20.93 513.638 20.314C513.638 19.6833 513.47 19.214 513.132 18.906C512.81 18.598 512.37 18.4 511.812 18.312C511.27 18.2093 510.676 18.158 510.03 18.158H507.302V22.338ZM521.114 23.834L525.272 11.448H528.286L532.532 23.834H530.574L529.386 20.138H524.238L523.05 23.834H521.114ZM526.812 12.218L524.722 18.686H528.902L526.812 12.218ZM543.878 24.054C542.734 24.054 541.693 23.8193 540.754 23.35C539.83 22.866 539.097 22.1547 538.554 21.216C538.026 20.2627 537.762 19.082 537.762 17.674C537.777 16.2807 538.048 15.1073 538.576 14.154C539.104 13.186 539.83 12.46 540.754 11.976C541.693 11.4773 542.763 11.228 543.966 11.228C545.565 11.228 546.855 11.6533 547.838 12.504C548.821 13.3547 549.429 14.4693 549.664 15.848H547.772C547.655 15.144 547.398 14.5793 547.002 14.154C546.621 13.7287 546.159 13.4207 545.616 13.23C545.088 13.0393 544.538 12.944 543.966 12.944C542.573 12.944 541.495 13.3473 540.732 14.154C539.969 14.946 539.588 16.0827 539.588 17.564C539.588 19.1187 539.962 20.3067 540.71 21.128C541.458 21.9347 542.521 22.338 543.9 22.338C544.853 22.338 545.704 22.1107 546.452 21.656C547.2 21.1867 547.662 20.4313 547.838 19.39H549.752C549.503 20.7687 548.887 21.8907 547.904 22.756C546.921 23.6213 545.579 24.054 543.878 24.054ZM556.344 23.834V11.448H558.17V17.586L564.176 11.448H566.552V11.69L561.47 16.552L566.816 23.592V23.834H564.704L560.128 17.806L558.17 19.698V23.834H556.344Z" fill="url(#paint0_linear_59_1904)"/>
<path d="M163.428 66.054H171.108L163.968 99.834H152.328L147.948 75.234L143.688 99.834H132.048L124.668 66.054H132.348L137.868 96.834L144.048 66.174L143.988 66.054H151.788L158.148 96.834L163.428 66.054ZM182.781 99.834H175.521V66.054H182.781V79.974H197.301V66.054H204.501V99.834H197.301V85.494H182.781V99.834ZM208.869 99.834L219.129 66.054H231.069L241.629 99.834H233.889L231.369 90.834H219.129L216.669 99.834H208.869ZM225.249 69.054L220.689 85.254H229.809L225.249 69.054ZM241.787 72.234V66.054H268.187V72.234H258.587V99.834H251.327V72.234H241.787ZM316.647 82.914C316.647 87.354 315.767 90.814 314.007 93.294C312.247 95.734 309.747 97.434 306.507 98.394C303.307 99.354 299.547 99.834 295.227 99.834H285.747V66.054H295.227C299.547 66.054 303.307 66.694 306.507 67.974C309.747 69.214 312.247 71.074 314.007 73.554C315.767 76.034 316.647 79.154 316.647 82.914ZM292.887 93.894H297.387C299.747 93.894 301.787 93.614 303.507 93.054C305.267 92.454 306.607 91.374 307.527 89.814C308.487 88.214 308.967 85.894 308.967 82.854C308.967 79.334 307.927 76.694 305.847 74.934C303.767 73.174 300.947 72.294 297.387 72.294H292.887V93.894ZM337.176 100.674C331.656 100.674 327.436 99.094 324.516 95.934C321.596 92.734 320.136 88.434 320.136 83.034C320.136 79.474 320.756 76.394 321.996 73.794C323.276 71.154 325.176 69.114 327.696 67.674C330.216 66.194 333.376 65.454 337.176 65.454C342.736 65.454 346.956 67.054 349.836 70.254C352.716 73.414 354.156 77.674 354.156 83.034C354.156 86.514 353.516 89.594 352.236 92.274C350.956 94.914 349.056 96.974 346.536 98.454C344.016 99.934 340.896 100.674 337.176 100.674ZM337.116 93.654C339.316 93.654 341.156 93.194 342.636 92.274C344.116 91.314 345.216 90.034 345.936 88.434C346.656 86.834 347.016 85.034 347.016 83.034C347.016 81.034 346.656 79.214 345.936 77.574C345.216 75.934 344.116 74.634 342.636 73.674C341.156 72.714 339.316 72.234 337.116 72.234C333.876 72.234 331.416 73.254 329.736 75.294C328.056 77.294 327.216 79.874 327.216 83.034C327.216 84.994 327.576 86.774 328.296 88.374C329.016 89.974 330.096 91.254 331.536 92.214C333.016 93.174 334.876 93.654 337.116 93.654ZM369.229 72.234V66.054H395.629V72.234H386.029V99.834H378.769V72.234H369.229ZM407.43 99.834H400.17V66.054H407.43V79.974H421.95V66.054H429.15V99.834H421.95V85.494H407.43V99.834ZM442.637 94.014H460.997V99.834H435.557V66.054H460.397V72.234H442.637V79.794H456.077V85.674H442.637V94.014ZM475.27 99.834V88.074L463.75 66.054H471.91L478.99 81.834L486.13 66.054H494.23L482.47 88.014V99.834H475.27ZM521.892 100.494C520.012 100.494 518.172 100.274 516.372 99.834C514.572 99.394 512.932 98.694 511.452 97.734C509.972 96.774 508.792 95.534 507.912 94.014C507.072 92.494 506.652 90.654 506.652 88.494H513.912C513.912 88.694 513.992 89.094 514.152 89.694C514.312 90.254 514.672 90.874 515.232 91.554C515.792 92.194 516.652 92.754 517.812 93.234C518.972 93.674 520.512 93.894 522.432 93.894C524.192 93.894 525.632 93.614 526.752 93.054C527.912 92.454 528.512 91.594 528.552 90.474C528.552 89.514 528.152 88.754 527.352 88.194C526.592 87.634 525.572 87.174 524.292 86.814C523.012 86.414 521.592 86.054 520.032 85.734C518.512 85.414 516.992 85.014 515.472 84.534C513.992 84.054 512.632 83.414 511.392 82.614C510.152 81.814 509.172 80.794 508.452 79.554C507.772 78.274 507.492 76.654 507.612 74.694C507.812 71.814 509.192 69.554 511.752 67.914C514.312 66.274 517.792 65.454 522.192 65.454C524.632 65.454 526.912 65.894 529.032 66.774C531.152 67.614 532.872 68.914 534.192 70.674C535.512 72.434 536.172 74.654 536.172 77.334H529.152C529.152 75.894 528.712 74.814 527.832 74.094C526.952 73.374 525.892 72.894 524.652 72.654C523.452 72.374 522.372 72.234 521.412 72.234C519.652 72.234 518.192 72.514 517.032 73.074C515.912 73.594 515.352 74.434 515.352 75.594C515.352 76.594 515.732 77.394 516.492 77.994C517.292 78.594 518.352 79.074 519.672 79.434C520.992 79.794 522.412 80.134 523.932 80.454C525.492 80.734 527.032 81.094 528.552 81.534C530.112 81.974 531.512 82.594 532.752 83.394C533.992 84.154 534.972 85.174 535.692 86.454C536.412 87.694 536.712 89.314 536.592 91.314C536.392 94.194 534.952 96.454 532.272 98.094C529.592 99.694 526.132 100.494 521.892 100.494ZM540.392 99.834L550.652 66.054H562.592L573.152 99.834H565.412L562.892 90.834H550.652L548.192 99.834H540.392ZM556.772 69.054L552.212 85.254H561.332L556.772 69.054ZM583.375 99.834V88.074L571.855 66.054H580.015L587.095 81.834L594.235 66.054H602.335L590.575 88.014V99.834H583.375ZM614.338 99.834L624.598 66.054H636.538L647.098 99.834H639.358L636.838 90.834H624.598L622.138 99.834H614.338ZM630.718 69.054L626.158 85.254H635.278L630.718 69.054ZM651.184 99.834V66.054H665.164C666.244 66.054 667.544 66.134 669.064 66.294C670.584 66.414 672.064 66.754 673.504 67.314C674.984 67.834 676.204 68.694 677.164 69.894C678.124 71.094 678.604 72.774 678.604 74.934C678.604 76.214 678.344 77.414 677.824 78.534C677.344 79.614 676.424 80.514 675.064 81.234C673.704 81.914 671.784 82.314 669.304 82.434V82.674C672.184 82.754 674.404 83.154 675.964 83.874C677.564 84.594 678.664 85.554 679.264 86.754C679.904 87.914 680.224 89.214 680.224 90.654C680.224 92.454 679.884 93.934 679.204 95.094C678.524 96.214 677.624 97.114 676.504 97.794C675.384 98.434 674.144 98.894 672.784 99.174C671.464 99.454 670.144 99.634 668.824 99.714C667.544 99.794 666.364 99.834 665.284 99.834H651.184ZM658.264 79.674H664.204C665.444 79.674 666.604 79.614 667.684 79.494C668.804 79.374 669.704 79.054 670.384 78.534C671.104 77.974 671.464 77.054 671.464 75.774C671.464 74.534 671.124 73.654 670.444 73.134C669.764 72.574 668.864 72.234 667.744 72.114C666.664 71.994 665.504 71.934 664.264 71.934H658.264V79.674ZM658.324 94.014H664.624C666.064 94.014 667.404 93.954 668.644 93.834C669.884 93.674 670.884 93.294 671.644 92.694C672.404 92.054 672.784 91.034 672.784 89.634C672.784 88.234 672.384 87.214 671.584 86.574C670.824 85.934 669.804 85.534 668.524 85.374C667.284 85.214 665.944 85.134 664.504 85.134H658.324V94.014ZM700.34 100.674C694.82 100.674 690.6 99.094 687.68 95.934C684.76 92.734 683.3 88.434 683.3 83.034C683.3 79.474 683.92 76.394 685.16 73.794C686.44 71.154 688.34 69.114 690.86 67.674C693.38 66.194 696.54 65.454 700.34 65.454C705.9 65.454 710.12 67.054 713 70.254C715.88 73.414 717.32 77.674 717.32 83.034C717.32 86.514 716.68 89.594 715.4 92.274C714.12 94.914 712.22 96.974 709.7 98.454C707.18 99.934 704.06 100.674 700.34 100.674ZM700.28 93.654C702.48 93.654 704.32 93.194 705.8 92.274C707.28 91.314 708.38 90.034 709.1 88.434C709.82 86.834 710.18 85.034 710.18 83.034C710.18 81.034 709.82 79.214 709.1 77.574C708.38 75.934 707.28 74.634 705.8 73.674C704.32 72.714 702.48 72.234 700.28 72.234C697.04 72.234 694.58 73.254 692.9 75.294C691.22 77.294 690.38 79.874 690.38 83.034C690.38 84.994 690.74 86.774 691.46 88.374C692.18 89.974 693.26 91.254 694.7 92.214C696.18 93.174 698.04 93.654 700.28 93.654ZM737.963 100.674C733.043 100.674 729.303 99.354 726.743 96.714C724.223 94.034 722.963 90.274 722.963 85.434V66.054H730.703V85.374C730.703 87.734 731.083 89.514 731.843 90.714C732.643 91.914 733.603 92.734 734.723 93.174C735.843 93.574 736.923 93.774 737.963 93.774C739.163 93.774 740.323 93.574 741.443 93.174C742.563 92.734 743.483 91.914 744.203 90.714C744.923 89.514 745.283 87.734 745.283 85.374V66.054H753.023V85.434C753.023 90.354 751.763 94.134 749.243 96.774C746.763 99.374 743.003 100.674 737.963 100.674ZM756.651 72.234V66.054H783.051V72.234H773.451V99.834H766.191V72.234H756.651ZM268.943 172.674C263.423 172.674 259.203 171.094 256.283 167.934C253.363 164.734 251.903 160.434 251.903 155.034C251.903 151.474 252.523 148.394 253.763 145.794C255.043 143.154 256.943 141.114 259.463 139.674C261.983 138.194 265.143 137.454 268.943 137.454C274.503 137.454 278.723 139.054 281.603 142.254C284.483 145.414 285.923 149.674 285.923 155.034C285.923 158.514 285.283 161.594 284.003 164.274C282.723 166.914 280.823 168.974 278.303 170.454C275.783 171.934 272.663 172.674 268.943 172.674ZM268.883 165.654C271.083 165.654 272.923 165.194 274.403 164.274C275.883 163.314 276.983 162.034 277.703 160.434C278.423 158.834 278.783 157.034 278.783 155.034C278.783 153.034 278.423 151.214 277.703 149.574C276.983 147.934 275.883 146.634 274.403 145.674C272.923 144.714 271.083 144.234 268.883 144.234C265.643 144.234 263.183 145.254 261.503 147.294C259.823 149.294 258.983 151.874 258.983 155.034C258.983 156.994 259.343 158.774 260.063 160.374C260.783 161.974 261.863 163.254 263.303 164.214C264.783 165.174 266.643 165.654 268.883 165.654ZM306.566 172.674C301.646 172.674 297.906 171.354 295.346 168.714C292.826 166.034 291.566 162.274 291.566 157.434V138.054H299.306V157.374C299.306 159.734 299.686 161.514 300.446 162.714C301.246 163.914 302.206 164.734 303.326 165.174C304.446 165.574 305.526 165.774 306.566 165.774C307.766 165.774 308.926 165.574 310.046 165.174C311.166 164.734 312.086 163.914 312.806 162.714C313.526 161.514 313.886 159.734 313.886 157.374V138.054H321.626V157.434C321.626 162.354 320.366 166.134 317.846 168.774C315.366 171.374 311.606 172.674 306.566 172.674ZM327.834 171.834V138.054H340.914C345.314 138.054 348.754 138.814 351.234 140.334C353.754 141.814 355.014 144.414 355.014 148.134C355.014 151.014 354.334 153.294 352.974 154.974C351.654 156.654 349.814 157.494 347.454 157.494C348.694 157.494 349.634 157.794 350.274 158.394C350.914 158.954 351.354 159.654 351.594 160.494C351.874 161.334 352.074 162.214 352.194 163.134C352.354 164.014 352.554 164.814 352.794 165.534C353.034 166.214 353.434 166.694 353.994 166.974C354.594 167.214 355.474 167.094 356.634 166.614V170.634C355.714 171.434 354.654 171.954 353.454 172.194C352.254 172.474 351.094 172.414 349.974 172.014C348.854 171.614 347.914 170.834 347.154 169.674C346.434 168.474 346.074 166.834 346.074 164.754C346.074 163.394 345.974 162.254 345.774 161.334C345.614 160.414 345.194 159.694 344.514 159.174C343.834 158.654 342.754 158.314 341.274 158.154C339.794 157.994 337.734 157.994 335.094 158.154V171.834H327.834ZM335.094 152.994H340.254C342.134 152.994 343.674 152.934 344.874 152.814C346.114 152.694 347.034 152.354 347.634 151.794C348.234 151.194 348.534 150.174 348.534 148.734C348.534 147.094 348.174 145.954 347.454 145.314C346.734 144.634 345.654 144.234 344.214 144.114C342.814 143.994 341.094 143.934 339.054 143.934H335.094V152.994ZM387.918 172.494C386.038 172.494 384.198 172.274 382.398 171.834C380.598 171.394 378.958 170.694 377.478 169.734C375.998 168.774 374.818 167.534 373.938 166.014C373.098 164.494 372.678 162.654 372.678 160.494H379.938C379.938 160.694 380.018 161.094 380.178 161.694C380.338 162.254 380.698 162.874 381.258 163.554C381.818 164.194 382.678 164.754 383.838 165.234C384.998 165.674 386.538 165.894 388.458 165.894C390.218 165.894 391.658 165.614 392.778 165.054C393.938 164.454 394.538 163.594 394.578 162.474C394.578 161.514 394.178 160.754 393.378 160.194C392.618 159.634 391.598 159.174 390.318 158.814C389.038 158.414 387.618 158.054 386.058 157.734C384.538 157.414 383.018 157.014 381.498 156.534C380.018 156.054 378.658 155.414 377.418 154.614C376.178 153.814 375.198 152.794 374.478 151.554C373.798 150.274 373.518 148.654 373.638 146.694C373.838 143.814 375.218 141.554 377.778 139.914C380.338 138.274 383.818 137.454 388.218 137.454C390.658 137.454 392.938 137.894 395.058 138.774C397.178 139.614 398.898 140.914 400.218 142.674C401.538 144.434 402.198 146.654 402.198 149.334H395.178C395.178 147.894 394.738 146.814 393.858 146.094C392.978 145.374 391.918 144.894 390.678 144.654C389.478 144.374 388.398 144.234 387.438 144.234C385.678 144.234 384.218 144.514 383.058 145.074C381.938 145.594 381.378 146.434 381.378 147.594C381.378 148.594 381.758 149.394 382.518 149.994C383.318 150.594 384.378 151.074 385.698 151.434C387.018 151.794 388.438 152.134 389.958 152.454C391.518 152.734 393.058 153.094 394.578 153.534C396.138 153.974 397.538 154.594 398.778 155.394C400.018 156.154 400.998 157.174 401.718 158.454C402.438 159.694 402.738 161.314 402.618 163.314C402.418 166.194 400.978 168.454 398.298 170.094C395.618 171.694 392.158 172.494 387.918 172.494ZM415.538 166.014H433.898V171.834H408.458V138.054H433.298V144.234H415.538V151.794H428.978V157.674H415.538V166.014ZM439.221 171.834V138.054H452.301C456.701 138.054 460.141 138.814 462.621 140.334C465.141 141.814 466.401 144.414 466.401 148.134C466.401 151.014 465.721 153.294 464.361 154.974C463.041 156.654 461.201 157.494 458.841 157.494C460.081 157.494 461.021 157.794 461.661 158.394C462.301 158.954 462.741 159.654 462.981 160.494C463.261 161.334 463.461 162.214 463.581 163.134C463.741 164.014 463.941 164.814 464.181 165.534C464.421 166.214 464.821 166.694 465.381 166.974C465.981 167.214 466.861 167.094 468.021 166.614V170.634C467.101 171.434 466.041 171.954 464.841 172.194C463.641 172.474 462.481 172.414 461.361 172.014C460.241 171.614 459.301 170.834 458.541 169.674C457.821 168.474 457.461 166.834 457.461 164.754C457.461 163.394 457.361 162.254 457.161 161.334C457.001 160.414 456.581 159.694 455.901 159.174C455.221 158.654 454.141 158.314 452.661 158.154C451.181 157.994 449.121 157.994 446.481 158.154V171.834H439.221ZM446.481 152.994H451.641C453.521 152.994 455.061 152.934 456.261 152.814C457.501 152.694 458.421 152.354 459.021 151.794C459.621 151.194 459.921 150.174 459.921 148.734C459.921 147.094 459.561 145.954 458.841 145.314C458.121 144.634 457.041 144.234 455.601 144.114C454.201 143.994 452.481 143.934 450.441 143.934H446.481V152.994ZM495.664 138.054H503.584L492.784 171.834H480.724L469.924 138.054H477.844L486.724 168.834L495.664 138.054ZM524.511 165.654V171.834H508.491V165.654H512.931V144.234H508.491V138.054H524.511V144.234H520.131V165.654H524.511ZM546.739 172.434C543.539 172.434 540.639 171.794 538.039 170.514C535.439 169.194 533.379 167.254 531.859 164.694C530.339 162.134 529.599 158.954 529.639 155.154C529.639 151.394 530.399 148.194 531.919 145.554C533.439 142.914 535.499 140.914 538.099 139.554C540.699 138.154 543.639 137.454 546.919 137.454C550.159 137.454 552.919 138.034 555.199 139.194C557.479 140.354 559.259 141.914 560.539 143.874C561.859 145.834 562.719 147.994 563.119 150.354H555.619C555.379 148.674 554.779 147.414 553.819 146.574C552.859 145.694 551.739 145.094 550.459 144.774C549.219 144.454 548.039 144.294 546.919 144.294C543.599 144.294 541.079 145.194 539.359 146.994C537.639 148.794 536.779 151.334 536.779 154.614C536.779 158.134 537.599 160.854 539.239 162.774C540.919 164.694 543.459 165.654 546.859 165.654C548.019 165.654 549.239 165.474 550.519 165.114C551.799 164.754 552.919 164.114 553.879 163.194C554.879 162.234 555.499 160.914 555.739 159.234H563.299C562.859 161.674 561.979 163.894 560.659 165.894C559.339 167.854 557.519 169.434 555.199 170.634C552.879 171.834 550.059 172.434 546.739 172.434ZM575.147 166.014H593.507V171.834H568.067V138.054H592.907V144.234H575.147V151.794H588.587V157.674H575.147V166.014ZM612.39 172.494C610.51 172.494 608.67 172.274 606.87 171.834C605.07 171.394 603.43 170.694 601.95 169.734C600.47 168.774 599.29 167.534 598.41 166.014C597.57 164.494 597.15 162.654 597.15 160.494H604.41C604.41 160.694 604.49 161.094 604.65 161.694C604.81 162.254 605.17 162.874 605.73 163.554C606.29 164.194 607.15 164.754 608.31 165.234C609.47 165.674 611.01 165.894 612.93 165.894C614.69 165.894 616.13 165.614 617.25 165.054C618.41 164.454 619.01 163.594 619.05 162.474C619.05 161.514 618.65 160.754 617.85 160.194C617.09 159.634 616.07 159.174 614.79 158.814C613.51 158.414 612.09 158.054 610.53 157.734C609.01 157.414 607.49 157.014 605.97 156.534C604.49 156.054 603.13 155.414 601.89 154.614C600.65 153.814 599.67 152.794 598.95 151.554C598.27 150.274 597.99 148.654 598.11 146.694C598.31 143.814 599.69 141.554 602.25 139.914C604.81 138.274 608.29 137.454 612.69 137.454C615.13 137.454 617.41 137.894 619.53 138.774C621.65 139.614 623.37 140.914 624.69 142.674C626.01 144.434 626.67 146.654 626.67 149.334H619.65C619.65 147.894 619.21 146.814 618.33 146.094C617.45 145.374 616.39 144.894 615.15 144.654C613.95 144.374 612.87 144.234 611.91 144.234C610.15 144.234 608.69 144.514 607.53 145.074C606.41 145.594 605.85 146.434 605.85 147.594C605.85 148.594 606.23 149.394 606.99 149.994C607.79 150.594 608.85 151.074 610.17 151.434C611.49 151.794 612.91 152.134 614.43 152.454C615.99 152.734 617.53 153.094 619.05 153.534C620.61 153.974 622.01 154.594 623.25 155.394C624.49 156.154 625.47 157.174 626.19 158.454C626.91 159.694 627.21 161.314 627.09 163.314C626.89 166.194 625.45 168.454 622.77 170.094C620.09 171.694 616.63 172.494 612.39 172.494ZM646.19 160.974H639.59C639.63 159.734 640.05 158.554 640.85 157.434C641.69 156.274 642.65 155.154 643.73 154.074C644.85 152.994 645.85 151.934 646.73 150.894C647.61 149.814 648.09 148.714 648.17 147.594C648.25 146.514 647.95 145.614 647.27 144.894C646.63 144.174 645.61 143.814 644.21 143.814C643.05 143.814 642.15 144.034 641.51 144.474C640.91 144.914 640.49 145.474 640.25 146.154C640.01 146.794 639.87 147.454 639.83 148.134C639.79 148.774 639.77 149.274 639.77 149.634H632.99C632.67 148.314 632.61 146.954 632.81 145.554C633.05 144.154 633.59 142.854 634.43 141.654C635.27 140.414 636.45 139.414 637.97 138.654C639.49 137.894 641.41 137.514 643.73 137.514C645.97 137.514 647.97 137.894 649.73 138.654C651.49 139.414 652.87 140.474 653.87 141.834C654.91 143.194 655.43 144.774 655.43 146.574C655.43 148.054 655.11 149.354 654.47 150.474C653.87 151.554 653.11 152.534 652.19 153.414C651.27 154.294 650.35 155.134 649.43 155.934C648.51 156.694 647.73 157.494 647.09 158.334C646.49 159.134 646.19 160.014 646.19 160.974ZM642.83 172.374C641.19 172.374 640.07 171.974 639.47 171.174C638.91 170.334 638.63 169.354 638.63 168.234C638.63 167.114 638.91 166.154 639.47 165.354C640.07 164.554 641.19 164.154 642.83 164.154C644.43 164.154 645.51 164.554 646.07 165.354C646.63 166.154 646.91 167.114 646.91 168.234C646.91 169.434 646.63 170.434 646.07 171.234C645.51 171.994 644.43 172.374 642.83 172.374Z" fill="#133063"/>
<defs>
<linearGradient id="paint0_linear_59_1904" x1="391.856" y1="15.834" x2="549.319" y2="15.8339" gradientUnits="userSpaceOnUse">
<stop stop-color="#133063"/>
<stop offset="1" stop-color="#4FA0CA"/>
</linearGradient>
</defs>
</svg>
