<svg width="265" height="110" viewBox="0 0 265 110" fill="none" xmlns="http://www.w3.org/2000/svg">
<path d="M10.6855 2.02734C6.08313 2.02734 2.35217 5.7583 2.35217 10.3607C2.35217 14.963 6.08313 18.694 10.6855 18.694C15.2879 18.694 19.0188 14.963 19.0188 10.3607C19.0188 5.7583 15.2879 2.02734 10.6855 2.02734Z" fill="white"/>
<path fill-rule="evenodd" clip-rule="evenodd" d="M13.7748 8.10443C14.1002 8.42987 14.1002 8.9575 13.7748 9.28294L10.4414 12.6163C10.116 12.9417 9.58835 12.9417 9.26292 12.6163L7.59625 10.9496C7.27081 10.6242 7.27081 10.0965 7.59625 9.7711C7.92169 9.44566 8.44932 9.44566 8.77476 9.7711L9.85217 10.8485L12.5963 8.10443C12.9217 7.77899 13.4493 7.77899 13.7748 8.10443Z" fill="#133063"/>
<path d="M39.6935 16.0164V17.3604H34.1255V16.0164H36.2615V6.15235C36.1015 6.64835 35.8775 7.04035 35.5895 7.32835C35.3175 7.60035 35.0215 7.80835 34.7015 7.95235C34.3975 8.08035 34.1175 8.16835 33.8615 8.21635C33.6215 8.24835 33.4535 8.26435 33.3575 8.26435V6.63235C33.4535 6.64835 33.6535 6.62435 33.9575 6.56035C34.2775 6.49635 34.6215 6.36835 34.9895 6.17635C35.3575 5.98435 35.6775 5.70435 35.9495 5.33635C36.2215 4.96835 36.3655 4.47235 36.3815 3.84835H37.7735V16.0164H39.6935ZM59.5987 10.5924C59.5987 12.3684 59.2627 13.7524 58.5907 14.7444C57.9187 15.7204 56.9747 16.4004 55.7587 16.7844C54.5427 17.1684 53.1187 17.3604 51.4867 17.3604H47.9107V3.84835H51.4867C53.1187 3.84835 54.5427 4.10435 55.7587 4.61635C56.9747 5.11235 57.9187 5.85635 58.5907 6.84835C59.2627 7.84035 59.5987 9.08835 59.5987 10.5924ZM49.4467 16.0404H51.8227C53.0707 16.0404 54.1507 15.9044 55.0627 15.6324C55.9907 15.3444 56.7027 14.8084 57.1987 14.0244C57.7107 13.2404 57.9667 12.0964 57.9667 10.5924C57.9667 8.75235 57.4067 7.40035 56.2867 6.53635C55.1667 5.65635 53.6787 5.21635 51.8227 5.21635H49.4467V16.0404ZM65.7401 17.6004C64.1721 17.6004 62.9961 17.1364 62.2121 16.2084C61.4441 15.2644 61.0601 14.0644 61.0601 12.6084C61.0441 11.1364 61.4281 9.93635 62.2121 9.00835C63.0121 8.06435 64.1881 7.58435 65.7401 7.56835C67.2761 7.56835 68.4361 8.03235 69.2201 8.96035C70.0201 9.87235 70.4201 11.0884 70.4201 12.6084C70.4201 13.5524 70.2521 14.4004 69.9161 15.1524C69.5801 15.9044 69.0681 16.5044 68.3801 16.9524C67.6921 17.3844 66.8121 17.6004 65.7401 17.6004ZM65.7401 16.2564C66.5721 16.2564 67.2121 16.0724 67.6601 15.7044C68.1241 15.3364 68.4441 14.8724 68.6201 14.3124C68.8121 13.7364 68.9081 13.1524 68.9081 12.5604C68.9081 11.9684 68.8121 11.3844 68.6201 10.8084C68.4441 10.2324 68.1241 9.76035 67.6601 9.39235C67.2121 9.02435 66.5721 8.84035 65.7401 8.84035C64.9081 8.84035 64.2601 9.02435 63.7961 9.39235C63.3481 9.76035 63.0281 10.2324 62.8361 10.8084C62.6601 11.3844 62.5721 11.9684 62.5721 12.5604C62.5721 13.1524 62.6601 13.7364 62.8361 14.3124C63.0281 14.8724 63.3481 15.3364 63.7961 15.7044C64.2601 16.0724 64.9081 16.2564 65.7401 16.2564ZM72.2929 17.3604V7.59235H73.6129L73.7089 10.0164H73.7569C73.7889 9.90435 73.8609 9.72035 73.9729 9.46435C74.0849 9.19235 74.2609 8.91235 74.5009 8.62435C74.7409 8.33635 75.0529 8.09635 75.4369 7.90435C75.8209 7.69635 76.3089 7.59235 76.9009 7.59235C77.7969 7.59235 78.4529 7.84035 78.8689 8.33635C79.3009 8.83235 79.5889 9.39235 79.7329 10.0164H79.7809C79.8289 9.90435 79.9169 9.72035 80.0449 9.46435C80.1729 9.19235 80.3649 8.91235 80.6209 8.62435C80.8769 8.33635 81.2049 8.09635 81.6049 7.90435C82.0209 7.69635 82.5249 7.59235 83.1169 7.59235C83.7409 7.59235 84.2529 7.72035 84.6529 7.97635C85.0529 8.21635 85.3569 8.54435 85.5649 8.96035C85.7889 9.36035 85.9489 9.78435 86.0449 10.2324C86.1409 10.6804 86.1969 11.1124 86.2129 11.5284C86.2289 11.9444 86.2369 12.2804 86.2369 12.5364V17.3604H84.8929V12.5364C84.8929 12.2804 84.8769 11.9524 84.8449 11.5524C84.8129 11.1524 84.7329 10.7604 84.6049 10.3764C84.4769 9.97635 84.2529 9.64835 83.9329 9.39235C83.6289 9.12035 83.1889 8.98435 82.6129 8.98435C81.9729 8.98435 81.4609 9.16035 81.0769 9.51235C80.6929 9.86435 80.4129 10.3284 80.2369 10.9044C80.0609 11.4644 79.9729 12.0724 79.9729 12.7284V17.3604H78.6289V12.5364C78.6289 12.2804 78.6129 11.9524 78.5809 11.5524C78.5489 11.1524 78.4689 10.7604 78.3409 10.3764C78.2129 9.97635 77.9889 9.64835 77.6689 9.39235C77.3649 9.12035 76.9249 8.98435 76.3489 8.98435C75.7089 8.98435 75.1969 9.16035 74.8129 9.51235C74.4289 9.86435 74.1489 10.3284 73.9729 10.9044C73.7969 11.4644 73.7089 12.0724 73.7089 12.7284V17.3604H72.2929ZM91.5686 17.5764C90.6726 17.5764 89.9366 17.3604 89.3606 16.9284C88.7846 16.4804 88.3526 15.8804 88.0646 15.1284C87.7926 14.3764 87.6566 13.5204 87.6566 12.5604C87.6566 11.0884 87.9766 9.88035 88.6166 8.93635C89.2726 7.97635 90.2566 7.49635 91.5686 7.49635C92.2406 7.49635 92.8006 7.61635 93.2486 7.85635C93.7126 8.08035 94.0806 8.36035 94.3526 8.69635C94.6406 9.03235 94.8486 9.35235 94.9766 9.65635H95.0006V7.59235H96.5846V17.3604H95.2646L95.0246 15.4644H94.9766C94.8326 15.7844 94.6246 16.1124 94.3526 16.4484C94.0806 16.7684 93.7126 17.0404 93.2486 17.2644C92.8006 17.4724 92.2406 17.5764 91.5686 17.5764ZM92.1686 16.2084C93.1606 16.2084 93.8726 15.8804 94.3046 15.2244C94.7526 14.5684 94.9766 13.6884 94.9766 12.5844C94.9766 11.4004 94.7446 10.4964 94.2806 9.87235C93.8326 9.24835 93.1286 8.93635 92.1686 8.93635C91.1126 8.93635 90.3526 9.28835 89.8886 9.99235C89.4406 10.6804 89.2166 11.5364 89.2166 12.5604C89.2166 13.6324 89.4486 14.5124 89.9126 15.2004C90.3766 15.8724 91.1286 16.2084 92.1686 16.2084ZM99.6028 6.53635C99.2508 6.53635 99.0108 6.44835 98.8828 6.27235C98.7708 6.08035 98.7148 5.84035 98.7148 5.55235C98.7148 5.31235 98.7708 5.10435 98.8828 4.92835C99.0108 4.73635 99.2508 4.64035 99.6028 4.64035C99.9548 4.64035 100.187 4.73635 100.299 4.92835C100.427 5.10435 100.491 5.31235 100.491 5.55235C100.491 5.84035 100.427 6.08035 100.299 6.27235C100.187 6.44835 99.9548 6.53635 99.6028 6.53635ZM98.8348 17.3604V7.59235H100.371V17.3604H98.8348ZM102.621 17.3604V7.59235H103.941L104.205 10.0164H104.253C104.269 9.93635 104.341 9.76835 104.469 9.51235C104.597 9.25635 104.789 8.98435 105.045 8.69635C105.317 8.39235 105.669 8.13635 106.101 7.92835C106.533 7.70435 107.085 7.59235 107.757 7.59235C108.605 7.59235 109.269 7.74435 109.749 8.04835C110.245 8.35235 110.613 8.76035 110.853 9.27235C111.093 9.76835 111.245 10.3044 111.309 10.8804C111.373 11.4564 111.405 12.0084 111.405 12.5364V17.3604H109.917V12.5364C109.917 11.4804 109.733 10.6244 109.365 9.96835C109.013 9.31235 108.309 8.98435 107.253 8.98435C106.533 8.98435 105.941 9.16035 105.477 9.51235C105.029 9.84835 104.701 10.3044 104.493 10.8804C104.301 11.4404 104.205 12.0564 104.205 12.7284V17.3604H102.621Z" fill="white"/>
<path d="M10.6855 46.0273C6.08313 46.0273 2.35217 49.7583 2.35217 54.3607C2.35217 58.963 6.08313 62.694 10.6855 62.694C15.2879 62.694 19.0188 58.963 19.0188 54.3607C19.0188 49.7583 15.2879 46.0273 10.6855 46.0273Z" fill="white"/>
<path fill-rule="evenodd" clip-rule="evenodd" d="M13.7748 52.1044C14.1002 52.4299 14.1002 52.9575 13.7748 53.2829L10.4414 56.6163C10.116 56.9417 9.58835 56.9417 9.26292 56.6163L7.59625 54.9496C7.27081 54.6242 7.27081 54.0965 7.59625 53.7711C7.92169 53.4457 8.44932 53.4457 8.77476 53.7711L9.85217 54.8485L12.5963 52.1044C12.9217 51.779 13.4493 51.779 13.7748 52.1044Z" fill="#133063"/>
<path d="M39.6935 60.0164V61.3604H34.1255V60.0164H36.2615V50.1524C36.1015 50.6484 35.8775 51.0404 35.5895 51.3284C35.3175 51.6004 35.0215 51.8084 34.7015 51.9524C34.3975 52.0804 34.1175 52.1684 33.8615 52.2164C33.6215 52.2484 33.4535 52.2644 33.3575 52.2644V50.6324C33.4535 50.6484 33.6535 50.6244 33.9575 50.5604C34.2775 50.4964 34.6215 50.3684 34.9895 50.1764C35.3575 49.9844 35.6775 49.7044 35.9495 49.3364C36.2215 48.9684 36.3655 48.4724 36.3815 47.8484H37.7735V60.0164H39.6935ZM50.5747 61.3604V56.4164L45.9907 47.8484H47.7187L51.3907 55.0004L55.0627 47.8484H56.7667L52.1347 56.4164V61.3604H50.5747ZM61.0063 61.6004C59.9343 61.6004 59.0463 61.3604 58.3423 60.8804C57.6543 60.3844 57.1423 59.7524 56.8063 58.9844C56.4863 58.2004 56.3263 57.3924 56.3263 56.5604C56.3263 55.6484 56.5023 54.8164 56.8543 54.0644C57.2223 53.2964 57.7503 52.6884 58.4383 52.2404C59.1423 51.7924 59.9823 51.5684 60.9583 51.5684C62.2063 51.5684 63.2463 51.9764 64.0783 52.7924C64.9103 53.5924 65.3583 54.6724 65.4223 56.0324C65.4383 56.0964 65.4463 56.1924 65.4463 56.3204C65.4463 56.4324 65.4463 56.5364 65.4463 56.6324H57.8143C57.8143 57.7684 58.0863 58.6644 58.6303 59.3204C59.1903 59.9604 59.9743 60.2804 60.9823 60.2804C61.7343 60.2804 62.3743 60.0884 62.9023 59.7044C63.4463 59.3204 63.7823 58.8004 63.9103 58.1444H65.4223C65.2623 59.1364 64.7903 59.9604 64.0063 60.6164C63.2223 61.2724 62.2223 61.6004 61.0063 61.6004ZM57.8623 55.7924H63.8623C63.8623 55.4564 63.7663 55.0564 63.5743 54.5924C63.3983 54.1284 63.0943 53.7284 62.6623 53.3924C62.2463 53.0404 61.6703 52.8644 60.9343 52.8644C60.2623 52.8644 59.7103 53.0084 59.2783 53.2964C58.8463 53.5844 58.5183 53.9524 58.2943 54.4004C58.0703 54.8484 57.9263 55.3124 57.8623 55.7924ZM70.8264 61.5764C69.9304 61.5764 69.1944 61.3604 68.6184 60.9284C68.0424 60.4804 67.6104 59.8804 67.3224 59.1284C67.0504 58.3764 66.9144 57.5204 66.9144 56.5604C66.9144 55.0884 67.2344 53.8804 67.8744 52.9364C68.5304 51.9764 69.5144 51.4964 70.8264 51.4964C71.4984 51.4964 72.0584 51.6164 72.5064 51.8564C72.9704 52.0804 73.3384 52.3604 73.6104 52.6964C73.8984 53.0324 74.1064 53.3524 74.2344 53.6564H74.2584V51.5924H75.8424V61.3604H74.5224L74.2824 59.4644H74.2344C74.0904 59.7844 73.8824 60.1124 73.6104 60.4484C73.3384 60.7684 72.9704 61.0404 72.5064 61.2644C72.0584 61.4724 71.4984 61.5764 70.8264 61.5764ZM71.4264 60.2084C72.4184 60.2084 73.1304 59.8804 73.5624 59.2244C74.0104 58.5684 74.2344 57.6884 74.2344 56.5844C74.2344 55.4004 74.0024 54.4964 73.5384 53.8724C73.0904 53.2484 72.3864 52.9364 71.4264 52.9364C70.3704 52.9364 69.6104 53.2884 69.1464 53.9924C68.6984 54.6804 68.4744 55.5364 68.4744 56.5604C68.4744 57.6324 68.7064 58.5124 69.1704 59.2004C69.6344 59.8724 70.3864 60.2084 71.4264 60.2084ZM77.8766 61.3604V51.5924H79.2686L79.4366 54.1604C79.5326 53.7284 79.7246 53.3124 80.0126 52.9124C80.3006 52.5124 80.6926 52.1924 81.1886 51.9524C81.7006 51.6964 82.3326 51.5764 83.0846 51.5924H83.5406V53.2964H83.0606C82.0366 53.2964 81.2606 53.4484 80.7326 53.7524C80.2206 54.0404 79.8686 54.4484 79.6766 54.9764C79.5006 55.5044 79.4126 56.1124 79.4126 56.8004V61.3604H77.8766ZM92.7101 61.3604H91.1741V47.8484H96.3101C97.7981 47.8484 98.9341 48.2084 99.7181 48.9284C100.502 49.6484 100.894 50.7204 100.894 52.1444C100.894 53.4724 100.486 54.4964 99.6701 55.2164C98.8701 55.9364 97.7501 56.2964 96.3101 56.2964H92.7101V61.3604ZM96.1421 49.1684H92.7101V55.0964H96.1421C97.1981 55.0964 98.0141 54.8564 98.5901 54.3764C99.1821 53.8804 99.4781 53.1364 99.4781 52.1444C99.4781 51.1204 99.1901 50.3684 98.6141 49.8884C98.0541 49.4084 97.2301 49.1684 96.1421 49.1684ZM102.556 61.3604V51.5924H103.948L104.116 54.1604C104.212 53.7284 104.404 53.3124 104.692 52.9124C104.98 52.5124 105.372 52.1924 105.868 51.9524C106.38 51.6964 107.012 51.5764 107.764 51.5924H108.22V53.2964H107.74C106.716 53.2964 105.94 53.4484 105.412 53.7524C104.9 54.0404 104.548 54.4484 104.356 54.9764C104.18 55.5044 104.092 56.1124 104.092 56.8004V61.3604H102.556ZM113.834 61.6004C112.762 61.6004 111.874 61.3604 111.17 60.8804C110.482 60.3844 109.97 59.7524 109.634 58.9844C109.314 58.2004 109.154 57.3924 109.154 56.5604C109.154 55.6484 109.33 54.8164 109.682 54.0644C110.05 53.2964 110.578 52.6884 111.266 52.2404C111.97 51.7924 112.81 51.5684 113.786 51.5684C115.034 51.5684 116.074 51.9764 116.906 52.7924C117.738 53.5924 118.186 54.6724 118.25 56.0324C118.266 56.0964 118.274 56.1924 118.274 56.3204C118.274 56.4324 118.274 56.5364 118.274 56.6324H110.642C110.642 57.7684 110.914 58.6644 111.458 59.3204C112.018 59.9604 112.802 60.2804 113.81 60.2804C114.562 60.2804 115.202 60.0884 115.73 59.7044C116.274 59.3204 116.61 58.8004 116.738 58.1444H118.25C118.09 59.1364 117.618 59.9604 116.834 60.6164C116.05 61.2724 115.05 61.6004 113.834 61.6004ZM110.69 55.7924H116.69C116.69 55.4564 116.594 55.0564 116.402 54.5924C116.226 54.1284 115.922 53.7284 115.49 53.3924C115.074 53.0404 114.498 52.8644 113.762 52.8644C113.09 52.8644 112.538 53.0084 112.106 53.2964C111.674 53.5844 111.346 53.9524 111.122 54.4004C110.898 54.8484 110.754 55.3124 110.69 55.7924ZM120.223 61.3604V51.5924H121.543L121.639 54.0164H121.687C121.719 53.9044 121.791 53.7204 121.903 53.4644C122.015 53.1924 122.191 52.9124 122.431 52.6244C122.671 52.3364 122.983 52.0964 123.367 51.9044C123.751 51.6964 124.239 51.5924 124.831 51.5924C125.727 51.5924 126.383 51.8404 126.799 52.3364C127.231 52.8324 127.519 53.3924 127.663 54.0164H127.711C127.759 53.9044 127.847 53.7204 127.975 53.4644C128.103 53.1924 128.295 52.9124 128.551 52.6244C128.807 52.3364 129.135 52.0964 129.535 51.9044C129.951 51.6964 130.455 51.5924 131.047 51.5924C131.671 51.5924 132.183 51.7204 132.583 51.9764C132.983 52.2164 133.287 52.5444 133.495 52.9604C133.719 53.3604 133.879 53.7844 133.975 54.2324C134.071 54.6804 134.127 55.1124 134.143 55.5284C134.159 55.9444 134.167 56.2804 134.167 56.5364V61.3604H132.823V56.5364C132.823 56.2804 132.807 55.9524 132.775 55.5524C132.743 55.1524 132.663 54.7604 132.535 54.3764C132.407 53.9764 132.183 53.6484 131.863 53.3924C131.559 53.1204 131.119 52.9844 130.543 52.9844C129.903 52.9844 129.391 53.1604 129.007 53.5124C128.623 53.8644 128.343 54.3284 128.167 54.9044C127.991 55.4644 127.903 56.0724 127.903 56.7284V61.3604H126.559V56.5364C126.559 56.2804 126.543 55.9524 126.511 55.5524C126.479 55.1524 126.399 54.7604 126.271 54.3764C126.143 53.9764 125.919 53.6484 125.599 53.3924C125.295 53.1204 124.855 52.9844 124.279 52.9844C123.639 52.9844 123.127 53.1604 122.743 53.5124C122.359 53.8644 122.079 54.3284 121.903 54.9044C121.727 55.4644 121.639 56.0724 121.639 56.7284V61.3604H120.223ZM137.29 50.5364C136.938 50.5364 136.698 50.4484 136.57 50.2724C136.458 50.0804 136.402 49.8404 136.402 49.5524C136.402 49.3124 136.458 49.1044 136.57 48.9284C136.698 48.7364 136.938 48.6404 137.29 48.6404C137.642 48.6404 137.874 48.7364 137.986 48.9284C138.114 49.1044 138.178 49.3124 138.178 49.5524C138.178 49.8404 138.114 50.0804 137.986 50.2724C137.874 50.4484 137.642 50.5364 137.29 50.5364ZM136.522 61.3604V51.5924H138.058V61.3604H136.522ZM143.932 61.6004C143.132 61.6004 142.484 61.4564 141.988 61.1684C141.508 60.8804 141.14 60.4964 140.884 60.0164C140.628 59.5204 140.452 58.9844 140.356 58.4084C140.276 57.8164 140.236 57.2244 140.236 56.6324V51.5924H141.772V56.6564C141.772 57.2964 141.836 57.8884 141.964 58.4324C142.092 58.9764 142.348 59.4084 142.732 59.7284C143.132 60.0484 143.708 60.2084 144.46 60.2084C145.18 60.2084 145.74 60.0484 146.14 59.7284C146.556 59.3924 146.86 58.9604 147.052 58.4324C147.244 57.9044 147.356 57.3524 147.388 56.7764V51.5924H148.972V61.3604H147.652L147.388 59.1764H147.34C147.26 59.4484 147.092 59.7764 146.836 60.1604C146.58 60.5444 146.212 60.8804 145.732 61.1684C145.268 61.4564 144.668 61.6004 143.932 61.6004ZM150.996 61.3604V51.5924H152.316L152.412 54.0164H152.46C152.492 53.9044 152.564 53.7204 152.676 53.4644C152.788 53.1924 152.964 52.9124 153.204 52.6244C153.444 52.3364 153.756 52.0964 154.14 51.9044C154.524 51.6964 155.012 51.5924 155.604 51.5924C156.5 51.5924 157.156 51.8404 157.572 52.3364C158.004 52.8324 158.292 53.3924 158.436 54.0164H158.484C158.532 53.9044 158.62 53.7204 158.748 53.4644C158.876 53.1924 159.068 52.9124 159.324 52.6244C159.58 52.3364 159.908 52.0964 160.308 51.9044C160.724 51.6964 161.228 51.5924 161.82 51.5924C162.444 51.5924 162.956 51.7204 163.356 51.9764C163.756 52.2164 164.06 52.5444 164.268 52.9604C164.492 53.3604 164.652 53.7844 164.748 54.2324C164.844 54.6804 164.9 55.1124 164.916 55.5284C164.932 55.9444 164.94 56.2804 164.94 56.5364V61.3604H163.596V56.5364C163.596 56.2804 163.58 55.9524 163.548 55.5524C163.516 55.1524 163.436 54.7604 163.308 54.3764C163.18 53.9764 162.956 53.6484 162.636 53.3924C162.332 53.1204 161.892 52.9844 161.316 52.9844C160.676 52.9844 160.164 53.1604 159.78 53.5124C159.396 53.8644 159.116 54.3284 158.94 54.9044C158.764 55.4644 158.676 56.0724 158.676 56.7284V61.3604H157.332V56.5364C157.332 56.2804 157.316 55.9524 157.284 55.5524C157.252 55.1524 157.172 54.7604 157.044 54.3764C156.916 53.9764 156.692 53.6484 156.372 53.3924C156.068 53.1204 155.628 52.9844 155.052 52.9844C154.412 52.9844 153.9 53.1604 153.516 53.5124C153.132 53.8644 152.852 54.3284 152.676 54.9044C152.5 55.4644 152.412 56.0724 152.412 56.7284V61.3604H150.996ZM178.079 61.6724C177.135 61.6724 176.223 61.5204 175.343 61.2164C174.479 60.8964 173.767 60.4084 173.207 59.7524C172.647 59.0804 172.359 58.2164 172.343 57.1604H173.879C173.879 57.2084 173.895 57.3444 173.927 57.5684C173.959 57.7924 174.039 58.0564 174.167 58.3604C174.311 58.6484 174.535 58.9444 174.839 59.2484C175.143 59.5364 175.567 59.7764 176.111 59.9684C176.655 60.1604 177.351 60.2564 178.199 60.2564C179.143 60.2564 179.863 60.1204 180.359 59.8484C180.855 59.5604 181.191 59.2404 181.367 58.8884C181.559 58.5204 181.655 58.2324 181.655 58.0244C181.671 57.4644 181.519 57.0164 181.199 56.6804C180.879 56.3444 180.447 56.0724 179.903 55.8644C179.375 55.6564 178.791 55.4724 178.151 55.3124C177.511 55.1524 176.871 54.9844 176.231 54.8084C175.607 54.6164 175.031 54.3764 174.503 54.0884C173.975 53.7844 173.559 53.3924 173.255 52.9124C172.951 52.4324 172.815 51.8164 172.847 51.0644C172.879 50.3444 173.127 49.7284 173.591 49.2164C174.055 48.7044 174.671 48.3124 175.439 48.0404C176.223 47.7524 177.111 47.6084 178.103 47.6084C179.015 47.6084 179.855 47.7764 180.623 48.1124C181.407 48.4324 182.031 48.9204 182.495 49.5764C182.959 50.2324 183.175 51.0484 183.143 52.0244H181.631C181.647 51.4164 181.527 50.9204 181.271 50.5364C181.031 50.1364 180.711 49.8324 180.311 49.6244C179.911 49.4164 179.495 49.2724 179.063 49.1924C178.647 49.0964 178.279 49.0484 177.959 49.0484C176.951 49.0484 176.119 49.2484 175.463 49.6484C174.807 50.0484 174.471 50.5684 174.455 51.2084C174.455 51.7684 174.615 52.2164 174.935 52.5524C175.255 52.8884 175.679 53.1604 176.207 53.3684C176.751 53.5604 177.343 53.7284 177.983 53.8724C178.623 54.0164 179.255 54.1844 179.879 54.3764C180.519 54.5524 181.103 54.7844 181.631 55.0724C182.159 55.3604 182.575 55.7524 182.879 56.2484C183.183 56.7444 183.319 57.3764 183.287 58.1444C183.255 58.8964 183.007 59.5364 182.543 60.0644C182.079 60.5764 181.463 60.9764 180.695 61.2644C179.927 61.5364 179.055 61.6724 178.079 61.6724ZM188.768 61.6004C187.968 61.6004 187.32 61.4564 186.824 61.1684C186.344 60.8804 185.976 60.4964 185.72 60.0164C185.464 59.5204 185.288 58.9844 185.192 58.4084C185.112 57.8164 185.072 57.2244 185.072 56.6324V51.5924H186.608V56.6564C186.608 57.2964 186.672 57.8884 186.8 58.4324C186.928 58.9764 187.184 59.4084 187.568 59.7284C187.968 60.0484 188.544 60.2084 189.296 60.2084C190.016 60.2084 190.576 60.0484 190.976 59.7284C191.392 59.3924 191.696 58.9604 191.888 58.4324C192.08 57.9044 192.192 57.3524 192.224 56.7764V51.5924H193.808V61.3604H192.488L192.224 59.1764H192.176C192.096 59.4484 191.928 59.7764 191.672 60.1604C191.416 60.5444 191.048 60.8804 190.568 61.1684C190.104 61.4564 189.504 61.6004 188.768 61.6004ZM201.28 61.6004C200.656 61.6004 200.12 61.4964 199.672 61.2884C199.24 61.0644 198.888 60.8084 198.616 60.5204C198.344 60.2324 198.136 59.9604 197.992 59.7044C197.864 59.4484 197.784 59.2804 197.752 59.2004H197.704V65.3924H196.12V51.5924H197.44L197.704 54.0404H197.752C197.784 53.9604 197.864 53.7924 197.992 53.5364C198.12 53.2804 198.312 53.0004 198.568 52.6964C198.84 52.3924 199.192 52.1364 199.624 51.9284C200.072 51.7044 200.624 51.5924 201.28 51.5924C202.224 51.5924 203.008 51.8084 203.632 52.2404C204.272 52.6724 204.752 53.2724 205.072 54.0404C205.408 54.7924 205.576 55.6564 205.576 56.6324C205.576 58.0884 205.208 59.2804 204.472 60.2084C203.736 61.1364 202.672 61.6004 201.28 61.6004ZM200.968 60.2324C201.72 60.2324 202.32 60.0564 202.768 59.7044C203.232 59.3524 203.56 58.9044 203.752 58.3604C203.96 57.8004 204.064 57.2164 204.064 56.6084C204.064 55.9844 203.952 55.4004 203.728 54.8564C203.504 54.3124 203.152 53.8724 202.672 53.5364C202.208 53.1844 201.592 53.0084 200.824 53.0084C199.896 53.0084 199.152 53.3364 198.592 53.9924C198.032 54.6324 197.752 55.5044 197.752 56.6084C197.752 57.7284 198.048 58.6164 198.64 59.2724C199.232 59.9124 200.008 60.2324 200.968 60.2324ZM212.671 61.6004C212.047 61.6004 211.511 61.4964 211.063 61.2884C210.631 61.0644 210.279 60.8084 210.007 60.5204C209.735 60.2324 209.527 59.9604 209.383 59.7044C209.255 59.4484 209.175 59.2804 209.143 59.2004H209.095V65.3924H207.511V51.5924H208.831L209.095 54.0404H209.143C209.175 53.9604 209.255 53.7924 209.383 53.5364C209.511 53.2804 209.703 53.0004 209.959 52.6964C210.231 52.3924 210.583 52.1364 211.015 51.9284C211.463 51.7044 212.015 51.5924 212.671 51.5924C213.615 51.5924 214.399 51.8084 215.023 52.2404C215.663 52.6724 216.143 53.2724 216.463 54.0404C216.799 54.7924 216.967 55.6564 216.967 56.6324C216.967 58.0884 216.599 59.2804 215.863 60.2084C215.127 61.1364 214.063 61.6004 212.671 61.6004ZM212.359 60.2324C213.111 60.2324 213.711 60.0564 214.159 59.7044C214.623 59.3524 214.951 58.9044 215.143 58.3604C215.351 57.8004 215.455 57.2164 215.455 56.6084C215.455 55.9844 215.343 55.4004 215.119 54.8564C214.895 54.3124 214.543 53.8724 214.063 53.5364C213.599 53.1844 212.983 53.0084 212.215 53.0084C211.287 53.0084 210.543 53.3364 209.983 53.9924C209.423 54.6324 209.143 55.5044 209.143 56.6084C209.143 57.7284 209.439 58.6164 210.031 59.2724C210.623 59.9124 211.399 60.2324 212.359 60.2324ZM223.029 61.6004C221.461 61.6004 220.285 61.1364 219.501 60.2084C218.733 59.2644 218.349 58.0644 218.349 56.6084C218.333 55.1364 218.717 53.9364 219.501 53.0084C220.301 52.0644 221.477 51.5844 223.029 51.5684C224.565 51.5684 225.725 52.0324 226.509 52.9604C227.309 53.8724 227.709 55.0884 227.709 56.6084C227.709 57.5524 227.541 58.4004 227.205 59.1524C226.869 59.9044 226.357 60.5044 225.669 60.9524C224.981 61.3844 224.101 61.6004 223.029 61.6004ZM223.029 60.2564C223.861 60.2564 224.501 60.0724 224.949 59.7044C225.413 59.3364 225.733 58.8724 225.909 58.3124C226.101 57.7364 226.197 57.1524 226.197 56.5604C226.197 55.9684 226.101 55.3844 225.909 54.8084C225.733 54.2324 225.413 53.7604 224.949 53.3924C224.501 53.0244 223.861 52.8404 223.029 52.8404C222.197 52.8404 221.549 53.0244 221.085 53.3924C220.637 53.7604 220.317 54.2324 220.125 54.8084C219.949 55.3844 219.861 55.9684 219.861 56.5604C219.861 57.1524 219.949 57.7364 220.125 58.3124C220.317 58.8724 220.637 59.3364 221.085 59.7044C221.549 60.0724 222.197 60.2564 223.029 60.2564ZM229.822 61.3604V51.5924H231.214L231.382 54.1604C231.478 53.7284 231.67 53.3124 231.958 52.9124C232.246 52.5124 232.638 52.1924 233.134 51.9524C233.646 51.6964 234.278 51.5764 235.03 51.5924H235.486V53.2964H235.006C233.982 53.2964 233.206 53.4484 232.678 53.7524C232.166 54.0404 231.814 54.4484 231.622 54.9764C231.446 55.5044 231.358 56.1124 231.358 56.8004V61.3604H229.822ZM239.928 61.3604C239.336 61.3604 238.92 61.2004 238.68 60.8804C238.456 60.5604 238.344 60.1204 238.344 59.5604V52.7444H236.808V51.5924C237.32 51.5924 237.696 51.5524 237.936 51.4724C238.192 51.3764 238.352 51.1524 238.416 50.8004C238.48 50.4484 238.512 49.8724 238.512 49.0724H239.832V51.5924H242.088V52.7444H239.832V60.1124H242.112V61.3604H239.928Z" fill="white"/>
<path d="M10.6855 90.0273C6.08313 90.0273 2.35217 93.7583 2.35217 98.3607C2.35217 102.963 6.08313 106.694 10.6855 106.694C15.2879 106.694 19.0188 102.963 19.0188 98.3607C19.0188 93.7583 15.2879 90.0273 10.6855 90.0273Z" fill="white"/>
<path fill-rule="evenodd" clip-rule="evenodd" d="M13.7748 96.1044C14.1002 96.4299 14.1002 96.9575 13.7748 97.2829L10.4414 100.616C10.116 100.942 9.58835 100.942 9.26292 100.616L7.59625 98.9496C7.27081 98.6242 7.27081 98.0965 7.59625 97.7711C7.92169 97.4457 8.44932 97.4457 8.77476 97.7711L9.85217 98.8485L12.5963 96.1044C12.9217 95.779 13.4493 95.779 13.7748 96.1044Z" fill="#133063"/>
<path d="M34.0535 105.36V91.8484H36.7175L41.1095 104.664H41.1575L45.4775 91.8484H48.1415V105.36H46.5815L46.6535 92.6404H46.6055L42.2375 105.36H39.9575L35.5895 92.6404H35.5415L35.6135 105.36H34.0535ZM54.8885 105.6C53.3205 105.6 52.1445 105.136 51.3605 104.208C50.5925 103.264 50.2085 102.064 50.2085 100.608C50.1925 99.1364 50.5765 97.9364 51.3605 97.0084C52.1605 96.0644 53.3365 95.5844 54.8885 95.5684C56.4245 95.5684 57.5845 96.0324 58.3685 96.9604C59.1685 97.8724 59.5685 99.0884 59.5685 100.608C59.5685 101.552 59.4005 102.4 59.0645 103.152C58.7285 103.904 58.2165 104.504 57.5285 104.952C56.8405 105.384 55.9605 105.6 54.8885 105.6ZM54.8885 104.256C55.7205 104.256 56.3605 104.072 56.8085 103.704C57.2725 103.336 57.5925 102.872 57.7685 102.312C57.9605 101.736 58.0565 101.152 58.0565 100.56C58.0565 99.9684 57.9605 99.3844 57.7685 98.8084C57.5925 98.2324 57.2725 97.7604 56.8085 97.3924C56.3605 97.0244 55.7205 96.8404 54.8885 96.8404C54.0565 96.8404 53.4085 97.0244 52.9445 97.3924C52.4965 97.7604 52.1765 98.2324 51.9845 98.8084C51.8085 99.3844 51.7205 99.9684 51.7205 100.56C51.7205 101.152 51.8085 101.736 51.9845 102.312C52.1765 102.872 52.4965 103.336 52.9445 103.704C53.4085 104.072 54.0565 104.256 54.8885 104.256ZM61.4413 105.36V95.5924H62.7613L63.0253 98.0164H63.0733C63.0893 97.9364 63.1613 97.7684 63.2893 97.5124C63.4173 97.2564 63.6093 96.9844 63.8653 96.6964C64.1373 96.3924 64.4893 96.1364 64.9213 95.9284C65.3533 95.7044 65.9053 95.5924 66.5773 95.5924C67.4253 95.5924 68.0893 95.7444 68.5693 96.0484C69.0653 96.3524 69.4333 96.7604 69.6733 97.2724C69.9133 97.7684 70.0653 98.3044 70.1293 98.8804C70.1933 99.4564 70.2253 100.008 70.2253 100.536V105.36H68.7373V100.536C68.7373 99.4804 68.5533 98.6244 68.1853 97.9684C67.8333 97.3124 67.1293 96.9844 66.0733 96.9844C65.3533 96.9844 64.7613 97.1604 64.2973 97.5124C63.8493 97.8484 63.5213 98.3044 63.3133 98.8804C63.1213 99.4404 63.0253 100.056 63.0253 100.728V105.36H61.4413ZM74.6002 105.36C74.0082 105.36 73.5922 105.2 73.3522 104.88C73.1282 104.56 73.0162 104.12 73.0162 103.56V96.7444H71.4802V95.5924C71.9922 95.5924 72.3682 95.5524 72.6082 95.4724C72.8642 95.3764 73.0242 95.1524 73.0882 94.8004C73.1522 94.4484 73.1842 93.8724 73.1842 93.0724H74.5042V95.5924H76.7602V96.7444H74.5042V104.112H76.7842V105.36H74.6002ZM78.881 105.36V91.8484H80.441V98.0164H80.489C80.521 97.9364 80.593 97.7684 80.705 97.5124C80.833 97.2564 81.025 96.9844 81.281 96.6964C81.537 96.3924 81.881 96.1364 82.313 95.9284C82.745 95.7044 83.289 95.5924 83.945 95.5924C84.777 95.5924 85.441 95.7524 85.937 96.0724C86.433 96.3764 86.801 96.7844 87.041 97.2964C87.297 97.7924 87.465 98.3284 87.545 98.9044C87.625 99.4804 87.665 100.024 87.665 100.536V105.36H86.153V100.536C86.153 99.4804 85.969 98.6244 85.601 97.9684C85.249 97.3124 84.553 96.9844 83.513 96.9844C82.777 96.9844 82.185 97.1604 81.737 97.5124C81.289 97.8484 80.961 98.3044 80.753 98.8804C80.545 99.4404 80.441 100.056 80.441 100.728V105.36H78.881ZM89.996 105.36V91.8484H91.508V105.36H89.996ZM92.6839 109.728V108.48H94.0279C94.3479 108.48 94.6119 108.392 94.8199 108.216C95.0279 108.056 95.2839 107.656 95.5879 107.016L96.6199 104.784L92.7799 95.5924H94.3879L97.3879 103.152L100.58 95.5924H102.212L96.9799 107.232C96.6599 107.952 96.3719 108.488 96.1159 108.84C95.8759 109.208 95.6039 109.448 95.2999 109.56C94.9959 109.672 94.6119 109.728 94.1479 109.728H92.6839ZM115.089 105.696C113.281 105.696 111.889 105.168 110.913 104.112C109.953 103.04 109.473 101.536 109.473 99.6004V91.8484H111.057V99.6004C111.057 101.216 111.441 102.392 112.209 103.128C112.977 103.864 113.937 104.232 115.089 104.232C116.337 104.232 117.321 103.872 118.041 103.152C118.777 102.416 119.145 101.232 119.145 99.6004V91.8484H120.729V99.6004C120.729 101.568 120.249 103.08 119.289 104.136C118.345 105.176 116.945 105.696 115.089 105.696ZM128.436 105.6C127.812 105.6 127.276 105.496 126.828 105.288C126.396 105.064 126.044 104.808 125.772 104.52C125.5 104.232 125.292 103.96 125.148 103.704C125.02 103.448 124.94 103.28 124.908 103.2H124.86V109.392H123.276V95.5924H124.596L124.86 98.0404H124.908C124.94 97.9604 125.02 97.7924 125.148 97.5364C125.276 97.2804 125.468 97.0004 125.724 96.6964C125.996 96.3924 126.348 96.1364 126.78 95.9284C127.228 95.7044 127.78 95.5924 128.436 95.5924C129.38 95.5924 130.164 95.8084 130.788 96.2404C131.428 96.6724 131.908 97.2724 132.228 98.0404C132.564 98.7924 132.732 99.6564 132.732 100.632C132.732 102.088 132.364 103.28 131.628 104.208C130.892 105.136 129.828 105.6 128.436 105.6ZM128.124 104.232C128.876 104.232 129.476 104.056 129.924 103.704C130.388 103.352 130.716 102.904 130.908 102.36C131.116 101.8 131.22 101.216 131.22 100.608C131.22 99.9844 131.108 99.4004 130.884 98.8564C130.66 98.3124 130.308 97.8724 129.828 97.5364C129.364 97.1844 128.748 97.0084 127.98 97.0084C127.052 97.0084 126.308 97.3364 125.748 97.9924C125.188 98.6324 124.908 99.5044 124.908 100.608C124.908 101.728 125.204 102.616 125.796 103.272C126.388 103.912 127.164 104.232 128.124 104.232ZM138.819 105.6C137.875 105.6 137.083 105.384 136.443 104.952C135.819 104.52 135.347 103.928 135.027 103.176C134.723 102.408 134.571 101.552 134.571 100.608C134.571 99.1524 134.931 97.9524 135.651 97.0084C136.371 96.0644 137.435 95.5924 138.843 95.5924C139.499 95.5924 140.043 95.7044 140.475 95.9284C140.923 96.1364 141.283 96.3924 141.555 96.6964C141.827 97.0004 142.027 97.2804 142.155 97.5364C142.283 97.7924 142.363 97.9604 142.395 98.0404H142.443L142.467 91.8484H144.051V105.36H142.707L142.467 103.2H142.419C142.387 103.28 142.299 103.448 142.155 103.704C142.011 103.96 141.795 104.232 141.507 104.52C141.235 104.808 140.875 105.064 140.427 105.288C139.995 105.496 139.459 105.6 138.819 105.6ZM139.203 104.232C140.147 104.232 140.915 103.912 141.507 103.272C142.115 102.616 142.419 101.728 142.419 100.608C142.419 99.5044 142.139 98.6324 141.579 97.9924C141.019 97.3364 140.267 97.0084 139.323 97.0084C138.571 97.0084 137.955 97.1844 137.475 97.5364C136.995 97.8724 136.643 98.3124 136.419 98.8564C136.195 99.4004 136.083 99.9844 136.083 100.608C136.083 101.216 136.187 101.8 136.395 102.36C136.603 102.904 136.931 103.352 137.379 103.704C137.827 104.056 138.435 104.232 139.203 104.232ZM149.506 105.576C148.61 105.576 147.874 105.36 147.298 104.928C146.722 104.48 146.29 103.88 146.002 103.128C145.73 102.376 145.594 101.52 145.594 100.56C145.594 99.0884 145.914 97.8804 146.554 96.9364C147.21 95.9764 148.194 95.4964 149.506 95.4964C150.178 95.4964 150.738 95.6164 151.186 95.8564C151.65 96.0804 152.018 96.3604 152.29 96.6964C152.578 97.0324 152.786 97.3524 152.914 97.6564H152.938V95.5924H154.522V105.36H153.202L152.962 103.464H152.914C152.77 103.784 152.562 104.112 152.29 104.448C152.018 104.768 151.65 105.04 151.186 105.264C150.738 105.472 150.178 105.576 149.506 105.576ZM150.106 104.208C151.098 104.208 151.81 103.88 152.242 103.224C152.69 102.568 152.914 101.688 152.914 100.584C152.914 99.4004 152.682 98.4964 152.218 97.8724C151.77 97.2484 151.066 96.9364 150.106 96.9364C149.05 96.9364 148.29 97.2884 147.826 97.9924C147.378 98.6804 147.154 99.5364 147.154 100.56C147.154 101.632 147.386 102.512 147.85 103.2C148.314 103.872 149.066 104.208 150.106 104.208ZM158.764 105.36C158.172 105.36 157.756 105.2 157.516 104.88C157.292 104.56 157.18 104.12 157.18 103.56V96.7444H155.644V95.5924C156.156 95.5924 156.532 95.5524 156.772 95.4724C157.028 95.3764 157.188 95.1524 157.252 94.8004C157.316 94.4484 157.348 93.8724 157.348 93.0724H158.668V95.5924H160.924V96.7444H158.668V104.112H160.948V105.36H158.764ZM167.084 105.6C166.012 105.6 165.124 105.36 164.42 104.88C163.732 104.384 163.22 103.752 162.884 102.984C162.564 102.2 162.404 101.392 162.404 100.56C162.404 99.6484 162.58 98.8164 162.932 98.0644C163.3 97.2964 163.828 96.6884 164.516 96.2404C165.22 95.7924 166.06 95.5684 167.036 95.5684C168.284 95.5684 169.324 95.9764 170.156 96.7924C170.988 97.5924 171.436 98.6724 171.5 100.032C171.516 100.096 171.524 100.192 171.524 100.32C171.524 100.432 171.524 100.536 171.524 100.632H163.892C163.892 101.768 164.164 102.664 164.708 103.32C165.268 103.96 166.052 104.28 167.06 104.28C167.812 104.28 168.452 104.088 168.98 103.704C169.524 103.32 169.86 102.8 169.988 102.144H171.5C171.34 103.136 170.868 103.96 170.084 104.616C169.3 105.272 168.3 105.6 167.084 105.6ZM163.94 99.7924H169.94C169.94 99.4564 169.844 99.0564 169.652 98.5924C169.476 98.1284 169.172 97.7284 168.74 97.3924C168.324 97.0404 167.748 96.8644 167.012 96.8644C166.34 96.8644 165.788 97.0084 165.356 97.2964C164.924 97.5844 164.596 97.9524 164.372 98.4004C164.148 98.8484 164.004 99.3124 163.94 99.7924ZM177.361 105.6C176.433 105.6 175.665 105.408 175.057 105.024C174.465 104.624 174.017 104.16 173.713 103.632C173.425 103.104 173.281 102.632 173.281 102.216H174.769C174.769 102.232 174.777 102.352 174.793 102.576C174.825 102.8 174.913 103.056 175.057 103.344C175.201 103.632 175.449 103.888 175.801 104.112C176.153 104.32 176.665 104.424 177.337 104.424C178.057 104.424 178.673 104.296 179.185 104.04C179.713 103.784 179.969 103.384 179.953 102.84C179.953 102.376 179.793 102.024 179.473 101.784C179.169 101.528 178.769 101.336 178.273 101.208C177.777 101.064 177.257 100.928 176.713 100.8C176.169 100.672 175.649 100.512 175.153 100.32C174.673 100.112 174.281 99.8244 173.977 99.4564C173.673 99.0884 173.521 98.5764 173.521 97.9204C173.521 97.1204 173.881 96.4884 174.601 96.0244C175.321 95.5444 176.241 95.3044 177.361 95.3044C177.985 95.3044 178.617 95.4084 179.257 95.6164C179.897 95.8084 180.425 96.1524 180.841 96.6484C181.257 97.1284 181.449 97.8084 181.417 98.6884H179.977C180.009 98.0804 179.873 97.6244 179.569 97.3204C179.265 97.0164 178.897 96.8164 178.465 96.7204C178.049 96.6084 177.665 96.5524 177.313 96.5524C176.625 96.5524 176.057 96.6804 175.609 96.9364C175.177 97.1924 174.961 97.5524 174.961 98.0164C174.961 98.4644 175.113 98.8084 175.417 99.0484C175.737 99.2724 176.137 99.4564 176.617 99.6004C177.113 99.7284 177.633 99.8564 178.177 99.9844C178.737 100.096 179.265 100.256 179.761 100.464C180.257 100.672 180.657 100.968 180.961 101.352C181.281 101.736 181.441 102.264 181.441 102.936C181.441 103.864 181.049 104.544 180.265 104.976C179.481 105.392 178.513 105.6 177.361 105.6Z" fill="white"/>
</svg>
