<svg width="179" height="63" viewBox="0 0 179 63" fill="none" xmlns="http://www.w3.org/2000/svg">
<rect y="0.914062" width="179" height="62" rx="31" fill="#133063"/>
<path d="M24.456 38.9141L28.992 25.4021H32.28L36.912 38.9141H34.776L33.48 34.8821H27.864L26.568 38.9141H24.456ZM30.672 26.2421L28.392 33.2981H32.952L30.672 26.2421ZM50.7771 32.1461C50.7771 33.9221 50.4331 35.3061 49.7451 36.2981C49.0571 37.2741 48.0891 37.9541 46.8411 38.3381C45.6091 38.7221 44.1611 38.9141 42.4971 38.9141H38.8491V25.4021H42.4971C44.1611 25.4021 45.6091 25.6581 46.8411 26.1701C48.0891 26.6661 49.0571 27.4101 49.7451 28.4021C50.4331 29.3941 50.7771 30.6421 50.7771 32.1461ZM40.8411 37.2341H43.0251C44.1611 37.2341 45.1531 37.1061 46.0011 36.8501C46.8491 36.5781 47.5051 36.0741 47.9691 35.3381C48.4331 34.6021 48.6651 33.5301 48.6651 32.1221C48.6651 30.4421 48.1531 29.1941 47.1291 28.3781C46.1051 27.5461 44.7371 27.1301 43.0251 27.1301H40.8411V37.2341ZM65.0974 32.1461C65.0974 33.9221 64.7534 35.3061 64.0654 36.2981C63.3774 37.2741 62.4094 37.9541 61.1614 38.3381C59.9294 38.7221 58.4814 38.9141 56.8174 38.9141H53.1694V25.4021H56.8174C58.4814 25.4021 59.9294 25.6581 61.1614 26.1701C62.4094 26.6661 63.3774 27.4101 64.0654 28.4021C64.7534 29.3941 65.0974 30.6421 65.0974 32.1461ZM55.1614 37.2341H57.3454C58.4814 37.2341 59.4734 37.1061 60.3214 36.8501C61.1694 36.5781 61.8254 36.0741 62.2894 35.3381C62.7534 34.6021 62.9854 33.5301 62.9854 32.1221C62.9854 30.4421 62.4734 29.1941 61.4494 28.3781C60.4254 27.5461 59.0574 27.1301 57.3454 27.1301H55.1614V37.2341ZM71.6306 27.1301V25.4021H81.9506V27.1301H77.7986V38.9141H75.8066V27.1301H71.6306ZM89.4874 39.2501C87.3274 39.2501 85.6794 38.6181 84.5434 37.3541C83.4074 36.0741 82.8394 34.3541 82.8394 32.1941C82.8394 30.7701 83.0794 29.5381 83.5594 28.4981C84.0554 27.4421 84.7914 26.6261 85.7674 26.0501C86.7594 25.4581 87.9994 25.1621 89.4874 25.1621C91.6474 25.1621 93.2874 25.8021 94.4074 27.0821C95.5434 28.3461 96.1114 30.0501 96.1114 32.1941C96.1114 33.5861 95.8554 34.8181 95.3434 35.8901C94.8474 36.9461 94.1034 37.7701 93.1114 38.3621C92.1354 38.9541 90.9274 39.2501 89.4874 39.2501ZM89.4634 37.3301C91.0154 37.3301 92.1834 36.8501 92.9674 35.8901C93.7514 34.9301 94.1434 33.6981 94.1434 32.1941C94.1434 30.6901 93.7514 29.4581 92.9674 28.4981C92.1994 27.5221 91.0314 27.0341 89.4634 27.0341C87.9274 27.0341 86.7594 27.4981 85.9594 28.4261C85.1754 29.3541 84.7834 30.6101 84.7834 32.1941C84.7834 33.1861 84.9514 34.0741 85.2874 34.8581C85.6234 35.6261 86.1354 36.2341 86.8234 36.6821C87.5274 37.1141 88.4074 37.3301 89.4634 37.3301ZM109.622 39.1541C108.374 39.1541 107.238 38.8981 106.214 38.3861C105.206 37.8581 104.406 37.0821 103.814 36.0581C103.238 35.0181 102.95 33.7301 102.95 32.1941C102.966 30.6741 103.262 29.3941 103.838 28.3541C104.414 27.2981 105.206 26.5061 106.214 25.9781C107.238 25.4341 108.406 25.1621 109.718 25.1621C111.462 25.1621 112.87 25.6261 113.942 26.5541C115.014 27.4821 115.678 28.6981 115.934 30.2021H113.87C113.742 29.4341 113.462 28.8181 113.03 28.3541C112.614 27.8901 112.11 27.5541 111.518 27.3461C110.942 27.1381 110.342 27.0341 109.718 27.0341C108.198 27.0341 107.022 27.4741 106.19 28.3541C105.358 29.2181 104.942 30.4581 104.942 32.0741C104.942 33.7701 105.35 35.0661 106.166 35.9621C106.982 36.8421 108.142 37.2821 109.646 37.2821C110.686 37.2821 111.614 37.0341 112.43 36.5381C113.246 36.0261 113.75 35.2021 113.942 34.0661H116.03C115.758 35.5701 115.086 36.7941 114.014 37.7381C112.942 38.6821 111.478 39.1541 109.622 39.1541ZM117.245 38.9141L121.781 25.4021H125.069L129.701 38.9141H127.565L126.269 34.8821H120.653L119.357 38.9141H117.245ZM123.461 26.2421L121.181 33.2981H125.741L123.461 26.2421ZM131.494 38.9141V25.4021H136.222C137.95 25.4021 139.286 25.6901 140.23 26.2661C141.19 26.8261 141.67 27.8421 141.67 29.3141C141.67 30.3381 141.406 31.1941 140.878 31.8821C140.366 32.5701 139.59 32.9141 138.55 32.9141C139.174 32.9141 139.638 33.0501 139.942 33.3221C140.246 33.5941 140.454 33.9381 140.566 34.3541C140.678 34.7541 140.75 35.1701 140.782 35.6021C140.814 36.0341 140.862 36.4261 140.926 36.7781C140.99 37.1301 141.118 37.3861 141.31 37.5461C141.502 37.6901 141.83 37.6741 142.294 37.4981V38.6981C142.07 38.8901 141.774 39.0181 141.406 39.0821C141.054 39.1621 140.702 39.1381 140.35 39.0101C139.998 38.8981 139.694 38.6581 139.438 38.2901C139.198 37.9061 139.078 37.3541 139.078 36.6341C139.078 35.7861 139.03 35.1221 138.934 34.6421C138.838 34.1621 138.614 33.8101 138.262 33.5861C137.91 33.3621 137.358 33.2341 136.606 33.2021C135.854 33.1541 134.822 33.1541 133.51 33.2021V38.9141H131.494ZM133.51 31.7141H136.294C137.11 31.7141 137.782 31.6661 138.31 31.5701C138.838 31.4581 139.23 31.2421 139.486 30.9221C139.758 30.6021 139.894 30.1141 139.894 29.4581C139.894 28.7061 139.734 28.1621 139.414 27.8261C139.094 27.4901 138.622 27.2821 137.998 27.2021C137.39 27.1061 136.646 27.0581 135.766 27.0581H133.51V31.7141ZM143.349 27.1301V25.4021H153.669V27.1301H149.517V38.9141H147.525V27.1301H143.349Z" fill="#EDF5FA"/>
</svg>
