<svg width="373" height="178" viewBox="0 0 373 178" fill="none" xmlns="http://www.w3.org/2000/svg">
<path d="M52.4438 39.194C50.5478 39.194 48.8318 38.81 47.2958 38.042C45.7598 37.25 44.5358 36.086 43.6238 34.55C42.7358 33.014 42.2918 31.094 42.2918 28.79C42.3158 26.534 42.7718 24.614 43.6598 23.03C44.5478 21.446 45.7598 20.246 47.2958 19.43C48.8318 18.614 50.5838 18.206 52.5518 18.206C54.4238 18.206 56.0198 18.542 57.3398 19.214C58.6598 19.886 59.7158 20.798 60.5078 21.95C61.3238 23.102 61.8518 24.398 62.0918 25.838H58.3118C58.1438 24.782 57.7478 23.954 57.1238 23.354C56.5238 22.73 55.8158 22.298 54.9998 22.058C54.1838 21.794 53.3678 21.662 52.5518 21.662C50.4158 21.662 48.7718 22.262 47.6198 23.462C46.4918 24.662 45.9278 26.354 45.9278 28.538C45.9278 30.866 46.4798 32.654 47.5838 33.902C48.7118 35.15 50.3438 35.774 52.4798 35.774C53.3678 35.774 54.2318 35.642 55.0718 35.378C55.9118 35.09 56.6318 34.634 57.2318 34.01C57.8318 33.362 58.2158 32.498 58.3838 31.418H62.1998C61.9358 32.906 61.3958 34.238 60.5798 35.414C59.7878 36.566 58.7078 37.49 57.3398 38.186C55.9958 38.858 54.3638 39.194 52.4438 39.194ZM71.58 39.194C69.9 39.194 68.508 38.87 67.404 38.222C66.3 37.574 65.472 36.686 64.92 35.558C64.368 34.406 64.092 33.098 64.092 31.634C64.068 29.426 64.68 27.614 65.928 26.198C67.2 24.758 69.084 24.038 71.58 24.038C74.004 24.038 75.84 24.734 77.088 26.126C78.36 27.518 78.996 29.354 78.996 31.634C78.996 33.05 78.732 34.334 78.204 35.486C77.676 36.638 76.86 37.55 75.756 38.222C74.652 38.87 73.26 39.194 71.58 39.194ZM71.58 36.098C72.636 36.098 73.44 35.87 73.992 35.414C74.568 34.958 74.952 34.382 75.144 33.686C75.336 32.966 75.432 32.246 75.432 31.526C75.432 30.782 75.336 30.05 75.144 29.33C74.952 28.61 74.568 28.022 73.992 27.566C73.44 27.11 72.636 26.882 71.58 26.882C70.5 26.882 69.672 27.122 69.096 27.602C68.544 28.058 68.16 28.646 67.944 29.366C67.752 30.062 67.656 30.782 67.656 31.526C67.656 32.246 67.752 32.966 67.944 33.686C68.16 34.382 68.544 34.958 69.096 35.414C69.672 35.87 70.5 36.098 71.58 36.098ZM81.5765 38.834V24.038H84.7805L84.8165 27.242H84.8885C84.9125 27.146 85.0085 26.942 85.1765 26.63C85.3445 26.294 85.5965 25.934 85.9325 25.55C86.2685 25.142 86.7125 24.794 87.2645 24.506C87.8165 24.194 88.5005 24.038 89.3165 24.038C90.5165 24.038 91.4165 24.362 92.0165 25.01C92.6165 25.634 93.0485 26.378 93.3125 27.242H93.3845C93.4085 27.146 93.5045 26.942 93.6725 26.63C93.8645 26.294 94.1405 25.934 94.5005 25.55C94.8845 25.142 95.3645 24.794 95.9405 24.506C96.5165 24.194 97.2245 24.038 98.0645 24.038C99.0005 24.038 99.7565 24.242 100.333 24.65C100.909 25.034 101.353 25.538 101.665 26.162C102.001 26.762 102.229 27.41 102.349 28.106C102.493 28.802 102.565 29.474 102.565 30.122C102.589 30.746 102.601 31.262 102.601 31.67V38.834H99.5045V31.634C99.5045 31.274 99.4925 30.854 99.4685 30.374C99.4445 29.87 99.3485 29.39 99.1805 28.934C99.0125 28.454 98.7365 28.058 98.3525 27.746C97.9685 27.434 97.4405 27.278 96.7685 27.278C95.9285 27.278 95.2925 27.506 94.8605 27.962C94.4285 28.394 94.1285 28.958 93.9605 29.654C93.7925 30.326 93.7085 31.034 93.7085 31.778V38.834H90.6125V31.634C90.6125 31.274 90.6005 30.854 90.5765 30.374C90.5525 29.87 90.4565 29.39 90.2885 28.934C90.1205 28.454 89.8445 28.058 89.4605 27.746C89.0765 27.434 88.5485 27.278 87.8765 27.278C87.0365 27.278 86.4005 27.506 85.9685 27.962C85.5365 28.394 85.2365 28.958 85.0685 29.654C84.9005 30.326 84.8165 31.034 84.8165 31.778V38.834H81.5765ZM105.342 38.834V24.038H108.546L108.582 27.242H108.654C108.678 27.146 108.774 26.942 108.942 26.63C109.11 26.294 109.362 25.934 109.698 25.55C110.034 25.142 110.478 24.794 111.03 24.506C111.582 24.194 112.266 24.038 113.082 24.038C114.282 24.038 115.182 24.362 115.782 25.01C116.382 25.634 116.814 26.378 117.078 27.242H117.15C117.174 27.146 117.27 26.942 117.438 26.63C117.63 26.294 117.906 25.934 118.266 25.55C118.65 25.142 119.13 24.794 119.706 24.506C120.282 24.194 120.99 24.038 121.83 24.038C122.766 24.038 123.522 24.242 124.098 24.65C124.674 25.034 125.118 25.538 125.43 26.162C125.766 26.762 125.994 27.41 126.114 28.106C126.258 28.802 126.33 29.474 126.33 30.122C126.354 30.746 126.366 31.262 126.366 31.67V38.834H123.27V31.634C123.27 31.274 123.258 30.854 123.234 30.374C123.21 29.87 123.114 29.39 122.946 28.934C122.778 28.454 122.502 28.058 122.118 27.746C121.734 27.434 121.206 27.278 120.534 27.278C119.694 27.278 119.058 27.506 118.626 27.962C118.194 28.394 117.894 28.958 117.726 29.654C117.558 30.326 117.474 31.034 117.474 31.778V38.834H114.378V31.634C114.378 31.274 114.366 30.854 114.342 30.374C114.318 29.87 114.222 29.39 114.054 28.934C113.886 28.454 113.61 28.058 113.226 27.746C112.842 27.434 112.314 27.278 111.642 27.278C110.802 27.278 110.166 27.506 109.734 27.962C109.302 28.394 109.002 28.958 108.834 29.654C108.666 30.326 108.582 31.034 108.582 31.778V38.834H105.342ZM136.02 39.194C134.316 39.194 132.924 38.834 131.844 38.114C130.788 37.37 129.996 36.434 129.468 35.306C128.964 34.154 128.7 32.942 128.676 31.67C128.652 30.182 128.928 28.862 129.504 27.71C130.104 26.534 130.944 25.622 132.024 24.974C133.128 24.302 134.424 23.966 135.912 23.966C137.232 23.966 138.408 24.254 139.44 24.83C140.496 25.406 141.336 26.222 141.96 27.278C142.584 28.31 142.908 29.534 142.932 30.95C142.932 30.998 142.932 31.13 142.932 31.346C142.932 31.562 142.932 31.742 142.932 31.886H132.168C132.168 33.254 132.504 34.31 133.176 35.054C133.848 35.774 134.772 36.134 135.948 36.134C136.86 36.134 137.616 35.906 138.216 35.45C138.84 34.994 139.212 34.394 139.332 33.65H142.896C142.728 35.21 142.056 36.53 140.88 37.61C139.704 38.666 138.084 39.194 136.02 39.194ZM132.276 30.23H139.26C139.236 30.062 139.176 29.798 139.08 29.438C139.008 29.078 138.852 28.706 138.612 28.322C138.396 27.938 138.06 27.614 137.604 27.35C137.148 27.086 136.56 26.954 135.84 26.954C134.88 26.954 134.148 27.158 133.644 27.566C133.164 27.95 132.816 28.406 132.6 28.934C132.408 29.438 132.3 29.87 132.276 30.23ZM145.917 38.834V24.038H149.337L149.589 28.142C149.733 27.518 150.009 26.894 150.417 26.27C150.849 25.622 151.437 25.094 152.181 24.686C152.949 24.254 153.933 24.038 155.133 24.038H155.673V28.142H155.133C153.069 28.142 151.629 28.478 150.813 29.15C149.997 29.798 149.589 30.902 149.589 32.462V38.834H145.917ZM164.923 39.194C163.531 39.194 162.271 38.918 161.143 38.366C160.015 37.79 159.115 36.95 158.443 35.846C157.771 34.718 157.435 33.35 157.435 31.742C157.483 30.134 157.831 28.754 158.479 27.602C159.151 26.45 160.039 25.562 161.143 24.938C162.271 24.314 163.555 24.002 164.995 24.002C166.459 24.002 167.707 24.29 168.739 24.866C169.795 25.418 170.611 26.15 171.187 27.062C171.763 27.95 172.087 28.874 172.159 29.834H168.775C168.415 28.058 167.191 27.17 165.103 27.17C163.807 27.17 162.799 27.566 162.079 28.358C161.383 29.15 161.035 30.182 161.035 31.454C161.035 32.846 161.371 33.962 162.043 34.802C162.739 35.618 163.759 36.026 165.103 36.026C166.015 36.026 166.807 35.786 167.479 35.306C168.175 34.826 168.607 34.118 168.775 33.182H172.159C172.087 34.214 171.751 35.186 171.151 36.098C170.575 37.01 169.759 37.754 168.703 38.33C167.671 38.906 166.411 39.194 164.923 39.194ZM177.118 22.418C176.326 22.442 175.798 22.262 175.534 21.878C175.294 21.47 175.174 20.99 175.174 20.438C175.174 19.91 175.306 19.454 175.57 19.07C175.834 18.686 176.35 18.494 177.118 18.494C177.862 18.494 178.354 18.686 178.594 19.07C178.858 19.454 178.99 19.91 178.99 20.438C178.99 20.99 178.858 21.458 178.594 21.842C178.354 22.202 177.862 22.394 177.118 22.418ZM175.246 38.834V24.038H178.918V38.834H175.246ZM187.199 39.194C185.159 39.194 183.707 38.498 182.843 37.106C181.979 35.714 181.547 33.89 181.547 31.634C181.547 29.354 181.979 27.518 182.843 26.126C183.731 24.71 185.183 24.002 187.199 24.002C188.351 24.002 189.263 24.206 189.935 24.614C190.607 24.998 191.111 25.43 191.447 25.91C191.783 26.39 191.987 26.75 192.059 26.99H192.131V24.038H195.911V38.834H192.743L192.131 36.422H192.059C191.987 36.638 191.771 36.974 191.411 37.43C191.075 37.862 190.559 38.27 189.863 38.654C189.191 39.014 188.303 39.194 187.199 39.194ZM188.711 36.098C190.055 36.098 190.955 35.678 191.411 34.838C191.891 33.974 192.131 32.918 192.131 31.67C192.131 30.35 191.891 29.282 191.411 28.466C190.931 27.65 190.031 27.242 188.711 27.242C187.775 27.242 187.043 27.446 186.515 27.854C186.011 28.262 185.651 28.802 185.435 29.474C185.243 30.122 185.147 30.854 185.147 31.67C185.147 32.486 185.243 33.23 185.435 33.902C185.651 34.574 186.011 35.114 186.515 35.522C187.043 35.906 187.775 36.098 188.711 36.098ZM198.832 38.834V18.566H202.432V38.834H198.832ZM222.846 39.194C220.95 39.194 219.234 38.81 217.698 38.042C216.162 37.25 214.938 36.086 214.026 34.55C213.138 33.014 212.694 31.094 212.694 28.79C212.718 26.534 213.174 24.614 214.062 23.03C214.95 21.446 216.162 20.246 217.698 19.43C219.234 18.614 220.986 18.206 222.954 18.206C224.826 18.206 226.422 18.542 227.742 19.214C229.062 19.886 230.118 20.798 230.91 21.95C231.726 23.102 232.254 24.398 232.494 25.838H228.714C228.546 24.782 228.15 23.954 227.526 23.354C226.926 22.73 226.218 22.298 225.402 22.058C224.586 21.794 223.77 21.662 222.954 21.662C220.818 21.662 219.174 22.262 218.022 23.462C216.894 24.662 216.33 26.354 216.33 28.538C216.33 30.866 216.882 32.654 217.986 33.902C219.114 35.15 220.746 35.774 222.882 35.774C223.77 35.774 224.634 35.642 225.474 35.378C226.314 35.09 227.034 34.634 227.634 34.01C228.234 33.362 228.618 32.498 228.786 31.418H232.602C232.338 32.906 231.798 34.238 230.982 35.414C230.19 36.566 229.11 37.49 227.742 38.186C226.398 38.858 224.766 39.194 222.846 39.194ZM235.394 38.834V18.566H238.994V38.834H235.394ZM248.977 39.194C247.273 39.194 245.881 38.834 244.801 38.114C243.745 37.37 242.953 36.434 242.425 35.306C241.921 34.154 241.657 32.942 241.633 31.67C241.609 30.182 241.885 28.862 242.461 27.71C243.061 26.534 243.901 25.622 244.981 24.974C246.085 24.302 247.381 23.966 248.869 23.966C250.189 23.966 251.365 24.254 252.397 24.83C253.453 25.406 254.293 26.222 254.917 27.278C255.541 28.31 255.865 29.534 255.889 30.95C255.889 30.998 255.889 31.13 255.889 31.346C255.889 31.562 255.889 31.742 255.889 31.886H245.125C245.125 33.254 245.461 34.31 246.133 35.054C246.805 35.774 247.729 36.134 248.905 36.134C249.817 36.134 250.573 35.906 251.173 35.45C251.797 34.994 252.169 34.394 252.289 33.65H255.853C255.685 35.21 255.013 36.53 253.837 37.61C252.661 38.666 251.041 39.194 248.977 39.194ZM245.233 30.23H252.217C252.193 30.062 252.133 29.798 252.037 29.438C251.965 29.078 251.809 28.706 251.569 28.322C251.353 27.938 251.017 27.614 250.561 27.35C250.105 27.086 249.517 26.954 248.797 26.954C247.837 26.954 247.105 27.158 246.601 27.566C246.121 27.95 245.773 28.406 245.557 28.934C245.365 29.438 245.257 29.87 245.233 30.23ZM263.77 39.194C261.73 39.194 260.278 38.498 259.414 37.106C258.55 35.714 258.118 33.89 258.118 31.634C258.118 29.354 258.55 27.518 259.414 26.126C260.302 24.71 261.754 24.002 263.77 24.002C264.922 24.002 265.834 24.206 266.506 24.614C267.178 24.998 267.682 25.43 268.018 25.91C268.354 26.39 268.558 26.75 268.63 26.99H268.702V24.038H272.482V38.834H269.314L268.702 36.422H268.63C268.558 36.638 268.342 36.974 267.982 37.43C267.646 37.862 267.13 38.27 266.434 38.654C265.762 39.014 264.874 39.194 263.77 39.194ZM265.282 36.098C266.626 36.098 267.526 35.678 267.982 34.838C268.462 33.974 268.702 32.918 268.702 31.67C268.702 30.35 268.462 29.282 267.982 28.466C267.502 27.65 266.602 27.242 265.282 27.242C264.346 27.242 263.614 27.446 263.086 27.854C262.582 28.262 262.222 28.802 262.006 29.474C261.814 30.122 261.718 30.854 261.718 31.67C261.718 32.486 261.814 33.23 262.006 33.902C262.222 34.574 262.582 35.114 263.086 35.522C263.614 35.906 264.346 36.098 265.282 36.098ZM275.006 38.834V24.11H278.138L278.75 27.242H278.822C278.846 27.17 278.93 26.978 279.074 26.666C279.242 26.33 279.506 25.958 279.866 25.55C280.25 25.142 280.754 24.794 281.378 24.506C282.026 24.194 282.83 24.038 283.79 24.038C285.11 24.038 286.13 24.302 286.85 24.83C287.57 25.358 288.086 26.03 288.398 26.846C288.71 27.638 288.902 28.466 288.974 29.33C289.046 30.194 289.082 30.974 289.082 31.67V38.834H285.482V31.634C285.482 30.842 285.41 30.122 285.266 29.474C285.122 28.802 284.81 28.274 284.33 27.89C283.874 27.482 283.19 27.278 282.278 27.278C281.318 27.278 280.586 27.494 280.082 27.926C279.578 28.358 279.23 28.922 279.038 29.618C278.846 30.29 278.75 31.01 278.75 31.778V38.834H275.006ZM294.224 22.418C293.432 22.442 292.904 22.262 292.64 21.878C292.4 21.47 292.28 20.99 292.28 20.438C292.28 19.91 292.412 19.454 292.676 19.07C292.94 18.686 293.456 18.494 294.224 18.494C294.968 18.494 295.46 18.686 295.7 19.07C295.964 19.454 296.096 19.91 296.096 20.438C296.096 20.99 295.964 21.458 295.7 21.842C295.46 22.202 294.968 22.394 294.224 22.418ZM292.352 38.834V24.038H296.024V38.834H292.352ZM299.229 38.834V24.11H302.361L302.973 27.242H303.045C303.069 27.17 303.153 26.978 303.297 26.666C303.465 26.33 303.729 25.958 304.089 25.55C304.473 25.142 304.977 24.794 305.601 24.506C306.249 24.194 307.053 24.038 308.013 24.038C309.333 24.038 310.353 24.302 311.073 24.83C311.793 25.358 312.309 26.03 312.621 26.846C312.933 27.638 313.125 28.466 313.197 29.33C313.269 30.194 313.305 30.974 313.305 31.67V38.834H309.705V31.634C309.705 30.842 309.633 30.122 309.489 29.474C309.345 28.802 309.033 28.274 308.553 27.89C308.097 27.482 307.413 27.278 306.501 27.278C305.541 27.278 304.809 27.494 304.305 27.926C303.801 28.358 303.453 28.922 303.261 29.618C303.069 30.29 302.973 31.01 302.973 31.778V38.834H299.229ZM320.138 45.422V41.966H326.618V36.206H326.546C326.522 36.254 326.414 36.434 326.222 36.746C326.054 37.058 325.778 37.406 325.394 37.79C325.01 38.174 324.506 38.51 323.882 38.798C323.282 39.062 322.526 39.194 321.614 39.194C319.43 39.194 317.858 38.498 316.898 37.106C315.938 35.714 315.458 33.902 315.458 31.67C315.458 29.342 315.938 27.494 316.898 26.126C317.882 24.734 319.454 24.038 321.614 24.038C322.574 24.038 323.366 24.194 323.99 24.506C324.614 24.794 325.106 25.142 325.466 25.55C325.826 25.958 326.078 26.33 326.222 26.666C326.39 27.002 326.486 27.206 326.51 27.278H326.582L326.618 24.038H330.398V40.094C330.398 42.062 330.002 43.442 329.21 44.234C328.442 45.026 327.242 45.422 325.61 45.422H320.138ZM322.766 36.098C324.11 36.098 325.082 35.69 325.682 34.874C326.282 34.034 326.582 32.966 326.582 31.67C326.582 30.422 326.294 29.39 325.718 28.574C325.142 27.734 324.182 27.314 322.838 27.314C321.854 27.314 321.086 27.53 320.534 27.962C319.982 28.37 319.586 28.91 319.346 29.582C319.13 30.23 319.022 30.926 319.022 31.67C319.022 32.414 319.118 33.134 319.31 33.83C319.526 34.502 319.898 35.054 320.426 35.486C320.978 35.894 321.758 36.098 322.766 36.098Z" fill="#133063"/>
<path d="M21.9021 83.322H23.5821L19.5981 96.834H17.0781L13.8141 85.362L10.4541 96.834H7.93413L4.09413 83.322H5.72613L9.20613 96.114L12.9981 83.322H14.6541L18.3261 96.114L21.9021 83.322ZM28.9422 97.074C27.8702 97.074 26.9822 96.834 26.2782 96.354C25.5902 95.858 25.0782 95.226 24.7422 94.458C24.4222 93.674 24.2622 92.866 24.2622 92.034C24.2622 91.122 24.4382 90.29 24.7902 89.538C25.1582 88.77 25.6862 88.162 26.3742 87.714C27.0782 87.266 27.9182 87.042 28.8942 87.042C30.1422 87.042 31.1822 87.45 32.0142 88.266C32.8462 89.066 33.2942 90.146 33.3582 91.506C33.3742 91.57 33.3822 91.666 33.3822 91.794C33.3822 91.906 33.3822 92.01 33.3822 92.106H25.7502C25.7502 93.242 26.0222 94.138 26.5662 94.794C27.1262 95.434 27.9102 95.754 28.9182 95.754C29.6702 95.754 30.3102 95.562 30.8382 95.178C31.3822 94.794 31.7182 94.274 31.8462 93.618H33.3582C33.1982 94.61 32.7262 95.434 31.9422 96.09C31.1582 96.746 30.1582 97.074 28.9422 97.074ZM25.7982 91.266H31.7982C31.7982 90.93 31.7022 90.53 31.5102 90.066C31.3342 89.602 31.0302 89.202 30.5982 88.866C30.1822 88.514 29.6062 88.338 28.8702 88.338C28.1982 88.338 27.6462 88.482 27.2142 88.77C26.7822 89.058 26.4542 89.426 26.2302 89.874C26.0062 90.322 25.8622 90.786 25.7982 91.266ZM41.1216 96.834V83.322H42.6816V89.49H42.7296C42.7616 89.41 42.8336 89.242 42.9456 88.986C43.0736 88.73 43.2656 88.458 43.5216 88.17C43.7776 87.866 44.1216 87.61 44.5536 87.402C44.9856 87.178 45.5296 87.066 46.1856 87.066C47.0176 87.066 47.6816 87.226 48.1776 87.546C48.6736 87.85 49.0416 88.258 49.2816 88.77C49.5376 89.266 49.7056 89.802 49.7856 90.378C49.8656 90.954 49.9056 91.498 49.9056 92.01V96.834H48.3936V92.01C48.3936 90.954 48.2096 90.098 47.8416 89.442C47.4896 88.786 46.7936 88.458 45.7536 88.458C45.0176 88.458 44.4256 88.634 43.9776 88.986C43.5296 89.322 43.2016 89.778 42.9936 90.354C42.7856 90.914 42.6816 91.53 42.6816 92.202V96.834H41.1216ZM55.3326 97.05C54.4366 97.05 53.7006 96.834 53.1246 96.402C52.5486 95.954 52.1166 95.354 51.8286 94.602C51.5566 93.85 51.4206 92.994 51.4206 92.034C51.4206 90.562 51.7406 89.354 52.3806 88.41C53.0366 87.45 54.0206 86.97 55.3326 86.97C56.0046 86.97 56.5646 87.09 57.0126 87.33C57.4766 87.554 57.8446 87.834 58.1166 88.17C58.4046 88.506 58.6126 88.826 58.7406 89.13H58.7646V87.066H60.3486V96.834H59.0286L58.7886 94.938H58.7406C58.5966 95.258 58.3886 95.586 58.1166 95.922C57.8446 96.242 57.4766 96.514 57.0126 96.738C56.5646 96.946 56.0046 97.05 55.3326 97.05ZM55.9326 95.682C56.9246 95.682 57.6366 95.354 58.0686 94.698C58.5166 94.042 58.7406 93.162 58.7406 92.058C58.7406 90.874 58.5086 89.97 58.0446 89.346C57.5966 88.722 56.8926 88.41 55.9326 88.41C54.8766 88.41 54.1166 88.762 53.6526 89.466C53.2046 90.154 52.9806 91.01 52.9806 92.034C52.9806 93.106 53.2126 93.986 53.6766 94.674C54.1406 95.346 54.8926 95.682 55.9326 95.682ZM69.1268 87.066H70.6628V87.402L66.9668 96.834H64.7828L61.0628 87.402V87.066H62.5988L65.8628 95.562H65.9108L69.1268 87.066ZM76.3094 97.074C75.2374 97.074 74.3494 96.834 73.6454 96.354C72.9574 95.858 72.4454 95.226 72.1094 94.458C71.7894 93.674 71.6294 92.866 71.6294 92.034C71.6294 91.122 71.8054 90.29 72.1574 89.538C72.5254 88.77 73.0534 88.162 73.7414 87.714C74.4454 87.266 75.2854 87.042 76.2614 87.042C77.5094 87.042 78.5494 87.45 79.3814 88.266C80.2134 89.066 80.6614 90.146 80.7254 91.506C80.7414 91.57 80.7494 91.666 80.7494 91.794C80.7494 91.906 80.7494 92.01 80.7494 92.106H73.1174C73.1174 93.242 73.3894 94.138 73.9334 94.794C74.4934 95.434 75.2774 95.754 76.2854 95.754C77.0374 95.754 77.6774 95.562 78.2054 95.178C78.7494 94.794 79.0854 94.274 79.2134 93.618H80.7254C80.5654 94.61 80.0934 95.434 79.3094 96.09C78.5254 96.746 77.5254 97.074 76.3094 97.074ZM73.1654 91.266H79.1654C79.1654 90.93 79.0694 90.53 78.8774 90.066C78.7014 89.602 78.3974 89.202 77.9654 88.866C77.5494 88.514 76.9734 88.338 76.2374 88.338C75.5654 88.338 75.0134 88.482 74.5814 88.77C74.1494 89.058 73.8214 89.426 73.5974 89.874C73.3734 90.322 73.2294 90.786 73.1654 91.266ZM92.8808 97.074C91.9688 97.074 91.1528 96.882 90.4328 96.498C89.7128 96.114 89.1448 95.554 88.7288 94.818C88.3128 94.082 88.1048 93.194 88.1048 92.154C88.1368 91.13 88.3528 90.234 88.7528 89.466C89.1688 88.698 89.7368 88.106 90.4568 87.69C91.1768 87.258 92.0008 87.042 92.9288 87.042C93.7928 87.042 94.5448 87.202 95.1848 87.522C95.8248 87.842 96.3368 88.274 96.7208 88.818C97.1048 89.362 97.3448 89.962 97.4408 90.618H96.0248C95.8648 89.914 95.5128 89.37 94.9688 88.986C94.4408 88.602 93.7768 88.41 92.9768 88.41C91.9528 88.41 91.1368 88.754 90.5288 89.442C89.9368 90.114 89.6328 90.994 89.6168 92.082C89.6168 93.186 89.9048 94.066 90.4808 94.722C91.0728 95.362 91.8968 95.682 92.9528 95.682C93.7208 95.682 94.3848 95.49 94.9448 95.106C95.5048 94.722 95.8648 94.17 96.0248 93.45H97.4408C97.3448 94.122 97.0968 94.73 96.6968 95.274C96.3128 95.818 95.7928 96.258 95.1368 96.594C94.4968 96.914 93.7448 97.074 92.8808 97.074ZM102.868 97.074C102.068 97.074 101.42 96.93 100.924 96.642C100.444 96.354 100.076 95.97 99.8204 95.49C99.5644 94.994 99.3884 94.458 99.2924 93.882C99.2124 93.29 99.1724 92.698 99.1724 92.106V87.066H100.708V92.13C100.708 92.77 100.772 93.362 100.9 93.906C101.028 94.45 101.284 94.882 101.668 95.202C102.068 95.522 102.644 95.682 103.396 95.682C104.116 95.682 104.676 95.522 105.076 95.202C105.492 94.866 105.796 94.434 105.988 93.906C106.18 93.378 106.292 92.826 106.324 92.25V87.066H107.908V96.834H106.588L106.324 94.65H106.276C106.196 94.922 106.028 95.25 105.772 95.634C105.516 96.018 105.148 96.354 104.668 96.642C104.204 96.93 103.604 97.074 102.868 97.074ZM113.82 97.074C112.892 97.074 112.124 96.882 111.516 96.498C110.924 96.098 110.476 95.634 110.172 95.106C109.884 94.578 109.74 94.106 109.74 93.69H111.228C111.228 93.706 111.236 93.826 111.252 94.05C111.284 94.274 111.372 94.53 111.516 94.818C111.66 95.106 111.908 95.362 112.26 95.586C112.612 95.794 113.124 95.898 113.796 95.898C114.516 95.898 115.132 95.77 115.644 95.514C116.172 95.258 116.428 94.858 116.412 94.314C116.412 93.85 116.252 93.498 115.932 93.258C115.628 93.002 115.228 92.81 114.732 92.682C114.236 92.538 113.716 92.402 113.172 92.274C112.628 92.146 112.108 91.986 111.612 91.794C111.132 91.586 110.74 91.298 110.436 90.93C110.132 90.562 109.98 90.05 109.98 89.394C109.98 88.594 110.34 87.962 111.06 87.498C111.78 87.018 112.7 86.778 113.82 86.778C114.444 86.778 115.076 86.882 115.716 87.09C116.356 87.282 116.884 87.626 117.3 88.122C117.716 88.602 117.908 89.282 117.876 90.162H116.436C116.468 89.554 116.332 89.098 116.028 88.794C115.724 88.49 115.356 88.29 114.924 88.194C114.508 88.082 114.124 88.026 113.772 88.026C113.084 88.026 112.516 88.154 112.068 88.41C111.636 88.666 111.42 89.026 111.42 89.49C111.42 89.938 111.572 90.282 111.876 90.522C112.196 90.746 112.596 90.93 113.076 91.074C113.572 91.202 114.092 91.33 114.636 91.458C115.196 91.57 115.724 91.73 116.22 91.938C116.716 92.146 117.116 92.442 117.42 92.826C117.74 93.21 117.9 93.738 117.9 94.41C117.9 95.338 117.508 96.018 116.724 96.45C115.94 96.866 114.972 97.074 113.82 97.074ZM122.036 96.834C121.444 96.834 121.028 96.674 120.788 96.354C120.564 96.034 120.452 95.594 120.452 95.034V88.218H118.916V87.066C119.428 87.066 119.804 87.026 120.044 86.946C120.3 86.85 120.46 86.626 120.524 86.274C120.588 85.922 120.62 85.346 120.62 84.546H121.94V87.066H124.196V88.218H121.94V95.586H124.22V96.834H122.036ZM130.332 97.074C128.764 97.074 127.588 96.61 126.804 95.682C126.036 94.738 125.652 93.538 125.652 92.082C125.636 90.61 126.02 89.41 126.804 88.482C127.604 87.538 128.78 87.058 130.332 87.042C131.868 87.042 133.028 87.506 133.812 88.434C134.612 89.346 135.012 90.562 135.012 92.082C135.012 93.026 134.844 93.874 134.508 94.626C134.172 95.378 133.66 95.978 132.972 96.426C132.284 96.858 131.404 97.074 130.332 97.074ZM130.332 95.73C131.164 95.73 131.804 95.546 132.252 95.178C132.716 94.81 133.036 94.346 133.212 93.786C133.404 93.21 133.5 92.626 133.5 92.034C133.5 91.442 133.404 90.858 133.212 90.282C133.036 89.706 132.716 89.234 132.252 88.866C131.804 88.498 131.164 88.314 130.332 88.314C129.5 88.314 128.852 88.498 128.388 88.866C127.94 89.234 127.62 89.706 127.428 90.282C127.252 90.858 127.164 91.442 127.164 92.034C127.164 92.626 127.252 93.21 127.428 93.786C127.62 94.346 127.94 94.81 128.388 95.178C128.852 95.546 129.5 95.73 130.332 95.73ZM136.885 96.834V87.066H138.205L138.301 89.49H138.349C138.381 89.378 138.453 89.194 138.565 88.938C138.677 88.666 138.853 88.386 139.093 88.098C139.333 87.81 139.645 87.57 140.029 87.378C140.413 87.17 140.901 87.066 141.493 87.066C142.389 87.066 143.045 87.314 143.461 87.81C143.893 88.306 144.181 88.866 144.325 89.49H144.373C144.421 89.378 144.509 89.194 144.637 88.938C144.765 88.666 144.957 88.386 145.213 88.098C145.469 87.81 145.797 87.57 146.197 87.378C146.613 87.17 147.117 87.066 147.709 87.066C148.333 87.066 148.845 87.194 149.245 87.45C149.645 87.69 149.949 88.018 150.157 88.434C150.381 88.834 150.541 89.258 150.637 89.706C150.733 90.154 150.789 90.586 150.805 91.002C150.821 91.418 150.829 91.754 150.829 92.01V96.834H149.485V92.01C149.485 91.754 149.469 91.426 149.437 91.026C149.405 90.626 149.325 90.234 149.197 89.85C149.069 89.45 148.845 89.122 148.525 88.866C148.221 88.594 147.781 88.458 147.205 88.458C146.565 88.458 146.053 88.634 145.669 88.986C145.285 89.338 145.005 89.802 144.829 90.378C144.653 90.938 144.565 91.546 144.565 92.202V96.834H143.221V92.01C143.221 91.754 143.205 91.426 143.173 91.026C143.141 90.626 143.061 90.234 142.933 89.85C142.805 89.45 142.581 89.122 142.261 88.866C141.957 88.594 141.517 88.458 140.941 88.458C140.301 88.458 139.789 88.634 139.405 88.986C139.021 89.338 138.741 89.802 138.565 90.378C138.389 90.938 138.301 91.546 138.301 92.202V96.834H136.885ZM153.953 86.01C153.601 86.01 153.361 85.922 153.233 85.746C153.121 85.554 153.065 85.314 153.065 85.026C153.065 84.786 153.121 84.578 153.233 84.402C153.361 84.21 153.601 84.114 153.953 84.114C154.305 84.114 154.537 84.21 154.649 84.402C154.777 84.578 154.841 84.786 154.841 85.026C154.841 85.314 154.777 85.554 154.649 85.746C154.537 85.922 154.305 86.01 153.953 86.01ZM153.185 96.834V87.066H154.721V96.834H153.185ZM156.899 96.834V95.706L163.547 88.266H157.211V87.042H165.467V88.194L158.843 95.586H165.467V96.834H156.899ZM171.723 97.074C170.651 97.074 169.763 96.834 169.059 96.354C168.371 95.858 167.859 95.226 167.523 94.458C167.203 93.674 167.043 92.866 167.043 92.034C167.043 91.122 167.219 90.29 167.571 89.538C167.939 88.77 168.467 88.162 169.155 87.714C169.859 87.266 170.699 87.042 171.675 87.042C172.923 87.042 173.963 87.45 174.795 88.266C175.627 89.066 176.075 90.146 176.139 91.506C176.155 91.57 176.163 91.666 176.163 91.794C176.163 91.906 176.163 92.01 176.163 92.106H168.531C168.531 93.242 168.803 94.138 169.347 94.794C169.907 95.434 170.691 95.754 171.699 95.754C172.451 95.754 173.091 95.562 173.619 95.178C174.163 94.794 174.499 94.274 174.627 93.618H176.139C175.979 94.61 175.507 95.434 174.723 96.09C173.939 96.746 172.939 97.074 171.723 97.074ZM168.579 91.266H174.579C174.579 90.93 174.483 90.53 174.291 90.066C174.115 89.602 173.811 89.202 173.379 88.866C172.963 88.514 172.387 88.338 171.651 88.338C170.979 88.338 170.427 88.482 169.995 88.77C169.563 89.058 169.235 89.426 169.011 89.874C168.787 90.322 168.643 90.786 168.579 91.266ZM182.552 97.074C181.608 97.074 180.816 96.858 180.176 96.426C179.552 95.994 179.08 95.402 178.76 94.65C178.456 93.882 178.304 93.026 178.304 92.082C178.304 90.626 178.664 89.426 179.384 88.482C180.104 87.538 181.168 87.066 182.576 87.066C183.232 87.066 183.776 87.178 184.208 87.402C184.656 87.61 185.016 87.866 185.288 88.17C185.56 88.474 185.76 88.754 185.888 89.01C186.016 89.266 186.096 89.434 186.128 89.514H186.176L186.2 83.322H187.784V96.834H186.44L186.2 94.674H186.152C186.12 94.754 186.032 94.922 185.888 95.178C185.744 95.434 185.528 95.706 185.24 95.994C184.968 96.282 184.608 96.538 184.16 96.762C183.728 96.97 183.192 97.074 182.552 97.074ZM182.936 95.706C183.88 95.706 184.648 95.386 185.24 94.746C185.848 94.09 186.152 93.202 186.152 92.082C186.152 90.978 185.872 90.106 185.312 89.466C184.752 88.81 184 88.482 183.056 88.482C182.304 88.482 181.688 88.658 181.208 89.01C180.728 89.346 180.376 89.786 180.152 90.33C179.928 90.874 179.816 91.458 179.816 92.082C179.816 92.69 179.92 93.274 180.128 93.834C180.336 94.378 180.664 94.826 181.112 95.178C181.56 95.53 182.168 95.706 182.936 95.706ZM199.99 97.074C199.078 97.074 198.262 96.882 197.542 96.498C196.822 96.114 196.254 95.554 195.838 94.818C195.422 94.082 195.214 93.194 195.214 92.154C195.246 91.13 195.462 90.234 195.862 89.466C196.278 88.698 196.846 88.106 197.566 87.69C198.286 87.258 199.11 87.042 200.038 87.042C200.902 87.042 201.654 87.202 202.294 87.522C202.934 87.842 203.446 88.274 203.83 88.818C204.214 89.362 204.454 89.962 204.55 90.618H203.134C202.974 89.914 202.622 89.37 202.078 88.986C201.55 88.602 200.886 88.41 200.086 88.41C199.062 88.41 198.246 88.754 197.638 89.442C197.046 90.114 196.742 90.994 196.726 92.082C196.726 93.186 197.014 94.066 197.59 94.722C198.182 95.362 199.006 95.682 200.062 95.682C200.83 95.682 201.494 95.49 202.054 95.106C202.614 94.722 202.974 94.17 203.134 93.45H204.55C204.454 94.122 204.206 94.73 203.806 95.274C203.422 95.818 202.902 96.258 202.246 96.594C201.606 96.914 200.854 97.074 199.99 97.074ZM206.69 96.834V83.322H208.202V96.834H206.69ZM214.802 97.074C213.73 97.074 212.842 96.834 212.138 96.354C211.45 95.858 210.938 95.226 210.602 94.458C210.282 93.674 210.122 92.866 210.122 92.034C210.122 91.122 210.298 90.29 210.65 89.538C211.018 88.77 211.546 88.162 212.234 87.714C212.938 87.266 213.778 87.042 214.754 87.042C216.002 87.042 217.042 87.45 217.874 88.266C218.706 89.066 219.154 90.146 219.218 91.506C219.234 91.57 219.242 91.666 219.242 91.794C219.242 91.906 219.242 92.01 219.242 92.106H211.61C211.61 93.242 211.882 94.138 212.426 94.794C212.986 95.434 213.77 95.754 214.778 95.754C215.53 95.754 216.17 95.562 216.698 95.178C217.242 94.794 217.578 94.274 217.706 93.618H219.218C219.058 94.61 218.586 95.434 217.802 96.09C217.018 96.746 216.018 97.074 214.802 97.074ZM211.658 91.266H217.658C217.658 90.93 217.562 90.53 217.37 90.066C217.194 89.602 216.89 89.202 216.458 88.866C216.042 88.514 215.466 88.338 214.73 88.338C214.058 88.338 213.506 88.482 213.074 88.77C212.642 89.058 212.314 89.426 212.09 89.874C211.866 90.322 211.722 90.786 211.658 91.266ZM224.622 97.05C223.726 97.05 222.99 96.834 222.414 96.402C221.838 95.954 221.406 95.354 221.118 94.602C220.846 93.85 220.71 92.994 220.71 92.034C220.71 90.562 221.03 89.354 221.67 88.41C222.326 87.45 223.31 86.97 224.622 86.97C225.294 86.97 225.854 87.09 226.302 87.33C226.766 87.554 227.134 87.834 227.406 88.17C227.694 88.506 227.902 88.826 228.03 89.13H228.054V87.066H229.638V96.834H228.318L228.078 94.938H228.03C227.886 95.258 227.678 95.586 227.406 95.922C227.134 96.242 226.766 96.514 226.302 96.738C225.854 96.946 225.294 97.05 224.622 97.05ZM225.222 95.682C226.214 95.682 226.926 95.354 227.358 94.698C227.806 94.042 228.03 93.162 228.03 92.058C228.03 90.874 227.798 89.97 227.334 89.346C226.886 88.722 226.182 88.41 225.222 88.41C224.166 88.41 223.406 88.762 222.942 89.466C222.494 90.154 222.27 91.01 222.27 92.034C222.27 93.106 222.502 93.986 222.966 94.674C223.43 95.346 224.182 95.682 225.222 95.682ZM231.432 96.834V87.066H232.752L233.016 89.49H233.064C233.08 89.41 233.152 89.242 233.28 88.986C233.408 88.73 233.6 88.458 233.856 88.17C234.128 87.866 234.48 87.61 234.912 87.402C235.344 87.178 235.896 87.066 236.568 87.066C237.416 87.066 238.08 87.218 238.56 87.522C239.056 87.826 239.424 88.234 239.664 88.746C239.904 89.242 240.056 89.778 240.12 90.354C240.184 90.93 240.216 91.482 240.216 92.01V96.834H238.728V92.01C238.728 90.954 238.544 90.098 238.176 89.442C237.824 88.786 237.12 88.458 236.064 88.458C235.344 88.458 234.752 88.634 234.288 88.986C233.84 89.322 233.512 89.778 233.304 90.354C233.112 90.914 233.016 91.53 233.016 92.202V96.834H231.432ZM243.367 86.01C243.015 86.01 242.775 85.922 242.647 85.746C242.535 85.554 242.479 85.314 242.479 85.026C242.479 84.786 242.535 84.578 242.647 84.402C242.775 84.21 243.015 84.114 243.367 84.114C243.719 84.114 243.951 84.21 244.063 84.402C244.191 84.578 244.255 84.786 244.255 85.026C244.255 85.314 244.191 85.554 244.063 85.746C243.951 85.922 243.719 86.01 243.367 86.01ZM242.599 96.834V87.066H244.135V96.834H242.599ZM246.385 96.834V87.066H247.705L247.969 89.49H248.017C248.033 89.41 248.105 89.242 248.233 88.986C248.361 88.73 248.553 88.458 248.809 88.17C249.081 87.866 249.433 87.61 249.865 87.402C250.297 87.178 250.849 87.066 251.521 87.066C252.369 87.066 253.033 87.218 253.513 87.522C254.009 87.826 254.377 88.234 254.617 88.746C254.857 89.242 255.009 89.778 255.073 90.354C255.137 90.93 255.169 91.482 255.169 92.01V96.834H253.681V92.01C253.681 90.954 253.497 90.098 253.129 89.442C252.777 88.786 252.073 88.458 251.017 88.458C250.297 88.458 249.705 88.634 249.241 88.986C248.793 89.322 248.465 89.778 248.257 90.354C248.065 90.914 247.969 91.53 247.969 92.202V96.834H246.385ZM259.496 100.866V99.402H264.368V94.674H264.32C264.288 94.754 264.2 94.922 264.056 95.178C263.928 95.434 263.72 95.706 263.432 95.994C263.16 96.282 262.8 96.538 262.352 96.762C261.92 96.97 261.392 97.074 260.768 97.074C259.824 97.074 259.032 96.858 258.392 96.426C257.768 95.978 257.296 95.378 256.976 94.626C256.656 93.874 256.496 93.026 256.496 92.082C256.496 90.61 256.856 89.41 257.576 88.482C258.312 87.538 259.384 87.066 260.792 87.066C261.448 87.066 261.992 87.178 262.424 87.402C262.872 87.61 263.224 87.866 263.48 88.17C263.752 88.474 263.952 88.754 264.08 89.01C264.208 89.266 264.288 89.434 264.32 89.514H264.368V87.066H265.952V98.514C265.952 99.282 265.808 99.866 265.52 100.266C265.232 100.666 264.712 100.866 263.96 100.866H259.496ZM261.104 95.706C262.064 95.706 262.84 95.386 263.432 94.746C264.024 94.09 264.32 93.202 264.32 92.082C264.32 90.978 264.04 90.106 263.48 89.466C262.92 88.81 262.176 88.482 261.248 88.482C260.48 88.482 259.856 88.658 259.376 89.01C258.912 89.346 258.568 89.786 258.344 90.33C258.12 90.874 258.008 91.458 258.008 92.082C258.008 92.69 258.104 93.274 258.296 93.834C258.504 94.378 258.832 94.826 259.28 95.178C259.744 95.53 260.352 95.706 261.104 95.706ZM279.138 97.074C278.514 97.074 277.978 96.97 277.53 96.762C277.098 96.538 276.746 96.282 276.474 95.994C276.202 95.706 275.994 95.434 275.85 95.178C275.722 94.922 275.642 94.754 275.61 94.674H275.562V100.866H273.978V87.066H275.298L275.562 89.514H275.61C275.642 89.434 275.722 89.266 275.85 89.01C275.978 88.754 276.17 88.474 276.426 88.17C276.698 87.866 277.05 87.61 277.482 87.402C277.93 87.178 278.482 87.066 279.138 87.066C280.082 87.066 280.866 87.282 281.49 87.714C282.13 88.146 282.61 88.746 282.93 89.514C283.266 90.266 283.434 91.13 283.434 92.106C283.434 93.562 283.066 94.754 282.33 95.682C281.594 96.61 280.53 97.074 279.138 97.074ZM278.826 95.706C279.578 95.706 280.178 95.53 280.626 95.178C281.09 94.826 281.418 94.378 281.61 93.834C281.818 93.274 281.922 92.69 281.922 92.082C281.922 91.458 281.81 90.874 281.586 90.33C281.362 89.786 281.01 89.346 280.53 89.01C280.066 88.658 279.45 88.482 278.682 88.482C277.754 88.482 277.01 88.81 276.45 89.466C275.89 90.106 275.61 90.978 275.61 92.082C275.61 93.202 275.906 94.09 276.498 94.746C277.09 95.386 277.866 95.706 278.826 95.706ZM285.32 96.834V87.066H286.712L286.88 89.634C286.976 89.202 287.168 88.786 287.456 88.386C287.744 87.986 288.136 87.666 288.632 87.426C289.144 87.17 289.776 87.05 290.528 87.066H290.984V88.77H290.504C289.48 88.77 288.704 88.922 288.176 89.226C287.664 89.514 287.312 89.922 287.12 90.45C286.944 90.978 286.856 91.586 286.856 92.274V96.834H285.32ZM296.574 97.074C295.006 97.074 293.83 96.61 293.046 95.682C292.278 94.738 291.894 93.538 291.894 92.082C291.878 90.61 292.262 89.41 293.046 88.482C293.846 87.538 295.022 87.058 296.574 87.042C298.11 87.042 299.27 87.506 300.054 88.434C300.854 89.346 301.254 90.562 301.254 92.082C301.254 93.026 301.086 93.874 300.75 94.626C300.414 95.378 299.902 95.978 299.214 96.426C298.526 96.858 297.646 97.074 296.574 97.074ZM296.574 95.73C297.406 95.73 298.046 95.546 298.494 95.178C298.958 94.81 299.278 94.346 299.454 93.786C299.646 93.21 299.742 92.626 299.742 92.034C299.742 91.442 299.646 90.858 299.454 90.282C299.278 89.706 298.958 89.234 298.494 88.866C298.046 88.498 297.406 88.314 296.574 88.314C295.742 88.314 295.094 88.498 294.63 88.866C294.182 89.234 293.862 89.706 293.67 90.282C293.494 90.858 293.406 91.442 293.406 92.034C293.406 92.626 293.494 93.21 293.67 93.786C293.862 94.346 294.182 94.81 294.63 95.178C295.094 95.546 295.742 95.73 296.574 95.73ZM305.527 100.866V99.402H310.399V94.674H310.351C310.319 94.754 310.231 94.922 310.087 95.178C309.959 95.434 309.751 95.706 309.463 95.994C309.191 96.282 308.831 96.538 308.383 96.762C307.951 96.97 307.423 97.074 306.799 97.074C305.855 97.074 305.063 96.858 304.423 96.426C303.799 95.978 303.327 95.378 303.007 94.626C302.687 93.874 302.527 93.026 302.527 92.082C302.527 90.61 302.887 89.41 303.607 88.482C304.343 87.538 305.415 87.066 306.823 87.066C307.479 87.066 308.023 87.178 308.455 87.402C308.903 87.61 309.255 87.866 309.511 88.17C309.783 88.474 309.983 88.754 310.111 89.01C310.239 89.266 310.319 89.434 310.351 89.514H310.399V87.066H311.983V98.514C311.983 99.282 311.839 99.866 311.551 100.266C311.263 100.666 310.743 100.866 309.991 100.866H305.527ZM307.135 95.706C308.095 95.706 308.871 95.386 309.463 94.746C310.055 94.09 310.351 93.202 310.351 92.082C310.351 90.978 310.071 90.106 309.511 89.466C308.951 88.81 308.207 88.482 307.279 88.482C306.511 88.482 305.887 88.658 305.407 89.01C304.943 89.346 304.599 89.786 304.375 90.33C304.151 90.874 304.039 91.458 304.039 92.082C304.039 92.69 304.135 93.274 304.327 93.834C304.535 94.378 304.863 94.826 305.311 95.178C305.775 95.53 306.383 95.706 307.135 95.706ZM314.266 96.834V87.066H315.658L315.826 89.634C315.922 89.202 316.114 88.786 316.402 88.386C316.69 87.986 317.082 87.666 317.578 87.426C318.09 87.17 318.722 87.05 319.474 87.066H319.93V88.77H319.45C318.426 88.77 317.65 88.922 317.122 89.226C316.61 89.514 316.258 89.922 316.066 90.45C315.89 90.978 315.802 91.586 315.802 92.274V96.834H314.266ZM324.7 97.05C323.804 97.05 323.068 96.834 322.492 96.402C321.916 95.954 321.484 95.354 321.196 94.602C320.924 93.85 320.788 92.994 320.788 92.034C320.788 90.562 321.108 89.354 321.748 88.41C322.404 87.45 323.388 86.97 324.7 86.97C325.372 86.97 325.932 87.09 326.38 87.33C326.844 87.554 327.212 87.834 327.484 88.17C327.772 88.506 327.98 88.826 328.108 89.13H328.132V87.066H329.716V96.834H328.396L328.156 94.938H328.108C327.964 95.258 327.756 95.586 327.484 95.922C327.212 96.242 326.844 96.514 326.38 96.738C325.932 96.946 325.372 97.05 324.7 97.05ZM325.3 95.682C326.292 95.682 327.004 95.354 327.436 94.698C327.884 94.042 328.108 93.162 328.108 92.058C328.108 90.874 327.876 89.97 327.412 89.346C326.964 88.722 326.26 88.41 325.3 88.41C324.244 88.41 323.484 88.762 323.02 89.466C322.572 90.154 322.348 91.01 322.348 92.034C322.348 93.106 322.58 93.986 323.044 94.674C323.508 95.346 324.26 95.682 325.3 95.682ZM331.51 96.834V87.066H332.83L332.926 89.49H332.974C333.006 89.378 333.078 89.194 333.19 88.938C333.302 88.666 333.478 88.386 333.718 88.098C333.958 87.81 334.27 87.57 334.654 87.378C335.038 87.17 335.526 87.066 336.118 87.066C337.014 87.066 337.67 87.314 338.086 87.81C338.518 88.306 338.806 88.866 338.95 89.49H338.998C339.046 89.378 339.134 89.194 339.262 88.938C339.39 88.666 339.582 88.386 339.838 88.098C340.094 87.81 340.422 87.57 340.822 87.378C341.238 87.17 341.742 87.066 342.334 87.066C342.958 87.066 343.47 87.194 343.87 87.45C344.27 87.69 344.574 88.018 344.782 88.434C345.006 88.834 345.166 89.258 345.262 89.706C345.358 90.154 345.414 90.586 345.43 91.002C345.446 91.418 345.454 91.754 345.454 92.01V96.834H344.11V92.01C344.11 91.754 344.094 91.426 344.062 91.026C344.03 90.626 343.95 90.234 343.822 89.85C343.694 89.45 343.47 89.122 343.15 88.866C342.846 88.594 342.406 88.458 341.83 88.458C341.19 88.458 340.678 88.634 340.294 88.986C339.91 89.338 339.63 89.802 339.454 90.378C339.278 90.938 339.19 91.546 339.19 92.202V96.834H337.846V92.01C337.846 91.754 337.83 91.426 337.798 91.026C337.766 90.626 337.686 90.234 337.558 89.85C337.43 89.45 337.206 89.122 336.886 88.866C336.582 88.594 336.142 88.458 335.566 88.458C334.926 88.458 334.414 88.634 334.03 88.986C333.646 89.338 333.366 89.802 333.19 90.378C333.014 90.938 332.926 91.546 332.926 92.202V96.834H331.51ZM355.497 96.834C354.905 96.834 354.489 96.674 354.249 96.354C354.025 96.034 353.913 95.594 353.913 95.034V88.218H352.377V87.066C352.889 87.066 353.265 87.026 353.505 86.946C353.761 86.85 353.921 86.626 353.985 86.274C354.049 85.922 354.081 85.346 354.081 84.546H355.401V87.066H357.657V88.218H355.401V95.586H357.681V96.834H355.497ZM363.793 97.074C362.225 97.074 361.049 96.61 360.265 95.682C359.497 94.738 359.113 93.538 359.113 92.082C359.097 90.61 359.481 89.41 360.265 88.482C361.065 87.538 362.241 87.058 363.793 87.042C365.329 87.042 366.489 87.506 367.273 88.434C368.073 89.346 368.473 90.562 368.473 92.082C368.473 93.026 368.305 93.874 367.969 94.626C367.633 95.378 367.121 95.978 366.433 96.426C365.745 96.858 364.865 97.074 363.793 97.074ZM363.793 95.73C364.625 95.73 365.265 95.546 365.713 95.178C366.177 94.81 366.497 94.346 366.673 93.786C366.865 93.21 366.961 92.626 366.961 92.034C366.961 91.442 366.865 90.858 366.673 90.282C366.497 89.706 366.177 89.234 365.713 88.866C365.265 88.498 364.625 88.314 363.793 88.314C362.961 88.314 362.313 88.498 361.849 88.866C361.401 89.234 361.081 89.706 360.889 90.282C360.713 90.858 360.625 91.442 360.625 92.034C360.625 92.626 360.713 93.21 360.889 93.786C361.081 94.346 361.401 94.81 361.849 95.178C362.313 95.546 362.961 95.73 363.793 95.73ZM28.8147 132.834V123.066H30.1347L30.2307 125.49H30.2787C30.3107 125.378 30.3827 125.194 30.4947 124.938C30.6067 124.666 30.7827 124.386 31.0227 124.098C31.2627 123.81 31.5747 123.57 31.9587 123.378C32.3427 123.17 32.8307 123.066 33.4227 123.066C34.3187 123.066 34.9747 123.314 35.3907 123.81C35.8227 124.306 36.1107 124.866 36.2547 125.49H36.3027C36.3507 125.378 36.4387 125.194 36.5667 124.938C36.6947 124.666 36.8867 124.386 37.1427 124.098C37.3987 123.81 37.7267 123.57 38.1267 123.378C38.5427 123.17 39.0467 123.066 39.6387 123.066C40.2627 123.066 40.7747 123.194 41.1747 123.45C41.5747 123.69 41.8787 124.018 42.0867 124.434C42.3107 124.834 42.4707 125.258 42.5667 125.706C42.6627 126.154 42.7187 126.586 42.7347 127.002C42.7507 127.418 42.7587 127.754 42.7587 128.01V132.834H41.4147V128.01C41.4147 127.754 41.3987 127.426 41.3667 127.026C41.3347 126.626 41.2547 126.234 41.1267 125.85C40.9987 125.45 40.7747 125.122 40.4547 124.866C40.1507 124.594 39.7107 124.458 39.1347 124.458C38.4947 124.458 37.9827 124.634 37.5987 124.986C37.2147 125.338 36.9347 125.802 36.7587 126.378C36.5827 126.938 36.4947 127.546 36.4947 128.202V132.834H35.1507V128.01C35.1507 127.754 35.1347 127.426 35.1027 127.026C35.0707 126.626 34.9907 126.234 34.8627 125.85C34.7347 125.45 34.5107 125.122 34.1907 124.866C33.8867 124.594 33.4467 124.458 32.8707 124.458C32.2307 124.458 31.7187 124.634 31.3347 124.986C30.9507 125.338 30.6707 125.802 30.4947 126.378C30.3187 126.938 30.2307 127.546 30.2307 128.202V132.834H28.8147ZM49.0984 133.074C48.0264 133.074 47.1384 132.834 46.4344 132.354C45.7464 131.858 45.2344 131.226 44.8984 130.458C44.5784 129.674 44.4184 128.866 44.4184 128.034C44.4184 127.122 44.5944 126.29 44.9464 125.538C45.3144 124.77 45.8424 124.162 46.5304 123.714C47.2344 123.266 48.0744 123.042 49.0504 123.042C50.2984 123.042 51.3384 123.45 52.1704 124.266C53.0024 125.066 53.4504 126.146 53.5144 127.506C53.5304 127.57 53.5384 127.666 53.5384 127.794C53.5384 127.906 53.5384 128.01 53.5384 128.106H45.9064C45.9064 129.242 46.1784 130.138 46.7224 130.794C47.2824 131.434 48.0664 131.754 49.0744 131.754C49.8264 131.754 50.4664 131.562 50.9944 131.178C51.5384 130.794 51.8744 130.274 52.0024 129.618H53.5144C53.3544 130.61 52.8824 131.434 52.0984 132.09C51.3144 132.746 50.3144 133.074 49.0984 133.074ZM45.9544 127.266H51.9544C51.9544 126.93 51.8584 126.53 51.6664 126.066C51.4904 125.602 51.1864 125.202 50.7544 124.866C50.3384 124.514 49.7624 124.338 49.0264 124.338C48.3544 124.338 47.8024 124.482 47.3704 124.77C46.9384 125.058 46.6104 125.426 46.3864 125.874C46.1624 126.322 46.0184 126.786 45.9544 127.266ZM59.9266 133.074C58.8546 133.074 57.9666 132.834 57.2626 132.354C56.5746 131.858 56.0626 131.226 55.7266 130.458C55.4066 129.674 55.2466 128.866 55.2466 128.034C55.2466 127.122 55.4226 126.29 55.7746 125.538C56.1426 124.77 56.6706 124.162 57.3586 123.714C58.0626 123.266 58.9026 123.042 59.8786 123.042C61.1266 123.042 62.1666 123.45 62.9986 124.266C63.8306 125.066 64.2786 126.146 64.3426 127.506C64.3586 127.57 64.3666 127.666 64.3666 127.794C64.3666 127.906 64.3666 128.01 64.3666 128.106H56.7346C56.7346 129.242 57.0066 130.138 57.5506 130.794C58.1106 131.434 58.8946 131.754 59.9026 131.754C60.6546 131.754 61.2946 131.562 61.8226 131.178C62.3666 130.794 62.7026 130.274 62.8306 129.618H64.3426C64.1826 130.61 63.7106 131.434 62.9266 132.09C62.1426 132.746 61.1426 133.074 59.9266 133.074ZM56.7826 127.266H62.7826C62.7826 126.93 62.6866 126.53 62.4946 126.066C62.3186 125.602 62.0146 125.202 61.5826 124.866C61.1666 124.514 60.5906 124.338 59.8546 124.338C59.1826 124.338 58.6306 124.482 58.1986 124.77C57.7666 125.058 57.4386 125.426 57.2146 125.874C56.9906 126.322 56.8466 126.786 56.7826 127.266ZM68.7627 132.834C68.1707 132.834 67.7547 132.674 67.5147 132.354C67.2907 132.034 67.1787 131.594 67.1787 131.034V124.218H65.6427V123.066C66.1547 123.066 66.5307 123.026 66.7707 122.946C67.0267 122.85 67.1867 122.626 67.2507 122.274C67.3147 121.922 67.3467 121.346 67.3467 120.546H68.6667V123.066H70.9227V124.218H68.6667V131.586H70.9467V132.834H68.7627ZM77.6588 137.202V135.954H79.0028C79.3228 135.954 79.5868 135.866 79.7948 135.69C80.0028 135.53 80.2588 135.13 80.5628 134.49L81.5948 132.258L77.7548 123.066H79.3628L82.3628 130.626L85.5548 123.066H87.1868L81.9548 134.706C81.6348 135.426 81.3468 135.962 81.0908 136.314C80.8508 136.682 80.5788 136.922 80.2748 137.034C79.9708 137.146 79.5868 137.202 79.1228 137.202H77.6588ZM92.4338 133.074C90.8658 133.074 89.6898 132.61 88.9058 131.682C88.1378 130.738 87.7538 129.538 87.7538 128.082C87.7378 126.61 88.1218 125.41 88.9058 124.482C89.7058 123.538 90.8818 123.058 92.4338 123.042C93.9698 123.042 95.1298 123.506 95.9138 124.434C96.7138 125.346 97.1138 126.562 97.1138 128.082C97.1138 129.026 96.9458 129.874 96.6098 130.626C96.2738 131.378 95.7618 131.978 95.0738 132.426C94.3858 132.858 93.5058 133.074 92.4338 133.074ZM92.4338 131.73C93.2658 131.73 93.9058 131.546 94.3538 131.178C94.8178 130.81 95.1378 130.346 95.3138 129.786C95.5058 129.21 95.6018 128.626 95.6018 128.034C95.6018 127.442 95.5058 126.858 95.3138 126.282C95.1378 125.706 94.8178 125.234 94.3538 124.866C93.9058 124.498 93.2658 124.314 92.4338 124.314C91.6018 124.314 90.9538 124.498 90.4898 124.866C90.0418 125.234 89.7218 125.706 89.5298 126.282C89.3538 126.858 89.2658 127.442 89.2658 128.034C89.2658 128.626 89.3538 129.21 89.5298 129.786C89.7218 130.346 90.0418 130.81 90.4898 131.178C90.9538 131.546 91.6018 131.73 92.4338 131.73ZM102.611 133.074C101.811 133.074 101.163 132.93 100.667 132.642C100.187 132.354 99.8186 131.97 99.5626 131.49C99.3066 130.994 99.1306 130.458 99.0346 129.882C98.9546 129.29 98.9146 128.698 98.9146 128.106V123.066H100.451V128.13C100.451 128.77 100.515 129.362 100.643 129.906C100.771 130.45 101.027 130.882 101.411 131.202C101.811 131.522 102.387 131.682 103.139 131.682C103.859 131.682 104.419 131.522 104.819 131.202C105.235 130.866 105.539 130.434 105.731 129.906C105.923 129.378 106.035 128.826 106.067 128.25V123.066H107.651V132.834H106.331L106.067 130.65H106.019C105.939 130.922 105.771 131.25 105.515 131.634C105.259 132.018 104.891 132.354 104.411 132.642C103.947 132.93 103.347 133.074 102.611 133.074ZM109.914 132.834V123.066H111.306L111.474 125.634C111.57 125.202 111.762 124.786 112.05 124.386C112.338 123.986 112.73 123.666 113.226 123.426C113.738 123.17 114.37 123.05 115.122 123.066H115.578V124.77H115.098C114.074 124.77 113.298 124.922 112.77 125.226C112.258 125.514 111.906 125.922 111.714 126.45C111.538 126.978 111.45 127.586 111.45 128.274V132.834H109.914ZM128.876 133.074C127.628 133.074 126.508 132.818 125.516 132.306C124.524 131.778 123.732 130.994 123.14 129.954C122.564 128.914 122.284 127.634 122.3 126.114C122.3 124.578 122.58 123.29 123.14 122.25C123.716 121.194 124.508 120.402 125.516 119.874C126.524 119.346 127.676 119.082 128.972 119.082C130.636 119.082 131.996 119.53 133.052 120.426C134.108 121.306 134.78 122.522 135.068 124.074H133.46C133.252 122.858 132.724 121.962 131.876 121.386C131.028 120.81 130.06 120.522 128.972 120.522C127.372 120.522 126.116 121.002 125.204 121.962C124.292 122.906 123.836 124.258 123.836 126.018C123.836 127.858 124.276 129.258 125.156 130.218C126.052 131.162 127.3 131.634 128.9 131.634C130.1 131.634 131.124 131.346 131.972 130.77C132.82 130.178 133.34 129.282 133.532 128.082H135.164C134.876 129.618 134.196 130.834 133.124 131.73C132.068 132.626 130.652 133.074 128.876 133.074ZM141.324 133.074C139.756 133.074 138.58 132.61 137.796 131.682C137.028 130.738 136.644 129.538 136.644 128.082C136.628 126.61 137.012 125.41 137.796 124.482C138.596 123.538 139.772 123.058 141.324 123.042C142.86 123.042 144.02 123.506 144.804 124.434C145.604 125.346 146.004 126.562 146.004 128.082C146.004 129.026 145.836 129.874 145.5 130.626C145.164 131.378 144.652 131.978 143.964 132.426C143.276 132.858 142.396 133.074 141.324 133.074ZM141.324 131.73C142.156 131.73 142.796 131.546 143.244 131.178C143.708 130.81 144.028 130.346 144.204 129.786C144.396 129.21 144.492 128.626 144.492 128.034C144.492 127.442 144.396 126.858 144.204 126.282C144.028 125.706 143.708 125.234 143.244 124.866C142.796 124.498 142.156 124.314 141.324 124.314C140.492 124.314 139.844 124.498 139.38 124.866C138.932 125.234 138.612 125.706 138.42 126.282C138.244 126.858 138.156 127.442 138.156 128.034C138.156 128.626 138.244 129.21 138.42 129.786C138.612 130.346 138.932 130.81 139.38 131.178C139.844 131.546 140.492 131.73 141.324 131.73ZM147.877 132.834V123.066H149.197L149.293 125.49H149.341C149.373 125.378 149.445 125.194 149.557 124.938C149.669 124.666 149.845 124.386 150.085 124.098C150.325 123.81 150.637 123.57 151.021 123.378C151.405 123.17 151.893 123.066 152.485 123.066C153.381 123.066 154.037 123.314 154.453 123.81C154.885 124.306 155.173 124.866 155.317 125.49H155.365C155.413 125.378 155.501 125.194 155.629 124.938C155.757 124.666 155.949 124.386 156.205 124.098C156.461 123.81 156.789 123.57 157.189 123.378C157.605 123.17 158.109 123.066 158.701 123.066C159.325 123.066 159.837 123.194 160.237 123.45C160.637 123.69 160.941 124.018 161.149 124.434C161.373 124.834 161.533 125.258 161.629 125.706C161.725 126.154 161.781 126.586 161.797 127.002C161.813 127.418 161.821 127.754 161.821 128.01V132.834H160.477V128.01C160.477 127.754 160.461 127.426 160.429 127.026C160.397 126.626 160.317 126.234 160.189 125.85C160.061 125.45 159.837 125.122 159.517 124.866C159.213 124.594 158.773 124.458 158.197 124.458C157.557 124.458 157.045 124.634 156.661 124.986C156.277 125.338 155.997 125.802 155.821 126.378C155.645 126.938 155.557 127.546 155.557 128.202V132.834H154.213V128.01C154.213 127.754 154.197 127.426 154.165 127.026C154.133 126.626 154.053 126.234 153.925 125.85C153.797 125.45 153.573 125.122 153.253 124.866C152.949 124.594 152.509 124.458 151.933 124.458C151.293 124.458 150.781 124.634 150.397 124.986C150.013 125.338 149.733 125.802 149.557 126.378C149.381 126.938 149.293 127.546 149.293 128.202V132.834H147.877ZM169.169 133.074C168.545 133.074 168.009 132.97 167.561 132.762C167.129 132.538 166.777 132.282 166.505 131.994C166.233 131.706 166.025 131.434 165.881 131.178C165.753 130.922 165.673 130.754 165.641 130.674H165.593V136.866H164.009V123.066H165.329L165.593 125.514H165.641C165.673 125.434 165.753 125.266 165.881 125.01C166.009 124.754 166.201 124.474 166.457 124.17C166.729 123.866 167.081 123.61 167.513 123.402C167.961 123.178 168.513 123.066 169.169 123.066C170.113 123.066 170.897 123.282 171.521 123.714C172.161 124.146 172.641 124.746 172.961 125.514C173.297 126.266 173.465 127.13 173.465 128.106C173.465 129.562 173.097 130.754 172.361 131.682C171.625 132.61 170.561 133.074 169.169 133.074ZM168.857 131.706C169.609 131.706 170.209 131.53 170.657 131.178C171.121 130.826 171.449 130.378 171.641 129.834C171.849 129.274 171.953 128.69 171.953 128.082C171.953 127.458 171.841 126.874 171.617 126.33C171.393 125.786 171.041 125.346 170.561 125.01C170.097 124.658 169.481 124.482 168.713 124.482C167.785 124.482 167.041 124.81 166.481 125.466C165.921 126.106 165.641 126.978 165.641 128.082C165.641 129.202 165.937 130.09 166.529 130.746C167.121 131.386 167.897 131.706 168.857 131.706ZM178.544 133.05C177.648 133.05 176.912 132.834 176.336 132.402C175.76 131.954 175.328 131.354 175.04 130.602C174.768 129.85 174.632 128.994 174.632 128.034C174.632 126.562 174.952 125.354 175.592 124.41C176.248 123.45 177.232 122.97 178.544 122.97C179.216 122.97 179.776 123.09 180.224 123.33C180.688 123.554 181.056 123.834 181.328 124.17C181.616 124.506 181.824 124.826 181.952 125.13H181.976V123.066H183.56V132.834H182.24L182 130.938H181.952C181.808 131.258 181.6 131.586 181.328 131.922C181.056 132.242 180.688 132.514 180.224 132.738C179.776 132.946 179.216 133.05 178.544 133.05ZM179.144 131.682C180.136 131.682 180.848 131.354 181.28 130.698C181.728 130.042 181.952 129.162 181.952 128.058C181.952 126.874 181.72 125.97 181.256 125.346C180.808 124.722 180.104 124.41 179.144 124.41C178.088 124.41 177.328 124.762 176.864 125.466C176.416 126.154 176.192 127.01 176.192 128.034C176.192 129.106 176.424 129.986 176.888 130.674C177.352 131.346 178.104 131.682 179.144 131.682ZM185.354 132.834V123.066H186.674L186.938 125.49H186.986C187.002 125.41 187.074 125.242 187.202 124.986C187.33 124.73 187.522 124.458 187.778 124.17C188.05 123.866 188.402 123.61 188.834 123.402C189.266 123.178 189.818 123.066 190.49 123.066C191.338 123.066 192.002 123.218 192.482 123.522C192.978 123.826 193.346 124.234 193.586 124.746C193.826 125.242 193.978 125.778 194.042 126.354C194.106 126.93 194.138 127.482 194.138 128.01V132.834H192.65V128.01C192.65 126.954 192.466 126.098 192.098 125.442C191.746 124.786 191.042 124.458 189.986 124.458C189.266 124.458 188.674 124.634 188.21 124.986C187.762 125.322 187.434 125.778 187.226 126.354C187.034 126.914 186.938 127.53 186.938 128.202V132.834H185.354ZM195.081 137.202V135.954H196.425C196.745 135.954 197.009 135.866 197.217 135.69C197.425 135.53 197.681 135.13 197.985 134.49L199.017 132.258L195.177 123.066H196.785L199.785 130.626L202.977 123.066H204.609L199.377 134.706C199.057 135.426 198.769 135.962 198.513 136.314C198.273 136.682 198.001 136.922 197.697 137.034C197.393 137.146 197.009 137.202 196.545 137.202H195.081ZM215.949 133.074C214.381 133.074 213.205 132.61 212.421 131.682C211.653 130.738 211.269 129.538 211.269 128.082C211.253 126.61 211.637 125.41 212.421 124.482C213.221 123.538 214.397 123.058 215.949 123.042C217.485 123.042 218.645 123.506 219.429 124.434C220.229 125.346 220.629 126.562 220.629 128.082C220.629 129.026 220.461 129.874 220.125 130.626C219.789 131.378 219.277 131.978 218.589 132.426C217.901 132.858 217.021 133.074 215.949 133.074ZM215.949 131.73C216.781 131.73 217.421 131.546 217.869 131.178C218.333 130.81 218.653 130.346 218.829 129.786C219.021 129.21 219.117 128.626 219.117 128.034C219.117 127.442 219.021 126.858 218.829 126.282C218.653 125.706 218.333 125.234 217.869 124.866C217.421 124.498 216.781 124.314 215.949 124.314C215.117 124.314 214.469 124.498 214.005 124.866C213.557 125.234 213.237 125.706 213.045 126.282C212.869 126.858 212.781 127.442 212.781 128.034C212.781 128.626 212.869 129.21 213.045 129.786C213.237 130.346 213.557 130.81 214.005 131.178C214.469 131.546 215.117 131.73 215.949 131.73ZM222.742 132.834V123.066H224.134L224.302 125.634C224.398 125.202 224.59 124.786 224.878 124.386C225.166 123.986 225.558 123.666 226.054 123.426C226.566 123.17 227.198 123.05 227.95 123.066H228.406V124.77H227.926C226.902 124.77 226.126 124.922 225.598 125.226C225.086 125.514 224.734 125.922 224.542 126.45C224.366 126.978 224.278 127.586 224.278 128.274V132.834H222.742ZM241.608 133.17C239.464 133.17 237.832 132.538 236.712 131.274C235.592 129.994 235.032 128.274 235.032 126.114C235.032 124.69 235.272 123.458 235.752 122.418C236.248 121.362 236.976 120.546 237.936 119.97C238.912 119.378 240.136 119.082 241.608 119.082C243.752 119.082 245.376 119.722 246.48 121.002C247.584 122.266 248.136 123.97 248.136 126.114C248.136 127.506 247.888 128.738 247.392 129.81C246.912 130.866 246.184 131.69 245.208 132.282C244.232 132.874 243.032 133.17 241.608 133.17ZM241.584 131.682C243.264 131.682 244.52 131.17 245.352 130.146C246.2 129.122 246.624 127.778 246.624 126.114C246.624 124.45 246.208 123.106 245.376 122.082C244.544 121.042 243.28 120.522 241.584 120.522C239.936 120.522 238.68 121.026 237.816 122.034C236.968 123.026 236.544 124.386 236.544 126.114C236.544 127.762 236.96 129.106 237.792 130.146C238.624 131.17 239.888 131.682 241.584 131.682ZM250.164 132.834V123.066H251.556L251.724 125.634C251.82 125.202 252.012 124.786 252.3 124.386C252.588 123.986 252.98 123.666 253.476 123.426C253.988 123.17 254.62 123.05 255.372 123.066H255.828V124.77H255.348C254.324 124.77 253.548 124.922 253.02 125.226C252.508 125.514 252.156 125.922 251.964 126.45C251.788 126.978 251.7 127.586 251.7 128.274V132.834H250.164ZM259.566 136.866V135.402H264.438V130.674H264.39C264.358 130.754 264.27 130.922 264.126 131.178C263.998 131.434 263.79 131.706 263.502 131.994C263.23 132.282 262.87 132.538 262.422 132.762C261.99 132.97 261.462 133.074 260.838 133.074C259.894 133.074 259.102 132.858 258.462 132.426C257.838 131.978 257.366 131.378 257.046 130.626C256.726 129.874 256.566 129.026 256.566 128.082C256.566 126.61 256.926 125.41 257.646 124.482C258.382 123.538 259.454 123.066 260.862 123.066C261.518 123.066 262.062 123.178 262.494 123.402C262.942 123.61 263.294 123.866 263.55 124.17C263.822 124.474 264.022 124.754 264.15 125.01C264.278 125.266 264.358 125.434 264.39 125.514H264.438V123.066H266.022V134.514C266.022 135.282 265.878 135.866 265.59 136.266C265.302 136.666 264.782 136.866 264.03 136.866H259.566ZM261.174 131.706C262.134 131.706 262.91 131.386 263.502 130.746C264.094 130.09 264.39 129.202 264.39 128.082C264.39 126.978 264.11 126.106 263.55 125.466C262.99 124.81 262.246 124.482 261.318 124.482C260.55 124.482 259.926 124.658 259.446 125.01C258.982 125.346 258.638 125.786 258.414 126.33C258.19 126.874 258.078 127.458 258.078 128.082C258.078 128.69 258.174 129.274 258.366 129.834C258.574 130.378 258.902 130.826 259.35 131.178C259.814 131.53 260.422 131.706 261.174 131.706ZM271.497 133.05C270.601 133.05 269.865 132.834 269.289 132.402C268.713 131.954 268.281 131.354 267.993 130.602C267.721 129.85 267.585 128.994 267.585 128.034C267.585 126.562 267.905 125.354 268.545 124.41C269.201 123.45 270.185 122.97 271.497 122.97C272.169 122.97 272.729 123.09 273.177 123.33C273.641 123.554 274.009 123.834 274.281 124.17C274.569 124.506 274.777 124.826 274.905 125.13H274.929V123.066H276.513V132.834H275.193L274.953 130.938H274.905C274.761 131.258 274.553 131.586 274.281 131.922C274.009 132.242 273.641 132.514 273.177 132.738C272.729 132.946 272.169 133.05 271.497 133.05ZM272.097 131.682C273.089 131.682 273.801 131.354 274.233 130.698C274.681 130.042 274.905 129.162 274.905 128.058C274.905 126.874 274.673 125.97 274.209 125.346C273.761 124.722 273.057 124.41 272.097 124.41C271.041 124.41 270.281 124.762 269.817 125.466C269.369 126.154 269.145 127.01 269.145 128.034C269.145 129.106 269.377 129.986 269.841 130.674C270.305 131.346 271.057 131.682 272.097 131.682ZM278.307 132.834V123.066H279.627L279.891 125.49H279.939C279.955 125.41 280.027 125.242 280.155 124.986C280.283 124.73 280.475 124.458 280.731 124.17C281.003 123.866 281.355 123.61 281.787 123.402C282.219 123.178 282.771 123.066 283.443 123.066C284.291 123.066 284.955 123.218 285.435 123.522C285.931 123.826 286.299 124.234 286.539 124.746C286.779 125.242 286.931 125.778 286.995 126.354C287.059 126.93 287.091 127.482 287.091 128.01V132.834H285.603V128.01C285.603 126.954 285.419 126.098 285.051 125.442C284.699 124.786 283.995 124.458 282.939 124.458C282.219 124.458 281.627 124.634 281.163 124.986C280.715 125.322 280.387 125.778 280.179 126.354C279.987 126.914 279.891 127.53 279.891 128.202V132.834H278.307ZM290.242 122.01C289.89 122.01 289.65 121.922 289.522 121.746C289.41 121.554 289.354 121.314 289.354 121.026C289.354 120.786 289.41 120.578 289.522 120.402C289.65 120.21 289.89 120.114 290.242 120.114C290.594 120.114 290.826 120.21 290.938 120.402C291.066 120.578 291.13 120.786 291.13 121.026C291.13 121.314 291.066 121.554 290.938 121.746C290.826 121.922 290.594 122.01 290.242 122.01ZM289.474 132.834V123.066H291.01V132.834H289.474ZM293.188 132.834V131.706L299.836 124.266H293.5V123.042H301.756V124.194L295.132 131.586H301.756V132.834H293.188ZM307.005 133.05C306.109 133.05 305.373 132.834 304.797 132.402C304.221 131.954 303.789 131.354 303.501 130.602C303.229 129.85 303.093 128.994 303.093 128.034C303.093 126.562 303.413 125.354 304.053 124.41C304.709 123.45 305.693 122.97 307.005 122.97C307.677 122.97 308.237 123.09 308.685 123.33C309.149 123.554 309.517 123.834 309.789 124.17C310.077 124.506 310.285 124.826 310.413 125.13H310.437V123.066H312.021V132.834H310.701L310.461 130.938H310.413C310.269 131.258 310.061 131.586 309.789 131.922C309.517 132.242 309.149 132.514 308.685 132.738C308.237 132.946 307.677 133.05 307.005 133.05ZM307.605 131.682C308.597 131.682 309.309 131.354 309.741 130.698C310.189 130.042 310.413 129.162 310.413 128.058C310.413 126.874 310.181 125.97 309.717 125.346C309.269 124.722 308.565 124.41 307.605 124.41C306.549 124.41 305.789 124.762 305.325 125.466C304.877 126.154 304.653 127.01 304.653 128.034C304.653 129.106 304.885 129.986 305.349 130.674C305.813 131.346 306.565 131.682 307.605 131.682ZM316.263 132.834C315.671 132.834 315.255 132.674 315.015 132.354C314.791 132.034 314.679 131.594 314.679 131.034V124.218H313.143V123.066C313.655 123.066 314.031 123.026 314.271 122.946C314.527 122.85 314.687 122.626 314.751 122.274C314.815 121.922 314.847 121.346 314.847 120.546H316.167V123.066H318.423V124.218H316.167V131.586H318.447V132.834H316.263ZM321.672 122.01C321.32 122.01 321.08 121.922 320.952 121.746C320.84 121.554 320.784 121.314 320.784 121.026C320.784 120.786 320.84 120.578 320.952 120.402C321.08 120.21 321.32 120.114 321.672 120.114C322.024 120.114 322.256 120.21 322.368 120.402C322.496 120.578 322.56 120.786 322.56 121.026C322.56 121.314 322.496 121.554 322.368 121.746C322.256 121.922 322.024 122.01 321.672 122.01ZM320.904 132.834V123.066H322.44V132.834H320.904ZM329.106 133.074C327.538 133.074 326.362 132.61 325.578 131.682C324.81 130.738 324.426 129.538 324.426 128.082C324.41 126.61 324.794 125.41 325.578 124.482C326.378 123.538 327.554 123.058 329.106 123.042C330.642 123.042 331.802 123.506 332.586 124.434C333.386 125.346 333.786 126.562 333.786 128.082C333.786 129.026 333.618 129.874 333.282 130.626C332.946 131.378 332.434 131.978 331.746 132.426C331.058 132.858 330.178 133.074 329.106 133.074ZM329.106 131.73C329.938 131.73 330.578 131.546 331.026 131.178C331.49 130.81 331.81 130.346 331.986 129.786C332.178 129.21 332.274 128.626 332.274 128.034C332.274 127.442 332.178 126.858 331.986 126.282C331.81 125.706 331.49 125.234 331.026 124.866C330.578 124.498 329.938 124.314 329.106 124.314C328.274 124.314 327.626 124.498 327.162 124.866C326.714 125.234 326.394 125.706 326.202 126.282C326.026 126.858 325.938 127.442 325.938 128.034C325.938 128.626 326.026 129.21 326.202 129.786C326.394 130.346 326.714 130.81 327.162 131.178C327.626 131.546 328.274 131.73 329.106 131.73ZM335.658 132.834V123.066H336.978L337.242 125.49H337.29C337.306 125.41 337.378 125.242 337.506 124.986C337.634 124.73 337.826 124.458 338.082 124.17C338.354 123.866 338.706 123.61 339.138 123.402C339.57 123.178 340.122 123.066 340.794 123.066C341.642 123.066 342.306 123.218 342.786 123.522C343.282 123.826 343.65 124.234 343.89 124.746C344.13 125.242 344.282 125.778 344.346 126.354C344.41 126.93 344.442 127.482 344.442 128.01V132.834H342.954V128.01C342.954 126.954 342.77 126.098 342.402 125.442C342.05 124.786 341.346 124.458 340.29 124.458C339.57 124.458 338.978 124.634 338.514 124.986C338.066 125.322 337.738 125.778 337.53 126.354C337.338 126.914 337.242 127.53 337.242 128.202V132.834H335.658ZM125.14 169.074C124.212 169.074 123.444 168.882 122.836 168.498C122.244 168.098 121.796 167.634 121.492 167.106C121.204 166.578 121.06 166.106 121.06 165.69H122.548C122.548 165.706 122.556 165.826 122.572 166.05C122.604 166.274 122.692 166.53 122.836 166.818C122.98 167.106 123.228 167.362 123.58 167.586C123.932 167.794 124.444 167.898 125.116 167.898C125.836 167.898 126.452 167.77 126.964 167.514C127.492 167.258 127.748 166.858 127.732 166.314C127.732 165.85 127.572 165.498 127.252 165.258C126.948 165.002 126.548 164.81 126.052 164.682C125.556 164.538 125.036 164.402 124.492 164.274C123.948 164.146 123.428 163.986 122.932 163.794C122.452 163.586 122.06 163.298 121.756 162.93C121.452 162.562 121.3 162.05 121.3 161.394C121.3 160.594 121.66 159.962 122.38 159.498C123.1 159.018 124.02 158.778 125.14 158.778C125.764 158.778 126.396 158.882 127.036 159.09C127.676 159.282 128.204 159.626 128.62 160.122C129.036 160.602 129.228 161.282 129.196 162.162H127.756C127.788 161.554 127.652 161.098 127.348 160.794C127.044 160.49 126.676 160.29 126.244 160.194C125.828 160.082 125.444 160.026 125.092 160.026C124.404 160.026 123.836 160.154 123.388 160.41C122.956 160.666 122.74 161.026 122.74 161.49C122.74 161.938 122.892 162.282 123.196 162.522C123.516 162.746 123.916 162.93 124.396 163.074C124.892 163.202 125.412 163.33 125.956 163.458C126.516 163.57 127.044 163.73 127.54 163.938C128.036 164.146 128.436 164.442 128.74 164.826C129.06 165.21 129.22 165.738 129.22 166.41C129.22 167.338 128.828 168.018 128.044 168.45C127.26 168.866 126.292 169.074 125.14 169.074ZM136.356 169.074C135.732 169.074 135.196 168.97 134.748 168.762C134.316 168.538 133.964 168.282 133.692 167.994C133.42 167.706 133.212 167.434 133.068 167.178C132.94 166.922 132.86 166.754 132.828 166.674H132.78V172.866H131.196V159.066H132.516L132.78 161.514H132.828C132.86 161.434 132.94 161.266 133.068 161.01C133.196 160.754 133.388 160.474 133.644 160.17C133.916 159.866 134.268 159.61 134.7 159.402C135.148 159.178 135.7 159.066 136.356 159.066C137.3 159.066 138.084 159.282 138.708 159.714C139.348 160.146 139.828 160.746 140.148 161.514C140.484 162.266 140.652 163.13 140.652 164.106C140.652 165.562 140.284 166.754 139.548 167.682C138.812 168.61 137.748 169.074 136.356 169.074ZM136.044 167.706C136.796 167.706 137.396 167.53 137.844 167.178C138.308 166.826 138.636 166.378 138.828 165.834C139.036 165.274 139.14 164.69 139.14 164.082C139.14 163.458 139.028 162.874 138.804 162.33C138.58 161.786 138.228 161.346 137.748 161.01C137.284 160.658 136.668 160.482 135.9 160.482C134.972 160.482 134.228 160.81 133.668 161.466C133.108 162.106 132.828 162.978 132.828 164.082C132.828 165.202 133.124 166.09 133.716 166.746C134.308 167.386 135.084 167.706 136.044 167.706ZM146.739 169.074C145.667 169.074 144.779 168.834 144.075 168.354C143.387 167.858 142.875 167.226 142.539 166.458C142.219 165.674 142.059 164.866 142.059 164.034C142.059 163.122 142.235 162.29 142.587 161.538C142.955 160.77 143.483 160.162 144.171 159.714C144.875 159.266 145.715 159.042 146.691 159.042C147.939 159.042 148.979 159.45 149.811 160.266C150.643 161.066 151.091 162.146 151.155 163.506C151.171 163.57 151.179 163.666 151.179 163.794C151.179 163.906 151.179 164.01 151.179 164.106H143.547C143.547 165.242 143.819 166.138 144.363 166.794C144.923 167.434 145.707 167.754 146.715 167.754C147.467 167.754 148.107 167.562 148.635 167.178C149.179 166.794 149.515 166.274 149.643 165.618H151.155C150.995 166.61 150.523 167.434 149.739 168.09C148.955 168.746 147.955 169.074 146.739 169.074ZM143.595 163.266H149.595C149.595 162.93 149.499 162.53 149.307 162.066C149.131 161.602 148.827 161.202 148.395 160.866C147.979 160.514 147.403 160.338 146.667 160.338C145.995 160.338 145.443 160.482 145.011 160.77C144.579 161.058 144.251 161.426 144.027 161.874C143.803 162.322 143.659 162.786 143.595 163.266ZM157.615 169.074C156.703 169.074 155.887 168.882 155.167 168.498C154.447 168.114 153.879 167.554 153.463 166.818C153.047 166.082 152.839 165.194 152.839 164.154C152.871 163.13 153.087 162.234 153.487 161.466C153.903 160.698 154.471 160.106 155.191 159.69C155.911 159.258 156.735 159.042 157.663 159.042C158.527 159.042 159.279 159.202 159.919 159.522C160.559 159.842 161.071 160.274 161.455 160.818C161.839 161.362 162.079 161.962 162.175 162.618H160.759C160.599 161.914 160.247 161.37 159.703 160.986C159.175 160.602 158.511 160.41 157.711 160.41C156.687 160.41 155.871 160.754 155.263 161.442C154.671 162.114 154.367 162.994 154.351 164.082C154.351 165.186 154.639 166.066 155.215 166.722C155.807 167.362 156.631 167.682 157.687 167.682C158.455 167.682 159.119 167.49 159.679 167.106C160.239 166.722 160.599 166.17 160.759 165.45H162.175C162.079 166.122 161.831 166.73 161.431 167.274C161.047 167.818 160.527 168.258 159.871 168.594C159.231 168.914 158.479 169.074 157.615 169.074ZM165.203 158.01C164.851 158.01 164.611 157.922 164.483 157.746C164.371 157.554 164.315 157.314 164.315 157.026C164.315 156.786 164.371 156.578 164.483 156.402C164.611 156.21 164.851 156.114 165.203 156.114C165.555 156.114 165.787 156.21 165.899 156.402C166.027 156.578 166.091 156.786 166.091 157.026C166.091 157.314 166.027 157.554 165.899 157.746C165.787 157.922 165.555 158.01 165.203 158.01ZM164.435 168.834V159.066H165.971V168.834H164.435ZM169.133 168.906V160.218H167.621V159.066H169.133V156.906C169.133 156.346 169.245 155.906 169.469 155.586C169.709 155.266 170.125 155.106 170.717 155.106H173.621V156.378H170.693V159.066H173.453V160.218H170.693V168.906H169.133ZM176.476 158.01C176.124 158.01 175.884 157.922 175.756 157.746C175.644 157.554 175.588 157.314 175.588 157.026C175.588 156.786 175.644 156.578 175.756 156.402C175.884 156.21 176.124 156.114 176.476 156.114C176.828 156.114 177.06 156.21 177.172 156.402C177.3 156.578 177.364 156.786 177.364 157.026C177.364 157.314 177.3 157.554 177.172 157.746C177.06 157.922 176.828 158.01 176.476 158.01ZM175.708 168.834V159.066H177.244V168.834H175.708ZM183.982 169.074C183.07 169.074 182.254 168.882 181.534 168.498C180.814 168.114 180.246 167.554 179.83 166.818C179.414 166.082 179.206 165.194 179.206 164.154C179.238 163.13 179.454 162.234 179.854 161.466C180.27 160.698 180.838 160.106 181.558 159.69C182.278 159.258 183.102 159.042 184.03 159.042C184.894 159.042 185.646 159.202 186.286 159.522C186.926 159.842 187.438 160.274 187.822 160.818C188.206 161.362 188.446 161.962 188.542 162.618H187.126C186.966 161.914 186.614 161.37 186.07 160.986C185.542 160.602 184.878 160.41 184.078 160.41C183.054 160.41 182.238 160.754 181.63 161.442C181.038 162.114 180.734 162.994 180.718 164.082C180.718 165.186 181.006 166.066 181.582 166.722C182.174 167.362 182.998 167.682 184.054 167.682C184.822 167.682 185.486 167.49 186.046 167.106C186.606 166.722 186.966 166.17 187.126 165.45H188.542C188.446 166.122 188.198 166.73 187.798 167.274C187.414 167.818 186.894 168.258 186.238 168.594C185.598 168.914 184.846 169.074 183.982 169.074ZM196.041 168.834V159.066H197.361L197.625 161.49H197.673C197.689 161.41 197.761 161.242 197.889 160.986C198.017 160.73 198.209 160.458 198.465 160.17C198.737 159.866 199.089 159.61 199.521 159.402C199.953 159.178 200.505 159.066 201.177 159.066C202.025 159.066 202.689 159.218 203.169 159.522C203.665 159.826 204.033 160.234 204.273 160.746C204.513 161.242 204.665 161.778 204.729 162.354C204.793 162.93 204.825 163.482 204.825 164.01V168.834H203.337V164.01C203.337 162.954 203.153 162.098 202.785 161.442C202.433 160.786 201.729 160.458 200.673 160.458C199.953 160.458 199.361 160.634 198.897 160.986C198.449 161.322 198.121 161.778 197.913 162.354C197.721 162.914 197.625 163.53 197.625 164.202V168.834H196.041ZM211.192 169.074C210.12 169.074 209.232 168.834 208.528 168.354C207.84 167.858 207.328 167.226 206.992 166.458C206.672 165.674 206.512 164.866 206.512 164.034C206.512 163.122 206.688 162.29 207.04 161.538C207.408 160.77 207.936 160.162 208.624 159.714C209.328 159.266 210.168 159.042 211.144 159.042C212.392 159.042 213.432 159.45 214.264 160.266C215.096 161.066 215.544 162.146 215.608 163.506C215.624 163.57 215.632 163.666 215.632 163.794C215.632 163.906 215.632 164.01 215.632 164.106H208C208 165.242 208.272 166.138 208.816 166.794C209.376 167.434 210.16 167.754 211.168 167.754C211.92 167.754 212.56 167.562 213.088 167.178C213.632 166.794 213.968 166.274 214.096 165.618H215.608C215.448 166.61 214.976 167.434 214.192 168.09C213.408 168.746 212.408 169.074 211.192 169.074ZM208.048 163.266H214.048C214.048 162.93 213.952 162.53 213.76 162.066C213.584 161.602 213.28 161.202 212.848 160.866C212.432 160.514 211.856 160.338 211.12 160.338C210.448 160.338 209.896 160.482 209.464 160.77C209.032 161.058 208.704 161.426 208.48 161.874C208.256 162.322 208.112 162.786 208.048 163.266ZM222.02 169.074C220.948 169.074 220.06 168.834 219.356 168.354C218.668 167.858 218.156 167.226 217.82 166.458C217.5 165.674 217.34 164.866 217.34 164.034C217.34 163.122 217.516 162.29 217.868 161.538C218.236 160.77 218.764 160.162 219.452 159.714C220.156 159.266 220.996 159.042 221.972 159.042C223.22 159.042 224.26 159.45 225.092 160.266C225.924 161.066 226.372 162.146 226.436 163.506C226.452 163.57 226.46 163.666 226.46 163.794C226.46 163.906 226.46 164.01 226.46 164.106H218.828C218.828 165.242 219.1 166.138 219.644 166.794C220.204 167.434 220.988 167.754 221.996 167.754C222.748 167.754 223.388 167.562 223.916 167.178C224.46 166.794 224.796 166.274 224.924 165.618H226.436C226.276 166.61 225.804 167.434 225.02 168.09C224.236 168.746 223.236 169.074 222.02 169.074ZM218.876 163.266H224.876C224.876 162.93 224.78 162.53 224.588 162.066C224.412 161.602 224.108 161.202 223.676 160.866C223.26 160.514 222.684 160.338 221.948 160.338C221.276 160.338 220.724 160.482 220.292 160.77C219.86 161.058 219.532 161.426 219.308 161.874C219.084 162.322 218.94 162.786 218.876 163.266ZM232.848 169.074C231.904 169.074 231.112 168.858 230.472 168.426C229.848 167.994 229.376 167.402 229.056 166.65C228.752 165.882 228.6 165.026 228.6 164.082C228.6 162.626 228.96 161.426 229.68 160.482C230.4 159.538 231.464 159.066 232.872 159.066C233.528 159.066 234.072 159.178 234.504 159.402C234.952 159.61 235.312 159.866 235.584 160.17C235.856 160.474 236.056 160.754 236.184 161.01C236.312 161.266 236.392 161.434 236.424 161.514H236.472L236.496 155.322H238.08V168.834H236.736L236.496 166.674H236.448C236.416 166.754 236.328 166.922 236.184 167.178C236.04 167.434 235.824 167.706 235.536 167.994C235.264 168.282 234.904 168.538 234.456 168.762C234.024 168.97 233.488 169.074 232.848 169.074ZM233.232 167.706C234.176 167.706 234.944 167.386 235.536 166.746C236.144 166.09 236.448 165.202 236.448 164.082C236.448 162.978 236.168 162.106 235.608 161.466C235.048 160.81 234.296 160.482 233.352 160.482C232.6 160.482 231.984 160.658 231.504 161.01C231.024 161.346 230.672 161.786 230.448 162.33C230.224 162.874 230.112 163.458 230.112 164.082C230.112 164.69 230.216 165.274 230.424 165.834C230.632 166.378 230.96 166.826 231.408 167.178C231.856 167.53 232.464 167.706 233.232 167.706ZM243.992 169.074C243.064 169.074 242.296 168.882 241.688 168.498C241.096 168.098 240.648 167.634 240.344 167.106C240.056 166.578 239.912 166.106 239.912 165.69H241.4C241.4 165.706 241.408 165.826 241.424 166.05C241.456 166.274 241.544 166.53 241.688 166.818C241.832 167.106 242.08 167.362 242.432 167.586C242.784 167.794 243.296 167.898 243.968 167.898C244.688 167.898 245.304 167.77 245.816 167.514C246.344 167.258 246.6 166.858 246.584 166.314C246.584 165.85 246.424 165.498 246.104 165.258C245.8 165.002 245.4 164.81 244.904 164.682C244.408 164.538 243.888 164.402 243.344 164.274C242.8 164.146 242.28 163.986 241.784 163.794C241.304 163.586 240.912 163.298 240.608 162.93C240.304 162.562 240.152 162.05 240.152 161.394C240.152 160.594 240.512 159.962 241.232 159.498C241.952 159.018 242.872 158.778 243.992 158.778C244.616 158.778 245.248 158.882 245.888 159.09C246.528 159.282 247.056 159.626 247.472 160.122C247.888 160.602 248.08 161.282 248.048 162.162H246.608C246.64 161.554 246.504 161.098 246.2 160.794C245.896 160.49 245.528 160.29 245.096 160.194C244.68 160.082 244.296 160.026 243.944 160.026C243.256 160.026 242.688 160.154 242.24 160.41C241.808 160.666 241.592 161.026 241.592 161.49C241.592 161.938 241.744 162.282 242.048 162.522C242.368 162.746 242.768 162.93 243.248 163.074C243.744 163.202 244.264 163.33 244.808 163.458C245.368 163.57 245.896 163.73 246.392 163.938C246.888 164.146 247.288 164.442 247.592 164.826C247.912 165.21 248.072 165.738 248.072 166.41C248.072 167.338 247.68 168.018 246.896 168.45C246.112 168.866 245.144 169.074 243.992 169.074ZM250.696 168.834C250.296 168.834 250.024 168.73 249.88 168.522C249.752 168.298 249.688 168.042 249.688 167.754C249.688 167.45 249.752 167.194 249.88 166.986C250.024 166.778 250.296 166.674 250.696 166.674C251.096 166.674 251.36 166.778 251.488 166.986C251.632 167.194 251.704 167.45 251.704 167.754C251.704 168.058 251.632 168.314 251.488 168.522C251.36 168.73 251.096 168.834 250.696 168.834Z" fill="#00668B"/>
</svg>
