<svg width="468" height="101" viewBox="0 0 468 101" fill="none" xmlns="http://www.w3.org/2000/svg">
<path d="M12.9274 53.396C10.7834 53.396 8.97541 53.028 7.50341 52.292C6.03141 51.556 4.87941 50.612 4.04741 49.46C3.21541 48.276 2.67141 47.012 2.41541 45.668L7.26341 44.996C7.29541 45.22 7.40741 45.572 7.59941 46.052C7.82341 46.5 8.14341 46.98 8.55941 47.492C9.00741 47.972 9.58341 48.388 10.2874 48.74C11.0234 49.092 11.9514 49.268 13.0714 49.268C14.8634 49.268 16.2394 48.74 17.1994 47.684C18.1594 46.628 18.6874 45.444 18.7834 44.132C18.8794 43.204 18.7354 42.292 18.3514 41.396C17.9674 40.5 17.3434 39.764 16.4794 39.188C15.6154 38.612 14.5274 38.324 13.2154 38.324C11.9994 38.324 11.0234 38.548 10.2874 38.996C9.58341 39.412 9.07141 39.844 8.75141 40.292C8.43141 40.74 8.25541 40.98 8.22341 41.012L3.18341 40.148L4.67141 25.892H22.3354V30.116H8.07941L7.16741 38.66C7.16741 38.66 7.29541 38.484 7.55141 38.132C7.83941 37.748 8.27141 37.316 8.84741 36.836C9.45541 36.356 10.2234 35.94 11.1514 35.588C12.1114 35.204 13.2634 35.012 14.6074 35.012C16.7514 35.012 18.5114 35.46 19.8874 36.356C21.2634 37.252 22.2554 38.404 22.8634 39.812C23.5034 41.22 23.7594 42.692 23.6314 44.228C23.5034 45.764 23.0074 47.236 22.1434 48.644C21.2794 50.02 20.0634 51.156 18.4954 52.052C16.9274 52.948 15.0714 53.396 12.9274 53.396ZM38.3873 53.396C36.2433 53.396 34.3233 53.028 32.6273 52.292C30.9313 51.556 29.5873 50.452 28.5953 48.98C27.6353 47.476 27.1553 45.62 27.1553 43.412L31.8593 42.74C31.9233 44.82 32.5633 46.42 33.7793 47.54C35.0273 48.628 36.5953 49.172 38.4833 49.172C40.1153 49.172 41.4593 48.74 42.5153 47.876C43.6033 46.98 44.1473 45.86 44.1473 44.516C44.1473 43.46 43.8753 42.644 43.3313 42.068C42.7873 41.46 42.0993 41.028 41.2673 40.772C40.4673 40.484 39.6673 40.34 38.8673 40.34H35.6513V37.796H38.9633C40.2753 37.796 41.3953 37.524 42.3233 36.98C43.2833 36.436 43.7633 35.54 43.7633 34.292C43.7633 32.82 43.2513 31.652 42.2273 30.788C41.2033 29.924 39.8273 29.492 38.0993 29.492C36.7233 29.492 35.6033 29.78 34.7393 30.356C33.8753 30.932 33.2193 31.636 32.7713 32.468C32.3553 33.3 32.1313 34.1 32.0993 34.868L27.7313 34.148C27.7313 33.636 27.8913 32.916 28.2113 31.988C28.5313 31.028 29.0593 30.052 29.7953 29.06C30.5633 28.036 31.6033 27.172 32.9153 26.468C34.2593 25.764 35.9393 25.412 37.9553 25.412C41.1873 25.412 43.6993 26.116 45.4913 27.524C47.2833 28.9 48.1793 30.772 48.1793 33.14C48.1793 34.708 47.7313 36.052 46.8353 37.172C45.9713 38.292 44.6913 38.964 42.9953 39.188C44.6913 39.412 46.0673 40.116 47.1233 41.3C48.1793 42.452 48.7073 43.876 48.7073 45.572C48.7073 47.204 48.2593 48.612 47.3633 49.796C46.4993 50.948 45.2833 51.844 43.7153 52.484C42.1473 53.092 40.3713 53.396 38.3873 53.396ZM57.2333 52.916H52.3373V25.892H57.2333V42.452L65.6333 33.092H71.6333L63.5693 41.444L71.7773 52.916H65.9213L60.1133 44.996L57.2333 47.972V52.916Z" fill="#133063"/>
<path d="M5.79941 92.096C4.86341 92.096 4.01141 91.904 3.24341 91.52C2.48741 91.124 1.88741 90.542 1.44341 89.774C1.01141 88.994 0.795414 88.028 0.795414 86.876C0.807414 85.736 1.02941 84.776 1.46141 83.996C1.89341 83.204 2.48741 82.61 3.24341 82.214C4.01141 81.806 4.88741 81.602 5.87141 81.602C7.17941 81.602 8.23541 81.95 9.03941 82.646C9.84341 83.342 10.3414 84.254 10.5334 85.382H8.98541C8.88941 84.806 8.67941 84.344 8.35541 83.996C8.04341 83.648 7.66541 83.396 7.22141 83.24C6.78941 83.084 6.33941 83.006 5.87141 83.006C4.73141 83.006 3.84941 83.336 3.22541 83.996C2.60141 84.644 2.28941 85.574 2.28941 86.786C2.28941 88.058 2.59541 89.03 3.20741 89.702C3.81941 90.362 4.68941 90.692 5.81741 90.692C6.59741 90.692 7.29341 90.506 7.90541 90.134C8.51741 89.75 8.89541 89.132 9.03941 88.28H10.6054C10.4014 89.408 9.89741 90.326 9.09341 91.034C8.28941 91.742 7.19141 92.096 5.79941 92.096ZM15.2608 92.096C14.0368 92.096 13.1248 91.742 12.5248 91.034C11.9248 90.326 11.6248 89.426 11.6248 88.334C11.6128 87.23 11.9128 86.324 12.5248 85.616C13.1368 84.908 14.0488 84.548 15.2608 84.536C16.4368 84.536 17.3308 84.884 17.9428 85.58C18.5548 86.276 18.8608 87.194 18.8608 88.334C18.8608 89.042 18.7288 89.684 18.4648 90.26C18.2128 90.824 17.8168 91.274 17.2768 91.61C16.7488 91.934 16.0768 92.096 15.2608 92.096ZM15.2608 90.818C15.8368 90.818 16.2748 90.692 16.5748 90.44C16.8868 90.188 17.1028 89.87 17.2228 89.486C17.3428 89.09 17.4028 88.688 17.4028 88.28C17.4028 87.872 17.3428 87.476 17.2228 87.092C17.1028 86.696 16.8868 86.372 16.5748 86.12C16.2748 85.856 15.8368 85.724 15.2608 85.724C14.6728 85.724 14.2228 85.856 13.9108 86.12C13.5988 86.372 13.3828 86.696 13.2628 87.092C13.1428 87.476 13.0828 87.872 13.0828 88.28C13.0828 88.688 13.1428 89.09 13.2628 89.486C13.3828 89.87 13.5988 90.188 13.9108 90.44C14.2228 90.692 14.6728 90.818 15.2608 90.818ZM20.226 91.916V84.554H21.522L21.558 86.264H21.594C21.618 86.204 21.666 86.084 21.738 85.904C21.822 85.724 21.948 85.532 22.116 85.328C22.296 85.112 22.53 84.932 22.818 84.788C23.106 84.632 23.46 84.554 23.88 84.554C24.516 84.554 24.984 84.728 25.284 85.076C25.596 85.412 25.818 85.808 25.95 86.264H25.986C25.998 86.204 26.052 86.084 26.148 85.904C26.244 85.724 26.382 85.532 26.562 85.328C26.754 85.112 27 84.932 27.3 84.788C27.6 84.632 27.966 84.554 28.398 84.554C28.866 84.554 29.244 84.65 29.532 84.842C29.832 85.034 30.06 85.286 30.216 85.598C30.384 85.898 30.498 86.222 30.558 86.57C30.63 86.906 30.672 87.23 30.684 87.542C30.696 87.854 30.702 88.112 30.702 88.316V91.916H29.424V88.298C29.424 88.118 29.412 87.896 29.388 87.632C29.376 87.356 29.322 87.086 29.226 86.822C29.142 86.546 28.992 86.324 28.776 86.156C28.572 85.976 28.278 85.886 27.894 85.886C27.438 85.886 27.084 86.006 26.832 86.246C26.58 86.486 26.4 86.804 26.292 87.2C26.184 87.584 26.13 87.986 26.13 88.406V91.916H24.852V88.298C24.852 88.118 24.84 87.896 24.816 87.632C24.804 87.356 24.75 87.086 24.654 86.822C24.57 86.546 24.42 86.324 24.204 86.156C24 85.976 23.706 85.886 23.322 85.886C22.866 85.886 22.512 86.006 22.26 86.246C22.008 86.486 21.828 86.804 21.72 87.2C21.612 87.584 21.558 87.986 21.558 88.406V91.916H20.226ZM36.4468 92.096C35.9788 92.096 35.5828 92.024 35.2588 91.88C34.9468 91.724 34.6888 91.544 34.4848 91.34C34.2928 91.136 34.1488 90.95 34.0528 90.782C33.9688 90.602 33.9148 90.488 33.8908 90.44H33.8548V95.066H32.3248V84.554H33.6208L33.8728 86.282H33.9088C33.9208 86.234 33.9688 86.12 34.0528 85.94C34.1368 85.76 34.2748 85.562 34.4668 85.346C34.6588 85.13 34.9108 84.944 35.2228 84.788C35.5468 84.632 35.9488 84.554 36.4288 84.554C37.5088 84.554 38.3068 84.908 38.8228 85.616C39.3388 86.324 39.5968 87.236 39.5968 88.352C39.5968 89.468 39.3328 90.374 38.8048 91.07C38.2888 91.754 37.5028 92.096 36.4468 92.096ZM36.0508 90.8C36.5788 90.8 36.9928 90.686 37.2928 90.458C37.6048 90.218 37.8208 89.912 37.9408 89.54C38.0728 89.156 38.1388 88.754 38.1388 88.334C38.1388 87.926 38.0668 87.536 37.9228 87.164C37.7908 86.792 37.5628 86.492 37.2388 86.264C36.9268 86.024 36.5068 85.904 35.9788 85.904C35.2828 85.904 34.7608 86.132 34.4128 86.588C34.0648 87.032 33.8908 87.614 33.8908 88.334C33.8908 89.078 34.0708 89.678 34.4308 90.134C34.8028 90.578 35.3428 90.8 36.0508 90.8ZM43.3836 92.078C42.6996 92.078 42.1476 91.922 41.7276 91.61C41.3076 91.286 40.9956 90.842 40.7916 90.278C40.5996 89.702 40.5036 89.048 40.5036 88.316C40.5036 87.2 40.7316 86.288 41.1876 85.58C41.6436 84.86 42.3756 84.5 43.3836 84.5C43.9236 84.5 44.3616 84.596 44.6976 84.788C45.0336 84.98 45.2916 85.196 45.4716 85.436C45.6636 85.676 45.7956 85.886 45.8676 86.066H45.9036V84.554H47.4336V91.916H46.1556L45.9036 90.602H45.8676C45.7956 90.782 45.6636 90.992 45.4716 91.232C45.2796 91.46 45.0156 91.658 44.6796 91.826C44.3436 91.994 43.9116 92.078 43.3836 92.078ZM43.9776 90.8C44.6856 90.8 45.1776 90.572 45.4536 90.116C45.7416 89.66 45.8856 89.066 45.8856 88.334C45.8856 87.566 45.7356 86.96 45.4356 86.516C45.1476 86.072 44.6616 85.85 43.9776 85.85C43.4736 85.85 43.0776 85.964 42.7896 86.192C42.5016 86.408 42.2916 86.702 42.1596 87.074C42.0396 87.446 41.9796 87.86 41.9796 88.316C41.9796 89.024 42.1296 89.618 42.4296 90.098C42.7296 90.566 43.2456 90.8 43.9776 90.8ZM48.7553 91.916V84.572H50.0333L50.2853 86.264H50.3213C50.3333 86.216 50.3813 86.102 50.4653 85.922C50.5493 85.742 50.6873 85.55 50.8793 85.346C51.0713 85.13 51.3293 84.944 51.6533 84.788C51.9773 84.632 52.3853 84.554 52.8773 84.554C53.5253 84.554 54.0293 84.68 54.3893 84.932C54.7493 85.172 55.0133 85.49 55.1813 85.886C55.3493 86.27 55.4513 86.678 55.4873 87.11C55.5353 87.542 55.5593 87.944 55.5593 88.316V91.916H54.1013V88.298C54.1013 87.842 54.0533 87.434 53.9573 87.074C53.8613 86.702 53.6813 86.414 53.4173 86.21C53.1653 85.994 52.7933 85.886 52.3013 85.886C51.7973 85.886 51.3953 86.006 51.0953 86.246C50.7953 86.486 50.5853 86.798 50.4653 87.182C50.3453 87.566 50.2853 87.974 50.2853 88.406V91.916H48.7553ZM58.0263 83.744C57.7023 83.756 57.4863 83.678 57.3783 83.51C57.2703 83.342 57.2163 83.132 57.2163 82.88C57.2163 82.664 57.2703 82.472 57.3783 82.304C57.4863 82.136 57.7023 82.052 58.0263 82.052C58.3383 82.052 58.5483 82.136 58.6563 82.304C58.7763 82.472 58.8363 82.664 58.8363 82.88C58.8363 83.132 58.7763 83.342 58.6563 83.51C58.5483 83.666 58.3383 83.744 58.0263 83.744ZM57.2703 91.916V84.554H58.7643V91.916H57.2703ZM63.8112 92.096C62.9832 92.096 62.3052 91.916 61.7772 91.556C61.2492 91.184 60.8592 90.71 60.6072 90.134C60.3552 89.558 60.2292 88.952 60.2292 88.316C60.2172 87.608 60.3492 86.966 60.6252 86.39C60.9132 85.814 61.3212 85.358 61.8492 85.022C62.3892 84.686 63.0312 84.518 63.7752 84.518C64.4112 84.518 64.9812 84.662 65.4852 84.95C66.0012 85.226 66.4092 85.622 66.7092 86.138C67.0092 86.642 67.1712 87.242 67.1952 87.938C67.1952 87.974 67.1952 88.046 67.1952 88.154C67.2072 88.25 67.2132 88.334 67.2132 88.406H61.6512C61.6512 89.174 61.8372 89.774 62.2092 90.206C62.5932 90.626 63.1212 90.836 63.7932 90.836C64.2972 90.836 64.7232 90.71 65.0712 90.458C65.4312 90.194 65.6532 89.846 65.7372 89.414H67.1952C67.0872 90.182 66.7392 90.824 66.1512 91.34C65.5632 91.844 64.7832 92.096 63.8112 92.096ZM61.7052 87.668H65.7012C65.6892 87.536 65.6532 87.362 65.5932 87.146C65.5332 86.93 65.4312 86.72 65.2872 86.516C65.1552 86.3 64.9632 86.12 64.7112 85.976C64.4592 85.832 64.1352 85.76 63.7392 85.76C63.2472 85.76 62.8572 85.868 62.5692 86.084C62.2932 86.288 62.0832 86.54 61.9392 86.84C61.8072 87.128 61.7292 87.404 61.7052 87.668ZM71.6597 92.096C71.1077 92.096 70.5857 91.976 70.0937 91.736C69.6137 91.496 69.2237 91.178 68.9237 90.782C68.6357 90.374 68.4917 89.936 68.4917 89.468H69.8957C69.8957 89.492 69.9017 89.582 69.9137 89.738C69.9257 89.894 69.9797 90.068 70.0757 90.26C70.1717 90.452 70.3397 90.62 70.5797 90.764C70.8317 90.908 71.1857 90.98 71.6417 90.98C72.1457 90.98 72.5537 90.89 72.8657 90.71C73.1777 90.53 73.3337 90.278 73.3337 89.954C73.3337 89.654 73.2197 89.42 72.9917 89.252C72.7637 89.084 72.4697 88.952 72.1097 88.856C71.7497 88.748 71.3657 88.646 70.9577 88.55C70.5617 88.454 70.1837 88.328 69.8237 88.172C69.4757 88.004 69.1877 87.782 68.9597 87.506C68.7437 87.218 68.6417 86.834 68.6537 86.354C68.6537 85.706 68.9237 85.208 69.4637 84.86C70.0157 84.5 70.7117 84.32 71.5517 84.32C72.0917 84.32 72.6077 84.41 73.0997 84.59C73.5917 84.758 73.9937 85.034 74.3057 85.418C74.6297 85.802 74.7857 86.318 74.7737 86.966H73.3877C73.3997 86.558 73.3037 86.252 73.0997 86.048C72.9077 85.832 72.6677 85.688 72.3797 85.616C72.0917 85.532 71.8217 85.49 71.5697 85.49C71.0897 85.49 70.7117 85.58 70.4357 85.76C70.1597 85.928 70.0217 86.156 70.0217 86.444C70.0217 86.756 70.1357 86.996 70.3637 87.164C70.5917 87.32 70.8857 87.452 71.2457 87.56C71.6057 87.656 71.9837 87.752 72.3797 87.848C72.7877 87.944 73.1717 88.07 73.5317 88.226C73.8917 88.382 74.1857 88.604 74.4137 88.892C74.6537 89.18 74.7737 89.564 74.7737 90.044C74.7737 90.752 74.4797 91.274 73.8917 91.61C73.3037 91.934 72.5597 92.096 71.6597 92.096ZM89.5467 86.84C89.5467 88.172 89.2887 89.21 88.7727 89.954C88.2567 90.686 87.5307 91.196 86.5947 91.484C85.6707 91.772 84.5847 91.916 83.3367 91.916H80.6007V81.782H83.3367C84.5847 81.782 85.6707 81.974 86.5947 82.358C87.5307 82.73 88.2567 83.288 88.7727 84.032C89.2887 84.776 89.5467 85.712 89.5467 86.84ZM82.0947 90.656H83.7327C84.5847 90.656 85.3287 90.56 85.9647 90.368C86.6007 90.164 87.0927 89.786 87.4407 89.234C87.7887 88.682 87.9627 87.878 87.9627 86.822C87.9627 85.562 87.5787 84.626 86.8107 84.014C86.0427 83.39 85.0167 83.078 83.7327 83.078H82.0947V90.656ZM94.2569 92.096C93.0329 92.096 92.1209 91.742 91.5209 91.034C90.9209 90.326 90.6209 89.426 90.6209 88.334C90.6089 87.23 90.9089 86.324 91.5209 85.616C92.1329 84.908 93.0449 84.548 94.2569 84.536C95.4329 84.536 96.3269 84.884 96.9389 85.58C97.5509 86.276 97.8569 87.194 97.8569 88.334C97.8569 89.042 97.7249 89.684 97.4609 90.26C97.2089 90.824 96.8129 91.274 96.2729 91.61C95.7449 91.934 95.0729 92.096 94.2569 92.096ZM94.2569 90.818C94.8329 90.818 95.2709 90.692 95.5709 90.44C95.8829 90.188 96.0989 89.87 96.2189 89.486C96.3389 89.09 96.3989 88.688 96.3989 88.28C96.3989 87.872 96.3389 87.476 96.2189 87.092C96.0989 86.696 95.8829 86.372 95.5709 86.12C95.2709 85.856 94.8329 85.724 94.2569 85.724C93.6689 85.724 93.2189 85.856 92.9069 86.12C92.5949 86.372 92.3789 86.696 92.2589 87.092C92.1389 87.476 92.0789 87.872 92.0789 88.28C92.0789 88.688 92.1389 89.09 92.2589 89.486C92.3789 89.87 92.5949 90.188 92.9069 90.44C93.2189 90.692 93.6689 90.818 94.2569 90.818ZM99.2221 91.916V84.572H100.5L100.752 86.264H100.788C100.8 86.216 100.848 86.102 100.932 85.922C101.016 85.742 101.154 85.55 101.346 85.346C101.538 85.13 101.796 84.944 102.12 84.788C102.444 84.632 102.852 84.554 103.344 84.554C103.992 84.554 104.496 84.68 104.856 84.932C105.216 85.172 105.48 85.49 105.648 85.886C105.816 86.27 105.918 86.678 105.954 87.11C106.002 87.542 106.026 87.944 106.026 88.316V91.916H104.568V88.298C104.568 87.842 104.52 87.434 104.424 87.074C104.328 86.702 104.148 86.414 103.884 86.21C103.632 85.994 103.26 85.886 102.768 85.886C102.264 85.886 101.862 86.006 101.562 86.246C101.262 86.486 101.052 86.798 100.932 87.182C100.812 87.566 100.752 87.974 100.752 88.406V91.916H99.2221ZM110.815 92.096C109.987 92.096 109.309 91.916 108.781 91.556C108.253 91.184 107.863 90.71 107.611 90.134C107.359 89.558 107.233 88.952 107.233 88.316C107.221 87.608 107.353 86.966 107.629 86.39C107.917 85.814 108.325 85.358 108.853 85.022C109.393 84.686 110.035 84.518 110.779 84.518C111.415 84.518 111.985 84.662 112.489 84.95C113.005 85.226 113.413 85.622 113.713 86.138C114.013 86.642 114.175 87.242 114.199 87.938C114.199 87.974 114.199 88.046 114.199 88.154C114.211 88.25 114.217 88.334 114.217 88.406H108.655C108.655 89.174 108.841 89.774 109.213 90.206C109.597 90.626 110.125 90.836 110.797 90.836C111.301 90.836 111.727 90.71 112.075 90.458C112.435 90.194 112.657 89.846 112.741 89.414H114.199C114.091 90.182 113.743 90.824 113.155 91.34C112.567 91.844 111.787 92.096 110.815 92.096ZM108.709 87.668H112.705C112.693 87.536 112.657 87.362 112.597 87.146C112.537 86.93 112.435 86.72 112.291 86.516C112.159 86.3 111.967 86.12 111.715 85.976C111.463 85.832 111.139 85.76 110.743 85.76C110.251 85.76 109.861 85.868 109.573 86.084C109.297 86.288 109.087 86.54 108.943 86.84C108.811 87.128 108.733 87.404 108.709 87.668Z" fill="#00668B"/>
<path d="M202.167 26.576L196.839 30.428V26.18L202.887 21.752H206.703V46.916H202.167V26.576ZM221.14 47.456C218.932 47.456 217.012 46.928 215.38 45.872C213.748 44.816 212.488 43.304 211.6 41.336C210.736 39.368 210.304 37.04 210.304 34.352C210.304 31.664 210.736 29.336 211.6 27.368C212.464 25.376 213.7 23.852 215.308 22.796C216.94 21.74 218.884 21.212 221.14 21.212C223.372 21.212 225.304 21.74 226.936 22.796C228.568 23.852 229.816 25.376 230.68 27.368C231.544 29.336 231.976 31.664 231.976 34.352C231.976 37.04 231.544 39.368 230.68 41.336C229.816 43.304 228.568 44.816 226.936 45.872C225.304 46.928 223.372 47.456 221.14 47.456ZM221.14 43.352C223.132 43.352 224.668 42.56 225.748 40.976C226.852 39.368 227.404 37.172 227.404 34.388C227.404 31.604 226.864 29.408 225.784 27.8C224.704 26.192 223.168 25.388 221.176 25.388C219.184 25.388 217.636 26.192 216.532 27.8C215.452 29.408 214.912 31.604 214.912 34.388C214.912 37.172 215.452 39.368 216.532 40.976C217.636 42.56 219.172 43.352 221.14 43.352ZM235.563 20.312H240.099V37.232L246.975 29.636H252.303L244.599 38.096L253.167 46.916H247.839L240.099 38.924V46.916H235.563V20.312Z" fill="#133063"/>
<path d="M198.027 91.916H196.533V81.782H198.027V86.138H203.319V81.782H204.795V91.916H203.319V87.308H198.027V91.916ZM210.015 92.096C208.791 92.096 207.879 91.742 207.279 91.034C206.679 90.326 206.379 89.426 206.379 88.334C206.367 87.23 206.667 86.324 207.279 85.616C207.891 84.908 208.803 84.548 210.015 84.536C211.191 84.536 212.085 84.884 212.697 85.58C213.309 86.276 213.615 87.194 213.615 88.334C213.615 89.042 213.483 89.684 213.219 90.26C212.967 90.824 212.571 91.274 212.031 91.61C211.503 91.934 210.831 92.096 210.015 92.096ZM210.015 90.818C210.591 90.818 211.029 90.692 211.329 90.44C211.641 90.188 211.857 89.87 211.977 89.486C212.097 89.09 212.157 88.688 212.157 88.28C212.157 87.872 212.097 87.476 211.977 87.092C211.857 86.696 211.641 86.372 211.329 86.12C211.029 85.856 210.591 85.724 210.015 85.724C209.427 85.724 208.977 85.856 208.665 86.12C208.353 86.372 208.137 86.696 208.017 87.092C207.897 87.476 207.837 87.872 207.837 88.28C207.837 88.688 207.897 89.09 208.017 89.486C208.137 89.87 208.353 90.188 208.665 90.44C208.977 90.692 209.427 90.818 210.015 90.818ZM217.626 92.096C217.002 92.096 216.504 91.982 216.132 91.754C215.772 91.514 215.502 91.202 215.322 90.818C215.154 90.434 215.04 90.026 214.98 89.594C214.932 89.162 214.908 88.742 214.908 88.334V84.554H216.384V88.334C216.384 88.766 216.426 89.168 216.51 89.54C216.594 89.912 216.762 90.212 217.014 90.44C217.278 90.656 217.674 90.764 218.202 90.764C218.706 90.764 219.096 90.65 219.372 90.422C219.648 90.194 219.84 89.9 219.948 89.54C220.068 89.18 220.134 88.802 220.146 88.406L220.164 84.554H221.694V91.916H220.416L220.164 90.386H220.128C220.08 90.542 219.966 90.758 219.786 91.034C219.606 91.298 219.342 91.544 218.994 91.772C218.646 91.988 218.19 92.096 217.626 92.096ZM226.142 92.096C225.59 92.096 225.068 91.976 224.576 91.736C224.096 91.496 223.706 91.178 223.406 90.782C223.118 90.374 222.974 89.936 222.974 89.468H224.378C224.378 89.492 224.384 89.582 224.396 89.738C224.408 89.894 224.462 90.068 224.558 90.26C224.654 90.452 224.822 90.62 225.062 90.764C225.314 90.908 225.668 90.98 226.124 90.98C226.628 90.98 227.036 90.89 227.348 90.71C227.66 90.53 227.816 90.278 227.816 89.954C227.816 89.654 227.702 89.42 227.474 89.252C227.246 89.084 226.952 88.952 226.592 88.856C226.232 88.748 225.848 88.646 225.44 88.55C225.044 88.454 224.666 88.328 224.306 88.172C223.958 88.004 223.67 87.782 223.442 87.506C223.226 87.218 223.124 86.834 223.136 86.354C223.136 85.706 223.406 85.208 223.946 84.86C224.498 84.5 225.194 84.32 226.034 84.32C226.574 84.32 227.09 84.41 227.582 84.59C228.074 84.758 228.476 85.034 228.788 85.418C229.112 85.802 229.268 86.318 229.256 86.966H227.87C227.882 86.558 227.786 86.252 227.582 86.048C227.39 85.832 227.15 85.688 226.862 85.616C226.574 85.532 226.304 85.49 226.052 85.49C225.572 85.49 225.194 85.58 224.918 85.76C224.642 85.928 224.504 86.156 224.504 86.444C224.504 86.756 224.618 86.996 224.846 87.164C225.074 87.32 225.368 87.452 225.728 87.56C226.088 87.656 226.466 87.752 226.862 87.848C227.27 87.944 227.654 88.07 228.014 88.226C228.374 88.382 228.668 88.604 228.896 88.892C229.136 89.18 229.256 89.564 229.256 90.044C229.256 90.752 228.962 91.274 228.374 91.61C227.786 91.934 227.042 92.096 226.142 92.096ZM233.885 92.096C233.057 92.096 232.379 91.916 231.851 91.556C231.323 91.184 230.933 90.71 230.681 90.134C230.429 89.558 230.303 88.952 230.303 88.316C230.291 87.608 230.423 86.966 230.699 86.39C230.987 85.814 231.395 85.358 231.923 85.022C232.463 84.686 233.105 84.518 233.849 84.518C234.485 84.518 235.055 84.662 235.559 84.95C236.075 85.226 236.483 85.622 236.783 86.138C237.083 86.642 237.245 87.242 237.269 87.938C237.269 87.974 237.269 88.046 237.269 88.154C237.281 88.25 237.287 88.334 237.287 88.406H231.725C231.725 89.174 231.911 89.774 232.283 90.206C232.667 90.626 233.195 90.836 233.867 90.836C234.371 90.836 234.797 90.71 235.145 90.458C235.505 90.194 235.727 89.846 235.811 89.414H237.269C237.161 90.182 236.813 90.824 236.225 91.34C235.637 91.844 234.857 92.096 233.885 92.096ZM231.779 87.668H235.775C235.763 87.536 235.727 87.362 235.667 87.146C235.607 86.93 235.505 86.72 235.361 86.516C235.229 86.3 235.037 86.12 234.785 85.976C234.533 85.832 234.209 85.76 233.813 85.76C233.321 85.76 232.931 85.868 232.643 86.084C232.367 86.288 232.157 86.54 232.013 86.84C231.881 87.128 231.803 87.404 231.779 87.668ZM241.734 92.096C241.182 92.096 240.66 91.976 240.168 91.736C239.688 91.496 239.298 91.178 238.998 90.782C238.71 90.374 238.566 89.936 238.566 89.468H239.97C239.97 89.492 239.976 89.582 239.988 89.738C240 89.894 240.054 90.068 240.15 90.26C240.246 90.452 240.414 90.62 240.654 90.764C240.906 90.908 241.26 90.98 241.716 90.98C242.22 90.98 242.628 90.89 242.94 90.71C243.252 90.53 243.408 90.278 243.408 89.954C243.408 89.654 243.294 89.42 243.066 89.252C242.838 89.084 242.544 88.952 242.184 88.856C241.824 88.748 241.44 88.646 241.032 88.55C240.636 88.454 240.258 88.328 239.898 88.172C239.55 88.004 239.262 87.782 239.034 87.506C238.818 87.218 238.716 86.834 238.728 86.354C238.728 85.706 238.998 85.208 239.538 84.86C240.09 84.5 240.786 84.32 241.626 84.32C242.166 84.32 242.682 84.41 243.174 84.59C243.666 84.758 244.068 85.034 244.38 85.418C244.704 85.802 244.86 86.318 244.848 86.966H243.462C243.474 86.558 243.378 86.252 243.174 86.048C242.982 85.832 242.742 85.688 242.454 85.616C242.166 85.532 241.896 85.49 241.644 85.49C241.164 85.49 240.786 85.58 240.51 85.76C240.234 85.928 240.096 86.156 240.096 86.444C240.096 86.756 240.21 86.996 240.438 87.164C240.666 87.32 240.96 87.452 241.32 87.56C241.68 87.656 242.058 87.752 242.454 87.848C242.862 87.944 243.246 88.07 243.606 88.226C243.966 88.382 244.26 88.604 244.488 88.892C244.728 89.18 244.848 89.564 244.848 90.044C244.848 90.752 244.554 91.274 243.966 91.61C243.378 91.934 242.634 92.096 241.734 92.096ZM259.621 86.84C259.621 88.172 259.363 89.21 258.847 89.954C258.331 90.686 257.605 91.196 256.669 91.484C255.745 91.772 254.659 91.916 253.411 91.916H250.675V81.782H253.411C254.659 81.782 255.745 81.974 256.669 82.358C257.605 82.73 258.331 83.288 258.847 84.032C259.363 84.776 259.621 85.712 259.621 86.84ZM252.169 90.656H253.807C254.659 90.656 255.403 90.56 256.039 90.368C256.675 90.164 257.167 89.786 257.515 89.234C257.863 88.682 258.037 87.878 258.037 86.822C258.037 85.562 257.653 84.626 256.885 84.014C256.117 83.39 255.091 83.078 253.807 83.078H252.169V90.656ZM264.331 92.096C263.107 92.096 262.195 91.742 261.595 91.034C260.995 90.326 260.695 89.426 260.695 88.334C260.683 87.23 260.983 86.324 261.595 85.616C262.207 84.908 263.119 84.548 264.331 84.536C265.507 84.536 266.401 84.884 267.013 85.58C267.625 86.276 267.931 87.194 267.931 88.334C267.931 89.042 267.799 89.684 267.535 90.26C267.283 90.824 266.887 91.274 266.347 91.61C265.819 91.934 265.147 92.096 264.331 92.096ZM264.331 90.818C264.907 90.818 265.345 90.692 265.645 90.44C265.957 90.188 266.173 89.87 266.293 89.486C266.413 89.09 266.473 88.688 266.473 88.28C266.473 87.872 266.413 87.476 266.293 87.092C266.173 86.696 265.957 86.372 265.645 86.12C265.345 85.856 264.907 85.724 264.331 85.724C263.743 85.724 263.293 85.856 262.981 86.12C262.669 86.372 262.453 86.696 262.333 87.092C262.213 87.476 262.153 87.872 262.153 88.28C262.153 88.688 262.213 89.09 262.333 89.486C262.453 89.87 262.669 90.188 262.981 90.44C263.293 90.692 263.743 90.818 264.331 90.818ZM269.296 91.916V84.572H270.574L270.826 86.264H270.862C270.874 86.216 270.922 86.102 271.006 85.922C271.09 85.742 271.228 85.55 271.42 85.346C271.612 85.13 271.87 84.944 272.194 84.788C272.518 84.632 272.926 84.554 273.418 84.554C274.066 84.554 274.57 84.68 274.93 84.932C275.29 85.172 275.554 85.49 275.722 85.886C275.89 86.27 275.992 86.678 276.028 87.11C276.076 87.542 276.1 87.944 276.1 88.316V91.916H274.642V88.298C274.642 87.842 274.594 87.434 274.498 87.074C274.402 86.702 274.222 86.414 273.958 86.21C273.706 85.994 273.334 85.886 272.842 85.886C272.338 85.886 271.936 86.006 271.636 86.246C271.336 86.486 271.126 86.798 271.006 87.182C270.886 87.566 270.826 87.974 270.826 88.406V91.916H269.296ZM280.889 92.096C280.061 92.096 279.383 91.916 278.855 91.556C278.327 91.184 277.937 90.71 277.685 90.134C277.433 89.558 277.307 88.952 277.307 88.316C277.295 87.608 277.427 86.966 277.703 86.39C277.991 85.814 278.399 85.358 278.927 85.022C279.467 84.686 280.109 84.518 280.853 84.518C281.489 84.518 282.059 84.662 282.563 84.95C283.079 85.226 283.487 85.622 283.787 86.138C284.087 86.642 284.249 87.242 284.273 87.938C284.273 87.974 284.273 88.046 284.273 88.154C284.285 88.25 284.291 88.334 284.291 88.406H278.729C278.729 89.174 278.915 89.774 279.287 90.206C279.671 90.626 280.199 90.836 280.871 90.836C281.375 90.836 281.801 90.71 282.149 90.458C282.509 90.194 282.731 89.846 282.815 89.414H284.273C284.165 90.182 283.817 90.824 283.229 91.34C282.641 91.844 281.861 92.096 280.889 92.096ZM278.783 87.668H282.779C282.767 87.536 282.731 87.362 282.671 87.146C282.611 86.93 282.509 86.72 282.365 86.516C282.233 86.3 282.041 86.12 281.789 85.976C281.537 85.832 281.213 85.76 280.817 85.76C280.325 85.76 279.935 85.868 279.647 86.084C279.371 86.288 279.161 86.54 279.017 86.84C278.885 87.128 278.807 87.404 278.783 87.668Z" fill="#00668B"/>
<path d="M366.839 43.964L371.807 39.392L374.183 37.268C375.503 36.116 376.499 35.192 377.171 34.496C377.867 33.8 378.431 33.056 378.863 32.264C379.295 31.448 379.511 30.572 379.511 29.636C379.511 28.268 379.103 27.224 378.287 26.504C377.495 25.76 376.355 25.388 374.867 25.388C373.715 25.388 372.515 25.604 371.267 26.036C370.043 26.444 368.927 27.032 367.919 27.8V23.444C370.007 21.956 372.575 21.212 375.623 21.212C378.311 21.212 380.399 21.932 381.887 23.372C383.375 24.812 384.119 26.78 384.119 29.276C384.119 30.452 383.891 31.556 383.435 32.588C382.979 33.596 382.331 34.58 381.491 35.54C380.651 36.5 379.511 37.64 378.071 38.96L373.571 43.136H385.019V46.916H366.839V43.964ZM398.734 47.456C396.526 47.456 394.606 46.928 392.974 45.872C391.342 44.816 390.082 43.304 389.194 41.336C388.33 39.368 387.898 37.04 387.898 34.352C387.898 31.664 388.33 29.336 389.194 27.368C390.058 25.376 391.294 23.852 392.902 22.796C394.534 21.74 396.478 21.212 398.734 21.212C400.966 21.212 402.898 21.74 404.53 22.796C406.162 23.852 407.41 25.376 408.274 27.368C409.138 29.336 409.57 31.664 409.57 34.352C409.57 37.04 409.138 39.368 408.274 41.336C407.41 43.304 406.162 44.816 404.53 45.872C402.898 46.928 400.966 47.456 398.734 47.456ZM398.734 43.352C400.726 43.352 402.262 42.56 403.342 40.976C404.446 39.368 404.998 37.172 404.998 34.388C404.998 31.604 404.458 29.408 403.378 27.8C402.298 26.192 400.762 25.388 398.77 25.388C396.778 25.388 395.23 26.192 394.126 27.8C393.046 29.408 392.506 31.604 392.506 34.388C392.506 37.172 393.046 39.368 394.126 40.976C395.23 42.56 396.766 43.352 398.734 43.352Z" fill="#133063"/>
<path d="M365.741 91.916L369.143 81.782H371.609L375.083 91.916H373.481L372.509 88.892H368.297L367.325 91.916H365.741ZM370.403 82.412L368.693 87.704H372.113L370.403 82.412ZM377.292 91.916L375.456 84.824V84.536H376.914L378.354 90.656H378.39L380.118 84.536H381.432L383.214 90.656H383.25L384.672 84.536H386.13V84.824L384.276 91.916H382.17L380.802 87.128H380.766L379.416 91.916H377.292ZM389.768 92.078C389.084 92.078 388.532 91.922 388.112 91.61C387.692 91.286 387.38 90.842 387.176 90.278C386.984 89.702 386.888 89.048 386.888 88.316C386.888 87.2 387.116 86.288 387.572 85.58C388.028 84.86 388.76 84.5 389.768 84.5C390.308 84.5 390.746 84.596 391.082 84.788C391.418 84.98 391.676 85.196 391.856 85.436C392.048 85.676 392.18 85.886 392.252 86.066H392.288V84.554H393.818V91.916H392.54L392.288 90.602H392.252C392.18 90.782 392.048 90.992 391.856 91.232C391.664 91.46 391.4 91.658 391.064 91.826C390.728 91.994 390.296 92.078 389.768 92.078ZM390.362 90.8C391.07 90.8 391.562 90.572 391.838 90.116C392.126 89.66 392.27 89.066 392.27 88.334C392.27 87.566 392.12 86.96 391.82 86.516C391.532 86.072 391.046 85.85 390.362 85.85C389.858 85.85 389.462 85.964 389.174 86.192C388.886 86.408 388.676 86.702 388.544 87.074C388.424 87.446 388.364 87.86 388.364 88.316C388.364 89.024 388.514 89.618 388.814 90.098C389.114 90.566 389.63 90.8 390.362 90.8ZM395.266 91.916V84.554H396.652L396.778 86.552C396.85 86.228 396.988 85.916 397.192 85.616C397.408 85.304 397.702 85.052 398.074 84.86C398.458 84.656 398.944 84.554 399.532 84.554H399.838V86.21H399.514C398.782 86.21 398.218 86.306 397.822 86.498C397.426 86.678 397.15 86.948 396.994 87.308C396.838 87.656 396.76 88.088 396.76 88.604V91.916H395.266ZM404.058 92.096C402.978 92.096 402.186 91.748 401.682 91.052C401.178 90.344 400.926 89.444 400.926 88.352C400.926 87.224 401.178 86.312 401.682 85.616C402.198 84.908 402.99 84.554 404.058 84.554C404.538 84.554 404.94 84.632 405.264 84.788C405.588 84.944 405.846 85.13 406.038 85.346C406.242 85.562 406.386 85.76 406.47 85.94C406.566 86.12 406.62 86.234 406.632 86.282H406.668L406.686 81.782H408.216V91.916H406.92L406.686 90.44H406.65C406.626 90.488 406.56 90.602 406.452 90.782C406.356 90.95 406.206 91.136 406.002 91.34C405.81 91.544 405.552 91.724 405.228 91.88C404.904 92.024 404.514 92.096 404.058 92.096ZM404.49 90.8C405.186 90.8 405.72 90.578 406.092 90.134C406.464 89.678 406.65 89.078 406.65 88.334C406.65 87.614 406.47 87.032 406.11 86.588C405.762 86.132 405.246 85.904 404.562 85.904C404.034 85.904 403.608 86.024 403.284 86.264C402.972 86.492 402.744 86.792 402.6 87.164C402.468 87.536 402.402 87.926 402.402 88.334C402.402 88.754 402.462 89.156 402.582 89.54C402.714 89.912 402.93 90.218 403.23 90.458C403.542 90.686 403.962 90.8 404.49 90.8ZM412.753 92.096C412.201 92.096 411.679 91.976 411.187 91.736C410.707 91.496 410.317 91.178 410.017 90.782C409.729 90.374 409.585 89.936 409.585 89.468H410.989C410.989 89.492 410.995 89.582 411.007 89.738C411.019 89.894 411.073 90.068 411.169 90.26C411.265 90.452 411.433 90.62 411.673 90.764C411.925 90.908 412.279 90.98 412.735 90.98C413.239 90.98 413.647 90.89 413.959 90.71C414.271 90.53 414.427 90.278 414.427 89.954C414.427 89.654 414.313 89.42 414.085 89.252C413.857 89.084 413.563 88.952 413.203 88.856C412.843 88.748 412.459 88.646 412.051 88.55C411.655 88.454 411.277 88.328 410.917 88.172C410.569 88.004 410.281 87.782 410.053 87.506C409.837 87.218 409.735 86.834 409.747 86.354C409.747 85.706 410.017 85.208 410.557 84.86C411.109 84.5 411.805 84.32 412.645 84.32C413.185 84.32 413.701 84.41 414.193 84.59C414.685 84.758 415.087 85.034 415.399 85.418C415.723 85.802 415.879 86.318 415.867 86.966H414.481C414.493 86.558 414.397 86.252 414.193 86.048C414.001 85.832 413.761 85.688 413.473 85.616C413.185 85.532 412.915 85.49 412.663 85.49C412.183 85.49 411.805 85.58 411.529 85.76C411.253 85.928 411.115 86.156 411.115 86.444C411.115 86.756 411.229 86.996 411.457 87.164C411.685 87.32 411.979 87.452 412.339 87.56C412.699 87.656 413.077 87.752 413.473 87.848C413.881 87.944 414.265 88.07 414.625 88.226C414.985 88.382 415.279 88.604 415.507 88.892C415.747 89.18 415.867 89.564 415.867 90.044C415.867 90.752 415.573 91.274 414.985 91.61C414.397 91.934 413.653 92.096 412.753 92.096ZM425.762 92.132C424.778 92.132 423.92 91.928 423.188 91.52C422.468 91.112 421.91 90.524 421.514 89.756C421.118 88.976 420.926 88.022 420.938 86.894C420.95 85.766 421.166 84.812 421.586 84.032C422.018 83.24 422.612 82.64 423.368 82.232C424.124 81.812 425.006 81.602 426.014 81.602C427.334 81.602 428.378 81.902 429.146 82.502C429.914 83.09 430.418 83.954 430.658 85.094L429.218 85.292C429.026 84.476 428.636 83.894 428.048 83.546C427.46 83.186 426.782 83.006 426.014 83.006C424.79 83.006 423.884 83.348 423.296 84.032C422.72 84.704 422.42 85.628 422.396 86.804C422.396 88.04 422.72 89 423.368 89.684C424.028 90.356 424.952 90.692 426.14 90.692C426.956 90.692 427.664 90.488 428.264 90.08C428.864 89.66 429.236 89.018 429.38 88.154H426.878V87.02H430.856V91.916H429.83L429.488 89.918H429.452C429.332 90.23 429.122 90.56 428.822 90.908C428.534 91.244 428.132 91.532 427.616 91.772C427.112 92.012 426.494 92.132 425.762 92.132ZM435.702 92.096C434.478 92.096 433.566 91.742 432.966 91.034C432.366 90.326 432.066 89.426 432.066 88.334C432.054 87.23 432.354 86.324 432.966 85.616C433.578 84.908 434.49 84.548 435.702 84.536C436.878 84.536 437.772 84.884 438.384 85.58C438.996 86.276 439.302 87.194 439.302 88.334C439.302 89.042 439.17 89.684 438.906 90.26C438.654 90.824 438.258 91.274 437.718 91.61C437.19 91.934 436.518 92.096 435.702 92.096ZM435.702 90.818C436.278 90.818 436.716 90.692 437.016 90.44C437.328 90.188 437.544 89.87 437.664 89.486C437.784 89.09 437.844 88.688 437.844 88.28C437.844 87.872 437.784 87.476 437.664 87.092C437.544 86.696 437.328 86.372 437.016 86.12C436.716 85.856 436.278 85.724 435.702 85.724C435.114 85.724 434.664 85.856 434.352 86.12C434.04 86.372 433.824 86.696 433.704 87.092C433.584 87.476 433.524 87.872 433.524 88.28C433.524 88.688 433.584 89.09 433.704 89.486C433.824 89.87 434.04 90.188 434.352 90.44C434.664 90.692 435.114 90.818 435.702 90.818ZM442.791 91.916C442.275 91.916 441.897 91.784 441.657 91.52C441.429 91.256 441.315 90.854 441.315 90.314V85.634H440.181V84.554C440.553 84.554 440.829 84.524 441.009 84.464C441.201 84.392 441.327 84.224 441.387 83.96C441.459 83.684 441.495 83.252 441.495 82.664H442.737V84.554H444.429V85.634H442.737V90.728H444.447V91.916H442.791ZM448.03 91.916C447.514 91.916 447.136 91.784 446.896 91.52C446.668 91.256 446.554 90.854 446.554 90.314V85.634H445.42V84.554C445.792 84.554 446.068 84.524 446.248 84.464C446.44 84.392 446.566 84.224 446.626 83.96C446.698 83.684 446.734 83.252 446.734 82.664H447.976V84.554H449.668V85.634H447.976V90.728H449.686V91.916H448.03ZM454.352 92.096C453.524 92.096 452.846 91.916 452.318 91.556C451.79 91.184 451.4 90.71 451.148 90.134C450.896 89.558 450.77 88.952 450.77 88.316C450.758 87.608 450.89 86.966 451.166 86.39C451.454 85.814 451.862 85.358 452.39 85.022C452.93 84.686 453.572 84.518 454.316 84.518C454.952 84.518 455.522 84.662 456.026 84.95C456.542 85.226 456.95 85.622 457.25 86.138C457.55 86.642 457.712 87.242 457.736 87.938C457.736 87.974 457.736 88.046 457.736 88.154C457.748 88.25 457.754 88.334 457.754 88.406H452.192C452.192 89.174 452.378 89.774 452.75 90.206C453.134 90.626 453.662 90.836 454.334 90.836C454.838 90.836 455.264 90.71 455.612 90.458C455.972 90.194 456.194 89.846 456.278 89.414H457.736C457.628 90.182 457.28 90.824 456.692 91.34C456.104 91.844 455.324 92.096 454.352 92.096ZM452.246 87.668H456.242C456.23 87.536 456.194 87.362 456.134 87.146C456.074 86.93 455.972 86.72 455.828 86.516C455.696 86.3 455.504 86.12 455.252 85.976C455 85.832 454.676 85.76 454.28 85.76C453.788 85.76 453.398 85.868 453.11 86.084C452.834 86.288 452.624 86.54 452.48 86.84C452.348 87.128 452.27 87.404 452.246 87.668ZM459.195 91.916V84.572H460.473L460.725 86.264H460.761C460.773 86.216 460.821 86.102 460.905 85.922C460.989 85.742 461.127 85.55 461.319 85.346C461.511 85.13 461.769 84.944 462.093 84.788C462.417 84.632 462.825 84.554 463.317 84.554C463.965 84.554 464.469 84.68 464.829 84.932C465.189 85.172 465.453 85.49 465.621 85.886C465.789 86.27 465.891 86.678 465.927 87.11C465.975 87.542 465.999 87.944 465.999 88.316V91.916H464.541V88.298C464.541 87.842 464.493 87.434 464.397 87.074C464.301 86.702 464.121 86.414 463.857 86.21C463.605 85.994 463.233 85.886 462.741 85.886C462.237 85.886 461.835 86.006 461.535 86.246C461.235 86.486 461.025 86.798 460.905 87.182C460.785 87.566 460.725 87.974 460.725 88.406V91.916H459.195Z" fill="#00668B"/>
</svg>
