<svg width="1235" height="276" viewBox="0 0 1235 276" fill="none" xmlns="http://www.w3.org/2000/svg">
<path d="M365.376 23.3614C364.232 23.3614 363.191 23.1267 362.252 22.6574C361.328 22.1734 360.595 21.462 360.052 20.5234C359.524 19.57 359.26 18.3894 359.26 16.9814C359.275 15.588 359.546 14.4147 360.074 13.4614C360.602 12.4934 361.328 11.7674 362.252 11.2834C363.191 10.7847 364.262 10.5354 365.464 10.5354C367.063 10.5354 368.354 10.9607 369.336 11.8114C370.319 12.662 370.928 13.7767 371.162 15.1554H369.27C369.153 14.4514 368.896 13.8867 368.5 13.4614C368.119 13.036 367.657 12.728 367.114 12.5374C366.586 12.3467 366.036 12.2514 365.464 12.2514C364.071 12.2514 362.993 12.6547 362.23 13.4614C361.468 14.2534 361.086 15.39 361.086 16.8714C361.086 18.426 361.46 19.614 362.208 20.4354C362.956 21.242 364.02 21.6454 365.398 21.6454C366.352 21.6454 367.202 21.418 367.95 20.9634C368.698 20.494 369.16 19.7387 369.336 18.6974H371.25C371.001 20.076 370.385 21.198 369.402 22.0634C368.42 22.9287 367.078 23.3614 365.376 23.3614ZM382.88 23.4494C380.9 23.4494 379.39 22.87 378.348 21.7114C377.307 20.538 376.786 18.9614 376.786 16.9814C376.786 15.676 377.006 14.5467 377.446 13.5934C377.901 12.6254 378.576 11.8774 379.47 11.3494C380.38 10.8067 381.516 10.5354 382.88 10.5354C384.86 10.5354 386.364 11.122 387.39 12.2954C388.432 13.454 388.952 15.016 388.952 16.9814C388.952 18.2574 388.718 19.3867 388.248 20.3694C387.794 21.3374 387.112 22.0927 386.202 22.6354C385.308 23.178 384.2 23.4494 382.88 23.4494ZM382.858 21.6894C384.281 21.6894 385.352 21.2494 386.07 20.3694C386.789 19.4894 387.148 18.36 387.148 16.9814C387.148 15.6027 386.789 14.4734 386.07 13.5934C385.366 12.6987 384.296 12.2514 382.858 12.2514C381.45 12.2514 380.38 12.6767 379.646 13.5274C378.928 14.378 378.568 15.5294 378.568 16.9814C378.568 17.8907 378.722 18.7047 379.03 19.4234C379.338 20.1274 379.808 20.6847 380.438 21.0954C381.084 21.4914 381.89 21.6894 382.858 21.6894ZM395.407 23.1414V10.7554H398.575L402.051 22.3274H402.095L405.505 10.7554H408.673V23.1414H406.803L406.913 11.6134H406.869L403.393 23.1414H400.687L397.233 11.6134H397.189L397.277 23.1414H395.407ZM415.62 23.1414V10.7554H418.788L422.264 22.3274H422.308L425.718 10.7554H428.886V23.1414H427.016L427.126 11.6134H427.082L423.606 23.1414H420.9L417.446 11.6134H417.402L417.49 23.1414H415.62ZM441.024 21.5574V23.1414H435.854V21.5574H437.548V12.3394H435.854V10.7554H441.024V12.3394H439.352V21.5574H441.024ZM447.104 12.3394V10.7554H456.564V12.3394H452.758V23.1414H450.932V12.3394H447.104ZM462.289 12.3394V10.7554H471.749V12.3394H467.943V23.1414H466.117V12.3394H462.289ZM479.753 21.6454H486.749V23.1414H477.949V10.7554H486.529V12.3394H479.753V16.1014H485.033V17.6194H479.753V21.6454ZM504.288 16.9374C504.288 18.5654 503.972 19.834 503.342 20.7434C502.711 21.638 501.824 22.2614 500.68 22.6134C499.55 22.9654 498.223 23.1414 496.698 23.1414H493.354V10.7554H496.698C498.223 10.7554 499.55 10.99 500.68 11.4594C501.824 11.914 502.711 12.596 503.342 13.5054C503.972 14.4147 504.288 15.5587 504.288 16.9374ZM495.18 21.6014H497.182C498.223 21.6014 499.132 21.484 499.91 21.2494C500.687 21 501.288 20.538 501.714 19.8634C502.139 19.1887 502.352 18.206 502.352 16.9154C502.352 15.3754 501.882 14.2314 500.944 13.4834C500.005 12.7207 498.751 12.3394 497.182 12.3394H495.18V21.6014ZM519.077 12.3394V10.7554H528.537V12.3394H524.731V23.1414H522.905V12.3394H519.077ZM539.845 23.4494C537.865 23.4494 536.355 22.87 535.313 21.7114C534.272 20.538 533.751 18.9614 533.751 16.9814C533.751 15.676 533.971 14.5467 534.411 13.5934C534.866 12.6254 535.541 11.8774 536.435 11.3494C537.345 10.8067 538.481 10.5354 539.845 10.5354C541.825 10.5354 543.329 11.122 544.355 12.2954C545.397 13.454 545.917 15.016 545.917 16.9814C545.917 18.2574 545.683 19.3867 545.213 20.3694C544.759 21.3374 544.077 22.0927 543.167 22.6354C542.273 23.178 541.165 23.4494 539.845 23.4494ZM539.823 21.6894C541.246 21.6894 542.317 21.2494 543.035 20.3694C543.754 19.4894 544.113 18.36 544.113 16.9814C544.113 15.6027 543.754 14.4734 543.035 13.5934C542.331 12.6987 541.261 12.2514 539.823 12.2514C538.415 12.2514 537.345 12.6767 536.611 13.5274C535.893 14.378 535.533 15.5294 535.533 16.9814C535.533 17.8907 535.687 18.7047 535.995 19.4234C536.303 20.1274 536.773 20.6847 537.403 21.0954C538.049 21.4914 538.855 21.6894 539.823 21.6894ZM563.714 23.1414H561.888V10.7554H563.714V16.0794H570.182V10.7554H571.986V23.1414H570.182V17.5094H563.714V23.1414ZM584.239 21.5574V23.1414H579.069V21.5574H580.763V12.3394H579.069V10.7554H584.239V12.3394H582.567V21.5574H584.239ZM596.501 23.4054C595.298 23.4054 594.249 23.156 593.355 22.6574C592.475 22.1587 591.793 21.44 591.309 20.5014C590.825 19.548 590.59 18.382 590.605 17.0034C590.619 15.6247 590.883 14.4587 591.397 13.5054C591.925 12.5374 592.651 11.804 593.575 11.3054C594.499 10.792 595.577 10.5354 596.809 10.5354C598.422 10.5354 599.698 10.902 600.637 11.6354C601.575 12.354 602.191 13.41 602.485 14.8034L600.725 15.0454C600.49 14.048 600.013 13.3367 599.295 12.9114C598.576 12.4714 597.747 12.2514 596.809 12.2514C595.313 12.2514 594.205 12.6694 593.487 13.5054C592.783 14.3267 592.416 15.456 592.387 16.8934C592.387 18.404 592.783 19.5774 593.575 20.4134C594.381 21.2347 595.511 21.6454 596.963 21.6454C597.96 21.6454 598.825 21.396 599.559 20.8974C600.292 20.384 600.747 19.5994 600.923 18.5434H597.865V17.1574H602.727V23.1414H601.473L601.055 20.6994H601.011C600.864 21.0807 600.607 21.484 600.241 21.9094C599.889 22.32 599.397 22.672 598.767 22.9654C598.151 23.2587 597.395 23.4054 596.501 23.4054ZM611.267 23.1414H609.441V10.7554H611.267V16.0794H617.735V10.7554H619.539V23.1414H617.735V17.5094H611.267V23.1414ZM626.204 18.8514V17.5314H631.088V18.8514H626.204ZM645.045 25.8034C644.722 25.8034 644.392 25.7594 644.055 25.6714C643.732 25.5834 643.454 25.3707 643.219 25.0334C642.984 24.696 642.852 24.1607 642.823 23.4274C641.078 23.266 639.743 22.6134 638.819 21.4694C637.91 20.3254 637.455 18.8294 637.455 16.9814C637.455 15.6907 637.675 14.5614 638.115 13.5934C638.57 12.6254 639.252 11.8774 640.161 11.3494C641.07 10.8067 642.207 10.5354 643.571 10.5354C644.891 10.5354 645.998 10.7994 646.893 11.3274C647.802 11.8554 648.484 12.6034 648.939 13.5714C649.408 14.5394 649.643 15.6687 649.643 16.9594C649.643 18.7194 649.21 20.186 648.345 21.3594C647.48 22.518 646.211 23.1927 644.539 23.3834C644.554 23.706 644.612 23.948 644.715 24.1094C644.832 24.2854 645.104 24.3734 645.529 24.3734C645.661 24.3734 645.83 24.3294 646.035 24.2414C646.255 24.1534 646.438 24.1094 646.585 24.1094L646.651 25.4954C646.622 25.4954 646.497 25.5174 646.277 25.5614C646.057 25.62 645.822 25.6714 645.573 25.7154C645.324 25.774 645.148 25.8034 645.045 25.8034ZM643.549 21.6454C644.957 21.6454 646.013 21.22 646.717 20.3694C647.436 19.5187 647.795 18.3674 647.795 16.9154C647.795 15.4927 647.443 14.3487 646.739 13.4834C646.035 12.618 644.972 12.1854 643.549 12.1854C642.156 12.1854 641.1 12.6034 640.381 13.4394C639.662 14.2607 639.303 15.4194 639.303 16.9154C639.303 18.3527 639.648 19.504 640.337 20.3694C641.041 21.22 642.112 21.6454 643.549 21.6454ZM661.152 23.4494C659.451 23.4494 658.145 22.9654 657.236 21.9974C656.341 21.0147 655.894 19.636 655.894 17.8614V10.7554H657.808V17.8394C657.808 18.7927 657.962 19.5554 658.27 20.1274C658.578 20.6847 658.981 21.088 659.48 21.3374C659.993 21.5867 660.551 21.7114 661.152 21.7114C661.812 21.7114 662.391 21.594 662.89 21.3594C663.403 21.11 663.799 20.7067 664.078 20.1494C664.371 19.5774 664.518 18.8074 664.518 17.8394V10.7554H666.432V17.8614C666.432 19.6654 665.985 21.0514 665.09 22.0194C664.21 22.9727 662.897 23.4494 661.152 23.4494ZM672.437 23.1414L676.595 10.7554H679.609L683.855 23.1414H681.897L680.709 19.4454H675.561L674.373 23.1414H672.437ZM678.135 11.5254L676.045 17.9934H680.225L678.135 11.5254ZM690.03 23.1414V10.7554H691.856V21.5574H698.346V23.1414H690.03ZM709.781 21.5574V23.1414H704.611V21.5574H706.305V12.3394H704.611V10.7554H709.781V12.3394H708.109V21.5574H709.781ZM715.861 12.3394V10.7554H725.321V12.3394H721.515V23.1414H719.689V12.3394H715.861ZM734.933 23.1414V18.6974L730.709 10.7554H732.755L735.879 17.0474L738.981 10.7554H741.027L736.759 18.6754V23.1414H734.933ZM760.563 23.4054C759.669 23.4054 758.811 23.266 757.989 22.9874C757.168 22.694 756.493 22.2394 755.965 21.6234C755.452 20.9927 755.188 20.1787 755.173 19.1814H757.021C757.021 19.24 757.043 19.4087 757.087 19.6874C757.146 19.9514 757.285 20.2447 757.505 20.5674C757.74 20.8754 758.107 21.1467 758.605 21.3814C759.104 21.616 759.801 21.7334 760.695 21.7334C761.414 21.7334 761.979 21.6307 762.389 21.4254C762.815 21.22 763.108 20.978 763.269 20.6994C763.445 20.4207 763.541 20.1714 763.555 19.9514C763.555 19.4967 763.409 19.13 763.115 18.8514C762.837 18.5727 762.455 18.3527 761.971 18.1914C761.487 18.0154 760.952 17.8614 760.365 17.7294C759.793 17.5827 759.221 17.4287 758.649 17.2674C758.077 17.0914 757.549 16.864 757.065 16.5854C756.596 16.3067 756.222 15.9474 755.943 15.5074C755.679 15.0527 755.569 14.4734 755.613 13.7694C755.657 12.7574 756.134 11.9654 757.043 11.3934C757.967 10.8214 759.155 10.5354 760.607 10.5354C761.458 10.5354 762.25 10.6894 762.983 10.9974C763.717 11.3054 764.303 11.7674 764.743 12.3834C765.183 12.9994 765.403 13.7694 765.403 14.6934H763.621C763.621 14.18 763.511 13.7694 763.291 13.4614C763.071 13.1387 762.793 12.8894 762.455 12.7134C762.118 12.5374 761.766 12.42 761.399 12.3614C761.033 12.288 760.703 12.2514 760.409 12.2514C759.573 12.2514 758.884 12.4054 758.341 12.7134C757.813 13.0214 757.549 13.4394 757.549 13.9674C757.535 14.4367 757.674 14.8107 757.967 15.0894C758.261 15.368 758.649 15.588 759.133 15.7494C759.617 15.9107 760.145 16.0574 760.717 16.1894C761.304 16.3214 761.883 16.468 762.455 16.6294C763.042 16.7907 763.57 17.0107 764.039 17.2894C764.523 17.5534 764.897 17.92 765.161 18.3894C765.44 18.844 765.565 19.4234 765.535 20.1274C765.491 20.8167 765.249 21.4107 764.809 21.9094C764.384 22.3934 763.805 22.7674 763.071 23.0314C762.338 23.2807 761.502 23.4054 760.563 23.4054ZM773.852 21.6454H780.848V23.1414H772.048V10.7554H780.628V12.3394H773.852V16.1014H779.132V17.6194H773.852V21.6454ZM787.321 23.1414V10.7554H791.655C793.239 10.7554 794.464 11.0194 795.329 11.5474C796.209 12.0607 796.649 12.992 796.649 14.3414C796.649 15.28 796.407 16.0647 795.923 16.6954C795.454 17.326 794.743 17.6414 793.789 17.6414C794.361 17.6414 794.787 17.766 795.065 18.0154C795.344 18.2647 795.535 18.58 795.637 18.9614C795.74 19.328 795.806 19.7094 795.835 20.1054C795.865 20.5014 795.909 20.8607 795.967 21.1834C796.026 21.506 796.143 21.7407 796.319 21.8874C796.495 22.0194 796.796 22.0047 797.221 21.8434V22.9434C797.016 23.1194 796.745 23.2367 796.407 23.2954C796.085 23.3687 795.762 23.3467 795.439 23.2294C795.117 23.1267 794.838 22.9067 794.603 22.5694C794.383 22.2174 794.273 21.7114 794.273 21.0514C794.273 20.274 794.229 19.6654 794.141 19.2254C794.053 18.7854 793.848 18.4627 793.525 18.2574C793.203 18.052 792.697 17.9347 792.007 17.9054C791.318 17.8614 790.372 17.8614 789.169 17.9054V23.1414H787.321ZM789.169 16.5414H791.721C792.469 16.5414 793.085 16.4974 793.569 16.4094C794.053 16.3067 794.413 16.1087 794.647 15.8154C794.897 15.522 795.021 15.0747 795.021 14.4734C795.021 13.784 794.875 13.2854 794.581 12.9774C794.288 12.6694 793.855 12.4787 793.283 12.4054C792.726 12.3174 792.044 12.2734 791.237 12.2734H789.169V16.5414ZM811.939 10.7554H813.941L809.717 23.1414H806.659L802.435 10.7554H804.415L808.177 22.3274L811.939 10.7554ZM825.246 21.5574V23.1414H820.076V21.5574H821.77V12.3394H820.076V10.7554H825.246V12.3394H823.574V21.5574H825.246ZM837.706 23.3614C836.562 23.3614 835.521 23.1267 834.582 22.6574C833.658 22.1734 832.925 21.462 832.382 20.5234C831.854 19.57 831.59 18.3894 831.59 16.9814C831.605 15.588 831.876 14.4147 832.404 13.4614C832.932 12.4934 833.658 11.7674 834.582 11.2834C835.521 10.7847 836.591 10.5354 837.794 10.5354C839.393 10.5354 840.683 10.9607 841.666 11.8114C842.649 12.662 843.257 13.7767 843.492 15.1554H841.6C841.483 14.4514 841.226 13.8867 840.83 13.4614C840.449 13.036 839.987 12.728 839.444 12.5374C838.916 12.3467 838.366 12.2514 837.794 12.2514C836.401 12.2514 835.323 12.6547 834.56 13.4614C833.797 14.2534 833.416 15.39 833.416 16.8714C833.416 18.426 833.79 19.614 834.538 20.4354C835.286 21.242 836.349 21.6454 837.728 21.6454C838.681 21.6454 839.532 21.418 840.28 20.9634C841.028 20.494 841.49 19.7387 841.666 18.6974H843.58C843.331 20.076 842.715 21.198 841.732 22.0634C840.749 22.9287 839.407 23.3614 837.706 23.3614ZM851.69 21.6454H858.686V23.1414H849.886V10.7554H858.466V12.3394H851.69V16.1014H856.97V17.6194H851.69V21.6454ZM869.867 23.4054C868.973 23.4054 868.115 23.266 867.293 22.9874C866.472 22.694 865.797 22.2394 865.269 21.6234C864.756 20.9927 864.492 20.1787 864.477 19.1814H866.325C866.325 19.24 866.347 19.4087 866.391 19.6874C866.45 19.9514 866.589 20.2447 866.809 20.5674C867.044 20.8754 867.411 21.1467 867.909 21.3814C868.408 21.616 869.105 21.7334 869.999 21.7334C870.718 21.7334 871.283 21.6307 871.693 21.4254C872.119 21.22 872.412 20.978 872.573 20.6994C872.749 20.4207 872.845 20.1714 872.859 19.9514C872.859 19.4967 872.713 19.13 872.419 18.8514C872.141 18.5727 871.759 18.3527 871.275 18.1914C870.791 18.0154 870.256 17.8614 869.669 17.7294C869.097 17.5827 868.525 17.4287 867.953 17.2674C867.381 17.0914 866.853 16.864 866.369 16.5854C865.9 16.3067 865.526 15.9474 865.247 15.5074C864.983 15.0527 864.873 14.4734 864.917 13.7694C864.961 12.7574 865.438 11.9654 866.347 11.3934C867.271 10.8214 868.459 10.5354 869.911 10.5354C870.762 10.5354 871.554 10.6894 872.287 10.9974C873.021 11.3054 873.607 11.7674 874.047 12.3834C874.487 12.9994 874.707 13.7694 874.707 14.6934H872.925C872.925 14.18 872.815 13.7694 872.595 13.4614C872.375 13.1387 872.097 12.8894 871.759 12.7134C871.422 12.5374 871.07 12.42 870.703 12.3614C870.337 12.288 870.007 12.2514 869.713 12.2514C868.877 12.2514 868.188 12.4054 867.645 12.7134C867.117 13.0214 866.853 13.4394 866.853 13.9674C866.839 14.4367 866.978 14.8107 867.271 15.0894C867.565 15.368 867.953 15.588 868.437 15.7494C868.921 15.9107 869.449 16.0574 870.021 16.1894C870.608 16.3214 871.187 16.468 871.759 16.6294C872.346 16.7907 872.874 17.0107 873.343 17.2894C873.827 17.5534 874.201 17.92 874.465 18.3894C874.744 18.844 874.869 19.4234 874.839 20.1274C874.795 20.8167 874.553 21.4107 874.113 21.9094C873.688 22.3934 873.109 22.7674 872.375 23.0314C871.642 23.2807 870.806 23.4054 869.867 23.4054Z" fill="url(#paint0_linear_9_952)"/>
<path d="M213.948 90.1414V49.6054H222.588V67.7494L238.86 49.6054H250.164V50.4694L234.684 65.5894L251.028 89.2774V90.1414H241.092L228.42 71.7094L222.588 77.3974V90.1414H213.948ZM264.191 83.1574H286.223V90.1414H255.695V49.6054H285.503V57.0214H264.191V66.0934H280.319V73.1494H264.191V83.1574ZM301.034 83.1574H323.066V90.1414H292.538V49.6054H322.346V57.0214H301.034V66.0934H317.162V73.1494H301.034V83.1574ZM338.166 90.1414H329.454V49.6054H346.158C350.718 49.6054 354.294 50.7814 356.886 53.1334C359.478 55.4374 360.774 58.8934 360.774 63.5014C360.774 67.5334 359.43 70.7014 356.742 73.0054C354.102 75.2614 350.574 76.3894 346.158 76.3894H338.166V90.1414ZM344.934 56.6614H338.166V70.1974H344.934C347.238 70.1974 349.134 69.6454 350.622 68.5414C352.158 67.3894 352.926 65.6854 352.926 63.4294C352.926 61.1254 352.182 59.4214 350.694 58.3174C349.206 57.2134 347.286 56.6614 344.934 56.6614ZM388.92 90.1414V76.0294L375.096 49.6054H384.888L393.384 68.5414L401.952 49.6054H411.672L397.56 75.9574V90.1414H388.92ZM431.332 91.1494C424.708 91.1494 419.644 89.2534 416.14 85.4614C412.636 81.6214 410.884 76.4614 410.884 69.9814C410.884 65.7094 411.628 62.0134 413.116 58.8934C414.652 55.7254 416.932 53.2774 419.956 51.5494C422.98 49.7734 426.772 48.8854 431.332 48.8854C438.004 48.8854 443.068 50.8054 446.524 54.6454C449.98 58.4374 451.708 63.5494 451.708 69.9814C451.708 74.1574 450.94 77.8534 449.404 81.0694C447.868 84.2374 445.588 86.7094 442.564 88.4854C439.54 90.2614 435.796 91.1494 431.332 91.1494ZM431.26 82.7254C433.9 82.7254 436.108 82.1734 437.884 81.0694C439.66 79.9174 440.98 78.3814 441.844 76.4614C442.708 74.5414 443.14 72.3814 443.14 69.9814C443.14 67.5814 442.708 65.3974 441.844 63.4294C440.98 61.4614 439.66 59.9014 437.884 58.7494C436.108 57.5974 433.9 57.0214 431.26 57.0214C427.372 57.0214 424.42 58.2454 422.404 60.6934C420.388 63.0934 419.38 66.1894 419.38 69.9814C419.38 72.3334 419.812 74.4694 420.676 76.3894C421.54 78.3094 422.836 79.8454 424.564 80.9974C426.34 82.1494 428.572 82.7254 431.26 82.7254ZM476.479 91.1494C470.575 91.1494 466.087 89.5654 463.015 86.3974C459.991 83.1814 458.479 78.6694 458.479 72.8614V49.6054H467.767V72.7894C467.767 75.6214 468.223 77.7574 469.135 79.1974C470.095 80.6374 471.247 81.6214 472.591 82.1494C473.935 82.6294 475.231 82.8694 476.479 82.8694C477.919 82.8694 479.311 82.6294 480.655 82.1494C481.999 81.6214 483.103 80.6374 483.967 79.1974C484.831 77.7574 485.263 75.6214 485.263 72.7894V49.6054H494.551V72.8614C494.551 78.7654 493.039 83.3014 490.015 86.4694C487.039 89.5894 482.527 91.1494 476.479 91.1494ZM502.001 90.1414V49.6054H517.697C522.977 49.6054 527.105 50.5174 530.081 52.3414C533.105 54.1174 534.617 57.2374 534.617 61.7014C534.617 65.1574 533.801 67.8934 532.169 69.9094C530.585 71.9254 528.377 72.9334 525.545 72.9334C527.033 72.9334 528.161 73.2934 528.929 74.0134C529.697 74.6854 530.225 75.5254 530.513 76.5334C530.849 77.5414 531.089 78.5974 531.233 79.7014C531.425 80.7574 531.665 81.7174 531.953 82.5814C532.241 83.3974 532.721 83.9734 533.393 84.3094C534.113 84.5974 535.169 84.4534 536.561 83.8774V88.7014C535.457 89.6614 534.185 90.2854 532.745 90.5734C531.305 90.9094 529.913 90.8374 528.569 90.3574C527.225 89.8774 526.097 88.9414 525.185 87.5494C524.321 86.1094 523.889 84.1414 523.889 81.6454C523.889 80.0134 523.769 78.6454 523.529 77.5414C523.337 76.4374 522.833 75.5734 522.017 74.9494C521.201 74.3254 519.905 73.9174 518.129 73.7254C516.353 73.5334 513.881 73.5334 510.713 73.7254V90.1414H502.001ZM510.713 67.5334H516.905C519.161 67.5334 521.009 67.4614 522.449 67.3174C523.937 67.1734 525.041 66.7654 525.761 66.0934C526.481 65.3734 526.841 64.1494 526.841 62.4214C526.841 60.4534 526.409 59.0854 525.545 58.3174C524.681 57.5014 523.385 57.0214 521.657 56.8774C519.977 56.7334 517.913 56.6614 515.465 56.6614H510.713V67.5334ZM566.613 90.1414H557.901V49.6054H566.613V66.3094H584.037V49.6054H592.677V90.1414H584.037V72.9334H566.613V90.1414ZM618.223 91.1494C611.599 91.1494 606.535 89.2534 603.031 85.4614C599.527 81.6214 597.775 76.4614 597.775 69.9814C597.775 65.7094 598.519 62.0134 600.007 58.8934C601.543 55.7254 603.823 53.2774 606.847 51.5494C609.871 49.7734 613.663 48.8854 618.223 48.8854C624.895 48.8854 629.959 50.8054 633.415 54.6454C636.871 58.4374 638.599 63.5494 638.599 69.9814C638.599 74.1574 637.831 77.8534 636.295 81.0694C634.759 84.2374 632.479 86.7094 629.455 88.4854C626.431 90.2614 622.687 91.1494 618.223 91.1494ZM618.151 82.7254C620.791 82.7254 622.999 82.1734 624.775 81.0694C626.551 79.9174 627.871 78.3814 628.735 76.4614C629.599 74.5414 630.031 72.3814 630.031 69.9814C630.031 67.5814 629.599 65.3974 628.735 63.4294C627.871 61.4614 626.551 59.9014 624.775 58.7494C622.999 57.5974 620.791 57.0214 618.151 57.0214C614.263 57.0214 611.311 58.2454 609.295 60.6934C607.279 63.0934 606.271 66.1894 606.271 69.9814C606.271 72.3334 606.703 74.4694 607.567 76.3894C608.431 78.3094 609.727 79.8454 611.455 80.9974C613.231 82.1494 615.463 82.7254 618.151 82.7254ZM645.167 90.1414V49.6054H660.287L668.063 86.4694H668.207L675.839 49.6054H690.887V90.1414H681.887L682.535 53.3494H682.391L674.399 90.1414H661.727L653.807 53.3494H653.663L654.167 90.1414H645.167ZM707.159 83.1574H729.191V90.1414H698.663V49.6054H728.471V57.0214H707.159V66.0934H723.287V73.1494H707.159V83.1574ZM733.563 90.1414L751.851 49.6054H759.987L741.699 90.1414H733.563ZM782.332 91.1494C775.708 91.1494 770.644 89.2534 767.14 85.4614C763.636 81.6214 761.884 76.4614 761.884 69.9814C761.884 65.7094 762.628 62.0134 764.116 58.8934C765.652 55.7254 767.932 53.2774 770.956 51.5494C773.98 49.7734 777.772 48.8854 782.332 48.8854C789.004 48.8854 794.068 50.8054 797.524 54.6454C800.98 58.4374 802.708 63.5494 802.708 69.9814C802.708 74.1574 801.94 77.8534 800.404 81.0694C798.868 84.2374 796.588 86.7094 793.564 88.4854C790.54 90.2614 786.796 91.1494 782.332 91.1494ZM782.26 82.7254C784.9 82.7254 787.108 82.1734 788.884 81.0694C790.66 79.9174 791.98 78.3814 792.844 76.4614C793.708 74.5414 794.14 72.3814 794.14 69.9814C794.14 67.5814 793.708 65.3974 792.844 63.4294C791.98 61.4614 790.66 59.9014 788.884 58.7494C787.108 57.5974 784.9 57.0214 782.26 57.0214C778.372 57.0214 775.42 58.2454 773.404 60.6934C771.388 63.0934 770.38 66.1894 770.38 69.9814C770.38 72.3334 770.812 74.4694 771.676 76.3894C772.54 78.3094 773.836 79.8454 775.564 80.9974C777.34 82.1494 779.572 82.7254 782.26 82.7254ZM818.061 90.1414H809.565V49.6054H838.797V57.0214H818.061V65.5174H833.685V72.5014H818.061V90.1414ZM852.584 90.1414H844.088V49.6054H873.32V57.0214H852.584V65.5174H868.208V72.5014H852.584V90.1414ZM898.748 82.7254V90.1414H879.524V82.7254H884.852V57.0214H879.524V49.6054H898.748V57.0214H893.492V82.7254H898.748ZM925.421 90.8614C921.581 90.8614 918.101 90.0934 914.981 88.5574C911.861 86.9734 909.389 84.6454 907.565 81.5734C905.741 78.5014 904.853 74.6854 904.901 70.1254C904.901 65.6134 905.813 61.7734 907.637 58.6054C909.461 55.4374 911.933 53.0374 915.053 51.4054C918.173 49.7254 921.701 48.8854 925.637 48.8854C929.525 48.8854 932.837 49.5814 935.573 50.9734C938.309 52.3654 940.445 54.2374 941.981 56.5894C943.565 58.9414 944.597 61.5334 945.077 64.3654H936.077C935.789 62.3494 935.069 60.8374 933.917 59.8294C932.765 58.7734 931.421 58.0534 929.885 57.6694C928.397 57.2854 926.981 57.0934 925.637 57.0934C921.653 57.0934 918.629 58.1734 916.565 60.3334C914.501 62.4934 913.469 65.5414 913.469 69.4774C913.469 73.7014 914.453 76.9654 916.421 79.2694C918.437 81.5734 921.485 82.7254 925.565 82.7254C926.957 82.7254 928.421 82.5094 929.957 82.0774C931.493 81.6454 932.837 80.8774 933.989 79.7734C935.189 78.6214 935.933 77.0374 936.221 75.0214H945.293C944.765 77.9494 943.709 80.6134 942.125 83.0134C940.541 85.3654 938.357 87.2614 935.573 88.7014C932.789 90.1414 929.405 90.8614 925.421 90.8614ZM959.511 83.1574H981.543V90.1414H951.015V49.6054H980.823V57.0214H959.511V66.0934H975.639V73.1494H959.511V83.1574ZM1004.2 90.9334C1001.95 90.9334 999.739 90.6694 997.579 90.1414C995.419 89.6134 993.451 88.7734 991.675 87.6214C989.899 86.4694 988.483 84.9814 987.427 83.1574C986.419 81.3334 985.915 79.1254 985.915 76.5334H994.627C994.627 76.7734 994.723 77.2534 994.915 77.9734C995.107 78.6454 995.539 79.3894 996.211 80.2054C996.883 80.9734 997.915 81.6454 999.307 82.2214C1000.7 82.7494 1002.55 83.0134 1004.85 83.0134C1006.96 83.0134 1008.69 82.6774 1010.03 82.0054C1011.43 81.2854 1012.15 80.2534 1012.19 78.9094C1012.19 77.7574 1011.71 76.8454 1010.75 76.1734C1009.84 75.5014 1008.62 74.9494 1007.08 74.5174C1005.55 74.0374 1003.84 73.6054 1001.97 73.2214C1000.15 72.8374 998.323 72.3574 996.499 71.7814C994.723 71.2054 993.091 70.4374 991.603 69.4774C990.115 68.5174 988.939 67.2934 988.075 65.8054C987.259 64.2694 986.923 62.3254 987.067 59.9734C987.307 56.5174 988.963 53.8054 992.035 51.8374C995.107 49.8694 999.283 48.8854 1004.56 48.8854C1007.49 48.8854 1010.23 49.4134 1012.77 50.4694C1015.31 51.4774 1017.38 53.0374 1018.96 55.1494C1020.55 57.2614 1021.34 59.9254 1021.34 63.1414H1012.91C1012.91 61.4134 1012.39 60.1174 1011.33 59.2534C1010.27 58.3894 1009 57.8134 1007.51 57.5254C1006.07 57.1894 1004.78 57.0214 1003.63 57.0214C1001.51 57.0214 999.763 57.3574 998.371 58.0294C997.027 58.6534 996.355 59.6614 996.355 61.0534C996.355 62.2534 996.811 63.2134 997.723 63.9334C998.683 64.6534 999.955 65.2294 1001.54 65.6614C1003.12 66.0934 1004.83 66.5014 1006.65 66.8854C1008.52 67.2214 1010.37 67.6534 1012.19 68.1814C1014.07 68.7094 1015.75 69.4534 1017.23 70.4134C1018.72 71.3254 1019.9 72.5494 1020.76 74.0854C1021.63 75.5734 1021.99 77.5174 1021.84 79.9174C1021.6 83.3734 1019.87 86.0854 1016.66 88.0534C1013.44 89.9734 1009.29 90.9334 1004.2 90.9334ZM28.9017 175.861C25.0617 175.861 21.5817 175.093 18.4617 173.557C15.3417 171.973 12.8697 169.645 11.0457 166.573C9.22171 163.501 8.33371 159.685 8.38171 155.125C8.38171 150.613 9.29371 146.773 11.1177 143.605C12.9417 140.437 15.4137 138.037 18.5337 136.405C21.6537 134.725 25.1817 133.885 29.1177 133.885C33.0057 133.885 36.3177 134.581 39.0537 135.973C41.7897 137.365 43.9257 139.237 45.4617 141.589C47.0457 143.941 48.0777 146.533 48.5577 149.365H39.5577C39.2697 147.349 38.5497 145.837 37.3977 144.829C36.2457 143.773 34.9017 143.053 33.3657 142.669C31.8777 142.285 30.4617 142.093 29.1177 142.093C25.1337 142.093 22.1097 143.173 20.0457 145.333C17.9817 147.493 16.9497 150.541 16.9497 154.477C16.9497 158.701 17.9337 161.965 19.9017 164.269C21.9177 166.573 24.9657 167.725 29.0457 167.725C30.4377 167.725 31.9017 167.509 33.4377 167.077C34.9737 166.645 36.3177 165.877 37.4697 164.773C38.6697 163.621 39.4137 162.037 39.7017 160.021H48.7737C48.2457 162.949 47.1897 165.613 45.6057 168.013C44.0217 170.365 41.8377 172.261 39.0537 173.701C36.2697 175.141 32.8857 175.861 28.9017 175.861ZM55.2155 175.141V134.605H63.9275V167.725H82.6475V175.141H55.2155ZM96.9524 168.157H118.984V175.141H88.4564V134.605H118.264V142.021H96.9524V151.093H113.08V158.149H96.9524V168.157ZM122.852 175.141L135.164 134.605H149.492L162.164 175.141H152.876L149.852 164.341H135.164L132.212 175.141H122.852ZM142.508 138.205L137.036 157.645H147.98L142.508 138.205ZM194.643 134.605H203.715V175.141H187.083L176.355 138.421H176.211V175.141H167.211V134.605H182.619L194.499 171.325H194.643V134.605ZM265.43 175.357C263.702 174.589 262.046 173.821 260.462 173.053C258.926 172.237 257.414 171.373 255.926 170.461C253.766 172.237 251.366 173.581 248.726 174.493C246.086 175.357 243.446 175.765 240.806 175.717C238.166 175.717 235.742 175.261 233.534 174.349C231.326 173.437 229.55 172.093 228.206 170.317C226.862 168.493 226.19 166.237 226.19 163.549C226.19 161.485 226.598 159.781 227.414 158.437C228.23 157.093 229.19 156.037 230.294 155.269C231.446 154.453 232.478 153.853 233.39 153.469C234.35 153.085 234.95 152.845 235.19 152.749C235.046 152.557 234.59 152.077 233.822 151.309C233.102 150.493 232.406 149.437 231.734 148.141C231.062 146.797 230.726 145.213 230.726 143.389C230.726 141.373 231.278 139.669 232.382 138.277C233.486 136.885 234.926 135.829 236.702 135.109C238.526 134.389 240.422 134.005 242.39 133.957C244.406 133.909 246.302 134.221 248.078 134.893C249.854 135.565 251.294 136.597 252.398 137.989C253.55 139.381 254.126 141.133 254.126 143.245C254.126 144.973 253.718 146.485 252.902 147.781C252.134 149.077 251.222 150.157 250.166 151.021C249.11 151.885 248.174 152.557 247.358 153.037C246.542 153.469 246.086 153.709 245.99 153.757C246.23 154.093 246.95 154.861 248.15 156.061C249.35 157.213 250.91 158.581 252.83 160.165C253.022 159.925 253.31 159.397 253.694 158.581C254.126 157.765 254.366 156.877 254.414 155.917C254.462 154.909 253.982 153.973 252.974 153.109L260.318 148.429C260.462 148.573 260.798 149.149 261.326 150.157C261.902 151.165 262.382 152.461 262.766 154.045C263.198 155.581 263.294 157.309 263.054 159.229C262.862 161.101 262.046 162.997 260.606 164.917C261.614 165.541 262.718 166.189 263.918 166.861C265.166 167.533 266.75 168.253 268.67 169.021L265.43 175.357ZM241.166 149.725C242.318 149.101 243.494 148.357 244.694 147.493C245.894 146.581 246.566 145.597 246.71 144.541C246.854 143.293 246.518 142.333 245.702 141.661C244.886 140.989 243.902 140.629 242.75 140.581C241.646 140.485 240.638 140.749 239.726 141.373C238.862 141.997 238.454 142.957 238.502 144.253C238.55 145.981 239.438 147.805 241.166 149.725ZM249.158 165.493C247.286 164.053 245.606 162.637 244.118 161.245C242.678 159.853 241.262 158.365 239.87 156.781C238.574 157.405 237.374 158.125 236.27 158.941C235.214 159.757 234.686 160.957 234.686 162.541C234.686 164.077 235.19 165.325 236.198 166.285C237.206 167.197 238.478 167.821 240.014 168.157C241.598 168.445 243.206 168.373 244.838 167.941C246.47 167.509 247.91 166.693 249.158 165.493ZM297.422 175.141H288.71V134.605H297.422V151.309H314.846V134.605H323.486V175.141H314.846V157.933H297.422V175.141ZM342.197 175.141V161.029L328.373 134.605H338.165L346.661 153.541L355.229 134.605H364.949L350.837 160.957V175.141H342.197ZM383.889 175.933C379.905 175.933 376.425 175.141 373.449 173.557C370.473 171.973 368.169 169.645 366.537 166.573C364.953 163.453 364.209 159.637 364.305 155.125C364.401 150.517 365.361 146.653 367.185 143.533C369.009 140.365 371.457 137.965 374.529 136.333C377.649 134.701 381.225 133.885 385.257 133.885C390.969 133.885 395.337 135.085 398.361 137.485C401.385 139.885 403.425 143.365 404.481 147.925L396.057 149.221C395.625 147.397 394.833 145.957 393.681 144.901C392.577 143.845 391.281 143.101 389.793 142.669C388.305 142.237 386.793 142.021 385.257 142.021C380.937 142.021 377.793 143.173 375.825 145.477C373.905 147.781 372.921 150.781 372.873 154.477C372.873 158.701 374.025 161.917 376.329 164.125C378.681 166.333 382.017 167.437 386.337 167.437C388.641 167.437 390.825 166.957 392.889 165.997C395.001 165.037 396.441 163.333 397.209 160.885H389.505V154.621H405.273V175.141H399.441L397.497 169.021H397.353C396.537 170.749 395.001 172.333 392.745 173.773C390.489 175.213 387.537 175.933 383.889 175.933ZM431.979 167.725V175.141H412.755V167.725H418.083V142.021H412.755V134.605H431.979V142.021H426.723V167.725H431.979ZM449.148 168.157H471.18V175.141H440.652V134.605H470.46V142.021H449.148V151.093H465.276V158.149H449.148V168.157ZM505.143 134.605H514.215V175.141H497.583L486.855 138.421H486.711V175.141H477.711V134.605H493.119L504.999 171.325H505.143V134.605ZM541.947 167.725V175.141H522.723V167.725H528.051V142.021H522.723V134.605H541.947V142.021H536.691V167.725H541.947ZM568.62 175.861C564.78 175.861 561.3 175.093 558.18 173.557C555.06 171.973 552.588 169.645 550.764 166.573C548.94 163.501 548.052 159.685 548.1 155.125C548.1 150.613 549.012 146.773 550.836 143.605C552.66 140.437 555.132 138.037 558.252 136.405C561.372 134.725 564.9 133.885 568.836 133.885C572.724 133.885 576.036 134.581 578.772 135.973C581.508 137.365 583.644 139.237 585.18 141.589C586.764 143.941 587.796 146.533 588.276 149.365H579.276C578.988 147.349 578.268 145.837 577.116 144.829C575.964 143.773 574.62 143.053 573.084 142.669C571.596 142.285 570.18 142.093 568.836 142.093C564.852 142.093 561.828 143.173 559.764 145.333C557.7 147.493 556.668 150.541 556.668 154.477C556.668 158.701 557.652 161.965 559.62 164.269C561.636 166.573 564.684 167.725 568.764 167.725C570.156 167.725 571.62 167.509 573.156 167.077C574.692 166.645 576.036 165.877 577.188 164.773C578.388 163.621 579.132 162.037 579.42 160.021H588.492C587.964 162.949 586.908 165.613 585.324 168.013C583.74 170.365 581.556 172.261 578.772 173.701C575.988 175.141 572.604 175.861 568.62 175.861ZM653.253 134.605H662.469L653.901 175.141H639.933L634.677 145.621L629.565 175.141H615.597L606.741 134.605H615.957L622.581 171.541L629.997 134.749L629.925 134.605H639.285L646.917 171.541L653.253 134.605ZM687.564 167.725V175.141H668.34V167.725H673.668V142.021H668.34V134.605H687.564V142.021H682.308V167.725H687.564ZM693.214 142.021V134.605H724.894V142.021H713.374V175.141H704.662V142.021H693.214ZM739.055 175.141H730.343V134.605H739.055V151.309H756.479V134.605H765.119V175.141H756.479V157.933H739.055V175.141ZM796.351 168.157H818.383V175.141H787.855V134.605H817.663V142.021H796.351V151.093H812.479V158.149H796.351V168.157ZM842.699 175.861C838.859 175.861 835.379 175.093 832.259 173.557C829.139 171.973 826.667 169.645 824.843 166.573C823.019 163.501 822.131 159.685 822.179 155.125C822.179 150.613 823.091 146.773 824.915 143.605C826.739 140.437 829.211 138.037 832.331 136.405C835.451 134.725 838.979 133.885 842.915 133.885C846.803 133.885 850.115 134.581 852.851 135.973C855.587 137.365 857.723 139.237 859.259 141.589C860.843 143.941 861.875 146.533 862.355 149.365H853.355C853.067 147.349 852.347 145.837 851.195 144.829C850.043 143.773 848.699 143.053 847.163 142.669C845.675 142.285 844.259 142.093 842.915 142.093C838.931 142.093 835.907 143.173 833.843 145.333C831.779 147.493 830.747 150.541 830.747 154.477C830.747 158.701 831.731 161.965 833.699 164.269C835.715 166.573 838.763 167.725 842.843 167.725C844.235 167.725 845.699 167.509 847.235 167.077C848.771 166.645 850.115 165.877 851.267 164.773C852.467 163.621 853.211 162.037 853.499 160.021H862.571C862.043 162.949 860.987 165.613 859.403 168.013C857.819 170.365 855.635 172.261 852.851 173.701C850.067 175.141 846.683 175.861 842.699 175.861ZM886.148 176.149C879.524 176.149 874.46 174.253 870.956 170.461C867.452 166.621 865.7 161.461 865.7 154.981C865.7 150.709 866.444 147.013 867.932 143.893C869.468 140.725 871.748 138.277 874.772 136.549C877.796 134.773 881.588 133.885 886.148 133.885C892.82 133.885 897.884 135.805 901.34 139.645C904.796 143.437 906.524 148.549 906.524 154.981C906.524 159.157 905.756 162.853 904.22 166.069C902.684 169.237 900.404 171.709 897.38 173.485C894.356 175.261 890.612 176.149 886.148 176.149ZM886.076 167.725C888.716 167.725 890.924 167.173 892.7 166.069C894.476 164.917 895.796 163.381 896.66 161.461C897.524 159.541 897.956 157.381 897.956 154.981C897.956 152.581 897.524 150.397 896.66 148.429C895.796 146.461 894.476 144.901 892.7 143.749C890.924 142.597 888.716 142.021 886.076 142.021C882.188 142.021 879.236 143.245 877.22 145.693C875.204 148.093 874.196 151.189 874.196 154.981C874.196 157.333 874.628 159.469 875.492 161.389C876.356 163.309 877.652 164.845 879.38 165.997C881.156 167.149 883.388 167.725 886.076 167.725ZM911.725 161.893V155.989H927.709V161.893H911.725ZM944.729 175.141H936.233V134.605H965.465V142.021H944.729V150.517H960.353V157.501H944.729V175.141ZM971.021 175.141V134.605H986.717C991.997 134.605 996.125 135.517 999.101 137.341C1002.12 139.117 1003.64 142.237 1003.64 146.701C1003.64 150.157 1002.82 152.893 1001.19 154.909C999.605 156.925 997.397 157.933 994.565 157.933C996.053 157.933 997.181 158.293 997.949 159.013C998.717 159.685 999.245 160.525 999.533 161.533C999.869 162.541 1000.11 163.597 1000.25 164.701C1000.44 165.757 1000.68 166.717 1000.97 167.581C1001.26 168.397 1001.74 168.973 1002.41 169.309C1003.13 169.597 1004.19 169.453 1005.58 168.877V173.701C1004.48 174.661 1003.2 175.285 1001.76 175.573C1000.32 175.909 998.933 175.837 997.589 175.357C996.245 174.877 995.117 173.941 994.205 172.549C993.341 171.109 992.909 169.141 992.909 166.645C992.909 165.013 992.789 163.645 992.549 162.541C992.357 161.437 991.853 160.573 991.037 159.949C990.221 159.325 988.925 158.917 987.149 158.725C985.373 158.533 982.901 158.533 979.733 158.725V175.141H971.021ZM979.733 152.533H985.925C988.181 152.533 990.029 152.461 991.469 152.317C992.957 152.173 994.061 151.765 994.781 151.093C995.501 150.373 995.861 149.149 995.861 147.421C995.861 145.453 995.429 144.085 994.565 143.317C993.701 142.501 992.405 142.021 990.677 141.877C988.997 141.733 986.933 141.661 984.485 141.661H979.733V152.533ZM1031.67 167.725V175.141H1012.45V167.725H1017.78V142.021H1012.45V134.605H1031.67V142.021H1026.42V167.725H1031.67ZM1048.84 168.157H1070.88V175.141H1040.35V134.605H1070.16V142.021H1048.84V151.093H1064.97V158.149H1048.84V168.157ZM1104.84 134.605H1113.91V175.141H1097.28L1086.55 138.421H1086.41V175.141H1077.41V134.605H1092.81L1104.69 171.325H1104.84V134.605ZM1159.5 154.837C1159.5 160.165 1158.44 164.317 1156.33 167.293C1154.22 170.221 1151.22 172.261 1147.33 173.413C1143.49 174.565 1138.98 175.141 1133.79 175.141H1122.42V134.605H1133.79C1138.98 134.605 1143.49 135.373 1147.33 136.909C1151.22 138.397 1154.22 140.629 1156.33 143.605C1158.44 146.581 1159.5 150.325 1159.5 154.837ZM1130.99 168.013H1136.39C1139.22 168.013 1141.67 167.677 1143.73 167.005C1145.84 166.285 1147.45 164.989 1148.55 163.117C1149.71 161.197 1150.28 158.413 1150.28 154.765C1150.28 150.541 1149.03 147.373 1146.54 145.261C1144.04 143.149 1140.66 142.093 1136.39 142.093H1130.99V168.013ZM1166.79 175.141V134.605H1175.5V167.725H1194.22V175.141H1166.79ZM1206.55 175.141V161.029L1192.72 134.605H1202.52L1211.01 153.541L1219.58 134.605H1229.3L1215.19 160.957V175.141H1206.55ZM294.367 260.861C290.527 260.861 287.047 260.093 283.927 258.557C280.807 256.973 278.335 254.645 276.511 251.573C274.687 248.501 273.799 244.685 273.847 240.125C273.847 235.613 274.759 231.773 276.583 228.605C278.407 225.437 280.879 223.037 283.999 221.405C287.119 219.725 290.647 218.885 294.583 218.885C298.471 218.885 301.783 219.581 304.519 220.973C307.255 222.365 309.391 224.237 310.927 226.589C312.511 228.941 313.543 231.533 314.023 234.365H305.023C304.735 232.349 304.015 230.837 302.863 229.829C301.711 228.773 300.367 228.053 298.831 227.669C297.343 227.285 295.927 227.093 294.583 227.093C290.599 227.093 287.575 228.173 285.511 230.333C283.447 232.493 282.415 235.541 282.415 239.477C282.415 243.701 283.399 246.965 285.367 249.269C287.383 251.573 290.431 252.725 294.511 252.725C295.903 252.725 297.367 252.509 298.903 252.077C300.439 251.645 301.783 250.877 302.935 249.773C304.135 248.621 304.879 247.037 305.167 245.021H314.239C313.711 247.949 312.655 250.613 311.071 253.013C309.487 255.365 307.303 257.261 304.519 258.701C301.735 260.141 298.351 260.861 294.367 260.861ZM320.68 260.141V219.605H329.392V252.725H348.112V260.141H320.68ZM362.417 253.157H384.449V260.141H353.921V219.605H383.729V227.021H362.417V236.093H378.545V243.149H362.417V253.157ZM388.317 260.141L400.629 219.605H414.957L427.629 260.141H418.341L415.317 249.341H400.629L397.677 260.141H388.317ZM407.973 223.205L402.501 242.645H413.445L407.973 223.205ZM460.108 219.605H469.18V260.141H452.548L441.82 223.421H441.676V260.141H432.676V219.605H448.084L459.964 256.325H460.108V219.605ZM496.912 252.725V260.141H477.688V252.725H483.016V227.021H477.688V219.605H496.912V227.021H491.656V252.725H496.912ZM533.233 219.605H542.305V260.141H525.673L514.945 223.421H514.801V260.141H505.801V219.605H521.209L533.089 256.325H533.233V219.605ZM567.229 260.933C563.245 260.933 559.765 260.141 556.789 258.557C553.813 256.973 551.509 254.645 549.877 251.573C548.293 248.453 547.549 244.637 547.645 240.125C547.741 235.517 548.701 231.653 550.525 228.533C552.349 225.365 554.797 222.965 557.869 221.333C560.989 219.701 564.565 218.885 568.597 218.885C574.309 218.885 578.677 220.085 581.701 222.485C584.725 224.885 586.765 228.365 587.821 232.925L579.397 234.221C578.965 232.397 578.173 230.957 577.021 229.901C575.917 228.845 574.621 228.101 573.133 227.669C571.645 227.237 570.133 227.021 568.597 227.021C564.277 227.021 561.133 228.173 559.165 230.477C557.245 232.781 556.261 235.781 556.213 239.477C556.213 243.701 557.365 246.917 559.669 249.125C562.021 251.333 565.357 252.437 569.677 252.437C571.981 252.437 574.165 251.957 576.229 250.997C578.341 250.037 579.781 248.333 580.549 245.885H572.845V239.621H588.613V260.141H582.781L580.837 254.021H580.693C579.877 255.749 578.341 257.333 576.085 258.773C573.829 260.213 570.877 260.933 567.229 260.933ZM626.765 260.933C624.509 260.933 622.301 260.669 620.141 260.141C617.981 259.613 616.013 258.773 614.237 257.621C612.461 256.469 611.045 254.981 609.989 253.157C608.981 251.333 608.477 249.125 608.477 246.533H617.189C617.189 246.773 617.285 247.253 617.477 247.973C617.669 248.645 618.101 249.389 618.773 250.205C619.445 250.973 620.477 251.645 621.869 252.221C623.261 252.749 625.109 253.013 627.413 253.013C629.525 253.013 631.253 252.677 632.597 252.005C633.989 251.285 634.709 250.253 634.757 248.909C634.757 247.757 634.277 246.845 633.317 246.173C632.405 245.501 631.181 244.949 629.645 244.517C628.109 244.037 626.405 243.605 624.533 243.221C622.709 242.837 620.885 242.357 619.061 241.781C617.285 241.205 615.653 240.437 614.165 239.477C612.677 238.517 611.501 237.293 610.637 235.805C609.821 234.269 609.485 232.325 609.629 229.973C609.869 226.517 611.525 223.805 614.597 221.837C617.669 219.869 621.845 218.885 627.125 218.885C630.053 218.885 632.789 219.413 635.333 220.469C637.877 221.477 639.941 223.037 641.525 225.149C643.109 227.261 643.901 229.925 643.901 233.141H635.477C635.477 231.413 634.949 230.117 633.893 229.253C632.837 228.389 631.565 227.813 630.077 227.525C628.637 227.189 627.341 227.021 626.189 227.021C624.077 227.021 622.325 227.357 620.933 228.029C619.589 228.653 618.917 229.661 618.917 231.053C618.917 232.253 619.373 233.213 620.285 233.933C621.245 234.653 622.517 235.229 624.101 235.661C625.685 236.093 627.389 236.501 629.213 236.885C631.085 237.221 632.933 237.653 634.757 238.181C636.629 238.709 638.309 239.453 639.797 240.413C641.285 241.325 642.461 242.549 643.325 244.085C644.189 245.573 644.549 247.517 644.405 249.917C644.165 253.373 642.437 256.085 639.221 258.053C636.005 259.973 631.853 260.933 626.765 260.933ZM669.269 261.149C662.645 261.149 657.581 259.253 654.077 255.461C650.573 251.621 648.821 246.461 648.821 239.981C648.821 235.709 649.565 232.013 651.053 228.893C652.589 225.725 654.869 223.277 657.893 221.549C660.917 219.773 664.709 218.885 669.269 218.885C675.941 218.885 681.005 220.805 684.461 224.645C687.917 228.437 689.645 233.549 689.645 239.981C689.645 244.157 688.877 247.853 687.341 251.069C685.805 254.237 683.525 256.709 680.501 258.485C677.477 260.261 673.733 261.149 669.269 261.149ZM669.197 252.725C671.837 252.725 674.045 252.173 675.821 251.069C677.597 249.917 678.917 248.381 679.781 246.461C680.645 244.541 681.077 242.381 681.077 239.981C681.077 237.581 680.645 235.397 679.781 233.429C678.917 231.461 677.597 229.901 675.821 228.749C674.045 227.597 671.837 227.021 669.197 227.021C665.309 227.021 662.357 228.245 660.341 230.693C658.325 233.093 657.317 236.189 657.317 239.981C657.317 242.333 657.749 244.469 658.613 246.389C659.477 248.309 660.773 249.845 662.501 250.997C664.277 252.149 666.509 252.725 669.197 252.725ZM696.43 260.141V219.605H705.142V252.725H723.862V260.141H696.43ZM747.815 261.149C741.911 261.149 737.423 259.565 734.351 256.397C731.327 253.181 729.815 248.669 729.815 242.861V219.605H739.103V242.789C739.103 245.621 739.559 247.757 740.471 249.197C741.431 250.637 742.583 251.621 743.927 252.149C745.271 252.629 746.567 252.869 747.815 252.869C749.255 252.869 750.647 252.629 751.991 252.149C753.335 251.621 754.439 250.637 755.303 249.197C756.167 247.757 756.599 245.621 756.599 242.789V219.605H765.887V242.861C765.887 248.765 764.375 253.301 761.351 256.469C758.375 259.589 753.863 261.149 747.815 261.149ZM770.241 227.021V219.605H801.921V227.021H790.401V260.141H781.689V227.021H770.241ZM827.17 252.725V260.141H807.946V252.725H813.274V227.021H807.946V219.605H827.17V227.021H821.914V252.725H827.17ZM853.699 261.149C847.075 261.149 842.011 259.253 838.507 255.461C835.003 251.621 833.251 246.461 833.251 239.981C833.251 235.709 833.995 232.013 835.483 228.893C837.019 225.725 839.299 223.277 842.323 221.549C845.347 219.773 849.139 218.885 853.699 218.885C860.371 218.885 865.435 220.805 868.891 224.645C872.347 228.437 874.075 233.549 874.075 239.981C874.075 244.157 873.307 247.853 871.771 251.069C870.235 254.237 867.955 256.709 864.931 258.485C861.907 260.261 858.163 261.149 853.699 261.149ZM853.627 252.725C856.267 252.725 858.475 252.173 860.251 251.069C862.027 249.917 863.347 248.381 864.211 246.461C865.075 244.541 865.507 242.381 865.507 239.981C865.507 237.581 865.075 235.397 864.211 233.429C863.347 231.461 862.027 229.901 860.251 228.749C858.475 227.597 856.267 227.021 853.627 227.021C849.739 227.021 846.787 228.245 844.771 230.693C842.755 233.093 841.747 236.189 841.747 239.981C841.747 242.333 842.179 244.469 843.043 246.389C843.907 248.309 845.203 249.845 846.931 250.997C848.707 252.149 850.939 252.725 853.627 252.725ZM907.788 219.605H916.86V260.141H900.228L889.5 223.421H889.356V260.141H880.356V219.605H895.764L907.644 256.325H907.788V219.605ZM940.992 260.933C938.736 260.933 936.528 260.669 934.368 260.141C932.208 259.613 930.24 258.773 928.464 257.621C926.688 256.469 925.272 254.981 924.216 253.157C923.208 251.333 922.704 249.125 922.704 246.533H931.416C931.416 246.773 931.512 247.253 931.704 247.973C931.896 248.645 932.328 249.389 933 250.205C933.672 250.973 934.704 251.645 936.096 252.221C937.488 252.749 939.336 253.013 941.64 253.013C943.752 253.013 945.48 252.677 946.824 252.005C948.216 251.285 948.936 250.253 948.984 248.909C948.984 247.757 948.504 246.845 947.544 246.173C946.632 245.501 945.408 244.949 943.872 244.517C942.336 244.037 940.632 243.605 938.76 243.221C936.936 242.837 935.112 242.357 933.288 241.781C931.512 241.205 929.88 240.437 928.392 239.477C926.904 238.517 925.728 237.293 924.864 235.805C924.048 234.269 923.712 232.325 923.856 229.973C924.096 226.517 925.752 223.805 928.824 221.837C931.896 219.869 936.072 218.885 941.352 218.885C944.28 218.885 947.016 219.413 949.56 220.469C952.104 221.477 954.168 223.037 955.752 225.149C957.336 227.261 958.128 229.925 958.128 233.141H949.704C949.704 231.413 949.176 230.117 948.12 229.253C947.064 228.389 945.792 227.813 944.304 227.525C942.864 227.189 941.568 227.021 940.416 227.021C938.304 227.021 936.552 227.357 935.16 228.029C933.816 228.653 933.144 229.661 933.144 231.053C933.144 232.253 933.6 233.213 934.512 233.933C935.472 234.653 936.744 235.229 938.328 235.661C939.912 236.093 941.616 236.501 943.44 236.885C945.312 237.221 947.16 237.653 948.984 238.181C950.856 238.709 952.536 239.453 954.024 240.413C955.512 241.325 956.688 242.549 957.552 244.085C958.416 245.573 958.776 247.517 958.632 249.917C958.392 253.373 956.664 256.085 953.448 258.053C950.232 259.973 946.08 260.933 940.992 260.933Z" fill="#EDF5FA"/>
<defs>
<linearGradient id="paint0_linear_9_952" x1="280.918" y1="15.1413" x2="1133.15" y2="15.1413" gradientUnits="userSpaceOnUse">
<stop stop-color="white"/>
<stop offset="1" stop-color="#4FA0CA"/>
</linearGradient>
</defs>
</svg>
