<svg width="706" height="182" viewBox="0 0 706 182" fill="none" xmlns="http://www.w3.org/2000/svg">
<path d="M283.44 21.8708C281.64 21.8708 280.267 21.3442 279.32 20.2908C278.373 19.2242 277.9 17.7908 277.9 15.9908C277.9 14.8042 278.1 13.7775 278.5 12.9108C278.913 12.0308 279.527 11.3508 280.34 10.8708C281.167 10.3775 282.2 10.1308 283.44 10.1308C285.24 10.1308 286.607 10.6642 287.54 11.7308C288.487 12.7842 288.96 14.2042 288.96 15.9908C288.96 17.1508 288.747 18.1775 288.32 19.0708C287.907 19.9508 287.287 20.6375 286.46 21.1308C285.647 21.6242 284.64 21.8708 283.44 21.8708ZM283.42 20.2708C284.713 20.2708 285.687 19.8708 286.34 19.0708C286.993 18.2708 287.32 17.2442 287.32 15.9908C287.32 14.7375 286.993 13.7108 286.34 12.9108C285.7 12.0975 284.727 11.6908 283.42 11.6908C282.14 11.6908 281.167 12.0775 280.5 12.8508C279.847 13.6242 279.52 14.6708 279.52 15.9908C279.52 16.8175 279.66 17.5575 279.94 18.2108C280.22 18.8508 280.647 19.3575 281.22 19.7308C281.807 20.0908 282.54 20.2708 283.42 20.2708ZM299.606 21.8708C298.059 21.8708 296.872 21.4308 296.046 20.5508C295.232 19.6575 294.826 18.4042 294.826 16.7908V10.3308H296.566V16.7708C296.566 17.6375 296.706 18.3308 296.986 18.8508C297.266 19.3575 297.632 19.7242 298.086 19.9508C298.552 20.1775 299.059 20.2908 299.606 20.2908C300.206 20.2908 300.732 20.1842 301.186 19.9708C301.652 19.7442 302.012 19.3775 302.266 18.8708C302.532 18.3508 302.666 17.6508 302.666 16.7708V10.3308H304.406V16.7908C304.406 18.4308 303.999 19.6908 303.186 20.5708C302.386 21.4375 301.192 21.8708 299.606 21.8708ZM310.664 21.5908V10.3308H314.604C316.044 10.3308 317.158 10.5708 317.944 11.0508C318.744 11.5175 319.144 12.3642 319.144 13.5908C319.144 14.4442 318.924 15.1575 318.484 15.7308C318.058 16.3042 317.411 16.5908 316.544 16.5908C317.064 16.5908 317.451 16.7042 317.704 16.9308C317.958 17.1575 318.131 17.4442 318.224 17.7908C318.318 18.1242 318.378 18.4708 318.404 18.8308C318.431 19.1908 318.471 19.5175 318.524 19.8108C318.578 20.1042 318.684 20.3175 318.844 20.4508C319.004 20.5708 319.278 20.5575 319.664 20.4108V21.4108C319.478 21.5708 319.231 21.6775 318.924 21.7308C318.631 21.7975 318.338 21.7775 318.044 21.6708C317.751 21.5775 317.498 21.3775 317.284 21.0708C317.084 20.7508 316.984 20.2908 316.984 19.6908C316.984 18.9842 316.944 18.4308 316.864 18.0308C316.784 17.6308 316.598 17.3375 316.304 17.1508C316.011 16.9642 315.551 16.8575 314.924 16.8308C314.298 16.7908 313.438 16.7908 312.344 16.8308V21.5908H310.664ZM312.344 15.5908H314.664C315.344 15.5908 315.904 15.5508 316.344 15.4708C316.784 15.3775 317.111 15.1975 317.324 14.9308C317.551 14.6642 317.664 14.2575 317.664 13.7108C317.664 13.0842 317.531 12.6308 317.264 12.3508C316.998 12.0708 316.604 11.8975 316.084 11.8308C315.578 11.7508 314.958 11.7108 314.224 11.7108H312.344V15.5908ZM335.755 21.5908H334.095V10.3308H338.495C339.735 10.3308 340.695 10.6375 341.375 11.2508C342.055 11.8642 342.395 12.7842 342.395 14.0108C342.395 15.1175 342.041 15.9775 341.335 16.5908C340.641 17.2042 339.695 17.5108 338.495 17.5108H335.755V21.5908ZM338.295 11.7108H335.755V16.2508H338.295C339.095 16.2508 339.721 16.0642 340.175 15.6908C340.641 15.3175 340.875 14.7508 340.875 13.9908C340.875 13.2042 340.648 12.6308 340.195 12.2708C339.741 11.8975 339.108 11.7108 338.295 11.7108ZM348.153 21.5908V10.3308H352.093C353.533 10.3308 354.646 10.5708 355.433 11.0508C356.233 11.5175 356.633 12.3642 356.633 13.5908C356.633 14.4442 356.413 15.1575 355.973 15.7308C355.546 16.3042 354.899 16.5908 354.033 16.5908C354.553 16.5908 354.939 16.7042 355.193 16.9308C355.446 17.1575 355.619 17.4442 355.713 17.7908C355.806 18.1242 355.866 18.4708 355.893 18.8308C355.919 19.1908 355.959 19.5175 356.013 19.8108C356.066 20.1042 356.173 20.3175 356.333 20.4508C356.493 20.5708 356.766 20.5575 357.153 20.4108V21.4108C356.966 21.5708 356.719 21.6775 356.413 21.7308C356.119 21.7975 355.826 21.7775 355.533 21.6708C355.239 21.5775 354.986 21.3775 354.773 21.0708C354.573 20.7508 354.473 20.2908 354.473 19.6908C354.473 18.9842 354.433 18.4308 354.353 18.0308C354.273 17.6308 354.086 17.3375 353.793 17.1508C353.499 16.9642 353.039 16.8575 352.413 16.8308C351.786 16.7908 350.926 16.7908 349.833 16.8308V21.5908H348.153ZM349.833 15.5908H352.153C352.833 15.5908 353.393 15.5508 353.833 15.4708C354.273 15.3775 354.599 15.1975 354.813 14.9308C355.039 14.6642 355.153 14.2575 355.153 13.7108C355.153 13.0842 355.019 12.6308 354.753 12.3508C354.486 12.0708 354.093 11.8975 353.573 11.8308C353.066 11.7508 352.446 11.7108 351.713 11.7108H349.833V15.5908ZM367.712 20.1508V21.5908H363.012V20.1508H364.552V11.7708H363.012V10.3308H367.712V11.7708H366.192V20.1508H367.712ZM379.039 21.7908C377.999 21.7908 377.052 21.5775 376.199 21.1508C375.359 20.7108 374.692 20.0642 374.199 19.2108C373.719 18.3442 373.479 17.2708 373.479 15.9908C373.492 14.7242 373.739 13.6575 374.219 12.7908C374.699 11.9108 375.359 11.2508 376.199 10.8108C377.052 10.3575 378.026 10.1308 379.119 10.1308C380.572 10.1308 381.746 10.5175 382.639 11.2908C383.532 12.0642 384.086 13.0775 384.299 14.3308H382.579C382.472 13.6908 382.239 13.1775 381.879 12.7908C381.532 12.4042 381.112 12.1242 380.619 11.9508C380.139 11.7775 379.639 11.6908 379.119 11.6908C377.852 11.6908 376.872 12.0575 376.179 12.7908C375.486 13.5108 375.139 14.5442 375.139 15.8908C375.139 17.3042 375.479 18.3842 376.159 19.1308C376.839 19.8642 377.806 20.2308 379.059 20.2308C379.926 20.2308 380.699 20.0242 381.379 19.6108C382.059 19.1842 382.479 18.4975 382.639 17.5508H384.379C384.152 18.8042 383.592 19.8242 382.699 20.6108C381.806 21.3975 380.586 21.7908 379.039 21.7908ZM394.892 20.1508V21.5908H390.192V20.1508H391.732V11.7708H390.192V10.3308H394.892V11.7708H393.372V20.1508H394.892ZM409.239 10.3308H410.939V21.5908H407.799L403.059 11.0708H403.019V21.5908H401.319V10.3308H404.259L409.199 20.8508H409.239V10.3308ZM421.914 21.8308C420.82 21.8308 419.867 21.6042 419.054 21.1508C418.254 20.6975 417.634 20.0442 417.194 19.1908C416.754 18.3242 416.54 17.2642 416.554 16.0108C416.567 14.7575 416.807 13.6975 417.274 12.8308C417.754 11.9508 418.414 11.2842 419.254 10.8308C420.094 10.3642 421.074 10.1308 422.194 10.1308C423.66 10.1308 424.82 10.4642 425.674 11.1308C426.527 11.7842 427.087 12.7442 427.354 14.0108L425.754 14.2308C425.54 13.3242 425.107 12.6775 424.454 12.2908C423.8 11.8908 423.047 11.6908 422.194 11.6908C420.834 11.6908 419.827 12.0708 419.174 12.8308C418.534 13.5775 418.2 14.6042 418.174 15.9108C418.174 17.2842 418.534 18.3508 419.254 19.1108C419.987 19.8575 421.014 20.2308 422.334 20.2308C423.24 20.2308 424.027 20.0042 424.694 19.5508C425.36 19.0842 425.774 18.3708 425.934 17.4108H423.154V16.1508H427.574V21.5908H426.434L426.054 19.3708H426.014C425.88 19.7175 425.647 20.0842 425.314 20.4708C424.994 20.8442 424.547 21.1642 423.974 21.4308C423.414 21.6975 422.727 21.8308 421.914 21.8308Z" fill="url(#paint0_linear_59_1968)"/>
<path d="M19.2933 68.9908V62.8108H45.6933V68.9908H36.0933V96.5908H28.8333V68.9908H19.2933ZM57.4941 96.5908H50.2341V62.8108H57.4941V76.7308H72.0141V62.8108H79.2141V96.5908H72.0141V82.2508H57.4941V96.5908ZM92.7019 90.7708H111.062V96.5908H85.6219V62.8108H110.462V68.9908H92.7019V76.5508H106.142V82.4308H92.7019V90.7708ZM128.924 96.5908V62.8108H142.004C146.404 62.8108 149.844 63.5708 152.324 65.0908C154.844 66.5708 156.104 69.1708 156.104 72.8908C156.104 75.7708 155.424 78.0508 154.064 79.7308C152.744 81.4108 150.904 82.2508 148.544 82.2508C149.784 82.2508 150.724 82.5508 151.364 83.1508C152.004 83.7108 152.444 84.4108 152.684 85.2508C152.964 86.0908 153.164 86.9708 153.284 87.8908C153.444 88.7708 153.644 89.5708 153.884 90.2908C154.124 90.9708 154.524 91.4508 155.084 91.7308C155.684 91.9708 156.564 91.8508 157.724 91.3708V95.3908C156.804 96.1908 155.744 96.7108 154.544 96.9508C153.344 97.2308 152.184 97.1708 151.064 96.7708C149.944 96.3708 149.004 95.5908 148.244 94.4308C147.524 93.2308 147.164 91.5908 147.164 89.5108C147.164 88.1508 147.064 87.0108 146.864 86.0908C146.704 85.1708 146.284 84.4508 145.604 83.9308C144.924 83.4108 143.844 83.0708 142.364 82.9108C140.884 82.7508 138.824 82.7508 136.184 82.9108V96.5908H128.924ZM136.184 77.7508H141.344C143.224 77.7508 144.764 77.6908 145.964 77.5708C147.204 77.4508 148.124 77.1108 148.724 76.5508C149.324 75.9508 149.624 74.9308 149.624 73.4908C149.624 71.8508 149.264 70.7108 148.544 70.0708C147.824 69.3908 146.744 68.9908 145.304 68.8708C143.904 68.7508 142.184 68.6908 140.144 68.6908H136.184V77.7508ZM179.468 90.4108V96.5908H163.448V90.4108H167.888V68.9908H163.448V62.8108H179.468V68.9908H175.088V90.4108H179.468ZM200.976 97.2508C197.656 97.2508 194.756 96.5908 192.276 95.2708C189.796 93.9508 187.876 92.0108 186.516 89.4508C185.196 86.8508 184.576 83.6708 184.656 79.9108C184.736 76.0708 185.536 72.8508 187.056 70.2508C188.576 67.6108 190.616 65.6108 193.176 64.2508C195.776 62.8908 198.756 62.2108 202.116 62.2108C206.876 62.2108 210.516 63.2108 213.036 65.2108C215.556 67.2108 217.256 70.1108 218.136 73.9108L211.116 74.9908C210.756 73.4708 210.096 72.2708 209.136 71.3908C208.216 70.5108 207.136 69.8908 205.896 69.5308C204.656 69.1708 203.396 68.9908 202.116 68.9908C198.516 68.9908 195.896 69.9508 194.256 71.8708C192.656 73.7908 191.836 76.2908 191.796 79.3708C191.796 82.8908 192.756 85.5708 194.676 87.4108C196.636 89.2508 199.416 90.1708 203.016 90.1708C204.936 90.1708 206.756 89.7708 208.476 88.9708C210.236 88.1708 211.436 86.7508 212.076 84.7108H205.656V79.4908H218.796V96.5908H213.936L212.316 91.4908H212.196C211.516 92.9308 210.236 94.2508 208.356 95.4508C206.476 96.6508 204.016 97.2508 200.976 97.2508ZM231.811 96.5908H224.551V62.8108H231.811V76.7308H246.331V62.8108H253.531V96.5908H246.331V82.2508H231.811V96.5908ZM257.418 68.9908V62.8108H283.818V68.9908H274.218V96.5908H266.958V68.9908H257.418ZM308.098 96.5908H300.838V62.8108H314.758C318.558 62.8108 321.538 63.7908 323.698 65.7508C325.858 67.6708 326.938 70.5508 326.938 74.3908C326.938 77.7508 325.818 80.3908 323.578 82.3108C321.378 84.1908 318.438 85.1308 314.758 85.1308H308.098V96.5908ZM313.738 68.6908H308.098V79.9708H313.738C315.658 79.9708 317.238 79.5108 318.478 78.5908C319.758 77.6308 320.398 76.2108 320.398 74.3308C320.398 72.4108 319.778 70.9908 318.538 70.0708C317.298 69.1508 315.698 68.6908 313.738 68.6908ZM331.554 96.5908V62.8108H338.814V90.4108H354.414V96.5908H331.554ZM357.215 96.5908L367.475 62.8108H379.415L389.975 96.5908H382.235L379.715 87.5908H367.475L365.015 96.5908H357.215ZM373.595 65.8108L369.035 82.0108H378.155L373.595 65.8108ZM417.041 62.8108H424.601V96.5908H410.741L401.801 65.9908H401.681V96.5908H394.181V62.8108H407.021L416.921 93.4108H417.041V62.8108ZM451.37 96.5908H444.29V62.8108H468.65V68.9908H451.37V76.0708H464.39V81.8908H451.37V96.5908ZM486.811 97.4308C481.291 97.4308 477.071 95.8508 474.151 92.6908C471.231 89.4908 469.771 85.1908 469.771 79.7908C469.771 76.2308 470.391 73.1508 471.631 70.5508C472.911 67.9108 474.811 65.8708 477.331 64.4308C479.851 62.9508 483.011 62.2108 486.811 62.2108C492.371 62.2108 496.591 63.8108 499.471 67.0108C502.351 70.1708 503.791 74.4308 503.791 79.7908C503.791 83.2708 503.151 86.3508 501.871 89.0308C500.591 91.6708 498.691 93.7308 496.171 95.2108C493.651 96.6908 490.531 97.4308 486.811 97.4308ZM486.751 90.4108C488.951 90.4108 490.791 89.9508 492.271 89.0308C493.751 88.0708 494.851 86.7908 495.571 85.1908C496.291 83.5908 496.651 81.7908 496.651 79.7908C496.651 77.7908 496.291 75.9708 495.571 74.3308C494.851 72.6908 493.751 71.3908 492.271 70.4308C490.791 69.4708 488.951 68.9908 486.751 68.9908C483.511 68.9908 481.051 70.0108 479.371 72.0508C477.691 74.0508 476.851 76.6308 476.851 79.7908C476.851 81.7508 477.211 83.5308 477.931 85.1308C478.651 86.7308 479.731 88.0108 481.171 88.9708C482.651 89.9308 484.511 90.4108 486.751 90.4108ZM508.905 96.5908V62.8108H521.985C526.385 62.8108 529.825 63.5708 532.305 65.0908C534.825 66.5708 536.085 69.1708 536.085 72.8908C536.085 75.7708 535.405 78.0508 534.045 79.7308C532.725 81.4108 530.885 82.2508 528.525 82.2508C529.765 82.2508 530.705 82.5508 531.345 83.1508C531.985 83.7108 532.425 84.4108 532.665 85.2508C532.945 86.0908 533.145 86.9708 533.265 87.8908C533.425 88.7708 533.625 89.5708 533.865 90.2908C534.105 90.9708 534.505 91.4508 535.065 91.7308C535.665 91.9708 536.545 91.8508 537.705 91.3708V95.3908C536.785 96.1908 535.725 96.7108 534.525 96.9508C533.325 97.2308 532.165 97.1708 531.045 96.7708C529.925 96.3708 528.985 95.5908 528.225 94.4308C527.505 93.2308 527.145 91.5908 527.145 89.5108C527.145 88.1508 527.045 87.0108 526.845 86.0908C526.685 85.1708 526.265 84.4508 525.585 83.9308C524.905 83.4108 523.825 83.0708 522.345 82.9108C520.865 82.7508 518.805 82.7508 516.165 82.9108V96.5908H508.905ZM516.165 77.7508H521.325C523.205 77.7508 524.745 77.6908 525.945 77.5708C527.185 77.4508 528.105 77.1108 528.705 76.5508C529.305 75.9508 529.605 74.9308 529.605 73.4908C529.605 71.8508 529.245 70.7108 528.525 70.0708C527.805 69.3908 526.725 68.9908 525.285 68.8708C523.885 68.7508 522.165 68.6908 520.125 68.6908H516.165V77.7508ZM562.268 96.5908V84.8308L550.748 62.8108H558.908L565.988 78.5908L573.128 62.8108H581.228L569.468 84.7708V96.5908H562.268ZM597.611 97.4308C592.091 97.4308 587.871 95.8508 584.951 92.6908C582.031 89.4908 580.571 85.1908 580.571 79.7908C580.571 76.2308 581.191 73.1508 582.431 70.5508C583.711 67.9108 585.611 65.8708 588.131 64.4308C590.651 62.9508 593.811 62.2108 597.611 62.2108C603.171 62.2108 607.391 63.8108 610.271 67.0108C613.151 70.1708 614.591 74.4308 614.591 79.7908C614.591 83.2708 613.951 86.3508 612.671 89.0308C611.391 91.6708 609.491 93.7308 606.971 95.2108C604.451 96.6908 601.331 97.4308 597.611 97.4308ZM597.551 90.4108C599.751 90.4108 601.591 89.9508 603.071 89.0308C604.551 88.0708 605.651 86.7908 606.371 85.1908C607.091 83.5908 607.451 81.7908 607.451 79.7908C607.451 77.7908 607.091 75.9708 606.371 74.3308C605.651 72.6908 604.551 71.3908 603.071 70.4308C601.591 69.4708 599.751 68.9908 597.551 68.9908C594.311 68.9908 591.851 70.0108 590.171 72.0508C588.491 74.0508 587.651 76.6308 587.651 79.7908C587.651 81.7508 588.011 83.5308 588.731 85.1308C589.451 86.7308 590.531 88.0108 591.971 88.9708C593.451 89.9308 595.311 90.4108 597.551 90.4108ZM635.234 97.4308C630.314 97.4308 626.574 96.1108 624.014 93.4708C621.494 90.7908 620.234 87.0308 620.234 82.1908V62.8108H627.974V82.1308C627.974 84.4908 628.354 86.2708 629.114 87.4708C629.914 88.6708 630.874 89.4908 631.994 89.9308C633.114 90.3308 634.194 90.5308 635.234 90.5308C636.434 90.5308 637.594 90.3308 638.714 89.9308C639.834 89.4908 640.754 88.6708 641.474 87.4708C642.194 86.2708 642.554 84.4908 642.554 82.1308V62.8108H650.294V82.1908C650.294 87.1108 649.034 90.8908 646.514 93.5308C644.034 96.1308 640.274 97.4308 635.234 97.4308ZM656.502 96.5908V62.8108H669.582C673.982 62.8108 677.422 63.5708 679.902 65.0908C682.422 66.5708 683.682 69.1708 683.682 72.8908C683.682 75.7708 683.002 78.0508 681.642 79.7308C680.322 81.4108 678.482 82.2508 676.122 82.2508C677.362 82.2508 678.302 82.5508 678.942 83.1508C679.582 83.7108 680.022 84.4108 680.262 85.2508C680.542 86.0908 680.742 86.9708 680.862 87.8908C681.022 88.7708 681.222 89.5708 681.462 90.2908C681.702 90.9708 682.102 91.4508 682.662 91.7308C683.262 91.9708 684.142 91.8508 685.302 91.3708V95.3908C684.382 96.1908 683.322 96.7108 682.122 96.9508C680.922 97.2308 679.762 97.1708 678.642 96.7708C677.522 96.3708 676.582 95.5908 675.822 94.4308C675.102 93.2308 674.742 91.5908 674.742 89.5108C674.742 88.1508 674.642 87.0108 674.442 86.0908C674.282 85.1708 673.862 84.4508 673.182 83.9308C672.502 83.4108 671.422 83.0708 669.942 82.9108C668.462 82.7508 666.402 82.7508 663.762 82.9108V96.5908H656.502ZM663.762 77.7508H668.922C670.802 77.7508 672.342 77.6908 673.542 77.5708C674.782 77.4508 675.702 77.1108 676.302 76.5508C676.902 75.9508 677.202 74.9308 677.202 73.4908C677.202 71.8508 676.842 70.7108 676.122 70.0708C675.402 69.3908 674.322 68.9908 672.882 68.8708C671.482 68.7508 669.762 68.6908 667.722 68.6908H663.762V77.7508ZM117.113 168.591H109.853V134.811H117.113V148.731H131.633V134.811H138.833V168.591H131.633V154.251H117.113V168.591ZM160.121 169.431C154.601 169.431 150.381 167.851 147.461 164.691C144.541 161.491 143.081 157.191 143.081 151.791C143.081 148.231 143.701 145.151 144.941 142.551C146.221 139.911 148.121 137.871 150.641 136.431C153.161 134.951 156.321 134.211 160.121 134.211C165.681 134.211 169.901 135.811 172.781 139.011C175.661 142.171 177.101 146.431 177.101 151.791C177.101 155.271 176.461 158.351 175.181 161.031C173.901 163.671 172.001 165.731 169.481 167.211C166.961 168.691 163.841 169.431 160.121 169.431ZM160.061 162.411C162.261 162.411 164.101 161.951 165.581 161.031C167.061 160.071 168.161 158.791 168.881 157.191C169.601 155.591 169.961 153.791 169.961 151.791C169.961 149.791 169.601 147.971 168.881 146.331C168.161 144.691 167.061 143.391 165.581 142.431C164.101 141.471 162.261 140.991 160.061 140.991C156.821 140.991 154.361 142.011 152.681 144.051C151.001 146.051 150.161 148.631 150.161 151.791C150.161 153.751 150.521 155.531 151.241 157.131C151.961 158.731 153.041 160.011 154.481 160.971C155.961 161.931 157.821 162.411 160.061 162.411ZM197.744 169.431C192.824 169.431 189.084 168.111 186.524 165.471C184.004 162.791 182.744 159.031 182.744 154.191V134.811H190.484V154.131C190.484 156.491 190.864 158.271 191.624 159.471C192.424 160.671 193.384 161.491 194.504 161.931C195.624 162.331 196.704 162.531 197.744 162.531C198.944 162.531 200.104 162.331 201.224 161.931C202.344 161.491 203.264 160.671 203.984 159.471C204.704 158.271 205.064 156.491 205.064 154.131V134.811H212.804V154.191C212.804 159.111 211.544 162.891 209.024 165.531C206.544 168.131 202.784 169.431 197.744 169.431ZM232.572 169.251C230.692 169.251 228.852 169.031 227.052 168.591C225.252 168.151 223.612 167.451 222.132 166.491C220.652 165.531 219.472 164.291 218.592 162.771C217.752 161.251 217.332 159.411 217.332 157.251H224.592C224.592 157.451 224.672 157.851 224.832 158.451C224.992 159.011 225.352 159.631 225.912 160.311C226.472 160.951 227.332 161.511 228.492 161.991C229.652 162.431 231.192 162.651 233.112 162.651C234.872 162.651 236.312 162.371 237.432 161.811C238.592 161.211 239.192 160.351 239.232 159.231C239.232 158.271 238.832 157.511 238.032 156.951C237.272 156.391 236.252 155.931 234.972 155.571C233.692 155.171 232.272 154.811 230.712 154.491C229.192 154.171 227.672 153.771 226.152 153.291C224.672 152.811 223.312 152.171 222.072 151.371C220.832 150.571 219.852 149.551 219.132 148.311C218.452 147.031 218.172 145.411 218.292 143.451C218.492 140.571 219.872 138.311 222.432 136.671C224.992 135.031 228.472 134.211 232.872 134.211C235.312 134.211 237.592 134.651 239.712 135.531C241.832 136.371 243.552 137.671 244.872 139.431C246.192 141.191 246.852 143.411 246.852 146.091H239.832C239.832 144.651 239.392 143.571 238.512 142.851C237.632 142.131 236.572 141.651 235.332 141.411C234.132 141.131 233.052 140.991 232.092 140.991C230.332 140.991 228.872 141.271 227.712 141.831C226.592 142.351 226.032 143.191 226.032 144.351C226.032 145.351 226.412 146.151 227.172 146.751C227.972 147.351 229.032 147.831 230.352 148.191C231.672 148.551 233.092 148.891 234.612 149.211C236.172 149.491 237.712 149.851 239.232 150.291C240.792 150.731 242.192 151.351 243.432 152.151C244.672 152.911 245.652 153.931 246.372 155.211C247.092 156.451 247.392 158.071 247.272 160.071C247.072 162.951 245.632 165.211 242.952 166.851C240.272 168.451 236.812 169.251 232.572 169.251ZM260.192 162.771H278.552V168.591H253.112V134.811H277.952V140.991H260.192V148.551H273.632V154.431H260.192V162.771ZM297.435 169.251C295.555 169.251 293.715 169.031 291.915 168.591C290.115 168.151 288.475 167.451 286.995 166.491C285.515 165.531 284.335 164.291 283.455 162.771C282.615 161.251 282.195 159.411 282.195 157.251H289.455C289.455 157.451 289.535 157.851 289.695 158.451C289.855 159.011 290.215 159.631 290.775 160.311C291.335 160.951 292.195 161.511 293.355 161.991C294.515 162.431 296.055 162.651 297.975 162.651C299.735 162.651 301.175 162.371 302.295 161.811C303.455 161.211 304.055 160.351 304.095 159.231C304.095 158.271 303.695 157.511 302.895 156.951C302.135 156.391 301.115 155.931 299.835 155.571C298.555 155.171 297.135 154.811 295.575 154.491C294.055 154.171 292.535 153.771 291.015 153.291C289.535 152.811 288.175 152.171 286.935 151.371C285.695 150.571 284.715 149.551 283.995 148.311C283.315 147.031 283.035 145.411 283.155 143.451C283.355 140.571 284.735 138.311 287.295 136.671C289.855 135.031 293.335 134.211 297.735 134.211C300.175 134.211 302.455 134.651 304.575 135.531C306.695 136.371 308.415 137.671 309.735 139.431C311.055 141.191 311.715 143.411 311.715 146.091H304.695C304.695 144.651 304.255 143.571 303.375 142.851C302.495 142.131 301.435 141.651 300.195 141.411C298.995 141.131 297.915 140.991 296.955 140.991C295.195 140.991 293.735 141.271 292.575 141.831C291.455 142.351 290.895 143.191 290.895 144.351C290.895 145.351 291.275 146.151 292.035 146.751C292.835 147.351 293.895 147.831 295.215 148.191C296.535 148.551 297.955 148.891 299.475 149.211C301.035 149.491 302.575 149.851 304.095 150.291C305.655 150.731 307.055 151.351 308.295 152.151C309.535 152.911 310.515 153.931 311.235 155.211C311.955 156.451 312.255 158.071 312.135 160.071C311.935 162.951 310.495 165.211 307.815 166.851C305.135 168.451 301.675 169.251 297.435 169.251ZM362.915 168.771C361.475 168.131 360.095 167.491 358.775 166.851C357.495 166.171 356.235 165.451 354.995 164.691C353.195 166.171 351.195 167.291 348.995 168.051C346.795 168.771 344.595 169.111 342.395 169.071C340.195 169.071 338.175 168.691 336.335 167.931C334.495 167.171 333.015 166.051 331.895 164.571C330.775 163.051 330.215 161.171 330.215 158.931C330.215 157.211 330.555 155.791 331.235 154.671C331.915 153.551 332.715 152.671 333.635 152.031C334.595 151.351 335.455 150.851 336.215 150.531C337.015 150.211 337.515 150.011 337.715 149.931C337.595 149.771 337.215 149.371 336.575 148.731C335.975 148.051 335.395 147.171 334.835 146.091C334.275 144.971 333.995 143.651 333.995 142.131C333.995 140.451 334.455 139.031 335.375 137.871C336.295 136.711 337.495 135.831 338.975 135.231C340.495 134.631 342.075 134.311 343.715 134.271C345.395 134.231 346.975 134.491 348.455 135.051C349.935 135.611 351.135 136.471 352.055 137.631C353.015 138.791 353.495 140.251 353.495 142.011C353.495 143.451 353.155 144.711 352.475 145.791C351.835 146.871 351.075 147.771 350.195 148.491C349.315 149.211 348.535 149.771 347.855 150.171C347.175 150.531 346.795 150.731 346.715 150.771C346.915 151.051 347.515 151.691 348.515 152.691C349.515 153.651 350.815 154.791 352.415 156.111C352.575 155.911 352.815 155.471 353.135 154.791C353.495 154.111 353.695 153.371 353.735 152.571C353.775 151.731 353.375 150.951 352.535 150.231L358.655 146.331C358.775 146.451 359.055 146.931 359.495 147.771C359.975 148.611 360.375 149.691 360.695 151.011C361.055 152.291 361.135 153.731 360.935 155.331C360.775 156.891 360.095 158.471 358.895 160.071C359.735 160.591 360.655 161.131 361.655 161.691C362.695 162.251 364.015 162.851 365.615 163.491L362.915 168.771ZM342.695 147.411C343.655 146.891 344.635 146.271 345.635 145.551C346.635 144.791 347.195 143.971 347.315 143.091C347.435 142.051 347.155 141.251 346.475 140.691C345.795 140.131 344.975 139.831 344.015 139.791C343.095 139.711 342.255 139.931 341.495 140.451C340.775 140.971 340.435 141.771 340.475 142.851C340.515 144.291 341.255 145.811 342.695 147.411ZM349.355 160.551C347.795 159.351 346.395 158.171 345.155 157.011C343.955 155.851 342.775 154.611 341.615 153.291C340.535 153.811 339.535 154.411 338.615 155.091C337.735 155.771 337.295 156.771 337.295 158.091C337.295 159.371 337.715 160.411 338.555 161.211C339.395 161.971 340.455 162.491 341.735 162.771C343.055 163.011 344.395 162.951 345.755 162.591C347.115 162.231 348.315 161.551 349.355 160.551ZM397.074 169.431C391.554 169.431 387.334 167.851 384.414 164.691C381.494 161.491 380.034 157.191 380.034 151.791C380.034 148.231 380.654 145.151 381.894 142.551C383.174 139.911 385.074 137.871 387.594 136.431C390.114 134.951 393.274 134.211 397.074 134.211C402.634 134.211 406.854 135.811 409.734 139.011C412.614 142.171 414.054 146.431 414.054 151.791C414.054 155.271 413.414 158.351 412.134 161.031C410.854 163.671 408.954 165.731 406.434 167.211C403.914 168.691 400.794 169.431 397.074 169.431ZM397.014 162.411C399.214 162.411 401.054 161.951 402.534 161.031C404.014 160.071 405.114 158.791 405.834 157.191C406.554 155.591 406.914 153.791 406.914 151.791C406.914 149.791 406.554 147.971 405.834 146.331C405.114 144.691 404.014 143.391 402.534 142.431C401.054 141.471 399.214 140.991 397.014 140.991C393.774 140.991 391.314 142.011 389.634 144.051C387.954 146.051 387.114 148.631 387.114 151.791C387.114 153.751 387.474 155.531 388.194 157.131C388.914 158.731 389.994 160.011 391.434 160.971C392.914 161.931 394.774 162.411 397.014 162.411ZM426.848 168.591H419.768V134.811H444.128V140.991H426.848V148.071H439.868V153.891H426.848V168.591ZM455.618 168.591H448.538V134.811H472.898V140.991H455.618V148.071H468.638V153.891H455.618V168.591ZM494.088 162.411V168.591H478.068V162.411H482.508V140.991H478.068V134.811H494.088V140.991H489.708V162.411H494.088ZM516.315 169.191C513.115 169.191 510.215 168.551 507.615 167.271C505.015 165.951 502.955 164.011 501.435 161.451C499.915 158.891 499.175 155.711 499.215 151.911C499.215 148.151 499.975 144.951 501.495 142.311C503.015 139.671 505.075 137.671 507.675 136.311C510.275 134.911 513.215 134.211 516.495 134.211C519.735 134.211 522.495 134.791 524.775 135.951C527.055 137.111 528.835 138.671 530.115 140.631C531.435 142.591 532.295 144.751 532.695 147.111H525.195C524.955 145.431 524.355 144.171 523.395 143.331C522.435 142.451 521.315 141.851 520.035 141.531C518.795 141.211 517.615 141.051 516.495 141.051C513.175 141.051 510.655 141.951 508.935 143.751C507.215 145.551 506.355 148.091 506.355 151.371C506.355 154.891 507.175 157.611 508.815 159.531C510.495 161.451 513.035 162.411 516.435 162.411C517.595 162.411 518.815 162.231 520.095 161.871C521.375 161.511 522.495 160.871 523.455 159.951C524.455 158.991 525.075 157.671 525.315 155.991H532.875C532.435 158.431 531.555 160.651 530.235 162.651C528.915 164.611 527.095 166.191 524.775 167.391C522.455 168.591 519.635 169.191 516.315 169.191ZM544.723 162.771H563.083V168.591H537.643V134.811H562.483V140.991H544.723V148.551H558.163V154.431H544.723V162.771ZM581.967 169.251C580.087 169.251 578.247 169.031 576.447 168.591C574.647 168.151 573.007 167.451 571.527 166.491C570.047 165.531 568.867 164.291 567.987 162.771C567.147 161.251 566.727 159.411 566.727 157.251H573.987C573.987 157.451 574.067 157.851 574.227 158.451C574.387 159.011 574.747 159.631 575.307 160.311C575.867 160.951 576.727 161.511 577.887 161.991C579.047 162.431 580.587 162.651 582.507 162.651C584.267 162.651 585.707 162.371 586.827 161.811C587.987 161.211 588.587 160.351 588.627 159.231C588.627 158.271 588.227 157.511 587.427 156.951C586.667 156.391 585.647 155.931 584.367 155.571C583.087 155.171 581.667 154.811 580.107 154.491C578.587 154.171 577.067 153.771 575.547 153.291C574.067 152.811 572.707 152.171 571.467 151.371C570.227 150.571 569.247 149.551 568.527 148.311C567.847 147.031 567.567 145.411 567.687 143.451C567.887 140.571 569.267 138.311 571.827 136.671C574.387 135.031 577.867 134.211 582.267 134.211C584.707 134.211 586.987 134.651 589.107 135.531C591.227 136.371 592.947 137.671 594.267 139.431C595.587 141.191 596.247 143.411 596.247 146.091H589.227C589.227 144.651 588.787 143.571 587.907 142.851C587.027 142.131 585.967 141.651 584.727 141.411C583.527 141.131 582.447 140.991 581.487 140.991C579.727 140.991 578.267 141.271 577.107 141.831C575.987 142.351 575.427 143.191 575.427 144.351C575.427 145.351 575.807 146.151 576.567 146.751C577.367 147.351 578.427 147.831 579.747 148.191C581.067 148.551 582.487 148.891 584.007 149.211C585.567 149.491 587.107 149.851 588.627 150.291C590.187 150.731 591.587 151.351 592.827 152.151C594.067 152.911 595.047 153.931 595.767 155.211C596.487 156.451 596.787 158.071 596.667 160.071C596.467 162.951 595.027 165.211 592.347 166.851C589.667 168.451 586.207 169.251 581.967 169.251Z" fill="#133063"/>
<defs>
<linearGradient id="paint0_linear_59_1968" x1="311.843" y1="14.0908" x2="416.128" y2="14.0908" gradientUnits="userSpaceOnUse">
<stop stop-color="#133063"/>
<stop offset="1" stop-color="#4FA0CA"/>
</linearGradient>
</defs>
</svg>
