<svg width="25" height="25" viewBox="0 0 25 25" fill="none" xmlns="http://www.w3.org/2000/svg">
<path fill-rule="evenodd" clip-rule="evenodd" d="M6.19612 0.132284C4.83714 0.407609 3.8067 0.967187 2.86467 1.94144C1.48984 3.36334 0.739334 5.14635 0.561417 7.41346C0.444292 8.90577 0.677418 10.4075 1.24813 11.837C1.61095 12.7459 2.12003 13.6466 2.86041 14.6896C3.39167 15.438 4.90872 17.1525 6.1033 18.3545C7.85901 20.1211 11.626 23.7385 11.8861 23.9076C12.105 24.05 12.1703 24.066 12.5285 24.0654C12.8622 24.0649 12.9632 24.0433 13.1477 23.9333C13.3558 23.8094 16.8188 20.4957 18.718 18.6034C20.9402 16.3891 22.138 14.9476 23.0452 13.3954C23.8492 12.0198 24.2971 10.7225 24.4641 9.28553C24.7079 7.18874 24.2896 5.06907 23.2945 3.35859C22.244 1.55286 20.6408 0.423087 18.6795 0.106399C18.1899 0.0273727 17.0377 0.0683123 16.5859 0.180883C15.1483 0.538986 13.8174 1.49069 12.8465 2.85474C12.6906 3.07375 12.55 3.25785 12.5341 3.26387C12.5181 3.26984 12.4101 3.13065 12.294 2.95453C11.9889 2.49167 11.1554 1.60997 10.6961 1.26428C9.99401 0.735813 9.27939 0.383468 8.50975 0.186324C8.06216 0.0716403 6.65726 0.0388357 6.19612 0.132284ZM8.42419 1.79913C9.69222 2.1865 10.7375 3.12478 11.6944 4.73458C11.9623 5.18507 12.1743 5.33954 12.525 5.33954C12.923 5.33954 13.0852 5.20826 13.4664 4.57758C14.6055 2.69299 15.9424 1.7453 17.5865 1.65709C19.0351 1.57933 20.3148 2.1015 21.3256 3.18279C22.695 4.64774 23.3486 6.90311 23.0606 9.16937C22.8734 10.642 22.2984 12.0013 21.2091 13.5461C20.6273 14.3712 19.1264 16.0788 17.9462 17.2582C17.3094 17.8947 13.913 21.1927 12.6592 22.3922L12.5314 22.5144L10.384 20.4408C6.72246 16.9051 5.44224 15.5871 4.46433 14.3462C3.13645 12.6613 2.47099 11.3993 2.13865 9.93534C1.59552 7.54293 2.16966 4.96094 3.60617 3.33582C4.35612 2.48745 5.14152 2.01112 6.23295 1.74287C6.79662 1.60437 7.87744 1.6321 8.42419 1.79913Z" fill="#FFA500" fill-opacity="0.65"/>
</svg>
