<svg width="146" height="22" viewBox="0 0 146 22" fill="none" xmlns="http://www.w3.org/2000/svg">
<path d="M9.196 17.7284V20.8604H0.16V17.7284H2.896V3.76035H0.16V0.592351H9.196V3.76035H6.532V17.7284H9.196ZM14.0785 20.8604V0.592351H21.5305C24.1465 0.592351 26.1865 1.03635 27.6505 1.92435C29.1145 2.78835 29.8465 4.32435 29.8465 6.53235C29.8465 8.18835 29.4505 9.53235 28.6585 10.5644C27.8665 11.5724 26.7265 12.0764 25.2385 12.0764C26.0785 12.0764 26.7025 12.2684 27.1105 12.6524C27.5425 13.0124 27.8425 13.4684 28.0105 14.0204C28.1785 14.5724 28.2985 15.1484 28.3705 15.7484C28.4425 16.3484 28.5265 16.8884 28.6225 17.3684C28.7425 17.8244 28.9585 18.1484 29.2705 18.3404C29.6065 18.5324 30.1225 18.4964 30.8185 18.2324V20.3564C30.3625 20.7404 29.8225 20.9924 29.1985 21.1124C28.5745 21.2564 27.9625 21.2204 27.3625 21.0044C26.7625 20.7884 26.2585 20.3684 25.8505 19.7444C25.4425 19.0964 25.2385 18.1964 25.2385 17.0444C25.2385 15.9884 25.1785 15.1484 25.0585 14.5244C24.9385 13.8764 24.6385 13.3964 24.1585 13.0844C23.6785 12.7484 22.9345 12.5444 21.9265 12.4724C20.9185 12.3764 19.5265 12.3764 17.7505 12.4724V20.8604H14.0785ZM17.7505 9.80835H21.3865C22.5625 9.80835 23.5345 9.76035 24.3025 9.66435C25.0705 9.54435 25.6345 9.28035 25.9945 8.87235C26.3785 8.44035 26.5705 7.75635 26.5705 6.82035C26.5705 5.78835 26.3425 5.04435 25.8865 4.58835C25.4305 4.13235 24.7585 3.85635 23.8705 3.76035C23.0065 3.64035 21.9385 3.58035 20.6665 3.58035H17.7505V9.80835ZM37.5753 17.9084H48.7713V20.8604H33.9393V0.592351H48.4113V3.76035H37.5753V9.08835H45.8913V12.1124H37.5753V17.9084ZM55.8624 20.8604H52.1544V0.592351H55.8624V9.12435H65.4744V0.592351H69.1464V20.8604H65.4744V11.9684H55.8624V20.8604ZM88.0523 0.592351H92.0843L85.3883 20.8604H79.2683L72.5723 0.592351H76.5683L82.2923 19.3124L88.0523 0.592351ZM105.888 20.8604H102.216V0.592351H110.352C112.608 0.592351 114.36 1.15635 115.608 2.28435C116.856 3.41235 117.48 5.11635 117.48 7.39635C117.48 9.38835 116.832 10.9484 115.536 12.0764C114.264 13.2044 112.536 13.7684 110.352 13.7684H105.888V20.8604ZM109.848 3.58035H105.888V11.0684H109.848C111.144 11.0684 112.188 10.7564 112.98 10.1324C113.772 9.50835 114.168 8.57235 114.168 7.32435C114.168 6.05235 113.772 5.11635 112.98 4.51635C112.212 3.89235 111.168 3.58035 109.848 3.58035ZM119.606 20.8604V6.06435H123.026L123.278 10.1684C123.422 9.54435 123.698 8.92035 124.106 8.29635C124.538 7.64835 125.126 7.12035 125.87 6.71235C126.638 6.28035 127.622 6.06435 128.822 6.06435H129.362V10.1684H128.822C126.758 10.1684 125.318 10.5044 124.502 11.1764C123.686 11.8244 123.278 12.9284 123.278 14.4884V20.8604H119.606ZM138.468 21.2204C136.788 21.2204 135.396 20.8964 134.292 20.2484C133.188 19.6004 132.36 18.7124 131.808 17.5844C131.256 16.4324 130.98 15.1244 130.98 13.6604C130.956 11.4524 131.568 9.64035 132.816 8.22435C134.088 6.78435 135.972 6.06435 138.468 6.06435C140.892 6.06435 142.728 6.76035 143.976 8.15235C145.248 9.54435 145.884 11.3804 145.884 13.6604C145.884 15.0764 145.62 16.3604 145.092 17.5124C144.564 18.6644 143.748 19.5764 142.644 20.2484C141.54 20.8964 140.148 21.2204 138.468 21.2204ZM138.468 18.1244C139.524 18.1244 140.328 17.8964 140.88 17.4404C141.456 16.9844 141.84 16.4084 142.032 15.7124C142.224 14.9924 142.32 14.2724 142.32 13.5524C142.32 12.8084 142.224 12.0764 142.032 11.3564C141.84 10.6364 141.456 10.0484 140.88 9.59235C140.328 9.13635 139.524 8.90835 138.468 8.90835C137.388 8.90835 136.56 9.14835 135.984 9.62835C135.432 10.0844 135.048 10.6724 134.832 11.3924C134.64 12.0884 134.544 12.8084 134.544 13.5524C134.544 14.2724 134.64 14.9924 134.832 15.7124C135.048 16.4084 135.432 16.9844 135.984 17.4404C136.56 17.8964 137.388 18.1244 138.468 18.1244Z" fill="white"/>
</svg>
