<svg width="200" height="22" viewBox="0 0 200 22" fill="none" xmlns="http://www.w3.org/2000/svg">
<path d="M9.69539 17.7284V20.8604H0.65939V17.7284H3.39539V3.76035H0.65939V0.592351H9.69539V3.76035H7.03139V17.7284H9.69539ZM14.5779 20.8604V0.592351H22.0299C24.6459 0.592351 26.6859 1.03635 28.1499 1.92435C29.6139 2.78835 30.3459 4.32435 30.3459 6.53235C30.3459 8.18835 29.9499 9.53235 29.1579 10.5644C28.3659 11.5724 27.2259 12.0764 25.7379 12.0764C26.5779 12.0764 27.2019 12.2684 27.6099 12.6524C28.0419 13.0124 28.3419 13.4684 28.5099 14.0204C28.6779 14.5724 28.7979 15.1484 28.8699 15.7484C28.9419 16.3484 29.0259 16.8884 29.1219 17.3684C29.2419 17.8244 29.4579 18.1484 29.7699 18.3404C30.1059 18.5324 30.6219 18.4964 31.3179 18.2324V20.3564C30.8619 20.7404 30.3219 20.9924 29.6979 21.1124C29.0739 21.2564 28.4619 21.2204 27.8619 21.0044C27.2619 20.7884 26.7579 20.3684 26.3499 19.7444C25.9419 19.0964 25.7379 18.1964 25.7379 17.0444C25.7379 15.9884 25.6779 15.1484 25.5579 14.5244C25.4379 13.8764 25.1379 13.3964 24.6579 13.0844C24.1779 12.7484 23.4339 12.5444 22.4259 12.4724C21.4179 12.3764 20.0259 12.3764 18.2499 12.4724V20.8604H14.5779ZM18.2499 9.80835H21.8859C23.0619 9.80835 24.0339 9.76035 24.8019 9.66435C25.5699 9.54435 26.1339 9.28035 26.4939 8.87235C26.8779 8.44035 27.0699 7.75635 27.0699 6.82035C27.0699 5.78835 26.8419 5.04435 26.3859 4.58835C25.9299 4.13235 25.2579 3.85635 24.3699 3.76035C23.5059 3.64035 22.4379 3.58035 21.1659 3.58035H18.2499V9.80835ZM38.0746 17.9084H49.2706V20.8604H34.4386V0.592351H48.9106V3.76035H38.0746V9.08835H46.3906V12.1124H38.0746V17.9084ZM56.3618 20.8604H52.6538V0.592351H56.3618V9.12435H65.9738V0.592351H69.6458V20.8604H65.9738V11.9684H56.3618V20.8604ZM88.5517 0.592351H92.5837L85.8877 20.8604H79.7677L73.0717 0.592351H77.0677L82.7917 19.3124L88.5517 0.592351ZM110.599 21.2564C109.495 21.2564 108.403 21.1244 107.323 20.8604C106.267 20.5964 105.307 20.1884 104.443 19.6364C103.579 19.0844 102.895 18.3644 102.391 17.4764C101.887 16.5644 101.623 15.4724 101.599 14.2004H105.307C105.307 14.3204 105.355 14.5844 105.451 14.9924C105.547 15.3764 105.763 15.7964 106.099 16.2524C106.459 16.7084 107.011 17.1044 107.755 17.4404C108.523 17.7764 109.555 17.9444 110.851 17.9444C112.267 17.9444 113.311 17.6804 113.983 17.1524C114.679 16.6244 115.027 16.0604 115.027 15.4604C115.027 14.7884 114.787 14.2604 114.307 13.8764C113.851 13.4684 113.227 13.1444 112.435 12.9044C111.667 12.6404 110.815 12.4004 109.879 12.1844C108.967 11.9684 108.043 11.7284 107.107 11.4644C106.195 11.1764 105.355 10.8044 104.587 10.3484C103.843 9.86835 103.255 9.25635 102.823 8.51235C102.391 7.76835 102.199 6.82035 102.247 5.66835C102.367 3.96435 103.183 2.63235 104.695 1.67235C106.207 0.712351 108.211 0.232351 110.707 0.232351C112.147 0.232351 113.479 0.496351 114.703 1.02435C115.951 1.52835 116.947 2.29635 117.691 3.32835C118.459 4.33635 118.843 5.63235 118.843 7.21635H115.279C115.279 6.47235 115.111 5.87235 114.775 5.41635C114.439 4.93635 114.007 4.57635 113.479 4.33635C112.975 4.07235 112.435 3.90435 111.859 3.83235C111.283 3.73635 110.767 3.68835 110.311 3.68835C109.111 3.68835 108.115 3.89235 107.323 4.30035C106.555 4.70835 106.171 5.30835 106.171 6.10035C106.147 6.77235 106.375 7.31235 106.855 7.72035C107.335 8.12835 107.971 8.45235 108.763 8.69235C109.555 8.93235 110.419 9.14835 111.355 9.34035C112.291 9.53235 113.227 9.77235 114.163 10.0604C115.099 10.3244 115.951 10.6844 116.719 11.1404C117.487 11.5724 118.087 12.1724 118.519 12.9404C118.951 13.6844 119.131 14.6564 119.059 15.8564C118.963 17.5604 118.135 18.8924 116.575 19.8524C115.015 20.7884 113.023 21.2564 110.599 21.2564ZM126.824 20.8604C125.648 20.8604 124.76 20.5724 124.16 19.9964C123.584 19.4204 123.296 18.4844 123.296 17.1884V8.65635H121.064V6.06435C121.76 6.06435 122.3 5.99235 122.684 5.84835C123.068 5.70435 123.344 5.36835 123.512 4.84035C123.68 4.31235 123.764 3.46035 123.764 2.28435H126.716V6.06435H130.1V8.65635H126.716V17.9804H130.172V20.8604H126.824ZM138.009 21.2204C135.969 21.2204 134.517 20.5244 133.653 19.1324C132.789 17.7404 132.357 15.9164 132.357 13.6604C132.357 11.3804 132.789 9.54435 133.653 8.15235C134.541 6.73635 135.993 6.02835 138.009 6.02835C139.161 6.02835 140.073 6.23235 140.745 6.64035C141.417 7.02435 141.921 7.45635 142.257 7.93635C142.593 8.41635 142.797 8.77635 142.869 9.01635H142.941V6.06435H146.721V20.8604H143.553L142.941 18.4484H142.869C142.797 18.6644 142.581 19.0004 142.221 19.4564C141.885 19.8884 141.369 20.2964 140.673 20.6804C140.001 21.0404 139.113 21.2204 138.009 21.2204ZM139.521 18.1244C140.865 18.1244 141.765 17.7044 142.221 16.8644C142.701 16.0004 142.941 14.9444 142.941 13.6964C142.941 12.3764 142.701 11.3084 142.221 10.4924C141.741 9.67635 140.841 9.26835 139.521 9.26835C138.585 9.26835 137.853 9.47235 137.325 9.88035C136.821 10.2884 136.461 10.8284 136.245 11.5004C136.053 12.1484 135.957 12.8804 135.957 13.6964C135.957 14.5124 136.053 15.2564 136.245 15.9284C136.461 16.6004 136.821 17.1404 137.325 17.5484C137.853 17.9324 138.585 18.1244 139.521 18.1244ZM149.425 20.8604V6.06435H152.845L153.097 10.1684C153.241 9.54435 153.517 8.92035 153.925 8.29635C154.357 7.64835 154.945 7.12035 155.689 6.71235C156.457 6.28035 157.441 6.06435 158.641 6.06435H159.181V10.1684H158.641C156.577 10.1684 155.137 10.5044 154.321 11.1764C153.505 11.8244 153.097 12.9284 153.097 14.4884V20.8604H149.425ZM166.727 20.8604C165.551 20.8604 164.663 20.5724 164.063 19.9964C163.487 19.4204 163.199 18.4844 163.199 17.1884V8.65635H160.967V6.06435C161.663 6.06435 162.203 5.99235 162.587 5.84835C162.971 5.70435 163.247 5.36835 163.415 4.84035C163.583 4.31235 163.667 3.46035 163.667 2.28435H166.619V6.06435H170.003V8.65635H166.619V17.9804H170.075V20.8604H166.727ZM179.501 21.2204C177.797 21.2204 176.405 20.8604 175.325 20.1404C174.269 19.3964 173.477 18.4604 172.949 17.3324C172.445 16.1804 172.181 14.9684 172.157 13.6964C172.133 12.2084 172.409 10.8884 172.985 9.73635C173.585 8.56035 174.425 7.64835 175.505 7.00035C176.609 6.32835 177.905 5.99235 179.393 5.99235C180.713 5.99235 181.889 6.28035 182.921 6.85635C183.977 7.43235 184.817 8.24835 185.441 9.30435C186.065 10.3364 186.389 11.5604 186.413 12.9764C186.413 13.0244 186.413 13.1564 186.413 13.3724C186.413 13.5884 186.413 13.7684 186.413 13.9124H175.649C175.649 15.2804 175.985 16.3364 176.657 17.0804C177.329 17.8004 178.253 18.1604 179.429 18.1604C180.341 18.1604 181.097 17.9324 181.697 17.4764C182.321 17.0204 182.693 16.4204 182.813 15.6764H186.377C186.209 17.2364 185.537 18.5564 184.361 19.6364C183.185 20.6924 181.565 21.2204 179.501 21.2204ZM175.757 12.2564H182.741C182.717 12.0884 182.657 11.8244 182.561 11.4644C182.489 11.1044 182.333 10.7324 182.093 10.3484C181.877 9.96435 181.541 9.64035 181.085 9.37635C180.629 9.11235 180.041 8.98035 179.321 8.98035C178.361 8.98035 177.629 9.18435 177.125 9.59235C176.645 9.97635 176.297 10.4324 176.081 10.9604C175.889 11.4644 175.781 11.8964 175.757 12.2564ZM189.398 20.8604V6.06435H192.818L193.07 10.1684C193.214 9.54435 193.49 8.92035 193.898 8.29635C194.33 7.64835 194.918 7.12035 195.662 6.71235C196.43 6.28035 197.414 6.06435 198.614 6.06435H199.154V10.1684H198.614C196.55 10.1684 195.11 10.5044 194.294 11.1764C193.478 11.8244 193.07 12.9284 193.07 14.4884V20.8604H189.398Z" fill="#133063"/>
</svg>
