<svg width="156" height="21" viewBox="0 0 156 21" fill="none" xmlns="http://www.w3.org/2000/svg">
<path d="M9.196 17.2674V20.3994H0.16V17.2674H2.896V3.29941H0.16V0.131413H9.196V3.29941H6.532V17.2674H9.196ZM14.0785 20.3994V0.131413H21.5305C24.1465 0.131413 26.1865 0.575413 27.6505 1.46341C29.1145 2.32741 29.8465 3.86341 29.8465 6.07141C29.8465 7.72741 29.4505 9.07141 28.6585 10.1034C27.8665 11.1114 26.7265 11.6154 25.2385 11.6154C26.0785 11.6154 26.7025 11.8074 27.1105 12.1914C27.5425 12.5514 27.8425 13.0074 28.0105 13.5594C28.1785 14.1114 28.2985 14.6874 28.3705 15.2874C28.4425 15.8874 28.5265 16.4274 28.6225 16.9074C28.7425 17.3634 28.9585 17.6874 29.2705 17.8794C29.6065 18.0714 30.1225 18.0354 30.8185 17.7714V19.8954C30.3625 20.2794 29.8225 20.5314 29.1985 20.6514C28.5745 20.7954 27.9625 20.7594 27.3625 20.5434C26.7625 20.3274 26.2585 19.9074 25.8505 19.2834C25.4425 18.6354 25.2385 17.7354 25.2385 16.5834C25.2385 15.5274 25.1785 14.6874 25.0585 14.0634C24.9385 13.4154 24.6385 12.9354 24.1585 12.6234C23.6785 12.2874 22.9345 12.0834 21.9265 12.0114C20.9185 11.9154 19.5265 11.9154 17.7505 12.0114V20.3994H14.0785ZM17.7505 9.34741H21.3865C22.5625 9.34741 23.5345 9.29941 24.3025 9.20341C25.0705 9.08341 25.6345 8.81941 25.9945 8.41141C26.3785 7.97941 26.5705 7.29541 26.5705 6.35941C26.5705 5.32741 26.3425 4.58341 25.8865 4.12741C25.4305 3.67141 24.7585 3.39541 23.8705 3.29941C23.0065 3.17941 21.9385 3.11941 20.6665 3.11941H17.7505V9.34741ZM37.5753 17.4474H48.7713V20.3994H33.9393V0.131413H48.4113V3.29941H37.5753V8.62741H45.8913V11.6514H37.5753V17.4474ZM55.8624 20.3994H52.1544V0.131413H55.8624V8.66341H65.4744V0.131413H69.1464V20.3994H65.4744V11.5074H55.8624V20.3994ZM88.0523 0.131413H92.0843L85.3883 20.3994H79.2683L72.5723 0.131413H76.5683L82.2923 18.8514L88.0523 0.131413ZM105.888 20.3994H102.216V0.131413H110.352C112.608 0.131413 114.36 0.695413 115.608 1.82341C116.856 2.95141 117.48 4.65541 117.48 6.93541C117.48 8.92741 116.832 10.4874 115.536 11.6154C114.264 12.7434 112.536 13.3074 110.352 13.3074H105.888V20.3994ZM109.848 3.11941H105.888V10.6074H109.848C111.144 10.6074 112.188 10.2954 112.98 9.67141C113.772 9.04741 114.168 8.11141 114.168 6.86341C114.168 5.59141 113.772 4.65541 112.98 4.05541C112.212 3.43141 111.168 3.11941 109.848 3.11941ZM119.822 20.3994V0.131413H123.422V20.3994H119.822ZM131.64 20.7594C130.344 20.7594 129.336 20.5074 128.616 20.0034C127.896 19.4994 127.368 18.8514 127.032 18.0594C126.72 17.2674 126.528 16.4394 126.456 15.5754C126.384 14.6874 126.348 13.8834 126.348 13.1634V5.60341H129.912V13.1634C129.912 13.9074 129.984 14.6154 130.128 15.2874C130.272 15.9594 130.572 16.4994 131.028 16.9074C131.508 17.3154 132.228 17.5194 133.188 17.5194C134.124 17.5194 134.832 17.3154 135.312 16.9074C135.792 16.4754 136.116 15.9354 136.284 15.2874C136.452 14.6394 136.548 13.9674 136.572 13.2714L136.608 5.60341H140.352V20.3994H137.22L136.608 17.5914H136.536C136.488 17.7354 136.368 17.9754 136.176 18.3114C135.984 18.6474 135.696 19.0074 135.312 19.3914C134.952 19.7754 134.472 20.0994 133.872 20.3634C133.272 20.6274 132.528 20.7594 131.64 20.7594ZM149.314 20.7594C148.69 20.7594 147.994 20.6514 147.226 20.4354C146.482 20.2194 145.762 19.8954 145.066 19.4634C144.394 19.0314 143.83 18.4794 143.374 17.8074C142.942 17.1114 142.726 16.2954 142.726 15.3594H146.11C146.11 15.4074 146.122 15.5754 146.146 15.8634C146.17 16.1274 146.266 16.4394 146.434 16.7994C146.626 17.1354 146.938 17.4354 147.37 17.6994C147.802 17.9634 148.426 18.0954 149.242 18.0954C150.202 18.0954 150.922 17.9274 151.402 17.5914C151.882 17.2314 152.122 16.8234 152.122 16.3674C152.122 15.8394 151.894 15.4314 151.438 15.1434C151.006 14.8314 150.442 14.5794 149.746 14.3874C149.05 14.1954 148.306 14.0034 147.514 13.8114C146.746 13.5954 146.014 13.3194 145.318 12.9834C144.646 12.6474 144.094 12.1914 143.662 11.6154C143.23 11.0154 143.014 10.2474 143.014 9.31141C143.014 7.94341 143.566 6.91141 144.67 6.21541C145.774 5.49541 147.178 5.13541 148.882 5.13541C150.082 5.13541 151.198 5.32741 152.23 5.71141C153.262 6.07141 154.09 6.65941 154.714 7.47541C155.338 8.26741 155.65 9.31141 155.65 10.6074H152.266C152.29 9.86341 152.122 9.31141 151.762 8.95141C151.426 8.56741 150.994 8.30341 150.466 8.15941C149.962 8.01541 149.47 7.94341 148.99 7.94341C148.126 7.94341 147.466 8.09941 147.01 8.41141C146.578 8.69941 146.362 9.08341 146.362 9.56341C146.362 10.1154 146.578 10.5474 147.01 10.8594C147.466 11.1474 148.042 11.3874 148.738 11.5794C149.458 11.7714 150.202 11.9754 150.97 12.1914C151.762 12.3834 152.506 12.6474 153.202 12.9834C153.922 13.3194 154.498 13.7754 154.93 14.3514C155.386 14.9034 155.614 15.6474 155.614 16.5834C155.614 17.9994 155.026 19.0554 153.85 19.7514C152.698 20.4234 151.186 20.7594 149.314 20.7594Z" fill="#133063"/>
</svg>
