<svg width="264" height="17" viewBox="0 0 264 17" fill="none" xmlns="http://www.w3.org/2000/svg">
<path d="M3.06 16.9141L4.36 10.9983L0 7.01933L5.76 6.49301L8 0.914062L10.24 6.49301L16 7.01933L11.64 10.9983L12.94 16.9141L8 13.7772L3.06 16.9141Z" fill="#FFD233"/>
<path d="M27.06 16.9141L28.36 10.9983L24 7.01933L29.76 6.49301L32 0.914062L34.24 6.49301L40 7.01933L35.64 10.9983L36.94 16.9141L32 13.7772L27.06 16.9141Z" fill="#FFD233"/>
<path d="M51.06 16.9141L52.36 10.9983L48 7.01933L53.76 6.49301L56 0.914062L58.24 6.49301L64 7.01933L59.64 10.9983L60.94 16.9141L56 13.7772L51.06 16.9141Z" fill="#FFD233"/>
<path d="M75.06 16.9141L76.36 10.9983L72 7.01933L77.76 6.49301L80 0.914062L82.24 6.49301L88 7.01933L83.64 10.9983L84.94 16.9141L80 13.7772L75.06 16.9141Z" fill="#FFD233"/>
<path d="M99.06 16.9141L100.36 10.9983L96 7.01933L101.76 6.49301L104 0.914062L106.24 6.49301L112 7.01933L107.64 10.9983L108.94 16.9141L104 13.7772L99.06 16.9141Z" fill="#FFD233"/>
</svg>
