<svg width="706" height="19" viewBox="0 0 706 19" fill="none" xmlns="http://www.w3.org/2000/svg">
<path d="M6.73625 14.1844C4.59225 14.1844 2.96025 13.5524 1.84025 12.2884C0.72025 11.0084 0.16025 9.28839 0.16025 7.12839C0.16025 5.70439 0.40025 4.47239 0.88025 3.43239C1.37625 2.37639 2.10425 1.56039 3.06425 0.984388C4.04025 0.392388 5.26425 0.0963883 6.73625 0.0963883C8.88025 0.0963883 10.5043 0.736388 11.6083 2.01639C12.7123 3.28039 13.2643 4.98439 13.2643 7.12839C13.2643 8.52039 13.0163 9.75239 12.5203 10.8244C12.0403 11.8804 11.3123 12.7044 10.3363 13.2964C9.36025 13.8884 8.16025 14.1844 6.73625 14.1844ZM6.71225 12.6964C8.39225 12.6964 9.64825 12.1844 10.4803 11.1604C11.3283 10.1364 11.7523 8.79239 11.7523 7.12839C11.7523 5.46439 11.3363 4.12039 10.5043 3.09639C9.67225 2.05639 8.40825 1.53639 6.71225 1.53639C5.06425 1.53639 3.80825 2.04039 2.94425 3.04839C2.09625 4.04039 1.67225 5.40039 1.67225 7.12839C1.67225 8.77639 2.08825 10.1204 2.92025 11.1604C3.75225 12.1844 5.01625 12.6964 6.71225 12.6964ZM18.6766 14.0884C17.8766 14.0884 17.2286 13.9444 16.7326 13.6564C16.2526 13.3684 15.8846 12.9844 15.6286 12.5044C15.3726 12.0084 15.1966 11.4724 15.1006 10.8964C15.0206 10.3044 14.9806 9.71239 14.9806 9.12039V4.08039H16.5166V9.14439C16.5166 9.78439 16.5806 10.3764 16.7086 10.9204C16.8366 11.4644 17.0926 11.8964 17.4766 12.2164C17.8766 12.5364 18.4526 12.6964 19.2046 12.6964C19.9246 12.6964 20.4846 12.5364 20.8846 12.2164C21.3006 11.8804 21.6046 11.4484 21.7966 10.9204C21.9886 10.3924 22.1006 9.84039 22.1326 9.26439V4.08039H23.7166V13.8484H22.3966L22.1326 11.6644H22.0846C22.0046 11.9364 21.8366 12.2644 21.5806 12.6484C21.3246 13.0324 20.9566 13.3684 20.4766 13.6564C20.0126 13.9444 19.4126 14.0884 18.6766 14.0884ZM25.9801 13.8484V4.08039H27.3721L27.5401 6.64839C27.6361 6.21639 27.8281 5.80039 28.1161 5.40039C28.4041 5.00039 28.7961 4.68039 29.2921 4.44039C29.8041 4.18439 30.4361 4.06439 31.1881 4.08039H31.6441V5.78439H31.1641C30.1401 5.78439 29.3641 5.93639 28.8361 6.24039C28.3241 6.52839 27.9721 6.93639 27.7801 7.46439C27.6041 7.99239 27.5161 8.60039 27.5161 9.28839V13.8484H25.9801ZM55.7416 0.336388H57.4216L53.4376 13.8484H50.9176L47.6536 2.37639L44.2936 13.8484H41.7736L37.9336 0.336388H39.5656L43.0456 13.1284L46.8376 0.336388H48.4936L52.1656 13.1284L55.7416 0.336388ZM62.7577 14.0884C61.1897 14.0884 60.0137 13.6244 59.2297 12.6964C58.4617 11.7524 58.0777 10.5524 58.0777 9.09639C58.0617 7.62439 58.4457 6.42439 59.2297 5.49639C60.0297 4.55239 61.2057 4.07239 62.7577 4.05639C64.2937 4.05639 65.4537 4.52039 66.2377 5.44839C67.0377 6.36039 67.4377 7.57639 67.4377 9.09639C67.4377 10.0404 67.2697 10.8884 66.9337 11.6404C66.5977 12.3924 66.0857 12.9924 65.3977 13.4404C64.7097 13.8724 63.8297 14.0884 62.7577 14.0884ZM62.7577 12.7444C63.5897 12.7444 64.2297 12.5604 64.6777 12.1924C65.1417 11.8244 65.4617 11.3604 65.6377 10.8004C65.8297 10.2244 65.9257 9.64039 65.9257 9.04839C65.9257 8.45639 65.8297 7.87239 65.6377 7.29639C65.4617 6.72039 65.1417 6.24839 64.6777 5.88039C64.2297 5.51239 63.5897 5.32839 62.7577 5.32839C61.9257 5.32839 61.2777 5.51239 60.8137 5.88039C60.3657 6.24839 60.0457 6.72039 59.8537 7.29639C59.6777 7.87239 59.5897 8.45639 59.5897 9.04839C59.5897 9.64039 59.6777 10.2244 59.8537 10.8004C60.0457 11.3604 60.3657 11.8244 60.8137 12.1924C61.2777 12.5604 61.9257 12.7444 62.7577 12.7444ZM69.5504 13.8484V4.08039H70.9424L71.1104 6.64839C71.2064 6.21639 71.3984 5.80039 71.6864 5.40039C71.9744 5.00039 72.3664 4.68039 72.8624 4.44039C73.3744 4.18439 74.0064 4.06439 74.7584 4.08039H75.2144V5.78439H74.7344C73.7104 5.78439 72.9344 5.93639 72.4064 6.24039C71.8944 6.52839 71.5424 6.93639 71.3504 7.46439C71.1744 7.99239 71.0864 8.60039 71.0864 9.28839V13.8484H69.5504ZM78.3526 13.8724H76.7926V0.336388H78.3526V9.43239L83.6806 4.05639H85.6486L81.3766 8.28039L85.7446 13.8724H83.8486L80.2726 9.36039L78.3526 11.2564V13.8724ZM94.841 13.8484H93.305V0.336388H102.641V1.70439H94.841V6.02439H100.985V7.32039H94.841V13.8484ZM104.357 13.8484V0.336388H105.869V13.8484H104.357ZM112.445 14.0884C110.877 14.0884 109.701 13.6244 108.917 12.6964C108.149 11.7524 107.765 10.5524 107.765 9.09639C107.749 7.62439 108.133 6.42439 108.917 5.49639C109.717 4.55239 110.893 4.07239 112.445 4.05639C113.981 4.05639 115.141 4.52039 115.925 5.44839C116.725 6.36039 117.125 7.57639 117.125 9.09639C117.125 10.0404 116.957 10.8884 116.621 11.6404C116.285 12.3924 115.773 12.9924 115.085 13.4404C114.397 13.8724 113.517 14.0884 112.445 14.0884ZM112.445 12.7444C113.277 12.7444 113.917 12.5604 114.365 12.1924C114.829 11.8244 115.149 11.3604 115.325 10.8004C115.517 10.2244 115.613 9.64039 115.613 9.04839C115.613 8.45639 115.517 7.87239 115.325 7.29639C115.149 6.72039 114.829 6.24839 114.365 5.88039C113.917 5.51239 113.277 5.32839 112.445 5.32839C111.613 5.32839 110.965 5.51239 110.501 5.88039C110.053 6.24839 109.733 6.72039 109.541 7.29639C109.365 7.87239 109.277 8.45639 109.277 9.04839C109.277 9.64039 109.365 10.2244 109.541 10.8004C109.733 11.3604 110.053 11.8244 110.501 12.1924C110.965 12.5604 111.613 12.7444 112.445 12.7444ZM120.774 13.8484L118.158 4.41639V4.05639H119.646L121.854 12.5284H121.902L124.422 4.05639H125.79L128.382 12.5284H128.43L130.59 4.05639H132.078V4.41639L129.486 13.8484H127.278L125.142 6.74439H125.094L122.982 13.8484H120.774ZM143.066 14.0884C142.138 14.0884 141.37 13.8964 140.762 13.5124C140.17 13.1124 139.722 12.6484 139.418 12.1204C139.13 11.5924 138.986 11.1204 138.986 10.7044H140.474C140.474 10.7204 140.482 10.8404 140.498 11.0644C140.53 11.2884 140.618 11.5444 140.762 11.8324C140.906 12.1204 141.154 12.3764 141.506 12.6004C141.858 12.8084 142.37 12.9124 143.042 12.9124C143.762 12.9124 144.378 12.7844 144.89 12.5284C145.418 12.2724 145.674 11.8724 145.658 11.3284C145.658 10.8644 145.498 10.5124 145.178 10.2724C144.874 10.0164 144.474 9.82439 143.978 9.69639C143.482 9.55239 142.962 9.41639 142.418 9.28839C141.874 9.16039 141.354 9.00039 140.858 8.80839C140.378 8.60039 139.986 8.31239 139.682 7.94439C139.378 7.57639 139.226 7.06439 139.226 6.40839C139.226 5.60839 139.586 4.97639 140.306 4.51239C141.026 4.03239 141.946 3.79239 143.066 3.79239C143.69 3.79239 144.322 3.89639 144.962 4.10439C145.602 4.29639 146.13 4.64039 146.546 5.13639C146.962 5.61639 147.154 6.29639 147.122 7.17639H145.682C145.714 6.56839 145.578 6.11239 145.274 5.80839C144.97 5.50439 144.602 5.30439 144.17 5.20839C143.754 5.09639 143.37 5.04039 143.018 5.04039C142.33 5.04039 141.762 5.16839 141.314 5.42439C140.882 5.68039 140.666 6.04039 140.666 6.50439C140.666 6.95239 140.818 7.29639 141.122 7.53639C141.442 7.76039 141.842 7.94439 142.322 8.08839C142.818 8.21639 143.338 8.34439 143.882 8.47239C144.442 8.58439 144.97 8.74439 145.466 8.95239C145.962 9.16039 146.362 9.45639 146.666 9.84039C146.986 10.2244 147.146 10.7524 147.146 11.4244C147.146 12.3524 146.754 13.0324 145.97 13.4644C145.186 13.8804 144.218 14.0884 143.066 14.0884ZM148.93 13.8484V0.336388H150.49V6.50439H150.538C150.57 6.42439 150.642 6.25639 150.754 6.00039C150.882 5.74439 151.074 5.47239 151.33 5.18439C151.586 4.88039 151.93 4.62439 152.362 4.41639C152.794 4.19239 153.338 4.08039 153.994 4.08039C154.826 4.08039 155.49 4.24039 155.986 4.56039C156.482 4.86439 156.85 5.27239 157.09 5.78439C157.346 6.28039 157.514 6.81639 157.594 7.39239C157.674 7.96839 157.714 8.51239 157.714 9.02439V13.8484H156.202V9.02439C156.202 7.96839 156.018 7.11239 155.65 6.45639C155.298 5.80039 154.602 5.47239 153.562 5.47239C152.826 5.47239 152.234 5.64839 151.786 6.00039C151.338 6.33639 151.01 6.79239 150.802 7.36839C150.594 7.92839 150.49 8.54439 150.49 9.21639V13.8484H148.93ZM164.125 14.0884C162.557 14.0884 161.381 13.6244 160.597 12.6964C159.829 11.7524 159.445 10.5524 159.445 9.09639C159.429 7.62439 159.813 6.42439 160.597 5.49639C161.397 4.55239 162.573 4.07239 164.125 4.05639C165.661 4.05639 166.821 4.52039 167.605 5.44839C168.405 6.36039 168.805 7.57639 168.805 9.09639C168.805 10.0404 168.637 10.8884 168.301 11.6404C167.965 12.3924 167.453 12.9924 166.765 13.4404C166.077 13.8724 165.197 14.0884 164.125 14.0884ZM164.125 12.7444C164.957 12.7444 165.597 12.5604 166.045 12.1924C166.509 11.8244 166.829 11.3604 167.005 10.8004C167.197 10.2244 167.293 9.64039 167.293 9.04839C167.293 8.45639 167.197 7.87239 167.005 7.29639C166.829 6.72039 166.509 6.24839 166.045 5.88039C165.597 5.51239 164.957 5.32839 164.125 5.32839C163.293 5.32839 162.645 5.51239 162.181 5.88039C161.733 6.24839 161.413 6.72039 161.221 7.29639C161.045 7.87239 160.957 8.45639 160.957 9.04839C160.957 9.64039 161.045 10.2244 161.221 10.8004C161.413 11.3604 161.733 11.8244 162.181 12.1924C162.645 12.5604 163.293 12.7444 164.125 12.7444ZM172.454 13.8484L169.838 4.41639V4.05639H171.326L173.534 12.5284H173.582L176.102 4.05639H177.47L180.062 12.5284H180.11L182.27 4.05639H183.758V4.41639L181.166 13.8484H178.958L176.822 6.74439H176.774L174.662 13.8484H172.454ZM189.05 14.0884C188.122 14.0884 187.354 13.8964 186.746 13.5124C186.154 13.1124 185.706 12.6484 185.402 12.1204C185.114 11.5924 184.97 11.1204 184.97 10.7044H186.458C186.458 10.7204 186.466 10.8404 186.482 11.0644C186.514 11.2884 186.602 11.5444 186.746 11.8324C186.89 12.1204 187.138 12.3764 187.49 12.6004C187.842 12.8084 188.354 12.9124 189.026 12.9124C189.746 12.9124 190.362 12.7844 190.874 12.5284C191.402 12.2724 191.658 11.8724 191.642 11.3284C191.642 10.8644 191.482 10.5124 191.162 10.2724C190.858 10.0164 190.458 9.82439 189.962 9.69639C189.466 9.55239 188.946 9.41639 188.402 9.28839C187.858 9.16039 187.338 9.00039 186.842 8.80839C186.362 8.60039 185.97 8.31239 185.666 7.94439C185.362 7.57639 185.21 7.06439 185.21 6.40839C185.21 5.60839 185.57 4.97639 186.29 4.51239C187.01 4.03239 187.93 3.79239 189.05 3.79239C189.674 3.79239 190.306 3.89639 190.946 4.10439C191.586 4.29639 192.114 4.64039 192.53 5.13639C192.946 5.61639 193.138 6.29639 193.106 7.17639H191.666C191.698 6.56839 191.562 6.11239 191.258 5.80839C190.954 5.50439 190.586 5.30439 190.154 5.20839C189.738 5.09639 189.354 5.04039 189.002 5.04039C188.314 5.04039 187.746 5.16839 187.298 5.42439C186.866 5.68039 186.65 6.04039 186.65 6.50439C186.65 6.95239 186.802 7.29639 187.106 7.53639C187.426 7.76039 187.826 7.94439 188.306 8.08839C188.802 8.21639 189.322 8.34439 189.866 8.47239C190.426 8.58439 190.954 8.74439 191.45 8.95239C191.946 9.16039 192.346 9.45639 192.65 9.84039C192.97 10.2244 193.13 10.7524 193.13 11.4244C193.13 12.3524 192.738 13.0324 191.954 13.4644C191.17 13.8804 190.202 14.0884 189.05 14.0884ZM204.93 14.0884C203.362 14.0884 202.186 13.6244 201.402 12.6964C200.634 11.7524 200.25 10.5524 200.25 9.09639C200.234 7.62439 200.618 6.42439 201.402 5.49639C202.202 4.55239 203.378 4.07239 204.93 4.05639C206.466 4.05639 207.626 4.52039 208.41 5.44839C209.21 6.36039 209.61 7.57639 209.61 9.09639C209.61 10.0404 209.442 10.8884 209.106 11.6404C208.77 12.3924 208.258 12.9924 207.57 13.4404C206.882 13.8724 206.002 14.0884 204.93 14.0884ZM204.93 12.7444C205.762 12.7444 206.402 12.5604 206.85 12.1924C207.314 11.8244 207.634 11.3604 207.81 10.8004C208.002 10.2244 208.098 9.64039 208.098 9.04839C208.098 8.45639 208.002 7.87239 207.81 7.29639C207.634 6.72039 207.314 6.24839 206.85 5.88039C206.402 5.51239 205.762 5.32839 204.93 5.32839C204.098 5.32839 203.45 5.51239 202.986 5.88039C202.538 6.24839 202.218 6.72039 202.026 7.29639C201.85 7.87239 201.762 8.45639 201.762 9.04839C201.762 9.64039 201.85 10.2244 202.026 10.8004C202.218 11.3604 202.538 11.8244 202.986 12.1924C203.45 12.5604 204.098 12.7444 204.93 12.7444ZM215.106 14.0884C214.306 14.0884 213.658 13.9444 213.162 13.6564C212.682 13.3684 212.314 12.9844 212.058 12.5044C211.802 12.0084 211.626 11.4724 211.53 10.8964C211.45 10.3044 211.41 9.71239 211.41 9.12039V4.08039H212.946V9.14439C212.946 9.78439 213.01 10.3764 213.138 10.9204C213.266 11.4644 213.522 11.8964 213.906 12.2164C214.306 12.5364 214.882 12.6964 215.634 12.6964C216.354 12.6964 216.914 12.5364 217.314 12.2164C217.73 11.8804 218.034 11.4484 218.226 10.9204C218.418 10.3924 218.53 9.84039 218.562 9.26439V4.08039H220.146V13.8484H218.826L218.562 11.6644H218.514C218.434 11.9364 218.266 12.2644 218.01 12.6484C217.754 13.0324 217.386 13.3684 216.906 13.6564C216.442 13.9444 215.842 14.0884 215.106 14.0884ZM222.41 13.8484V4.08039H223.802L223.97 6.64839C224.066 6.21639 224.258 5.80039 224.546 5.40039C224.834 5.00039 225.226 4.68039 225.722 4.44039C226.234 4.18439 226.866 4.06439 227.618 4.08039H228.074V5.78439H227.594C226.57 5.78439 225.794 5.93639 225.266 6.24039C224.754 6.52839 224.402 6.93639 224.21 7.46439C224.034 7.99239 223.946 8.60039 223.946 9.28839V13.8484H222.41ZM237.243 13.8484H235.707V0.336388H240.843C242.331 0.336388 243.467 0.696388 244.251 1.41639C245.035 2.13639 245.427 3.20839 245.427 4.63239C245.427 5.96039 245.019 6.98439 244.203 7.70439C243.403 8.42439 242.283 8.78439 240.843 8.78439H237.243V13.8484ZM240.675 1.65639H237.243V7.58439H240.675C241.731 7.58439 242.547 7.34439 243.123 6.86439C243.715 6.36839 244.011 5.62439 244.011 4.63239C244.011 3.60839 243.723 2.85639 243.147 2.37639C242.587 1.89639 241.763 1.65639 240.675 1.65639ZM247.09 13.8484V4.08039H248.482L248.65 6.64839C248.746 6.21639 248.938 5.80039 249.226 5.40039C249.514 5.00039 249.906 4.68039 250.402 4.44039C250.914 4.18439 251.546 4.06439 252.298 4.08039H252.754V5.78439H252.273C251.25 5.78439 250.474 5.93639 249.946 6.24039C249.434 6.52839 249.082 6.93639 248.89 7.46439C248.714 7.99239 248.626 8.60039 248.626 9.28839V13.8484H247.09ZM258.344 14.0884C256.776 14.0884 255.6 13.6244 254.816 12.6964C254.048 11.7524 253.664 10.5524 253.664 9.09639C253.648 7.62439 254.032 6.42439 254.816 5.49639C255.616 4.55239 256.792 4.07239 258.344 4.05639C259.88 4.05639 261.04 4.52039 261.824 5.44839C262.624 6.36039 263.024 7.57639 263.024 9.09639C263.024 10.0404 262.856 10.8884 262.52 11.6404C262.184 12.3924 261.672 12.9924 260.984 13.4404C260.296 13.8724 259.416 14.0884 258.344 14.0884ZM258.344 12.7444C259.176 12.7444 259.816 12.5604 260.264 12.1924C260.728 11.8244 261.048 11.3604 261.224 10.8004C261.416 10.2244 261.512 9.64039 261.512 9.04839C261.512 8.45639 261.416 7.87239 261.224 7.29639C261.048 6.72039 260.728 6.24839 260.264 5.88039C259.816 5.51239 259.176 5.32839 258.344 5.32839C257.512 5.32839 256.864 5.51239 256.4 5.88039C255.952 6.24839 255.632 6.72039 255.44 7.29639C255.264 7.87239 255.176 8.45639 255.176 9.04839C255.176 9.64039 255.264 10.2244 255.44 10.8004C255.632 11.3604 255.952 11.8244 256.4 12.1924C256.864 12.5604 257.512 12.7444 258.344 12.7444ZM265.808 13.9204V5.23239H264.296V4.08039H265.808V1.92039C265.808 1.36039 265.92 0.920388 266.144 0.600388C266.384 0.280388 266.8 0.120388 267.392 0.120388H270.296V1.39239H267.368V4.08039H270.128V5.23239H267.368V13.9204H265.808ZM275.758 14.0884C274.686 14.0884 273.798 13.8484 273.094 13.3684C272.406 12.8724 271.894 12.2404 271.558 11.4724C271.238 10.6884 271.078 9.88039 271.078 9.04839C271.078 8.13639 271.254 7.30439 271.606 6.55239C271.974 5.78439 272.502 5.17639 273.19 4.72839C273.894 4.28039 274.734 4.05639 275.71 4.05639C276.958 4.05639 277.998 4.46439 278.83 5.28039C279.662 6.08039 280.11 7.16039 280.174 8.52039C280.19 8.58439 280.198 8.68039 280.198 8.80839C280.198 8.92039 280.198 9.02439 280.198 9.12039H272.566C272.566 10.2564 272.838 11.1524 273.382 11.8084C273.942 12.4484 274.726 12.7684 275.734 12.7684C276.486 12.7684 277.126 12.5764 277.654 12.1924C278.198 11.8084 278.534 11.2884 278.662 10.6324H280.174C280.014 11.6244 279.542 12.4484 278.758 13.1044C277.974 13.7604 276.974 14.0884 275.758 14.0884ZM272.614 8.28039H278.614C278.614 7.94439 278.518 7.54439 278.326 7.08039C278.15 6.61639 277.846 6.21639 277.414 5.88039C276.998 5.52839 276.422 5.35239 275.686 5.35239C275.014 5.35239 274.462 5.49639 274.03 5.78439C273.598 6.07239 273.27 6.44039 273.046 6.88839C272.822 7.33639 272.678 7.80039 272.614 8.28039ZM286.034 14.0884C285.106 14.0884 284.338 13.8964 283.73 13.5124C283.138 13.1124 282.69 12.6484 282.386 12.1204C282.098 11.5924 281.954 11.1204 281.954 10.7044H283.442C283.442 10.7204 283.45 10.8404 283.466 11.0644C283.498 11.2884 283.586 11.5444 283.73 11.8324C283.874 12.1204 284.122 12.3764 284.474 12.6004C284.826 12.8084 285.338 12.9124 286.01 12.9124C286.73 12.9124 287.346 12.7844 287.858 12.5284C288.386 12.2724 288.642 11.8724 288.626 11.3284C288.626 10.8644 288.466 10.5124 288.146 10.2724C287.842 10.0164 287.442 9.82439 286.946 9.69639C286.45 9.55239 285.93 9.41639 285.386 9.28839C284.842 9.16039 284.322 9.00039 283.826 8.80839C283.346 8.60039 282.954 8.31239 282.65 7.94439C282.346 7.57639 282.194 7.06439 282.194 6.40839C282.194 5.60839 282.554 4.97639 283.274 4.51239C283.994 4.03239 284.914 3.79239 286.034 3.79239C286.658 3.79239 287.29 3.89639 287.93 4.10439C288.57 4.29639 289.098 4.64039 289.514 5.13639C289.93 5.61639 290.122 6.29639 290.09 7.17639H288.65C288.682 6.56839 288.546 6.11239 288.242 5.80839C287.938 5.50439 287.57 5.30439 287.138 5.20839C286.722 5.09639 286.338 5.04039 285.986 5.04039C285.298 5.04039 284.73 5.16839 284.282 5.42439C283.85 5.68039 283.634 6.04039 283.634 6.50439C283.634 6.95239 283.786 7.29639 284.09 7.53639C284.41 7.76039 284.81 7.94439 285.29 8.08839C285.786 8.21639 286.306 8.34439 286.85 8.47239C287.41 8.58439 287.938 8.74439 288.434 8.95239C288.93 9.16039 289.33 9.45639 289.634 9.84039C289.954 10.2244 290.114 10.7524 290.114 11.4244C290.114 12.3524 289.722 13.0324 288.938 13.4644C288.154 13.8804 287.186 14.0884 286.034 14.0884ZM295.573 14.0884C294.645 14.0884 293.877 13.8964 293.269 13.5124C292.677 13.1124 292.229 12.6484 291.925 12.1204C291.637 11.5924 291.493 11.1204 291.493 10.7044H292.981C292.981 10.7204 292.989 10.8404 293.005 11.0644C293.037 11.2884 293.125 11.5444 293.269 11.8324C293.413 12.1204 293.661 12.3764 294.013 12.6004C294.365 12.8084 294.877 12.9124 295.549 12.9124C296.269 12.9124 296.885 12.7844 297.397 12.5284C297.925 12.2724 298.181 11.8724 298.165 11.3284C298.165 10.8644 298.005 10.5124 297.685 10.2724C297.381 10.0164 296.981 9.82439 296.485 9.69639C295.989 9.55239 295.469 9.41639 294.925 9.28839C294.381 9.16039 293.861 9.00039 293.365 8.80839C292.885 8.60039 292.493 8.31239 292.189 7.94439C291.885 7.57639 291.733 7.06439 291.733 6.40839C291.733 5.60839 292.093 4.97639 292.813 4.51239C293.533 4.03239 294.453 3.79239 295.573 3.79239C296.197 3.79239 296.829 3.89639 297.469 4.10439C298.109 4.29639 298.637 4.64039 299.053 5.13639C299.469 5.61639 299.661 6.29639 299.629 7.17639H298.189C298.221 6.56839 298.085 6.11239 297.781 5.80839C297.477 5.50439 297.109 5.30439 296.677 5.20839C296.261 5.09639 295.877 5.04039 295.525 5.04039C294.837 5.04039 294.269 5.16839 293.821 5.42439C293.389 5.68039 293.173 6.04039 293.173 6.50439C293.173 6.95239 293.325 7.29639 293.629 7.53639C293.949 7.76039 294.349 7.94439 294.829 8.08839C295.325 8.21639 295.845 8.34439 296.389 8.47239C296.949 8.58439 297.477 8.74439 297.973 8.95239C298.469 9.16039 298.869 9.45639 299.173 9.84039C299.493 10.2244 299.653 10.7524 299.653 11.4244C299.653 12.3524 299.261 13.0324 298.477 13.4644C297.693 13.8804 296.725 14.0884 295.573 14.0884ZM302.566 3.02439C302.214 3.02439 301.974 2.93639 301.846 2.76039C301.734 2.56839 301.678 2.32839 301.678 2.04039C301.678 1.80039 301.734 1.59239 301.846 1.41639C301.974 1.22439 302.214 1.12839 302.566 1.12839C302.918 1.12839 303.15 1.22439 303.262 1.41639C303.39 1.59239 303.454 1.80039 303.454 2.04039C303.454 2.32839 303.39 2.56839 303.262 2.76039C303.15 2.93639 302.918 3.02439 302.566 3.02439ZM301.798 13.8484V4.08039H303.334V13.8484H301.798ZM310 14.0884C308.432 14.0884 307.256 13.6244 306.472 12.6964C305.704 11.7524 305.32 10.5524 305.32 9.09639C305.304 7.62439 305.688 6.42439 306.472 5.49639C307.272 4.55239 308.448 4.07239 310 4.05639C311.536 4.05639 312.696 4.52039 313.48 5.44839C314.28 6.36039 314.68 7.57639 314.68 9.09639C314.68 10.0404 314.512 10.8884 314.176 11.6404C313.84 12.3924 313.328 12.9924 312.64 13.4404C311.952 13.8724 311.072 14.0884 310 14.0884ZM310 12.7444C310.832 12.7444 311.472 12.5604 311.92 12.1924C312.384 11.8244 312.704 11.3604 312.88 10.8004C313.072 10.2244 313.168 9.64039 313.168 9.04839C313.168 8.45639 313.072 7.87239 312.88 7.29639C312.704 6.72039 312.384 6.24839 311.92 5.88039C311.472 5.51239 310.832 5.32839 310 5.32839C309.168 5.32839 308.52 5.51239 308.056 5.88039C307.608 6.24839 307.288 6.72039 307.096 7.29639C306.92 7.87239 306.832 8.45639 306.832 9.04839C306.832 9.64039 306.92 10.2244 307.096 10.8004C307.288 11.3604 307.608 11.8244 308.056 12.1924C308.52 12.5604 309.168 12.7444 310 12.7444ZM316.553 13.8484V4.08039H317.873L318.137 6.50439H318.185C318.201 6.42439 318.273 6.25639 318.401 6.00039C318.529 5.74439 318.721 5.47239 318.977 5.18439C319.249 4.88039 319.601 4.62439 320.033 4.41639C320.465 4.19239 321.017 4.08039 321.689 4.08039C322.537 4.08039 323.201 4.23239 323.681 4.53639C324.177 4.84039 324.545 5.24839 324.785 5.76039C325.025 6.25639 325.177 6.79239 325.241 7.36839C325.305 7.94439 325.337 8.49639 325.337 9.02439V13.8484H323.849V9.02439C323.849 7.96839 323.665 7.11239 323.297 6.45639C322.945 5.80039 322.241 5.47239 321.185 5.47239C320.465 5.47239 319.873 5.64839 319.409 6.00039C318.961 6.33639 318.633 6.79239 318.425 7.36839C318.233 7.92839 318.137 8.54439 318.137 9.21639V13.8484H316.553ZM330.696 14.0644C329.8 14.0644 329.064 13.8484 328.488 13.4164C327.912 12.9684 327.48 12.3684 327.192 11.6164C326.92 10.8644 326.784 10.0084 326.784 9.04839C326.784 7.57639 327.104 6.36839 327.744 5.42439C328.4 4.46439 329.384 3.98439 330.696 3.98439C331.368 3.98439 331.928 4.10439 332.376 4.34439C332.84 4.56839 333.208 4.84839 333.48 5.18439C333.768 5.52039 333.976 5.84039 334.104 6.14439H334.128V4.08039H335.712V13.8484H334.392L334.152 11.9524H334.104C333.96 12.2724 333.752 12.6004 333.48 12.9364C333.208 13.2564 332.84 13.5284 332.376 13.7524C331.928 13.9604 331.368 14.0644 330.696 14.0644ZM331.296 12.6964C332.288 12.6964 333 12.3684 333.432 11.7124C333.88 11.0564 334.104 10.1764 334.104 9.07239C334.104 7.88839 333.872 6.98439 333.408 6.36039C332.96 5.73639 332.256 5.42439 331.296 5.42439C330.24 5.42439 329.48 5.77639 329.016 6.48039C328.568 7.16839 328.344 8.02439 328.344 9.04839C328.344 10.1204 328.576 11.0004 329.04 11.6884C329.504 12.3604 330.256 12.6964 331.296 12.6964ZM337.842 13.8484V0.336388H339.354V13.8484H337.842ZM342.738 3.02439C342.386 3.02439 342.146 2.93639 342.018 2.76039C341.906 2.56839 341.85 2.32839 341.85 2.04039C341.85 1.80039 341.906 1.59239 342.018 1.41639C342.146 1.22439 342.386 1.12839 342.738 1.12839C343.09 1.12839 343.322 1.22439 343.434 1.41639C343.562 1.59239 343.626 1.80039 343.626 2.04039C343.626 2.32839 343.562 2.56839 343.434 2.76039C343.322 2.93639 343.09 3.02439 342.738 3.02439ZM341.97 13.8484V4.08039H343.506V13.8484H341.97ZM349.644 14.0884C348.716 14.0884 347.948 13.8964 347.34 13.5124C346.748 13.1124 346.3 12.6484 345.996 12.1204C345.708 11.5924 345.564 11.1204 345.564 10.7044H347.052C347.052 10.7204 347.06 10.8404 347.076 11.0644C347.108 11.2884 347.196 11.5444 347.34 11.8324C347.484 12.1204 347.732 12.3764 348.084 12.6004C348.436 12.8084 348.948 12.9124 349.62 12.9124C350.34 12.9124 350.956 12.7844 351.468 12.5284C351.996 12.2724 352.252 11.8724 352.236 11.3284C352.236 10.8644 352.076 10.5124 351.756 10.2724C351.452 10.0164 351.052 9.82439 350.556 9.69639C350.06 9.55239 349.54 9.41639 348.996 9.28839C348.452 9.16039 347.932 9.00039 347.436 8.80839C346.956 8.60039 346.564 8.31239 346.26 7.94439C345.956 7.57639 345.804 7.06439 345.804 6.40839C345.804 5.60839 346.164 4.97639 346.884 4.51239C347.604 4.03239 348.524 3.79239 349.644 3.79239C350.268 3.79239 350.9 3.89639 351.54 4.10439C352.18 4.29639 352.708 4.64039 353.124 5.13639C353.54 5.61639 353.732 6.29639 353.7 7.17639H352.26C352.292 6.56839 352.156 6.11239 351.852 5.80839C351.548 5.50439 351.18 5.30439 350.748 5.20839C350.332 5.09639 349.948 5.04039 349.596 5.04039C348.908 5.04039 348.34 5.16839 347.892 5.42439C347.46 5.68039 347.244 6.04039 347.244 6.50439C347.244 6.95239 347.396 7.29639 347.7 7.53639C348.02 7.76039 348.42 7.94439 348.9 8.08839C349.396 8.21639 349.916 8.34439 350.46 8.47239C351.02 8.58439 351.548 8.74439 352.044 8.95239C352.54 9.16039 352.94 9.45639 353.244 9.84039C353.564 10.2244 353.724 10.7524 353.724 11.4244C353.724 12.3524 353.332 13.0324 352.548 13.4644C351.764 13.8804 350.796 14.0884 349.644 14.0884ZM355.412 13.8484V4.08039H356.732L356.828 6.50439H356.876C356.908 6.39239 356.98 6.20839 357.092 5.95239C357.204 5.68039 357.38 5.40039 357.62 5.11239C357.86 4.82439 358.172 4.58439 358.556 4.39239C358.94 4.18439 359.428 4.08039 360.02 4.08039C360.916 4.08039 361.572 4.32839 361.988 4.82439C362.42 5.32039 362.708 5.88039 362.852 6.50439H362.9C362.948 6.39239 363.036 6.20839 363.164 5.95239C363.292 5.68039 363.484 5.40039 363.74 5.11239C363.996 4.82439 364.324 4.58439 364.724 4.39239C365.14 4.18439 365.644 4.08039 366.236 4.08039C366.86 4.08039 367.372 4.20839 367.772 4.46439C368.172 4.70439 368.476 5.03239 368.684 5.44839C368.908 5.84839 369.068 6.27239 369.164 6.72039C369.26 7.16839 369.316 7.60039 369.332 8.01639C369.348 8.43239 369.356 8.76839 369.356 9.02439V13.8484H368.012V9.02439C368.012 8.76839 367.996 8.44039 367.964 8.04039C367.932 7.64039 367.852 7.24839 367.724 6.86439C367.596 6.46439 367.372 6.13639 367.052 5.88039C366.748 5.60839 366.308 5.47239 365.732 5.47239C365.092 5.47239 364.58 5.64839 364.196 6.00039C363.812 6.35239 363.532 6.81639 363.356 7.39239C363.18 7.95239 363.092 8.56039 363.092 9.21639V13.8484H361.748V9.02439C361.748 8.76839 361.732 8.44039 361.7 8.04039C361.668 7.64039 361.588 7.24839 361.46 6.86439C361.332 6.46439 361.108 6.13639 360.788 5.88039C360.484 5.60839 360.044 5.47239 359.468 5.47239C358.828 5.47239 358.316 5.64839 357.932 6.00039C357.548 6.35239 357.268 6.81639 357.092 7.39239C356.916 7.95239 356.828 8.56039 356.828 9.21639V13.8484H355.412ZM378.175 3.02439C377.823 3.02439 377.583 2.93639 377.455 2.76039C377.343 2.56839 377.287 2.32839 377.287 2.04039C377.287 1.80039 377.343 1.59239 377.455 1.41639C377.583 1.22439 377.823 1.12839 378.175 1.12839C378.527 1.12839 378.759 1.22439 378.871 1.41639C378.999 1.59239 379.063 1.80039 379.063 2.04039C379.063 2.32839 378.999 2.56839 378.871 2.76039C378.759 2.93639 378.527 3.02439 378.175 3.02439ZM377.407 13.8484V4.08039H378.943V13.8484H377.407ZM381.193 13.8484V4.08039H382.513L382.777 6.50439H382.825C382.841 6.42439 382.913 6.25639 383.041 6.00039C383.169 5.74439 383.361 5.47239 383.617 5.18439C383.889 4.88039 384.241 4.62439 384.673 4.41639C385.105 4.19239 385.657 4.08039 386.329 4.08039C387.177 4.08039 387.841 4.23239 388.321 4.53639C388.817 4.84039 389.185 5.24839 389.425 5.76039C389.665 6.25639 389.817 6.79239 389.881 7.36839C389.945 7.94439 389.977 8.49639 389.977 9.02439V13.8484H388.489V9.02439C388.489 7.96839 388.305 7.11239 387.937 6.45639C387.585 5.80039 386.881 5.47239 385.825 5.47239C385.105 5.47239 384.513 5.64839 384.049 6.00039C383.601 6.33639 383.273 6.79239 383.065 7.36839C382.873 7.92839 382.777 8.54439 382.777 9.21639V13.8484H381.193ZM403.864 14.0884C402.616 14.0884 401.496 13.8324 400.504 13.3204C399.512 12.7924 398.72 12.0084 398.128 10.9684C397.552 9.92839 397.272 8.64839 397.288 7.12839C397.288 5.59239 397.568 4.30439 398.128 3.26439C398.704 2.20839 399.496 1.41639 400.504 0.888388C401.512 0.360388 402.664 0.0963883 403.96 0.0963883C405.624 0.0963883 406.984 0.544388 408.04 1.44039C409.096 2.32039 409.768 3.53639 410.056 5.08839H408.448C408.24 3.87239 407.712 2.97639 406.864 2.40039C406.016 1.82439 405.048 1.53639 403.96 1.53639C402.36 1.53639 401.104 2.01639 400.192 2.97639C399.28 3.92039 398.824 5.27239 398.824 7.03239C398.824 8.87239 399.264 10.2724 400.144 11.2324C401.04 12.1764 402.288 12.6484 403.888 12.6484C405.088 12.6484 406.112 12.3604 406.96 11.7844C407.808 11.1924 408.328 10.2964 408.52 9.09639H410.152C409.864 10.6324 409.184 11.8484 408.112 12.7444C407.056 13.6404 405.64 14.0884 403.864 14.0884ZM412.232 13.8484V0.336388H413.744V13.8484H412.232ZM420.344 14.0884C419.272 14.0884 418.384 13.8484 417.68 13.3684C416.992 12.8724 416.48 12.2404 416.144 11.4724C415.824 10.6884 415.664 9.88039 415.664 9.04839C415.664 8.13639 415.84 7.30439 416.192 6.55239C416.56 5.78439 417.088 5.17639 417.776 4.72839C418.48 4.28039 419.32 4.05639 420.296 4.05639C421.544 4.05639 422.584 4.46439 423.416 5.28039C424.248 6.08039 424.696 7.16039 424.76 8.52039C424.776 8.58439 424.784 8.68039 424.784 8.80839C424.784 8.92039 424.784 9.02439 424.784 9.12039H417.152C417.152 10.2564 417.424 11.1524 417.968 11.8084C418.528 12.4484 419.312 12.7684 420.32 12.7684C421.072 12.7684 421.712 12.5764 422.24 12.1924C422.784 11.8084 423.12 11.2884 423.248 10.6324H424.76C424.6 11.6244 424.128 12.4484 423.344 13.1044C422.56 13.7604 421.56 14.0884 420.344 14.0884ZM417.2 8.28039H423.2C423.2 7.94439 423.104 7.54439 422.912 7.08039C422.736 6.61639 422.432 6.21639 422 5.88039C421.584 5.52839 421.008 5.35239 420.272 5.35239C419.6 5.35239 419.048 5.49639 418.616 5.78439C418.184 6.07239 417.856 6.44039 417.632 6.88839C417.408 7.33639 417.264 7.80039 417.2 8.28039ZM430.164 14.0644C429.268 14.0644 428.532 13.8484 427.956 13.4164C427.38 12.9684 426.948 12.3684 426.66 11.6164C426.388 10.8644 426.252 10.0084 426.252 9.04839C426.252 7.57639 426.572 6.36839 427.212 5.42439C427.868 4.46439 428.852 3.98439 430.164 3.98439C430.836 3.98439 431.396 4.10439 431.844 4.34439C432.308 4.56839 432.676 4.84839 432.948 5.18439C433.236 5.52039 433.444 5.84039 433.572 6.14439H433.596V4.08039H435.18V13.8484H433.86L433.62 11.9524H433.572C433.428 12.2724 433.22 12.6004 432.948 12.9364C432.676 13.2564 432.308 13.5284 431.844 13.7524C431.396 13.9604 430.836 14.0644 430.164 14.0644ZM430.764 12.6964C431.756 12.6964 432.468 12.3684 432.9 11.7124C433.348 11.0564 433.572 10.1764 433.572 9.07239C433.572 7.88839 433.34 6.98439 432.876 6.36039C432.428 5.73639 431.724 5.42439 430.764 5.42439C429.708 5.42439 428.948 5.77639 428.484 6.48039C428.036 7.16839 427.812 8.02439 427.812 9.04839C427.812 10.1204 428.044 11.0004 428.508 11.6884C428.972 12.3604 429.724 12.6964 430.764 12.6964ZM436.975 13.8484V4.08039H438.295L438.559 6.50439H438.607C438.623 6.42439 438.695 6.25639 438.823 6.00039C438.951 5.74439 439.143 5.47239 439.399 5.18439C439.671 4.88039 440.023 4.62439 440.455 4.41639C440.887 4.19239 441.439 4.08039 442.111 4.08039C442.959 4.08039 443.623 4.23239 444.103 4.53639C444.599 4.84039 444.967 5.24839 445.207 5.76039C445.447 6.25639 445.599 6.79239 445.663 7.36839C445.727 7.94439 445.759 8.49639 445.759 9.02439V13.8484H444.271V9.02439C444.271 7.96839 444.087 7.11239 443.719 6.45639C443.367 5.80039 442.663 5.47239 441.607 5.47239C440.887 5.47239 440.295 5.64839 439.831 6.00039C439.383 6.33639 439.055 6.79239 438.847 7.36839C438.655 7.92839 438.559 8.54439 438.559 9.21639V13.8484H436.975ZM448.909 3.02439C448.557 3.02439 448.317 2.93639 448.189 2.76039C448.077 2.56839 448.021 2.32839 448.021 2.04039C448.021 1.80039 448.077 1.59239 448.189 1.41639C448.317 1.22439 448.557 1.12839 448.909 1.12839C449.261 1.12839 449.493 1.22439 449.605 1.41639C449.733 1.59239 449.797 1.80039 449.797 2.04039C449.797 2.32839 449.733 2.56839 449.605 2.76039C449.493 2.93639 449.261 3.02439 448.909 3.02439ZM448.141 13.8484V4.08039H449.677V13.8484H448.141ZM451.928 13.8484V4.08039H453.248L453.512 6.50439H453.56C453.576 6.42439 453.648 6.25639 453.776 6.00039C453.904 5.74439 454.096 5.47239 454.352 5.18439C454.624 4.88039 454.976 4.62439 455.408 4.41639C455.84 4.19239 456.392 4.08039 457.064 4.08039C457.912 4.08039 458.576 4.23239 459.056 4.53639C459.552 4.84039 459.92 5.24839 460.16 5.76039C460.4 6.25639 460.552 6.79239 460.616 7.36839C460.68 7.94439 460.712 8.49639 460.712 9.02439V13.8484H459.224V9.02439C459.224 7.96839 459.04 7.11239 458.672 6.45639C458.32 5.80039 457.616 5.47239 456.56 5.47239C455.84 5.47239 455.248 5.64839 454.784 6.00039C454.336 6.33639 454.008 6.79239 453.8 7.36839C453.608 7.92839 453.512 8.54439 453.512 9.21639V13.8484H451.928ZM465.039 17.8804V16.4164H469.911V11.6884H469.863C469.831 11.7684 469.743 11.9364 469.599 12.1924C469.471 12.4484 469.263 12.7204 468.975 13.0084C468.703 13.2964 468.343 13.5524 467.895 13.7764C467.463 13.9844 466.935 14.0884 466.311 14.0884C465.367 14.0884 464.575 13.8724 463.935 13.4404C463.311 12.9924 462.839 12.3924 462.519 11.6404C462.199 10.8884 462.039 10.0404 462.039 9.09639C462.039 7.62439 462.399 6.42439 463.119 5.49639C463.855 4.55239 464.927 4.08039 466.335 4.08039C466.991 4.08039 467.535 4.19239 467.967 4.41639C468.415 4.62439 468.767 4.88039 469.023 5.18439C469.295 5.48839 469.495 5.76839 469.623 6.02439C469.751 6.28039 469.831 6.44839 469.863 6.52839H469.911V4.08039H471.495V15.5284C471.495 16.2964 471.351 16.8804 471.063 17.2804C470.775 17.6804 470.255 17.8804 469.503 17.8804H465.039ZM466.647 12.7204C467.607 12.7204 468.383 12.4004 468.975 11.7604C469.567 11.1044 469.863 10.2164 469.863 9.09639C469.863 7.99239 469.583 7.12039 469.023 6.48039C468.463 5.82439 467.719 5.49639 466.791 5.49639C466.023 5.49639 465.399 5.67239 464.919 6.02439C464.455 6.36039 464.111 6.80039 463.887 7.34439C463.663 7.88839 463.551 8.47239 463.551 9.09639C463.551 9.70439 463.647 10.2884 463.839 10.8484C464.047 11.3924 464.375 11.8404 464.823 12.1924C465.287 12.5444 465.895 12.7204 466.647 12.7204ZM482.664 14.0644C481.768 14.0644 481.032 13.8484 480.456 13.4164C479.88 12.9684 479.448 12.3684 479.16 11.6164C478.888 10.8644 478.752 10.0084 478.752 9.04839C478.752 7.57639 479.072 6.36839 479.712 5.42439C480.368 4.46439 481.352 3.98439 482.664 3.98439C483.336 3.98439 483.896 4.10439 484.344 4.34439C484.808 4.56839 485.176 4.84839 485.448 5.18439C485.736 5.52039 485.944 5.84039 486.072 6.14439H486.096V4.08039H487.68V13.8484H486.36L486.12 11.9524H486.072C485.928 12.2724 485.72 12.6004 485.448 12.9364C485.176 13.2564 484.808 13.5284 484.344 13.7524C483.896 13.9604 483.336 14.0644 482.664 14.0644ZM483.264 12.6964C484.256 12.6964 484.968 12.3684 485.4 11.7124C485.848 11.0564 486.072 10.1764 486.072 9.07239C486.072 7.88839 485.84 6.98439 485.376 6.36039C484.928 5.73639 484.224 5.42439 483.264 5.42439C482.208 5.42439 481.448 5.77639 480.984 6.48039C480.536 7.16839 480.312 8.02439 480.312 9.04839C480.312 10.1204 480.544 11.0004 481.008 11.6884C481.472 12.3604 482.224 12.6964 483.264 12.6964ZM489.475 13.8484V4.08039H490.795L491.059 6.50439H491.107C491.123 6.42439 491.195 6.25639 491.323 6.00039C491.451 5.74439 491.643 5.47239 491.899 5.18439C492.171 4.88039 492.523 4.62439 492.955 4.41639C493.387 4.19239 493.939 4.08039 494.611 4.08039C495.459 4.08039 496.123 4.23239 496.603 4.53639C497.099 4.84039 497.467 5.24839 497.707 5.76039C497.947 6.25639 498.099 6.79239 498.163 7.36839C498.227 7.94439 498.259 8.49639 498.259 9.02439V13.8484H496.771V9.02439C496.771 7.96839 496.587 7.11239 496.219 6.45639C495.867 5.80039 495.163 5.47239 494.107 5.47239C493.387 5.47239 492.795 5.64839 492.331 6.00039C491.883 6.33639 491.555 6.79239 491.347 7.36839C491.155 7.92839 491.059 8.54439 491.059 9.21639V13.8484H489.475ZM504.625 14.0884C503.681 14.0884 502.889 13.8724 502.249 13.4404C501.625 13.0084 501.153 12.4164 500.833 11.6644C500.529 10.8964 500.377 10.0404 500.377 9.09639C500.377 7.64039 500.737 6.44039 501.457 5.49639C502.177 4.55239 503.241 4.08039 504.649 4.08039C505.305 4.08039 505.849 4.19239 506.281 4.41639C506.729 4.62439 507.089 4.88039 507.361 5.18439C507.633 5.48839 507.833 5.76839 507.961 6.02439C508.089 6.28039 508.169 6.44839 508.201 6.52839H508.249L508.273 0.336388H509.857V13.8484H508.513L508.273 11.6884H508.225C508.193 11.7684 508.105 11.9364 507.961 12.1924C507.817 12.4484 507.601 12.7204 507.313 13.0084C507.041 13.2964 506.681 13.5524 506.233 13.7764C505.801 13.9844 505.265 14.0884 504.625 14.0884ZM505.009 12.7204C505.953 12.7204 506.721 12.4004 507.313 11.7604C507.921 11.1044 508.225 10.2164 508.225 9.09639C508.225 7.99239 507.945 7.12039 507.385 6.48039C506.825 5.82439 506.073 5.49639 505.129 5.49639C504.377 5.49639 503.761 5.67239 503.281 6.02439C502.801 6.36039 502.449 6.80039 502.225 7.34439C502.001 7.88839 501.889 8.47239 501.889 9.09639C501.889 9.70439 501.993 10.2884 502.201 10.8484C502.409 11.3924 502.737 11.8404 503.185 12.1924C503.633 12.5444 504.241 12.7204 505.009 12.7204ZM521.992 14.0884C520.424 14.0884 519.248 13.6244 518.464 12.6964C517.696 11.7524 517.312 10.5524 517.312 9.09639C517.296 7.62439 517.68 6.42439 518.464 5.49639C519.264 4.55239 520.44 4.07239 521.992 4.05639C523.528 4.05639 524.688 4.52039 525.472 5.44839C526.272 6.36039 526.672 7.57639 526.672 9.09639C526.672 10.0404 526.504 10.8884 526.168 11.6404C525.832 12.3924 525.32 12.9924 524.632 13.4404C523.944 13.8724 523.064 14.0884 521.992 14.0884ZM521.992 12.7444C522.824 12.7444 523.464 12.5604 523.912 12.1924C524.376 11.8244 524.696 11.3604 524.872 10.8004C525.064 10.2244 525.16 9.64039 525.16 9.04839C525.16 8.45639 525.064 7.87239 524.872 7.29639C524.696 6.72039 524.376 6.24839 523.912 5.88039C523.464 5.51239 522.824 5.32839 521.992 5.32839C521.16 5.32839 520.512 5.51239 520.048 5.88039C519.6 6.24839 519.28 6.72039 519.088 7.29639C518.912 7.87239 518.824 8.45639 518.824 9.04839C518.824 9.64039 518.912 10.2244 519.088 10.8004C519.28 11.3604 519.6 11.8244 520.048 12.1924C520.512 12.5604 521.16 12.7444 521.992 12.7444ZM532.169 14.0884C531.369 14.0884 530.721 13.9444 530.225 13.6564C529.745 13.3684 529.377 12.9844 529.121 12.5044C528.865 12.0084 528.689 11.4724 528.593 10.8964C528.513 10.3044 528.473 9.71239 528.473 9.12039V4.08039H530.009V9.14439C530.009 9.78439 530.073 10.3764 530.201 10.9204C530.329 11.4644 530.585 11.8964 530.969 12.2164C531.369 12.5364 531.945 12.6964 532.697 12.6964C533.417 12.6964 533.977 12.5364 534.377 12.2164C534.793 11.8804 535.097 11.4484 535.289 10.9204C535.481 10.3924 535.593 9.84039 535.625 9.26439V4.08039H537.209V13.8484H535.889L535.625 11.6644H535.577C535.497 11.9364 535.329 12.2644 535.073 12.6484C534.817 13.0324 534.449 13.3684 533.969 13.6564C533.505 13.9444 532.905 14.0884 532.169 14.0884ZM539.472 13.8484V4.08039H540.864L541.032 6.64839C541.128 6.21639 541.32 5.80039 541.608 5.40039C541.896 5.00039 542.288 4.68039 542.784 4.44039C543.296 4.18439 543.928 4.06439 544.68 4.08039H545.136V5.78439H544.656C543.632 5.78439 542.856 5.93639 542.328 6.24039C541.816 6.52839 541.464 6.93639 541.272 7.46439C541.096 7.99239 541.008 8.60039 541.008 9.28839V13.8484H539.472ZM552.266 13.8484V0.336388H553.826V6.50439H553.874C553.906 6.42439 553.978 6.25639 554.09 6.00039C554.218 5.74439 554.41 5.47239 554.666 5.18439C554.922 4.88039 555.266 4.62439 555.698 4.41639C556.13 4.19239 556.674 4.08039 557.33 4.08039C558.162 4.08039 558.826 4.24039 559.322 4.56039C559.818 4.86439 560.186 5.27239 560.426 5.78439C560.682 6.28039 560.85 6.81639 560.93 7.39239C561.01 7.96839 561.05 8.51239 561.05 9.02439V13.8484H559.538V9.02439C559.538 7.96839 559.354 7.11239 558.986 6.45639C558.634 5.80039 557.938 5.47239 556.898 5.47239C556.162 5.47239 555.57 5.64839 555.122 6.00039C554.674 6.33639 554.346 6.79239 554.138 7.36839C553.93 7.92839 553.826 8.54439 553.826 9.21639V13.8484H552.266ZM562.061 18.2164V16.9684H563.405C563.725 16.9684 563.989 16.8804 564.197 16.7044C564.405 16.5444 564.661 16.1444 564.965 15.5044L565.997 13.2724L562.157 4.08039H563.765L566.765 11.6404L569.957 4.08039H571.589L566.357 15.7204C566.037 16.4404 565.749 16.9764 565.493 17.3284C565.253 17.6964 564.981 17.9364 564.677 18.0484C564.373 18.1604 563.989 18.2164 563.525 18.2164H562.061ZM575.218 17.8804V16.4164H580.09V11.6884H580.042C580.01 11.7684 579.922 11.9364 579.778 12.1924C579.65 12.4484 579.442 12.7204 579.154 13.0084C578.882 13.2964 578.522 13.5524 578.074 13.7764C577.642 13.9844 577.114 14.0884 576.49 14.0884C575.546 14.0884 574.754 13.8724 574.114 13.4404C573.49 12.9924 573.018 12.3924 572.698 11.6404C572.378 10.8884 572.218 10.0404 572.218 9.09639C572.218 7.62439 572.578 6.42439 573.298 5.49639C574.034 4.55239 575.106 4.08039 576.514 4.08039C577.17 4.08039 577.714 4.19239 578.146 4.41639C578.594 4.62439 578.946 4.88039 579.202 5.18439C579.474 5.48839 579.674 5.76839 579.802 6.02439C579.93 6.28039 580.01 6.44839 580.042 6.52839H580.09V4.08039H581.674V15.5284C581.674 16.2964 581.53 16.8804 581.242 17.2804C580.954 17.6804 580.434 17.8804 579.682 17.8804H575.218ZM576.826 12.7204C577.786 12.7204 578.562 12.4004 579.154 11.7604C579.746 11.1044 580.042 10.2164 580.042 9.09639C580.042 7.99239 579.762 7.12039 579.202 6.48039C578.642 5.82439 577.898 5.49639 576.97 5.49639C576.202 5.49639 575.578 5.67239 575.098 6.02439C574.634 6.36039 574.29 6.80039 574.066 7.34439C573.842 7.88839 573.73 8.47239 573.73 9.09639C573.73 9.70439 573.826 10.2884 574.018 10.8484C574.226 11.3924 574.554 11.8404 575.002 12.1924C575.466 12.5444 576.074 12.7204 576.826 12.7204ZM584.941 3.02439C584.589 3.02439 584.349 2.93639 584.221 2.76039C584.109 2.56839 584.053 2.32839 584.053 2.04039C584.053 1.80039 584.109 1.59239 584.221 1.41639C584.349 1.22439 584.589 1.12839 584.941 1.12839C585.293 1.12839 585.525 1.22439 585.637 1.41639C585.765 1.59239 585.829 1.80039 585.829 2.04039C585.829 2.32839 585.765 2.56839 585.637 2.76039C585.525 2.93639 585.293 3.02439 584.941 3.02439ZM584.173 13.8484V4.08039H585.709V13.8484H584.173ZM592.399 14.0884C591.327 14.0884 590.439 13.8484 589.735 13.3684C589.047 12.8724 588.535 12.2404 588.199 11.4724C587.879 10.6884 587.719 9.88039 587.719 9.04839C587.719 8.13639 587.895 7.30439 588.247 6.55239C588.615 5.78439 589.143 5.17639 589.831 4.72839C590.535 4.28039 591.375 4.05639 592.351 4.05639C593.599 4.05639 594.639 4.46439 595.471 5.28039C596.303 6.08039 596.751 7.16039 596.815 8.52039C596.831 8.58439 596.839 8.68039 596.839 8.80839C596.839 8.92039 596.839 9.02439 596.839 9.12039H589.207C589.207 10.2564 589.479 11.1524 590.023 11.8084C590.583 12.4484 591.367 12.7684 592.375 12.7684C593.127 12.7684 593.767 12.5764 594.295 12.1924C594.839 11.8084 595.175 11.2884 595.303 10.6324H596.815C596.655 11.6244 596.183 12.4484 595.399 13.1044C594.615 13.7604 593.615 14.0884 592.399 14.0884ZM589.255 8.28039H595.255C595.255 7.94439 595.159 7.54439 594.967 7.08039C594.791 6.61639 594.487 6.21639 594.055 5.88039C593.639 5.52839 593.063 5.35239 592.327 5.35239C591.655 5.35239 591.103 5.49639 590.671 5.78439C590.239 6.07239 589.911 6.44039 589.687 6.88839C589.463 7.33639 589.319 7.80039 589.255 8.28039ZM598.787 13.8484V4.08039H600.107L600.371 6.50439H600.419C600.435 6.42439 600.507 6.25639 600.635 6.00039C600.763 5.74439 600.955 5.47239 601.211 5.18439C601.483 4.88039 601.835 4.62439 602.267 4.41639C602.699 4.19239 603.251 4.08039 603.923 4.08039C604.771 4.08039 605.435 4.23239 605.915 4.53639C606.411 4.84039 606.779 5.24839 607.019 5.76039C607.259 6.25639 607.411 6.79239 607.475 7.36839C607.539 7.94439 607.571 8.49639 607.571 9.02439V13.8484H606.083V9.02439C606.083 7.96839 605.899 7.11239 605.531 6.45639C605.179 5.80039 604.475 5.47239 603.419 5.47239C602.699 5.47239 602.107 5.64839 601.643 6.00039C601.195 6.33639 600.867 6.79239 600.659 7.36839C600.467 7.92839 600.371 8.54439 600.371 9.21639V13.8484H598.787ZM610.722 3.02439C610.37 3.02439 610.13 2.93639 610.002 2.76039C609.89 2.56839 609.834 2.32839 609.834 2.04039C609.834 1.80039 609.89 1.59239 610.002 1.41639C610.13 1.22439 610.37 1.12839 610.722 1.12839C611.074 1.12839 611.306 1.22439 611.418 1.41639C611.546 1.59239 611.61 1.80039 611.61 2.04039C611.61 2.32839 611.546 2.56839 611.418 2.76039C611.306 2.93639 611.074 3.02439 610.722 3.02439ZM609.954 13.8484V4.08039H611.49V13.8484H609.954ZM618.228 14.0884C617.316 14.0884 616.5 13.8964 615.78 13.5124C615.06 13.1284 614.492 12.5684 614.076 11.8324C613.66 11.0964 613.452 10.2084 613.452 9.16839C613.484 8.14439 613.7 7.24839 614.1 6.48039C614.516 5.71239 615.084 5.12039 615.804 4.70439C616.524 4.27239 617.348 4.05639 618.276 4.05639C619.14 4.05639 619.892 4.21639 620.532 4.53639C621.172 4.85639 621.684 5.28839 622.068 5.83239C622.452 6.37639 622.692 6.97639 622.788 7.63239H621.372C621.212 6.92839 620.86 6.38439 620.316 6.00039C619.788 5.61639 619.124 5.42439 618.324 5.42439C617.3 5.42439 616.484 5.76839 615.876 6.45639C615.284 7.12839 614.98 8.00839 614.964 9.09639C614.964 10.2004 615.252 11.0804 615.828 11.7364C616.42 12.3764 617.244 12.6964 618.3 12.6964C619.068 12.6964 619.732 12.5044 620.292 12.1204C620.852 11.7364 621.212 11.1844 621.372 10.4644H622.788C622.692 11.1364 622.444 11.7444 622.044 12.2884C621.66 12.8324 621.14 13.2724 620.484 13.6084C619.844 13.9284 619.092 14.0884 618.228 14.0884ZM635.831 14.1604C634.887 14.1604 633.975 14.0084 633.095 13.7044C632.231 13.3844 631.519 12.8964 630.959 12.2404C630.399 11.5684 630.111 10.7044 630.095 9.64839H631.631C631.631 9.69639 631.647 9.83239 631.679 10.0564C631.711 10.2804 631.791 10.5444 631.919 10.8484C632.063 11.1364 632.287 11.4324 632.591 11.7364C632.895 12.0244 633.319 12.2644 633.863 12.4564C634.407 12.6484 635.103 12.7444 635.951 12.7444C636.895 12.7444 637.615 12.6084 638.111 12.3364C638.607 12.0484 638.943 11.7284 639.119 11.3764C639.311 11.0084 639.407 10.7204 639.407 10.5124C639.423 9.95239 639.271 9.50439 638.951 9.16839C638.631 8.83239 638.199 8.56039 637.655 8.35239C637.127 8.14439 636.543 7.96039 635.903 7.80039C635.263 7.64039 634.623 7.47239 633.983 7.29639C633.359 7.10439 632.783 6.86439 632.255 6.57639C631.727 6.27239 631.311 5.88039 631.007 5.40039C630.703 4.92039 630.567 4.30439 630.599 3.55239C630.631 2.83239 630.879 2.21639 631.343 1.70439C631.807 1.19239 632.423 0.800388 633.191 0.528389C633.975 0.240388 634.863 0.0963883 635.855 0.0963883C636.767 0.0963883 637.607 0.264388 638.375 0.600388C639.159 0.920388 639.783 1.40839 640.247 2.06439C640.711 2.72039 640.927 3.53639 640.895 4.51239H639.383C639.399 3.90439 639.279 3.40839 639.023 3.02439C638.783 2.62439 638.463 2.32039 638.063 2.11239C637.663 1.90439 637.247 1.76039 636.815 1.68039C636.399 1.58439 636.031 1.53639 635.711 1.53639C634.703 1.53639 633.871 1.73639 633.215 2.13639C632.559 2.53639 632.223 3.05639 632.207 3.69639C632.207 4.25639 632.367 4.70439 632.687 5.04039C633.007 5.37639 633.431 5.64839 633.959 5.85639C634.503 6.04839 635.095 6.21639 635.735 6.36039C636.375 6.50439 637.007 6.67239 637.631 6.86439C638.271 7.04039 638.855 7.27239 639.383 7.56039C639.911 7.84839 640.327 8.24039 640.631 8.73639C640.935 9.23239 641.071 9.86439 641.039 10.6324C641.007 11.3844 640.759 12.0244 640.295 12.5524C639.831 13.0644 639.215 13.4644 638.447 13.7524C637.679 14.0244 636.807 14.1604 635.831 14.1604ZM647.336 14.0884C646.264 14.0884 645.376 13.8484 644.672 13.3684C643.984 12.8724 643.472 12.2404 643.136 11.4724C642.816 10.6884 642.656 9.88039 642.656 9.04839C642.656 8.13639 642.832 7.30439 643.184 6.55239C643.552 5.78439 644.08 5.17639 644.768 4.72839C645.472 4.28039 646.312 4.05639 647.288 4.05639C648.536 4.05639 649.576 4.46439 650.408 5.28039C651.24 6.08039 651.688 7.16039 651.752 8.52039C651.768 8.58439 651.776 8.68039 651.776 8.80839C651.776 8.92039 651.776 9.02439 651.776 9.12039H644.144C644.144 10.2564 644.416 11.1524 644.96 11.8084C645.52 12.4484 646.304 12.7684 647.312 12.7684C648.064 12.7684 648.704 12.5764 649.232 12.1924C649.776 11.8084 650.112 11.2884 650.24 10.6324H651.752C651.592 11.6244 651.12 12.4484 650.336 13.1044C649.552 13.7604 648.552 14.0884 647.336 14.0884ZM644.192 8.28039H650.192C650.192 7.94439 650.096 7.54439 649.904 7.08039C649.728 6.61639 649.424 6.21639 648.992 5.88039C648.576 5.52839 648 5.35239 647.264 5.35239C646.592 5.35239 646.04 5.49639 645.608 5.78439C645.176 6.07239 644.848 6.44039 644.624 6.88839C644.4 7.33639 644.256 7.80039 644.192 8.28039ZM653.965 13.8484V4.08039H655.357L655.525 6.64839C655.621 6.21639 655.813 5.80039 656.101 5.40039C656.389 5.00039 656.781 4.68039 657.277 4.44039C657.789 4.18439 658.421 4.06439 659.173 4.08039H659.629V5.78439H659.148C658.125 5.78439 657.349 5.93639 656.821 6.24039C656.309 6.52839 655.957 6.93639 655.765 7.46439C655.589 7.99239 655.501 8.60039 655.501 9.28839V13.8484H653.965ZM668.748 4.08039H670.284V4.41639L666.588 13.8484H664.404L660.684 4.41639V4.08039H662.22L665.484 12.5764H665.532L668.748 4.08039ZM672.902 3.02439C672.55 3.02439 672.31 2.93639 672.182 2.76039C672.07 2.56839 672.014 2.32839 672.014 2.04039C672.014 1.80039 672.07 1.59239 672.182 1.41639C672.31 1.22439 672.55 1.12839 672.902 1.12839C673.254 1.12839 673.486 1.22439 673.598 1.41639C673.726 1.59239 673.79 1.80039 673.79 2.04039C673.79 2.32839 673.726 2.56839 673.598 2.76039C673.486 2.93639 673.254 3.02439 672.902 3.02439ZM672.134 13.8484V4.08039H673.67V13.8484H672.134ZM680.408 14.0884C679.496 14.0884 678.68 13.8964 677.96 13.5124C677.24 13.1284 676.672 12.5684 676.256 11.8324C675.84 11.0964 675.632 10.2084 675.632 9.16839C675.664 8.14439 675.88 7.24839 676.28 6.48039C676.696 5.71239 677.264 5.12039 677.984 4.70439C678.704 4.27239 679.528 4.05639 680.456 4.05639C681.32 4.05639 682.072 4.21639 682.712 4.53639C683.352 4.85639 683.864 5.28839 684.248 5.83239C684.632 6.37639 684.872 6.97639 684.968 7.63239H683.552C683.392 6.92839 683.04 6.38439 682.496 6.00039C681.968 5.61639 681.304 5.42439 680.504 5.42439C679.48 5.42439 678.664 5.76839 678.056 6.45639C677.464 7.12839 677.16 8.00839 677.144 9.09639C677.144 10.2004 677.432 11.0804 678.008 11.7364C678.6 12.3764 679.424 12.6964 680.48 12.6964C681.248 12.6964 681.912 12.5044 682.472 12.1204C683.032 11.7364 683.392 11.1844 683.552 10.4644H684.968C684.872 11.1364 684.624 11.7444 684.224 12.2884C683.84 12.8324 683.32 13.2724 682.664 13.6084C682.024 13.9284 681.272 14.0884 680.408 14.0884ZM691.211 14.0884C690.139 14.0884 689.251 13.8484 688.547 13.3684C687.859 12.8724 687.347 12.2404 687.011 11.4724C686.691 10.6884 686.531 9.88039 686.531 9.04839C686.531 8.13639 686.707 7.30439 687.059 6.55239C687.427 5.78439 687.955 5.17639 688.643 4.72839C689.347 4.28039 690.187 4.05639 691.163 4.05639C692.411 4.05639 693.451 4.46439 694.283 5.28039C695.115 6.08039 695.563 7.16039 695.627 8.52039C695.643 8.58439 695.651 8.68039 695.651 8.80839C695.651 8.92039 695.651 9.02439 695.651 9.12039H688.019C688.019 10.2564 688.291 11.1524 688.835 11.8084C689.395 12.4484 690.179 12.7684 691.187 12.7684C691.939 12.7684 692.579 12.5764 693.107 12.1924C693.651 11.8084 693.987 11.2884 694.115 10.6324H695.627C695.467 11.6244 694.995 12.4484 694.211 13.1044C693.427 13.7604 692.427 14.0884 691.211 14.0884ZM688.067 8.28039H694.067C694.067 7.94439 693.971 7.54439 693.779 7.08039C693.603 6.61639 693.299 6.21639 692.867 5.88039C692.451 5.52839 691.875 5.35239 691.139 5.35239C690.467 5.35239 689.915 5.49639 689.483 5.78439C689.051 6.07239 688.723 6.44039 688.499 6.88839C688.275 7.33639 688.131 7.80039 688.067 8.28039ZM701.488 14.0884C700.56 14.0884 699.792 13.8964 699.184 13.5124C698.592 13.1124 698.144 12.6484 697.84 12.1204C697.552 11.5924 697.408 11.1204 697.408 10.7044H698.896C698.896 10.7204 698.904 10.8404 698.92 11.0644C698.952 11.2884 699.04 11.5444 699.184 11.8324C699.328 12.1204 699.576 12.3764 699.928 12.6004C700.28 12.8084 700.792 12.9124 701.464 12.9124C702.184 12.9124 702.8 12.7844 703.312 12.5284C703.84 12.2724 704.096 11.8724 704.08 11.3284C704.08 10.8644 703.92 10.5124 703.6 10.2724C703.296 10.0164 702.896 9.82439 702.4 9.69639C701.904 9.55239 701.384 9.41639 700.84 9.28839C700.296 9.16039 699.776 9.00039 699.28 8.80839C698.8 8.60039 698.408 8.31239 698.104 7.94439C697.8 7.57639 697.648 7.06439 697.648 6.40839C697.648 5.60839 698.008 4.97639 698.728 4.51239C699.448 4.03239 700.368 3.79239 701.488 3.79239C702.112 3.79239 702.744 3.89639 703.384 4.10439C704.024 4.29639 704.552 4.64039 704.968 5.13639C705.384 5.61639 705.576 6.29639 705.544 7.17639H704.104C704.136 6.56839 704 6.11239 703.696 5.80839C703.392 5.50439 703.024 5.30439 702.592 5.20839C702.176 5.09639 701.792 5.04039 701.44 5.04039C700.752 5.04039 700.184 5.16839 699.736 5.42439C699.304 5.68039 699.088 6.04039 699.088 6.50439C699.088 6.95239 699.24 7.29639 699.544 7.53639C699.864 7.76039 700.264 7.94439 700.744 8.08839C701.24 8.21639 701.76 8.34439 702.304 8.47239C702.864 8.58439 703.392 8.74439 703.888 8.95239C704.384 9.16039 704.784 9.45639 705.088 9.84039C705.408 10.2244 705.568 10.7524 705.568 11.4244C705.568 12.3524 705.176 13.0324 704.392 13.4644C703.608 13.8804 702.64 14.0884 701.488 14.0884Z" fill="#00668B"/>
</svg>
