<svg width="908" height="112" viewBox="0 0 908 112" fill="none" xmlns="http://www.w3.org/2000/svg">
<path d="M365.534 23.308C363.554 23.308 362.043 22.7287 361.002 21.57C359.961 20.3967 359.44 18.82 359.44 16.84C359.44 15.5347 359.66 14.4053 360.1 13.452C360.555 12.484 361.229 11.736 362.124 11.208C363.033 10.6653 364.17 10.394 365.534 10.394C367.514 10.394 369.017 10.9807 370.044 12.154C371.085 13.3127 371.606 14.8747 371.606 16.84C371.606 18.116 371.371 19.2453 370.902 20.228C370.447 21.196 369.765 21.9513 368.856 22.494C367.961 23.0367 366.854 23.308 365.534 23.308ZM365.512 21.548C366.935 21.548 368.005 21.108 368.724 20.228C369.443 19.348 369.802 18.2187 369.802 16.84C369.802 15.4613 369.443 14.332 368.724 13.452C368.02 12.5573 366.949 12.11 365.512 12.11C364.104 12.11 363.033 12.5353 362.3 13.386C361.581 14.2367 361.222 15.388 361.222 16.84C361.222 17.7493 361.376 18.5633 361.684 19.282C361.992 19.986 362.461 20.5433 363.092 20.954C363.737 21.35 364.544 21.548 365.512 21.548ZM383.316 23.308C381.615 23.308 380.31 22.824 379.4 21.856C378.506 20.8733 378.058 19.4947 378.058 17.72V10.614H379.972V17.698C379.972 18.6513 380.126 19.414 380.434 19.986C380.742 20.5433 381.146 20.9467 381.644 21.196C382.158 21.4453 382.715 21.57 383.316 21.57C383.976 21.57 384.556 21.4527 385.054 21.218C385.568 20.9687 385.964 20.5653 386.242 20.008C386.536 19.436 386.682 18.666 386.682 17.698V10.614H388.596V17.72C388.596 19.524 388.149 20.91 387.254 21.878C386.374 22.8313 385.062 23.308 383.316 23.308ZM395.481 23V10.614H399.815C401.399 10.614 402.623 10.878 403.489 11.406C404.369 11.9193 404.809 12.8507 404.809 14.2C404.809 15.1387 404.567 15.9233 404.083 16.554C403.613 17.1847 402.902 17.5 401.949 17.5C402.521 17.5 402.946 17.6247 403.225 17.874C403.503 18.1233 403.694 18.4387 403.797 18.82C403.899 19.1867 403.965 19.568 403.995 19.964C404.024 20.36 404.068 20.7193 404.127 21.042C404.185 21.3647 404.303 21.5993 404.479 21.746C404.655 21.878 404.955 21.8633 405.381 21.702V22.802C405.175 22.978 404.904 23.0953 404.567 23.154C404.244 23.2273 403.921 23.2053 403.599 23.088C403.276 22.9853 402.997 22.7653 402.763 22.428C402.543 22.076 402.433 21.57 402.433 20.91C402.433 20.1327 402.389 19.524 402.301 19.084C402.213 18.644 402.007 18.3213 401.685 18.116C401.362 17.9107 400.856 17.7933 400.167 17.764C399.477 17.72 398.531 17.72 397.329 17.764V23H395.481ZM397.329 16.4H399.881C400.629 16.4 401.245 16.356 401.729 16.268C402.213 16.1653 402.572 15.9673 402.807 15.674C403.056 15.3807 403.181 14.9333 403.181 14.332C403.181 13.6427 403.034 13.144 402.741 12.836C402.447 12.528 402.015 12.3373 401.443 12.264C400.885 12.176 400.203 12.132 399.397 12.132H397.329V16.4ZM423.08 23H421.254V10.614H426.094C427.458 10.614 428.514 10.9513 429.262 11.626C430.01 12.3007 430.384 13.3127 430.384 14.662C430.384 15.8793 429.995 16.8253 429.218 17.5C428.455 18.1747 427.414 18.512 426.094 18.512H423.08V23ZM425.874 12.132H423.08V17.126H425.874C426.754 17.126 427.443 16.9207 427.942 16.51C428.455 16.0993 428.712 15.476 428.712 14.64C428.712 13.7747 428.463 13.144 427.964 12.748C427.465 12.3373 426.769 12.132 425.874 12.132ZM436.718 23V10.614H441.052C442.636 10.614 443.861 10.878 444.726 11.406C445.606 11.9193 446.046 12.8507 446.046 14.2C446.046 15.1387 445.804 15.9233 445.32 16.554C444.851 17.1847 444.139 17.5 443.186 17.5C443.758 17.5 444.183 17.6247 444.462 17.874C444.741 18.1233 444.931 18.4387 445.034 18.82C445.137 19.1867 445.203 19.568 445.232 19.964C445.261 20.36 445.305 20.7193 445.364 21.042C445.423 21.3647 445.54 21.5993 445.716 21.746C445.892 21.878 446.193 21.8633 446.618 21.702V22.802C446.413 22.978 446.141 23.0953 445.804 23.154C445.481 23.2273 445.159 23.2053 444.836 23.088C444.513 22.9853 444.235 22.7653 444 22.428C443.78 22.076 443.67 21.57 443.67 20.91C443.67 20.1327 443.626 19.524 443.538 19.084C443.45 18.644 443.245 18.3213 442.922 18.116C442.599 17.9107 442.093 17.7933 441.404 17.764C440.715 17.72 439.769 17.72 438.566 17.764V23H436.718ZM438.566 16.4H441.118C441.866 16.4 442.482 16.356 442.966 16.268C443.45 16.1653 443.809 15.9673 444.044 15.674C444.293 15.3807 444.418 14.9333 444.418 14.332C444.418 13.6427 444.271 13.144 443.978 12.836C443.685 12.528 443.252 12.3373 442.68 12.264C442.123 12.176 441.441 12.132 440.634 12.132H438.566V16.4ZM458.299 23.308C456.319 23.308 454.809 22.7287 453.767 21.57C452.726 20.3967 452.205 18.82 452.205 16.84C452.205 15.5347 452.425 14.4053 452.865 13.452C453.32 12.484 453.995 11.736 454.889 11.208C455.799 10.6653 456.935 10.394 458.299 10.394C460.279 10.394 461.783 10.9807 462.809 12.154C463.851 13.3127 464.371 14.8747 464.371 16.84C464.371 18.116 464.137 19.2453 463.667 20.228C463.213 21.196 462.531 21.9513 461.621 22.494C460.727 23.0367 459.619 23.308 458.299 23.308ZM458.277 21.548C459.7 21.548 460.771 21.108 461.489 20.228C462.208 19.348 462.567 18.2187 462.567 16.84C462.567 15.4613 462.208 14.332 461.489 13.452C460.785 12.5573 459.715 12.11 458.277 12.11C456.869 12.11 455.799 12.5353 455.065 13.386C454.347 14.2367 453.987 15.388 453.987 16.84C453.987 17.7493 454.141 18.5633 454.449 19.282C454.757 19.986 455.227 20.5433 455.857 20.954C456.503 21.35 457.309 21.548 458.277 21.548ZM481.914 16.796C481.914 18.424 481.599 19.6927 480.968 20.602C480.337 21.4967 479.45 22.12 478.306 22.472C477.177 22.824 475.849 23 474.324 23H470.98V10.614H474.324C475.849 10.614 477.177 10.8487 478.306 11.318C479.45 11.7727 480.337 12.4547 480.968 13.364C481.599 14.2733 481.914 15.4173 481.914 16.796ZM472.806 21.46H474.808C475.849 21.46 476.759 21.3427 477.536 21.108C478.313 20.8587 478.915 20.3967 479.34 19.722C479.765 19.0473 479.978 18.0647 479.978 16.774C479.978 15.234 479.509 14.09 478.57 13.342C477.631 12.5793 476.377 12.198 474.808 12.198H472.806V21.46ZM493.501 23.308C491.8 23.308 490.494 22.824 489.585 21.856C488.69 20.8733 488.243 19.4947 488.243 17.72V10.614H490.157V17.698C490.157 18.6513 490.311 19.414 490.619 19.986C490.927 20.5433 491.33 20.9467 491.829 21.196C492.342 21.4453 492.9 21.57 493.501 21.57C494.161 21.57 494.74 21.4527 495.239 21.218C495.752 20.9687 496.148 20.5653 496.427 20.008C496.72 19.436 496.867 18.666 496.867 17.698V10.614H498.781V17.72C498.781 19.524 498.334 20.91 497.439 21.878C496.559 22.8313 495.246 23.308 493.501 23.308ZM510.968 23.22C509.824 23.22 508.782 22.9853 507.844 22.516C506.92 22.032 506.186 21.3207 505.644 20.382C505.116 19.4287 504.852 18.248 504.852 16.84C504.866 15.4467 505.138 14.2733 505.666 13.32C506.194 12.352 506.92 11.626 507.844 11.142C508.782 10.6433 509.853 10.394 511.056 10.394C512.654 10.394 513.945 10.8193 514.928 11.67C515.91 12.5207 516.519 13.6353 516.754 15.014H514.862C514.744 14.31 514.488 13.7453 514.092 13.32C513.71 12.8947 513.248 12.5867 512.706 12.396C512.178 12.2053 511.628 12.11 511.056 12.11C509.662 12.11 508.584 12.5133 507.822 13.32C507.059 14.112 506.678 15.2487 506.678 16.73C506.678 18.2847 507.052 19.4727 507.8 20.294C508.548 21.1007 509.611 21.504 510.99 21.504C511.943 21.504 512.794 21.2767 513.542 20.822C514.29 20.3527 514.752 19.5973 514.928 18.556H516.842C516.592 19.9347 515.976 21.0567 514.994 21.922C514.011 22.7873 512.669 23.22 510.968 23.22ZM522.158 12.198V10.614H531.618V12.198H527.812V23H525.986V12.198H522.158ZM542.398 23.264C541.504 23.264 540.646 23.1247 539.824 22.846C539.003 22.5527 538.328 22.098 537.8 21.482C537.287 20.8513 537.023 20.0373 537.008 19.04H538.856C538.856 19.0987 538.878 19.2673 538.922 19.546C538.981 19.81 539.12 20.1033 539.34 20.426C539.575 20.734 539.942 21.0053 540.44 21.24C540.939 21.4747 541.636 21.592 542.53 21.592C543.249 21.592 543.814 21.4893 544.224 21.284C544.65 21.0787 544.943 20.8367 545.104 20.558C545.28 20.2793 545.376 20.03 545.39 19.81C545.39 19.3553 545.244 18.9887 544.95 18.71C544.672 18.4313 544.29 18.2113 543.806 18.05C543.322 17.874 542.787 17.72 542.2 17.588C541.628 17.4413 541.056 17.2873 540.484 17.126C539.912 16.95 539.384 16.7227 538.9 16.444C538.431 16.1653 538.057 15.806 537.778 15.366C537.514 14.9113 537.404 14.332 537.448 13.628C537.492 12.616 537.969 11.824 538.878 11.252C539.802 10.68 540.99 10.394 542.442 10.394C543.293 10.394 544.085 10.548 544.818 10.856C545.552 11.164 546.138 11.626 546.578 12.242C547.018 12.858 547.238 13.628 547.238 14.552H545.456C545.456 14.0387 545.346 13.628 545.126 13.32C544.906 12.9973 544.628 12.748 544.29 12.572C543.953 12.396 543.601 12.2787 543.234 12.22C542.868 12.1467 542.538 12.11 542.244 12.11C541.408 12.11 540.719 12.264 540.176 12.572C539.648 12.88 539.384 13.298 539.384 13.826C539.37 14.2953 539.509 14.6693 539.802 14.948C540.096 15.2267 540.484 15.4467 540.968 15.608C541.452 15.7693 541.98 15.916 542.552 16.048C543.139 16.18 543.718 16.3267 544.29 16.488C544.877 16.6493 545.405 16.8693 545.874 17.148C546.358 17.412 546.732 17.7787 546.996 18.248C547.275 18.7027 547.4 19.282 547.37 19.986C547.326 20.6753 547.084 21.2693 546.644 21.768C546.219 22.252 545.64 22.626 544.906 22.89C544.173 23.1393 543.337 23.264 542.398 23.264Z" fill="url(#paint0_linear_401_508)"/>
<path d="M158.934 99.84C153.414 99.84 149.194 98.26 146.274 95.1C143.354 91.9 141.894 87.6 141.894 82.2C141.894 78.64 142.514 75.56 143.754 72.96C145.034 70.32 146.934 68.28 149.454 66.84C151.974 65.36 155.134 64.62 158.934 64.62C164.494 64.62 168.714 66.22 171.594 69.42C174.474 72.58 175.914 76.84 175.914 82.2C175.914 85.68 175.274 88.76 173.994 91.44C172.714 94.08 170.814 96.14 168.294 97.62C165.774 99.1 162.654 99.84 158.934 99.84ZM158.874 92.82C161.074 92.82 162.914 92.36 164.394 91.44C165.874 90.48 166.974 89.2 167.694 87.6C168.414 86 168.774 84.2 168.774 82.2C168.774 80.2 168.414 78.38 167.694 76.74C166.974 75.1 165.874 73.8 164.394 72.84C162.914 71.88 161.074 71.4 158.874 71.4C155.634 71.4 153.174 72.42 151.494 74.46C149.814 76.46 148.974 79.04 148.974 82.2C148.974 84.16 149.334 85.94 150.054 87.54C150.774 89.14 151.854 90.42 153.294 91.38C154.774 92.34 156.634 92.82 158.874 92.82ZM196.557 99.84C191.637 99.84 187.897 98.52 185.337 95.88C182.817 93.2 181.557 89.44 181.557 84.6V65.22H189.297V84.54C189.297 86.9 189.677 88.68 190.437 89.88C191.237 91.08 192.197 91.9 193.317 92.34C194.437 92.74 195.517 92.94 196.557 92.94C197.757 92.94 198.917 92.74 200.037 92.34C201.157 91.9 202.077 91.08 202.797 89.88C203.517 88.68 203.877 86.9 203.877 84.54V65.22H211.617V84.6C211.617 89.52 210.357 93.3 207.837 95.94C205.357 98.54 201.597 99.84 196.557 99.84ZM217.825 99V65.22H230.905C235.305 65.22 238.745 65.98 241.225 67.5C243.745 68.98 245.005 71.58 245.005 75.3C245.005 78.18 244.325 80.46 242.965 82.14C241.645 83.82 239.805 84.66 237.445 84.66C238.685 84.66 239.625 84.96 240.265 85.56C240.905 86.12 241.345 86.82 241.585 87.66C241.865 88.5 242.065 89.38 242.185 90.3C242.345 91.18 242.545 91.98 242.785 92.7C243.025 93.38 243.425 93.86 243.985 94.14C244.585 94.38 245.465 94.26 246.625 93.78V97.8C245.705 98.6 244.645 99.12 243.445 99.36C242.245 99.64 241.085 99.58 239.965 99.18C238.845 98.78 237.905 98 237.145 96.84C236.425 95.64 236.065 94 236.065 91.92C236.065 90.56 235.965 89.42 235.765 88.5C235.605 87.58 235.185 86.86 234.505 86.34C233.825 85.82 232.745 85.48 231.265 85.32C229.785 85.16 227.725 85.16 225.085 85.32V99H217.825ZM225.085 80.16H230.245C232.125 80.16 233.665 80.1 234.865 79.98C236.105 79.86 237.025 79.52 237.625 78.96C238.225 78.36 238.525 77.34 238.525 75.9C238.525 74.26 238.165 73.12 237.445 72.48C236.725 71.8 235.645 71.4 234.205 71.28C232.805 71.16 231.085 71.1 229.045 71.1H225.085V80.16ZM284.748 107.04C283.988 107.04 283.188 107 282.348 106.92C281.508 106.84 280.708 106.58 279.948 106.14C279.228 105.74 278.608 105.02 278.088 103.98C277.608 102.98 277.328 101.54 277.248 99.66C272.608 99.1 269.068 97.28 266.628 94.2C264.228 91.12 263.028 87.12 263.028 82.2C263.028 78.68 263.668 75.6 264.948 72.96C266.228 70.32 268.128 68.28 270.648 66.84C273.168 65.36 276.348 64.62 280.188 64.62C283.868 64.62 286.968 65.36 289.488 66.84C292.048 68.28 293.968 70.32 295.248 72.96C296.528 75.56 297.168 78.64 297.168 82.2C297.168 86.76 296.048 90.6 293.808 93.72C291.608 96.8 288.368 98.74 284.088 99.54C284.128 100.38 284.308 100.92 284.628 101.16C284.948 101.44 285.728 101.58 286.968 101.58C286.968 101.58 287.288 101.52 287.928 101.4C288.608 101.32 289.268 101.28 289.908 101.28V106.74C289.788 106.74 289.468 106.76 288.948 106.8C288.428 106.84 287.828 106.88 287.148 106.92C286.508 106.96 285.948 106.98 285.468 106.98C284.988 107.02 284.748 107.04 284.748 107.04ZM280.068 92.7C283.308 92.7 285.728 91.74 287.328 89.82C288.968 87.86 289.788 85.24 289.788 81.96C289.788 78.72 288.968 76.12 287.328 74.16C285.728 72.16 283.308 71.16 280.068 71.16C276.908 71.16 274.508 72.12 272.868 74.04C271.228 75.92 270.408 78.56 270.408 81.96C270.408 85.2 271.188 87.8 272.748 89.76C274.348 91.72 276.788 92.7 280.068 92.7ZM317.201 99.84C312.281 99.84 308.541 98.52 305.981 95.88C303.461 93.2 302.201 89.44 302.201 84.6V65.22H309.941V84.54C309.941 86.9 310.321 88.68 311.081 89.88C311.881 91.08 312.841 91.9 313.961 92.34C315.081 92.74 316.161 92.94 317.201 92.94C318.401 92.94 319.561 92.74 320.681 92.34C321.801 91.9 322.721 91.08 323.441 89.88C324.161 88.68 324.521 86.9 324.521 84.54V65.22H332.261V84.6C332.261 89.52 331.001 93.3 328.481 95.94C326.001 98.54 322.241 99.84 317.201 99.84ZM336.369 99L346.629 65.22H358.569L369.129 99H361.389L358.869 90H346.629L344.169 99H336.369ZM352.749 68.22L348.189 84.42H357.309L352.749 68.22ZM373.756 99V65.22H381.016V92.82H396.616V99H373.756ZM418.076 92.82V99H402.056V92.82H406.496V71.4H402.056V65.22H418.076V71.4H413.696V92.82H418.076ZM422.784 71.4V65.22H449.184V71.4H439.584V99H432.324V71.4H422.784ZM463.024 99V87.24L451.504 65.22H459.664L466.744 81L473.884 65.22H481.984L470.224 87.18V99H463.024ZM503.347 99H496.087V65.22H510.007C513.807 65.22 516.787 66.2 518.947 68.16C521.107 70.08 522.187 72.96 522.187 76.8C522.187 80.16 521.067 82.8 518.827 84.72C516.627 86.6 513.687 87.54 510.007 87.54H503.347V99ZM508.987 71.1H503.347V82.38H508.987C510.907 82.38 512.487 81.92 513.727 81C515.007 80.04 515.647 78.62 515.647 76.74C515.647 74.82 515.027 73.4 513.787 72.48C512.547 71.56 510.947 71.1 508.987 71.1ZM527.259 99V65.22H540.339C544.739 65.22 548.179 65.98 550.659 67.5C553.179 68.98 554.439 71.58 554.439 75.3C554.439 78.18 553.759 80.46 552.399 82.14C551.079 83.82 549.239 84.66 546.879 84.66C548.119 84.66 549.059 84.96 549.699 85.56C550.339 86.12 550.779 86.82 551.019 87.66C551.299 88.5 551.499 89.38 551.619 90.3C551.779 91.18 551.979 91.98 552.219 92.7C552.459 93.38 552.859 93.86 553.419 94.14C554.019 94.38 554.899 94.26 556.059 93.78V97.8C555.139 98.6 554.079 99.12 552.879 99.36C551.679 99.64 550.519 99.58 549.399 99.18C548.279 98.78 547.339 98 546.579 96.84C545.859 95.64 545.499 94 545.499 91.92C545.499 90.56 545.399 89.42 545.199 88.5C545.039 87.58 544.619 86.86 543.939 86.34C543.259 85.82 542.179 85.48 540.699 85.32C539.219 85.16 537.159 85.16 534.519 85.32V99H527.259ZM534.519 80.16H539.679C541.559 80.16 543.099 80.1 544.299 79.98C545.539 79.86 546.459 79.52 547.059 78.96C547.659 78.36 547.959 77.34 547.959 75.9C547.959 74.26 547.599 73.12 546.879 72.48C546.159 71.8 545.079 71.4 543.639 71.28C542.239 71.16 540.519 71.1 538.479 71.1H534.519V80.16ZM576.063 99.84C570.543 99.84 566.323 98.26 563.403 95.1C560.483 91.9 559.023 87.6 559.023 82.2C559.023 78.64 559.643 75.56 560.883 72.96C562.163 70.32 564.063 68.28 566.583 66.84C569.103 65.36 572.263 64.62 576.063 64.62C581.623 64.62 585.843 66.22 588.723 69.42C591.603 72.58 593.043 76.84 593.043 82.2C593.043 85.68 592.403 88.76 591.123 91.44C589.843 94.08 587.943 96.14 585.423 97.62C582.903 99.1 579.783 99.84 576.063 99.84ZM576.003 92.82C578.203 92.82 580.043 92.36 581.523 91.44C583.003 90.48 584.103 89.2 584.823 87.6C585.543 86 585.903 84.2 585.903 82.2C585.903 80.2 585.543 78.38 584.823 76.74C584.103 75.1 583.003 73.8 581.523 72.84C580.043 71.88 578.203 71.4 576.003 71.4C572.763 71.4 570.303 72.42 568.623 74.46C566.943 76.46 566.103 79.04 566.103 82.2C566.103 84.16 566.463 85.94 567.183 87.54C567.903 89.14 568.983 90.42 570.423 91.38C571.903 92.34 573.763 92.82 576.003 92.82ZM629.597 82.08C629.597 86.52 628.717 89.98 626.957 92.46C625.197 94.9 622.697 96.6 619.457 97.56C616.257 98.52 612.497 99 608.177 99H598.697V65.22H608.177C612.497 65.22 616.257 65.86 619.457 67.14C622.697 68.38 625.197 70.24 626.957 72.72C628.717 75.2 629.597 78.32 629.597 82.08ZM605.837 93.06H610.337C612.697 93.06 614.737 92.78 616.457 92.22C618.217 91.62 619.557 90.54 620.477 88.98C621.437 87.38 621.917 85.06 621.917 82.02C621.917 78.5 620.877 75.86 618.797 74.1C616.717 72.34 613.897 71.46 610.337 71.46H605.837V93.06ZM650.19 99.84C645.27 99.84 641.53 98.52 638.97 95.88C636.45 93.2 635.19 89.44 635.19 84.6V65.22H642.93V84.54C642.93 86.9 643.31 88.68 644.07 89.88C644.87 91.08 645.83 91.9 646.95 92.34C648.07 92.74 649.15 92.94 650.19 92.94C651.39 92.94 652.55 92.74 653.67 92.34C654.79 91.9 655.71 91.08 656.43 89.88C657.15 88.68 657.51 86.9 657.51 84.54V65.22H665.25V84.6C665.25 89.52 663.99 93.3 661.47 95.94C658.99 98.54 655.23 99.84 650.19 99.84ZM686.398 99.6C683.198 99.6 680.298 98.96 677.698 97.68C675.098 96.36 673.038 94.42 671.518 91.86C669.998 89.3 669.258 86.12 669.298 82.32C669.298 78.56 670.058 75.36 671.578 72.72C673.098 70.08 675.158 68.08 677.758 66.72C680.358 65.32 683.298 64.62 686.578 64.62C689.818 64.62 692.578 65.2 694.858 66.36C697.138 67.52 698.918 69.08 700.198 71.04C701.518 73 702.378 75.16 702.778 77.52H695.278C695.038 75.84 694.438 74.58 693.478 73.74C692.518 72.86 691.398 72.26 690.118 71.94C688.878 71.62 687.698 71.46 686.578 71.46C683.258 71.46 680.738 72.36 679.018 74.16C677.298 75.96 676.438 78.5 676.438 81.78C676.438 85.3 677.258 88.02 678.898 89.94C680.578 91.86 683.118 92.82 686.518 92.82C687.678 92.82 688.898 92.64 690.178 92.28C691.458 91.92 692.578 91.28 693.538 90.36C694.538 89.4 695.158 88.08 695.398 86.4H702.958C702.518 88.84 701.638 91.06 700.318 93.06C698.998 95.02 697.178 96.6 694.858 97.8C692.538 99 689.718 99.6 686.398 99.6ZM705.206 71.4V65.22H731.606V71.4H722.006V99H714.746V71.4H705.206ZM749.647 99.66C747.767 99.66 745.927 99.44 744.127 99C742.327 98.56 740.687 97.86 739.207 96.9C737.727 95.94 736.547 94.7 735.667 93.18C734.827 91.66 734.407 89.82 734.407 87.66H741.667C741.667 87.86 741.747 88.26 741.907 88.86C742.067 89.42 742.427 90.04 742.987 90.72C743.547 91.36 744.407 91.92 745.567 92.4C746.727 92.84 748.267 93.06 750.187 93.06C751.947 93.06 753.387 92.78 754.507 92.22C755.667 91.62 756.267 90.76 756.307 89.64C756.307 88.68 755.907 87.92 755.107 87.36C754.347 86.8 753.327 86.34 752.047 85.98C750.767 85.58 749.347 85.22 747.787 84.9C746.267 84.58 744.747 84.18 743.227 83.7C741.747 83.22 740.387 82.58 739.147 81.78C737.907 80.98 736.927 79.96 736.207 78.72C735.527 77.44 735.247 75.82 735.367 73.86C735.567 70.98 736.947 68.72 739.507 67.08C742.067 65.44 745.547 64.62 749.947 64.62C752.387 64.62 754.667 65.06 756.787 65.94C758.907 66.78 760.627 68.08 761.947 69.84C763.267 71.6 763.927 73.82 763.927 76.5H756.907C756.907 75.06 756.467 73.98 755.587 73.26C754.707 72.54 753.647 72.06 752.407 71.82C751.207 71.54 750.127 71.4 749.167 71.4C747.407 71.4 745.947 71.68 744.787 72.24C743.667 72.76 743.107 73.6 743.107 74.76C743.107 75.76 743.487 76.56 744.247 77.16C745.047 77.76 746.107 78.24 747.427 78.6C748.747 78.96 750.167 79.3 751.687 79.62C753.247 79.9 754.787 80.26 756.307 80.7C757.867 81.14 759.267 81.76 760.507 82.56C761.747 83.32 762.727 84.34 763.447 85.62C764.167 86.86 764.467 88.48 764.347 90.48C764.147 93.36 762.707 95.62 760.027 97.26C757.347 98.86 753.887 99.66 749.647 99.66Z" fill="#133063"/>
<defs>
<linearGradient id="paint0_linear_401_508" x1="402.213" y1="15" x2="533.432" y2="15" gradientUnits="userSpaceOnUse">
<stop stop-color="#133063"/>
<stop offset="1" stop-color="#4FA0CA"/>
</linearGradient>
</defs>
</svg>
