<svg width="1575" height="320" viewBox="0 0 1575 320" fill="none" xmlns="http://www.w3.org/2000/svg">
<path d="M532.757 23.264C531.555 23.264 530.506 23.0147 529.611 22.516C528.731 22.0173 528.049 21.2987 527.565 20.36C527.081 19.4067 526.847 18.2407 526.861 16.862C526.876 15.4833 527.14 14.3173 527.653 13.364C528.181 12.396 528.907 11.6627 529.831 11.164C530.755 10.6507 531.833 10.394 533.065 10.394C534.679 10.394 535.955 10.7607 536.893 11.494C537.832 12.2127 538.448 13.2687 538.741 14.662L536.981 14.904C536.747 13.9067 536.27 13.1953 535.551 12.77C534.833 12.33 534.004 12.11 533.065 12.11C531.569 12.11 530.462 12.528 529.743 13.364C529.039 14.1853 528.673 15.3147 528.643 16.752C528.643 18.2627 529.039 19.436 529.831 20.272C530.638 21.0933 531.767 21.504 533.219 21.504C534.217 21.504 535.082 21.2547 535.815 20.756C536.549 20.2427 537.003 19.458 537.179 18.402H534.121V17.016H538.983V23H537.729L537.311 20.558H537.267C537.121 20.9393 536.864 21.3427 536.497 21.768C536.145 22.1787 535.654 22.5307 535.023 22.824C534.407 23.1173 533.652 23.264 532.757 23.264ZM547.326 21.504H554.322V23H545.522V10.614H554.102V12.198H547.326V15.96H552.606V17.478H547.326V21.504ZM559.717 12.198V10.614H569.177V12.198H565.371V23H563.545V12.198H559.717ZM583.578 12.198V10.614H593.038V12.198H589.232V23H587.406V12.198H583.578ZM601.024 23H599.198V10.614H601.024V15.938H607.492V10.614H609.296V23H607.492V17.368H601.024V23ZM618.095 21.504H625.091V23H616.291V10.614H624.871V12.198H618.095V15.96H623.375V17.478H618.095V21.504ZM640.948 23V10.614H645.634C646.118 10.614 646.639 10.6507 647.196 10.724C647.754 10.7827 648.274 10.922 648.758 11.142C649.242 11.3473 649.638 11.67 649.946 12.11C650.254 12.55 650.408 13.144 650.408 13.892C650.408 14.3613 650.313 14.8013 650.122 15.212C649.946 15.608 649.616 15.9307 649.132 16.18C648.648 16.4293 647.959 16.5687 647.064 16.598V16.686C648.106 16.7007 648.905 16.8473 649.462 17.126C650.034 17.4047 650.43 17.7713 650.65 18.226C650.87 18.666 650.98 19.1573 650.98 19.7C650.98 20.4773 650.812 21.086 650.474 21.526C650.137 21.966 649.704 22.296 649.176 22.516C648.648 22.7213 648.084 22.8533 647.482 22.912C646.896 22.9707 646.338 23 645.81 23H640.948ZM642.752 15.894H645.414C646.016 15.894 646.551 15.8647 647.02 15.806C647.504 15.7327 647.886 15.564 648.164 15.3C648.443 15.036 648.582 14.6253 648.582 14.068C648.582 13.4667 648.436 13.034 648.142 12.77C647.849 12.4913 647.46 12.3153 646.976 12.242C646.492 12.1687 645.979 12.132 645.436 12.132H642.752V15.894ZM642.752 21.504H645.656C646.287 21.504 646.859 21.4673 647.372 21.394C647.886 21.306 648.296 21.1227 648.604 20.844C648.927 20.5507 649.088 20.096 649.088 19.48C649.088 18.8493 648.92 18.38 648.582 18.072C648.26 17.764 647.82 17.566 647.262 17.478C646.72 17.3753 646.126 17.324 645.48 17.324H642.752V21.504ZM659.161 21.504H666.157V23H657.357V10.614H665.937V12.198H659.161V15.96H664.441V17.478H659.161V21.504ZM677.338 23.264C676.443 23.264 675.585 23.1247 674.764 22.846C673.943 22.5527 673.268 22.098 672.74 21.482C672.227 20.8513 671.963 20.0373 671.948 19.04H673.796C673.796 19.0987 673.818 19.2673 673.862 19.546C673.921 19.81 674.06 20.1033 674.28 20.426C674.515 20.734 674.881 21.0053 675.38 21.24C675.879 21.4747 676.575 21.592 677.47 21.592C678.189 21.592 678.753 21.4893 679.164 21.284C679.589 21.0787 679.883 20.8367 680.044 20.558C680.22 20.2793 680.315 20.03 680.33 19.81C680.33 19.3553 680.183 18.9887 679.89 18.71C679.611 18.4313 679.23 18.2113 678.746 18.05C678.262 17.874 677.727 17.72 677.14 17.588C676.568 17.4413 675.996 17.2873 675.424 17.126C674.852 16.95 674.324 16.7227 673.84 16.444C673.371 16.1653 672.997 15.806 672.718 15.366C672.454 14.9113 672.344 14.332 672.388 13.628C672.432 12.616 672.909 11.824 673.818 11.252C674.742 10.68 675.93 10.394 677.382 10.394C678.233 10.394 679.025 10.548 679.758 10.856C680.491 11.164 681.078 11.626 681.518 12.242C681.958 12.858 682.178 13.628 682.178 14.552H680.396C680.396 14.0387 680.286 13.628 680.066 13.32C679.846 12.9973 679.567 12.748 679.23 12.572C678.893 12.396 678.541 12.2787 678.174 12.22C677.807 12.1467 677.477 12.11 677.184 12.11C676.348 12.11 675.659 12.264 675.116 12.572C674.588 12.88 674.324 13.298 674.324 13.826C674.309 14.2953 674.449 14.6693 674.742 14.948C675.035 15.2267 675.424 15.4467 675.908 15.608C676.392 15.7693 676.92 15.916 677.492 16.048C678.079 16.18 678.658 16.3267 679.23 16.488C679.817 16.6493 680.345 16.8693 680.814 17.148C681.298 17.412 681.672 17.7787 681.936 18.248C682.215 18.7027 682.339 19.282 682.31 19.986C682.266 20.6753 682.024 21.2693 681.584 21.768C681.159 22.252 680.579 22.626 679.846 22.89C679.113 23.1393 678.277 23.264 677.338 23.264ZM687.833 12.198V10.614H697.293V12.198H693.487V23H691.661V12.198H687.833ZM718.073 23.22C716.929 23.22 715.888 22.9853 714.949 22.516C714.025 22.032 713.292 21.3207 712.749 20.382C712.221 19.4287 711.957 18.248 711.957 16.84C711.972 15.4467 712.243 14.2733 712.771 13.32C713.299 12.352 714.025 11.626 714.949 11.142C715.888 10.6433 716.959 10.394 718.161 10.394C719.76 10.394 721.051 10.8193 722.033 11.67C723.016 12.5207 723.625 13.6353 723.859 15.014H721.967C721.85 14.31 721.593 13.7453 721.197 13.32C720.816 12.8947 720.354 12.5867 719.811 12.396C719.283 12.2053 718.733 12.11 718.161 12.11C716.768 12.11 715.69 12.5133 714.927 13.32C714.165 14.112 713.783 15.2487 713.783 16.73C713.783 18.2847 714.157 19.4727 714.905 20.294C715.653 21.1007 716.717 21.504 718.095 21.504C719.049 21.504 719.899 21.2767 720.647 20.822C721.395 20.3527 721.857 19.5973 722.033 18.556H723.947C723.698 19.9347 723.082 21.0567 722.099 21.922C721.117 22.7873 719.775 23.22 718.073 23.22ZM730.473 23V10.614H732.299V21.416H738.789V23H730.473ZM746.77 21.504H753.766V23H744.966V10.614H753.546V12.198H746.77V15.96H752.05V17.478H746.77V21.504ZM759.359 23L763.517 10.614H766.531L770.777 23H768.819L767.631 19.304H762.483L761.295 23H759.359ZM765.057 11.384L762.967 17.852H767.147L765.057 11.384ZM785.444 10.614H787.314V23H783.86L778.646 11.428H778.602V23H776.732V10.614H779.966L785.4 22.186H785.444V10.614ZM799.453 21.416V23H794.283V21.416H795.977V12.198H794.283V10.614H799.453V12.198H797.781V21.416H799.453ZM815.235 10.614H817.105V23H813.651L808.437 11.428H808.393V23H806.523V10.614H809.757L815.191 22.186H815.235V10.614ZM829.177 23.264C827.975 23.264 826.926 23.0147 826.031 22.516C825.151 22.0173 824.469 21.2987 823.985 20.36C823.501 19.4067 823.267 18.2407 823.281 16.862C823.296 15.4833 823.56 14.3173 824.073 13.364C824.601 12.396 825.327 11.6627 826.251 11.164C827.175 10.6507 828.253 10.394 829.485 10.394C831.099 10.394 832.375 10.7607 833.313 11.494C834.252 12.2127 834.868 13.2687 835.161 14.662L833.401 14.904C833.167 13.9067 832.69 13.1953 831.971 12.77C831.253 12.33 830.424 12.11 829.485 12.11C827.989 12.11 826.882 12.528 826.163 13.364C825.459 14.1853 825.093 15.3147 825.063 16.752C825.063 18.2627 825.459 19.436 826.251 20.272C827.058 21.0933 828.187 21.504 829.639 21.504C830.637 21.504 831.502 21.2547 832.235 20.756C832.969 20.2427 833.423 19.458 833.599 18.402H830.541V17.016H835.403V23H834.149L833.731 20.558H833.687C833.541 20.9393 833.284 21.3427 832.917 21.768C832.565 22.1787 832.074 22.5307 831.443 22.824C830.827 23.1173 830.072 23.264 829.177 23.264ZM850.358 12.198V10.614H859.818V12.198H856.012V23H854.186V12.198H850.358ZM871.126 23.308C869.146 23.308 867.636 22.7287 866.594 21.57C865.553 20.3967 865.032 18.82 865.032 16.84C865.032 15.5347 865.252 14.4053 865.692 13.452C866.147 12.484 866.822 11.736 867.716 11.208C868.626 10.6653 869.762 10.394 871.126 10.394C873.106 10.394 874.61 10.9807 875.636 12.154C876.678 13.3127 877.198 14.8747 877.198 16.84C877.198 18.116 876.964 19.2453 876.494 20.228C876.04 21.196 875.358 21.9513 874.448 22.494C873.554 23.0367 872.446 23.308 871.126 23.308ZM871.104 21.548C872.527 21.548 873.598 21.108 874.316 20.228C875.035 19.348 875.394 18.2187 875.394 16.84C875.394 15.4613 875.035 14.332 874.316 13.452C873.612 12.5573 872.542 12.11 871.104 12.11C869.696 12.11 868.626 12.5353 867.892 13.386C867.174 14.2367 866.814 15.388 866.814 16.84C866.814 17.7493 866.968 18.5633 867.276 19.282C867.584 19.986 868.054 20.5433 868.684 20.954C869.33 21.35 870.136 21.548 871.104 21.548ZM888.911 23.308C886.931 23.308 885.421 22.7287 884.379 21.57C883.338 20.3967 882.817 18.82 882.817 16.84C882.817 15.5347 883.037 14.4053 883.477 13.452C883.932 12.484 884.607 11.736 885.501 11.208C886.411 10.6653 887.547 10.394 888.911 10.394C890.891 10.394 892.395 10.9807 893.421 12.154C894.463 13.3127 894.983 14.8747 894.983 16.84C894.983 18.116 894.749 19.2453 894.279 20.228C893.825 21.196 893.143 21.9513 892.233 22.494C891.339 23.0367 890.231 23.308 888.911 23.308ZM888.889 21.548C890.312 21.548 891.383 21.108 892.101 20.228C892.82 19.348 893.179 18.2187 893.179 16.84C893.179 15.4613 892.82 14.332 892.101 13.452C891.397 12.5573 890.327 12.11 888.889 12.11C887.481 12.11 886.411 12.5353 885.677 13.386C884.959 14.2367 884.599 15.388 884.599 16.84C884.599 17.7493 884.753 18.5633 885.061 19.282C885.369 19.986 885.839 20.5433 886.469 20.954C887.115 21.35 887.921 21.548 888.889 21.548ZM901.592 23V10.614H903.418V21.416H909.908V23H901.592ZM920.88 23.264C919.986 23.264 919.128 23.1247 918.306 22.846C917.485 22.5527 916.81 22.098 916.282 21.482C915.769 20.8513 915.505 20.0373 915.49 19.04H917.338C917.338 19.0987 917.36 19.2673 917.404 19.546C917.463 19.81 917.602 20.1033 917.822 20.426C918.057 20.734 918.424 21.0053 918.922 21.24C919.421 21.4747 920.118 21.592 921.012 21.592C921.731 21.592 922.296 21.4893 922.706 21.284C923.132 21.0787 923.425 20.8367 923.586 20.558C923.762 20.2793 923.858 20.03 923.872 19.81C923.872 19.3553 923.726 18.9887 923.432 18.71C923.154 18.4313 922.772 18.2113 922.288 18.05C921.804 17.874 921.269 17.72 920.682 17.588C920.11 17.4413 919.538 17.2873 918.966 17.126C918.394 16.95 917.866 16.7227 917.382 16.444C916.913 16.1653 916.539 15.806 916.26 15.366C915.996 14.9113 915.886 14.332 915.93 13.628C915.974 12.616 916.451 11.824 917.36 11.252C918.284 10.68 919.472 10.394 920.924 10.394C921.775 10.394 922.567 10.548 923.3 10.856C924.034 11.164 924.62 11.626 925.06 12.242C925.5 12.858 925.72 13.628 925.72 14.552H923.938C923.938 14.0387 923.828 13.628 923.608 13.32C923.388 12.9973 923.11 12.748 922.772 12.572C922.435 12.396 922.083 12.2787 921.716 12.22C921.35 12.1467 921.02 12.11 920.726 12.11C919.89 12.11 919.201 12.264 918.658 12.572C918.13 12.88 917.866 13.298 917.866 13.826C917.852 14.2953 917.991 14.6693 918.284 14.948C918.578 15.2267 918.966 15.4467 919.45 15.608C919.934 15.7693 920.462 15.916 921.034 16.048C921.621 16.18 922.2 16.3267 922.772 16.488C923.359 16.6493 923.887 16.8693 924.356 17.148C924.84 17.412 925.214 17.7787 925.478 18.248C925.757 18.7027 925.882 19.282 925.852 19.986C925.808 20.6753 925.566 21.2693 925.126 21.768C924.701 22.252 924.122 22.626 923.388 22.89C922.655 23.1393 921.819 23.264 920.88 23.264ZM943.861 23H942.057V10.614H950.747V12.198H943.861V15.696H949.207V17.214H943.861V23ZM957.023 23V10.614H961.357C962.941 10.614 964.166 10.878 965.031 11.406C965.911 11.9193 966.351 12.8507 966.351 14.2C966.351 15.1387 966.109 15.9233 965.625 16.554C965.156 17.1847 964.444 17.5 963.491 17.5C964.063 17.5 964.488 17.6247 964.767 17.874C965.046 18.1233 965.236 18.4387 965.339 18.82C965.442 19.1867 965.508 19.568 965.537 19.964C965.566 20.36 965.61 20.7193 965.669 21.042C965.728 21.3647 965.845 21.5993 966.021 21.746C966.197 21.878 966.498 21.8633 966.923 21.702V22.802C966.718 22.978 966.446 23.0953 966.109 23.154C965.786 23.2273 965.464 23.2053 965.141 23.088C964.818 22.9853 964.54 22.7653 964.305 22.428C964.085 22.076 963.975 21.57 963.975 20.91C963.975 20.1327 963.931 19.524 963.843 19.084C963.755 18.644 963.55 18.3213 963.227 18.116C962.904 17.9107 962.398 17.7933 961.709 17.764C961.02 17.72 960.074 17.72 958.871 17.764V23H957.023ZM958.871 16.4H961.423C962.171 16.4 962.787 16.356 963.271 16.268C963.755 16.1653 964.114 15.9673 964.349 15.674C964.598 15.3807 964.723 14.9333 964.723 14.332C964.723 13.6427 964.576 13.144 964.283 12.836C963.99 12.528 963.557 12.3373 962.985 12.264C962.428 12.176 961.746 12.132 960.939 12.132H958.871V16.4ZM978.604 23.308C976.624 23.308 975.113 22.7287 974.072 21.57C973.031 20.3967 972.51 18.82 972.51 16.84C972.51 15.5347 972.73 14.4053 973.17 13.452C973.625 12.484 974.299 11.736 975.194 11.208C976.103 10.6653 977.24 10.394 978.604 10.394C980.584 10.394 982.087 10.9807 983.114 12.154C984.155 13.3127 984.676 14.8747 984.676 16.84C984.676 18.116 984.441 19.2453 983.972 20.228C983.517 21.196 982.835 21.9513 981.926 22.494C981.031 23.0367 979.924 23.308 978.604 23.308ZM978.582 21.548C980.005 21.548 981.075 21.108 981.794 20.228C982.513 19.348 982.872 18.2187 982.872 16.84C982.872 15.4613 982.513 14.332 981.794 13.452C981.09 12.5573 980.019 12.11 978.582 12.11C977.174 12.11 976.103 12.5353 975.37 13.386C974.651 14.2367 974.292 15.388 974.292 16.84C974.292 17.7493 974.446 18.5633 974.754 19.282C975.062 19.986 975.531 20.5433 976.162 20.954C976.807 21.35 977.614 21.548 978.582 21.548ZM991.131 23V10.614H994.299L997.775 22.186H997.819L1001.23 10.614H1004.4V23H1002.53L1002.64 11.472H1002.59L999.117 23H996.411L992.957 11.472H992.913L993.001 23H991.131ZM1025.9 23.308C1024.2 23.308 1022.89 22.824 1021.98 21.856C1021.09 20.8733 1020.64 19.4947 1020.64 17.72V10.614H1022.55V17.698C1022.55 18.6513 1022.71 19.414 1023.02 19.986C1023.32 20.5433 1023.73 20.9467 1024.23 21.196C1024.74 21.4453 1025.3 21.57 1025.9 21.57C1026.56 21.57 1027.14 21.4527 1027.64 21.218C1028.15 20.9687 1028.54 20.5653 1028.82 20.008C1029.12 19.436 1029.26 18.666 1029.26 17.698V10.614H1031.18V17.72C1031.18 19.524 1030.73 20.91 1029.84 21.878C1028.96 22.8313 1027.64 23.308 1025.9 23.308ZM1042.77 23.264C1041.88 23.264 1041.02 23.1247 1040.2 22.846C1039.37 22.5527 1038.7 22.098 1038.17 21.482C1037.66 20.8513 1037.39 20.0373 1037.38 19.04H1039.23C1039.23 19.0987 1039.25 19.2673 1039.29 19.546C1039.35 19.81 1039.49 20.1033 1039.71 20.426C1039.95 20.734 1040.31 21.0053 1040.81 21.24C1041.31 21.4747 1042.01 21.592 1042.9 21.592C1043.62 21.592 1044.19 21.4893 1044.6 21.284C1045.02 21.0787 1045.31 20.8367 1045.48 20.558C1045.65 20.2793 1045.75 20.03 1045.76 19.81C1045.76 19.3553 1045.62 18.9887 1045.32 18.71C1045.04 18.4313 1044.66 18.2113 1044.18 18.05C1043.69 17.874 1043.16 17.72 1042.57 17.588C1042 17.4413 1041.43 17.2873 1040.86 17.126C1040.28 16.95 1039.76 16.7227 1039.27 16.444C1038.8 16.1653 1038.43 15.806 1038.15 15.366C1037.89 14.9113 1037.78 14.332 1037.82 13.628C1037.86 12.616 1038.34 11.824 1039.25 11.252C1040.17 10.68 1041.36 10.394 1042.81 10.394C1043.66 10.394 1044.46 10.548 1045.19 10.856C1045.92 11.164 1046.51 11.626 1046.95 12.242C1047.39 12.858 1047.61 13.628 1047.61 14.552H1045.83C1045.83 14.0387 1045.72 13.628 1045.5 13.32C1045.28 12.9973 1045 12.748 1044.66 12.572C1044.32 12.396 1043.97 12.2787 1043.61 12.22C1043.24 12.1467 1042.91 12.11 1042.62 12.11C1041.78 12.11 1041.09 12.264 1040.55 12.572C1040.02 12.88 1039.76 13.298 1039.76 13.826C1039.74 14.2953 1039.88 14.6693 1040.17 14.948C1040.47 15.2267 1040.86 15.4467 1041.34 15.608C1041.82 15.7693 1042.35 15.916 1042.92 16.048C1043.51 16.18 1044.09 16.3267 1044.66 16.488C1045.25 16.6493 1045.78 16.8693 1046.25 17.148C1046.73 17.412 1047.1 17.7787 1047.37 18.248C1047.65 18.7027 1047.77 19.282 1047.74 19.986C1047.7 20.6753 1047.46 21.2693 1047.02 21.768C1046.59 22.252 1046.01 22.626 1045.28 22.89C1044.54 23.1393 1043.71 23.264 1042.77 23.264Z" fill="url(#paint0_linear_401_767)"/>
<path d="M263.775 90.792C259.791 90.792 256.311 90 253.335 88.416C250.359 86.832 248.055 84.504 246.423 81.432C244.839 78.312 244.095 74.496 244.191 69.984C244.287 65.376 245.247 61.512 247.071 58.392C248.895 55.224 251.343 52.824 254.415 51.192C257.535 49.56 261.111 48.744 265.143 48.744C270.855 48.744 275.223 49.944 278.247 52.344C281.271 54.744 283.311 58.224 284.367 62.784L275.943 64.08C275.511 62.256 274.719 60.816 273.567 59.76C272.463 58.704 271.167 57.96 269.679 57.528C268.191 57.096 266.679 56.88 265.143 56.88C260.823 56.88 257.679 58.032 255.711 60.336C253.791 62.64 252.807 65.64 252.759 69.336C252.759 73.56 253.911 76.776 256.215 78.984C258.567 81.192 261.903 82.296 266.223 82.296C268.527 82.296 270.711 81.816 272.775 80.856C274.887 79.896 276.327 78.192 277.095 75.744H269.391V69.48H285.159V90H279.327L277.383 83.88H277.239C276.423 85.608 274.887 87.192 272.631 88.632C270.375 90.072 267.423 90.792 263.775 90.792ZM300.416 83.016H322.448V90H291.92V49.464H321.728V56.88H300.416V65.952H316.544V73.008H300.416V83.016ZM325.74 56.88V49.464H357.42V56.88H345.9V90H337.188V56.88H325.74ZM375.323 90L387.635 49.464H401.963L414.635 90H405.347L402.323 79.2H387.635L384.683 90H375.323ZM394.979 53.064L389.507 72.504H400.451L394.979 53.064ZM420.187 90V49.464H428.899V82.584H447.619V90H420.187ZM454.148 90V49.464H462.86V82.584H481.58V90H454.148ZM510.715 90V75.888L496.891 49.464H506.683L515.179 68.4L523.747 49.464H533.467L519.355 75.816V90H510.715ZM553.127 91.008C546.503 91.008 541.439 89.112 537.935 85.32C534.431 81.48 532.679 76.32 532.679 69.84C532.679 65.568 533.423 61.872 534.911 58.752C536.447 55.584 538.727 53.136 541.751 51.408C544.775 49.632 548.567 48.744 553.127 48.744C559.799 48.744 564.863 50.664 568.319 54.504C571.775 58.296 573.503 63.408 573.503 69.84C573.503 74.016 572.735 77.712 571.199 80.928C569.663 84.096 567.383 86.568 564.359 88.344C561.335 90.12 557.591 91.008 553.127 91.008ZM553.055 82.584C555.695 82.584 557.903 82.032 559.679 80.928C561.455 79.776 562.775 78.24 563.639 76.32C564.503 74.4 564.935 72.24 564.935 69.84C564.935 67.44 564.503 65.256 563.639 63.288C562.775 61.32 561.455 59.76 559.679 58.608C557.903 57.456 555.695 56.88 553.055 56.88C549.167 56.88 546.215 58.104 544.199 60.552C542.183 62.952 541.175 66.048 541.175 69.84C541.175 72.192 541.607 74.328 542.471 76.248C543.335 78.168 544.631 79.704 546.359 80.856C548.135 82.008 550.367 82.584 553.055 82.584ZM598.275 91.008C592.371 91.008 587.883 89.424 584.811 86.256C581.787 83.04 580.275 78.528 580.275 72.72V49.464H589.563V72.648C589.563 75.48 590.019 77.616 590.931 79.056C591.891 80.496 593.043 81.48 594.387 82.008C595.731 82.488 597.027 82.728 598.275 82.728C599.715 82.728 601.107 82.488 602.451 82.008C603.795 81.48 604.899 80.496 605.763 79.056C606.627 77.616 607.059 75.48 607.059 72.648V49.464H616.347V72.72C616.347 78.624 614.835 83.16 611.811 86.328C608.835 89.448 604.323 91.008 598.275 91.008ZM623.796 90V49.464H639.492C644.772 49.464 648.9 50.376 651.876 52.2C654.9 53.976 656.412 57.096 656.412 61.56C656.412 65.016 655.596 67.752 653.964 69.768C652.38 71.784 650.172 72.792 647.34 72.792C648.828 72.792 649.956 73.152 650.724 73.872C651.492 74.544 652.02 75.384 652.308 76.392C652.644 77.4 652.884 78.456 653.028 79.56C653.22 80.616 653.46 81.576 653.748 82.44C654.036 83.256 654.516 83.832 655.188 84.168C655.908 84.456 656.964 84.312 658.356 83.736V88.56C657.252 89.52 655.98 90.144 654.54 90.432C653.1 90.768 651.708 90.696 650.364 90.216C649.02 89.736 647.892 88.8 646.98 87.408C646.116 85.968 645.684 84 645.684 81.504C645.684 79.872 645.564 78.504 645.324 77.4C645.132 76.296 644.628 75.432 643.812 74.808C642.996 74.184 641.7 73.776 639.924 73.584C638.148 73.392 635.676 73.392 632.508 73.584V90H623.796ZM632.508 67.392H638.7C640.956 67.392 642.804 67.32 644.244 67.176C645.732 67.032 646.836 66.624 647.556 65.952C648.276 65.232 648.636 64.008 648.636 62.28C648.636 60.312 648.204 58.944 647.34 58.176C646.476 57.36 645.18 56.88 643.452 56.736C641.772 56.592 639.708 56.52 637.26 56.52H632.508V67.392ZM696.689 90.792C692.705 90.792 689.225 90 686.249 88.416C683.273 86.832 680.969 84.504 679.337 81.432C677.753 78.312 677.009 74.496 677.105 69.984C677.201 65.376 678.161 61.512 679.985 58.392C681.809 55.224 684.257 52.824 687.329 51.192C690.449 49.56 694.025 48.744 698.057 48.744C703.769 48.744 708.137 49.944 711.161 52.344C714.185 54.744 716.225 58.224 717.281 62.784L708.857 64.08C708.425 62.256 707.633 60.816 706.481 59.76C705.377 58.704 704.081 57.96 702.593 57.528C701.105 57.096 699.593 56.88 698.057 56.88C693.737 56.88 690.593 58.032 688.625 60.336C686.705 62.64 685.721 65.64 685.673 69.336C685.673 73.56 686.825 76.776 689.129 78.984C691.481 81.192 694.817 82.296 699.137 82.296C701.441 82.296 703.625 81.816 705.689 80.856C707.801 79.896 709.241 78.192 710.009 75.744H702.305V69.48H718.073V90H712.241L710.297 83.88H710.153C709.337 85.608 707.801 87.192 705.545 88.632C703.289 90.072 700.337 90.792 696.689 90.792ZM722.386 90L734.698 49.464H749.026L761.698 90H752.41L749.386 79.2H734.698L731.746 90H722.386ZM742.042 53.064L736.57 72.504H747.514L742.042 53.064ZM804.329 69.696C804.329 75.024 803.273 79.176 801.161 82.152C799.049 85.08 796.049 87.12 792.161 88.272C788.321 89.424 783.809 90 778.625 90H767.249V49.464H778.625C783.809 49.464 788.321 50.232 792.161 51.768C796.049 53.256 799.049 55.488 801.161 58.464C803.273 61.44 804.329 65.184 804.329 69.696ZM775.817 82.872H781.217C784.049 82.872 786.497 82.536 788.561 81.864C790.673 81.144 792.281 79.848 793.385 77.976C794.537 76.056 795.113 73.272 795.113 69.624C795.113 65.4 793.865 62.232 791.369 60.12C788.873 58.008 785.489 56.952 781.217 56.952H775.817V82.872ZM828.032 90.792C824.048 90.792 820.568 90 817.592 88.416C814.616 86.832 812.312 84.504 810.68 81.432C809.096 78.312 808.352 74.496 808.448 69.984C808.544 65.376 809.504 61.512 811.328 58.392C813.152 55.224 815.6 52.824 818.672 51.192C821.792 49.56 825.368 48.744 829.4 48.744C835.112 48.744 839.48 49.944 842.504 52.344C845.528 54.744 847.568 58.224 848.624 62.784L840.2 64.08C839.768 62.256 838.976 60.816 837.824 59.76C836.72 58.704 835.424 57.96 833.936 57.528C832.448 57.096 830.936 56.88 829.4 56.88C825.08 56.88 821.936 58.032 819.968 60.336C818.048 62.64 817.064 65.64 817.016 69.336C817.016 73.56 818.168 76.776 820.472 78.984C822.824 81.192 826.16 82.296 830.48 82.296C832.784 82.296 834.968 81.816 837.032 80.856C839.144 79.896 840.584 78.192 841.352 75.744H833.648V69.48H849.416V90H843.584L841.64 83.88H841.496C840.68 85.608 839.144 87.192 836.888 88.632C834.632 90.072 831.68 90.792 828.032 90.792ZM864.674 83.016H886.706V90H856.178V49.464H885.986V56.88H864.674V65.952H880.802V73.008H864.674V83.016ZM889.997 56.88V49.464H921.677V56.88H910.157V90H901.445V56.88H889.997ZM943.326 90.792C941.07 90.792 938.862 90.528 936.702 90C934.542 89.472 932.574 88.632 930.798 87.48C929.022 86.328 927.606 84.84 926.55 83.016C925.542 81.192 925.038 78.984 925.038 76.392H933.75C933.75 76.632 933.846 77.112 934.038 77.832C934.23 78.504 934.662 79.248 935.334 80.064C936.006 80.832 937.038 81.504 938.43 82.08C939.822 82.608 941.67 82.872 943.974 82.872C946.086 82.872 947.814 82.536 949.158 81.864C950.55 81.144 951.27 80.112 951.318 78.768C951.318 77.616 950.838 76.704 949.878 76.032C948.966 75.36 947.742 74.808 946.206 74.376C944.67 73.896 942.966 73.464 941.094 73.08C939.27 72.696 937.446 72.216 935.622 71.64C933.846 71.064 932.214 70.296 930.726 69.336C929.238 68.376 928.062 67.152 927.198 65.664C926.382 64.128 926.046 62.184 926.19 59.832C926.43 56.376 928.086 53.664 931.158 51.696C934.23 49.728 938.406 48.744 943.686 48.744C946.614 48.744 949.35 49.272 951.894 50.328C954.438 51.336 956.502 52.896 958.086 55.008C959.67 57.12 960.462 59.784 960.462 63H952.038C952.038 61.272 951.51 59.976 950.454 59.112C949.398 58.248 948.126 57.672 946.638 57.384C945.198 57.048 943.902 56.88 942.75 56.88C940.638 56.88 938.886 57.216 937.494 57.888C936.15 58.512 935.478 59.52 935.478 60.912C935.478 62.112 935.934 63.072 936.846 63.792C937.806 64.512 939.078 65.088 940.662 65.52C942.246 65.952 943.95 66.36 945.774 66.744C947.646 67.08 949.494 67.512 951.318 68.04C953.19 68.568 954.87 69.312 956.358 70.272C957.846 71.184 959.022 72.408 959.886 73.944C960.75 75.432 961.11 77.376 960.966 79.776C960.726 83.232 958.998 85.944 955.782 87.912C952.566 89.832 948.414 90.792 943.326 90.792ZM1021.9 90.216C1020.17 89.448 1018.52 88.68 1016.93 87.912C1015.4 87.096 1013.89 86.232 1012.4 85.32C1010.24 87.096 1007.84 88.44 1005.2 89.352C1002.56 90.216 999.917 90.624 997.277 90.576C994.637 90.576 992.213 90.12 990.005 89.208C987.797 88.296 986.021 86.952 984.677 85.176C983.333 83.352 982.661 81.096 982.661 78.408C982.661 76.344 983.069 74.64 983.885 73.296C984.701 71.952 985.661 70.896 986.765 70.128C987.917 69.312 988.949 68.712 989.861 68.328C990.821 67.944 991.421 67.704 991.661 67.608C991.517 67.416 991.061 66.936 990.293 66.168C989.573 65.352 988.877 64.296 988.205 63C987.533 61.656 987.197 60.072 987.197 58.248C987.197 56.232 987.749 54.528 988.853 53.136C989.957 51.744 991.397 50.688 993.173 49.968C994.997 49.248 996.893 48.864 998.861 48.816C1000.88 48.768 1002.77 49.08 1004.55 49.752C1006.33 50.424 1007.77 51.456 1008.87 52.848C1010.02 54.24 1010.6 55.992 1010.6 58.104C1010.6 59.832 1010.19 61.344 1009.37 62.64C1008.61 63.936 1007.69 65.016 1006.64 65.88C1005.58 66.744 1004.65 67.416 1003.83 67.896C1003.01 68.328 1002.56 68.568 1002.46 68.616C1002.7 68.952 1003.42 69.72 1004.62 70.92C1005.82 72.072 1007.38 73.44 1009.3 75.024C1009.49 74.784 1009.78 74.256 1010.17 73.44C1010.6 72.624 1010.84 71.736 1010.89 70.776C1010.93 69.768 1010.45 68.832 1009.45 67.968L1016.79 63.288C1016.93 63.432 1017.27 64.008 1017.8 65.016C1018.37 66.024 1018.85 67.32 1019.24 68.904C1019.67 70.44 1019.77 72.168 1019.53 74.088C1019.33 75.96 1018.52 77.856 1017.08 79.776C1018.09 80.4 1019.19 81.048 1020.39 81.72C1021.64 82.392 1023.22 83.112 1025.14 83.88L1021.9 90.216ZM997.637 64.584C998.789 63.96 999.965 63.216 1001.17 62.352C1002.37 61.44 1003.04 60.456 1003.18 59.4C1003.33 58.152 1002.99 57.192 1002.17 56.52C1001.36 55.848 1000.37 55.488 999.221 55.44C998.117 55.344 997.109 55.608 996.197 56.232C995.333 56.856 994.925 57.816 994.973 59.112C995.021 60.84 995.909 62.664 997.637 64.584ZM1005.63 80.352C1003.76 78.912 1002.08 77.496 1000.59 76.104C999.149 74.712 997.733 73.224 996.341 71.64C995.045 72.264 993.845 72.984 992.741 73.8C991.685 74.616 991.157 75.816 991.157 77.4C991.157 78.936 991.661 80.184 992.669 81.144C993.677 82.056 994.949 82.68 996.485 83.016C998.069 83.304 999.677 83.232 1001.31 82.8C1002.94 82.368 1004.38 81.552 1005.63 80.352ZM1042.01 56.88V49.464H1073.69V56.88H1062.17V90H1053.46V56.88H1042.01ZM1096.85 91.008C1090.23 91.008 1085.17 89.112 1081.66 85.32C1078.16 81.48 1076.41 76.32 1076.41 69.84C1076.41 65.568 1077.15 61.872 1078.64 58.752C1080.17 55.584 1082.45 53.136 1085.48 51.408C1088.5 49.632 1092.29 48.744 1096.85 48.744C1103.53 48.744 1108.59 50.664 1112.05 54.504C1115.5 58.296 1117.23 63.408 1117.23 69.84C1117.23 74.016 1116.46 77.712 1114.93 80.928C1113.39 84.096 1111.11 86.568 1108.09 88.344C1105.06 90.12 1101.32 91.008 1096.85 91.008ZM1096.78 82.584C1099.42 82.584 1101.63 82.032 1103.41 80.928C1105.18 79.776 1106.5 78.24 1107.37 76.32C1108.23 74.4 1108.66 72.24 1108.66 69.84C1108.66 67.44 1108.23 65.256 1107.37 63.288C1106.5 61.32 1105.18 59.76 1103.41 58.608C1101.63 57.456 1099.42 56.88 1096.78 56.88C1092.89 56.88 1089.94 58.104 1087.93 60.552C1085.91 62.952 1084.9 66.048 1084.9 69.84C1084.9 72.192 1085.33 74.328 1086.2 76.248C1087.06 78.168 1088.36 79.704 1090.09 80.856C1091.86 82.008 1094.09 82.584 1096.78 82.584ZM1141.15 91.008C1134.53 91.008 1129.46 89.112 1125.96 85.32C1122.45 81.48 1120.7 76.32 1120.7 69.84C1120.7 65.568 1121.45 61.872 1122.93 58.752C1124.47 55.584 1126.75 53.136 1129.77 51.408C1132.8 49.632 1136.59 48.744 1141.15 48.744C1147.82 48.744 1152.89 50.664 1156.34 54.504C1159.8 58.296 1161.53 63.408 1161.53 69.84C1161.53 74.016 1160.76 77.712 1159.22 80.928C1157.69 84.096 1155.41 86.568 1152.38 88.344C1149.36 90.12 1145.61 91.008 1141.15 91.008ZM1141.08 82.584C1143.72 82.584 1145.93 82.032 1147.7 80.928C1149.48 79.776 1150.8 78.24 1151.66 76.32C1152.53 74.4 1152.96 72.24 1152.96 69.84C1152.96 67.44 1152.53 65.256 1151.66 63.288C1150.8 61.32 1149.48 59.76 1147.7 58.608C1145.93 57.456 1143.72 56.88 1141.08 56.88C1137.19 56.88 1134.24 58.104 1132.22 60.552C1130.21 62.952 1129.2 66.048 1129.2 69.84C1129.2 72.192 1129.63 74.328 1130.49 76.248C1131.36 78.168 1132.65 79.704 1134.38 80.856C1136.16 82.008 1138.39 82.584 1141.08 82.584ZM1168.31 90V49.464H1177.02V82.584H1195.74V90H1168.31ZM1217.9 90.792C1215.64 90.792 1213.43 90.528 1211.27 90C1209.11 89.472 1207.14 88.632 1205.37 87.48C1203.59 86.328 1202.18 84.84 1201.12 83.016C1200.11 81.192 1199.61 78.984 1199.61 76.392H1208.32C1208.32 76.632 1208.42 77.112 1208.61 77.832C1208.8 78.504 1209.23 79.248 1209.9 80.064C1210.58 80.832 1211.61 81.504 1213 82.08C1214.39 82.608 1216.24 82.872 1218.54 82.872C1220.66 82.872 1222.38 82.536 1223.73 81.864C1225.12 81.144 1225.84 80.112 1225.89 78.768C1225.89 77.616 1225.41 76.704 1224.45 76.032C1223.54 75.36 1222.31 74.808 1220.78 74.376C1219.24 73.896 1217.54 73.464 1215.66 73.08C1213.84 72.696 1212.02 72.216 1210.19 71.64C1208.42 71.064 1206.78 70.296 1205.3 69.336C1203.81 68.376 1202.63 67.152 1201.77 65.664C1200.95 64.128 1200.62 62.184 1200.76 59.832C1201 56.376 1202.66 53.664 1205.73 51.696C1208.8 49.728 1212.98 48.744 1218.26 48.744C1221.18 48.744 1223.92 49.272 1226.46 50.328C1229.01 51.336 1231.07 52.896 1232.66 55.008C1234.24 57.12 1235.03 59.784 1235.03 63H1226.61C1226.61 61.272 1226.08 59.976 1225.02 59.112C1223.97 58.248 1222.7 57.672 1221.21 57.384C1219.77 57.048 1218.47 56.88 1217.32 56.88C1215.21 56.88 1213.46 57.216 1212.06 57.888C1210.72 58.512 1210.05 59.52 1210.05 60.912C1210.05 62.112 1210.5 63.072 1211.42 63.792C1212.38 64.512 1213.65 65.088 1215.23 65.52C1216.82 65.952 1218.52 66.36 1220.34 66.744C1222.22 67.08 1224.06 67.512 1225.89 68.04C1227.76 68.568 1229.44 69.312 1230.93 70.272C1232.42 71.184 1233.59 72.408 1234.46 73.944C1235.32 75.432 1235.68 77.376 1235.54 79.776C1235.3 83.232 1233.57 85.944 1230.35 87.912C1227.14 89.832 1222.98 90.792 1217.9 90.792ZM1254.57 56.88V49.464H1286.25V56.88H1274.73V90H1266.02V56.88H1254.57ZM1309.41 91.008C1302.78 91.008 1297.72 89.112 1294.22 85.32C1290.71 81.48 1288.96 76.32 1288.96 69.84C1288.96 65.568 1289.7 61.872 1291.19 58.752C1292.73 55.584 1295.01 53.136 1298.03 51.408C1301.06 49.632 1304.85 48.744 1309.41 48.744C1316.08 48.744 1321.14 50.664 1324.6 54.504C1328.06 58.296 1329.78 63.408 1329.78 69.84C1329.78 74.016 1329.02 77.712 1327.48 80.928C1325.94 84.096 1323.66 86.568 1320.64 88.344C1317.62 90.12 1313.87 91.008 1309.41 91.008ZM1309.34 82.584C1311.98 82.584 1314.18 82.032 1315.96 80.928C1317.74 79.776 1319.06 78.24 1319.92 76.32C1320.78 74.4 1321.22 72.24 1321.22 69.84C1321.22 67.44 1320.78 65.256 1319.92 63.288C1319.06 61.32 1317.74 59.76 1315.96 58.608C1314.18 57.456 1311.98 56.88 1309.34 56.88C1305.45 56.88 1302.5 58.104 1300.48 60.552C1298.46 62.952 1297.46 66.048 1297.46 69.84C1297.46 72.192 1297.89 74.328 1298.75 76.248C1299.62 78.168 1300.91 79.704 1302.64 80.856C1304.42 82.008 1306.65 82.584 1309.34 82.584ZM41.6894 175V134.464H56.8094L64.5854 171.328H64.7294L72.3614 134.464H87.4094V175H78.4094L79.0574 138.208H78.9134L70.9214 175H58.2494L50.3294 138.208H50.1854L50.6894 175H41.6894ZM92.7374 175L105.049 134.464H119.377L132.049 175H122.761L119.737 164.2H105.049L102.097 175H92.7374ZM112.393 138.064L106.921 157.504H117.865L112.393 138.064ZM137.673 175V134.464H146.313V152.608L162.585 134.464H173.889V135.328L158.409 150.448L174.753 174.136V175H164.817L152.145 156.568L146.313 162.256V175H137.673ZM187.916 168.016H209.948V175H179.42V134.464H209.228V141.88H187.916V150.952H204.044V158.008H187.916V168.016ZM239.59 175V160.888L225.766 134.464H235.558L244.054 153.4L252.622 134.464H262.342L248.23 160.816V175H239.59ZM282.002 176.008C275.378 176.008 270.314 174.112 266.81 170.32C263.306 166.48 261.554 161.32 261.554 154.84C261.554 150.568 262.298 146.872 263.786 143.752C265.322 140.584 267.602 138.136 270.626 136.408C273.65 134.632 277.442 133.744 282.002 133.744C288.674 133.744 293.738 135.664 297.194 139.504C300.65 143.296 302.378 148.408 302.378 154.84C302.378 159.016 301.61 162.712 300.074 165.928C298.538 169.096 296.258 171.568 293.234 173.344C290.21 175.12 286.466 176.008 282.002 176.008ZM281.93 167.584C284.57 167.584 286.778 167.032 288.554 165.928C290.33 164.776 291.65 163.24 292.514 161.32C293.378 159.4 293.81 157.24 293.81 154.84C293.81 152.44 293.378 150.256 292.514 148.288C291.65 146.32 290.33 144.76 288.554 143.608C286.778 142.456 284.57 141.88 281.93 141.88C278.042 141.88 275.09 143.104 273.074 145.552C271.058 147.952 270.05 151.048 270.05 154.84C270.05 157.192 270.482 159.328 271.346 161.248C272.21 163.168 273.506 164.704 275.234 165.856C277.01 167.008 279.242 167.584 281.93 167.584ZM327.15 176.008C321.246 176.008 316.758 174.424 313.686 171.256C310.662 168.04 309.15 163.528 309.15 157.72V134.464H318.438V157.648C318.438 160.48 318.894 162.616 319.806 164.056C320.766 165.496 321.918 166.48 323.262 167.008C324.606 167.488 325.902 167.728 327.15 167.728C328.59 167.728 329.982 167.488 331.326 167.008C332.67 166.48 333.774 165.496 334.638 164.056C335.502 162.616 335.934 160.48 335.934 157.648V134.464H345.222V157.72C345.222 163.624 343.71 168.16 340.686 171.328C337.71 174.448 333.198 176.008 327.15 176.008ZM352.671 175V134.464H368.367C373.647 134.464 377.775 135.376 380.751 137.2C383.775 138.976 385.287 142.096 385.287 146.56C385.287 150.016 384.471 152.752 382.839 154.768C381.255 156.784 379.047 157.792 376.215 157.792C377.703 157.792 378.831 158.152 379.599 158.872C380.367 159.544 380.895 160.384 381.183 161.392C381.519 162.4 381.759 163.456 381.903 164.56C382.095 165.616 382.335 166.576 382.623 167.44C382.911 168.256 383.391 168.832 384.063 169.168C384.783 169.456 385.839 169.312 387.231 168.736V173.56C386.127 174.52 384.855 175.144 383.415 175.432C381.975 175.768 380.583 175.696 379.239 175.216C377.895 174.736 376.767 173.8 375.855 172.408C374.991 170.968 374.559 169 374.559 166.504C374.559 164.872 374.439 163.504 374.199 162.4C374.007 161.296 373.503 160.432 372.687 159.808C371.871 159.184 370.575 158.776 368.799 158.584C367.023 158.392 364.551 158.392 361.383 158.584V175H352.671ZM361.383 152.392H367.575C369.831 152.392 371.679 152.32 373.119 152.176C374.607 152.032 375.711 151.624 376.431 150.952C377.151 150.232 377.511 149.008 377.511 147.28C377.511 145.312 377.079 143.944 376.215 143.176C375.351 142.36 374.055 141.88 372.327 141.736C370.647 141.592 368.583 141.52 366.135 141.52H361.383V152.392ZM416.924 168.016H438.956V175H408.428V134.464H438.236V141.88H416.924V150.952H433.052V158.008H416.924V168.016ZM472.919 134.464H481.991V175H465.359L454.631 138.28H454.487V175H445.487V134.464H460.895L472.775 171.184H472.919V134.464ZM517.715 134.464H527.219L514.259 175H499.787L486.827 134.464H496.331L506.987 171.4L517.715 134.464ZM552.333 167.584V175H533.109V167.584H538.437V141.88H533.109V134.464H552.333V141.88H547.077V167.584H552.333ZM562.273 175V134.464H577.969C583.249 134.464 587.377 135.376 590.353 137.2C593.377 138.976 594.889 142.096 594.889 146.56C594.889 150.016 594.073 152.752 592.441 154.768C590.857 156.784 588.649 157.792 585.817 157.792C587.305 157.792 588.433 158.152 589.201 158.872C589.969 159.544 590.497 160.384 590.785 161.392C591.121 162.4 591.361 163.456 591.505 164.56C591.697 165.616 591.937 166.576 592.225 167.44C592.513 168.256 592.993 168.832 593.665 169.168C594.385 169.456 595.441 169.312 596.833 168.736V173.56C595.729 174.52 594.457 175.144 593.017 175.432C591.577 175.768 590.185 175.696 588.841 175.216C587.497 174.736 586.369 173.8 585.457 172.408C584.593 170.968 584.161 169 584.161 166.504C584.161 164.872 584.041 163.504 583.801 162.4C583.609 161.296 583.105 160.432 582.289 159.808C581.473 159.184 580.177 158.776 578.401 158.584C576.625 158.392 574.153 158.392 570.985 158.584V175H562.273ZM570.985 152.392H577.177C579.433 152.392 581.281 152.32 582.721 152.176C584.209 152.032 585.313 151.624 586.033 150.952C586.753 150.232 587.113 149.008 587.113 147.28C587.113 145.312 586.681 143.944 585.817 143.176C584.953 142.36 583.657 141.88 581.929 141.736C580.249 141.592 578.185 141.52 575.737 141.52H570.985V152.392ZM620.838 176.008C614.214 176.008 609.15 174.112 605.646 170.32C602.142 166.48 600.39 161.32 600.39 154.84C600.39 150.568 601.134 146.872 602.622 143.752C604.158 140.584 606.438 138.136 609.462 136.408C612.486 134.632 616.278 133.744 620.838 133.744C627.51 133.744 632.574 135.664 636.03 139.504C639.486 143.296 641.214 148.408 641.214 154.84C641.214 159.016 640.446 162.712 638.91 165.928C637.374 169.096 635.094 171.568 632.07 173.344C629.046 175.12 625.302 176.008 620.838 176.008ZM620.766 167.584C623.406 167.584 625.614 167.032 627.39 165.928C629.166 164.776 630.486 163.24 631.35 161.32C632.214 159.4 632.646 157.24 632.646 154.84C632.646 152.44 632.214 150.256 631.35 148.288C630.486 146.32 629.166 144.76 627.39 143.608C625.614 142.456 623.406 141.88 620.766 141.88C616.878 141.88 613.926 143.104 611.91 145.552C609.894 147.952 608.886 151.048 608.886 154.84C608.886 157.192 609.318 159.328 610.182 161.248C611.046 163.168 612.342 164.704 614.07 165.856C615.846 167.008 618.078 167.584 620.766 167.584ZM674.927 134.464H683.999V175H667.367L656.639 138.28H656.495V175H647.495V134.464H662.903L674.783 171.184H674.927V134.464ZM692.291 175V134.464H707.411L715.187 171.328H715.331L722.963 134.464H738.011V175H729.011L729.659 138.208H729.515L721.523 175H708.851L700.931 138.208H700.787L701.291 175H692.291ZM754.283 168.016H776.315V175H745.787V134.464H775.595V141.88H754.283V150.952H770.411V158.008H754.283V168.016ZM810.279 134.464H819.351V175H802.719L791.991 138.28H791.847V175H782.847V134.464H798.255L810.135 171.184H810.279V134.464ZM824.115 141.88V134.464H855.795V141.88H844.275V175H835.563V141.88H824.115ZM885.002 175H876.29V134.464H885.002V151.168H902.426V134.464H911.066V175H902.426V157.792H885.002V175ZM929.778 175V160.888L915.954 134.464H925.746L934.242 153.4L942.81 134.464H952.53L938.418 160.816V175H929.778ZM971.47 175.792C967.486 175.792 964.006 175 961.03 173.416C958.054 171.832 955.75 169.504 954.118 166.432C952.534 163.312 951.79 159.496 951.886 154.984C951.982 150.376 952.942 146.512 954.766 143.392C956.59 140.224 959.038 137.824 962.11 136.192C965.23 134.56 968.806 133.744 972.838 133.744C978.55 133.744 982.918 134.944 985.942 137.344C988.966 139.744 991.006 143.224 992.062 147.784L983.638 149.08C983.206 147.256 982.414 145.816 981.262 144.76C980.158 143.704 978.862 142.96 977.374 142.528C975.886 142.096 974.374 141.88 972.838 141.88C968.518 141.88 965.374 143.032 963.406 145.336C961.486 147.64 960.502 150.64 960.454 154.336C960.454 158.56 961.606 161.776 963.91 163.984C966.262 166.192 969.598 167.296 973.918 167.296C976.222 167.296 978.406 166.816 980.47 165.856C982.582 164.896 984.022 163.192 984.79 160.744H977.086V154.48H992.854V175H987.022L985.078 168.88H984.934C984.118 170.608 982.582 172.192 980.326 173.632C978.07 175.072 975.118 175.792 971.47 175.792ZM1019.56 167.584V175H1000.34V167.584H1005.66V141.88H1000.34V134.464H1019.56V141.88H1014.3V167.584H1019.56ZM1036.73 168.016H1058.76V175H1028.23V134.464H1058.04V141.88H1036.73V150.952H1052.86V158.008H1036.73V168.016ZM1092.72 134.464H1101.8V175H1085.16L1074.44 138.28H1074.29V175H1065.29V134.464H1080.7L1092.58 171.184H1092.72V134.464ZM1129.53 167.584V175H1110.3V167.584H1115.63V141.88H1110.3V134.464H1129.53V141.88H1124.27V167.584H1129.53ZM1156.2 175.72C1152.36 175.72 1148.88 174.952 1145.76 173.416C1142.64 171.832 1140.17 169.504 1138.35 166.432C1136.52 163.36 1135.63 159.544 1135.68 154.984C1135.68 150.472 1136.59 146.632 1138.42 143.464C1140.24 140.296 1142.71 137.896 1145.83 136.264C1148.95 134.584 1152.48 133.744 1156.42 133.744C1160.31 133.744 1163.62 134.44 1166.35 135.832C1169.09 137.224 1171.23 139.096 1172.76 141.448C1174.35 143.8 1175.38 146.392 1175.86 149.224H1166.86C1166.57 147.208 1165.85 145.696 1164.7 144.688C1163.55 143.632 1162.2 142.912 1160.67 142.528C1159.18 142.144 1157.76 141.952 1156.42 141.952C1152.43 141.952 1149.41 143.032 1147.35 145.192C1145.28 147.352 1144.25 150.4 1144.25 154.336C1144.25 158.56 1145.23 161.824 1147.2 164.128C1149.22 166.432 1152.27 167.584 1156.35 167.584C1157.74 167.584 1159.2 167.368 1160.74 166.936C1162.27 166.504 1163.62 165.736 1164.77 164.632C1165.97 163.48 1166.71 161.896 1167 159.88H1176.07C1175.55 162.808 1174.49 165.472 1172.91 167.872C1171.32 170.224 1169.14 172.12 1166.35 173.56C1163.57 175 1160.19 175.72 1156.2 175.72ZM1194.39 175L1206.71 134.464H1221.03L1233.71 175H1224.42L1221.39 164.2H1206.71L1203.75 175H1194.39ZM1214.05 138.064L1208.58 157.504H1219.52L1214.05 138.064ZM1254.88 175.792C1252.62 175.792 1250.42 175.528 1248.26 175C1246.1 174.472 1244.13 173.632 1242.35 172.48C1240.58 171.328 1239.16 169.84 1238.1 168.016C1237.1 166.192 1236.59 163.984 1236.59 161.392H1245.3C1245.3 161.632 1245.4 162.112 1245.59 162.832C1245.78 163.504 1246.22 164.248 1246.89 165.064C1247.56 165.832 1248.59 166.504 1249.98 167.08C1251.38 167.608 1253.22 167.872 1255.53 167.872C1257.64 167.872 1259.37 167.536 1260.71 166.864C1262.1 166.144 1262.82 165.112 1262.87 163.768C1262.87 162.616 1262.39 161.704 1261.43 161.032C1260.52 160.36 1259.3 159.808 1257.76 159.376C1256.22 158.896 1254.52 158.464 1252.65 158.08C1250.82 157.696 1249 157.216 1247.18 156.64C1245.4 156.064 1243.77 155.296 1242.28 154.336C1240.79 153.376 1239.62 152.152 1238.75 150.664C1237.94 149.128 1237.6 147.184 1237.74 144.832C1237.98 141.376 1239.64 138.664 1242.71 136.696C1245.78 134.728 1249.96 133.744 1255.24 133.744C1258.17 133.744 1260.9 134.272 1263.45 135.328C1265.99 136.336 1268.06 137.896 1269.64 140.008C1271.22 142.12 1272.02 144.784 1272.02 148H1263.59C1263.59 146.272 1263.06 144.976 1262.01 144.112C1260.95 143.248 1259.68 142.672 1258.19 142.384C1256.75 142.048 1255.46 141.88 1254.3 141.88C1252.19 141.88 1250.44 142.216 1249.05 142.888C1247.7 143.512 1247.03 144.52 1247.03 145.912C1247.03 147.112 1247.49 148.072 1248.4 148.792C1249.36 149.512 1250.63 150.088 1252.22 150.52C1253.8 150.952 1255.5 151.36 1257.33 151.744C1259.2 152.08 1261.05 152.512 1262.87 153.04C1264.74 153.568 1266.42 154.312 1267.91 155.272C1269.4 156.184 1270.58 157.408 1271.44 158.944C1272.3 160.432 1272.66 162.376 1272.52 164.776C1272.28 168.232 1270.55 170.944 1267.34 172.912C1264.12 174.832 1259.97 175.792 1254.88 175.792ZM1292.13 175L1304.44 134.464H1318.77L1331.44 175H1322.15L1319.13 164.2H1304.44L1301.49 175H1292.13ZM1311.78 138.064L1306.31 157.504H1317.26L1311.78 138.064ZM1336.99 175V134.464H1345.7V167.584H1364.42V175H1336.99ZM1414.22 134.464H1423.44L1414.87 175H1400.9L1395.65 145.48L1390.54 175H1376.57L1367.71 134.464H1376.93L1383.55 171.4L1390.97 134.608L1390.9 134.464H1400.26L1407.89 171.4L1414.22 134.464ZM1424.17 175L1436.49 134.464H1450.81L1463.49 175H1454.2L1451.17 164.2H1436.49L1433.53 175H1424.17ZM1443.83 138.064L1438.36 157.504H1449.3L1443.83 138.064ZM1475.75 175V160.888L1461.93 134.464H1471.72L1480.22 153.4L1488.79 134.464H1498.51L1484.39 160.816V175H1475.75ZM1516.65 175.792C1514.4 175.792 1512.19 175.528 1510.03 175C1507.87 174.472 1505.9 173.632 1504.13 172.48C1502.35 171.328 1500.93 169.84 1499.88 168.016C1498.87 166.192 1498.37 163.984 1498.37 161.392H1507.08C1507.08 161.632 1507.17 162.112 1507.37 162.832C1507.56 163.504 1507.99 164.248 1508.66 165.064C1509.33 165.832 1510.37 166.504 1511.76 167.08C1513.15 167.608 1515 167.872 1517.3 167.872C1519.41 167.872 1521.14 167.536 1522.49 166.864C1523.88 166.144 1524.6 165.112 1524.65 163.768C1524.65 162.616 1524.17 161.704 1523.21 161.032C1522.29 160.36 1521.07 159.808 1519.53 159.376C1518 158.896 1516.29 158.464 1514.42 158.08C1512.6 157.696 1510.77 157.216 1508.95 156.64C1507.17 156.064 1505.54 155.296 1504.05 154.336C1502.57 153.376 1501.39 152.152 1500.53 150.664C1499.71 149.128 1499.37 147.184 1499.52 144.832C1499.76 141.376 1501.41 138.664 1504.49 136.696C1507.56 134.728 1511.73 133.744 1517.01 133.744C1519.94 133.744 1522.68 134.272 1525.22 135.328C1527.77 136.336 1529.83 137.896 1531.41 140.008C1533 142.12 1533.79 144.784 1533.79 148H1525.37C1525.37 146.272 1524.84 144.976 1523.78 144.112C1522.73 143.248 1521.45 142.672 1519.97 142.384C1518.53 142.048 1517.23 141.88 1516.08 141.88C1513.97 141.88 1512.21 142.216 1510.82 142.888C1509.48 143.512 1508.81 144.52 1508.81 145.912C1508.81 147.112 1509.26 148.072 1510.17 148.792C1511.13 149.512 1512.41 150.088 1513.99 150.52C1515.57 150.952 1517.28 151.36 1519.1 151.744C1520.97 152.08 1522.82 152.512 1524.65 153.04C1526.52 153.568 1528.2 154.312 1529.69 155.272C1531.17 156.184 1532.35 157.408 1533.21 158.944C1534.08 160.432 1534.44 162.376 1534.29 164.776C1534.05 168.232 1532.33 170.944 1529.11 172.912C1525.89 174.832 1521.74 175.792 1516.65 175.792Z" fill="#EDF5FA"/>
<path d="M340.97 260.36C339.098 260.36 337.394 259.976 335.858 259.208C334.346 258.416 333.146 257.252 332.258 255.716C331.394 254.156 330.962 252.224 330.962 249.92C330.986 247.64 331.43 245.72 332.294 244.16C333.158 242.576 334.346 241.388 335.858 240.596C337.394 239.78 339.146 239.372 341.114 239.372C343.73 239.372 345.842 240.068 347.45 241.46C349.058 242.852 350.054 244.676 350.438 246.932H347.342C347.15 245.78 346.73 244.856 346.082 244.16C345.458 243.464 344.702 242.96 343.814 242.648C342.95 242.336 342.05 242.18 341.114 242.18C338.834 242.18 337.07 242.84 335.822 244.16C334.574 245.456 333.95 247.316 333.95 249.74C333.95 252.284 334.562 254.228 335.786 255.572C337.01 256.892 338.75 257.552 341.006 257.552C342.566 257.552 343.958 257.18 345.182 256.436C346.406 255.668 347.162 254.432 347.45 252.728H350.582C350.174 254.984 349.166 256.82 347.558 258.236C345.95 259.652 343.754 260.36 340.97 260.36ZM354.061 260V239.732H357.049V257.408H367.669V260H354.061ZM373.528 257.552H384.976V260H370.576V239.732H384.616V242.324H373.528V248.48H382.168V250.964H373.528V257.552ZM386.928 260L393.732 239.732H398.664L405.612 260H402.408L400.464 253.952H392.04L390.096 260H386.928ZM396.252 240.992L392.832 251.576H399.672L396.252 240.992ZM422.414 239.732H425.474V260H419.822L411.29 241.064H411.218V260H408.158V239.732H413.45L422.342 258.668H422.414V239.732ZM438.137 257.408V260H429.677V257.408H432.449V242.324H429.677V239.732H438.137V242.324H435.401V257.408H438.137ZM456.761 239.732H459.821V260H454.169L445.637 241.064H445.565V260H442.505V239.732H447.797L456.689 258.668H456.761V239.732ZM472.376 260.432C470.408 260.432 468.692 260.024 467.228 259.208C465.788 258.392 464.672 257.216 463.88 255.68C463.088 254.12 462.704 252.212 462.728 249.956C462.752 247.7 463.184 245.792 464.024 244.232C464.888 242.648 466.076 241.448 467.588 240.632C469.1 239.792 470.864 239.372 472.88 239.372C475.52 239.372 477.608 239.972 479.144 241.172C480.68 242.348 481.688 244.076 482.168 246.356L479.288 246.752C478.904 245.12 478.124 243.956 476.948 243.26C475.772 242.54 474.416 242.18 472.88 242.18C470.432 242.18 468.62 242.864 467.444 244.232C466.292 245.576 465.692 247.424 465.644 249.776C465.644 252.248 466.292 254.168 467.588 255.536C468.908 256.88 470.756 257.552 473.132 257.552C474.764 257.552 476.18 257.144 477.38 256.328C478.58 255.488 479.324 254.204 479.612 252.476H474.608V250.208H482.564V260H480.512L479.828 256.004H479.756C479.516 256.628 479.096 257.288 478.496 257.984C477.92 258.656 477.116 259.232 476.084 259.712C475.076 260.192 473.84 260.432 472.376 260.432ZM492.635 242.324V239.732H508.115V242.324H501.887V260H498.899V242.324H492.635ZM519.421 260.504C516.181 260.504 513.709 259.556 512.005 257.66C510.301 255.74 509.449 253.16 509.449 249.92C509.449 247.784 509.809 245.936 510.529 244.376C511.273 242.792 512.377 241.568 513.841 240.704C515.329 239.816 517.189 239.372 519.421 239.372C522.661 239.372 525.121 240.332 526.801 242.252C528.505 244.148 529.357 246.704 529.357 249.92C529.357 252.008 528.973 253.856 528.205 255.464C527.461 257.048 526.345 258.284 524.857 259.172C523.393 260.06 521.581 260.504 519.421 260.504ZM519.385 257.624C521.713 257.624 523.465 256.904 524.641 255.464C525.817 254.024 526.405 252.176 526.405 249.92C526.405 247.664 525.817 245.816 524.641 244.376C523.489 242.912 521.737 242.18 519.385 242.18C517.081 242.18 515.329 242.876 514.129 244.268C512.953 245.66 512.365 247.544 512.365 249.92C512.365 251.408 512.617 252.74 513.121 253.916C513.625 255.068 514.393 255.98 515.425 256.652C516.481 257.3 517.801 257.624 519.385 257.624ZM541.323 260.504C538.083 260.504 535.611 259.556 533.907 257.66C532.203 255.74 531.351 253.16 531.351 249.92C531.351 247.784 531.711 245.936 532.431 244.376C533.175 242.792 534.279 241.568 535.743 240.704C537.231 239.816 539.091 239.372 541.323 239.372C544.563 239.372 547.023 240.332 548.703 242.252C550.407 244.148 551.259 246.704 551.259 249.92C551.259 252.008 550.875 253.856 550.107 255.464C549.363 257.048 548.247 258.284 546.759 259.172C545.295 260.06 543.483 260.504 541.323 260.504ZM541.287 257.624C543.615 257.624 545.367 256.904 546.543 255.464C547.719 254.024 548.307 252.176 548.307 249.92C548.307 247.664 547.719 245.816 546.543 244.376C545.391 242.912 543.639 242.18 541.287 242.18C538.983 242.18 537.231 242.876 536.031 244.268C534.855 245.66 534.267 247.544 534.267 249.92C534.267 251.408 534.519 252.74 535.023 253.916C535.527 255.068 536.295 255.98 537.327 256.652C538.383 257.3 539.703 257.624 541.287 257.624ZM554.873 260V239.732H557.861V257.408H568.481V260H554.873ZM579.236 260.432C577.772 260.432 576.368 260.204 575.024 259.748C573.68 259.268 572.576 258.524 571.712 257.516C570.872 256.484 570.44 255.152 570.416 253.52H573.44C573.44 253.616 573.476 253.892 573.548 254.348C573.644 254.78 573.872 255.26 574.232 255.788C574.616 256.292 575.216 256.736 576.032 257.12C576.848 257.504 577.988 257.696 579.452 257.696C580.628 257.696 581.552 257.528 582.224 257.192C582.92 256.856 583.4 256.46 583.664 256.004C583.952 255.548 584.108 255.14 584.132 254.78C584.132 254.036 583.892 253.436 583.412 252.98C582.956 252.524 582.332 252.164 581.54 251.9C580.748 251.612 579.872 251.36 578.912 251.144C577.976 250.904 577.04 250.652 576.104 250.388C575.168 250.1 574.304 249.728 573.512 249.272C572.744 248.816 572.132 248.228 571.676 247.508C571.244 246.764 571.064 245.816 571.136 244.664C571.208 243.008 571.988 241.712 573.476 240.776C574.988 239.84 576.932 239.372 579.308 239.372C580.7 239.372 581.996 239.624 583.196 240.128C584.396 240.632 585.356 241.388 586.076 242.396C586.796 243.404 587.156 244.664 587.156 246.176H584.24C584.24 245.336 584.06 244.664 583.7 244.16C583.34 243.632 582.884 243.224 582.332 242.936C581.78 242.648 581.204 242.456 580.604 242.36C580.004 242.24 579.464 242.18 578.984 242.18C577.616 242.18 576.488 242.432 575.6 242.936C574.736 243.44 574.304 244.124 574.304 244.988C574.28 245.756 574.508 246.368 574.988 246.824C575.468 247.28 576.104 247.64 576.896 247.904C577.688 248.168 578.552 248.408 579.488 248.624C580.448 248.84 581.396 249.08 582.332 249.344C583.292 249.608 584.156 249.968 584.924 250.424C585.716 250.856 586.328 251.456 586.76 252.224C587.216 252.968 587.42 253.916 587.372 255.068C587.3 256.196 586.904 257.168 586.184 257.984C585.488 258.776 584.54 259.388 583.34 259.82C582.14 260.228 580.772 260.432 579.236 260.432ZM597.725 260L604.529 239.732H609.461L616.409 260H613.205L611.261 253.952H602.837L600.893 260H597.725ZM607.049 240.992L603.629 251.576H610.469L607.049 240.992ZM633.211 239.732H636.271V260H630.619L622.087 241.064H622.015V260H618.955V239.732H624.247L633.139 258.668H633.211V239.732ZM658.582 249.848C658.582 252.512 658.066 254.588 657.034 256.076C656.002 257.54 654.55 258.56 652.678 259.136C650.83 259.712 648.658 260 646.162 260H640.69V239.732H646.162C648.658 239.732 650.83 240.116 652.678 240.884C654.55 241.628 656.002 242.744 657.034 244.232C658.066 245.72 658.582 247.592 658.582 249.848ZM643.678 257.48H646.954C648.658 257.48 650.146 257.288 651.418 256.904C652.69 256.496 653.674 255.74 654.37 254.636C655.066 253.532 655.414 251.924 655.414 249.812C655.414 247.292 654.646 245.42 653.11 244.196C651.574 242.948 649.522 242.324 646.954 242.324H643.678V257.48ZM678.497 260.432C676.529 260.432 674.813 260.024 673.349 259.208C671.909 258.392 670.793 257.216 670.001 255.68C669.209 254.12 668.825 252.212 668.849 249.956C668.873 247.7 669.305 245.792 670.145 244.232C671.009 242.648 672.197 241.448 673.709 240.632C675.221 239.792 676.985 239.372 679.001 239.372C681.641 239.372 683.729 239.972 685.265 241.172C686.801 242.348 687.809 244.076 688.289 246.356L685.409 246.752C685.025 245.12 684.245 243.956 683.069 243.26C681.893 242.54 680.537 242.18 679.001 242.18C676.553 242.18 674.741 242.864 673.565 244.232C672.413 245.576 671.813 247.424 671.765 249.776C671.765 252.248 672.413 254.168 673.709 255.536C675.029 256.88 676.877 257.552 679.253 257.552C680.885 257.552 682.301 257.144 683.501 256.328C684.701 255.488 685.445 254.204 685.733 252.476H680.729V250.208H688.685V260H686.633L685.949 256.004H685.877C685.637 256.628 685.217 257.288 684.617 257.984C684.041 258.656 683.237 259.232 682.205 259.712C681.197 260.192 679.961 260.432 678.497 260.432ZM690.889 260L697.693 239.732H702.625L709.573 260H706.369L704.425 253.952H696.001L694.057 260H690.889ZM700.213 240.992L696.793 251.576H703.633L700.213 240.992ZM730.371 249.848C730.371 252.512 729.855 254.588 728.823 256.076C727.791 257.54 726.339 258.56 724.467 259.136C722.619 259.712 720.447 260 717.951 260H712.479V239.732H717.951C720.447 239.732 722.619 240.116 724.467 240.884C726.339 241.628 727.791 242.744 728.823 244.232C729.855 245.72 730.371 247.592 730.371 249.848ZM715.467 257.48H718.743C720.447 257.48 721.935 257.288 723.207 256.904C724.479 256.496 725.463 255.74 726.159 254.636C726.855 253.532 727.203 251.924 727.203 249.812C727.203 247.292 726.435 245.42 724.899 244.196C723.363 242.948 721.311 242.324 718.743 242.324H715.467V257.48ZM742.095 260.432C740.127 260.432 738.411 260.024 736.947 259.208C735.507 258.392 734.391 257.216 733.599 255.68C732.807 254.12 732.423 252.212 732.447 249.956C732.471 247.7 732.903 245.792 733.743 244.232C734.607 242.648 735.795 241.448 737.307 240.632C738.819 239.792 740.583 239.372 742.599 239.372C745.239 239.372 747.327 239.972 748.863 241.172C750.399 242.348 751.407 244.076 751.887 246.356L749.007 246.752C748.623 245.12 747.843 243.956 746.667 243.26C745.491 242.54 744.135 242.18 742.599 242.18C740.151 242.18 738.339 242.864 737.163 244.232C736.011 245.576 735.411 247.424 735.363 249.776C735.363 252.248 736.011 254.168 737.307 255.536C738.627 256.88 740.475 257.552 742.851 257.552C744.483 257.552 745.899 257.144 747.099 256.328C748.299 255.488 749.043 254.204 749.331 252.476H744.327V250.208H752.283V260H750.231L749.547 256.004H749.475C749.235 256.628 748.815 257.288 748.215 257.984C747.639 258.656 746.835 259.232 745.803 259.712C744.795 260.192 743.559 260.432 742.095 260.432ZM758.735 257.552H770.183V260H755.783V239.732H769.823V242.324H758.735V248.48H767.375V250.964H758.735V257.552ZM771.811 242.324V239.732H787.291V242.324H781.063V260H778.075V242.324H771.811ZM797.732 260.432C796.268 260.432 794.864 260.204 793.52 259.748C792.176 259.268 791.072 258.524 790.208 257.516C789.368 256.484 788.936 255.152 788.912 253.52H791.936C791.936 253.616 791.972 253.892 792.044 254.348C792.14 254.78 792.368 255.26 792.728 255.788C793.112 256.292 793.712 256.736 794.528 257.12C795.344 257.504 796.484 257.696 797.948 257.696C799.124 257.696 800.048 257.528 800.72 257.192C801.416 256.856 801.896 256.46 802.16 256.004C802.448 255.548 802.604 255.14 802.628 254.78C802.628 254.036 802.388 253.436 801.908 252.98C801.452 252.524 800.828 252.164 800.036 251.9C799.244 251.612 798.368 251.36 797.408 251.144C796.472 250.904 795.536 250.652 794.6 250.388C793.664 250.1 792.8 249.728 792.008 249.272C791.24 248.816 790.628 248.228 790.172 247.508C789.74 246.764 789.56 245.816 789.632 244.664C789.704 243.008 790.484 241.712 791.972 240.776C793.484 239.84 795.428 239.372 797.804 239.372C799.196 239.372 800.492 239.624 801.692 240.128C802.892 240.632 803.852 241.388 804.572 242.396C805.292 243.404 805.652 244.664 805.652 246.176H802.736C802.736 245.336 802.556 244.664 802.196 244.16C801.836 243.632 801.38 243.224 800.828 242.936C800.276 242.648 799.7 242.456 799.1 242.36C798.5 242.24 797.96 242.18 797.48 242.18C796.112 242.18 794.984 242.432 794.096 242.936C793.232 243.44 792.8 244.124 792.8 244.988C792.776 245.756 793.004 246.368 793.484 246.824C793.964 247.28 794.6 247.64 795.392 247.904C796.184 248.168 797.048 248.408 797.984 248.624C798.944 248.84 799.892 249.08 800.828 249.344C801.788 249.608 802.652 249.968 803.42 250.424C804.212 250.856 804.824 251.456 805.256 252.224C805.712 252.968 805.916 253.916 805.868 255.068C805.796 256.196 805.4 257.168 804.68 257.984C803.984 258.776 803.036 259.388 801.836 259.82C800.636 260.228 799.268 260.432 797.732 260.432ZM820.937 260H817.985V239.732H832.205V242.324H820.937V248.048H829.685V250.532H820.937V260ZM843.385 260.504C840.145 260.504 837.673 259.556 835.969 257.66C834.265 255.74 833.413 253.16 833.413 249.92C833.413 247.784 833.773 245.936 834.493 244.376C835.237 242.792 836.341 241.568 837.805 240.704C839.293 239.816 841.153 239.372 843.385 239.372C846.625 239.372 849.085 240.332 850.765 242.252C852.469 244.148 853.321 246.704 853.321 249.92C853.321 252.008 852.937 253.856 852.169 255.464C851.425 257.048 850.309 258.284 848.821 259.172C847.357 260.06 845.545 260.504 843.385 260.504ZM843.349 257.624C845.677 257.624 847.429 256.904 848.605 255.464C849.781 254.024 850.369 252.176 850.369 249.92C850.369 247.664 849.781 245.816 848.605 244.376C847.453 242.912 845.701 242.18 843.349 242.18C841.045 242.18 839.293 242.876 838.093 244.268C836.917 245.66 836.329 247.544 836.329 249.92C836.329 251.408 836.581 252.74 837.085 253.916C837.589 255.068 838.357 255.98 839.389 256.652C840.445 257.3 841.765 257.624 843.349 257.624ZM856.72 260V239.732H863.812C866.404 239.732 868.408 240.164 869.824 241.028C871.264 241.868 871.984 243.392 871.984 245.6C871.984 247.136 871.588 248.42 870.796 249.452C870.028 250.484 868.864 251 867.304 251C868.24 251 868.936 251.204 869.392 251.612C869.848 252.02 870.16 252.536 870.328 253.16C870.496 253.76 870.604 254.384 870.652 255.032C870.7 255.68 870.772 256.268 870.868 256.796C870.964 257.324 871.156 257.708 871.444 257.948C871.732 258.164 872.224 258.14 872.92 257.876V259.676C872.584 259.964 872.14 260.156 871.588 260.252C871.06 260.372 870.532 260.336 870.004 260.144C869.476 259.976 869.02 259.616 868.636 259.064C868.276 258.488 868.096 257.66 868.096 256.58C868.096 255.308 868.024 254.312 867.88 253.592C867.736 252.872 867.4 252.344 866.872 252.008C866.344 251.672 865.516 251.48 864.388 251.432C863.26 251.36 861.712 251.36 859.744 251.432V260H856.72ZM859.744 249.2H863.92C865.144 249.2 866.152 249.128 866.944 248.984C867.736 248.816 868.324 248.492 868.708 248.012C869.116 247.532 869.32 246.8 869.32 245.816C869.32 244.688 869.08 243.872 868.6 243.368C868.12 242.864 867.412 242.552 866.476 242.432C865.564 242.288 864.448 242.216 863.128 242.216H859.744V249.2ZM887.59 260H884.602V239.732H887.59V248.444H898.174V239.732H901.126V260H898.174V250.784H887.59V260ZM910.536 260V252.728L903.624 239.732H906.972L912.084 250.028L917.16 239.732H920.508L913.524 252.692V260H910.536ZM930.533 260.432C928.565 260.432 926.849 260.024 925.385 259.208C923.945 258.392 922.829 257.216 922.037 255.68C921.245 254.12 920.861 252.212 920.885 249.956C920.909 247.7 921.341 245.792 922.181 244.232C923.045 242.648 924.233 241.448 925.745 240.632C927.257 239.792 929.021 239.372 931.037 239.372C933.677 239.372 935.765 239.972 937.301 241.172C938.837 242.348 939.845 244.076 940.325 246.356L937.445 246.752C937.061 245.12 936.281 243.956 935.105 243.26C933.929 242.54 932.573 242.18 931.037 242.18C928.589 242.18 926.777 242.864 925.601 244.232C924.449 245.576 923.849 247.424 923.801 249.776C923.801 252.248 924.449 254.168 925.745 255.536C927.065 256.88 928.913 257.552 931.289 257.552C932.921 257.552 934.337 257.144 935.537 256.328C936.737 255.488 937.481 254.204 937.769 252.476H932.765V250.208H940.721V260H938.669L937.985 256.004H937.913C937.673 256.628 937.253 257.288 936.653 257.984C936.077 258.656 935.273 259.232 934.241 259.712C933.233 260.192 931.997 260.432 930.533 260.432ZM952.824 257.408V260H944.364V257.408H947.136V242.324H944.364V239.732H952.824V242.324H950.088V257.408H952.824ZM960.145 257.552H971.593V260H957.193V239.732H971.233V242.324H960.145V248.48H968.785V250.964H960.145V257.552ZM989.097 239.732H992.157V260H986.505L977.973 241.064H977.901V260H974.841V239.732H980.133L989.025 258.668H989.097V239.732ZM1004.82 257.408V260H996.36V257.408H999.132V242.324H996.36V239.732H1004.82V242.324H1002.08V257.408H1004.82ZM1018.01 260.36C1016.14 260.36 1014.43 259.976 1012.9 259.208C1011.38 258.416 1010.18 257.252 1009.3 255.716C1008.43 254.156 1008 252.224 1008 249.92C1008.02 247.64 1008.47 245.72 1009.33 244.16C1010.2 242.576 1011.38 241.388 1012.9 240.596C1014.43 239.78 1016.18 239.372 1018.15 239.372C1020.77 239.372 1022.88 240.068 1024.49 241.46C1026.1 242.852 1027.09 244.676 1027.48 246.932H1024.38C1024.19 245.78 1023.77 244.856 1023.12 244.16C1022.5 243.464 1021.74 242.96 1020.85 242.648C1019.99 242.336 1019.09 242.18 1018.15 242.18C1015.87 242.18 1014.11 242.84 1012.86 244.16C1011.61 245.456 1010.99 247.316 1010.99 249.74C1010.99 252.284 1011.6 254.228 1012.82 255.572C1014.05 256.892 1015.79 257.552 1018.04 257.552C1019.6 257.552 1021 257.18 1022.22 256.436C1023.44 255.668 1024.2 254.432 1024.49 252.728H1027.62C1027.21 254.984 1026.2 256.82 1024.6 258.236C1022.99 259.652 1020.79 260.36 1018.01 260.36ZM1042.1 260H1039.11V239.732H1047.03C1049.26 239.732 1050.99 240.284 1052.22 241.388C1053.44 242.492 1054.05 244.148 1054.05 246.356C1054.05 248.348 1053.42 249.896 1052.14 251C1050.9 252.104 1049.19 252.656 1047.03 252.656H1042.1V260ZM1046.67 242.216H1042.1V250.388H1046.67C1048.11 250.388 1049.24 250.052 1050.06 249.38C1050.9 248.708 1051.32 247.688 1051.32 246.32C1051.32 244.904 1050.91 243.872 1050.09 243.224C1049.28 242.552 1048.14 242.216 1046.67 242.216ZM1057.22 260V239.732H1064.31C1066.9 239.732 1068.9 240.164 1070.32 241.028C1071.76 241.868 1072.48 243.392 1072.48 245.6C1072.48 247.136 1072.08 248.42 1071.29 249.452C1070.52 250.484 1069.36 251 1067.8 251C1068.74 251 1069.43 251.204 1069.89 251.612C1070.34 252.02 1070.66 252.536 1070.82 253.16C1070.99 253.76 1071.1 254.384 1071.15 255.032C1071.2 255.68 1071.27 256.268 1071.36 256.796C1071.46 257.324 1071.65 257.708 1071.94 257.948C1072.23 258.164 1072.72 258.14 1073.42 257.876V259.676C1073.08 259.964 1072.64 260.156 1072.08 260.252C1071.56 260.372 1071.03 260.336 1070.5 260.144C1069.97 259.976 1069.52 259.616 1069.13 259.064C1068.77 258.488 1068.59 257.66 1068.59 256.58C1068.59 255.308 1068.52 254.312 1068.38 253.592C1068.23 252.872 1067.9 252.344 1067.37 252.008C1066.84 251.672 1066.01 251.48 1064.88 251.432C1063.76 251.36 1062.21 251.36 1060.24 251.432V260H1057.22ZM1060.24 249.2H1064.42C1065.64 249.2 1066.65 249.128 1067.44 248.984C1068.23 248.816 1068.82 248.492 1069.2 248.012C1069.61 247.532 1069.82 246.8 1069.82 245.816C1069.82 244.688 1069.58 243.872 1069.1 243.368C1068.62 242.864 1067.91 242.552 1066.97 242.432C1066.06 242.288 1064.94 242.216 1063.62 242.216H1060.24V249.2ZM1079.57 257.552H1091.02V260H1076.62V239.732H1090.66V242.324H1079.57V248.48H1088.21V250.964H1079.57V257.552ZM1097.69 260H1094.74V239.732H1108.96V242.324H1097.69V248.048H1106.44V250.532H1097.69V260ZM1114.9 257.552H1126.35V260H1111.95V239.732H1125.99V242.324H1114.9V248.48H1123.54V250.964H1114.9V257.552ZM1129.74 260V239.732H1136.84C1139.43 239.732 1141.43 240.164 1142.85 241.028C1144.29 241.868 1145.01 243.392 1145.01 245.6C1145.01 247.136 1144.61 248.42 1143.82 249.452C1143.05 250.484 1141.89 251 1140.33 251C1141.26 251 1141.96 251.204 1142.42 251.612C1142.87 252.02 1143.18 252.536 1143.35 253.16C1143.52 253.76 1143.63 254.384 1143.68 255.032C1143.72 255.68 1143.8 256.268 1143.89 256.796C1143.99 257.324 1144.18 257.708 1144.47 257.948C1144.76 258.164 1145.25 258.14 1145.94 257.876V259.676C1145.61 259.964 1145.16 260.156 1144.61 260.252C1144.08 260.372 1143.56 260.336 1143.03 260.144C1142.5 259.976 1142.04 259.616 1141.66 259.064C1141.3 258.488 1141.12 257.66 1141.12 256.58C1141.12 255.308 1141.05 254.312 1140.9 253.592C1140.76 252.872 1140.42 252.344 1139.9 252.008C1139.37 251.672 1138.54 251.48 1137.41 251.432C1136.28 251.36 1134.74 251.36 1132.77 251.432V260H1129.74ZM1132.77 249.2H1136.94C1138.17 249.2 1139.18 249.128 1139.97 248.984C1140.76 248.816 1141.35 248.492 1141.73 248.012C1142.14 247.532 1142.34 246.8 1142.34 245.816C1142.34 244.688 1142.1 243.872 1141.62 243.368C1141.14 242.864 1140.44 242.552 1139.5 242.432C1138.59 242.288 1137.47 242.216 1136.15 242.216H1132.77V249.2ZM1152.1 257.552H1163.55V260H1149.15V239.732H1163.19V242.324H1152.1V248.48H1160.74V250.964H1152.1V257.552ZM1181.05 239.732H1184.11V260H1178.46L1169.93 241.064H1169.85V260H1166.79V239.732H1172.09L1180.98 258.668H1181.05V239.732ZM1196.99 260.36C1195.12 260.36 1193.41 259.976 1191.88 259.208C1190.37 258.416 1189.17 257.252 1188.28 255.716C1187.41 254.156 1186.98 252.224 1186.98 249.92C1187.01 247.64 1187.45 245.72 1188.31 244.16C1189.18 242.576 1190.37 241.388 1191.88 240.596C1193.41 239.78 1195.17 239.372 1197.13 239.372C1199.75 239.372 1201.86 240.068 1203.47 241.46C1205.08 242.852 1206.07 244.676 1206.46 246.932H1203.36C1203.17 245.78 1202.75 244.856 1202.1 244.16C1201.48 243.464 1200.72 242.96 1199.83 242.648C1198.97 242.336 1198.07 242.18 1197.13 242.18C1194.85 242.18 1193.09 242.84 1191.84 244.16C1190.59 245.456 1189.97 247.316 1189.97 249.74C1189.97 252.284 1190.58 254.228 1191.81 255.572C1193.03 256.892 1194.77 257.552 1197.03 257.552C1198.59 257.552 1199.98 257.18 1201.2 256.436C1202.43 255.668 1203.18 254.432 1203.47 252.728H1206.6C1206.19 254.984 1205.19 256.82 1203.58 258.236C1201.97 259.652 1199.77 260.36 1196.99 260.36ZM1212.67 257.552H1224.12V260H1209.72V239.732H1223.76V242.324H1212.67V248.48H1221.31V250.964H1212.67V257.552ZM1235.22 260.432C1233.75 260.432 1232.35 260.204 1231 259.748C1229.66 259.268 1228.56 258.524 1227.69 257.516C1226.85 256.484 1226.42 255.152 1226.4 253.52H1229.42C1229.42 253.616 1229.46 253.892 1229.53 254.348C1229.62 254.78 1229.85 255.26 1230.21 255.788C1230.6 256.292 1231.2 256.736 1232.01 257.12C1232.83 257.504 1233.97 257.696 1235.43 257.696C1236.61 257.696 1237.53 257.528 1238.2 257.192C1238.9 256.856 1239.38 256.46 1239.64 256.004C1239.93 255.548 1240.09 255.14 1240.11 254.78C1240.11 254.036 1239.87 253.436 1239.39 252.98C1238.94 252.524 1238.31 252.164 1237.52 251.9C1236.73 251.612 1235.85 251.36 1234.89 251.144C1233.96 250.904 1233.02 250.652 1232.08 250.388C1231.15 250.1 1230.28 249.728 1229.49 249.272C1228.72 248.816 1228.11 248.228 1227.66 247.508C1227.22 246.764 1227.04 245.816 1227.12 244.664C1227.19 243.008 1227.97 241.712 1229.46 240.776C1230.97 239.84 1232.91 239.372 1235.29 239.372C1236.68 239.372 1237.98 239.624 1239.18 240.128C1240.38 240.632 1241.34 241.388 1242.06 242.396C1242.78 243.404 1243.14 244.664 1243.14 246.176H1240.22C1240.22 245.336 1240.04 244.664 1239.68 244.16C1239.32 243.632 1238.86 243.224 1238.31 242.936C1237.76 242.648 1237.18 242.456 1236.58 242.36C1235.98 242.24 1235.44 242.18 1234.96 242.18C1233.6 242.18 1232.47 242.432 1231.58 242.936C1230.72 243.44 1230.28 244.124 1230.28 244.988C1230.26 245.756 1230.49 246.368 1230.97 246.824C1231.45 247.28 1232.08 247.64 1232.88 247.904C1233.67 248.168 1234.53 248.408 1235.47 248.624C1236.43 248.84 1237.38 249.08 1238.31 249.344C1239.27 249.608 1240.14 249.968 1240.9 250.424C1241.7 250.856 1242.31 251.456 1242.74 252.224C1243.2 252.968 1243.4 253.916 1243.35 255.068C1243.28 256.196 1242.88 257.168 1242.16 257.984C1241.47 258.776 1240.52 259.388 1239.32 259.82C1238.12 260.228 1236.75 260.432 1235.22 260.432ZM639.825 309L646.629 288.732H651.561L658.509 309H655.305L653.361 302.952H644.937L642.993 309H639.825ZM649.149 289.992L645.729 300.576H652.569L649.149 289.992ZM658.098 291.324V288.732H673.578V291.324H667.35V309H664.362V291.324H658.098ZM688.683 309V301.728L681.771 288.732H685.119L690.231 299.028L695.307 288.732H698.655L691.671 301.692V309H688.683ZM708.895 309.504C705.655 309.504 703.183 308.556 701.479 306.66C699.775 304.74 698.923 302.16 698.923 298.92C698.923 296.784 699.283 294.936 700.003 293.376C700.747 291.792 701.851 290.568 703.315 289.704C704.803 288.816 706.663 288.372 708.895 288.372C712.135 288.372 714.595 289.332 716.275 291.252C717.979 293.148 718.831 295.704 718.831 298.92C718.831 301.008 718.447 302.856 717.679 304.464C716.935 306.048 715.819 307.284 714.331 308.172C712.867 309.06 711.055 309.504 708.895 309.504ZM708.859 306.624C711.187 306.624 712.939 305.904 714.115 304.464C715.291 303.024 715.879 301.176 715.879 298.92C715.879 296.664 715.291 294.816 714.115 293.376C712.963 291.912 711.211 291.18 708.859 291.18C706.555 291.18 704.803 291.876 703.603 293.268C702.427 294.66 701.839 296.544 701.839 298.92C701.839 300.408 702.091 301.74 702.595 302.916C703.099 304.068 703.867 304.98 704.899 305.652C705.955 306.3 707.275 306.624 708.859 306.624ZM730.793 309.504C728.009 309.504 725.873 308.712 724.385 307.128C722.921 305.52 722.189 303.264 722.189 300.36V288.732H725.321V300.324C725.321 301.884 725.573 303.132 726.077 304.068C726.581 304.98 727.241 305.64 728.057 306.048C728.897 306.456 729.809 306.66 730.793 306.66C731.873 306.66 732.821 306.468 733.637 306.084C734.477 305.676 735.125 305.016 735.581 304.104C736.061 303.168 736.301 301.908 736.301 300.324V288.732H739.433V300.36C739.433 303.312 738.701 305.58 737.237 307.164C735.797 308.724 733.649 309.504 730.793 309.504ZM743.499 309V288.732H750.591C753.183 288.732 755.187 289.164 756.603 290.028C758.043 290.868 758.763 292.392 758.763 294.6C758.763 296.136 758.367 297.42 757.575 298.452C756.807 299.484 755.643 300 754.083 300C755.019 300 755.715 300.204 756.171 300.612C756.627 301.02 756.939 301.536 757.107 302.16C757.275 302.76 757.383 303.384 757.431 304.032C757.479 304.68 757.551 305.268 757.647 305.796C757.743 306.324 757.935 306.708 758.223 306.948C758.511 307.164 759.003 307.14 759.699 306.876V308.676C759.363 308.964 758.919 309.156 758.367 309.252C757.839 309.372 757.311 309.336 756.783 309.144C756.255 308.976 755.799 308.616 755.415 308.064C755.055 307.488 754.875 306.66 754.875 305.58C754.875 304.308 754.803 303.312 754.659 302.592C754.515 301.872 754.179 301.344 753.651 301.008C753.123 300.672 752.295 300.48 751.167 300.432C750.039 300.36 748.491 300.36 746.523 300.432V309H743.499ZM746.523 298.2H750.699C751.923 298.2 752.931 298.128 753.723 297.984C754.515 297.816 755.103 297.492 755.487 297.012C755.895 296.532 756.099 295.8 756.099 294.816C756.099 293.688 755.859 292.872 755.379 292.368C754.899 291.864 754.191 291.552 753.255 291.432C752.343 291.288 751.227 291.216 749.907 291.216H746.523V298.2ZM774.513 309H771.561V288.732H785.781V291.324H774.513V297.048H783.261V299.532H774.513V309ZM797.311 306.408V309H788.851V306.408H791.623V291.324H788.851V288.732H797.311V291.324H794.575V306.408H797.311ZM815.935 288.732H818.995V309H813.343L804.811 290.064H804.739V309H801.679V288.732H806.971L815.863 307.668H815.935V288.732ZM831.55 309.432C829.582 309.432 827.866 309.024 826.402 308.208C824.962 307.392 823.846 306.216 823.054 304.68C822.262 303.12 821.878 301.212 821.902 298.956C821.926 296.7 822.358 294.792 823.198 293.232C824.062 291.648 825.25 290.448 826.762 289.632C828.274 288.792 830.038 288.372 832.054 288.372C834.694 288.372 836.782 288.972 838.318 290.172C839.854 291.348 840.862 293.076 841.342 295.356L838.462 295.752C838.078 294.12 837.298 292.956 836.122 292.26C834.946 291.54 833.59 291.18 832.054 291.18C829.606 291.18 827.794 291.864 826.618 293.232C825.466 294.576 824.866 296.424 824.818 298.776C824.818 301.248 825.466 303.168 826.762 304.536C828.082 305.88 829.93 306.552 832.306 306.552C833.938 306.552 835.354 306.144 836.554 305.328C837.754 304.488 838.498 303.204 838.786 301.476H833.782V299.208H841.738V309H839.686L839.002 305.004H838.93C838.69 305.628 838.27 306.288 837.67 306.984C837.094 307.656 836.29 308.232 835.258 308.712C834.25 309.192 833.014 309.432 831.55 309.432ZM848.19 306.552H859.638V309H845.238V288.732H859.278V291.324H848.19V297.48H856.83V299.964H848.19V306.552ZM863.03 309V288.732H870.122C872.714 288.732 874.718 289.164 876.134 290.028C877.574 290.868 878.294 292.392 878.294 294.6C878.294 296.136 877.898 297.42 877.106 298.452C876.338 299.484 875.174 300 873.614 300C874.55 300 875.246 300.204 875.702 300.612C876.158 301.02 876.47 301.536 876.638 302.16C876.806 302.76 876.914 303.384 876.962 304.032C877.01 304.68 877.082 305.268 877.178 305.796C877.274 306.324 877.466 306.708 877.754 306.948C878.042 307.164 878.534 307.14 879.23 306.876V308.676C878.894 308.964 878.45 309.156 877.898 309.252C877.37 309.372 876.842 309.336 876.314 309.144C875.786 308.976 875.33 308.616 874.946 308.064C874.586 307.488 874.406 306.66 874.406 305.58C874.406 304.308 874.334 303.312 874.19 302.592C874.046 301.872 873.71 301.344 873.182 301.008C872.654 300.672 871.826 300.48 870.698 300.432C869.57 300.36 868.022 300.36 866.054 300.432V309H863.03ZM866.054 298.2H870.23C871.454 298.2 872.462 298.128 873.254 297.984C874.046 297.816 874.634 297.492 875.018 297.012C875.426 296.532 875.63 295.8 875.63 294.816C875.63 293.688 875.39 292.872 874.91 292.368C874.43 291.864 873.722 291.552 872.786 291.432C871.874 291.288 870.758 291.216 869.438 291.216H866.054V298.2ZM889.005 291.324V288.732H904.485V291.324H898.257V309H895.269V291.324H889.005ZM915.682 306.408V309H907.222V306.408H909.994V291.324H907.222V288.732H915.682V291.324H912.946V306.408H915.682ZM923.218 309H920.23V288.732H928.15C930.382 288.732 932.11 289.284 933.334 290.388C934.558 291.492 935.17 293.148 935.17 295.356C935.17 297.348 934.534 298.896 933.262 300C932.014 301.104 930.31 301.656 928.15 301.656H923.218V309ZM927.79 291.216H923.218V299.388H927.79C929.23 299.388 930.358 299.052 931.174 298.38C932.014 297.708 932.434 296.688 932.434 295.32C932.434 293.904 932.026 292.872 931.21 292.224C930.394 291.552 929.254 291.216 927.79 291.216Z" fill="#EDF5FA"/>
<defs>
<linearGradient id="paint0_linear_401_767" x1="358.215" y1="15" x2="1445.95" y2="14.9999" gradientUnits="userSpaceOnUse">
<stop stop-color="white"/>
<stop offset="1" stop-color="#4FA0CA"/>
</linearGradient>
</defs>
</svg>
