<svg width="1255" height="55" viewBox="0 0 1255 55" fill="none" xmlns="http://www.w3.org/2000/svg">
<path d="M0.243 14V0.487999H2.907L7.299 13.304H7.347L11.667 0.487999H14.331V14H12.771L12.843 1.28H12.795L8.427 14H6.147L1.779 1.28H1.731L1.803 14H0.243ZM20.094 14.216C19.198 14.216 18.462 14 17.886 13.568C17.31 13.12 16.878 12.52 16.59 11.768C16.318 11.016 16.182 10.16 16.182 9.2C16.182 7.728 16.502 6.52 17.142 5.576C17.798 4.616 18.782 4.136 20.094 4.136C20.766 4.136 21.326 4.256 21.774 4.496C22.238 4.72 22.606 5 22.878 5.336C23.166 5.672 23.374 5.992 23.502 6.296H23.526V4.232H25.11V14H23.79L23.55 12.104H23.502C23.358 12.424 23.15 12.752 22.878 13.088C22.606 13.408 22.238 13.68 21.774 13.904C21.326 14.112 20.766 14.216 20.094 14.216ZM20.694 12.848C21.686 12.848 22.398 12.52 22.83 11.864C23.278 11.208 23.502 10.328 23.502 9.224C23.502 8.04 23.27 7.136 22.806 6.512C22.358 5.888 21.654 5.576 20.694 5.576C19.638 5.576 18.878 5.928 18.414 6.632C17.966 7.32 17.742 8.176 17.742 9.2C17.742 10.272 17.974 11.152 18.438 11.84C18.902 12.512 19.654 12.848 20.694 12.848ZM28.7042 14.024H27.1442V0.487999H28.7042V9.584L34.0322 4.208H36.0002L31.7282 8.432L36.0962 14.024H34.2002L30.6242 9.512L28.7042 11.408V14.024ZM41.6333 14.24C40.5613 14.24 39.6733 14 38.9693 13.52C38.2813 13.024 37.7693 12.392 37.4333 11.624C37.1133 10.84 36.9533 10.032 36.9533 9.2C36.9533 8.288 37.1293 7.456 37.4813 6.704C37.8493 5.936 38.3773 5.328 39.0653 4.88C39.7693 4.432 40.6093 4.208 41.5853 4.208C42.8333 4.208 43.8733 4.616 44.7053 5.432C45.5373 6.232 45.9853 7.312 46.0493 8.672C46.0653 8.736 46.0733 8.832 46.0733 8.96C46.0733 9.072 46.0733 9.176 46.0733 9.272H38.4413C38.4413 10.408 38.7133 11.304 39.2573 11.96C39.8173 12.6 40.6013 12.92 41.6093 12.92C42.3613 12.92 43.0013 12.728 43.5293 12.344C44.0733 11.96 44.4093 11.44 44.5373 10.784H46.0493C45.8893 11.776 45.4173 12.6 44.6333 13.256C43.8493 13.912 42.8493 14.24 41.6333 14.24ZM38.4893 8.432H44.4893C44.4893 8.096 44.3933 7.696 44.2013 7.232C44.0253 6.768 43.7213 6.368 43.2893 6.032C42.8733 5.68 42.2973 5.504 41.5613 5.504C40.8893 5.504 40.3373 5.648 39.9053 5.936C39.4733 6.224 39.1453 6.592 38.9213 7.04C38.6973 7.488 38.5533 7.952 38.4893 8.432ZM59.8847 14.336C57.7407 14.336 56.1087 13.704 54.9887 12.44C53.8687 11.16 53.3087 9.44 53.3087 7.28C53.3087 5.856 53.5487 4.624 54.0287 3.584C54.5247 2.528 55.2527 1.712 56.2127 1.136C57.1887 0.544 58.4127 0.248 59.8847 0.248C62.0287 0.248 63.6527 0.888 64.7567 2.168C65.8607 3.432 66.4127 5.136 66.4127 7.28C66.4127 8.672 66.1647 9.904 65.6687 10.976C65.1887 12.032 64.4607 12.856 63.4847 13.448C62.5087 14.04 61.3087 14.336 59.8847 14.336ZM59.8607 12.848C61.5407 12.848 62.7967 12.336 63.6287 11.312C64.4767 10.288 64.9007 8.944 64.9007 7.28C64.9007 5.616 64.4847 4.272 63.6527 3.248C62.8207 2.208 61.5567 1.688 59.8607 1.688C58.2127 1.688 56.9567 2.192 56.0927 3.2C55.2447 4.192 54.8207 5.552 54.8207 7.28C54.8207 8.928 55.2367 10.272 56.0687 11.312C56.9007 12.336 58.1647 12.848 59.8607 12.848ZM68.4411 14V4.232H69.8331L70.0011 6.8C70.0971 6.368 70.2891 5.952 70.5771 5.552C70.8651 5.152 71.2571 4.832 71.7531 4.592C72.2651 4.336 72.8971 4.216 73.6491 4.232H74.1051V5.936H73.6251C72.6011 5.936 71.8251 6.088 71.2971 6.392C70.7851 6.68 70.4331 7.088 70.2411 7.616C70.0651 8.144 69.9771 8.752 69.9771 9.44V14H68.4411ZM79.7192 14.24C78.7752 14.24 77.9832 14.024 77.3432 13.592C76.7192 13.16 76.2472 12.568 75.9272 11.816C75.6232 11.048 75.4712 10.192 75.4712 9.248C75.4712 7.792 75.8312 6.592 76.5512 5.648C77.2712 4.704 78.3352 4.232 79.7432 4.232C80.3992 4.232 80.9432 4.344 81.3752 4.568C81.8232 4.776 82.1832 5.032 82.4552 5.336C82.7272 5.64 82.9272 5.92 83.0552 6.176C83.1832 6.432 83.2632 6.6 83.2952 6.68H83.3432L83.3672 0.487999H84.9512V14H83.6072L83.3672 11.84H83.3192C83.2872 11.92 83.1992 12.088 83.0552 12.344C82.9112 12.6 82.6952 12.872 82.4072 13.16C82.1352 13.448 81.7752 13.704 81.3272 13.928C80.8952 14.136 80.3592 14.24 79.7192 14.24ZM80.1032 12.872C81.0472 12.872 81.8152 12.552 82.4072 11.912C83.0152 11.256 83.3192 10.368 83.3192 9.248C83.3192 8.144 83.0392 7.272 82.4792 6.632C81.9192 5.976 81.1672 5.648 80.2232 5.648C79.4712 5.648 78.8552 5.824 78.3752 6.176C77.8952 6.512 77.5432 6.952 77.3192 7.496C77.0952 8.04 76.9832 8.624 76.9832 9.248C76.9832 9.856 77.0872 10.44 77.2952 11C77.5032 11.544 77.8312 11.992 78.2792 12.344C78.7272 12.696 79.3352 12.872 80.1032 12.872ZM91.4145 14.24C90.3425 14.24 89.4545 14 88.7505 13.52C88.0625 13.024 87.5505 12.392 87.2145 11.624C86.8945 10.84 86.7345 10.032 86.7345 9.2C86.7345 8.288 86.9105 7.456 87.2625 6.704C87.6305 5.936 88.1585 5.328 88.8465 4.88C89.5505 4.432 90.3905 4.208 91.3665 4.208C92.6145 4.208 93.6545 4.616 94.4865 5.432C95.3185 6.232 95.7665 7.312 95.8305 8.672C95.8465 8.736 95.8545 8.832 95.8545 8.96C95.8545 9.072 95.8545 9.176 95.8545 9.272H88.2225C88.2225 10.408 88.4945 11.304 89.0385 11.96C89.5985 12.6 90.3825 12.92 91.3905 12.92C92.1425 12.92 92.7825 12.728 93.3105 12.344C93.8545 11.96 94.1905 11.44 94.3185 10.784H95.8305C95.6705 11.776 95.1985 12.6 94.4145 13.256C93.6305 13.912 92.6305 14.24 91.4145 14.24ZM88.2705 8.432H94.2705C94.2705 8.096 94.1745 7.696 93.9825 7.232C93.8065 6.768 93.5025 6.368 93.0705 6.032C92.6545 5.68 92.0785 5.504 91.3425 5.504C90.6705 5.504 90.1185 5.648 89.6865 5.936C89.2545 6.224 88.9265 6.592 88.7025 7.04C88.4785 7.488 88.3345 7.952 88.2705 8.432ZM98.0426 14V4.232H99.4346L99.6026 6.8C99.6986 6.368 99.8906 5.952 100.179 5.552C100.467 5.152 100.859 4.832 101.355 4.592C101.867 4.336 102.499 4.216 103.251 4.232H103.707V5.936H103.227C102.203 5.936 101.427 6.088 100.899 6.392C100.387 6.68 100.035 7.088 99.8426 7.616C99.6666 8.144 99.5786 8.752 99.5786 9.44V14H98.0426ZM111.652 14.072V5.384H110.14V4.232H111.652V2.072C111.652 1.512 111.764 1.072 111.988 0.751999C112.228 0.431999 112.644 0.271999 113.236 0.271999H116.14V1.544H113.212V4.232H115.972V5.384H113.212V14.072H111.652ZM121.578 14.24C120.01 14.24 118.834 13.776 118.05 12.848C117.282 11.904 116.898 10.704 116.898 9.248C116.882 7.776 117.266 6.576 118.05 5.648C118.85 4.704 120.026 4.224 121.578 4.208C123.114 4.208 124.274 4.672 125.058 5.6C125.858 6.512 126.258 7.728 126.258 9.248C126.258 10.192 126.09 11.04 125.754 11.792C125.418 12.544 124.906 13.144 124.218 13.592C123.53 14.024 122.65 14.24 121.578 14.24ZM121.578 12.896C122.41 12.896 123.05 12.712 123.498 12.344C123.962 11.976 124.282 11.512 124.458 10.952C124.65 10.376 124.746 9.792 124.746 9.2C124.746 8.608 124.65 8.024 124.458 7.448C124.282 6.872 123.962 6.4 123.498 6.032C123.05 5.664 122.41 5.48 121.578 5.48C120.746 5.48 120.098 5.664 119.634 6.032C119.186 6.4 118.866 6.872 118.674 7.448C118.498 8.024 118.41 8.608 118.41 9.2C118.41 9.792 118.498 10.376 118.674 10.952C118.866 11.512 119.186 11.976 119.634 12.344C120.098 12.712 120.746 12.896 121.578 12.896ZM128.371 14V4.232H129.763L129.931 6.8C130.027 6.368 130.219 5.952 130.507 5.552C130.795 5.152 131.187 4.832 131.683 4.592C132.195 4.336 132.827 4.216 133.579 4.232H134.035V5.936H133.555C132.531 5.936 131.755 6.088 131.227 6.392C130.715 6.68 130.363 7.088 130.171 7.616C129.995 8.144 129.907 8.752 129.907 9.44V14H128.371ZM145.484 14.24C143.916 14.24 142.74 13.776 141.956 12.848C141.188 11.904 140.804 10.704 140.804 9.248C140.788 7.776 141.172 6.576 141.956 5.648C142.756 4.704 143.932 4.224 145.484 4.208C147.02 4.208 148.18 4.672 148.964 5.6C149.764 6.512 150.164 7.728 150.164 9.248C150.164 10.192 149.996 11.04 149.66 11.792C149.324 12.544 148.812 13.144 148.124 13.592C147.436 14.024 146.556 14.24 145.484 14.24ZM145.484 12.896C146.316 12.896 146.956 12.712 147.404 12.344C147.868 11.976 148.188 11.512 148.364 10.952C148.556 10.376 148.652 9.792 148.652 9.2C148.652 8.608 148.556 8.024 148.364 7.448C148.188 6.872 147.868 6.4 147.404 6.032C146.956 5.664 146.316 5.48 145.484 5.48C144.652 5.48 144.004 5.664 143.54 6.032C143.092 6.4 142.772 6.872 142.58 7.448C142.404 8.024 142.316 8.608 142.316 9.2C142.316 9.792 142.404 10.376 142.58 10.952C142.772 11.512 143.092 11.976 143.54 12.344C144.004 12.712 144.652 12.896 145.484 12.896ZM155.661 14.24C154.861 14.24 154.213 14.096 153.717 13.808C153.237 13.52 152.869 13.136 152.613 12.656C152.357 12.16 152.181 11.624 152.085 11.048C152.005 10.456 151.965 9.864 151.965 9.272V4.232H153.501V9.296C153.501 9.936 153.565 10.528 153.693 11.072C153.821 11.616 154.077 12.048 154.461 12.368C154.861 12.688 155.437 12.848 156.189 12.848C156.909 12.848 157.469 12.688 157.869 12.368C158.285 12.032 158.589 11.6 158.781 11.072C158.973 10.544 159.085 9.992 159.117 9.416V4.232H160.701V14H159.381L159.117 11.816H159.069C158.989 12.088 158.821 12.416 158.565 12.8C158.309 13.184 157.941 13.52 157.461 13.808C156.997 14.096 156.397 14.24 155.661 14.24ZM162.965 14V4.232H164.357L164.525 6.8C164.621 6.368 164.813 5.952 165.101 5.552C165.389 5.152 165.781 4.832 166.277 4.592C166.789 4.336 167.421 4.216 168.173 4.232H168.629V5.936H168.148C167.125 5.936 166.349 6.088 165.821 6.392C165.309 6.68 164.957 7.088 164.765 7.616C164.589 8.144 164.501 8.752 164.501 9.44V14H162.965ZM183.678 16.76C183.342 16.76 183.014 16.704 182.694 16.592C182.374 16.496 182.11 16.272 181.902 15.92C181.694 15.568 181.574 15.032 181.542 14.312C179.606 14.184 178.126 13.496 177.102 12.248C176.094 10.984 175.59 9.328 175.59 7.28C175.59 5.872 175.83 4.64 176.31 3.584C176.806 2.528 177.542 1.712 178.518 1.136C179.494 0.544 180.71 0.248 182.166 0.248C183.606 0.248 184.806 0.536 185.766 1.112C186.742 1.688 187.478 2.504 187.974 3.56C188.47 4.6 188.718 5.832 188.718 7.256C188.718 9.224 188.23 10.848 187.254 12.128C186.294 13.408 184.87 14.128 182.982 14.288C182.982 14.624 183.038 14.912 183.15 15.152C183.278 15.392 183.574 15.512 184.038 15.512C184.246 15.512 184.454 15.448 184.662 15.32C184.886 15.192 185.054 15.128 185.166 15.128L185.286 16.328C185.254 16.328 185.142 16.36 184.95 16.424C184.758 16.504 184.542 16.576 184.302 16.64C184.062 16.72 183.854 16.76 183.678 16.76ZM182.142 12.824C183.806 12.824 185.054 12.32 185.886 11.312C186.734 10.304 187.158 8.944 187.158 7.232C187.158 5.552 186.742 4.208 185.91 3.2C185.094 2.176 183.838 1.664 182.142 1.664C180.51 1.664 179.27 2.152 178.422 3.128C177.574 4.104 177.15 5.472 177.15 7.232C177.15 8.928 177.558 10.288 178.374 11.312C179.206 12.32 180.462 12.824 182.142 12.824ZM194.005 14.24C193.205 14.24 192.557 14.096 192.061 13.808C191.581 13.52 191.213 13.136 190.957 12.656C190.701 12.16 190.525 11.624 190.429 11.048C190.349 10.456 190.309 9.864 190.309 9.272V4.232H191.845V9.296C191.845 9.936 191.909 10.528 192.037 11.072C192.165 11.616 192.421 12.048 192.805 12.368C193.205 12.688 193.781 12.848 194.533 12.848C195.253 12.848 195.813 12.688 196.213 12.368C196.629 12.032 196.933 11.6 197.125 11.072C197.317 10.544 197.429 9.992 197.461 9.416V4.232H199.045V14H197.725L197.461 11.816H197.413C197.333 12.088 197.165 12.416 196.909 12.8C196.653 13.184 196.285 13.52 195.805 13.808C195.341 14.096 194.741 14.24 194.005 14.24ZM204.5 14.216C203.604 14.216 202.868 14 202.292 13.568C201.716 13.12 201.284 12.52 200.996 11.768C200.724 11.016 200.588 10.16 200.588 9.2C200.588 7.728 200.908 6.52 201.548 5.576C202.204 4.616 203.188 4.136 204.5 4.136C205.172 4.136 205.732 4.256 206.18 4.496C206.644 4.72 207.012 5 207.284 5.336C207.572 5.672 207.78 5.992 207.908 6.296H207.932V4.232H209.516V14H208.196L207.956 12.104H207.908C207.764 12.424 207.556 12.752 207.284 13.088C207.012 13.408 206.644 13.68 206.18 13.904C205.732 14.112 205.172 14.216 204.5 14.216ZM205.1 12.848C206.092 12.848 206.804 12.52 207.236 11.864C207.684 11.208 207.908 10.328 207.908 9.224C207.908 8.04 207.676 7.136 207.212 6.512C206.764 5.888 206.06 5.576 205.1 5.576C204.044 5.576 203.284 5.928 202.82 6.632C202.372 7.32 202.148 8.176 202.148 9.2C202.148 10.272 202.38 11.152 202.844 11.84C203.308 12.512 204.06 12.848 205.1 12.848ZM211.646 14V0.487999H213.158V14H211.646ZM216.542 3.176C216.19 3.176 215.95 3.088 215.822 2.912C215.71 2.72 215.654 2.48 215.654 2.192C215.654 1.952 215.71 1.744 215.822 1.568C215.95 1.376 216.19 1.28 216.542 1.28C216.894 1.28 217.126 1.376 217.238 1.568C217.366 1.744 217.43 1.952 217.43 2.192C217.43 2.48 217.366 2.72 217.238 2.912C217.126 3.088 216.894 3.176 216.542 3.176ZM215.774 14V4.232H217.31V14H215.774ZM222.243 14C221.651 14 221.235 13.84 220.995 13.52C220.771 13.2 220.659 12.76 220.659 12.2V5.384H219.123V4.232C219.635 4.232 220.011 4.192 220.251 4.112C220.507 4.016 220.667 3.792 220.731 3.44C220.795 3.088 220.827 2.512 220.827 1.712H222.147V4.232H224.403V5.384H222.147V12.752H224.427V14H222.243ZM225.444 18.368V17.12H226.788C227.108 17.12 227.372 17.032 227.58 16.856C227.788 16.696 228.044 16.296 228.348 15.656L229.38 13.424L225.54 4.232H227.148L230.148 11.792L233.34 4.232H234.972L229.74 15.872C229.42 16.592 229.132 17.128 228.876 17.48C228.636 17.848 228.364 18.088 228.06 18.2C227.756 18.312 227.372 18.368 226.908 18.368H225.444ZM244.032 14H242.496V0.487999H247.632C249.12 0.487999 250.256 0.848 251.04 1.568C251.824 2.288 252.216 3.36 252.216 4.784C252.216 6.112 251.808 7.136 250.992 7.856C250.192 8.576 249.072 8.936 247.632 8.936H244.032V14ZM247.464 1.808H244.032V7.736H247.464C248.52 7.736 249.336 7.496 249.912 7.016C250.504 6.52 250.8 5.776 250.8 4.784C250.8 3.76 250.512 3.008 249.936 2.528C249.376 2.048 248.552 1.808 247.464 1.808ZM253.879 14V4.232H255.271L255.439 6.8C255.535 6.368 255.727 5.952 256.015 5.552C256.303 5.152 256.695 4.832 257.191 4.592C257.703 4.336 258.335 4.216 259.087 4.232H259.543V5.936H259.063C258.039 5.936 257.263 6.088 256.735 6.392C256.223 6.68 255.871 7.088 255.679 7.616C255.503 8.144 255.415 8.752 255.415 9.44V14H253.879ZM265.133 14.24C263.565 14.24 262.389 13.776 261.605 12.848C260.837 11.904 260.453 10.704 260.453 9.248C260.437 7.776 260.821 6.576 261.605 5.648C262.405 4.704 263.581 4.224 265.133 4.208C266.669 4.208 267.829 4.672 268.613 5.6C269.413 6.512 269.813 7.728 269.813 9.248C269.813 10.192 269.645 11.04 269.309 11.792C268.973 12.544 268.461 13.144 267.773 13.592C267.085 14.024 266.205 14.24 265.133 14.24ZM265.133 12.896C265.965 12.896 266.605 12.712 267.053 12.344C267.517 11.976 267.837 11.512 268.013 10.952C268.205 10.376 268.301 9.792 268.301 9.2C268.301 8.608 268.205 8.024 268.013 7.448C267.837 6.872 267.517 6.4 267.053 6.032C266.605 5.664 265.965 5.48 265.133 5.48C264.301 5.48 263.653 5.664 263.189 6.032C262.741 6.4 262.421 6.872 262.229 7.448C262.053 8.024 261.965 8.608 261.965 9.2C261.965 9.792 262.053 10.376 262.229 10.952C262.421 11.512 262.741 11.976 263.189 12.344C263.653 12.712 264.301 12.896 265.133 12.896ZM276.125 14.24C275.181 14.24 274.389 14.024 273.749 13.592C273.125 13.16 272.653 12.568 272.333 11.816C272.029 11.048 271.877 10.192 271.877 9.248C271.877 7.792 272.237 6.592 272.957 5.648C273.677 4.704 274.741 4.232 276.149 4.232C276.805 4.232 277.349 4.344 277.781 4.568C278.229 4.776 278.589 5.032 278.861 5.336C279.133 5.64 279.333 5.92 279.461 6.176C279.589 6.432 279.669 6.6 279.701 6.68H279.749L279.773 0.487999H281.357V14H280.013L279.773 11.84H279.725C279.693 11.92 279.605 12.088 279.461 12.344C279.317 12.6 279.101 12.872 278.813 13.16C278.541 13.448 278.181 13.704 277.733 13.928C277.301 14.136 276.765 14.24 276.125 14.24ZM276.509 12.872C277.453 12.872 278.221 12.552 278.813 11.912C279.421 11.256 279.725 10.368 279.725 9.248C279.725 8.144 279.445 7.272 278.885 6.632C278.325 5.976 277.573 5.648 276.629 5.648C275.877 5.648 275.261 5.824 274.781 6.176C274.301 6.512 273.949 6.952 273.725 7.496C273.501 8.04 273.389 8.624 273.389 9.248C273.389 9.856 273.493 10.44 273.701 11C273.909 11.544 274.237 11.992 274.685 12.344C275.133 12.696 275.741 12.872 276.509 12.872ZM287.005 14.24C286.205 14.24 285.557 14.096 285.061 13.808C284.581 13.52 284.213 13.136 283.957 12.656C283.701 12.16 283.525 11.624 283.429 11.048C283.349 10.456 283.309 9.864 283.309 9.272V4.232H284.845V9.296C284.845 9.936 284.909 10.528 285.037 11.072C285.165 11.616 285.421 12.048 285.805 12.368C286.205 12.688 286.781 12.848 287.533 12.848C288.253 12.848 288.813 12.688 289.213 12.368C289.629 12.032 289.933 11.6 290.125 11.072C290.317 10.544 290.429 9.992 290.461 9.416V4.232H292.045V14H290.725L290.461 11.816H290.413C290.333 12.088 290.165 12.416 289.909 12.8C289.653 13.184 289.285 13.52 288.805 13.808C288.341 14.096 287.741 14.24 287.005 14.24ZM298.556 14.24C297.644 14.24 296.828 14.048 296.108 13.664C295.388 13.28 294.82 12.72 294.404 11.984C293.988 11.248 293.78 10.36 293.78 9.32C293.812 8.296 294.028 7.4 294.428 6.632C294.844 5.864 295.412 5.272 296.132 4.856C296.852 4.424 297.676 4.208 298.604 4.208C299.468 4.208 300.22 4.368 300.86 4.688C301.5 5.008 302.012 5.44 302.396 5.984C302.78 6.528 303.02 7.128 303.116 7.784H301.7C301.54 7.08 301.188 6.536 300.644 6.152C300.116 5.768 299.452 5.576 298.652 5.576C297.628 5.576 296.812 5.92 296.204 6.608C295.612 7.28 295.308 8.16 295.292 9.248C295.292 10.352 295.58 11.232 296.156 11.888C296.748 12.528 297.572 12.848 298.628 12.848C299.396 12.848 300.06 12.656 300.62 12.272C301.18 11.888 301.54 11.336 301.7 10.616H303.116C303.02 11.288 302.772 11.896 302.372 12.44C301.988 12.984 301.468 13.424 300.812 13.76C300.172 14.08 299.42 14.24 298.556 14.24ZM307.368 14C306.776 14 306.36 13.84 306.12 13.52C305.896 13.2 305.784 12.76 305.784 12.2V5.384H304.248V4.232C304.76 4.232 305.136 4.192 305.376 4.112C305.632 4.016 305.792 3.792 305.856 3.44C305.92 3.088 305.952 2.512 305.952 1.712H307.272V4.232H309.528V5.384H307.272V12.752H309.552V14H307.368ZM315.441 14.24C314.513 14.24 313.745 14.048 313.137 13.664C312.545 13.264 312.097 12.8 311.793 12.272C311.505 11.744 311.361 11.272 311.361 10.856H312.849C312.849 10.872 312.857 10.992 312.873 11.216C312.905 11.44 312.993 11.696 313.137 11.984C313.281 12.272 313.529 12.528 313.881 12.752C314.233 12.96 314.745 13.064 315.417 13.064C316.137 13.064 316.753 12.936 317.265 12.68C317.793 12.424 318.049 12.024 318.033 11.48C318.033 11.016 317.873 10.664 317.553 10.424C317.249 10.168 316.849 9.976 316.353 9.848C315.857 9.704 315.337 9.568 314.793 9.44C314.249 9.312 313.729 9.152 313.233 8.96C312.753 8.752 312.361 8.464 312.057 8.096C311.753 7.728 311.601 7.216 311.601 6.56C311.601 5.76 311.961 5.128 312.681 4.664C313.401 4.184 314.321 3.944 315.441 3.944C316.065 3.944 316.697 4.048 317.337 4.256C317.977 4.448 318.505 4.792 318.921 5.288C319.337 5.768 319.529 6.448 319.497 7.328H318.057C318.089 6.72 317.953 6.264 317.649 5.96C317.345 5.656 316.977 5.456 316.545 5.36C316.129 5.248 315.745 5.192 315.393 5.192C314.705 5.192 314.137 5.32 313.689 5.576C313.257 5.832 313.041 6.192 313.041 6.656C313.041 7.104 313.193 7.448 313.497 7.688C313.817 7.912 314.217 8.096 314.697 8.24C315.193 8.368 315.713 8.496 316.257 8.624C316.817 8.736 317.345 8.896 317.841 9.104C318.337 9.312 318.737 9.608 319.041 9.992C319.361 10.376 319.521 10.904 319.521 11.576C319.521 12.504 319.129 13.184 318.345 13.616C317.561 14.032 316.593 14.24 315.441 14.24ZM327.816 14.072V5.384H326.304V4.232H327.816V2.072C327.816 1.512 327.928 1.072 328.152 0.751999C328.392 0.431999 328.808 0.271999 329.4 0.271999H332.304V1.544H329.376V4.232H332.136V5.384H329.376V14.072H327.816ZM337.742 14.24C336.174 14.24 334.998 13.776 334.214 12.848C333.446 11.904 333.062 10.704 333.062 9.248C333.046 7.776 333.43 6.576 334.214 5.648C335.014 4.704 336.19 4.224 337.742 4.208C339.278 4.208 340.438 4.672 341.222 5.6C342.022 6.512 342.422 7.728 342.422 9.248C342.422 10.192 342.254 11.04 341.918 11.792C341.582 12.544 341.07 13.144 340.382 13.592C339.694 14.024 338.814 14.24 337.742 14.24ZM337.742 12.896C338.574 12.896 339.214 12.712 339.662 12.344C340.126 11.976 340.446 11.512 340.622 10.952C340.814 10.376 340.91 9.792 340.91 9.2C340.91 8.608 340.814 8.024 340.622 7.448C340.446 6.872 340.126 6.4 339.662 6.032C339.214 5.664 338.574 5.48 337.742 5.48C336.91 5.48 336.262 5.664 335.798 6.032C335.35 6.4 335.03 6.872 334.838 7.448C334.662 8.024 334.574 8.608 334.574 9.2C334.574 9.792 334.662 10.376 334.838 10.952C335.03 11.512 335.35 11.976 335.798 12.344C336.262 12.712 336.91 12.896 337.742 12.896ZM344.535 14V4.232H345.927L346.095 6.8C346.191 6.368 346.383 5.952 346.671 5.552C346.959 5.152 347.351 4.832 347.847 4.592C348.359 4.336 348.991 4.216 349.743 4.232H350.199V5.936H349.719C348.695 5.936 347.919 6.088 347.391 6.392C346.879 6.68 346.527 7.088 346.335 7.616C346.159 8.144 346.071 8.752 346.071 9.44V14H344.535ZM364.216 4.232H365.752V4.568L362.056 14H359.872L356.152 4.568V4.232H357.688L360.952 12.728H361L364.216 4.232ZM370.578 14.216C369.682 14.216 368.946 14 368.37 13.568C367.794 13.12 367.362 12.52 367.074 11.768C366.802 11.016 366.666 10.16 366.666 9.2C366.666 7.728 366.986 6.52 367.626 5.576C368.282 4.616 369.266 4.136 370.578 4.136C371.25 4.136 371.81 4.256 372.258 4.496C372.722 4.72 373.09 5 373.362 5.336C373.65 5.672 373.858 5.992 373.986 6.296H374.01V4.232H375.594V14H374.274L374.034 12.104H373.986C373.842 12.424 373.634 12.752 373.362 13.088C373.09 13.408 372.722 13.68 372.258 13.904C371.81 14.112 371.25 14.216 370.578 14.216ZM371.178 12.848C372.17 12.848 372.882 12.52 373.314 11.864C373.762 11.208 373.986 10.328 373.986 9.224C373.986 8.04 373.754 7.136 373.29 6.512C372.842 5.888 372.138 5.576 371.178 5.576C370.122 5.576 369.362 5.928 368.898 6.632C368.45 7.32 368.226 8.176 368.226 9.2C368.226 10.272 368.458 11.152 368.922 11.84C369.386 12.512 370.138 12.848 371.178 12.848ZM377.629 14V4.232H379.021L379.189 6.8C379.285 6.368 379.477 5.952 379.765 5.552C380.053 5.152 380.445 4.832 380.941 4.592C381.453 4.336 382.085 4.216 382.837 4.232H383.293V5.936H382.813C381.789 5.936 381.013 6.088 380.485 6.392C379.973 6.68 379.621 7.088 379.429 7.616C379.253 8.144 379.165 8.752 379.165 9.44V14H377.629ZM385.855 3.176C385.503 3.176 385.263 3.088 385.135 2.912C385.023 2.72 384.967 2.48 384.967 2.192C384.967 1.952 385.023 1.744 385.135 1.568C385.263 1.376 385.503 1.28 385.855 1.28C386.207 1.28 386.439 1.376 386.551 1.568C386.679 1.744 386.743 1.952 386.743 2.192C386.743 2.48 386.679 2.72 386.551 2.912C386.439 3.088 386.207 3.176 385.855 3.176ZM385.087 14V4.232H386.623V14H385.087ZM393.289 14.24C391.721 14.24 390.545 13.776 389.761 12.848C388.993 11.904 388.609 10.704 388.609 9.248C388.593 7.776 388.977 6.576 389.761 5.648C390.561 4.704 391.737 4.224 393.289 4.208C394.825 4.208 395.985 4.672 396.769 5.6C397.569 6.512 397.969 7.728 397.969 9.248C397.969 10.192 397.801 11.04 397.465 11.792C397.129 12.544 396.617 13.144 395.929 13.592C395.241 14.024 394.361 14.24 393.289 14.24ZM393.289 12.896C394.121 12.896 394.761 12.712 395.209 12.344C395.673 11.976 395.993 11.512 396.169 10.952C396.361 10.376 396.457 9.792 396.457 9.2C396.457 8.608 396.361 8.024 396.169 7.448C395.993 6.872 395.673 6.4 395.209 6.032C394.761 5.664 394.121 5.48 393.289 5.48C392.457 5.48 391.809 5.664 391.345 6.032C390.897 6.4 390.577 6.872 390.385 7.448C390.209 8.024 390.121 8.608 390.121 9.2C390.121 9.792 390.209 10.376 390.385 10.952C390.577 11.512 390.897 11.976 391.345 12.344C391.809 12.712 392.457 12.896 393.289 12.896ZM403.466 14.24C402.666 14.24 402.018 14.096 401.522 13.808C401.042 13.52 400.674 13.136 400.418 12.656C400.162 12.16 399.986 11.624 399.89 11.048C399.81 10.456 399.77 9.864 399.77 9.272V4.232H401.306V9.296C401.306 9.936 401.37 10.528 401.498 11.072C401.626 11.616 401.882 12.048 402.266 12.368C402.666 12.688 403.242 12.848 403.994 12.848C404.714 12.848 405.274 12.688 405.674 12.368C406.09 12.032 406.394 11.6 406.586 11.072C406.778 10.544 406.89 9.992 406.922 9.416V4.232H408.506V14H407.186L406.922 11.816H406.874C406.794 12.088 406.626 12.416 406.37 12.8C406.114 13.184 405.746 13.52 405.266 13.808C404.802 14.096 404.202 14.24 403.466 14.24ZM414.417 14.24C413.489 14.24 412.721 14.048 412.113 13.664C411.521 13.264 411.073 12.8 410.769 12.272C410.481 11.744 410.337 11.272 410.337 10.856H411.825C411.825 10.872 411.833 10.992 411.849 11.216C411.881 11.44 411.969 11.696 412.113 11.984C412.257 12.272 412.505 12.528 412.857 12.752C413.209 12.96 413.721 13.064 414.393 13.064C415.113 13.064 415.729 12.936 416.241 12.68C416.769 12.424 417.025 12.024 417.009 11.48C417.009 11.016 416.849 10.664 416.529 10.424C416.225 10.168 415.825 9.976 415.329 9.848C414.833 9.704 414.313 9.568 413.769 9.44C413.225 9.312 412.705 9.152 412.209 8.96C411.729 8.752 411.337 8.464 411.033 8.096C410.729 7.728 410.577 7.216 410.577 6.56C410.577 5.76 410.937 5.128 411.657 4.664C412.377 4.184 413.297 3.944 414.417 3.944C415.041 3.944 415.673 4.048 416.313 4.256C416.953 4.448 417.481 4.792 417.897 5.288C418.313 5.768 418.505 6.448 418.473 7.328H417.033C417.065 6.72 416.929 6.264 416.625 5.96C416.321 5.656 415.953 5.456 415.521 5.36C415.105 5.248 414.721 5.192 414.369 5.192C413.681 5.192 413.113 5.32 412.665 5.576C412.233 5.832 412.017 6.192 412.017 6.656C412.017 7.104 412.169 7.448 412.473 7.688C412.793 7.912 413.193 8.096 413.673 8.24C414.169 8.368 414.689 8.496 415.233 8.624C415.793 8.736 416.321 8.896 416.817 9.104C417.313 9.312 417.713 9.608 418.017 9.992C418.337 10.376 418.497 10.904 418.497 11.576C418.497 12.504 418.105 13.184 417.321 13.616C416.537 14.032 415.569 14.24 414.417 14.24ZM428.185 14H426.649V0.487999H435.985V1.856H428.185V6.176H434.329V7.472H428.185V14ZM440.263 14.24C439.463 14.24 438.815 14.096 438.319 13.808C437.839 13.52 437.471 13.136 437.215 12.656C436.959 12.16 436.783 11.624 436.687 11.048C436.607 10.456 436.567 9.864 436.567 9.272V4.232H438.103V9.296C438.103 9.936 438.167 10.528 438.295 11.072C438.423 11.616 438.679 12.048 439.063 12.368C439.463 12.688 440.039 12.848 440.791 12.848C441.511 12.848 442.071 12.688 442.471 12.368C442.887 12.032 443.191 11.6 443.383 11.072C443.575 10.544 443.687 9.992 443.719 9.416V4.232H445.303V14H443.983L443.719 11.816H443.671C443.591 12.088 443.423 12.416 443.167 12.8C442.911 13.184 442.543 13.52 442.063 13.808C441.599 14.096 440.999 14.24 440.263 14.24ZM447.326 14V4.232H448.646L448.742 6.656H448.79C448.822 6.544 448.894 6.36 449.006 6.104C449.118 5.832 449.294 5.552 449.534 5.264C449.774 4.976 450.086 4.736 450.47 4.544C450.854 4.336 451.342 4.232 451.934 4.232C452.83 4.232 453.486 4.48 453.902 4.976C454.334 5.472 454.622 6.032 454.766 6.656H454.814C454.862 6.544 454.95 6.36 455.078 6.104C455.206 5.832 455.398 5.552 455.654 5.264C455.91 4.976 456.238 4.736 456.638 4.544C457.054 4.336 457.558 4.232 458.15 4.232C458.774 4.232 459.286 4.36 459.686 4.616C460.086 4.856 460.39 5.184 460.598 5.6C460.822 6 460.982 6.424 461.078 6.872C461.174 7.32 461.23 7.752 461.246 8.168C461.262 8.584 461.27 8.92 461.27 9.176V14H459.926V9.176C459.926 8.92 459.91 8.592 459.878 8.192C459.846 7.792 459.766 7.4 459.638 7.016C459.51 6.616 459.286 6.288 458.966 6.032C458.662 5.76 458.222 5.624 457.646 5.624C457.006 5.624 456.494 5.8 456.11 6.152C455.726 6.504 455.446 6.968 455.27 7.544C455.094 8.104 455.006 8.712 455.006 9.368V14H453.662V9.176C453.662 8.92 453.646 8.592 453.614 8.192C453.582 7.792 453.502 7.4 453.374 7.016C453.246 6.616 453.022 6.288 452.702 6.032C452.398 5.76 451.958 5.624 451.382 5.624C450.742 5.624 450.23 5.8 449.846 6.152C449.462 6.504 449.182 6.968 449.006 7.544C448.83 8.104 448.742 8.712 448.742 9.368V14H447.326ZM464.394 3.176C464.042 3.176 463.802 3.088 463.674 2.912C463.562 2.72 463.506 2.48 463.506 2.192C463.506 1.952 463.562 1.744 463.674 1.568C463.802 1.376 464.042 1.28 464.394 1.28C464.746 1.28 464.978 1.376 465.09 1.568C465.218 1.744 465.282 1.952 465.282 2.192C465.282 2.48 465.218 2.72 465.09 2.912C464.978 3.088 464.746 3.176 464.394 3.176ZM463.626 14V4.232H465.162V14H463.626ZM469.812 18.032V16.568H474.684V11.84H474.636C474.604 11.92 474.516 12.088 474.372 12.344C474.244 12.6 474.036 12.872 473.748 13.16C473.476 13.448 473.116 13.704 472.668 13.928C472.236 14.136 471.708 14.24 471.084 14.24C470.14 14.24 469.348 14.024 468.708 13.592C468.084 13.144 467.612 12.544 467.292 11.792C466.972 11.04 466.812 10.192 466.812 9.248C466.812 7.776 467.172 6.576 467.892 5.648C468.628 4.704 469.7 4.232 471.108 4.232C471.764 4.232 472.308 4.344 472.74 4.568C473.188 4.776 473.54 5.032 473.796 5.336C474.068 5.64 474.268 5.92 474.396 6.176C474.524 6.432 474.604 6.6 474.636 6.68H474.684V4.232H476.268V15.68C476.268 16.448 476.124 17.032 475.836 17.432C475.548 17.832 475.028 18.032 474.276 18.032H469.812ZM471.42 12.872C472.38 12.872 473.156 12.552 473.748 11.912C474.34 11.256 474.636 10.368 474.636 9.248C474.636 8.144 474.356 7.272 473.796 6.632C473.236 5.976 472.492 5.648 471.564 5.648C470.796 5.648 470.172 5.824 469.692 6.176C469.228 6.512 468.884 6.952 468.66 7.496C468.436 8.04 468.324 8.624 468.324 9.248C468.324 9.856 468.42 10.44 468.612 11C468.82 11.544 469.148 11.992 469.596 12.344C470.06 12.696 470.668 12.872 471.42 12.872ZM481.742 14.216C480.846 14.216 480.11 14 479.534 13.568C478.958 13.12 478.526 12.52 478.238 11.768C477.966 11.016 477.83 10.16 477.83 9.2C477.83 7.728 478.15 6.52 478.79 5.576C479.446 4.616 480.43 4.136 481.742 4.136C482.414 4.136 482.974 4.256 483.422 4.496C483.886 4.72 484.254 5 484.526 5.336C484.814 5.672 485.022 5.992 485.15 6.296H485.174V4.232H486.758V14H485.438L485.198 12.104H485.15C485.006 12.424 484.798 12.752 484.526 13.088C484.254 13.408 483.886 13.68 483.422 13.904C482.974 14.112 482.414 14.216 481.742 14.216ZM482.342 12.848C483.334 12.848 484.046 12.52 484.478 11.864C484.926 11.208 485.15 10.328 485.15 9.224C485.15 8.04 484.918 7.136 484.454 6.512C484.006 5.888 483.302 5.576 482.342 5.576C481.286 5.576 480.526 5.928 480.062 6.632C479.614 7.32 479.39 8.176 479.39 9.2C479.39 10.272 479.622 11.152 480.086 11.84C480.55 12.512 481.302 12.848 482.342 12.848ZM491.001 14C490.409 14 489.993 13.84 489.753 13.52C489.529 13.2 489.417 12.76 489.417 12.2V5.384H487.881V4.232C488.393 4.232 488.769 4.192 489.009 4.112C489.265 4.016 489.425 3.792 489.489 3.44C489.553 3.088 489.585 2.512 489.585 1.712H490.905V4.232H493.161V5.384H490.905V12.752H493.185V14H491.001ZM496.409 3.176C496.057 3.176 495.817 3.088 495.689 2.912C495.577 2.72 495.521 2.48 495.521 2.192C495.521 1.952 495.577 1.744 495.689 1.568C495.817 1.376 496.057 1.28 496.409 1.28C496.761 1.28 496.993 1.376 497.105 1.568C497.233 1.744 497.297 1.952 497.297 2.192C497.297 2.48 497.233 2.72 497.105 2.912C496.993 3.088 496.761 3.176 496.409 3.176ZM495.641 14V4.232H497.177V14H495.641ZM503.844 14.24C502.276 14.24 501.1 13.776 500.316 12.848C499.548 11.904 499.164 10.704 499.164 9.248C499.148 7.776 499.532 6.576 500.316 5.648C501.116 4.704 502.292 4.224 503.844 4.208C505.38 4.208 506.54 4.672 507.324 5.6C508.124 6.512 508.524 7.728 508.524 9.248C508.524 10.192 508.356 11.04 508.02 11.792C507.684 12.544 507.172 13.144 506.484 13.592C505.796 14.024 504.916 14.24 503.844 14.24ZM503.844 12.896C504.676 12.896 505.316 12.712 505.764 12.344C506.228 11.976 506.548 11.512 506.724 10.952C506.916 10.376 507.012 9.792 507.012 9.2C507.012 8.608 506.916 8.024 506.724 7.448C506.548 6.872 506.228 6.4 505.764 6.032C505.316 5.664 504.676 5.48 503.844 5.48C503.012 5.48 502.364 5.664 501.9 6.032C501.452 6.4 501.132 6.872 500.94 7.448C500.764 8.024 500.676 8.608 500.676 9.2C500.676 9.792 500.764 10.376 500.94 10.952C501.132 11.512 501.452 11.976 501.9 12.344C502.364 12.712 503.012 12.896 503.844 12.896ZM510.396 14V4.232H511.716L511.98 6.656H512.028C512.044 6.576 512.116 6.408 512.244 6.152C512.372 5.896 512.564 5.624 512.82 5.336C513.092 5.032 513.444 4.776 513.876 4.568C514.308 4.344 514.86 4.232 515.532 4.232C516.38 4.232 517.044 4.384 517.524 4.688C518.02 4.992 518.388 5.4 518.628 5.912C518.868 6.408 519.02 6.944 519.084 7.52C519.148 8.096 519.18 8.648 519.18 9.176V14H517.692V9.176C517.692 8.12 517.508 7.264 517.14 6.608C516.788 5.952 516.084 5.624 515.028 5.624C514.308 5.624 513.716 5.8 513.252 6.152C512.804 6.488 512.476 6.944 512.268 7.52C512.076 8.08 511.98 8.696 511.98 9.368V14H510.396ZM521.395 16.112V14.96H521.827C522.211 14.96 522.451 14.872 522.547 14.696C522.659 14.52 522.715 14.296 522.715 14.024C522.283 14.056 521.971 13.976 521.779 13.784C521.587 13.592 521.491 13.32 521.491 12.968C521.491 12.68 521.563 12.44 521.707 12.248C521.851 12.056 522.115 11.96 522.499 11.96C522.835 11.96 523.083 12.064 523.243 12.272C523.403 12.464 523.483 12.824 523.483 13.352C523.483 14.168 523.363 14.832 523.123 15.344C522.883 15.856 522.467 16.112 521.875 16.112H521.395ZM533.415 14H531.879V0.487999H537.015C538.503 0.487999 539.639 0.848 540.423 1.568C541.207 2.288 541.599 3.36 541.599 4.784C541.599 6.112 541.191 7.136 540.375 7.856C539.575 8.576 538.455 8.936 537.015 8.936H533.415V14ZM536.847 1.808H533.415V7.736H536.847C537.903 7.736 538.719 7.496 539.295 7.016C539.887 6.52 540.183 5.776 540.183 4.784C540.183 3.76 539.895 3.008 539.319 2.528C538.759 2.048 537.935 1.808 536.847 1.808ZM547.461 14.24C546.389 14.24 545.501 14 544.797 13.52C544.109 13.024 543.597 12.392 543.261 11.624C542.941 10.84 542.781 10.032 542.781 9.2C542.781 8.288 542.957 7.456 543.309 6.704C543.677 5.936 544.205 5.328 544.893 4.88C545.597 4.432 546.437 4.208 547.413 4.208C548.661 4.208 549.701 4.616 550.533 5.432C551.365 6.232 551.813 7.312 551.877 8.672C551.893 8.736 551.901 8.832 551.901 8.96C551.901 9.072 551.901 9.176 551.901 9.272H544.269C544.269 10.408 544.541 11.304 545.085 11.96C545.645 12.6 546.429 12.92 547.437 12.92C548.189 12.92 548.829 12.728 549.357 12.344C549.901 11.96 550.237 11.44 550.365 10.784H551.877C551.717 11.776 551.245 12.6 550.461 13.256C549.677 13.912 548.677 14.24 547.461 14.24ZM544.317 8.432H550.317C550.317 8.096 550.221 7.696 550.029 7.232C549.853 6.768 549.549 6.368 549.117 6.032C548.701 5.68 548.125 5.504 547.389 5.504C546.717 5.504 546.165 5.648 545.733 5.936C545.301 6.224 544.973 6.592 544.749 7.04C544.525 7.488 544.381 7.952 544.317 8.432ZM557.738 14.24C556.81 14.24 556.042 14.048 555.434 13.664C554.842 13.264 554.394 12.8 554.09 12.272C553.802 11.744 553.658 11.272 553.658 10.856H555.146C555.146 10.872 555.154 10.992 555.17 11.216C555.202 11.44 555.29 11.696 555.434 11.984C555.578 12.272 555.826 12.528 556.178 12.752C556.53 12.96 557.042 13.064 557.714 13.064C558.434 13.064 559.05 12.936 559.562 12.68C560.09 12.424 560.346 12.024 560.33 11.48C560.33 11.016 560.17 10.664 559.85 10.424C559.546 10.168 559.146 9.976 558.65 9.848C558.154 9.704 557.634 9.568 557.09 9.44C556.546 9.312 556.026 9.152 555.53 8.96C555.05 8.752 554.658 8.464 554.354 8.096C554.05 7.728 553.898 7.216 553.898 6.56C553.898 5.76 554.258 5.128 554.978 4.664C555.698 4.184 556.618 3.944 557.738 3.944C558.362 3.944 558.994 4.048 559.634 4.256C560.274 4.448 560.802 4.792 561.218 5.288C561.634 5.768 561.826 6.448 561.794 7.328H560.354C560.386 6.72 560.25 6.264 559.946 5.96C559.642 5.656 559.274 5.456 558.842 5.36C558.426 5.248 558.042 5.192 557.69 5.192C557.002 5.192 556.434 5.32 555.986 5.576C555.554 5.832 555.338 6.192 555.338 6.656C555.338 7.104 555.49 7.448 555.794 7.688C556.114 7.912 556.514 8.096 556.994 8.24C557.49 8.368 558.01 8.496 558.554 8.624C559.114 8.736 559.642 8.896 560.138 9.104C560.634 9.312 561.034 9.608 561.338 9.992C561.658 10.376 561.818 10.904 561.818 11.576C561.818 12.504 561.426 13.184 560.642 13.616C559.858 14.032 558.89 14.24 557.738 14.24ZM565.954 14C565.362 14 564.946 13.84 564.706 13.52C564.482 13.2 564.37 12.76 564.37 12.2V5.384H562.834V4.232C563.346 4.232 563.722 4.192 563.962 4.112C564.218 4.016 564.378 3.792 564.442 3.44C564.506 3.088 564.538 2.512 564.538 1.712H565.858V4.232H568.114V5.384H565.858V12.752H568.138V14H565.954ZM582.098 14.24C580.85 14.24 579.73 13.984 578.738 13.472C577.746 12.944 576.954 12.16 576.362 11.12C575.786 10.08 575.506 8.8 575.522 7.28C575.522 5.744 575.802 4.456 576.362 3.416C576.938 2.36 577.73 1.568 578.738 1.04C579.746 0.512 580.898 0.248 582.194 0.248C583.858 0.248 585.218 0.696 586.274 1.592C587.33 2.472 588.002 3.688 588.29 5.24H586.682C586.474 4.024 585.946 3.128 585.098 2.552C584.25 1.976 583.282 1.688 582.194 1.688C580.594 1.688 579.338 2.168 578.426 3.128C577.514 4.072 577.058 5.424 577.058 7.184C577.058 9.024 577.498 10.424 578.378 11.384C579.274 12.328 580.522 12.8 582.122 12.8C583.322 12.8 584.346 12.512 585.194 11.936C586.042 11.344 586.562 10.448 586.754 9.248H588.386C588.098 10.784 587.418 12 586.346 12.896C585.29 13.792 583.874 14.24 582.098 14.24ZM594.547 14.24C592.979 14.24 591.803 13.776 591.019 12.848C590.251 11.904 589.867 10.704 589.867 9.248C589.851 7.776 590.235 6.576 591.019 5.648C591.819 4.704 592.995 4.224 594.547 4.208C596.083 4.208 597.243 4.672 598.027 5.6C598.827 6.512 599.227 7.728 599.227 9.248C599.227 10.192 599.059 11.04 598.723 11.792C598.387 12.544 597.875 13.144 597.187 13.592C596.499 14.024 595.619 14.24 594.547 14.24ZM594.547 12.896C595.379 12.896 596.019 12.712 596.467 12.344C596.931 11.976 597.251 11.512 597.427 10.952C597.619 10.376 597.715 9.792 597.715 9.2C597.715 8.608 597.619 8.024 597.427 7.448C597.251 6.872 596.931 6.4 596.467 6.032C596.019 5.664 595.379 5.48 594.547 5.48C593.715 5.48 593.067 5.664 592.603 6.032C592.155 6.4 591.835 6.872 591.643 7.448C591.467 8.024 591.379 8.608 591.379 9.2C591.379 9.792 591.467 10.376 591.643 10.952C591.835 11.512 592.155 11.976 592.603 12.344C593.067 12.712 593.715 12.896 594.547 12.896ZM601.1 14V4.232H602.42L602.684 6.656H602.732C602.748 6.576 602.82 6.408 602.948 6.152C603.076 5.896 603.268 5.624 603.524 5.336C603.796 5.032 604.148 4.776 604.58 4.568C605.012 4.344 605.564 4.232 606.236 4.232C607.084 4.232 607.748 4.384 608.228 4.688C608.724 4.992 609.092 5.4 609.332 5.912C609.572 6.408 609.724 6.944 609.788 7.52C609.852 8.096 609.884 8.648 609.884 9.176V14H608.396V9.176C608.396 8.12 608.212 7.264 607.844 6.608C607.492 5.952 606.788 5.624 605.732 5.624C605.012 5.624 604.42 5.8 603.956 6.152C603.508 6.488 603.18 6.944 602.972 7.52C602.78 8.08 602.684 8.696 602.684 9.368V14H601.1ZM614.258 14C613.666 14 613.25 13.84 613.01 13.52C612.786 13.2 612.674 12.76 612.674 12.2V5.384H611.138V4.232C611.65 4.232 612.026 4.192 612.266 4.112C612.522 4.016 612.682 3.792 612.746 3.44C612.81 3.088 612.842 2.512 612.842 1.712H614.162V4.232H616.418V5.384H614.162V12.752H616.442V14H614.258ZM618.683 14V4.232H620.075L620.243 6.8C620.339 6.368 620.531 5.952 620.819 5.552C621.107 5.152 621.499 4.832 621.995 4.592C622.507 4.336 623.139 4.216 623.891 4.232H624.347V5.936H623.867C622.843 5.936 622.067 6.088 621.539 6.392C621.027 6.68 620.675 7.088 620.483 7.616C620.307 8.144 620.219 8.752 620.219 9.44V14H618.683ZM629.937 14.24C628.369 14.24 627.193 13.776 626.409 12.848C625.641 11.904 625.257 10.704 625.257 9.248C625.241 7.776 625.625 6.576 626.409 5.648C627.209 4.704 628.385 4.224 629.937 4.208C631.473 4.208 632.633 4.672 633.417 5.6C634.217 6.512 634.617 7.728 634.617 9.248C634.617 10.192 634.449 11.04 634.113 11.792C633.777 12.544 633.265 13.144 632.577 13.592C631.889 14.024 631.009 14.24 629.937 14.24ZM629.937 12.896C630.769 12.896 631.409 12.712 631.857 12.344C632.321 11.976 632.641 11.512 632.817 10.952C633.009 10.376 633.105 9.792 633.105 9.2C633.105 8.608 633.009 8.024 632.817 7.448C632.641 6.872 632.321 6.4 631.857 6.032C631.409 5.664 630.769 5.48 629.937 5.48C629.105 5.48 628.457 5.664 627.993 6.032C627.545 6.4 627.225 6.872 627.033 7.448C626.857 8.024 626.769 8.608 626.769 9.2C626.769 9.792 626.857 10.376 627.033 10.952C627.225 11.512 627.545 11.976 627.993 12.344C628.457 12.712 629.105 12.896 629.937 12.896ZM636.826 14V0.487999H638.338V14H636.826ZM649.625 14.216C648.729 14.216 647.993 14 647.417 13.568C646.841 13.12 646.409 12.52 646.121 11.768C645.849 11.016 645.713 10.16 645.713 9.2C645.713 7.728 646.033 6.52 646.673 5.576C647.329 4.616 648.313 4.136 649.625 4.136C650.297 4.136 650.857 4.256 651.305 4.496C651.769 4.72 652.137 5 652.409 5.336C652.697 5.672 652.905 5.992 653.033 6.296H653.057V4.232H654.641V14H653.321L653.081 12.104H653.033C652.889 12.424 652.681 12.752 652.409 13.088C652.137 13.408 651.769 13.68 651.305 13.904C650.857 14.112 650.297 14.216 649.625 14.216ZM650.225 12.848C651.217 12.848 651.929 12.52 652.361 11.864C652.809 11.208 653.033 10.328 653.033 9.224C653.033 8.04 652.801 7.136 652.337 6.512C651.889 5.888 651.185 5.576 650.225 5.576C649.169 5.576 648.409 5.928 647.945 6.632C647.497 7.32 647.273 8.176 647.273 9.2C647.273 10.272 647.505 11.152 647.969 11.84C648.433 12.512 649.185 12.848 650.225 12.848ZM656.435 14V4.232H657.755L658.019 6.656H658.067C658.083 6.576 658.155 6.408 658.283 6.152C658.411 5.896 658.603 5.624 658.859 5.336C659.131 5.032 659.483 4.776 659.915 4.568C660.347 4.344 660.899 4.232 661.571 4.232C662.419 4.232 663.083 4.384 663.563 4.688C664.059 4.992 664.427 5.4 664.667 5.912C664.907 6.408 665.059 6.944 665.123 7.52C665.187 8.096 665.219 8.648 665.219 9.176V14H663.731V9.176C663.731 8.12 663.547 7.264 663.179 6.608C662.827 5.952 662.123 5.624 661.067 5.624C660.347 5.624 659.755 5.8 659.291 6.152C658.843 6.488 658.515 6.944 658.307 7.52C658.115 8.08 658.019 8.696 658.019 9.368V14H656.435ZM671.586 14.24C670.642 14.24 669.85 14.024 669.21 13.592C668.586 13.16 668.114 12.568 667.794 11.816C667.49 11.048 667.338 10.192 667.338 9.248C667.338 7.792 667.698 6.592 668.418 5.648C669.138 4.704 670.202 4.232 671.61 4.232C672.266 4.232 672.81 4.344 673.242 4.568C673.69 4.776 674.05 5.032 674.322 5.336C674.594 5.64 674.794 5.92 674.922 6.176C675.05 6.432 675.13 6.6 675.162 6.68H675.21L675.234 0.487999H676.818V14H675.474L675.234 11.84H675.186C675.154 11.92 675.066 12.088 674.922 12.344C674.778 12.6 674.562 12.872 674.274 13.16C674.002 13.448 673.642 13.704 673.194 13.928C672.762 14.136 672.226 14.24 671.586 14.24ZM671.97 12.872C672.914 12.872 673.682 12.552 674.274 11.912C674.882 11.256 675.186 10.368 675.186 9.248C675.186 8.144 674.906 7.272 674.346 6.632C673.786 5.976 673.034 5.648 672.09 5.648C671.338 5.648 670.722 5.824 670.242 6.176C669.762 6.512 669.41 6.952 669.186 7.496C668.962 8.04 668.85 8.624 668.85 9.248C668.85 9.856 668.954 10.44 669.162 11C669.37 11.544 669.698 11.992 670.146 12.344C670.594 12.696 671.202 12.872 671.97 12.872ZM688.977 14.24C687.905 14.24 687.017 14 686.313 13.52C685.625 13.024 685.113 12.392 684.777 11.624C684.457 10.84 684.297 10.032 684.297 9.2C684.297 8.288 684.473 7.456 684.825 6.704C685.193 5.936 685.721 5.328 686.409 4.88C687.113 4.432 687.953 4.208 688.929 4.208C690.177 4.208 691.217 4.616 692.049 5.432C692.881 6.232 693.329 7.312 693.393 8.672C693.409 8.736 693.417 8.832 693.417 8.96C693.417 9.072 693.417 9.176 693.417 9.272H685.785C685.785 10.408 686.057 11.304 686.601 11.96C687.161 12.6 687.945 12.92 688.953 12.92C689.705 12.92 690.345 12.728 690.873 12.344C691.417 11.96 691.753 11.44 691.881 10.784H693.393C693.233 11.776 692.761 12.6 691.977 13.256C691.193 13.912 690.193 14.24 688.977 14.24ZM685.833 8.432H691.833C691.833 8.096 691.737 7.696 691.545 7.232C691.369 6.768 691.065 6.368 690.633 6.032C690.217 5.68 689.641 5.504 688.905 5.504C688.233 5.504 687.681 5.648 687.249 5.936C686.817 6.224 686.489 6.592 686.265 7.04C686.041 7.488 685.897 7.952 685.833 8.432ZM695.365 14V4.232H696.685L696.949 6.656H696.997C697.013 6.576 697.085 6.408 697.213 6.152C697.341 5.896 697.533 5.624 697.789 5.336C698.061 5.032 698.413 4.776 698.845 4.568C699.277 4.344 699.829 4.232 700.501 4.232C701.349 4.232 702.013 4.384 702.493 4.688C702.989 4.992 703.357 5.4 703.597 5.912C703.837 6.408 703.989 6.944 704.053 7.52C704.117 8.096 704.149 8.648 704.149 9.176V14H702.661V9.176C702.661 8.12 702.477 7.264 702.109 6.608C701.757 5.952 701.053 5.624 699.997 5.624C699.277 5.624 698.685 5.8 698.221 6.152C697.773 6.488 697.445 6.944 697.237 7.52C697.045 8.08 696.949 8.696 696.949 9.368V14H695.365ZM713.06 4.232H714.596V4.568L710.9 14H708.716L704.996 4.568V4.232H706.532L709.796 12.728H709.844L713.06 4.232ZM717.214 3.176C716.862 3.176 716.622 3.088 716.494 2.912C716.382 2.72 716.326 2.48 716.326 2.192C716.326 1.952 716.382 1.744 716.494 1.568C716.622 1.376 716.862 1.28 717.214 1.28C717.566 1.28 717.798 1.376 717.91 1.568C718.038 1.744 718.102 1.952 718.102 2.192C718.102 2.48 718.038 2.72 717.91 2.912C717.798 3.088 717.566 3.176 717.214 3.176ZM716.446 14V4.232H717.982V14H716.446ZM720.472 14V4.232H721.864L722.032 6.8C722.128 6.368 722.32 5.952 722.608 5.552C722.896 5.152 723.288 4.832 723.784 4.592C724.296 4.336 724.928 4.216 725.68 4.232H726.136V5.936H725.656C724.632 5.936 723.856 6.088 723.328 6.392C722.816 6.68 722.464 7.088 722.272 7.616C722.096 8.144 722.008 8.752 722.008 9.44V14H720.472ZM731.726 14.24C730.158 14.24 728.982 13.776 728.198 12.848C727.43 11.904 727.046 10.704 727.046 9.248C727.03 7.776 727.414 6.576 728.198 5.648C728.998 4.704 730.174 4.224 731.726 4.208C733.262 4.208 734.422 4.672 735.206 5.6C736.006 6.512 736.406 7.728 736.406 9.248C736.406 10.192 736.238 11.04 735.902 11.792C735.566 12.544 735.054 13.144 734.366 13.592C733.678 14.024 732.798 14.24 731.726 14.24ZM731.726 12.896C732.558 12.896 733.198 12.712 733.646 12.344C734.11 11.976 734.43 11.512 734.606 10.952C734.798 10.376 734.894 9.792 734.894 9.2C734.894 8.608 734.798 8.024 734.606 7.448C734.43 6.872 734.11 6.4 733.646 6.032C733.198 5.664 732.558 5.48 731.726 5.48C730.894 5.48 730.246 5.664 729.782 6.032C729.334 6.4 729.014 6.872 728.822 7.448C728.646 8.024 728.558 8.608 728.558 9.2C728.558 9.792 728.646 10.376 728.822 10.952C729.014 11.512 729.334 11.976 729.782 12.344C730.246 12.712 730.894 12.896 731.726 12.896ZM738.279 14V4.232H739.599L739.863 6.656H739.911C739.927 6.576 739.999 6.408 740.127 6.152C740.255 5.896 740.447 5.624 740.703 5.336C740.975 5.032 741.327 4.776 741.759 4.568C742.191 4.344 742.743 4.232 743.415 4.232C744.263 4.232 744.927 4.384 745.407 4.688C745.903 4.992 746.271 5.4 746.511 5.912C746.751 6.408 746.903 6.944 746.967 7.52C747.031 8.096 747.063 8.648 747.063 9.176V14H745.575V9.176C745.575 8.12 745.391 7.264 745.023 6.608C744.671 5.952 743.967 5.624 742.911 5.624C742.191 5.624 741.599 5.8 741.135 6.152C740.687 6.488 740.359 6.944 740.151 7.52C739.959 8.08 739.863 8.696 739.863 9.368V14H738.279ZM748.99 14V4.232H750.31L750.406 6.656H750.454C750.486 6.544 750.558 6.36 750.67 6.104C750.782 5.832 750.958 5.552 751.198 5.264C751.438 4.976 751.75 4.736 752.134 4.544C752.518 4.336 753.006 4.232 753.598 4.232C754.494 4.232 755.15 4.48 755.566 4.976C755.998 5.472 756.286 6.032 756.43 6.656H756.478C756.526 6.544 756.614 6.36 756.742 6.104C756.87 5.832 757.062 5.552 757.318 5.264C757.574 4.976 757.902 4.736 758.302 4.544C758.718 4.336 759.222 4.232 759.814 4.232C760.438 4.232 760.95 4.36 761.35 4.616C761.75 4.856 762.054 5.184 762.262 5.6C762.486 6 762.646 6.424 762.742 6.872C762.838 7.32 762.894 7.752 762.91 8.168C762.926 8.584 762.934 8.92 762.934 9.176V14H761.59V9.176C761.59 8.92 761.574 8.592 761.542 8.192C761.51 7.792 761.43 7.4 761.302 7.016C761.174 6.616 760.95 6.288 760.63 6.032C760.326 5.76 759.886 5.624 759.31 5.624C758.67 5.624 758.158 5.8 757.774 6.152C757.39 6.504 757.11 6.968 756.934 7.544C756.758 8.104 756.67 8.712 756.67 9.368V14H755.326V9.176C755.326 8.92 755.31 8.592 755.278 8.192C755.246 7.792 755.166 7.4 755.038 7.016C754.91 6.616 754.686 6.288 754.366 6.032C754.062 5.76 753.622 5.624 753.046 5.624C752.406 5.624 751.894 5.8 751.51 6.152C751.126 6.504 750.846 6.968 750.67 7.544C750.494 8.104 750.406 8.712 750.406 9.368V14H748.99ZM769.274 14.24C768.202 14.24 767.314 14 766.61 13.52C765.922 13.024 765.41 12.392 765.074 11.624C764.754 10.84 764.594 10.032 764.594 9.2C764.594 8.288 764.77 7.456 765.122 6.704C765.49 5.936 766.018 5.328 766.706 4.88C767.41 4.432 768.25 4.208 769.226 4.208C770.474 4.208 771.514 4.616 772.346 5.432C773.178 6.232 773.626 7.312 773.69 8.672C773.706 8.736 773.714 8.832 773.714 8.96C773.714 9.072 773.714 9.176 773.714 9.272H766.082C766.082 10.408 766.354 11.304 766.898 11.96C767.458 12.6 768.242 12.92 769.25 12.92C770.002 12.92 770.642 12.728 771.17 12.344C771.714 11.96 772.05 11.44 772.178 10.784H773.69C773.53 11.776 773.058 12.6 772.274 13.256C771.49 13.912 770.49 14.24 769.274 14.24ZM766.13 8.432H772.13C772.13 8.096 772.034 7.696 771.842 7.232C771.666 6.768 771.362 6.368 770.93 6.032C770.514 5.68 769.938 5.504 769.202 5.504C768.53 5.504 767.978 5.648 767.546 5.936C767.114 6.224 766.786 6.592 766.562 7.04C766.338 7.488 766.194 7.952 766.13 8.432ZM775.662 14V4.232H776.982L777.246 6.656H777.294C777.31 6.576 777.382 6.408 777.51 6.152C777.638 5.896 777.83 5.624 778.086 5.336C778.358 5.032 778.71 4.776 779.142 4.568C779.574 4.344 780.126 4.232 780.798 4.232C781.646 4.232 782.31 4.384 782.79 4.688C783.286 4.992 783.654 5.4 783.894 5.912C784.134 6.408 784.286 6.944 784.35 7.52C784.414 8.096 784.446 8.648 784.446 9.176V14H782.958V9.176C782.958 8.12 782.774 7.264 782.406 6.608C782.054 5.952 781.35 5.624 780.294 5.624C779.574 5.624 778.982 5.8 778.518 6.152C778.07 6.488 777.742 6.944 777.534 7.52C777.342 8.08 777.246 8.696 777.246 9.368V14H775.662ZM788.821 14C788.229 14 787.813 13.84 787.573 13.52C787.349 13.2 787.237 12.76 787.237 12.2V5.384H785.701V4.232C786.213 4.232 786.589 4.192 786.829 4.112C787.085 4.016 787.245 3.792 787.309 3.44C787.373 3.088 787.405 2.512 787.405 1.712H788.725V4.232H790.981V5.384H788.725V12.752H791.005V14H788.821ZM796.438 14.216C795.542 14.216 794.806 14 794.23 13.568C793.654 13.12 793.222 12.52 792.934 11.768C792.662 11.016 792.526 10.16 792.526 9.2C792.526 7.728 792.846 6.52 793.486 5.576C794.142 4.616 795.126 4.136 796.438 4.136C797.11 4.136 797.67 4.256 798.118 4.496C798.582 4.72 798.95 5 799.222 5.336C799.51 5.672 799.718 5.992 799.846 6.296H799.87V4.232H801.454V14H800.134L799.894 12.104H799.846C799.702 12.424 799.494 12.752 799.222 13.088C798.95 13.408 798.582 13.68 798.118 13.904C797.67 14.112 797.11 14.216 796.438 14.216ZM797.038 12.848C798.03 12.848 798.742 12.52 799.174 11.864C799.622 11.208 799.846 10.328 799.846 9.224C799.846 8.04 799.614 7.136 799.15 6.512C798.702 5.888 797.998 5.576 797.038 5.576C795.982 5.576 795.222 5.928 794.758 6.632C794.31 7.32 794.086 8.176 794.086 9.2C794.086 10.272 794.318 11.152 794.782 11.84C795.246 12.512 795.998 12.848 797.038 12.848ZM803.584 14V0.487999H805.096V14H803.584ZM817.439 14.24C816.527 14.24 815.711 14.048 814.991 13.664C814.271 13.28 813.703 12.72 813.287 11.984C812.871 11.248 812.663 10.36 812.663 9.32C812.695 8.296 812.911 7.4 813.311 6.632C813.727 5.864 814.295 5.272 815.015 4.856C815.735 4.424 816.559 4.208 817.487 4.208C818.351 4.208 819.103 4.368 819.743 4.688C820.383 5.008 820.895 5.44 821.279 5.984C821.663 6.528 821.903 7.128 821.999 7.784H820.583C820.423 7.08 820.071 6.536 819.527 6.152C818.999 5.768 818.335 5.576 817.535 5.576C816.511 5.576 815.695 5.92 815.087 6.608C814.495 7.28 814.191 8.16 814.175 9.248C814.175 10.352 814.463 11.232 815.039 11.888C815.631 12.528 816.455 12.848 817.511 12.848C818.279 12.848 818.943 12.656 819.503 12.272C820.063 11.888 820.423 11.336 820.583 10.616H821.999C821.903 11.288 821.655 11.896 821.255 12.44C820.871 12.984 820.351 13.424 819.695 13.76C819.055 14.08 818.303 14.24 817.439 14.24ZM824.139 14V0.487999H825.651V14H824.139ZM832.25 14.24C831.178 14.24 830.29 14 829.586 13.52C828.898 13.024 828.386 12.392 828.05 11.624C827.73 10.84 827.57 10.032 827.57 9.2C827.57 8.288 827.746 7.456 828.098 6.704C828.466 5.936 828.994 5.328 829.682 4.88C830.386 4.432 831.226 4.208 832.202 4.208C833.45 4.208 834.49 4.616 835.322 5.432C836.154 6.232 836.602 7.312 836.666 8.672C836.682 8.736 836.69 8.832 836.69 8.96C836.69 9.072 836.69 9.176 836.69 9.272H829.058C829.058 10.408 829.33 11.304 829.874 11.96C830.434 12.6 831.218 12.92 832.226 12.92C832.978 12.92 833.618 12.728 834.146 12.344C834.69 11.96 835.026 11.44 835.154 10.784H836.666C836.506 11.776 836.034 12.6 835.25 13.256C834.466 13.912 833.466 14.24 832.25 14.24ZM829.106 8.432H835.106C835.106 8.096 835.01 7.696 834.818 7.232C834.642 6.768 834.338 6.368 833.906 6.032C833.49 5.68 832.914 5.504 832.178 5.504C831.506 5.504 830.954 5.648 830.522 5.936C830.09 6.224 829.762 6.592 829.538 7.04C829.314 7.488 829.17 7.952 829.106 8.432ZM842.071 14.216C841.175 14.216 840.439 14 839.863 13.568C839.287 13.12 838.855 12.52 838.567 11.768C838.295 11.016 838.159 10.16 838.159 9.2C838.159 7.728 838.479 6.52 839.119 5.576C839.775 4.616 840.759 4.136 842.071 4.136C842.743 4.136 843.303 4.256 843.751 4.496C844.215 4.72 844.583 5 844.855 5.336C845.143 5.672 845.351 5.992 845.479 6.296H845.503V4.232H847.087V14H845.767L845.527 12.104H845.479C845.335 12.424 845.127 12.752 844.855 13.088C844.583 13.408 844.215 13.68 843.751 13.904C843.303 14.112 842.743 14.216 842.071 14.216ZM842.671 12.848C843.663 12.848 844.375 12.52 844.807 11.864C845.255 11.208 845.479 10.328 845.479 9.224C845.479 8.04 845.247 7.136 844.783 6.512C844.335 5.888 843.631 5.576 842.671 5.576C841.615 5.576 840.855 5.928 840.391 6.632C839.943 7.32 839.719 8.176 839.719 9.2C839.719 10.272 839.951 11.152 840.415 11.84C840.879 12.512 841.631 12.848 842.671 12.848ZM848.881 14V4.232H850.201L850.465 6.656H850.513C850.529 6.576 850.601 6.408 850.729 6.152C850.857 5.896 851.049 5.624 851.305 5.336C851.577 5.032 851.929 4.776 852.361 4.568C852.793 4.344 853.345 4.232 854.017 4.232C854.865 4.232 855.529 4.384 856.009 4.688C856.505 4.992 856.873 5.4 857.113 5.912C857.353 6.408 857.505 6.944 857.569 7.52C857.633 8.096 857.665 8.648 857.665 9.176V14H856.177V9.176C856.177 8.12 855.993 7.264 855.625 6.608C855.273 5.952 854.569 5.624 853.513 5.624C852.793 5.624 852.201 5.8 851.737 6.152C851.289 6.488 850.961 6.944 850.753 7.52C850.561 8.08 850.465 8.696 850.465 9.368V14H848.881ZM860.816 3.176C860.464 3.176 860.224 3.088 860.096 2.912C859.984 2.72 859.928 2.48 859.928 2.192C859.928 1.952 859.984 1.744 860.096 1.568C860.224 1.376 860.464 1.28 860.816 1.28C861.168 1.28 861.4 1.376 861.512 1.568C861.64 1.744 861.704 1.952 861.704 2.192C861.704 2.48 861.64 2.72 861.512 2.912C861.4 3.088 861.168 3.176 860.816 3.176ZM860.048 14V4.232H861.584V14H860.048ZM863.834 14V4.232H865.154L865.418 6.656H865.466C865.482 6.576 865.554 6.408 865.682 6.152C865.81 5.896 866.002 5.624 866.258 5.336C866.53 5.032 866.882 4.776 867.314 4.568C867.746 4.344 868.298 4.232 868.97 4.232C869.818 4.232 870.482 4.384 870.962 4.688C871.458 4.992 871.826 5.4 872.066 5.912C872.306 6.408 872.458 6.944 872.522 7.52C872.586 8.096 872.618 8.648 872.618 9.176V14H871.13V9.176C871.13 8.12 870.946 7.264 870.578 6.608C870.226 5.952 869.522 5.624 868.466 5.624C867.746 5.624 867.154 5.8 866.69 6.152C866.242 6.488 865.914 6.944 865.706 7.52C865.514 8.08 865.418 8.696 865.418 9.368V14H863.834ZM876.945 18.032V16.568H881.817V11.84H881.769C881.737 11.92 881.649 12.088 881.505 12.344C881.377 12.6 881.169 12.872 880.881 13.16C880.609 13.448 880.249 13.704 879.801 13.928C879.369 14.136 878.841 14.24 878.217 14.24C877.273 14.24 876.481 14.024 875.841 13.592C875.217 13.144 874.745 12.544 874.425 11.792C874.105 11.04 873.945 10.192 873.945 9.248C873.945 7.776 874.305 6.576 875.025 5.648C875.761 4.704 876.833 4.232 878.241 4.232C878.897 4.232 879.441 4.344 879.873 4.568C880.321 4.776 880.673 5.032 880.929 5.336C881.201 5.64 881.401 5.92 881.529 6.176C881.657 6.432 881.737 6.6 881.769 6.68H881.817V4.232H883.401V15.68C883.401 16.448 883.257 17.032 882.969 17.432C882.681 17.832 882.161 18.032 881.409 18.032H876.945ZM878.553 12.872C879.513 12.872 880.289 12.552 880.881 11.912C881.473 11.256 881.769 10.368 881.769 9.248C881.769 8.144 881.489 7.272 880.929 6.632C880.369 5.976 879.625 5.648 878.697 5.648C877.929 5.648 877.305 5.824 876.825 6.176C876.361 6.512 876.017 6.952 875.793 7.496C875.569 8.04 875.457 8.624 875.457 9.248C875.457 9.856 875.553 10.44 875.745 11C875.953 11.544 876.281 11.992 876.729 12.344C877.193 12.696 877.801 12.872 878.553 12.872ZM896.587 14.24C895.963 14.24 895.427 14.136 894.979 13.928C894.547 13.704 894.195 13.448 893.923 13.16C893.651 12.872 893.443 12.6 893.299 12.344C893.171 12.088 893.091 11.92 893.059 11.84H893.011V18.032H891.427V4.232H892.747L893.011 6.68H893.059C893.091 6.6 893.171 6.432 893.299 6.176C893.427 5.92 893.619 5.64 893.875 5.336C894.147 5.032 894.499 4.776 894.931 4.568C895.379 4.344 895.931 4.232 896.587 4.232C897.531 4.232 898.315 4.448 898.939 4.88C899.579 5.312 900.059 5.912 900.379 6.68C900.715 7.432 900.883 8.296 900.883 9.272C900.883 10.728 900.515 11.92 899.779 12.848C899.043 13.776 897.979 14.24 896.587 14.24ZM896.275 12.872C897.027 12.872 897.627 12.696 898.075 12.344C898.539 11.992 898.867 11.544 899.059 11C899.267 10.44 899.371 9.856 899.371 9.248C899.371 8.624 899.259 8.04 899.035 7.496C898.811 6.952 898.459 6.512 897.979 6.176C897.515 5.824 896.899 5.648 896.131 5.648C895.203 5.648 894.459 5.976 893.899 6.632C893.339 7.272 893.059 8.144 893.059 9.248C893.059 10.368 893.355 11.256 893.947 11.912C894.539 12.552 895.315 12.872 896.275 12.872ZM906.153 14.24C905.353 14.24 904.705 14.096 904.209 13.808C903.729 13.52 903.361 13.136 903.105 12.656C902.849 12.16 902.673 11.624 902.577 11.048C902.497 10.456 902.457 9.864 902.457 9.272V4.232H903.993V9.296C903.993 9.936 904.057 10.528 904.185 11.072C904.313 11.616 904.569 12.048 904.953 12.368C905.353 12.688 905.929 12.848 906.681 12.848C907.401 12.848 907.961 12.688 908.361 12.368C908.777 12.032 909.081 11.6 909.273 11.072C909.465 10.544 909.577 9.992 909.609 9.416V4.232H911.193V14H909.873L909.609 11.816H909.561C909.481 12.088 909.313 12.416 909.057 12.8C908.801 13.184 908.433 13.52 907.953 13.808C907.489 14.096 906.889 14.24 906.153 14.24ZM913.457 14V4.232H914.849L915.017 6.8C915.113 6.368 915.305 5.952 915.593 5.552C915.881 5.152 916.273 4.832 916.769 4.592C917.281 4.336 917.913 4.216 918.665 4.232H919.121V5.936H918.641C917.617 5.936 916.841 6.088 916.313 6.392C915.801 6.68 915.449 7.088 915.257 7.616C915.081 8.144 914.993 8.752 914.993 9.44V14H913.457ZM925.907 14.24C925.283 14.24 924.747 14.136 924.299 13.928C923.867 13.704 923.515 13.448 923.243 13.16C922.971 12.872 922.763 12.6 922.619 12.344C922.491 12.088 922.411 11.92 922.379 11.84H922.331V18.032H920.747V4.232H922.067L922.331 6.68H922.379C922.411 6.6 922.491 6.432 922.619 6.176C922.747 5.92 922.939 5.64 923.195 5.336C923.467 5.032 923.819 4.776 924.251 4.568C924.699 4.344 925.251 4.232 925.907 4.232C926.851 4.232 927.635 4.448 928.259 4.88C928.899 5.312 929.379 5.912 929.699 6.68C930.035 7.432 930.203 8.296 930.203 9.272C930.203 10.728 929.835 11.92 929.099 12.848C928.363 13.776 927.299 14.24 925.907 14.24ZM925.595 12.872C926.347 12.872 926.947 12.696 927.395 12.344C927.859 11.992 928.187 11.544 928.379 11C928.587 10.44 928.691 9.856 928.691 9.248C928.691 8.624 928.579 8.04 928.355 7.496C928.131 6.952 927.779 6.512 927.299 6.176C926.835 5.824 926.219 5.648 925.451 5.648C924.523 5.648 923.779 5.976 923.219 6.632C922.659 7.272 922.379 8.144 922.379 9.248C922.379 10.368 922.675 11.256 923.267 11.912C923.859 12.552 924.635 12.872 925.595 12.872ZM936.266 14.24C934.698 14.24 933.522 13.776 932.738 12.848C931.97 11.904 931.586 10.704 931.586 9.248C931.57 7.776 931.954 6.576 932.738 5.648C933.538 4.704 934.714 4.224 936.266 4.208C937.802 4.208 938.962 4.672 939.746 5.6C940.546 6.512 940.946 7.728 940.946 9.248C940.946 10.192 940.778 11.04 940.442 11.792C940.106 12.544 939.594 13.144 938.906 13.592C938.218 14.024 937.338 14.24 936.266 14.24ZM936.266 12.896C937.098 12.896 937.738 12.712 938.186 12.344C938.65 11.976 938.97 11.512 939.146 10.952C939.338 10.376 939.434 9.792 939.434 9.2C939.434 8.608 939.338 8.024 939.146 7.448C938.97 6.872 938.65 6.4 938.186 6.032C937.738 5.664 937.098 5.48 936.266 5.48C935.434 5.48 934.786 5.664 934.322 6.032C933.874 6.4 933.554 6.872 933.362 7.448C933.186 8.024 933.098 8.608 933.098 9.2C933.098 9.792 933.186 10.376 933.362 10.952C933.554 11.512 933.874 11.976 934.322 12.344C934.786 12.712 935.434 12.896 936.266 12.896ZM946.706 14.24C945.778 14.24 945.01 14.048 944.402 13.664C943.81 13.264 943.362 12.8 943.058 12.272C942.77 11.744 942.626 11.272 942.626 10.856H944.114C944.114 10.872 944.122 10.992 944.138 11.216C944.17 11.44 944.258 11.696 944.402 11.984C944.546 12.272 944.794 12.528 945.146 12.752C945.498 12.96 946.01 13.064 946.682 13.064C947.402 13.064 948.018 12.936 948.53 12.68C949.058 12.424 949.314 12.024 949.298 11.48C949.298 11.016 949.138 10.664 948.818 10.424C948.514 10.168 948.114 9.976 947.618 9.848C947.122 9.704 946.602 9.568 946.058 9.44C945.514 9.312 944.994 9.152 944.498 8.96C944.018 8.752 943.626 8.464 943.322 8.096C943.018 7.728 942.866 7.216 942.866 6.56C942.866 5.76 943.226 5.128 943.946 4.664C944.666 4.184 945.586 3.944 946.706 3.944C947.33 3.944 947.962 4.048 948.602 4.256C949.242 4.448 949.77 4.792 950.186 5.288C950.602 5.768 950.794 6.448 950.762 7.328H949.322C949.354 6.72 949.218 6.264 948.914 5.96C948.61 5.656 948.242 5.456 947.81 5.36C947.394 5.248 947.01 5.192 946.658 5.192C945.97 5.192 945.402 5.32 944.954 5.576C944.522 5.832 944.306 6.192 944.306 6.656C944.306 7.104 944.458 7.448 944.762 7.688C945.082 7.912 945.482 8.096 945.962 8.24C946.458 8.368 946.978 8.496 947.522 8.624C948.082 8.736 948.61 8.896 949.106 9.104C949.602 9.312 950.002 9.608 950.306 9.992C950.626 10.376 950.786 10.904 950.786 11.576C950.786 12.504 950.394 13.184 949.61 13.616C948.826 14.032 947.858 14.24 946.706 14.24ZM956.915 14.24C955.843 14.24 954.955 14 954.251 13.52C953.563 13.024 953.051 12.392 952.715 11.624C952.395 10.84 952.235 10.032 952.235 9.2C952.235 8.288 952.411 7.456 952.763 6.704C953.131 5.936 953.659 5.328 954.347 4.88C955.051 4.432 955.891 4.208 956.867 4.208C958.115 4.208 959.155 4.616 959.987 5.432C960.819 6.232 961.267 7.312 961.331 8.672C961.347 8.736 961.355 8.832 961.355 8.96C961.355 9.072 961.355 9.176 961.355 9.272H953.723C953.723 10.408 953.995 11.304 954.539 11.96C955.099 12.6 955.883 12.92 956.891 12.92C957.643 12.92 958.283 12.728 958.811 12.344C959.355 11.96 959.691 11.44 959.819 10.784H961.331C961.171 11.776 960.699 12.6 959.915 13.256C959.131 13.912 958.131 14.24 956.915 14.24ZM953.771 8.432H959.771C959.771 8.096 959.675 7.696 959.483 7.232C959.307 6.768 959.003 6.368 958.571 6.032C958.155 5.68 957.579 5.504 956.843 5.504C956.171 5.504 955.619 5.648 955.187 5.936C954.755 6.224 954.427 6.592 954.203 7.04C953.979 7.488 953.835 7.952 953.771 8.432ZM967.191 14.24C966.263 14.24 965.495 14.048 964.887 13.664C964.295 13.264 963.847 12.8 963.543 12.272C963.255 11.744 963.111 11.272 963.111 10.856H964.599C964.599 10.872 964.607 10.992 964.623 11.216C964.655 11.44 964.743 11.696 964.887 11.984C965.031 12.272 965.279 12.528 965.631 12.752C965.983 12.96 966.495 13.064 967.167 13.064C967.887 13.064 968.503 12.936 969.015 12.68C969.543 12.424 969.799 12.024 969.783 11.48C969.783 11.016 969.623 10.664 969.303 10.424C968.999 10.168 968.599 9.976 968.103 9.848C967.607 9.704 967.087 9.568 966.543 9.44C965.999 9.312 965.479 9.152 964.983 8.96C964.503 8.752 964.111 8.464 963.807 8.096C963.503 7.728 963.351 7.216 963.351 6.56C963.351 5.76 963.711 5.128 964.431 4.664C965.151 4.184 966.071 3.944 967.191 3.944C967.815 3.944 968.447 4.048 969.087 4.256C969.727 4.448 970.255 4.792 970.671 5.288C971.087 5.768 971.279 6.448 971.247 7.328H969.807C969.839 6.72 969.703 6.264 969.399 5.96C969.095 5.656 968.727 5.456 968.295 5.36C967.879 5.248 967.495 5.192 967.143 5.192C966.455 5.192 965.887 5.32 965.439 5.576C965.007 5.832 964.791 6.192 964.791 6.656C964.791 7.104 964.943 7.448 965.247 7.688C965.567 7.912 965.967 8.096 966.447 8.24C966.943 8.368 967.463 8.496 968.007 8.624C968.567 8.736 969.095 8.896 969.591 9.104C970.087 9.312 970.487 9.608 970.791 9.992C971.111 10.376 971.271 10.904 971.271 11.576C971.271 12.504 970.879 13.184 970.095 13.616C969.311 14.032 968.343 14.24 967.191 14.24ZM982.086 14.216C981.19 14.216 980.454 14 979.878 13.568C979.302 13.12 978.87 12.52 978.582 11.768C978.31 11.016 978.174 10.16 978.174 9.2C978.174 7.728 978.494 6.52 979.134 5.576C979.79 4.616 980.774 4.136 982.086 4.136C982.758 4.136 983.318 4.256 983.766 4.496C984.23 4.72 984.598 5 984.87 5.336C985.158 5.672 985.366 5.992 985.494 6.296H985.518V4.232H987.102V14H985.782L985.542 12.104H985.494C985.35 12.424 985.142 12.752 984.87 13.088C984.598 13.408 984.23 13.68 983.766 13.904C983.318 14.112 982.758 14.216 982.086 14.216ZM982.686 12.848C983.678 12.848 984.39 12.52 984.822 11.864C985.27 11.208 985.494 10.328 985.494 9.224C985.494 8.04 985.262 7.136 984.798 6.512C984.35 5.888 983.646 5.576 982.686 5.576C981.63 5.576 980.87 5.928 980.406 6.632C979.958 7.32 979.734 8.176 979.734 9.2C979.734 10.272 979.966 11.152 980.43 11.84C980.894 12.512 981.646 12.848 982.686 12.848ZM991.344 14C990.752 14 990.336 13.84 990.096 13.52C989.872 13.2 989.76 12.76 989.76 12.2V5.384H988.224V4.232C988.736 4.232 989.112 4.192 989.352 4.112C989.608 4.016 989.768 3.792 989.832 3.44C989.896 3.088 989.928 2.512 989.928 1.712H991.248V4.232H993.504V5.384H991.248V12.752H993.528V14H991.344ZM1000.24 18.368V17.12H1001.58C1001.9 17.12 1002.17 17.032 1002.38 16.856C1002.58 16.696 1002.84 16.296 1003.14 15.656L1004.18 13.424L1000.34 4.232H1001.94L1004.94 11.792L1008.14 4.232H1009.77L1004.54 15.872C1004.22 16.592 1003.93 17.128 1003.67 17.48C1003.43 17.848 1003.16 18.088 1002.86 18.2C1002.55 18.312 1002.17 18.368 1001.7 18.368H1000.24ZM1015.02 14.24C1013.45 14.24 1012.27 13.776 1011.49 12.848C1010.72 11.904 1010.34 10.704 1010.34 9.248C1010.32 7.776 1010.7 6.576 1011.49 5.648C1012.29 4.704 1013.46 4.224 1015.02 4.208C1016.55 4.208 1017.71 4.672 1018.5 5.6C1019.3 6.512 1019.7 7.728 1019.7 9.248C1019.7 10.192 1019.53 11.04 1019.19 11.792C1018.86 12.544 1018.34 13.144 1017.66 13.592C1016.97 14.024 1016.09 14.24 1015.02 14.24ZM1015.02 12.896C1015.85 12.896 1016.49 12.712 1016.94 12.344C1017.4 11.976 1017.72 11.512 1017.9 10.952C1018.09 10.376 1018.18 9.792 1018.18 9.2C1018.18 8.608 1018.09 8.024 1017.9 7.448C1017.72 6.872 1017.4 6.4 1016.94 6.032C1016.49 5.664 1015.85 5.48 1015.02 5.48C1014.18 5.48 1013.54 5.664 1013.07 6.032C1012.62 6.4 1012.3 6.872 1012.11 7.448C1011.94 8.024 1011.85 8.608 1011.85 9.2C1011.85 9.792 1011.94 10.376 1012.11 10.952C1012.3 11.512 1012.62 11.976 1013.07 12.344C1013.54 12.712 1014.18 12.896 1015.02 12.896ZM1025.19 14.24C1024.39 14.24 1023.74 14.096 1023.25 13.808C1022.77 13.52 1022.4 13.136 1022.14 12.656C1021.89 12.16 1021.71 11.624 1021.62 11.048C1021.54 10.456 1021.5 9.864 1021.5 9.272V4.232H1023.03V9.296C1023.03 9.936 1023.1 10.528 1023.22 11.072C1023.35 11.616 1023.61 12.048 1023.99 12.368C1024.39 12.688 1024.97 12.848 1025.72 12.848C1026.44 12.848 1027 12.688 1027.4 12.368C1027.82 12.032 1028.12 11.6 1028.31 11.072C1028.5 10.544 1028.62 9.992 1028.65 9.416V4.232H1030.23V14H1028.91L1028.65 11.816H1028.6C1028.52 12.088 1028.35 12.416 1028.1 12.8C1027.84 13.184 1027.47 13.52 1026.99 13.808C1026.53 14.096 1025.93 14.24 1025.19 14.24ZM1032.5 14V4.232H1033.89L1034.06 6.8C1034.15 6.368 1034.34 5.952 1034.63 5.552C1034.92 5.152 1035.31 4.832 1035.81 4.592C1036.32 4.336 1036.95 4.216 1037.7 4.232H1038.16V5.936H1037.68C1036.66 5.936 1035.88 6.088 1035.35 6.392C1034.84 6.68 1034.49 7.088 1034.3 7.616C1034.12 8.144 1034.03 8.752 1034.03 9.44V14H1032.5ZM1046.11 14.072V5.384H1044.59V4.232H1046.11V2.072C1046.11 1.512 1046.22 1.072 1046.44 0.751999C1046.68 0.431999 1047.1 0.271999 1047.69 0.271999H1050.59V1.544H1047.67V4.232H1050.43V5.384H1047.67V14.072H1046.11ZM1053.45 3.176C1053.1 3.176 1052.86 3.088 1052.73 2.912C1052.62 2.72 1052.56 2.48 1052.56 2.192C1052.56 1.952 1052.62 1.744 1052.73 1.568C1052.86 1.376 1053.1 1.28 1053.45 1.28C1053.8 1.28 1054.03 1.376 1054.14 1.568C1054.27 1.744 1054.34 1.952 1054.34 2.192C1054.34 2.48 1054.27 2.72 1054.14 2.912C1054.03 3.088 1053.8 3.176 1053.45 3.176ZM1052.68 14V4.232H1054.22V14H1052.68ZM1056.47 14V4.232H1057.79L1058.05 6.656H1058.1C1058.11 6.576 1058.19 6.408 1058.31 6.152C1058.44 5.896 1058.63 5.624 1058.89 5.336C1059.16 5.032 1059.51 4.776 1059.95 4.568C1060.38 4.344 1060.93 4.232 1061.6 4.232C1062.45 4.232 1063.11 4.384 1063.59 4.688C1064.09 4.992 1064.46 5.4 1064.7 5.912C1064.94 6.408 1065.09 6.944 1065.15 7.52C1065.22 8.096 1065.25 8.648 1065.25 9.176V14H1063.76V9.176C1063.76 8.12 1063.58 7.264 1063.21 6.608C1062.86 5.952 1062.15 5.624 1061.1 5.624C1060.38 5.624 1059.79 5.8 1059.32 6.152C1058.87 6.488 1058.55 6.944 1058.34 7.52C1058.15 8.08 1058.05 8.696 1058.05 9.368V14H1056.47ZM1069.58 18.032V16.568H1074.45V11.84H1074.4C1074.37 11.92 1074.28 12.088 1074.14 12.344C1074.01 12.6 1073.8 12.872 1073.51 13.16C1073.24 13.448 1072.88 13.704 1072.43 13.928C1072 14.136 1071.47 14.24 1070.85 14.24C1069.91 14.24 1069.11 14.024 1068.47 13.592C1067.85 13.144 1067.38 12.544 1067.06 11.792C1066.74 11.04 1066.58 10.192 1066.58 9.248C1066.58 7.776 1066.94 6.576 1067.66 5.648C1068.39 4.704 1069.47 4.232 1070.87 4.232C1071.53 4.232 1072.07 4.344 1072.51 4.568C1072.95 4.776 1073.31 5.032 1073.56 5.336C1073.83 5.64 1074.03 5.92 1074.16 6.176C1074.29 6.432 1074.37 6.6 1074.4 6.68H1074.45V4.232H1076.03V15.68C1076.03 16.448 1075.89 17.032 1075.6 17.432C1075.31 17.832 1074.79 18.032 1074.04 18.032H1069.58ZM1071.19 12.872C1072.15 12.872 1072.92 12.552 1073.51 11.912C1074.11 11.256 1074.4 10.368 1074.4 9.248C1074.4 8.144 1074.12 7.272 1073.56 6.632C1073 5.976 1072.26 5.648 1071.33 5.648C1070.56 5.648 1069.94 5.824 1069.46 6.176C1068.99 6.512 1068.65 6.952 1068.43 7.496C1068.2 8.04 1068.09 8.624 1068.09 9.248C1068.09 9.856 1068.19 10.44 1068.38 11C1068.59 11.544 1068.91 11.992 1069.36 12.344C1069.83 12.696 1070.43 12.872 1071.19 12.872ZM1082.52 14.24C1081.44 14.24 1080.56 14 1079.85 13.52C1079.16 13.024 1078.65 12.392 1078.32 11.624C1078 10.84 1077.84 10.032 1077.84 9.2C1077.84 8.288 1078.01 7.456 1078.36 6.704C1078.73 5.936 1079.26 5.328 1079.95 4.88C1080.65 4.432 1081.49 4.208 1082.47 4.208C1083.72 4.208 1084.76 4.616 1085.59 5.432C1086.42 6.232 1086.87 7.312 1086.93 8.672C1086.95 8.736 1086.96 8.832 1086.96 8.96C1086.96 9.072 1086.96 9.176 1086.96 9.272H1079.32C1079.32 10.408 1079.6 11.304 1080.14 11.96C1080.7 12.6 1081.48 12.92 1082.49 12.92C1083.24 12.92 1083.88 12.728 1084.41 12.344C1084.96 11.96 1085.29 11.44 1085.42 10.784H1086.93C1086.77 11.776 1086.3 12.6 1085.52 13.256C1084.73 13.912 1083.73 14.24 1082.52 14.24ZM1079.37 8.432H1085.37C1085.37 8.096 1085.28 7.696 1085.08 7.232C1084.91 6.768 1084.6 6.368 1084.17 6.032C1083.76 5.68 1083.18 5.504 1082.44 5.504C1081.77 5.504 1081.22 5.648 1080.79 5.936C1080.36 6.224 1080.03 6.592 1079.8 7.04C1079.58 7.488 1079.44 7.952 1079.37 8.432ZM1089.14 14V4.232H1090.54L1090.7 6.8C1090.8 6.368 1090.99 5.952 1091.28 5.552C1091.57 5.152 1091.96 4.832 1092.46 4.592C1092.97 4.336 1093.6 4.216 1094.35 4.232H1094.81V5.936H1094.33C1093.3 5.936 1092.53 6.088 1092 6.392C1091.49 6.68 1091.14 7.088 1090.94 7.616C1090.77 8.144 1090.68 8.752 1090.68 9.44V14H1089.14ZM1104.29 14C1103.7 14 1103.28 13.84 1103.04 13.52C1102.82 13.2 1102.71 12.76 1102.71 12.2V5.384H1101.17V4.232C1101.68 4.232 1102.06 4.192 1102.3 4.112C1102.55 4.016 1102.71 3.792 1102.78 3.44C1102.84 3.088 1102.87 2.512 1102.87 1.712H1104.19V4.232H1106.45V5.384H1104.19V12.752H1106.47V14H1104.29ZM1109.7 3.176C1109.35 3.176 1109.11 3.088 1108.98 2.912C1108.87 2.72 1108.81 2.48 1108.81 2.192C1108.81 1.952 1108.87 1.744 1108.98 1.568C1109.11 1.376 1109.35 1.28 1109.7 1.28C1110.05 1.28 1110.28 1.376 1110.39 1.568C1110.52 1.744 1110.59 1.952 1110.59 2.192C1110.59 2.48 1110.52 2.72 1110.39 2.912C1110.28 3.088 1110.05 3.176 1109.7 3.176ZM1108.93 14V4.232H1110.47V14H1108.93ZM1118.16 14.24C1117.54 14.24 1117 14.136 1116.56 13.928C1116.12 13.704 1115.77 13.448 1115.5 13.16C1115.23 12.872 1115.02 12.6 1114.88 12.344C1114.75 12.088 1114.67 11.92 1114.64 11.84H1114.59V18.032H1113V4.232H1114.32L1114.59 6.68H1114.64C1114.67 6.6 1114.75 6.432 1114.88 6.176C1115 5.92 1115.2 5.64 1115.45 5.336C1115.72 5.032 1116.08 4.776 1116.51 4.568C1116.96 4.344 1117.51 4.232 1118.16 4.232C1119.11 4.232 1119.89 4.448 1120.52 4.88C1121.16 5.312 1121.64 5.912 1121.96 6.68C1122.29 7.432 1122.46 8.296 1122.46 9.272C1122.46 10.728 1122.09 11.92 1121.36 12.848C1120.62 13.776 1119.56 14.24 1118.16 14.24ZM1117.85 12.872C1118.6 12.872 1119.2 12.696 1119.65 12.344C1120.12 11.992 1120.44 11.544 1120.64 11C1120.84 10.44 1120.95 9.856 1120.95 9.248C1120.95 8.624 1120.84 8.04 1120.61 7.496C1120.39 6.952 1120.04 6.512 1119.56 6.176C1119.09 5.824 1118.48 5.648 1117.71 5.648C1116.78 5.648 1116.04 5.976 1115.48 6.632C1114.92 7.272 1114.64 8.144 1114.64 9.248C1114.64 10.368 1114.93 11.256 1115.52 11.912C1116.12 12.552 1116.89 12.872 1117.85 12.872ZM1128 14.24C1127.07 14.24 1126.3 14.048 1125.69 13.664C1125.1 13.264 1124.65 12.8 1124.35 12.272C1124.06 11.744 1123.92 11.272 1123.92 10.856H1125.4C1125.4 10.872 1125.41 10.992 1125.43 11.216C1125.46 11.44 1125.55 11.696 1125.69 11.984C1125.84 12.272 1126.08 12.528 1126.44 12.752C1126.79 12.96 1127.3 13.064 1127.97 13.064C1128.69 13.064 1129.31 12.936 1129.82 12.68C1130.35 12.424 1130.6 12.024 1130.59 11.48C1130.59 11.016 1130.43 10.664 1130.11 10.424C1129.8 10.168 1129.4 9.976 1128.91 9.848C1128.41 9.704 1127.89 9.568 1127.35 9.44C1126.8 9.312 1126.28 9.152 1125.79 8.96C1125.31 8.752 1124.92 8.464 1124.61 8.096C1124.31 7.728 1124.16 7.216 1124.16 6.56C1124.16 5.76 1124.52 5.128 1125.24 4.664C1125.96 4.184 1126.88 3.944 1128 3.944C1128.62 3.944 1129.25 4.048 1129.89 4.256C1130.53 4.448 1131.06 4.792 1131.48 5.288C1131.89 5.768 1132.08 6.448 1132.05 7.328H1130.61C1130.64 6.72 1130.51 6.264 1130.2 5.96C1129.9 5.656 1129.53 5.456 1129.1 5.36C1128.68 5.248 1128.3 5.192 1127.95 5.192C1127.26 5.192 1126.69 5.32 1126.24 5.576C1125.81 5.832 1125.6 6.192 1125.6 6.656C1125.6 7.104 1125.75 7.448 1126.05 7.688C1126.37 7.912 1126.77 8.096 1127.25 8.24C1127.75 8.368 1128.27 8.496 1128.81 8.624C1129.37 8.736 1129.9 8.896 1130.4 9.104C1130.89 9.312 1131.29 9.608 1131.6 9.992C1131.92 10.376 1132.08 10.904 1132.08 11.576C1132.08 12.504 1131.68 13.184 1130.9 13.616C1130.12 14.032 1129.15 14.24 1128 14.24ZM1142.89 14.216C1141.99 14.216 1141.26 14 1140.68 13.568C1140.11 13.12 1139.67 12.52 1139.39 11.768C1139.11 11.016 1138.98 10.16 1138.98 9.2C1138.98 7.728 1139.3 6.52 1139.94 5.576C1140.59 4.616 1141.58 4.136 1142.89 4.136C1143.56 4.136 1144.12 4.256 1144.57 4.496C1145.03 4.72 1145.4 5 1145.67 5.336C1145.96 5.672 1146.17 5.992 1146.3 6.296H1146.32V4.232H1147.91V14H1146.59L1146.35 12.104H1146.3C1146.15 12.424 1145.95 12.752 1145.67 13.088C1145.4 13.408 1145.03 13.68 1144.57 13.904C1144.12 14.112 1143.56 14.216 1142.89 14.216ZM1143.49 12.848C1144.48 12.848 1145.19 12.52 1145.63 11.864C1146.07 11.208 1146.3 10.328 1146.3 9.224C1146.3 8.04 1146.07 7.136 1145.6 6.512C1145.15 5.888 1144.45 5.576 1143.49 5.576C1142.43 5.576 1141.67 5.928 1141.21 6.632C1140.76 7.32 1140.54 8.176 1140.54 9.2C1140.54 10.272 1140.77 11.152 1141.23 11.84C1141.7 12.512 1142.45 12.848 1143.49 12.848ZM1149.7 14V4.232H1151.02L1151.29 6.656H1151.33C1151.35 6.576 1151.42 6.408 1151.55 6.152C1151.68 5.896 1151.87 5.624 1152.13 5.336C1152.4 5.032 1152.75 4.776 1153.18 4.568C1153.61 4.344 1154.17 4.232 1154.84 4.232C1155.69 4.232 1156.35 4.384 1156.83 4.688C1157.33 4.992 1157.69 5.4 1157.93 5.912C1158.17 6.408 1158.33 6.944 1158.39 7.52C1158.45 8.096 1158.49 8.648 1158.49 9.176V14H1157V9.176C1157 8.12 1156.81 7.264 1156.45 6.608C1156.09 5.952 1155.39 5.624 1154.33 5.624C1153.61 5.624 1153.02 5.8 1152.56 6.152C1152.11 6.488 1151.78 6.944 1151.57 7.52C1151.38 8.08 1151.29 8.696 1151.29 9.368V14H1149.7ZM1164.85 14.24C1163.91 14.24 1163.12 14.024 1162.48 13.592C1161.85 13.16 1161.38 12.568 1161.06 11.816C1160.76 11.048 1160.6 10.192 1160.6 9.248C1160.6 7.792 1160.96 6.592 1161.68 5.648C1162.4 4.704 1163.47 4.232 1164.88 4.232C1165.53 4.232 1166.08 4.344 1166.51 4.568C1166.96 4.776 1167.32 5.032 1167.59 5.336C1167.86 5.64 1168.06 5.92 1168.19 6.176C1168.32 6.432 1168.4 6.6 1168.43 6.68H1168.48L1168.5 0.487999H1170.08V14H1168.74L1168.5 11.84H1168.45C1168.42 11.92 1168.33 12.088 1168.19 12.344C1168.04 12.6 1167.83 12.872 1167.54 13.16C1167.27 13.448 1166.91 13.704 1166.46 13.928C1166.03 14.136 1165.49 14.24 1164.85 14.24ZM1165.24 12.872C1166.18 12.872 1166.95 12.552 1167.54 11.912C1168.15 11.256 1168.45 10.368 1168.45 9.248C1168.45 8.144 1168.17 7.272 1167.61 6.632C1167.05 5.976 1166.3 5.648 1165.36 5.648C1164.6 5.648 1163.99 5.824 1163.51 6.176C1163.03 6.512 1162.68 6.952 1162.45 7.496C1162.23 8.04 1162.12 8.624 1162.12 9.248C1162.12 9.856 1162.22 10.44 1162.43 11C1162.64 11.544 1162.96 11.992 1163.41 12.344C1163.86 12.696 1164.47 12.872 1165.24 12.872ZM1180.2 18.032V16.568H1185.07V11.84H1185.03C1184.99 11.92 1184.91 12.088 1184.76 12.344C1184.63 12.6 1184.43 12.872 1184.14 13.16C1183.87 13.448 1183.51 13.704 1183.06 13.928C1182.63 14.136 1182.1 14.24 1181.47 14.24C1180.53 14.24 1179.74 14.024 1179.1 13.592C1178.47 13.144 1178 12.544 1177.68 11.792C1177.36 11.04 1177.2 10.192 1177.2 9.248C1177.2 7.776 1177.56 6.576 1178.28 5.648C1179.02 4.704 1180.09 4.232 1181.5 4.232C1182.15 4.232 1182.7 4.344 1183.13 4.568C1183.58 4.776 1183.93 5.032 1184.19 5.336C1184.46 5.64 1184.66 5.92 1184.79 6.176C1184.91 6.432 1184.99 6.6 1185.03 6.68H1185.07V4.232H1186.66V15.68C1186.66 16.448 1186.51 17.032 1186.23 17.432C1185.94 17.832 1185.42 18.032 1184.67 18.032H1180.2ZM1181.81 12.872C1182.77 12.872 1183.55 12.552 1184.14 11.912C1184.73 11.256 1185.03 10.368 1185.03 9.248C1185.03 8.144 1184.75 7.272 1184.19 6.632C1183.63 5.976 1182.88 5.648 1181.95 5.648C1181.19 5.648 1180.56 5.824 1180.08 6.176C1179.62 6.512 1179.27 6.952 1179.05 7.496C1178.83 8.04 1178.71 8.624 1178.71 9.248C1178.71 9.856 1178.81 10.44 1179 11C1179.21 11.544 1179.54 11.992 1179.99 12.344C1180.45 12.696 1181.06 12.872 1181.81 12.872ZM1193.14 14.24C1192.07 14.24 1191.18 14 1190.48 13.52C1189.79 13.024 1189.28 12.392 1188.94 11.624C1188.62 10.84 1188.46 10.032 1188.46 9.2C1188.46 8.288 1188.64 7.456 1188.99 6.704C1189.36 5.936 1189.89 5.328 1190.57 4.88C1191.28 4.432 1192.12 4.208 1193.09 4.208C1194.34 4.208 1195.38 4.616 1196.21 5.432C1197.05 6.232 1197.49 7.312 1197.56 8.672C1197.57 8.736 1197.58 8.832 1197.58 8.96C1197.58 9.072 1197.58 9.176 1197.58 9.272H1189.95C1189.95 10.408 1190.22 11.304 1190.77 11.96C1191.33 12.6 1192.11 12.92 1193.12 12.92C1193.87 12.92 1194.51 12.728 1195.04 12.344C1195.58 11.96 1195.92 11.44 1196.05 10.784H1197.56C1197.4 11.776 1196.93 12.6 1196.14 13.256C1195.36 13.912 1194.36 14.24 1193.14 14.24ZM1190 8.432H1196C1196 8.096 1195.9 7.696 1195.71 7.232C1195.53 6.768 1195.23 6.368 1194.8 6.032C1194.38 5.68 1193.81 5.504 1193.07 5.504C1192.4 5.504 1191.85 5.648 1191.41 5.936C1190.98 6.224 1190.65 6.592 1190.43 7.04C1190.21 7.488 1190.06 7.952 1190 8.432ZM1201.98 14C1201.39 14 1200.97 13.84 1200.73 13.52C1200.51 13.2 1200.39 12.76 1200.39 12.2V5.384H1198.86V4.232C1199.37 4.232 1199.75 4.192 1199.99 4.112C1200.24 4.016 1200.4 3.792 1200.47 3.44C1200.53 3.088 1200.56 2.512 1200.56 1.712H1201.88V4.232H1204.14V5.384H1201.88V12.752H1204.16V14H1201.98ZM1214.31 14C1213.71 14 1213.3 13.84 1213.06 13.52C1212.83 13.2 1212.72 12.76 1212.72 12.2V5.384H1211.19V4.232C1211.7 4.232 1212.07 4.192 1212.31 4.112C1212.57 4.016 1212.73 3.792 1212.79 3.44C1212.86 3.088 1212.89 2.512 1212.89 1.712H1214.21V4.232H1216.47V5.384H1214.21V12.752H1216.49V14H1214.31ZM1218.59 14V0.487999H1220.15V6.656H1220.19C1220.23 6.576 1220.3 6.408 1220.41 6.152C1220.54 5.896 1220.73 5.624 1220.99 5.336C1221.24 5.032 1221.59 4.776 1222.02 4.568C1222.45 4.344 1222.99 4.232 1223.65 4.232C1224.48 4.232 1225.15 4.392 1225.64 4.712C1226.14 5.016 1226.51 5.424 1226.75 5.936C1227 6.432 1227.17 6.968 1227.25 7.544C1227.33 8.12 1227.37 8.664 1227.37 9.176V14H1225.86V9.176C1225.86 8.12 1225.67 7.264 1225.31 6.608C1224.95 5.952 1224.26 5.624 1223.22 5.624C1222.48 5.624 1221.89 5.8 1221.44 6.152C1220.99 6.488 1220.67 6.944 1220.46 7.52C1220.25 8.08 1220.15 8.696 1220.15 9.368V14H1218.59ZM1233.81 14.24C1232.73 14.24 1231.85 14 1231.14 13.52C1230.45 13.024 1229.94 12.392 1229.61 11.624C1229.29 10.84 1229.13 10.032 1229.13 9.2C1229.13 8.288 1229.3 7.456 1229.65 6.704C1230.02 5.936 1230.55 5.328 1231.24 4.88C1231.94 4.432 1232.78 4.208 1233.76 4.208C1235.01 4.208 1236.05 4.616 1236.88 5.432C1237.71 6.232 1238.16 7.312 1238.22 8.672C1238.24 8.736 1238.25 8.832 1238.25 8.96C1238.25 9.072 1238.25 9.176 1238.25 9.272H1230.61C1230.61 10.408 1230.89 11.304 1231.43 11.96C1231.99 12.6 1232.77 12.92 1233.78 12.92C1234.53 12.92 1235.17 12.728 1235.7 12.344C1236.25 11.96 1236.58 11.44 1236.71 10.784H1238.22C1238.06 11.776 1237.59 12.6 1236.81 13.256C1236.02 13.912 1235.02 14.24 1233.81 14.24ZM1230.66 8.432H1236.66C1236.66 8.096 1236.57 7.696 1236.37 7.232C1236.2 6.768 1235.89 6.368 1235.46 6.032C1235.05 5.68 1234.47 5.504 1233.73 5.504C1233.06 5.504 1232.51 5.648 1232.08 5.936C1231.65 6.224 1231.32 6.592 1231.09 7.04C1230.87 7.488 1230.73 7.952 1230.66 8.432ZM1240.19 14V4.232H1241.51L1241.61 6.656H1241.66C1241.69 6.544 1241.76 6.36 1241.87 6.104C1241.99 5.832 1242.16 5.552 1242.4 5.264C1242.64 4.976 1242.95 4.736 1243.34 4.544C1243.72 4.336 1244.21 4.232 1244.8 4.232C1245.7 4.232 1246.35 4.48 1246.77 4.976C1247.2 5.472 1247.49 6.032 1247.63 6.656H1247.68C1247.73 6.544 1247.82 6.36 1247.95 6.104C1248.07 5.832 1248.27 5.552 1248.52 5.264C1248.78 4.976 1249.11 4.736 1249.51 4.544C1249.92 4.336 1250.43 4.232 1251.02 4.232C1251.64 4.232 1252.15 4.36 1252.55 4.616C1252.95 4.856 1253.26 5.184 1253.47 5.6C1253.69 6 1253.85 6.424 1253.95 6.872C1254.04 7.32 1254.1 7.752 1254.11 8.168C1254.13 8.584 1254.14 8.92 1254.14 9.176V14H1252.79V9.176C1252.79 8.92 1252.78 8.592 1252.75 8.192C1252.71 7.792 1252.63 7.4 1252.51 7.016C1252.38 6.616 1252.15 6.288 1251.83 6.032C1251.53 5.76 1251.09 5.624 1250.51 5.624C1249.87 5.624 1249.36 5.8 1248.98 6.152C1248.59 6.504 1248.31 6.968 1248.14 7.544C1247.96 8.104 1247.87 8.712 1247.87 9.368V14H1246.53V9.176C1246.53 8.92 1246.51 8.592 1246.48 8.192C1246.45 7.792 1246.37 7.4 1246.24 7.016C1246.11 6.616 1245.89 6.288 1245.57 6.032C1245.27 5.76 1244.83 5.624 1244.25 5.624C1243.61 5.624 1243.1 5.8 1242.71 6.152C1242.33 6.504 1242.05 6.968 1241.87 7.544C1241.7 8.104 1241.61 8.712 1241.61 9.368V14H1240.19ZM510.407 50.24C509.463 50.24 508.671 50.024 508.031 49.592C507.407 49.16 506.935 48.568 506.615 47.816C506.311 47.048 506.159 46.192 506.159 45.248C506.159 43.792 506.519 42.592 507.239 41.648C507.959 40.704 509.023 40.232 510.431 40.232C511.087 40.232 511.631 40.344 512.063 40.568C512.511 40.776 512.871 41.032 513.143 41.336C513.415 41.64 513.615 41.92 513.743 42.176C513.871 42.432 513.951 42.6 513.983 42.68H514.031L514.055 36.488H515.639V50H514.295L514.055 47.84H514.007C513.975 47.92 513.887 48.088 513.743 48.344C513.599 48.6 513.383 48.872 513.095 49.16C512.823 49.448 512.463 49.704 512.015 49.928C511.583 50.136 511.047 50.24 510.407 50.24ZM510.791 48.872C511.735 48.872 512.503 48.552 513.095 47.912C513.703 47.256 514.007 46.368 514.007 45.248C514.007 44.144 513.727 43.272 513.167 42.632C512.607 41.976 511.855 41.648 510.911 41.648C510.159 41.648 509.543 41.824 509.063 42.176C508.583 42.512 508.231 42.952 508.007 43.496C507.783 44.04 507.671 44.624 507.671 45.248C507.671 45.856 507.775 46.44 507.983 47C508.191 47.544 508.519 47.992 508.967 48.344C509.415 48.696 510.023 48.872 510.791 48.872ZM522.102 50.24C521.03 50.24 520.142 50 519.438 49.52C518.75 49.024 518.238 48.392 517.902 47.624C517.582 46.84 517.422 46.032 517.422 45.2C517.422 44.288 517.598 43.456 517.95 42.704C518.318 41.936 518.846 41.328 519.534 40.88C520.238 40.432 521.078 40.208 522.054 40.208C523.302 40.208 524.342 40.616 525.174 41.432C526.006 42.232 526.454 43.312 526.518 44.672C526.534 44.736 526.542 44.832 526.542 44.96C526.542 45.072 526.542 45.176 526.542 45.272H518.91C518.91 46.408 519.182 47.304 519.726 47.96C520.286 48.6 521.07 48.92 522.078 48.92C522.83 48.92 523.47 48.728 523.998 48.344C524.542 47.96 524.878 47.44 525.006 46.784H526.518C526.358 47.776 525.886 48.6 525.102 49.256C524.318 49.912 523.318 50.24 522.102 50.24ZM518.958 44.432H524.958C524.958 44.096 524.862 43.696 524.67 43.232C524.494 42.768 524.19 42.368 523.758 42.032C523.342 41.68 522.766 41.504 522.03 41.504C521.358 41.504 520.806 41.648 520.374 41.936C519.942 42.224 519.614 42.592 519.39 43.04C519.166 43.488 519.022 43.952 518.958 44.432ZM528.826 50V36.488H530.338V50H528.826ZM533.722 39.176C533.37 39.176 533.13 39.088 533.002 38.912C532.89 38.72 532.834 38.48 532.834 38.192C532.834 37.952 532.89 37.744 533.002 37.568C533.13 37.376 533.37 37.28 533.722 37.28C534.074 37.28 534.306 37.376 534.418 37.568C534.546 37.744 534.61 37.952 534.61 38.192C534.61 38.48 534.546 38.72 534.418 38.912C534.306 39.088 534.074 39.176 533.722 39.176ZM532.954 50V40.232H534.49V50H532.954ZM543.888 40.232H545.424V40.568L541.728 50H539.544L535.824 40.568V40.232H537.36L540.624 48.728H540.672L543.888 40.232ZM551.071 50.24C549.999 50.24 549.111 50 548.407 49.52C547.719 49.024 547.207 48.392 546.871 47.624C546.551 46.84 546.391 46.032 546.391 45.2C546.391 44.288 546.567 43.456 546.919 42.704C547.287 41.936 547.815 41.328 548.503 40.88C549.207 40.432 550.047 40.208 551.023 40.208C552.271 40.208 553.311 40.616 554.143 41.432C554.975 42.232 555.423 43.312 555.487 44.672C555.503 44.736 555.511 44.832 555.511 44.96C555.511 45.072 555.511 45.176 555.511 45.272H547.879C547.879 46.408 548.151 47.304 548.695 47.96C549.255 48.6 550.039 48.92 551.047 48.92C551.799 48.92 552.439 48.728 552.967 48.344C553.511 47.96 553.847 47.44 553.975 46.784H555.487C555.327 47.776 554.855 48.6 554.071 49.256C553.287 49.912 552.287 50.24 551.071 50.24ZM547.927 44.432H553.927C553.927 44.096 553.831 43.696 553.639 43.232C553.463 42.768 553.159 42.368 552.727 42.032C552.311 41.68 551.735 41.504 550.999 41.504C550.327 41.504 549.775 41.648 549.343 41.936C548.911 42.224 548.583 42.592 548.359 43.04C548.135 43.488 547.991 43.952 547.927 44.432ZM557.699 50V40.232H559.091L559.259 42.8C559.355 42.368 559.547 41.952 559.835 41.552C560.123 41.152 560.515 40.832 561.011 40.592C561.523 40.336 562.155 40.216 562.907 40.232H563.363V41.936H562.883C561.859 41.936 561.083 42.088 560.555 42.392C560.043 42.68 559.691 43.088 559.499 43.616C559.323 44.144 559.235 44.752 559.235 45.44V50H557.699ZM568.977 50.24C567.905 50.24 567.017 50 566.313 49.52C565.625 49.024 565.113 48.392 564.777 47.624C564.457 46.84 564.297 46.032 564.297 45.2C564.297 44.288 564.473 43.456 564.825 42.704C565.193 41.936 565.721 41.328 566.409 40.88C567.113 40.432 567.953 40.208 568.929 40.208C570.177 40.208 571.217 40.616 572.049 41.432C572.881 42.232 573.329 43.312 573.393 44.672C573.409 44.736 573.417 44.832 573.417 44.96C573.417 45.072 573.417 45.176 573.417 45.272H565.785C565.785 46.408 566.057 47.304 566.601 47.96C567.161 48.6 567.945 48.92 568.953 48.92C569.705 48.92 570.345 48.728 570.873 48.344C571.417 47.96 571.753 47.44 571.881 46.784H573.393C573.233 47.776 572.761 48.6 571.977 49.256C571.193 49.912 570.193 50.24 568.977 50.24ZM565.833 44.432H571.833C571.833 44.096 571.737 43.696 571.545 43.232C571.369 42.768 571.065 42.368 570.633 42.032C570.217 41.68 569.641 41.504 568.905 41.504C568.233 41.504 567.681 41.648 567.249 41.936C566.817 42.224 566.489 42.592 566.265 43.04C566.041 43.488 565.897 43.952 565.833 44.432ZM579.805 50.24C578.861 50.24 578.069 50.024 577.429 49.592C576.805 49.16 576.333 48.568 576.013 47.816C575.709 47.048 575.557 46.192 575.557 45.248C575.557 43.792 575.917 42.592 576.637 41.648C577.357 40.704 578.421 40.232 579.829 40.232C580.485 40.232 581.029 40.344 581.461 40.568C581.909 40.776 582.269 41.032 582.541 41.336C582.813 41.64 583.013 41.92 583.141 42.176C583.269 42.432 583.349 42.6 583.381 42.68H583.429L583.453 36.488H585.037V50H583.693L583.453 47.84H583.405C583.373 47.92 583.285 48.088 583.141 48.344C582.997 48.6 582.781 48.872 582.493 49.16C582.221 49.448 581.861 49.704 581.413 49.928C580.981 50.136 580.445 50.24 579.805 50.24ZM580.189 48.872C581.133 48.872 581.901 48.552 582.493 47.912C583.101 47.256 583.405 46.368 583.405 45.248C583.405 44.144 583.125 43.272 582.565 42.632C582.005 41.976 581.253 41.648 580.309 41.648C579.557 41.648 578.941 41.824 578.461 42.176C577.981 42.512 577.629 42.952 577.405 43.496C577.181 44.04 577.069 44.624 577.069 45.248C577.069 45.856 577.173 46.44 577.381 47C577.589 47.544 577.917 47.992 578.365 48.344C578.813 48.696 579.421 48.872 580.189 48.872ZM595.204 50C594.612 50 594.196 49.84 593.956 49.52C593.732 49.2 593.62 48.76 593.62 48.2V41.384H592.084V40.232C592.596 40.232 592.972 40.192 593.212 40.112C593.468 40.016 593.628 39.792 593.692 39.44C593.756 39.088 593.788 38.512 593.788 37.712H595.108V40.232H597.364V41.384H595.108V48.752H597.388V50H595.204ZM603.5 50.24C601.932 50.24 600.756 49.776 599.972 48.848C599.204 47.904 598.82 46.704 598.82 45.248C598.804 43.776 599.188 42.576 599.972 41.648C600.772 40.704 601.948 40.224 603.5 40.208C605.036 40.208 606.196 40.672 606.98 41.6C607.78 42.512 608.18 43.728 608.18 45.248C608.18 46.192 608.012 47.04 607.676 47.792C607.34 48.544 606.828 49.144 606.14 49.592C605.452 50.024 604.572 50.24 603.5 50.24ZM603.5 48.896C604.332 48.896 604.972 48.712 605.42 48.344C605.884 47.976 606.204 47.512 606.38 46.952C606.572 46.376 606.668 45.792 606.668 45.2C606.668 44.608 606.572 44.024 606.38 43.448C606.204 42.872 605.884 42.4 605.42 42.032C604.972 41.664 604.332 41.48 603.5 41.48C602.668 41.48 602.02 41.664 601.556 42.032C601.108 42.4 600.788 42.872 600.596 43.448C600.42 44.024 600.332 44.608 600.332 45.2C600.332 45.792 600.42 46.376 600.596 46.952C600.788 47.512 601.108 47.976 601.556 48.344C602.02 48.712 602.668 48.896 603.5 48.896ZM614.764 54.368V53.12H616.108C616.428 53.12 616.692 53.032 616.9 52.856C617.108 52.696 617.364 52.296 617.668 51.656L618.7 49.424L614.86 40.232H616.468L619.468 47.792L622.66 40.232H624.292L619.06 51.872C618.74 52.592 618.452 53.128 618.196 53.48C617.956 53.848 617.684 54.088 617.38 54.2C617.076 54.312 616.692 54.368 616.228 54.368H614.764ZM629.539 50.24C627.971 50.24 626.795 49.776 626.011 48.848C625.243 47.904 624.859 46.704 624.859 45.248C624.843 43.776 625.227 42.576 626.011 41.648C626.811 40.704 627.987 40.224 629.539 40.208C631.075 40.208 632.235 40.672 633.019 41.6C633.819 42.512 634.219 43.728 634.219 45.248C634.219 46.192 634.051 47.04 633.715 47.792C633.379 48.544 632.867 49.144 632.179 49.592C631.491 50.024 630.611 50.24 629.539 50.24ZM629.539 48.896C630.371 48.896 631.011 48.712 631.459 48.344C631.923 47.976 632.243 47.512 632.419 46.952C632.611 46.376 632.707 45.792 632.707 45.2C632.707 44.608 632.611 44.024 632.419 43.448C632.243 42.872 631.923 42.4 631.459 42.032C631.011 41.664 630.371 41.48 629.539 41.48C628.707 41.48 628.059 41.664 627.595 42.032C627.147 42.4 626.827 42.872 626.635 43.448C626.459 44.024 626.371 44.608 626.371 45.2C626.371 45.792 626.459 46.376 626.635 46.952C626.827 47.512 627.147 47.976 627.595 48.344C628.059 48.712 628.707 48.896 629.539 48.896ZM639.716 50.24C638.916 50.24 638.268 50.096 637.772 49.808C637.292 49.52 636.924 49.136 636.668 48.656C636.412 48.16 636.236 47.624 636.14 47.048C636.06 46.456 636.02 45.864 636.02 45.272V40.232H637.556V45.296C637.556 45.936 637.62 46.528 637.748 47.072C637.876 47.616 638.132 48.048 638.516 48.368C638.916 48.688 639.492 48.848 640.244 48.848C640.964 48.848 641.524 48.688 641.924 48.368C642.34 48.032 642.644 47.6 642.836 47.072C643.028 46.544 643.14 45.992 643.172 45.416V40.232H644.756V50H643.436L643.172 47.816H643.124C643.044 48.088 642.876 48.416 642.62 48.8C642.364 49.184 641.996 49.52 641.516 49.808C641.052 50.096 640.452 50.24 639.716 50.24ZM647.019 50V40.232H648.411L648.579 42.8C648.675 42.368 648.867 41.952 649.155 41.552C649.443 41.152 649.835 40.832 650.331 40.592C650.843 40.336 651.475 40.216 652.227 40.232H652.683V41.936H652.203C651.179 41.936 650.403 42.088 649.875 42.392C649.363 42.68 649.011 43.088 648.819 43.616C648.643 44.144 648.555 44.752 648.555 45.44V50H647.019ZM672.101 43.232C672.101 45.008 671.765 46.392 671.093 47.384C670.421 48.36 669.477 49.04 668.261 49.424C667.045 49.808 665.621 50 663.989 50H660.413V36.488H663.989C665.621 36.488 667.045 36.744 668.261 37.256C669.477 37.752 670.421 38.496 671.093 39.488C671.765 40.48 672.101 41.728 672.101 43.232ZM661.949 48.68H664.325C665.573 48.68 666.653 48.544 667.565 48.272C668.493 47.984 669.205 47.448 669.701 46.664C670.213 45.88 670.469 44.736 670.469 43.232C670.469 41.392 669.909 40.04 668.789 39.176C667.669 38.296 666.181 37.856 664.325 37.856H661.949V48.68ZM678.242 50.24C676.674 50.24 675.498 49.776 674.714 48.848C673.946 47.904 673.562 46.704 673.562 45.248C673.546 43.776 673.93 42.576 674.714 41.648C675.514 40.704 676.69 40.224 678.242 40.208C679.778 40.208 680.938 40.672 681.722 41.6C682.522 42.512 682.922 43.728 682.922 45.248C682.922 46.192 682.754 47.04 682.418 47.792C682.082 48.544 681.57 49.144 680.882 49.592C680.194 50.024 679.314 50.24 678.242 50.24ZM678.242 48.896C679.074 48.896 679.714 48.712 680.162 48.344C680.626 47.976 680.946 47.512 681.122 46.952C681.314 46.376 681.41 45.792 681.41 45.2C681.41 44.608 681.314 44.024 681.122 43.448C680.946 42.872 680.626 42.4 680.162 42.032C679.714 41.664 679.074 41.48 678.242 41.48C677.41 41.48 676.762 41.664 676.298 42.032C675.85 42.4 675.53 42.872 675.338 43.448C675.162 44.024 675.074 44.608 675.074 45.2C675.074 45.792 675.162 46.376 675.338 46.952C675.53 47.512 675.85 47.976 676.298 48.344C676.762 48.712 677.41 48.896 678.242 48.896ZM689.211 50.24C687.643 50.24 686.467 49.776 685.683 48.848C684.915 47.904 684.531 46.704 684.531 45.248C684.515 43.776 684.899 42.576 685.683 41.648C686.483 40.704 687.659 40.224 689.211 40.208C690.747 40.208 691.907 40.672 692.691 41.6C693.491 42.512 693.891 43.728 693.891 45.248C693.891 46.192 693.723 47.04 693.387 47.792C693.051 48.544 692.539 49.144 691.851 49.592C691.163 50.024 690.283 50.24 689.211 50.24ZM689.211 48.896C690.043 48.896 690.683 48.712 691.131 48.344C691.595 47.976 691.915 47.512 692.091 46.952C692.283 46.376 692.379 45.792 692.379 45.2C692.379 44.608 692.283 44.024 692.091 43.448C691.915 42.872 691.595 42.4 691.131 42.032C690.683 41.664 690.043 41.48 689.211 41.48C688.379 41.48 687.731 41.664 687.267 42.032C686.819 42.4 686.499 42.872 686.307 43.448C686.131 44.024 686.043 44.608 686.043 45.2C686.043 45.792 686.131 46.376 686.307 46.952C686.499 47.512 686.819 47.976 687.267 48.344C687.731 48.712 688.379 48.896 689.211 48.896ZM696.004 50V40.232H697.396L697.564 42.8C697.66 42.368 697.852 41.952 698.14 41.552C698.428 41.152 698.82 40.832 699.316 40.592C699.828 40.336 700.46 40.216 701.212 40.232H701.668V41.936H701.188C700.164 41.936 699.388 42.088 698.86 42.392C698.348 42.68 697.996 43.088 697.804 43.616C697.628 44.144 697.54 44.752 697.54 45.44V50H696.004ZM714.245 50.312C713.301 50.312 712.389 50.16 711.509 49.856C710.645 49.536 709.933 49.048 709.373 48.392C708.813 47.72 708.525 46.856 708.509 45.8H710.045C710.045 45.848 710.061 45.984 710.093 46.208C710.125 46.432 710.205 46.696 710.333 47C710.477 47.288 710.701 47.584 711.005 47.888C711.309 48.176 711.733 48.416 712.277 48.608C712.821 48.8 713.517 48.896 714.365 48.896C715.309 48.896 716.029 48.76 716.525 48.488C717.021 48.2 717.357 47.88 717.533 47.528C717.725 47.16 717.821 46.872 717.821 46.664C717.837 46.104 717.685 45.656 717.365 45.32C717.045 44.984 716.613 44.712 716.069 44.504C715.541 44.296 714.957 44.112 714.317 43.952C713.677 43.792 713.037 43.624 712.397 43.448C711.773 43.256 711.197 43.016 710.669 42.728C710.141 42.424 709.725 42.032 709.421 41.552C709.117 41.072 708.981 40.456 709.013 39.704C709.045 38.984 709.293 38.368 709.757 37.856C710.221 37.344 710.837 36.952 711.605 36.68C712.389 36.392 713.277 36.248 714.269 36.248C715.181 36.248 716.021 36.416 716.789 36.752C717.573 37.072 718.197 37.56 718.661 38.216C719.125 38.872 719.341 39.688 719.309 40.664H717.797C717.813 40.056 717.693 39.56 717.437 39.176C717.197 38.776 716.877 38.472 716.477 38.264C716.077 38.056 715.661 37.912 715.229 37.832C714.813 37.736 714.445 37.688 714.125 37.688C713.117 37.688 712.285 37.888 711.629 38.288C710.973 38.688 710.637 39.208 710.621 39.848C710.621 40.408 710.781 40.856 711.101 41.192C711.421 41.528 711.845 41.8 712.373 42.008C712.917 42.2 713.509 42.368 714.149 42.512C714.789 42.656 715.421 42.824 716.045 43.016C716.685 43.192 717.269 43.424 717.797 43.712C718.325 44 718.741 44.392 719.045 44.888C719.349 45.384 719.485 46.016 719.453 46.784C719.421 47.536 719.173 48.176 718.709 48.704C718.245 49.216 717.629 49.616 716.861 49.904C716.093 50.176 715.221 50.312 714.245 50.312ZM723.758 50C723.166 50 722.75 49.84 722.51 49.52C722.286 49.2 722.174 48.76 722.174 48.2V41.384H720.638V40.232C721.15 40.232 721.526 40.192 721.766 40.112C722.022 40.016 722.182 39.792 722.246 39.44C722.31 39.088 722.342 38.512 722.342 37.712H723.662V40.232H725.918V41.384H723.662V48.752H725.942V50H723.758ZM732.079 50.24C731.007 50.24 730.119 50 729.415 49.52C728.727 49.024 728.215 48.392 727.879 47.624C727.559 46.84 727.399 46.032 727.399 45.2C727.399 44.288 727.575 43.456 727.927 42.704C728.295 41.936 728.823 41.328 729.511 40.88C730.215 40.432 731.055 40.208 732.031 40.208C733.279 40.208 734.319 40.616 735.151 41.432C735.983 42.232 736.431 43.312 736.495 44.672C736.511 44.736 736.519 44.832 736.519 44.96C736.519 45.072 736.519 45.176 736.519 45.272H728.887C728.887 46.408 729.159 47.304 729.703 47.96C730.263 48.6 731.047 48.92 732.055 48.92C732.807 48.92 733.447 48.728 733.975 48.344C734.519 47.96 734.855 47.44 734.983 46.784H736.495C736.335 47.776 735.863 48.6 735.079 49.256C734.295 49.912 733.295 50.24 732.079 50.24ZM728.935 44.432H734.935C734.935 44.096 734.839 43.696 734.647 43.232C734.471 42.768 734.167 42.368 733.735 42.032C733.319 41.68 732.743 41.504 732.007 41.504C731.335 41.504 730.783 41.648 730.351 41.936C729.919 42.224 729.591 42.592 729.367 43.04C729.143 43.488 728.999 43.952 728.935 44.432ZM743.915 50.24C743.291 50.24 742.755 50.136 742.307 49.928C741.875 49.704 741.523 49.448 741.251 49.16C740.979 48.872 740.771 48.6 740.627 48.344C740.499 48.088 740.419 47.92 740.387 47.84H740.339V54.032H738.755V40.232H740.075L740.339 42.68H740.387C740.419 42.6 740.499 42.432 740.627 42.176C740.755 41.92 740.947 41.64 741.203 41.336C741.475 41.032 741.827 40.776 742.259 40.568C742.707 40.344 743.259 40.232 743.915 40.232C744.859 40.232 745.643 40.448 746.267 40.88C746.907 41.312 747.387 41.912 747.707 42.68C748.043 43.432 748.211 44.296 748.211 45.272C748.211 46.728 747.843 47.92 747.107 48.848C746.371 49.776 745.307 50.24 743.915 50.24ZM743.603 48.872C744.355 48.872 744.955 48.696 745.403 48.344C745.867 47.992 746.195 47.544 746.387 47C746.595 46.44 746.699 45.856 746.699 45.248C746.699 44.624 746.587 44.04 746.363 43.496C746.139 42.952 745.787 42.512 745.307 42.176C744.843 41.824 744.227 41.648 743.459 41.648C742.531 41.648 741.787 41.976 741.227 42.632C740.667 43.272 740.387 44.144 740.387 45.248C740.387 46.368 740.683 47.256 741.275 47.912C741.867 48.552 742.643 48.872 743.603 48.872Z" fill="#00668B"/>
</svg>
