<svg width="802" height="180" viewBox="0 0 802 180" fill="none" xmlns="http://www.w3.org/2000/svg">
<path d="M3.18 34.8984V1.11844H16.26C20.66 1.11844 24.1 1.87844 26.58 3.39844C29.1 4.87844 30.36 7.47844 30.36 11.1984C30.36 14.0784 29.68 16.3584 28.32 18.0384C27 19.7184 25.16 20.5584 22.8 20.5584C24.04 20.5584 24.98 20.8584 25.62 21.4584C26.26 22.0184 26.7 22.7184 26.94 23.5584C27.22 24.3984 27.42 25.2784 27.54 26.1984C27.7 27.0784 27.9 27.8784 28.14 28.5984C28.38 29.2784 28.78 29.7584 29.34 30.0384C29.94 30.2784 30.82 30.1584 31.98 29.6784V33.6984C31.06 34.4984 30 35.0184 28.8 35.2584C27.6 35.5384 26.44 35.4784 25.32 35.0784C24.2 34.6784 23.26 33.8984 22.5 32.7384C21.78 31.5384 21.42 29.8984 21.42 27.8184C21.42 26.4584 21.32 25.3184 21.12 24.3984C20.96 23.4784 20.54 22.7584 19.86 22.2384C19.18 21.7184 18.1 21.3784 16.62 21.2184C15.14 21.0584 13.08 21.0584 10.44 21.2184V34.8984H3.18ZM10.44 16.0584H15.6C17.48 16.0584 19.02 15.9984 20.22 15.8784C21.46 15.7584 22.38 15.4184 22.98 14.8584C23.58 14.2584 23.88 13.2384 23.88 11.7984C23.88 10.1584 23.52 9.01844 22.8 8.37844C22.08 7.69844 21 7.29844 19.56 7.17844C18.16 7.05844 16.44 6.99844 14.4 6.99844H10.44V16.0584ZM44.1844 29.0784H62.5444V34.8984H37.1044V1.11844H61.9444V7.29844H44.1844V14.8584H57.6244V20.7384H44.1844V29.0784ZM65.7675 34.8984L76.0275 1.11844H87.9675L98.5275 34.8984H90.7875L88.2675 25.8984H76.0275L73.5675 34.8984H65.7675ZM82.1475 4.11844L77.5875 20.3184H86.7075L82.1475 4.11844ZM134.054 17.9784C134.054 22.4184 133.174 25.8784 131.414 28.3584C129.654 30.7984 127.154 32.4984 123.914 33.4584C120.714 34.4184 116.954 34.8984 112.634 34.8984H103.154V1.11844H112.634C116.954 1.11844 120.714 1.75844 123.914 3.03844C127.154 4.27844 129.654 6.13844 131.414 8.61844C133.174 11.0984 134.054 14.2184 134.054 17.9784ZM110.294 28.9584H114.794C117.154 28.9584 119.194 28.6784 120.914 28.1184C122.674 27.5184 124.014 26.4384 124.934 24.8784C125.894 23.2784 126.374 20.9584 126.374 17.9184C126.374 14.3984 125.334 11.7584 123.254 9.99844C121.174 8.23844 118.354 7.35844 114.794 7.35844H110.294V28.9584ZM146.426 34.8984V23.1384L134.906 1.11844H143.066L150.146 16.8984L157.286 1.11844H165.386L153.626 23.0784V34.8984H146.426ZM176.909 7.29844V1.11844H203.309V7.29844H193.709V34.8984H186.449V7.29844H176.909ZM222.609 35.7384C217.089 35.7384 212.869 34.1584 209.949 30.9984C207.029 27.7984 205.569 23.4984 205.569 18.0984C205.569 14.5384 206.189 11.4584 207.429 8.85844C208.709 6.21844 210.609 4.17844 213.129 2.73844C215.649 1.25844 218.809 0.518437 222.609 0.518437C228.169 0.518437 232.389 2.11844 235.269 5.31844C238.149 8.47844 239.589 12.7384 239.589 18.0984C239.589 21.5784 238.949 24.6584 237.669 27.3384C236.389 29.9784 234.489 32.0384 231.969 33.5184C229.449 34.9984 226.329 35.7384 222.609 35.7384ZM222.549 28.7184C224.749 28.7184 226.589 28.2584 228.069 27.3384C229.549 26.3784 230.649 25.0984 231.369 23.4984C232.089 21.8984 232.449 20.0984 232.449 18.0984C232.449 16.0984 232.089 14.2784 231.369 12.6384C230.649 10.9984 229.549 9.69844 228.069 8.73844C226.589 7.77844 224.749 7.29844 222.549 7.29844C219.309 7.29844 216.849 8.31844 215.169 10.3584C213.489 12.3584 212.649 14.9384 212.649 18.0984C212.649 20.0584 213.009 21.8384 213.729 23.4384C214.449 25.0384 215.529 26.3184 216.969 27.2784C218.449 28.2384 220.309 28.7184 222.549 28.7184ZM271.463 35.5584C268.143 35.5584 265.243 34.8984 262.763 33.5784C260.283 32.2584 258.363 30.3184 257.003 27.7584C255.683 25.1584 255.063 21.9784 255.143 18.2184C255.223 14.3784 256.023 11.1584 257.543 8.55844C259.063 5.91844 261.103 3.91844 263.663 2.55844C266.263 1.19844 269.243 0.518437 272.603 0.518437C277.363 0.518437 281.003 1.51844 283.523 3.51844C286.043 5.51844 287.743 8.41844 288.623 12.2184L281.603 13.2984C281.243 11.7784 280.583 10.5784 279.623 9.69844C278.703 8.81844 277.623 8.19844 276.383 7.83844C275.143 7.47844 273.883 7.29844 272.603 7.29844C269.003 7.29844 266.383 8.25844 264.743 10.1784C263.143 12.0984 262.323 14.5984 262.283 17.6784C262.283 21.1984 263.243 23.8784 265.163 25.7184C267.123 27.5584 269.903 28.4784 273.503 28.4784C275.423 28.4784 277.243 28.0784 278.963 27.2784C280.723 26.4784 281.923 25.0584 282.563 23.0184H276.143V17.7984H289.283V34.8984H284.423L282.803 29.7984H282.683C282.003 31.2384 280.723 32.5584 278.843 33.7584C276.963 34.9584 274.503 35.5584 271.463 35.5584ZM311.537 28.7184V34.8984H295.517V28.7184H299.957V7.29844H295.517V1.11844H311.537V7.29844H307.157V28.7184H311.537ZM342.22 1.11844H350.14L339.34 34.8984H327.28L316.48 1.11844H324.4L333.28 31.8984L342.22 1.11844ZM361.88 29.0784H380.24V34.8984H354.8V1.11844H379.64V7.29844H361.88V14.8584H375.32V20.7384H361.88V29.0784ZM404.942 34.8984V23.1384L393.422 1.11844H401.582L408.662 16.8984L415.802 1.11844H423.902L412.142 23.0784V34.8984H404.942ZM440.285 35.7384C434.765 35.7384 430.545 34.1584 427.625 30.9984C424.705 27.7984 423.245 23.4984 423.245 18.0984C423.245 14.5384 423.865 11.4584 425.105 8.85844C426.385 6.21844 428.285 4.17844 430.805 2.73844C433.325 1.25844 436.485 0.518437 440.285 0.518437C445.845 0.518437 450.065 2.11844 452.945 5.31844C455.825 8.47844 457.265 12.7384 457.265 18.0984C457.265 21.5784 456.625 24.6584 455.345 27.3384C454.065 29.9784 452.165 32.0384 449.645 33.5184C447.125 34.9984 444.005 35.7384 440.285 35.7384ZM440.225 28.7184C442.425 28.7184 444.265 28.2584 445.745 27.3384C447.225 26.3784 448.325 25.0984 449.045 23.4984C449.765 21.8984 450.125 20.0984 450.125 18.0984C450.125 16.0984 449.765 14.2784 449.045 12.6384C448.325 10.9984 447.225 9.69844 445.745 8.73844C444.265 7.77844 442.425 7.29844 440.225 7.29844C436.985 7.29844 434.525 8.31844 432.845 10.3584C431.165 12.3584 430.325 14.9384 430.325 18.0984C430.325 20.0584 430.685 21.8384 431.405 23.4384C432.125 25.0384 433.205 26.3184 434.645 27.2784C436.125 28.2384 437.985 28.7184 440.225 28.7184ZM477.908 35.7384C472.988 35.7384 469.248 34.4184 466.688 31.7784C464.168 29.0984 462.908 25.3384 462.908 20.4984V1.11844H470.648V20.4384C470.648 22.7984 471.028 24.5784 471.788 25.7784C472.588 26.9784 473.548 27.7984 474.668 28.2384C475.788 28.6384 476.868 28.8384 477.908 28.8384C479.108 28.8384 480.268 28.6384 481.388 28.2384C482.508 27.7984 483.428 26.9784 484.148 25.7784C484.868 24.5784 485.228 22.7984 485.228 20.4384V1.11844H492.968V20.4984C492.968 25.4184 491.708 29.1984 489.188 31.8384C486.708 34.4384 482.948 35.7384 477.908 35.7384ZM499.176 34.8984V1.11844H512.256C516.656 1.11844 520.096 1.87844 522.576 3.39844C525.096 4.87844 526.356 7.47844 526.356 11.1984C526.356 14.0784 525.676 16.3584 524.316 18.0384C522.996 19.7184 521.156 20.5584 518.796 20.5584C520.036 20.5584 520.976 20.8584 521.616 21.4584C522.256 22.0184 522.696 22.7184 522.936 23.5584C523.216 24.3984 523.416 25.2784 523.536 26.1984C523.696 27.0784 523.896 27.8784 524.136 28.5984C524.376 29.2784 524.776 29.7584 525.336 30.0384C525.936 30.2784 526.816 30.1584 527.976 29.6784V33.6984C527.056 34.4984 525.996 35.0184 524.796 35.2584C523.596 35.5384 522.436 35.4784 521.316 35.0784C520.196 34.6784 519.256 33.8984 518.496 32.7384C517.776 31.5384 517.416 29.8984 517.416 27.8184C517.416 26.4584 517.316 25.3184 517.116 24.3984C516.956 23.4784 516.536 22.7584 515.856 22.2384C515.176 21.7184 514.096 21.3784 512.616 21.2184C511.136 21.0584 509.076 21.0584 506.436 21.2184V34.8984H499.176ZM506.436 16.0584H511.596C513.476 16.0584 515.016 15.9984 516.216 15.8784C517.456 15.7584 518.376 15.4184 518.976 14.8584C519.576 14.2584 519.876 13.2384 519.876 11.7984C519.876 10.1584 519.516 9.01844 518.796 8.37844C518.076 7.69844 516.996 7.29844 515.556 7.17844C514.156 7.05844 512.436 6.99844 510.396 6.99844H506.436V16.0584ZM553.02 34.8984H545.76V1.11844H553.02V15.0384H567.54V1.11844H574.74V34.8984H567.54V20.5584H553.02V34.8984ZM596.027 35.7384C590.507 35.7384 586.287 34.1584 583.367 30.9984C580.447 27.7984 578.987 23.4984 578.987 18.0984C578.987 14.5384 579.607 11.4584 580.847 8.85844C582.127 6.21844 584.027 4.17844 586.547 2.73844C589.067 1.25844 592.227 0.518437 596.027 0.518437C601.587 0.518437 605.807 2.11844 608.687 5.31844C611.567 8.47844 613.007 12.7384 613.007 18.0984C613.007 21.5784 612.367 24.6584 611.087 27.3384C609.807 29.9784 607.907 32.0384 605.387 33.5184C602.867 34.9984 599.747 35.7384 596.027 35.7384ZM595.967 28.7184C598.167 28.7184 600.007 28.2584 601.487 27.3384C602.967 26.3784 604.067 25.0984 604.787 23.4984C605.507 21.8984 605.867 20.0984 605.867 18.0984C605.867 16.0984 605.507 14.2784 604.787 12.6384C604.067 10.9984 602.967 9.69844 601.487 8.73844C600.007 7.77844 598.167 7.29844 595.967 7.29844C592.727 7.29844 590.267 8.31844 588.587 10.3584C586.907 12.3584 586.067 14.9384 586.067 18.0984C586.067 20.0584 586.427 21.8384 587.147 23.4384C587.867 25.0384 588.947 26.3184 590.387 27.2784C591.867 28.2384 593.727 28.7184 595.967 28.7184ZM633.65 35.7384C628.73 35.7384 624.99 34.4184 622.43 31.7784C619.91 29.0984 618.65 25.3384 618.65 20.4984V1.11844H626.39V20.4384C626.39 22.7984 626.77 24.5784 627.53 25.7784C628.33 26.9784 629.29 27.7984 630.41 28.2384C631.53 28.6384 632.61 28.8384 633.65 28.8384C634.85 28.8384 636.01 28.6384 637.13 28.2384C638.25 27.7984 639.17 26.9784 639.89 25.7784C640.61 24.5784 640.97 22.7984 640.97 20.4384V1.11844H648.71V20.4984C648.71 25.4184 647.45 29.1984 644.93 31.8384C642.45 34.4384 638.69 35.7384 633.65 35.7384ZM668.478 35.5584C666.598 35.5584 664.758 35.3384 662.958 34.8984C661.158 34.4584 659.518 33.7584 658.038 32.7984C656.558 31.8384 655.378 30.5984 654.498 29.0784C653.658 27.5584 653.238 25.7184 653.238 23.5584H660.498C660.498 23.7584 660.578 24.1584 660.738 24.7584C660.898 25.3184 661.258 25.9384 661.818 26.6184C662.378 27.2584 663.238 27.8184 664.398 28.2984C665.558 28.7384 667.098 28.9584 669.018 28.9584C670.778 28.9584 672.218 28.6784 673.338 28.1184C674.498 27.5184 675.098 26.6584 675.138 25.5384C675.138 24.5784 674.738 23.8184 673.938 23.2584C673.178 22.6984 672.158 22.2384 670.878 21.8784C669.598 21.4784 668.178 21.1184 666.618 20.7984C665.098 20.4784 663.578 20.0784 662.058 19.5984C660.578 19.1184 659.218 18.4784 657.978 17.6784C656.738 16.8784 655.758 15.8584 655.038 14.6184C654.358 13.3384 654.078 11.7184 654.198 9.75844C654.398 6.87844 655.778 4.61844 658.338 2.97844C660.898 1.33844 664.378 0.518437 668.778 0.518437C671.218 0.518437 673.498 0.958437 675.618 1.83844C677.738 2.67844 679.458 3.97844 680.778 5.73844C682.098 7.49844 682.758 9.71844 682.758 12.3984H675.738C675.738 10.9584 675.298 9.87844 674.418 9.15844C673.538 8.43844 672.478 7.95844 671.238 7.71844C670.038 7.43844 668.958 7.29844 667.998 7.29844C666.238 7.29844 664.778 7.57844 663.618 8.13844C662.498 8.65844 661.938 9.49844 661.938 10.6584C661.938 11.6584 662.318 12.4584 663.078 13.0584C663.878 13.6584 664.938 14.1384 666.258 14.4984C667.578 14.8584 668.998 15.1984 670.518 15.5184C672.078 15.7984 673.618 16.1584 675.138 16.5984C676.698 17.0384 678.098 17.6584 679.338 18.4584C680.578 19.2184 681.558 20.2384 682.278 21.5184C682.998 22.7584 683.298 24.3784 683.178 26.3784C682.978 29.2584 681.538 31.5184 678.858 33.1584C676.178 34.7584 672.718 35.5584 668.478 35.5584ZM696.098 29.0784H714.458V34.8984H689.018V1.11844H713.858V7.29844H696.098V14.8584H709.538V20.7384H696.098V29.0784ZM733.342 35.5584C731.462 35.5584 729.622 35.3384 727.822 34.8984C726.022 34.4584 724.382 33.7584 722.902 32.7984C721.422 31.8384 720.242 30.5984 719.362 29.0784C718.522 27.5584 718.102 25.7184 718.102 23.5584H725.362C725.362 23.7584 725.442 24.1584 725.602 24.7584C725.762 25.3184 726.122 25.9384 726.682 26.6184C727.242 27.2584 728.102 27.8184 729.262 28.2984C730.422 28.7384 731.962 28.9584 733.882 28.9584C735.642 28.9584 737.082 28.6784 738.202 28.1184C739.362 27.5184 739.962 26.6584 740.002 25.5384C740.002 24.5784 739.602 23.8184 738.802 23.2584C738.042 22.6984 737.022 22.2384 735.742 21.8784C734.462 21.4784 733.042 21.1184 731.482 20.7984C729.962 20.4784 728.442 20.0784 726.922 19.5984C725.442 19.1184 724.082 18.4784 722.842 17.6784C721.602 16.8784 720.622 15.8584 719.902 14.6184C719.222 13.3384 718.942 11.7184 719.062 9.75844C719.262 6.87844 720.642 4.61844 723.202 2.97844C725.762 1.33844 729.242 0.518437 733.642 0.518437C736.082 0.518437 738.362 0.958437 740.482 1.83844C742.602 2.67844 744.322 3.97844 745.642 5.73844C746.962 7.49844 747.622 9.71844 747.622 12.3984H740.602C740.602 10.9584 740.162 9.87844 739.282 9.15844C738.402 8.43844 737.342 7.95844 736.102 7.71844C734.902 7.43844 733.822 7.29844 732.862 7.29844C731.102 7.29844 729.642 7.57844 728.482 8.13844C727.362 8.65844 726.802 9.49844 726.802 10.6584C726.802 11.6584 727.182 12.4584 727.942 13.0584C728.742 13.6584 729.802 14.1384 731.122 14.4984C732.442 14.8584 733.862 15.1984 735.382 15.5184C736.942 15.7984 738.482 16.1584 740.002 16.5984C741.562 17.0384 742.962 17.6584 744.202 18.4584C745.442 19.2184 746.422 20.2384 747.142 21.5184C747.862 22.7584 748.162 24.3784 748.042 26.3784C747.842 29.2584 746.402 31.5184 743.722 33.1584C741.042 34.7584 737.582 35.5584 733.342 35.5584ZM798.821 35.0784C797.381 34.4384 796.001 33.7984 794.681 33.1584C793.401 32.4784 792.141 31.7584 790.901 30.9984C789.101 32.4784 787.101 33.5984 784.901 34.3584C782.701 35.0784 780.501 35.4184 778.301 35.3784C776.101 35.3784 774.081 34.9984 772.241 34.2384C770.401 33.4784 768.921 32.3584 767.801 30.8784C766.681 29.3584 766.121 27.4784 766.121 25.2384C766.121 23.5184 766.461 22.0984 767.141 20.9784C767.821 19.8584 768.621 18.9784 769.541 18.3384C770.501 17.6584 771.361 17.1584 772.121 16.8384C772.921 16.5184 773.421 16.3184 773.621 16.2384C773.501 16.0784 773.121 15.6784 772.481 15.0384C771.881 14.3584 771.301 13.4784 770.741 12.3984C770.181 11.2784 769.901 9.95844 769.901 8.43844C769.901 6.75844 770.361 5.33844 771.281 4.17844C772.201 3.01844 773.401 2.13844 774.881 1.53843C776.401 0.938435 777.981 0.618435 779.621 0.578436C781.301 0.538436 782.881 0.798437 784.361 1.35844C785.841 1.91844 787.041 2.77844 787.961 3.93844C788.921 5.09844 789.401 6.55844 789.401 8.31844C789.401 9.75844 789.061 11.0184 788.381 12.0984C787.741 13.1784 786.981 14.0784 786.101 14.7984C785.221 15.5184 784.441 16.0784 783.761 16.4784C783.081 16.8384 782.701 17.0384 782.621 17.0784C782.821 17.3584 783.421 17.9984 784.421 18.9984C785.421 19.9584 786.721 21.0984 788.321 22.4184C788.481 22.2184 788.721 21.7784 789.041 21.0984C789.401 20.4184 789.601 19.6784 789.641 18.8784C789.681 18.0384 789.281 17.2584 788.441 16.5384L794.561 12.6384C794.681 12.7584 794.961 13.2384 795.401 14.0784C795.881 14.9184 796.281 15.9984 796.601 17.3184C796.961 18.5984 797.041 20.0384 796.841 21.6384C796.681 23.1984 796.001 24.7784 794.801 26.3784C795.641 26.8984 796.561 27.4384 797.561 27.9984C798.601 28.5584 799.921 29.1584 801.521 29.7984L798.821 35.0784ZM778.601 13.7184C779.561 13.1984 780.541 12.5784 781.541 11.8584C782.541 11.0984 783.101 10.2784 783.221 9.39844C783.341 8.35844 783.061 7.55844 782.381 6.99844C781.701 6.43844 780.881 6.13844 779.921 6.09844C779.001 6.01844 778.161 6.23844 777.401 6.75844C776.681 7.27844 776.341 8.07844 776.381 9.15844C776.421 10.5984 777.161 12.1184 778.601 13.7184ZM785.261 26.8584C783.701 25.6584 782.301 24.4784 781.061 23.3184C779.861 22.1584 778.681 20.9184 777.521 19.5984C776.441 20.1184 775.441 20.7184 774.521 21.3984C773.641 22.0784 773.201 23.0784 773.201 24.3984C773.201 25.6784 773.621 26.7184 774.461 27.5184C775.301 28.2784 776.361 28.7984 777.641 29.0784C778.961 29.3184 780.301 29.2584 781.661 28.8984C783.021 28.5384 784.221 27.8584 785.261 26.8584ZM18 107.738C12.48 107.738 8.26 106.158 5.34 102.998C2.42 99.7984 0.96 95.4984 0.96 90.0984C0.96 86.5384 1.58 83.4584 2.82 80.8584C4.1 78.2184 6 76.1784 8.52 74.7384C11.04 73.2584 14.2 72.5184 18 72.5184C23.56 72.5184 27.78 74.1184 30.66 77.3184C33.54 80.4784 34.98 84.7384 34.98 90.0984C34.98 93.5784 34.34 96.6584 33.06 99.3384C31.78 101.978 29.88 104.038 27.36 105.518C24.84 106.998 21.72 107.738 18 107.738ZM17.94 100.718C20.14 100.718 21.98 100.258 23.46 99.3384C24.94 98.3784 26.04 97.0984 26.76 95.4984C27.48 93.8984 27.84 92.0984 27.84 90.0984C27.84 88.0984 27.48 86.2784 26.76 84.6384C26.04 82.9984 24.94 81.6984 23.46 80.7384C21.98 79.7784 20.14 79.2984 17.94 79.2984C14.7 79.2984 12.24 80.3184 10.56 82.3584C8.88 84.3584 8.04 86.9384 8.04 90.0984C8.04 92.0584 8.4 93.8384 9.12 95.4384C9.84 97.0384 10.92 98.3184 12.36 99.2784C13.84 100.238 15.7 100.718 17.94 100.718ZM47.7741 106.898H40.6941V73.1184H65.0541V79.2984H47.7741V86.3784H60.7941V92.1984H47.7741V106.898ZM76.5436 106.898H69.4636V73.1184H93.8236V79.2984H76.5436V86.3784H89.5636V92.1984H76.5436V106.898ZM115.013 100.718V106.898H98.9934V100.718H103.433V79.2984H98.9934V73.1184H115.013V79.2984H110.633V100.718H115.013ZM137.241 107.498C134.041 107.498 131.141 106.858 128.541 105.578C125.941 104.258 123.881 102.318 122.361 99.7584C120.841 97.1984 120.101 94.0184 120.141 90.2184C120.141 86.4584 120.901 83.2584 122.421 80.6184C123.941 77.9784 126.001 75.9784 128.601 74.6184C131.201 73.2184 134.141 72.5184 137.421 72.5184C140.661 72.5184 143.421 73.0984 145.701 74.2584C147.981 75.4184 149.761 76.9784 151.041 78.9384C152.361 80.8984 153.221 83.0584 153.621 85.4184H146.121C145.881 83.7384 145.281 82.4784 144.321 81.6384C143.361 80.7584 142.241 80.1584 140.961 79.8384C139.721 79.5184 138.541 79.3584 137.421 79.3584C134.101 79.3584 131.581 80.2584 129.861 82.0584C128.141 83.8584 127.281 86.3984 127.281 89.6784C127.281 93.1984 128.101 95.9184 129.741 97.8384C131.421 99.7584 133.961 100.718 137.361 100.718C138.521 100.718 139.741 100.538 141.021 100.178C142.301 99.8184 143.421 99.1784 144.381 98.2584C145.381 97.2984 146.001 95.9784 146.241 94.2984H153.801C153.361 96.7384 152.481 98.9584 151.161 100.958C149.841 102.918 148.021 104.498 145.701 105.698C143.381 106.898 140.561 107.498 137.241 107.498ZM165.649 101.078H184.009V106.898H158.569V73.1184H183.409V79.2984H165.649V86.8584H179.089V92.7384H165.649V101.078ZM199.771 106.898L210.031 73.1184H221.971L232.531 106.898H224.791L222.271 97.8984H210.031L207.571 106.898H199.771ZM216.151 76.1184L211.591 92.3184H220.711L216.151 76.1184ZM264.097 107.498C260.897 107.498 257.997 106.858 255.397 105.578C252.797 104.258 250.737 102.318 249.217 99.7584C247.697 97.1984 246.957 94.0184 246.997 90.2184C246.997 86.4584 247.757 83.2584 249.277 80.6184C250.797 77.9784 252.857 75.9784 255.457 74.6184C258.057 73.2184 260.997 72.5184 264.277 72.5184C267.517 72.5184 270.277 73.0984 272.557 74.2584C274.837 75.4184 276.617 76.9784 277.897 78.9384C279.217 80.8984 280.077 83.0584 280.477 85.4184H272.977C272.737 83.7384 272.137 82.4784 271.177 81.6384C270.217 80.7584 269.097 80.1584 267.817 79.8384C266.577 79.5184 265.397 79.3584 264.277 79.3584C260.957 79.3584 258.437 80.2584 256.717 82.0584C254.997 83.8584 254.137 86.3984 254.137 89.6784C254.137 93.1984 254.957 95.9184 256.597 97.8384C258.277 99.7584 260.817 100.718 264.217 100.718C265.377 100.718 266.597 100.538 267.877 100.178C269.157 99.8184 270.277 99.1784 271.237 98.2584C272.237 97.2984 272.857 95.9784 273.097 94.2984H280.657C280.217 96.7384 279.337 98.9584 278.017 100.958C276.697 102.918 274.877 104.498 272.557 105.698C270.237 106.898 267.417 107.498 264.097 107.498ZM286.025 106.898V73.1184H293.285V100.718H308.885V106.898H286.025ZM320.805 101.078H339.165V106.898H313.725V73.1184H338.565V79.2984H320.805V86.8584H334.245V92.7384H320.805V101.078ZM342.389 106.898L352.649 73.1184H364.589L375.149 106.898H367.409L364.889 97.8984H352.649L350.189 106.898H342.389ZM358.769 76.1184L354.209 92.3184H363.329L358.769 76.1184ZM402.215 73.1184H409.775V106.898H395.915L386.975 76.2984H386.855V106.898H379.355V73.1184H392.195L402.095 103.718H402.215V73.1184ZM426.284 79.2984V73.1184H452.684V79.2984H443.084V106.898H435.824V79.2984H426.284ZM471.984 107.738C466.464 107.738 462.244 106.158 459.324 102.998C456.404 99.7984 454.944 95.4984 454.944 90.0984C454.944 86.5384 455.564 83.4584 456.804 80.8584C458.084 78.2184 459.984 76.1784 462.504 74.7384C465.024 73.2584 468.184 72.5184 471.984 72.5184C477.544 72.5184 481.764 74.1184 484.644 77.3184C487.524 80.4784 488.964 84.7384 488.964 90.0984C488.964 93.5784 488.324 96.6584 487.044 99.3384C485.764 101.978 483.864 104.038 481.344 105.518C478.824 106.998 475.704 107.738 471.984 107.738ZM471.924 100.718C474.124 100.718 475.964 100.258 477.444 99.3384C478.924 98.3784 480.024 97.0984 480.744 95.4984C481.464 93.8984 481.824 92.0984 481.824 90.0984C481.824 88.0984 481.464 86.2784 480.744 84.6384C480.024 82.9984 478.924 81.6984 477.444 80.7384C475.964 79.7784 474.124 79.2984 471.924 79.2984C468.684 79.2984 466.224 80.3184 464.544 82.3584C462.864 84.3584 462.024 86.9384 462.024 90.0984C462.024 92.0584 462.384 93.8384 463.104 95.4384C463.824 97.0384 464.904 98.3184 466.344 99.2784C467.824 100.238 469.684 100.718 471.924 100.718ZM509.607 107.738C504.687 107.738 500.947 106.418 498.387 103.778C495.867 101.098 494.607 97.3384 494.607 92.4984V73.1184H502.347V92.4384C502.347 94.7984 502.727 96.5784 503.487 97.7784C504.287 98.9784 505.247 99.7984 506.367 100.238C507.487 100.638 508.567 100.838 509.607 100.838C510.807 100.838 511.967 100.638 513.087 100.238C514.207 99.7984 515.127 98.9784 515.847 97.7784C516.567 96.5784 516.927 94.7984 516.927 92.4384V73.1184H524.667V92.4984C524.667 97.4184 523.407 101.198 520.887 103.838C518.407 106.438 514.647 107.738 509.607 107.738ZM545.815 107.498C542.615 107.498 539.715 106.858 537.115 105.578C534.515 104.258 532.455 102.318 530.935 99.7584C529.415 97.1984 528.675 94.0184 528.715 90.2184C528.715 86.4584 529.475 83.2584 530.995 80.6184C532.515 77.9784 534.575 75.9784 537.175 74.6184C539.775 73.2184 542.715 72.5184 545.995 72.5184C549.235 72.5184 551.995 73.0984 554.275 74.2584C556.555 75.4184 558.335 76.9784 559.615 78.9384C560.935 80.8984 561.795 83.0584 562.195 85.4184H554.695C554.455 83.7384 553.855 82.4784 552.895 81.6384C551.935 80.7584 550.815 80.1584 549.535 79.8384C548.295 79.5184 547.115 79.3584 545.995 79.3584C542.675 79.3584 540.155 80.2584 538.435 82.0584C536.715 83.8584 535.855 86.3984 535.855 89.6784C535.855 93.1984 536.675 95.9184 538.315 97.8384C539.995 99.7584 542.535 100.718 545.935 100.718C547.095 100.718 548.315 100.538 549.595 100.178C550.875 99.8184 551.995 99.1784 552.955 98.2584C553.955 97.2984 554.575 95.9784 554.815 94.2984H562.375C561.935 96.7384 561.055 98.9584 559.735 100.958C558.415 102.918 556.595 104.498 554.275 105.698C551.955 106.898 549.135 107.498 545.815 107.498ZM574.523 106.898H567.263V73.1184H574.523V87.0384H589.043V73.1184H596.243V106.898H589.043V92.5584H574.523V106.898ZM615.911 96.0384H609.311C609.351 94.7984 609.771 93.6184 610.571 92.4984C611.411 91.3384 612.371 90.2184 613.451 89.1384C614.571 88.0584 615.571 86.9984 616.451 85.9584C617.331 84.8784 617.811 83.7784 617.891 82.6584C617.971 81.5784 617.671 80.6784 616.991 79.9584C616.351 79.2384 615.331 78.8784 613.931 78.8784C612.771 78.8784 611.871 79.0984 611.231 79.5384C610.631 79.9784 610.211 80.5384 609.971 81.2184C609.731 81.8584 609.591 82.5184 609.551 83.1984C609.511 83.8384 609.491 84.3384 609.491 84.6984H602.711C602.391 83.3784 602.331 82.0184 602.531 80.6184C602.771 79.2184 603.311 77.9184 604.151 76.7184C604.991 75.4784 606.171 74.4784 607.691 73.7184C609.211 72.9584 611.131 72.5784 613.451 72.5784C615.691 72.5784 617.691 72.9584 619.451 73.7184C621.211 74.4784 622.591 75.5384 623.591 76.8984C624.631 78.2584 625.151 79.8384 625.151 81.6384C625.151 83.1184 624.831 84.4184 624.191 85.5384C623.591 86.6184 622.831 87.5984 621.911 88.4784C620.991 89.3584 620.071 90.1984 619.151 90.9984C618.231 91.7584 617.451 92.5584 616.811 93.3984C616.211 94.1984 615.911 95.0784 615.911 96.0384ZM612.551 107.438C610.911 107.438 609.791 107.038 609.191 106.238C608.631 105.398 608.351 104.418 608.351 103.298C608.351 102.178 608.631 101.218 609.191 100.418C609.791 99.6184 610.911 99.2184 612.551 99.2184C614.151 99.2184 615.231 99.6184 615.791 100.418C616.351 101.218 616.631 102.178 616.631 103.298C616.631 104.498 616.351 105.498 615.791 106.298C615.231 107.058 614.151 107.438 612.551 107.438ZM3.18 178.898V145.118H17.16C18.24 145.118 19.54 145.198 21.06 145.358C22.58 145.478 24.06 145.818 25.5 146.378C26.98 146.898 28.2 147.758 29.16 148.958C30.12 150.158 30.6 151.838 30.6 153.998C30.6 155.278 30.34 156.478 29.82 157.598C29.34 158.678 28.42 159.578 27.06 160.298C25.7 160.978 23.78 161.378 21.3 161.498V161.738C24.18 161.818 26.4 162.218 27.96 162.938C29.56 163.658 30.66 164.618 31.26 165.818C31.9 166.978 32.22 168.278 32.22 169.718C32.22 171.518 31.88 172.998 31.2 174.158C30.52 175.278 29.62 176.178 28.5 176.858C27.38 177.498 26.14 177.958 24.78 178.238C23.46 178.518 22.14 178.698 20.82 178.778C19.54 178.858 18.36 178.898 17.28 178.898H3.18ZM10.26 158.738H16.2C17.44 158.738 18.6 158.678 19.68 158.558C20.8 158.438 21.7 158.118 22.38 157.598C23.1 157.038 23.46 156.118 23.46 154.838C23.46 153.598 23.12 152.718 22.44 152.198C21.76 151.638 20.86 151.298 19.74 151.178C18.66 151.058 17.5 150.998 16.26 150.998H10.26V158.738ZM10.32 173.078H16.62C18.06 173.078 19.4 173.018 20.64 172.898C21.88 172.738 22.88 172.358 23.64 171.758C24.4 171.118 24.78 170.098 24.78 168.698C24.78 167.298 24.38 166.278 23.58 165.638C22.82 164.998 21.8 164.598 20.52 164.438C19.28 164.278 17.94 164.198 16.5 164.198H10.32V173.078ZM52.3359 179.738C46.8159 179.738 42.5959 178.158 39.6759 174.998C36.7559 171.798 35.2959 167.498 35.2959 162.098C35.2959 158.538 35.9159 155.458 37.1559 152.858C38.4359 150.218 40.3359 148.178 42.8559 146.738C45.3759 145.258 48.5359 144.518 52.3359 144.518C57.8959 144.518 62.1159 146.118 64.9959 149.318C67.8759 152.478 69.3159 156.738 69.3159 162.098C69.3159 165.578 68.6759 168.658 67.3959 171.338C66.1159 173.978 64.2159 176.038 61.6959 177.518C59.1759 178.998 56.0559 179.738 52.3359 179.738ZM52.2759 172.718C54.4759 172.718 56.3159 172.258 57.7959 171.338C59.2759 170.378 60.3759 169.098 61.0959 167.498C61.8159 165.898 62.1759 164.098 62.1759 162.098C62.1759 160.098 61.8159 158.278 61.0959 156.638C60.3759 154.998 59.2759 153.698 57.7959 152.738C56.3159 151.778 54.4759 151.298 52.2759 151.298C49.0359 151.298 46.5759 152.318 44.8959 154.358C43.2159 156.358 42.3759 158.938 42.3759 162.098C42.3759 164.058 42.7359 165.838 43.4559 167.438C44.1759 169.038 45.2559 170.318 46.6959 171.278C48.1759 172.238 50.0359 172.718 52.2759 172.718ZM89.25 179.738C83.73 179.738 79.51 178.158 76.59 174.998C73.67 171.798 72.21 167.498 72.21 162.098C72.21 158.538 72.83 155.458 74.07 152.858C75.35 150.218 77.25 148.178 79.77 146.738C82.29 145.258 85.45 144.518 89.25 144.518C94.81 144.518 99.03 146.118 101.91 149.318C104.79 152.478 106.23 156.738 106.23 162.098C106.23 165.578 105.59 168.658 104.31 171.338C103.03 173.978 101.13 176.038 98.61 177.518C96.09 178.998 92.97 179.738 89.25 179.738ZM89.19 172.718C91.39 172.718 93.23 172.258 94.71 171.338C96.19 170.378 97.29 169.098 98.01 167.498C98.73 165.898 99.09 164.098 99.09 162.098C99.09 160.098 98.73 158.278 98.01 156.638C97.29 154.998 96.19 153.698 94.71 152.738C93.23 151.778 91.39 151.298 89.19 151.298C85.95 151.298 83.49 152.318 81.81 154.358C80.13 156.358 79.29 158.938 79.29 162.098C79.29 164.058 79.65 165.838 80.37 167.438C81.09 169.038 82.17 170.318 83.61 171.278C85.09 172.238 86.95 172.718 89.19 172.718ZM111.944 178.898V145.118H119.144V160.238L132.704 145.118H142.124V145.838L129.224 158.438L142.844 178.178V178.898H134.564L124.004 163.538L119.144 168.278V178.898H111.944ZM157.232 178.898L167.492 145.118H179.432L189.992 178.898H182.252L179.732 169.898H167.492L165.032 178.898H157.232ZM173.612 148.118L169.052 164.318H178.172L173.612 148.118ZM214.298 178.898H207.218V145.118H231.578V151.298H214.298V158.378H227.318V164.198H214.298V178.898ZM236.207 178.898V145.118H249.287C253.687 145.118 257.127 145.878 259.607 147.398C262.127 148.878 263.387 151.478 263.387 155.198C263.387 158.078 262.707 160.358 261.347 162.038C260.027 163.718 258.187 164.558 255.827 164.558C257.067 164.558 258.007 164.858 258.647 165.458C259.287 166.018 259.727 166.718 259.967 167.558C260.247 168.398 260.447 169.278 260.567 170.198C260.727 171.078 260.927 171.878 261.167 172.598C261.407 173.278 261.807 173.758 262.367 174.038C262.967 174.278 263.847 174.158 265.007 173.678V177.698C264.087 178.498 263.027 179.018 261.827 179.258C260.627 179.538 259.467 179.478 258.347 179.078C257.227 178.678 256.287 177.898 255.527 176.738C254.807 175.538 254.447 173.898 254.447 171.818C254.447 170.458 254.347 169.318 254.147 168.398C253.987 167.478 253.567 166.758 252.887 166.238C252.207 165.718 251.127 165.378 249.647 165.218C248.167 165.058 246.107 165.058 243.467 165.218V178.898H236.207ZM243.467 160.058H248.627C250.507 160.058 252.047 159.998 253.247 159.878C254.487 159.758 255.407 159.418 256.007 158.858C256.607 158.258 256.907 157.238 256.907 155.798C256.907 154.158 256.547 153.018 255.827 152.378C255.107 151.698 254.027 151.298 252.587 151.178C251.187 151.058 249.467 150.998 247.427 150.998H243.467V160.058ZM277.212 173.078H295.572V178.898H270.132V145.118H294.972V151.298H277.212V158.858H290.652V164.738H277.212V173.078ZM307.915 173.078H326.275V178.898H300.835V145.118H325.675V151.298H307.915V158.858H321.355V164.738H307.915V173.078ZM357.697 179.558C355.817 179.558 353.977 179.338 352.177 178.898C350.377 178.458 348.737 177.758 347.257 176.798C345.777 175.838 344.597 174.598 343.717 173.078C342.877 171.558 342.457 169.718 342.457 167.558H349.717C349.717 167.758 349.797 168.158 349.957 168.758C350.117 169.318 350.477 169.938 351.037 170.618C351.597 171.258 352.457 171.818 353.617 172.298C354.777 172.738 356.317 172.958 358.237 172.958C359.997 172.958 361.437 172.678 362.557 172.118C363.717 171.518 364.317 170.658 364.357 169.538C364.357 168.578 363.957 167.818 363.157 167.258C362.397 166.698 361.377 166.238 360.097 165.878C358.817 165.478 357.397 165.118 355.837 164.798C354.317 164.478 352.797 164.078 351.277 163.598C349.797 163.118 348.437 162.478 347.197 161.678C345.957 160.878 344.977 159.858 344.257 158.618C343.577 157.338 343.297 155.718 343.417 153.758C343.617 150.878 344.997 148.618 347.557 146.978C350.117 145.338 353.597 144.518 357.997 144.518C360.437 144.518 362.717 144.958 364.837 145.838C366.957 146.678 368.677 147.978 369.997 149.738C371.317 151.498 371.977 153.718 371.977 156.398H364.957C364.957 154.958 364.517 153.878 363.637 153.158C362.757 152.438 361.697 151.958 360.457 151.718C359.257 151.438 358.177 151.298 357.217 151.298C355.457 151.298 353.997 151.578 352.837 152.138C351.717 152.658 351.157 153.498 351.157 154.658C351.157 155.658 351.537 156.458 352.297 157.058C353.097 157.658 354.157 158.138 355.477 158.498C356.797 158.858 358.217 159.198 359.737 159.518C361.297 159.798 362.837 160.158 364.357 160.598C365.917 161.038 367.317 161.658 368.557 162.458C369.797 163.218 370.777 164.238 371.497 165.518C372.217 166.758 372.517 168.378 372.397 170.378C372.197 173.258 370.757 175.518 368.077 177.158C365.397 178.758 361.937 179.558 357.697 179.558ZM385.317 173.078H403.677V178.898H378.237V145.118H403.077V151.298H385.317V158.858H398.757V164.738H385.317V173.078ZM422.56 179.558C420.68 179.558 418.84 179.338 417.04 178.898C415.24 178.458 413.6 177.758 412.12 176.798C410.64 175.838 409.46 174.598 408.58 173.078C407.74 171.558 407.32 169.718 407.32 167.558H414.58C414.58 167.758 414.66 168.158 414.82 168.758C414.98 169.318 415.34 169.938 415.9 170.618C416.46 171.258 417.32 171.818 418.48 172.298C419.64 172.738 421.18 172.958 423.1 172.958C424.86 172.958 426.3 172.678 427.42 172.118C428.58 171.518 429.18 170.658 429.22 169.538C429.22 168.578 428.82 167.818 428.02 167.258C427.26 166.698 426.24 166.238 424.96 165.878C423.68 165.478 422.26 165.118 420.7 164.798C419.18 164.478 417.66 164.078 416.14 163.598C414.66 163.118 413.3 162.478 412.06 161.678C410.82 160.878 409.84 159.858 409.12 158.618C408.44 157.338 408.16 155.718 408.28 153.758C408.48 150.878 409.86 148.618 412.42 146.978C414.98 145.338 418.46 144.518 422.86 144.518C425.3 144.518 427.58 144.958 429.7 145.838C431.82 146.678 433.54 147.978 434.86 149.738C436.18 151.498 436.84 153.718 436.84 156.398H429.82C429.82 154.958 429.38 153.878 428.5 153.158C427.62 152.438 426.56 151.958 425.32 151.718C424.12 151.438 423.04 151.298 422.08 151.298C420.32 151.298 418.86 151.578 417.7 152.138C416.58 152.658 416.02 153.498 416.02 154.658C416.02 155.658 416.4 156.458 417.16 157.058C417.96 157.658 419.02 158.138 420.34 158.498C421.66 158.858 423.08 159.198 424.6 159.518C426.16 159.798 427.7 160.158 429.22 160.598C430.78 161.038 432.18 161.658 433.42 162.458C434.66 163.218 435.64 164.238 436.36 165.518C437.08 166.758 437.38 168.378 437.26 170.378C437.06 173.258 435.62 175.518 432.94 177.158C430.26 178.758 426.8 179.558 422.56 179.558ZM456.72 179.558C454.84 179.558 453 179.338 451.2 178.898C449.4 178.458 447.76 177.758 446.28 176.798C444.8 175.838 443.62 174.598 442.74 173.078C441.9 171.558 441.48 169.718 441.48 167.558H448.74C448.74 167.758 448.82 168.158 448.98 168.758C449.14 169.318 449.5 169.938 450.06 170.618C450.62 171.258 451.48 171.818 452.64 172.298C453.8 172.738 455.34 172.958 457.26 172.958C459.02 172.958 460.46 172.678 461.58 172.118C462.74 171.518 463.34 170.658 463.38 169.538C463.38 168.578 462.98 167.818 462.18 167.258C461.42 166.698 460.4 166.238 459.12 165.878C457.84 165.478 456.42 165.118 454.86 164.798C453.34 164.478 451.82 164.078 450.3 163.598C448.82 163.118 447.46 162.478 446.22 161.678C444.98 160.878 444 159.858 443.28 158.618C442.6 157.338 442.32 155.718 442.44 153.758C442.64 150.878 444.02 148.618 446.58 146.978C449.14 145.338 452.62 144.518 457.02 144.518C459.46 144.518 461.74 144.958 463.86 145.838C465.98 146.678 467.7 147.978 469.02 149.738C470.34 151.498 471 153.718 471 156.398H463.98C463.98 154.958 463.54 153.878 462.66 153.158C461.78 152.438 460.72 151.958 459.48 151.718C458.28 151.438 457.2 151.298 456.24 151.298C454.48 151.298 453.02 151.578 451.86 152.138C450.74 152.658 450.18 153.498 450.18 154.658C450.18 155.658 450.56 156.458 451.32 157.058C452.12 157.658 453.18 158.138 454.5 158.498C455.82 158.858 457.24 159.198 458.76 159.518C460.32 159.798 461.86 160.158 463.38 160.598C464.94 161.038 466.34 161.658 467.58 162.458C468.82 163.218 469.8 164.238 470.52 165.518C471.24 166.758 471.54 168.378 471.42 170.378C471.22 173.258 469.78 175.518 467.1 177.158C464.42 178.758 460.96 179.558 456.72 179.558ZM493.881 172.718V178.898H477.861V172.718H482.301V151.298H477.861V145.118H493.881V151.298H489.501V172.718H493.881ZM515.988 179.738C510.468 179.738 506.248 178.158 503.328 174.998C500.408 171.798 498.948 167.498 498.948 162.098C498.948 158.538 499.568 155.458 500.808 152.858C502.088 150.218 503.988 148.178 506.508 146.738C509.028 145.258 512.188 144.518 515.988 144.518C521.548 144.518 525.768 146.118 528.648 149.318C531.528 152.478 532.968 156.738 532.968 162.098C532.968 165.578 532.328 168.658 531.048 171.338C529.768 173.978 527.868 176.038 525.348 177.518C522.828 178.998 519.708 179.738 515.988 179.738ZM515.928 172.718C518.128 172.718 519.968 172.258 521.448 171.338C522.928 170.378 524.028 169.098 524.748 167.498C525.468 165.898 525.828 164.098 525.828 162.098C525.828 160.098 525.468 158.278 524.748 156.638C524.028 154.998 522.928 153.698 521.448 152.738C519.968 151.778 518.128 151.298 515.928 151.298C512.688 151.298 510.228 152.318 508.548 154.358C506.868 156.358 506.028 158.938 506.028 162.098C506.028 164.058 506.388 165.838 507.108 167.438C507.828 169.038 508.908 170.318 510.348 171.278C511.828 172.238 513.688 172.718 515.928 172.718ZM561.062 145.118H568.622V178.898H554.762L545.822 148.298H545.702V178.898H538.202V145.118H551.042L560.942 175.718H561.062V145.118Z" fill="white"/>
<path d="M585.131 151.298V145.118H611.531V151.298H601.931V178.898H594.671V151.298H585.131ZM630.832 179.738C625.312 179.738 621.092 178.158 618.172 174.998C615.252 171.798 613.792 167.498 613.792 162.098C613.792 158.538 614.412 155.458 615.652 152.858C616.932 150.218 618.832 148.178 621.352 146.738C623.872 145.258 627.032 144.518 630.832 144.518C636.392 144.518 640.612 146.118 643.492 149.318C646.372 152.478 647.812 156.738 647.812 162.098C647.812 165.578 647.172 168.658 645.892 171.338C644.612 173.978 642.712 176.038 640.192 177.518C637.672 178.998 634.552 179.738 630.832 179.738ZM630.772 172.718C632.972 172.718 634.812 172.258 636.292 171.338C637.772 170.378 638.872 169.098 639.592 167.498C640.312 165.898 640.672 164.098 640.672 162.098C640.672 160.098 640.312 158.278 639.592 156.638C638.872 154.998 637.772 153.698 636.292 152.738C634.812 151.778 632.972 151.298 630.772 151.298C627.532 151.298 625.072 152.318 623.392 154.358C621.712 156.358 620.872 158.938 620.872 162.098C620.872 164.058 621.232 165.838 621.952 167.438C622.672 169.038 623.752 170.318 625.192 171.278C626.672 172.238 628.532 172.718 630.772 172.718ZM684.366 161.978C684.366 166.418 683.486 169.878 681.726 172.358C679.966 174.798 677.466 176.498 674.226 177.458C671.026 178.418 667.266 178.898 662.946 178.898H653.466V145.118H662.946C667.266 145.118 671.026 145.758 674.226 147.038C677.466 148.278 679.966 150.138 681.726 152.618C683.486 155.098 684.366 158.218 684.366 161.978ZM660.606 172.958H665.106C667.466 172.958 669.506 172.678 671.226 172.118C672.986 171.518 674.326 170.438 675.246 168.878C676.206 167.278 676.686 164.958 676.686 161.918C676.686 158.398 675.646 155.758 673.566 153.998C671.486 152.238 668.666 151.358 665.106 151.358H660.606V172.958ZM687.799 178.898L698.059 145.118H709.999L720.559 178.898H712.819L710.299 169.898H698.059L695.599 178.898H687.799ZM704.179 148.118L699.619 164.318H708.739L704.179 148.118ZM730.782 178.898V167.138L719.262 145.118H727.422L734.502 160.898L741.642 145.118H749.742L737.982 167.078V178.898H730.782Z" fill="url(#paint0_linear_59_2203)"/>
<defs>
<linearGradient id="paint0_linear_59_2203" x1="185.618" y1="83.8982" x2="749.256" y2="83.8982" gradientUnits="userSpaceOnUse">
<stop stop-color="white"/>
<stop offset="1" stop-color="#4FA0CA"/>
</linearGradient>
</defs>
</svg>
