<svg width="200" height="129" viewBox="0 0 200 129" fill="none" xmlns="http://www.w3.org/2000/svg">
<rect x="0.923828" y="0.749756" width="198.346" height="128.099" rx="16" fill="#133063"/>
<path d="M59.0376 56.8551V61.7991H45.1656V56.8551H49.6776V41.3031C49.4536 42.5191 49.0536 43.4631 48.4776 44.1351C47.9336 44.7751 47.3256 45.2391 46.6536 45.5271C46.0136 45.7831 45.4216 45.9271 44.8776 45.9591C44.3656 45.9911 44.0296 46.0071 43.8696 46.0071V39.6231C44.0616 39.6871 44.4776 39.7031 45.1176 39.6711C45.7896 39.6391 46.4936 39.4951 47.2296 39.2391C47.9976 38.9511 48.6696 38.4551 49.2456 37.7511C49.8536 37.0471 50.1896 36.0551 50.2536 34.7751H55.4376V56.8551H59.0376ZM73.8872 62.2791C71.5832 62.2791 69.6632 61.8791 68.1272 61.0791C66.6232 60.2791 65.4552 59.2711 64.6232 58.0551C63.8232 56.8071 63.3272 55.5591 63.1352 54.3111L68.8952 53.4471C68.9272 53.7991 69.1192 54.2951 69.4712 54.9351C69.8232 55.5431 70.3672 56.1191 71.1032 56.6631C71.8392 57.1751 72.8152 57.4311 74.0312 57.4311C75.5672 57.4311 76.7512 56.9671 77.5832 56.0391C78.4152 55.1111 78.8952 54.0871 79.0232 52.9671C79.0872 52.1031 78.9432 51.2711 78.5912 50.4711C78.2712 49.6711 77.7272 49.0151 76.9592 48.5031C76.2232 47.9911 75.2792 47.7351 74.1272 47.7351C73.0712 47.7351 72.2392 47.9431 71.6312 48.3591C71.0232 48.7431 70.5912 49.1431 70.3352 49.5591C70.0792 49.9431 69.9352 50.1511 69.9032 50.1831L63.8552 49.2231L65.3432 34.7751H83.4872V39.7191H69.3752L68.5112 47.6871C68.5112 47.6871 68.6392 47.4951 68.8952 47.1111C69.1512 46.7271 69.5672 46.2951 70.1432 45.8151C70.7192 45.3031 71.4712 44.8551 72.3992 44.4711C73.3592 44.0871 74.5112 43.8951 75.8552 43.8951C77.9992 43.8951 79.7432 44.3431 81.0872 45.2391C82.4312 46.1031 83.4072 47.2391 84.0152 48.6471C84.6232 50.0551 84.8792 51.5111 84.7832 53.0151C84.6552 54.5511 84.1272 56.0391 83.1992 57.4791C82.3032 58.8871 81.0712 60.0391 79.5032 60.9351C77.9352 61.8311 76.0632 62.2791 73.8872 62.2791ZM100.154 62.4711C96.0901 62.4711 93.0661 61.2071 91.0821 58.6791C89.0981 56.1191 88.1061 52.6791 88.1061 48.3591C88.1061 45.5111 88.5221 43.0471 89.3541 40.9671C90.2181 38.8551 91.5301 37.2231 93.2901 36.0711C95.0821 34.8871 97.3701 34.2951 100.154 34.2951C104.282 34.2951 107.322 35.5751 109.274 38.1351C111.226 40.6631 112.202 44.0711 112.202 48.3591C112.202 51.1431 111.77 53.6071 110.906 55.7511C110.042 57.8631 108.714 59.5111 106.922 60.6951C105.162 61.8791 102.906 62.4711 100.154 62.4711ZM100.106 57.6711C102.41 57.6711 104.106 56.9031 105.194 55.3671C106.282 53.7991 106.826 51.4631 106.826 48.3591C106.826 45.2551 106.282 42.9351 105.194 41.3991C104.138 39.8631 102.442 39.0951 100.106 39.0951C97.8661 39.0951 96.2021 39.8471 95.1141 41.3511C94.0261 42.8231 93.4821 45.1591 93.4821 48.3591C93.4821 51.4631 94.0101 53.7991 95.0661 55.3671C96.1221 56.9031 97.8021 57.6711 100.106 57.6711ZM127.013 62.4711C122.949 62.4711 119.925 61.2071 117.941 58.6791C115.957 56.1191 114.965 52.6791 114.965 48.3591C114.965 45.5111 115.381 43.0471 116.213 40.9671C117.077 38.8551 118.389 37.2231 120.149 36.0711C121.941 34.8871 124.229 34.2951 127.013 34.2951C131.141 34.2951 134.181 35.5751 136.133 38.1351C138.085 40.6631 139.061 44.0711 139.061 48.3591C139.061 51.1431 138.629 53.6071 137.765 55.7511C136.901 57.8631 135.573 59.5111 133.781 60.6951C132.021 61.8791 129.765 62.4711 127.013 62.4711ZM126.965 57.6711C129.269 57.6711 130.965 56.9031 132.053 55.3671C133.141 53.7991 133.685 51.4631 133.685 48.3591C133.685 45.2551 133.141 42.9351 132.053 41.3991C130.997 39.8631 129.301 39.0951 126.965 39.0951C124.725 39.0951 123.061 39.8471 121.973 41.3511C120.885 42.8231 120.341 45.1591 120.341 48.3591C120.341 51.4631 120.869 53.7991 121.925 55.3671C122.981 56.9031 124.661 57.6711 126.965 57.6711ZM147.393 58.0071V53.0151H142.305V49.0311H147.393V43.9431H151.377V49.0311H156.417V53.0151H151.377V58.0071H147.393ZM34.9279 95.1111C33.9839 95.1111 33.0719 94.9591 32.1919 94.6551C31.3279 94.3351 30.6159 93.8471 30.0559 93.1911C29.4959 92.5191 29.2079 91.6551 29.1919 90.5991H30.7279C30.7279 90.6471 30.7439 90.7831 30.7759 91.0071C30.8079 91.2311 30.8879 91.4951 31.0159 91.7991C31.1599 92.0871 31.3839 92.3831 31.6879 92.6871C31.9919 92.9751 32.4159 93.2151 32.9599 93.4071C33.5039 93.5991 34.1999 93.6951 35.0479 93.6951C35.9919 93.6951 36.7119 93.5591 37.2079 93.2871C37.7039 92.9991 38.0399 92.6791 38.2159 92.3271C38.4079 91.9591 38.5039 91.6711 38.5039 91.4631C38.5199 90.9031 38.3679 90.4551 38.0479 90.1191C37.7279 89.7831 37.2959 89.5111 36.7519 89.3031C36.2239 89.0951 35.6399 88.9111 34.9999 88.7511C34.3599 88.5911 33.7199 88.4231 33.0799 88.2471C32.4559 88.0551 31.8799 87.8151 31.3519 87.5271C30.8239 87.2231 30.4079 86.8311 30.1039 86.3511C29.7999 85.8711 29.6639 85.2551 29.6959 84.5031C29.7279 83.7831 29.9759 83.1671 30.4399 82.6551C30.9039 82.1431 31.5199 81.7511 32.2879 81.4791C33.0719 81.1911 33.9599 81.0471 34.9519 81.0471C35.8639 81.0471 36.7039 81.2151 37.4719 81.5511C38.2559 81.8711 38.8799 82.3591 39.3439 83.0151C39.8079 83.6711 40.0239 84.4871 39.9919 85.4631H38.4799C38.4959 84.8551 38.3759 84.3591 38.1199 83.9751C37.8799 83.5751 37.5599 83.2711 37.1599 83.0631C36.7599 82.8551 36.3439 82.7111 35.9119 82.6311C35.4959 82.5351 35.1279 82.4871 34.8079 82.4871C33.7999 82.4871 32.9679 82.6871 32.3119 83.0871C31.6559 83.4871 31.3199 84.0071 31.3039 84.6471C31.3039 85.2071 31.4639 85.6551 31.7839 85.9911C32.1039 86.3271 32.5279 86.5991 33.0559 86.8071C33.5999 86.9991 34.1919 87.1671 34.8319 87.3111C35.4719 87.4551 36.1039 87.6231 36.7279 87.8151C37.3679 87.9911 37.9519 88.2231 38.4799 88.5111C39.0079 88.7991 39.4239 89.1911 39.7279 89.6871C40.0319 90.1831 40.1679 90.8151 40.1359 91.5831C40.1039 92.3351 39.8559 92.9751 39.3919 93.5031C38.9279 94.0151 38.3119 94.4151 37.5439 94.7031C36.7759 94.9751 35.9039 95.1111 34.9279 95.1111ZM45.4253 95.0151C44.5293 95.0151 43.7933 94.7991 43.2173 94.3671C42.6413 93.9191 42.2093 93.3191 41.9213 92.5671C41.6493 91.8151 41.5133 90.9591 41.5133 89.9991C41.5133 88.5271 41.8333 87.3191 42.4733 86.3751C43.1293 85.4151 44.1133 84.9351 45.4253 84.9351C46.0973 84.9351 46.6573 85.0551 47.1053 85.2951C47.5693 85.5191 47.9373 85.7991 48.2093 86.1351C48.4973 86.4711 48.7053 86.7911 48.8333 87.0951H48.8573V85.0311H50.4413V94.7991H49.1213L48.8813 92.9031H48.8333C48.6893 93.2231 48.4813 93.5511 48.2093 93.8871C47.9373 94.2071 47.5693 94.4791 47.1053 94.7031C46.6573 94.9111 46.0973 95.0151 45.4253 95.0151ZM46.0253 93.6471C47.0173 93.6471 47.7293 93.3191 48.1613 92.6631C48.6093 92.0071 48.8333 91.1271 48.8333 90.0231C48.8333 88.8391 48.6013 87.9351 48.1373 87.3111C47.6893 86.6871 46.9853 86.3751 46.0253 86.3751C44.9693 86.3751 44.2093 86.7271 43.7453 87.4311C43.2973 88.1191 43.0733 88.9751 43.0733 89.9991C43.0733 91.0711 43.3053 91.9511 43.7693 92.6391C44.2333 93.3111 44.9853 93.6471 46.0253 93.6471ZM54.6835 94.7991C54.0915 94.7991 53.6755 94.6391 53.4355 94.3191C53.2115 93.9991 53.0995 93.5591 53.0995 92.9991V86.1831H51.5635V85.0311C52.0755 85.0311 52.4515 84.9911 52.6915 84.9111C52.9475 84.8151 53.1075 84.5911 53.1715 84.2391C53.2355 83.8871 53.2675 83.3111 53.2675 82.5111H54.5875V85.0311H56.8435V86.1831H54.5875V93.5511H56.8675V94.7991H54.6835ZM60.0923 83.9751C59.7403 83.9751 59.5003 83.8871 59.3723 83.7111C59.2603 83.5191 59.2043 83.2791 59.2043 82.9911C59.2043 82.7511 59.2603 82.5431 59.3723 82.3671C59.5003 82.1751 59.7403 82.0791 60.0923 82.0791C60.4443 82.0791 60.6763 82.1751 60.7883 82.3671C60.9163 82.5431 60.9803 82.7511 60.9803 82.9911C60.9803 83.2791 60.9163 83.5191 60.7883 83.7111C60.6763 83.8871 60.4443 83.9751 60.0923 83.9751ZM59.3243 94.7991V85.0311H60.8603V94.7991H59.3243ZM66.9985 95.0391C66.0705 95.0391 65.3025 94.8471 64.6945 94.4631C64.1025 94.0631 63.6545 93.5991 63.3505 93.0711C63.0625 92.5431 62.9185 92.0711 62.9185 91.6551H64.4065C64.4065 91.6711 64.4145 91.7911 64.4305 92.0151C64.4625 92.2391 64.5505 92.4951 64.6945 92.7831C64.8385 93.0711 65.0865 93.3271 65.4385 93.5511C65.7905 93.7591 66.3025 93.8631 66.9745 93.8631C67.6945 93.8631 68.3105 93.7351 68.8225 93.4791C69.3505 93.2231 69.6065 92.8231 69.5905 92.2791C69.5905 91.8151 69.4305 91.4631 69.1105 91.2231C68.8065 90.9671 68.4065 90.7751 67.9105 90.6471C67.4145 90.5031 66.8945 90.3671 66.3505 90.2391C65.8065 90.1111 65.2865 89.9511 64.7905 89.7591C64.3105 89.5511 63.9185 89.2631 63.6145 88.8951C63.3105 88.5271 63.1585 88.0151 63.1585 87.3591C63.1585 86.5591 63.5185 85.9271 64.2385 85.4631C64.9585 84.9831 65.8785 84.7431 66.9985 84.7431C67.6225 84.7431 68.2545 84.8471 68.8945 85.0551C69.5345 85.2471 70.0625 85.5911 70.4785 86.0871C70.8945 86.5671 71.0865 87.2471 71.0545 88.1271H69.6145C69.6465 87.5191 69.5105 87.0631 69.2065 86.7591C68.9025 86.4551 68.5345 86.2551 68.1025 86.1591C67.6865 86.0471 67.3025 85.9911 66.9505 85.9911C66.2625 85.9911 65.6945 86.1191 65.2465 86.3751C64.8145 86.6311 64.5985 86.9911 64.5985 87.4551C64.5985 87.9031 64.7505 88.2471 65.0545 88.4871C65.3745 88.7111 65.7745 88.8951 66.2545 89.0391C66.7505 89.1671 67.2705 89.2951 67.8145 89.4231C68.3745 89.5351 68.9025 89.6951 69.3985 89.9031C69.8945 90.1111 70.2945 90.4071 70.5985 90.7911C70.9185 91.1751 71.0785 91.7031 71.0785 92.3751C71.0785 93.3031 70.6865 93.9831 69.9025 94.4151C69.1185 94.8311 68.1505 95.0391 66.9985 95.0391ZM73.6787 94.8711V86.1831H72.1667V85.0311H73.6787V82.8711C73.6787 82.3111 73.7907 81.8711 74.0147 81.5511C74.2547 81.2311 74.6707 81.0711 75.2627 81.0711H78.1667V82.3431H75.2387V85.0311H77.9987V86.1831H75.2387V94.8711H73.6787ZM81.022 83.9751C80.67 83.9751 80.43 83.8871 80.302 83.7111C80.19 83.5191 80.134 83.2791 80.134 82.9911C80.134 82.7511 80.19 82.5431 80.302 82.3671C80.43 82.1751 80.67 82.0791 81.022 82.0791C81.374 82.0791 81.606 82.1751 81.718 82.3671C81.846 82.5431 81.91 82.7511 81.91 82.9911C81.91 83.2791 81.846 83.5191 81.718 83.7111C81.606 83.8871 81.374 83.9751 81.022 83.9751ZM80.254 94.7991V85.0311H81.79V94.7991H80.254ZM88.4802 95.0391C87.4082 95.0391 86.5202 94.7991 85.8162 94.3191C85.1282 93.8231 84.6162 93.1911 84.2802 92.4231C83.9602 91.6391 83.8002 90.8311 83.8002 89.9991C83.8002 89.0871 83.9762 88.2551 84.3282 87.5031C84.6962 86.7351 85.2242 86.1271 85.9122 85.6791C86.6162 85.2311 87.4562 85.0071 88.4322 85.0071C89.6802 85.0071 90.7202 85.4151 91.5522 86.2311C92.3842 87.0311 92.8322 88.1111 92.8962 89.4711C92.9122 89.5351 92.9202 89.6311 92.9202 89.7591C92.9202 89.8711 92.9202 89.9751 92.9202 90.0711H85.2882C85.2882 91.2071 85.5602 92.1031 86.1042 92.7591C86.6642 93.3991 87.4482 93.7191 88.4562 93.7191C89.2082 93.7191 89.8482 93.5271 90.3762 93.1431C90.9202 92.7591 91.2562 92.2391 91.3842 91.5831H92.8962C92.7362 92.5751 92.2642 93.3991 91.4802 94.0551C90.6962 94.7111 89.6962 95.0391 88.4802 95.0391ZM85.3362 89.2311H91.3362C91.3362 88.8951 91.2402 88.4951 91.0482 88.0311C90.8722 87.5671 90.5682 87.1671 90.1362 86.8311C89.7202 86.4791 89.1442 86.3031 88.4082 86.3031C87.7362 86.3031 87.1842 86.4471 86.7522 86.7351C86.3202 87.0231 85.9922 87.3911 85.7682 87.8391C85.5442 88.2871 85.4002 88.7511 85.3362 89.2311ZM99.3083 95.0391C98.3643 95.0391 97.5723 94.8231 96.9323 94.3911C96.3083 93.9591 95.8363 93.3671 95.5163 92.6151C95.2123 91.8471 95.0603 90.9911 95.0603 90.0471C95.0603 88.5911 95.4203 87.3911 96.1403 86.4471C96.8603 85.5031 97.9243 85.0311 99.3323 85.0311C99.9883 85.0311 100.532 85.1431 100.964 85.3671C101.412 85.5751 101.772 85.8311 102.044 86.1351C102.316 86.4391 102.516 86.7191 102.644 86.9751C102.772 87.2311 102.852 87.3991 102.884 87.4791H102.932L102.956 81.2871H104.54V94.7991H103.196L102.956 92.6391H102.908C102.876 92.7191 102.788 92.8871 102.644 93.1431C102.5 93.3991 102.284 93.6711 101.996 93.9591C101.724 94.2471 101.364 94.5031 100.916 94.7271C100.484 94.9351 99.9483 95.0391 99.3083 95.0391ZM99.6923 93.6711C100.636 93.6711 101.404 93.3511 101.996 92.7111C102.604 92.0551 102.908 91.1671 102.908 90.0471C102.908 88.9431 102.628 88.0711 102.068 87.4311C101.508 86.7751 100.756 86.4471 99.8123 86.4471C99.0603 86.4471 98.4443 86.6231 97.9643 86.9751C97.4843 87.3111 97.1323 87.7511 96.9083 88.2951C96.6843 88.8391 96.5723 89.4231 96.5723 90.0471C96.5723 90.6551 96.6763 91.2391 96.8843 91.7991C97.0923 92.3431 97.4203 92.7911 97.8683 93.1431C98.3163 93.4951 98.9243 93.6711 99.6923 93.6711ZM118.523 95.0391C117.275 95.0391 116.155 94.7831 115.163 94.2711C114.171 93.7431 113.379 92.9591 112.787 91.9191C112.211 90.8791 111.931 89.5991 111.947 88.0791C111.947 86.5431 112.227 85.2551 112.787 84.2151C113.363 83.1591 114.155 82.3671 115.163 81.8391C116.171 81.3111 117.323 81.0471 118.619 81.0471C120.283 81.0471 121.643 81.4951 122.699 82.3911C123.755 83.2711 124.427 84.4871 124.715 86.0391H123.107C122.899 84.8231 122.371 83.9271 121.523 83.3511C120.675 82.7751 119.707 82.4871 118.619 82.4871C117.019 82.4871 115.763 82.9671 114.851 83.9271C113.939 84.8711 113.483 86.2231 113.483 87.9831C113.483 89.8231 113.923 91.2231 114.803 92.1831C115.699 93.1271 116.947 93.5991 118.547 93.5991C119.747 93.5991 120.771 93.3111 121.619 92.7351C122.467 92.1431 122.987 91.2471 123.179 90.0471H124.811C124.523 91.5831 123.843 92.7991 122.771 93.6951C121.715 94.5911 120.299 95.0391 118.523 95.0391ZM126.892 94.7991V81.2871H128.404V94.7991H126.892ZM131.788 83.9751C131.436 83.9751 131.196 83.8871 131.068 83.7111C130.956 83.5191 130.9 83.2791 130.9 82.9911C130.9 82.7511 130.956 82.5431 131.068 82.3671C131.196 82.1751 131.436 82.0791 131.788 82.0791C132.14 82.0791 132.372 82.1751 132.484 82.3671C132.612 82.5431 132.676 82.7511 132.676 82.9911C132.676 83.2791 132.612 83.5191 132.484 83.7111C132.372 83.8871 132.14 83.9751 131.788 83.9751ZM131.02 94.7991V85.0311H132.556V94.7991H131.02ZM139.246 95.0391C138.174 95.0391 137.286 94.7991 136.582 94.3191C135.894 93.8231 135.382 93.1911 135.046 92.4231C134.726 91.6391 134.566 90.8311 134.566 89.9991C134.566 89.0871 134.742 88.2551 135.094 87.5031C135.462 86.7351 135.99 86.1271 136.678 85.6791C137.382 85.2311 138.222 85.0071 139.198 85.0071C140.446 85.0071 141.486 85.4151 142.318 86.2311C143.15 87.0311 143.598 88.1111 143.662 89.4711C143.678 89.5351 143.686 89.6311 143.686 89.7591C143.686 89.8711 143.686 89.9751 143.686 90.0711H136.054C136.054 91.2071 136.326 92.1031 136.87 92.7591C137.43 93.3991 138.214 93.7191 139.222 93.7191C139.974 93.7191 140.614 93.5271 141.142 93.1431C141.686 92.7591 142.022 92.2391 142.15 91.5831H143.662C143.502 92.5751 143.03 93.3991 142.246 94.0551C141.462 94.7111 140.462 95.0391 139.246 95.0391ZM136.102 89.2311H142.102C142.102 88.8951 142.006 88.4951 141.814 88.0311C141.638 87.5671 141.334 87.1671 140.902 86.8311C140.486 86.4791 139.91 86.3031 139.174 86.3031C138.502 86.3031 137.95 86.4471 137.518 86.7351C137.086 87.0231 136.758 87.3911 136.534 87.8391C136.31 88.2871 136.166 88.7511 136.102 89.2311ZM145.634 94.7991V85.0311H146.954L147.218 87.4551H147.266C147.282 87.3751 147.354 87.2071 147.482 86.9511C147.61 86.6951 147.802 86.4231 148.058 86.1351C148.33 85.8311 148.682 85.5751 149.114 85.3671C149.546 85.1431 150.098 85.0311 150.77 85.0311C151.618 85.0311 152.282 85.1831 152.762 85.4871C153.258 85.7911 153.626 86.1991 153.866 86.7111C154.106 87.2071 154.258 87.7431 154.322 88.3191C154.386 88.8951 154.418 89.4471 154.418 89.9751V94.7991H152.93V89.9751C152.93 88.9191 152.746 88.0631 152.378 87.4071C152.026 86.7511 151.322 86.4231 150.266 86.4231C149.546 86.4231 148.954 86.5991 148.49 86.9511C148.042 87.2871 147.714 87.7431 147.506 88.3191C147.314 88.8791 147.218 89.4951 147.218 90.1671V94.7991H145.634ZM158.793 94.7991C158.201 94.7991 157.785 94.6391 157.545 94.3191C157.321 93.9991 157.209 93.5591 157.209 92.9991V86.1831H155.673V85.0311C156.185 85.0311 156.561 84.9911 156.801 84.9111C157.057 84.8151 157.217 84.5911 157.281 84.2391C157.345 83.8871 157.377 83.3111 157.377 82.5111H158.697V85.0311H160.953V86.1831H158.697V93.5511H160.977V94.7991H158.793ZM166.866 95.0391C165.938 95.0391 165.17 94.8471 164.562 94.4631C163.97 94.0631 163.522 93.5991 163.218 93.0711C162.93 92.5431 162.786 92.0711 162.786 91.6551H164.274C164.274 91.6711 164.282 91.7911 164.298 92.0151C164.33 92.2391 164.418 92.4951 164.562 92.7831C164.706 93.0711 164.954 93.3271 165.306 93.5511C165.658 93.7591 166.17 93.8631 166.842 93.8631C167.562 93.8631 168.178 93.7351 168.69 93.4791C169.218 93.2231 169.474 92.8231 169.458 92.2791C169.458 91.8151 169.298 91.4631 168.978 91.2231C168.674 90.9671 168.274 90.7751 167.778 90.6471C167.282 90.5031 166.762 90.3671 166.218 90.2391C165.674 90.1111 165.154 89.9511 164.658 89.7591C164.178 89.5511 163.786 89.2631 163.482 88.8951C163.178 88.5271 163.026 88.0151 163.026 87.3591C163.026 86.5591 163.386 85.9271 164.106 85.4631C164.826 84.9831 165.746 84.7431 166.866 84.7431C167.49 84.7431 168.122 84.8471 168.762 85.0551C169.402 85.2471 169.93 85.5911 170.346 86.0871C170.762 86.5671 170.954 87.2471 170.922 88.1271H169.482C169.514 87.5191 169.378 87.0631 169.074 86.7591C168.77 86.4551 168.402 86.2551 167.97 86.1591C167.554 86.0471 167.17 85.9911 166.818 85.9911C166.13 85.9911 165.562 86.1191 165.114 86.3751C164.682 86.6311 164.466 86.9911 164.466 87.4551C164.466 87.9031 164.618 88.2471 164.922 88.4871C165.242 88.7111 165.642 88.8951 166.122 89.0391C166.618 89.1671 167.138 89.2951 167.682 89.4231C168.242 89.5351 168.77 89.6951 169.266 89.9031C169.762 90.1111 170.162 90.4071 170.466 90.7911C170.786 91.1751 170.946 91.7031 170.946 92.3751C170.946 93.3031 170.554 93.9831 169.77 94.4151C168.986 94.8311 168.018 95.0391 166.866 95.0391Z" fill="#EDF5FA"/>
</svg>
