<svg width="168" height="66" viewBox="0 0 168 66" fill="none" xmlns="http://www.w3.org/2000/svg">
<path d="M30.8113 42.4294C29.8353 42.4294 28.8993 42.2774 28.0033 41.9734C27.1073 41.6534 26.3713 41.1574 25.7953 40.4854C25.2353 39.7974 24.9473 38.9094 24.9313 37.8214H26.9473C26.9473 37.8854 26.9713 38.0694 27.0193 38.3734C27.0833 38.6614 27.2353 38.9814 27.4753 39.3334C27.7313 39.6694 28.1313 39.9654 28.6753 40.2214C29.2193 40.4774 29.9793 40.6054 30.9553 40.6054C31.7393 40.6054 32.3553 40.4934 32.8033 40.2694C33.2673 40.0454 33.5873 39.7814 33.7633 39.4774C33.9553 39.1734 34.0593 38.9014 34.0753 38.6614C34.0753 38.1654 33.9153 37.7654 33.5953 37.4614C33.2913 37.1574 32.8753 36.9174 32.3473 36.7414C31.8193 36.5494 31.2353 36.3814 30.5953 36.2374C29.9713 36.0774 29.3473 35.9094 28.7233 35.7334C28.0993 35.5414 27.5233 35.2934 26.9953 34.9894C26.4833 34.6854 26.0753 34.2934 25.7713 33.8134C25.4833 33.3174 25.3633 32.6854 25.4113 31.9174C25.4593 30.8134 25.9793 29.9494 26.9713 29.3254C27.9793 28.7014 29.2753 28.3894 30.8593 28.3894C31.7873 28.3894 32.6513 28.5574 33.4513 28.8934C34.2513 29.2294 34.8913 29.7334 35.3713 30.4054C35.8513 31.0774 36.0913 31.9174 36.0913 32.9254H34.1473C34.1473 32.3654 34.0273 31.9174 33.7873 31.5814C33.5473 31.2294 33.2433 30.9574 32.8753 30.7654C32.5073 30.5734 32.1233 30.4454 31.7233 30.3814C31.3233 30.3014 30.9633 30.2614 30.6433 30.2614C29.7313 30.2614 28.9793 30.4294 28.3873 30.7654C27.8113 31.1014 27.5233 31.5574 27.5233 32.1334C27.5073 32.6454 27.6593 33.0534 27.9793 33.3574C28.2993 33.6614 28.7233 33.9014 29.2513 34.0774C29.7793 34.2534 30.3553 34.4134 30.9793 34.5574C31.6193 34.7014 32.2513 34.8614 32.8753 35.0374C33.5153 35.2134 34.0913 35.4534 34.6033 35.7574C35.1313 36.0454 35.5393 36.4454 35.8273 36.9574C36.1313 37.4534 36.2673 38.0854 36.2353 38.8534C36.1873 39.6054 35.9233 40.2534 35.4433 40.7974C34.9793 41.3254 34.3473 41.7334 33.5473 42.0214C32.7473 42.2934 31.8353 42.4294 30.8113 42.4294ZM40.5082 40.5094H48.1402V42.1414H38.5402V28.6294H47.9002V30.3574H40.5082V34.4614H46.2682V36.1174H40.5082V40.5094ZM52.2738 40.5094H59.9058V42.1414H50.3058V28.6294H59.6658V30.3574H52.2738V34.4614H58.0338V36.1174H52.2738V40.5094ZM66.6684 42.1414L71.2044 28.6294H74.4924L79.1244 42.1414H76.9884L75.6924 38.1094H70.0764L68.7804 42.1414H66.6684ZM72.8844 29.4694L70.6044 36.5254H75.1644L72.8844 29.4694ZM98.4504 35.3734C98.4504 37.1494 98.1064 38.5334 97.4184 39.5254C96.7304 40.5014 95.7624 41.1814 94.5144 41.5654C93.2824 41.9494 91.8344 42.1414 90.1704 42.1414H86.5224V28.6294H90.1704C91.8344 28.6294 93.2824 28.8854 94.5144 29.3974C95.7624 29.8934 96.7304 30.6374 97.4184 31.6294C98.1064 32.6214 98.4504 33.8694 98.4504 35.3734ZM88.5144 40.4614H90.6984C91.8344 40.4614 92.8264 40.3334 93.6744 40.0774C94.5224 39.8054 95.1784 39.3014 95.6424 38.5654C96.1064 37.8294 96.3384 36.7574 96.3384 35.3494C96.3384 33.6694 95.8264 32.4214 94.8024 31.6054C93.7784 30.7734 92.4104 30.3574 90.6984 30.3574H88.5144V40.4614ZM102.571 40.5094H110.203V42.1414H100.603V28.6294H109.963V30.3574H102.571V34.4614H108.331V36.1174H102.571V40.5094ZM112.44 42.1414V28.6294H115.896L119.688 41.2534H119.736L123.456 28.6294H126.912V42.1414H124.872L124.992 29.5654H124.944L121.152 42.1414H118.2L114.432 29.5654H114.384L114.48 42.1414H112.44ZM135.426 42.4774C133.266 42.4774 131.618 41.8454 130.482 40.5814C129.346 39.3014 128.778 37.5814 128.778 35.4214C128.778 33.9974 129.018 32.7654 129.498 31.7254C129.994 30.6694 130.73 29.8534 131.706 29.2774C132.698 28.6854 133.938 28.3894 135.426 28.3894C137.586 28.3894 139.226 29.0294 140.346 30.3094C141.482 31.5734 142.05 33.2774 142.05 35.4214C142.05 36.8134 141.794 38.0454 141.282 39.1174C140.786 40.1734 140.042 40.9974 139.05 41.5894C138.074 42.1814 136.866 42.4774 135.426 42.4774ZM135.402 40.5574C136.954 40.5574 138.122 40.0774 138.906 39.1174C139.69 38.1574 140.082 36.9254 140.082 35.4214C140.082 33.9174 139.69 32.6854 138.906 31.7254C138.138 30.7494 136.97 30.2614 135.402 30.2614C133.866 30.2614 132.698 30.7254 131.898 31.6534C131.114 32.5814 130.722 33.8374 130.722 35.4214C130.722 36.4134 130.89 37.3014 131.226 38.0854C131.562 38.8534 132.074 39.4614 132.762 39.9094C133.466 40.3414 134.346 40.5574 135.402 40.5574Z" fill="#EDF5FA"/>
<rect x="1.25928" y="1.14136" width="165" height="63" rx="31.5" stroke="#EDF5FA" stroke-width="2"/>
</svg>
