<svg width="706" height="113" viewBox="0 0 706 113" fill="none" xmlns="http://www.w3.org/2000/svg">
<path d="M237.506 24.1124C236.611 24.1124 235.753 23.9731 234.932 23.6944C234.111 23.4011 233.436 22.9464 232.908 22.3304C232.395 21.6997 232.131 20.8857 232.116 19.8884H233.964C233.964 19.9471 233.986 20.1157 234.03 20.3944C234.089 20.6584 234.228 20.9517 234.448 21.2744C234.683 21.5824 235.049 21.8537 235.548 22.0884C236.047 22.3231 236.743 22.4404 237.638 22.4404C238.357 22.4404 238.921 22.3377 239.332 22.1324C239.757 21.9271 240.051 21.6851 240.212 21.4064C240.388 21.1277 240.483 20.8784 240.498 20.6584C240.498 20.2037 240.351 19.8371 240.058 19.5584C239.779 19.2797 239.398 19.0597 238.914 18.8984C238.43 18.7224 237.895 18.5684 237.308 18.4364C236.736 18.2897 236.164 18.1357 235.592 17.9744C235.02 17.7984 234.492 17.5711 234.008 17.2924C233.539 17.0137 233.165 16.6544 232.886 16.2144C232.622 15.7597 232.512 15.1804 232.556 14.4764C232.6 13.4644 233.077 12.6724 233.986 12.1004C234.91 11.5284 236.098 11.2424 237.55 11.2424C238.401 11.2424 239.193 11.3964 239.926 11.7044C240.659 12.0124 241.246 12.4744 241.686 13.0904C242.126 13.7064 242.346 14.4764 242.346 15.4004H240.564C240.564 14.8871 240.454 14.4764 240.234 14.1684C240.014 13.8457 239.735 13.5964 239.398 13.4204C239.061 13.2444 238.709 13.1271 238.342 13.0684C237.975 12.9951 237.645 12.9584 237.352 12.9584C236.516 12.9584 235.827 13.1124 235.284 13.4204C234.756 13.7284 234.492 14.1464 234.492 14.6744C234.477 15.1437 234.617 15.5177 234.91 15.7964C235.203 16.0751 235.592 16.2951 236.076 16.4564C236.56 16.6177 237.088 16.7644 237.66 16.8964C238.247 17.0284 238.826 17.1751 239.398 17.3364C239.985 17.4977 240.513 17.7177 240.982 17.9964C241.466 18.2604 241.84 18.6271 242.104 19.0964C242.383 19.5511 242.507 20.1304 242.478 20.8344C242.434 21.5237 242.192 22.1177 241.752 22.6164C241.327 23.1004 240.747 23.4744 240.014 23.7384C239.281 23.9877 238.445 24.1124 237.506 24.1124ZM250.795 22.3524H257.791V23.8484H248.991V11.4624H257.571V13.0464H250.795V16.8084H256.075V18.3264H250.795V22.3524ZM264.264 23.8484V11.4624H268.598C270.182 11.4624 271.407 11.7264 272.272 12.2544C273.152 12.7677 273.592 13.6991 273.592 15.0484C273.592 15.9871 273.35 16.7717 272.866 17.4024C272.397 18.0331 271.685 18.3484 270.732 18.3484C271.304 18.3484 271.729 18.4731 272.008 18.7224C272.287 18.9717 272.477 19.2871 272.58 19.6684C272.683 20.0351 272.749 20.4164 272.778 20.8124C272.807 21.2084 272.851 21.5677 272.91 21.8904C272.969 22.2131 273.086 22.4477 273.262 22.5944C273.438 22.7264 273.739 22.7117 274.164 22.5504V23.6504C273.959 23.8264 273.687 23.9437 273.35 24.0024C273.027 24.0757 272.705 24.0537 272.382 23.9364C272.059 23.8337 271.781 23.6137 271.546 23.2764C271.326 22.9244 271.216 22.4184 271.216 21.7584C271.216 20.9811 271.172 20.3724 271.084 19.9324C270.996 19.4924 270.791 19.1697 270.468 18.9644C270.145 18.7591 269.639 18.6417 268.95 18.6124C268.261 18.5684 267.315 18.5684 266.112 18.6124V23.8484H264.264ZM266.112 17.2484H268.664C269.412 17.2484 270.028 17.2044 270.512 17.1164C270.996 17.0137 271.355 16.8157 271.59 16.5224C271.839 16.2291 271.964 15.7817 271.964 15.1804C271.964 14.4911 271.817 13.9924 271.524 13.6844C271.231 13.3764 270.798 13.1857 270.226 13.1124C269.669 13.0244 268.987 12.9804 268.18 12.9804H266.112V17.2484ZM288.881 11.4624H290.883L286.659 23.8484H283.601L279.377 11.4624H281.357L285.119 23.0344L288.881 11.4624ZM302.189 22.2644V23.8484H297.019V22.2644H298.713V13.0464H297.019V11.4624H302.189V13.0464H300.517V22.2644H302.189ZM314.649 24.0684C313.505 24.0684 312.463 23.8337 311.525 23.3644C310.601 22.8804 309.867 22.1691 309.325 21.2304C308.797 20.2771 308.533 19.0964 308.533 17.6884C308.547 16.2951 308.819 15.1217 309.347 14.1684C309.875 13.2004 310.601 12.4744 311.525 11.9904C312.463 11.4917 313.534 11.2424 314.737 11.2424C316.335 11.2424 317.626 11.6677 318.609 12.5184C319.591 13.3691 320.2 14.4837 320.435 15.8624H318.543C318.425 15.1584 318.169 14.5937 317.773 14.1684C317.391 13.7431 316.929 13.4351 316.387 13.2444C315.859 13.0537 315.309 12.9584 314.737 12.9584C313.343 12.9584 312.265 13.3617 311.503 14.1684C310.74 14.9604 310.359 16.0971 310.359 17.5784C310.359 19.1331 310.733 20.3211 311.481 21.1424C312.229 21.9491 313.292 22.3524 314.671 22.3524C315.624 22.3524 316.475 22.1251 317.223 21.6704C317.971 21.2011 318.433 20.4457 318.609 19.4044H320.523C320.273 20.7831 319.657 21.9051 318.675 22.7704C317.692 23.6357 316.35 24.0684 314.649 24.0684ZM328.633 22.3524H335.629V23.8484H326.829V11.4624H335.409V13.0464H328.633V16.8084H333.913V18.3264H328.633V22.3524ZM351.486 23.8484V11.4624H354.654L358.13 23.0344H358.174L361.584 11.4624H364.752V23.8484H362.882L362.992 12.3204H362.948L359.472 23.8484H356.766L353.312 12.3204H353.268L353.356 23.8484H351.486ZM376.956 24.1564C374.976 24.1564 373.466 23.5771 372.424 22.4184C371.383 21.2451 370.862 19.6684 370.862 17.6884C370.862 16.3831 371.082 15.2537 371.522 14.3004C371.977 13.3324 372.652 12.5844 373.546 12.0564C374.456 11.5137 375.592 11.2424 376.956 11.2424C378.936 11.2424 380.44 11.8291 381.466 13.0024C382.508 14.1611 383.028 15.7231 383.028 17.6884C383.028 18.9644 382.794 20.0937 382.324 21.0764C381.87 22.0444 381.188 22.7997 380.278 23.3424C379.384 23.8851 378.276 24.1564 376.956 24.1564ZM376.934 22.3964C378.357 22.3964 379.428 21.9564 380.146 21.0764C380.865 20.1964 381.224 19.0671 381.224 17.6884C381.224 16.3097 380.865 15.1804 380.146 14.3004C379.442 13.4057 378.372 12.9584 376.934 12.9584C375.526 12.9584 374.456 13.3837 373.722 14.2344C373.004 15.0851 372.644 16.2364 372.644 17.6884C372.644 18.5977 372.798 19.4117 373.106 20.1304C373.414 20.8344 373.884 21.3917 374.514 21.8024C375.16 22.1984 375.966 22.3964 376.934 22.3964ZM400.571 17.6444C400.571 19.2724 400.256 20.5411 399.625 21.4504C398.994 22.3451 398.107 22.9684 396.963 23.3204C395.834 23.6724 394.506 23.8484 392.981 23.8484H389.637V11.4624H392.981C394.506 11.4624 395.834 11.6971 396.963 12.1664C398.107 12.6211 398.994 13.3031 399.625 14.2124C400.256 15.1217 400.571 16.2657 400.571 17.6444ZM391.463 22.3084H393.465C394.506 22.3084 395.416 22.1911 396.193 21.9564C396.97 21.7071 397.572 21.2451 397.997 20.5704C398.422 19.8957 398.635 18.9131 398.635 17.6224C398.635 16.0824 398.166 14.9384 397.227 14.1904C396.288 13.4277 395.034 13.0464 393.465 13.0464H391.463V22.3084ZM406.152 23.8484L410.31 11.4624H413.324L417.57 23.8484H415.612L414.424 20.1524H409.276L408.088 23.8484H406.152ZM411.85 12.2324L409.76 18.7004H413.94L411.85 12.2324ZM423.746 23.8484V11.4624H425.572V22.2644H432.062V23.8484H423.746ZM443.496 22.2644V23.8484H438.326V22.2644H440.02V13.0464H438.326V11.4624H443.496V13.0464H441.824V22.2644H443.496ZM449.576 13.0464V11.4624H459.036V13.0464H455.23V23.8484H453.404V13.0464H449.576ZM468.649 23.8484V19.4044L464.425 11.4624H466.471L469.595 17.7544L472.697 11.4624H474.743L470.475 19.3824V23.8484H468.649Z" fill="url(#paint0_linear_362_924)"/>
<path d="M169.789 99.8484H162.529V66.0684H169.789V79.9884H184.309V66.0684H191.509V99.8484H184.309V85.5084H169.789V99.8484ZM212.797 100.688C207.277 100.688 203.057 99.1084 200.137 95.9484C197.217 92.7484 195.757 88.4484 195.757 83.0484C195.757 79.4884 196.377 76.4084 197.617 73.8084C198.897 71.1684 200.797 69.1284 203.317 67.6884C205.837 66.2084 208.997 65.4684 212.797 65.4684C218.357 65.4684 222.577 67.0684 225.457 70.2684C228.337 73.4284 229.777 77.6884 229.777 83.0484C229.777 86.5284 229.137 89.6084 227.857 92.2884C226.577 94.9284 224.677 96.9884 222.157 98.4684C219.637 99.9484 216.517 100.688 212.797 100.688ZM212.737 93.6684C214.937 93.6684 216.777 93.2084 218.257 92.2884C219.737 91.3284 220.837 90.0484 221.557 88.4484C222.277 86.8484 222.637 85.0484 222.637 83.0484C222.637 81.0484 222.277 79.2284 221.557 77.5884C220.837 75.9484 219.737 74.6484 218.257 73.6884C216.777 72.7284 214.937 72.2484 212.737 72.2484C209.497 72.2484 207.037 73.2684 205.357 75.3084C203.677 77.3084 202.837 79.8884 202.837 83.0484C202.837 85.0084 203.197 86.7884 203.917 88.3884C204.637 89.9884 205.717 91.2684 207.157 92.2284C208.637 93.1884 210.497 93.6684 212.737 93.6684ZM271.491 66.0684H279.171L272.031 99.8484H260.391L256.011 75.2484L251.751 99.8484H240.111L232.731 66.0684H240.411L245.931 96.8484L252.111 66.1884L252.051 66.0684H259.851L266.211 96.8484L271.491 66.0684ZM312.623 93.6684V99.8484H296.603V93.6684H301.043V72.2484H296.603V66.0684H312.623V72.2484H308.243V93.6684H312.623ZM317.331 72.2484V66.0684H343.731V72.2484H334.131V99.8484H326.871V72.2484H317.331ZM397.35 66.0684H405.03L397.89 99.8484H386.25L381.87 75.2484L377.61 99.8484H365.97L358.59 66.0684H366.27L371.79 96.8484L377.97 66.1884L377.91 66.0684H385.71L392.07 96.8484L397.35 66.0684ZM424.203 100.688C418.683 100.688 414.463 99.1084 411.543 95.9484C408.623 92.7484 407.163 88.4484 407.163 83.0484C407.163 79.4884 407.783 76.4084 409.023 73.8084C410.303 71.1684 412.203 69.1284 414.723 67.6884C417.243 66.2084 420.403 65.4684 424.203 65.4684C429.763 65.4684 433.983 67.0684 436.863 70.2684C439.743 73.4284 441.183 77.6884 441.183 83.0484C441.183 86.5284 440.543 89.6084 439.263 92.2884C437.983 94.9284 436.083 96.9884 433.563 98.4684C431.043 99.9484 427.923 100.688 424.203 100.688ZM424.143 93.6684C426.343 93.6684 428.183 93.2084 429.663 92.2884C431.143 91.3284 432.243 90.0484 432.963 88.4484C433.683 86.8484 434.043 85.0484 434.043 83.0484C434.043 81.0484 433.683 79.2284 432.963 77.5884C432.243 75.9484 431.143 74.6484 429.663 73.6884C428.183 72.7284 426.343 72.2484 424.143 72.2484C420.903 72.2484 418.443 73.2684 416.763 75.3084C415.083 77.3084 414.243 79.8884 414.243 83.0484C414.243 85.0084 414.603 86.7884 415.323 88.3884C416.043 89.9884 417.123 91.2684 418.563 92.2284C420.043 93.1884 421.903 93.6684 424.143 93.6684ZM446.297 99.8484V66.0684H459.377C463.777 66.0684 467.217 66.8284 469.697 68.3484C472.217 69.8284 473.477 72.4284 473.477 76.1484C473.477 79.0284 472.797 81.3084 471.437 82.9884C470.117 84.6684 468.277 85.5084 465.917 85.5084C467.157 85.5084 468.097 85.8084 468.737 86.4084C469.377 86.9684 469.817 87.6684 470.057 88.5084C470.337 89.3484 470.537 90.2284 470.657 91.1484C470.817 92.0284 471.017 92.8284 471.257 93.5484C471.497 94.2284 471.897 94.7084 472.457 94.9884C473.057 95.2284 473.937 95.1084 475.097 94.6284V98.6484C474.177 99.4484 473.117 99.9684 471.917 100.208C470.717 100.488 469.557 100.428 468.437 100.028C467.317 99.6284 466.377 98.8484 465.617 97.6884C464.897 96.4884 464.537 94.8484 464.537 92.7684C464.537 91.4084 464.437 90.2684 464.237 89.3484C464.077 88.4284 463.657 87.7084 462.977 87.1884C462.297 86.6684 461.217 86.3284 459.737 86.1684C458.257 86.0084 456.197 86.0084 453.557 86.1684V99.8484H446.297ZM453.557 81.0084H458.717C460.597 81.0084 462.137 80.9484 463.337 80.8284C464.577 80.7084 465.497 80.3684 466.097 79.8084C466.697 79.2084 466.997 78.1884 466.997 76.7484C466.997 75.1084 466.637 73.9684 465.917 73.3284C465.197 72.6484 464.117 72.2484 462.677 72.1284C461.277 72.0084 459.557 71.9484 457.517 71.9484H453.557V81.0084ZM480.882 99.8484V66.0684H488.082V81.1884L501.642 66.0684H511.062V66.7884L498.162 79.3884L511.782 99.1284V99.8484H503.502L492.942 84.4884L488.082 89.2284V99.8484H480.882ZM529.291 100.508C527.411 100.508 525.571 100.288 523.771 99.8484C521.971 99.4084 520.331 98.7084 518.851 97.7484C517.371 96.7884 516.191 95.5484 515.311 94.0284C514.471 92.5084 514.051 90.6684 514.051 88.5084H521.311C521.311 88.7084 521.391 89.1084 521.551 89.7084C521.711 90.2684 522.071 90.8884 522.631 91.5684C523.191 92.2084 524.051 92.7684 525.211 93.2484C526.371 93.6884 527.911 93.9084 529.831 93.9084C531.591 93.9084 533.031 93.6284 534.151 93.0684C535.311 92.4684 535.911 91.6084 535.951 90.4884C535.951 89.5284 535.551 88.7684 534.751 88.2084C533.991 87.6484 532.971 87.1884 531.691 86.8284C530.411 86.4284 528.991 86.0684 527.431 85.7484C525.911 85.4284 524.391 85.0284 522.871 84.5484C521.391 84.0684 520.031 83.4284 518.791 82.6284C517.551 81.8284 516.571 80.8084 515.851 79.5684C515.171 78.2884 514.891 76.6684 515.011 74.7084C515.211 71.8284 516.591 69.5684 519.151 67.9284C521.711 66.2884 525.191 65.4684 529.591 65.4684C532.031 65.4684 534.311 65.9084 536.431 66.7884C538.551 67.6284 540.271 68.9284 541.591 70.6884C542.911 72.4484 543.571 74.6684 543.571 77.3484H536.551C536.551 75.9084 536.111 74.8284 535.231 74.1084C534.351 73.3884 533.291 72.9084 532.051 72.6684C530.851 72.3884 529.771 72.2484 528.811 72.2484C527.051 72.2484 525.591 72.5284 524.431 73.0884C523.311 73.6084 522.751 74.4484 522.751 75.6084C522.751 76.6084 523.131 77.4084 523.891 78.0084C524.691 78.6084 525.751 79.0884 527.071 79.4484C528.391 79.8084 529.811 80.1484 531.331 80.4684C532.891 80.7484 534.431 81.1084 535.951 81.5484C537.511 81.9884 538.911 82.6084 540.151 83.4084C541.391 84.1684 542.371 85.1884 543.091 86.4684C543.811 87.7084 544.111 89.3284 543.991 91.3284C543.791 94.2084 542.351 96.4684 539.671 98.1084C536.991 99.7084 533.531 100.508 529.291 100.508Z" fill="#133063"/>
<defs>
<linearGradient id="paint0_linear_362_924" x1="286.767" y1="15.8484" x2="454.59" y2="15.8484" gradientUnits="userSpaceOnUse">
<stop stop-color="#133063"/>
<stop offset="1" stop-color="#4FA0CA"/>
</linearGradient>
</defs>
</svg>
